<?xml version="1.0" encoding="utf-8"?>
<!-- Generator: Adobe Illustrator 19.2.0, SVG Export Plug-In . SVG Version: 6.00 Build 0)  -->
<svg version="1.1" xmlns="http://www.w3.org/2000/svg" xmlns:xlink="http://www.w3.org/1999/xlink" x="0px" y="0px"
	 viewBox="0 0 864.9 551" style="enable-background:new 0 0 864.9 551;" xml:space="preserve">
<style type="text/css">
	.st0{fill:#C9C9C9;}
	.st1{fill:#DBE691;}
	.st2{fill:#F4F4F4;}
</style>
<g id="Layer_1">
	<rect x="0" class="st0" width="864.9" height="551"/>
</g>
<g id="Layer_2">
	<polygon class="st1" points="359.1,397.3 502.3,397.3 491.1,424 369.4,433.1 	"/>
	<polygon class="st1" points="376.6,451.4 387.7,489.2 478.4,479.3 488.4,439.1 	"/>
	<path class="st1" d="M396.1,503.5l74.4-8.4c0,0-2.4,33-42.6,33C427.9,528.2,396.1,530.6,396.1,503.5z"/>
	<path class="st2" d="M350.4,363h167.9l50.6-96.8c21.7-41.5,29.1-89.4,18.7-135.1C575.4,77.1,538.3,19.9,437.1,15.8
		c0,0-109.1-9.6-151.5,85.1c-18.3,40.9-16.8,88,2.2,128.6L350.4,363z"/>
	<path class="st0" d="M320,178.3c0.8,3.6,3.3,6.7,6.7,8.1c2.6,1.1,5.8,1.2,10.1-3.2l0,0c0,0,2.7-88.2,84.3-95.6l6.9,0
		c7.9,0,13.2-8.6,9.1-15.3c-0.1-0.1-0.2-0.3-0.2-0.4c-1.6-2.5-4.4-4.2-7.4-4.5c-14.8-1.9-65.2-4-92.8,47.3
		C336.7,114.7,314.9,156.3,320,178.3z"/>
</g>
</svg>
