<?xml version="1.0" encoding="utf-8"?>
<!-- Generator: Adobe Illustrator 19.1.0, SVG Export Plug-In . SVG Version: 6.00 Build 0)  -->
<svg version="1.1" xmlns="http://www.w3.org/2000/svg" xmlns:xlink="http://www.w3.org/1999/xlink" x="0px" y="0px"
	 viewBox="0 0 792 612" style="enable-background:new 0 0 792 612;" xml:space="preserve">
<style type="text/css">
	.st0{fill:#F5F2E8;stroke:#393939;stroke-width:9;stroke-miterlimit:10;}
	.st1{fill:#3B4E4F;}
	.st2{fill:#659990;}
	.st3{fill:#F5F2E8;stroke:#383938;stroke-width:9;stroke-miterlimit:10;}
	.st4{fill:none;stroke:#383938;stroke-width:4;stroke-miterlimit:10;stroke-dasharray:12.0481,12.0481;}
	.st5{fill:#FFFFFF;}
	.st6{font-family:'HelveticaNeue-Thin';}
	.st7{font-size:217.98px;}
	.st8{fill:#F5F2E8;}
	.st9{fill:none;}
	.st10{font-family:'Garamond';}
	.st11{font-size:45px;}
	.st12{font-size:25px;}
	.st13{fill:none;stroke:#000000;stroke-miterlimit:10;}
	.st14{fill:#BACDAF;}
	.st15{fill:none;stroke:#383938;stroke-width:4;stroke-miterlimit:10;stroke-dasharray:12.0031,12.0031;}
</style>
<g id="Layer_1">
	<path class="st0" d="M684.2,607.7H106.9c0-56.8-46.1-102.9-102.9-102.9V106.6c56.8,0,102.9-46.1,102.9-102.9h577.4
		c0,56.8,46.1,102.9,102.9,102.9v398.2C730.3,504.8,684.2,550.9,684.2,607.7z"/>
</g>
<g id="Layer_3">
	<path class="st1" d="M309.1,218.6L50.8,288.5c-12.5,3.4-24.9-6-24.9-19v-80.1c0-12.3,11.2-21.7,23.3-19.4L309.1,218.6L309.1,218.6z
		"/>
	<path class="st2" d="M309.1,191.2L50.8,261.1c-12.5,3.4-24.9-6-24.9-19v-80.1c0-12.3,11.2-21.7,23.3-19.4L309.1,191.2L309.1,191.2z
		"/>
	<path class="st1" d="M482.4,218.6l258.3,69.9c12.5,3.4,24.9-6,24.9-19v-80.1c0-12.3-11.2-21.7-23.3-19.4L482.4,218.6L482.4,218.6z"
		/>
	<path class="st2" d="M482.4,191.2l258.3,69.9c12.5,3.4,24.9-6,24.9-19v-80.1c0-12.3-11.2-21.7-23.3-19.4L482.4,191.2L482.4,191.2z"
		/>
	<circle class="st3" cx="396.5" cy="189.8" r="158.3"/>
	<g>
		<ellipse class="st4" cx="396.8" cy="191.2" rx="144" ry="147.5"/>
	</g>
	<circle class="st1" cx="64" cy="191.3" r="20.8"/>
	<circle class="st1" cx="117.8" cy="191.4" r="16.2"/>
	<circle class="st1" cx="162" cy="191.5" r="10.6"/>
	<circle class="st1" cx="196.2" cy="191.4" r="7.4"/>
	<circle class="st1" cx="221.6" cy="192" r="5.2"/>
	<circle class="st1" cx="732" cy="191.3" r="20.8"/>
	<circle class="st1" cx="678.2" cy="191.4" r="16.2"/>
	<circle class="st1" cx="634.1" cy="191.5" r="10.6"/>
	<circle class="st1" cx="599.9" cy="191.4" r="7.4"/>
	<circle class="st1" cx="574.4" cy="192" r="5.2"/>
	<circle class="st5" cx="731.7" cy="195.3" r="20.8"/>
	<circle class="st5" cx="677.9" cy="195.4" r="16.2"/>
	<circle class="st5" cx="633.8" cy="195.5" r="10.6"/>
	<circle class="st5" cx="599.5" cy="195.4" r="7.4"/>
	<circle class="st5" cx="574.1" cy="196" r="5.2"/>
	<circle class="st5" cx="64" cy="195.3" r="20.8"/>
	<circle class="st5" cx="117.8" cy="195.4" r="16.2"/>
	<circle class="st5" cx="162" cy="195.5" r="10.6"/>
	<circle class="st5" cx="196.2" cy="195.4" r="7.4"/>
	<circle class="st5" cx="221.6" cy="196" r="5.2"/>
	<text transform="matrix(1 0 0 1 279.3994 256.187)" class="st1 st6 st7">20</text>
	<text transform="matrix(1 0 0 1 279.3994 262.7505)" class="st8 st6 st7">20</text>
	<text transform="matrix(1 0 0 1 279.3994 266.5859)" class="st2 st6 st7">20</text>
	<rect x="101.7" y="384.9" class="st9" width="597.4" height="155.2"/>
	<text transform="matrix(1 0 0 1 152.4306 414.4996)"><tspan x="0" y="0" class="st10 st11">Have a super duper amazing </tspan><tspan x="158.4" y="54" class="st10 st11">daaaaaaay!</tspan><tspan x="160.1" y="108" class="st10 st11">...go drink</tspan></text>
	<rect x="322.6" y="569.5" class="st9" width="165.6" height="28.7"/>
	<text transform="matrix(1 0 0 1 352.0054 585.9742)" class="st10 st12">From: Sara</text>
</g>
<g id="Layer_2">
</g>
</svg>
