<?xml version="1.0" encoding="utf-8"?>
<!-- Generator: Adobe Illustrator 19.1.0, SVG Export Plug-In . SVG Version: 6.00 Build 0)  -->
<svg version="1.1" xmlns="http://www.w3.org/2000/svg" xmlns:xlink="http://www.w3.org/1999/xlink" x="0px" y="0px"
	 viewBox="0 0 612 792" style="enable-background:new 0 0 612 792;" xml:space="preserve">
<style type="text/css">
	.st0{fill:#DBDFD5;}
	.st1{fill:#2C2C6F;}
	.st2{font-family:'MyriadPro-Bold';}
	.st3{font-size:77px;}
	.st4{font-family:'MyriadPro-LightIt';}
	.st5{font-size:14px;}
	.st6{fill:none;stroke:#231F1F;stroke-miterlimit:10;}
	.st7{fill:none;}
	.st8{font-family:'MyriadPro-Semibold';}
	.st9{font-size:19.4892px;}
	.st10{font-family:'MyriadPro-Light';}
	.st11{font-size:12.4731px;}
	.st12{font-size:15.5914px;}
	.st13{fill:none;stroke:#000000;stroke-width:5;stroke-miterlimit:10;}
	.st14{fill:none;stroke:#000000;stroke-width:2;stroke-miterlimit:10;}
	.st15{fill:none;stroke:#000000;stroke-miterlimit:10;}
	.st16{fill:none;stroke:#000000;stroke-width:3;stroke-miterlimit:10;}
	.st17{font-family:'MyriadPro-Regular';}
	.st18{fill:#EB2227;}
	.st19{fill:#CAE7F7;}
	.st20{fill:#241E20;}
	.st21{fill:#231F1F;}
	.st22{fill:#B28E46;}
	.st23{fill:#26170E;}
	.st24{fill:none;stroke:#26170E;stroke-miterlimit:10;}
	.st25{font-size:13.3109px;}
	.st26{font-size:12px;}
	.st27{font-size:10px;}
</style>
<g id="Background">
	<rect x="0" class="st0" width="612" height="791.2"/>
</g>
<g id="Layer_5">
	<path class="st1" d="M509.2,0c0,0,9,29.2,34.6,29.8c0,0,45.3,0.1,45.7,32c0,0,0.8,61.8-9.2,79.7c-1,1.7-2.6,5.6-3.4,7
		c-3.3,6.1-16.4,25.8-63.2,23.8l-135.2-0.8c0,0-39.1,8.9-38.2-32.2c0-2.2,0-4.3-0.3-6.5c-2.1-16-9.2-86.8,26.1-95.9
		c0,0,19.3-10,102.8-1.4C469,35.5,517.8,37.9,509.2,0z"/>
	<text transform="matrix(1 0 0 1 373.1446 108.5037)"><tspan x="0" y="0" class="st0 st2 st3">300g</tspan><tspan x="-7.2" y="32" class="st0 st4 st5">No artificial flavour or colour added</tspan><tspan x="-15.4" y="48" class="st0 st4 st5">Sans arôme artificiel ni colorant ajouté</tspan></text>
</g>
<g id="Nutrition_Facts">
	<g>
		<rect x="24.8" y="47.3" class="st6" width="275.1" height="318.9"/>
		<g>
			<rect x="24.8" y="51.3" class="st7" width="303.1" height="318.9"/>
			<text transform="matrix(1 0 0 1 24.8369 65.1425)"><tspan x="0" y="0" class="st8 st9">Nutrition Facts</tspan><tspan x="0" y="15" class="st10 st11">Serving Size 2 cookies (34 g)</tspan><tspan x="0" y="52.4" class="st8 st12">Calories</tspan><tspan x="54" y="52.4" class="st10 st12"> 160</tspan><tspan x="0" y="71.1" class="st8 st12">Fat</tspan><tspan x="21.3" y="71.1" class="st10 st12"> 7g</tspan><tspan x="0" y="89.8" class="st10 st12">Saturated + Trans 4g</tspan><tspan x="0" y="127.2" class="st8 st12">Cholesterol </tspan><tspan x="80.5" y="127.2" class="st10 st12">0 mg</tspan><tspan x="0" y="145.9" class="st8 st12">Sodium </tspan><tspan x="55.3" y="145.9" class="st10 st12">120mg</tspan><tspan x="0" y="164.6" class="st8 st12">Carbohydrate</tspan><tspan x="93.3" y="164.6" class="st10 st12"> 23g</tspan><tspan x="0" y="183.4" class="st10 st12">   Fiber 1g</tspan><tspan x="0" y="202.1" class="st10 st12">   Sugars 11g</tspan><tspan x="0" y="220.8" class="st8 st12">Protein</tspan><tspan x="49.5" y="220.8" class="st10 st12"> 2g</tspan><tspan x="0" y="239.5" class="st10 st12">Vitamin A </tspan><tspan x="0" y="258.2" class="st10 st12">Vitamin C </tspan><tspan x="0" y="276.9" class="st10 st12">Calcium</tspan><tspan x="0" y="295.6" class="st10 st12">Iron</tspan></text>
			<line class="st13" x1="24.8" y1="92.1" x2="300.7" y2="92.1"/>
			<line class="st14" x1="24.8" y1="120.9" x2="300.7" y2="120.9"/>
			<line class="st15" x1="24.8" y1="142" x2="300.7" y2="142"/>
			<line class="st15" x1="24.8" y1="168.5" x2="300.7" y2="168.5"/>
			<line class="st15" x1="24.8" y1="308" x2="300.7" y2="308"/>
			<line class="st15" x1="24.8" y1="329.1" x2="300.7" y2="329.1"/>
			<line class="st15" x1="24.8" y1="347" x2="300.7" y2="347"/>
			<line class="st15" x1="24.8" y1="196.5" x2="300.7" y2="196.5"/>
			<line class="st15" x1="24.8" y1="216" x2="300.7" y2="216"/>
			<line class="st15" x1="24.8" y1="233.9" x2="300.7" y2="233.9"/>
			<line class="st15" x1="35" y1="254.2" x2="299.9" y2="254.2"/>
			<line class="st15" x1="35" y1="272.9" x2="299.9" y2="272.9"/>
			<line class="st16" x1="24.8" y1="291.6" x2="300.7" y2="291.6"/>
			<rect x="265.6" y="126.4" class="st7" width="34.3" height="127.8"/>
			<text transform="matrix(1 0 0 1 271.5835 137.4389)"><tspan x="0" y="0" class="st17 st12">11%</tspan><tspan x="0" y="22.6" class="st17 st12">21%</tspan><tspan x="8" y="74.8" class="st17 st12">5%</tspan><tspan x="8" y="93.5" class="st17 st12">8%</tspan><tspan x="8" y="112.3" class="st17 st12">4%</tspan></text>
			<rect x="265.6" y="294" class="st7" width="34.3" height="78.6"/>
			<text transform="matrix(1 0 0 1 279.582 305.0458)"><tspan x="0" y="0" class="st17 st12">0%</tspan><tspan x="0" y="18.7" class="st17 st12">0%</tspan><tspan x="0" y="37.4" class="st17 st12">2%</tspan><tspan x="0" y="56.1" class="st17 st12">2%</tspan></text>
		</g>
	</g>
</g>
<g id="Double_Decker">
	<g>
		<path class="st18" d="M145.6,742.3l1.1-167c0,0,6.5-45.9,42.3-45.9h346.9c0,0,32.3-4.3,34.4,40.1l6.5,115.4c0,0,4.3-0.7,8.6,13.6
			v43.7H145.6z"/>
		<path class="st19" d="M156.5,590h66.2v-44.7C222.7,545.3,153.6,533,156.5,590z"/>
		<path class="st19" d="M304.8,592.5h-57c-6.6,0-12-5.4-12-12v-24.3c0-6.6,5.4-12,12-12h57c6.6,0,12,5.4,12,12v24.3
			C316.8,587.1,311.4,592.5,304.8,592.5z"/>
		<path class="st19" d="M396.7,591.2h-57c-6.6,0-12-5.4-12-12v-24.3c0-6.6,5.4-12,12-12h57c6.6,0,12,5.4,12,12v24.3
			C408.7,585.8,403.3,591.2,396.7,591.2z"/>
		<path class="st19" d="M487.8,591.2h-57c-6.6,0-12-5.4-12-12v-24.3c0-6.6,5.4-12,12-12h57c6.6,0,12,5.4,12,12v24.3
			C499.8,585.8,494.4,591.2,487.8,591.2z"/>
		<path class="st19" d="M305.2,685.4h-57c-6.6,0-12-5.4-12-12v-24.3c0-6.6,5.4-12,12-12h57c6.6,0,12,5.4,12,12v24.3
			C317.2,680,311.8,685.4,305.2,685.4z"/>
		<path class="st19" d="M397.2,684.1h-57c-6.6,0-12-5.4-12-12v-24.3c0-6.6,5.4-12,12-12h57c6.6,0,12,5.4,12,12v24.3
			C409.2,678.7,403.8,684.1,397.2,684.1z"/>
		<path class="st19" d="M488.3,685.4h-57c-6.6,0-12-5.4-12-12v-24.3c0-6.6,5.4-12,12-12h57c6.6,0,12,5.4,12,12v24.3
			C500.3,680,494.9,685.4,488.3,685.4z"/>
		<path class="st19" d="M509.9,626.5v62.9H566v-31.4c0,0-0.9-33.2-23.7-31.4H509.9z"/>
		<path class="st19" d="M509.9,548.2v27.2c0,0-1.5,15.7,11.4,15.9s12.9,0.2,12.9,0.2l29.8-0.2C564,591.2,569,549.9,509.9,548.2z"/>
		<rect x="247.3" y="597.6" class="st20" width="252.5" height="32.2"/>
		<circle class="st20" cx="263.5" cy="743.5" r="34.2"/>
		<circle class="st20" cx="542.3" cy="743.5" r="34.2"/>
	</g>
	<rect y="758.6" class="st21" width="612" height="32.6"/>
	<g>
		<circle class="st22" cx="263.5" cy="743.5" r="33.3"/>
		<circle class="st23" cx="254.9" cy="719.7" r="1"/>
		<circle class="st23" cx="243.2" cy="725.3" r="1"/>
		<circle class="st23" cx="266.8" cy="718.4" r="1"/>
		<circle class="st23" cx="277.9" cy="723.5" r="1"/>
		<circle class="st23" cx="271.4" cy="734.6" r="1"/>
		<circle class="st23" cx="252.8" cy="736.1" r="1"/>
		<circle class="st23" cx="240.1" cy="737.1" r="1"/>
		<circle class="st23" cx="241.1" cy="750.7" r="1"/>
		<circle class="st23" cx="253.7" cy="749.1" r="1"/>
		<circle class="st23" cx="247.7" cy="761.3" r="1"/>
		<circle class="st23" cx="258" cy="766.1" r="1"/>
		<circle class="st23" cx="263.5" cy="758.1" r="1"/>
		<circle class="st23" cx="270.3" cy="765.4" r="1"/>
		<circle class="st23" cx="280.8" cy="758.9" r="1"/>
		<circle class="st23" cx="272.2" cy="747.6" r="1"/>
		<circle class="st23" cx="286.2" cy="748.9" r="1"/>
		<circle class="st23" cx="284.8" cy="733.6" r="1"/>
		<path class="st24" d="M255.3,738.2c0,0-4.3-1.4-4.4,3.2c0,0,0.2,3.8,4.4,2.3"/>
		<line class="st24" x1="251.8" y1="746.2" x2="255.1" y2="746.2"/>
		<text transform="matrix(1 0 0 1 240.0637 746.5414)" class="st23 st17 st25">M  VITIES</text>
		<g>
			<g>
				<path class="st23" d="M263.3,725.8c0,0,0.7-3.5,7.4-4.2C270.7,721.6,267.5,726.9,263.3,725.8z"/>
				<path class="st23" d="M257.4,725.5c0,0,0.7-3.5,7.4-4.2C264.8,721.3,261.6,726.7,257.4,725.5z"/>
				<path class="st23" d="M251.8,725.9c0,0,0.4-3.6,7.1-4.7C258.9,721.2,256.1,726.8,251.8,725.9z"/>
				<path class="st23" d="M263.2,726.5c0,0,0.2,3.6,6.7,5.2C269.9,731.6,267.5,725.9,263.2,726.5z"/>
				<path class="st23" d="M257.4,726.4c0,0,0.5,3.6,7.2,4.5C264.6,730.9,261.6,725.4,257.4,726.4z"/>
				<path class="st23" d="M252,726.6c0,0,0.7,3.6,7.3,4.3C259.4,730.9,256.2,725.5,252,726.6z"/>
			</g>
		</g>
		<path class="st23" d="M267.6,726.5c0,0,3.6-3.5,11.7,1.1C279.3,727.6,271.4,731.1,267.6,726.5z"/>
		<path class="st23" d="M250.9,726.3c0,0,0.4,2.5-3.5,4.3C247.4,730.6,248.1,726.4,250.9,726.3z"/>
	</g>
	<g>
		<circle class="st22" cx="542.3" cy="743.1" r="33.3"/>
		<circle class="st23" cx="533.8" cy="719.4" r="1"/>
		<circle class="st23" cx="522.1" cy="724.9" r="1"/>
		<circle class="st23" cx="545.7" cy="718" r="1"/>
		<circle class="st23" cx="556.7" cy="723.1" r="1"/>
		<circle class="st23" cx="550.2" cy="734.3" r="1"/>
		<circle class="st23" cx="531.7" cy="735.7" r="1"/>
		<circle class="st23" cx="518.9" cy="736.7" r="1"/>
		<circle class="st23" cx="520" cy="750.4" r="1"/>
		<circle class="st23" cx="532.5" cy="748.8" r="1"/>
		<circle class="st23" cx="526.5" cy="761" r="1"/>
		<circle class="st23" cx="536.9" cy="765.8" r="1"/>
		<circle class="st23" cx="542.3" cy="757.7" r="1"/>
		<circle class="st23" cx="549.2" cy="765" r="1"/>
		<circle class="st23" cx="559.7" cy="758.5" r="1"/>
		<circle class="st23" cx="551.1" cy="747.2" r="1"/>
		<circle class="st23" cx="565.1" cy="748.5" r="1"/>
		<circle class="st23" cx="563.6" cy="733.2" r="1"/>
		<path class="st24" d="M534.2,737.9c0,0-4.3-1.4-4.4,3.2c0,0,0.2,3.8,4.4,2.3"/>
		<line class="st24" x1="530.7" y1="745.8" x2="534" y2="745.8"/>
		<text transform="matrix(1 0 0 1 518.9439 746.1727)" class="st23 st17 st25">M  VITIES</text>
		<g>
			<g>
				<path class="st23" d="M542.2,725.4c0,0,0.7-3.5,7.4-4.2C549.6,721.2,546.4,726.6,542.2,725.4z"/>
				<path class="st23" d="M536.3,725.1c0,0,0.7-3.5,7.4-4.2C543.7,721,540.5,726.3,536.3,725.1z"/>
				<path class="st23" d="M530.7,725.6c0,0,0.4-3.6,7.1-4.7C537.8,720.9,535,726.4,530.7,725.6z"/>
				<path class="st23" d="M542,726.1c0,0,0.2,3.6,6.7,5.2C548.8,731.3,546.3,725.5,542,726.1z"/>
				<path class="st23" d="M536.3,726c0,0,0.5,3.6,7.2,4.5C543.5,730.5,540.5,725,536.3,726z"/>
				<path class="st23" d="M530.9,726.3c0,0,0.7,3.6,7.3,4.3C538.2,730.5,535.1,725.2,530.9,726.3z"/>
			</g>
		</g>
		<path class="st23" d="M546.5,726.1c0,0,3.6-3.5,11.7,1.1C558.2,727.2,550.3,730.7,546.5,726.1z"/>
		<path class="st23" d="M529.8,726c0,0,0.4,2.5-3.5,4.3C526.2,730.2,527,726.1,529.8,726z"/>
	</g>
	<rect x="329.6" y="190.3" class="st7" width="259.3" height="175.9"/>
	<text transform="matrix(0.7 0 0 0.7 329.6338 198.8133)" class="st17 st26">ingredient</text>
	<text transform="matrix(1 0 0 1 372.6831 198.8133)" class="st17 st26"> </text>
	<text transform="matrix(0.7 0 0 0.7 375.2271 198.8133)" class="st17 st26">wheat</text>
	<text transform="matrix(1 0 0 1 401.2583 198.8133)" class="st17 st26"> </text>
	<text transform="matrix(0.7 0 0 0.7 403.8023 198.8133)" class="st17 st26">flour</text>
	<text transform="matrix(1 0 0 1 427.5992 198.8133)" class="st17 st26"> (32%), </text>
	<text transform="matrix(0.7 0 0 0.7 463.8028 198.8133)" class="st17 st26">caramel</text>
	<text transform="matrix(1 0 0 1 498.3262 198.8133)" class="st17 st26"> (24%) [</text>
	<text transform="matrix(0.7 0 0 0.7 535.4536 198.8133)" class="st17 st26">glucose</text>
	<text transform="matrix(1 0 0 1 569.2129 198.8133)" class="st17 st26"> </text>
	<text transform="matrix(0.7 0 0 0.7 329.6338 213.2127)" class="st17 st26">syrup</text>
	<text transform="matrix(1 0 0 1 352.7417 213.2127)" class="st17 st26">, </text>
	<text transform="matrix(0.7 0 0 0.7 357.7696 213.2127)" class="st17 st26">sweetended</text>
	<text transform="matrix(1 0 0 1 406.439 213.2127)" class="st17 st26"> </text>
	<text transform="matrix(0.7 0 0 0.7 408.9829 213.2127)" class="st17 st26">condensed</text>
	<text transform="matrix(1 0 0 1 454.2915 213.2127)" class="st17 st26"> </text>
	<text transform="matrix(0.7 0 0 0.7 456.8355 213.2127)" class="st17 st26">skim</text>
	<text transform="matrix(1 0 0 1 474.2906 213.2127)" class="st17 st26"> </text>
	<text transform="matrix(0.7 0 0 0.7 476.8345 213.2127)" class="st17 st26">milk</text>
	<text transform="matrix(1 0 0 1 494.1133 213.2127)" class="st17 st26"> (</text>
	<text transform="matrix(0.7 0 0 0.7 500.065 213.2127)" class="st17 st26">concentrated</text>
	<text transform="matrix(1 0 0 1 558.52 213.2127)" class="st17 st26"> </text>
	<text transform="matrix(0.7 0 0 0.7 561.064 213.2127)" class="st17 st26">skim</text>
	<text transform="matrix(1 0 0 1 578.519 213.2127)" class="st17 st26"> </text>
	<text transform="matrix(0.7 0 0 0.7 329.6338 227.6131)" class="st17 st26">milk</text>
	<text transform="matrix(1 0 0 1 346.9126 227.6131)" class="st17 st26"> </text>
	<text transform="matrix(0.7 0 0 0.7 349.4566 227.6131)" class="st17 st26">abd</text>
	<text transform="matrix(1 0 0 1 364.7442 227.6131)" class="st17 st26"> </text>
	<text transform="matrix(0.7 0 0 0.7 367.2881 227.6131)" class="st17 st26">sugar</text>
	<text transform="matrix(1 0 0 1 391.9497 227.6131)" class="st17 st26">), </text>
	<text transform="matrix(0.7 0 0 0.7 400.3858 227.6131)" class="st17 st26">palm</text>
	<text transform="matrix(1 0 0 1 420.7134 227.6131)" class="st17 st26"> </text>
	<text transform="matrix(0.7 0 0 0.7 423.2574 227.6131)" class="st17 st26">oil</text>
	<text transform="matrix(1 0 0 1 435.0176 227.6131)" class="st17 st26">, </text>
	<text transform="matrix(0.7 0 0 0.7 440.0454 227.6131)" class="st17 st26">glycerine</text>
	<text transform="matrix(1 0 0 1 479.1724 227.6131)" class="st17 st26">, </text>
	<text transform="matrix(0.7 0 0 0.7 484.2002 227.6131)" class="st17 st26">salt</text>
	<text transform="matrix(1 0 0 1 501.6216 227.6131)" class="st17 st26">, </text>
	<text transform="matrix(0.7 0 0 0.7 506.6494 227.6131)" class="st17 st26">natural</text>
	<text transform="matrix(1 0 0 1 540.5508 227.6131)" class="st17 st26"> </text>
	<text transform="matrix(0.7 0 0 0.7 543.0947 227.6131)" class="st17 st26">flavour</text>
	<text transform="matrix(1 0 0 1 576.7192 227.6131)" class="st17 st26">, </text>
	<text transform="matrix(0.7 0 0 0.7 329.6338 242.0135)" class="st17 st26">mono</text>
	<text transform="matrix(1 0 0 1 353.4893 242.0135)" class="st17 st26">-</text>
	<text transform="matrix(0.7 0 0 0.7 357.1734 242.0135)" class="st17 st26">and</text>
	<text transform="matrix(1 0 0 1 373.4356 242.0135)" class="st17 st26"> </text>
	<text transform="matrix(0.7 0 0 0.7 375.9795 242.0135)" class="st17 st26">diglycerides</text>
	<text transform="matrix(1 0 0 1 426.917 242.0135)" class="st17 st26"> (</text>
	<text transform="matrix(0.7 0 0 0.7 432.8687 242.0135)" class="st17 st26">emulsifier</text>
	<text transform="matrix(1 0 0 1 474.0537 242.0135)" class="st17 st26">)], </text>
	<text transform="matrix(0.7 0 0 0.7 485.8975 242.0135)" class="st17 st26">milk</text>
	<text transform="matrix(1 0 0 1 503.1763 242.0135)" class="st17 st26"> </text>
	<text transform="matrix(0.7 0 0 0.7 505.7202 242.0135)" class="st17 st26">chocolate</text>
	<text transform="matrix(1 0 0 1 549.9292 242.0135)" class="st17 st26"> </text>
	<text transform="matrix(0.7 0 0 0.7 329.6338 256.4129)" class="st17 st26">flavoured</text>
	<text transform="matrix(1 0 0 1 372.9854 256.4129)" class="st17 st26"> </text>
	<text transform="matrix(0.7 0 0 0.7 375.5293 256.4129)" class="st17 st26">coating</text>
	<text transform="matrix(1 0 0 1 408.4659 256.4129)" class="st17 st26"> (18%) [</text>
	<text transform="matrix(0.7 0 0 0.7 445.5933 256.4129)" class="st17 st26">sugar</text>
	<text transform="matrix(1 0 0 1 470.2549 256.4129)" class="st17 st26">, </text>
	<text transform="matrix(0.7 0 0 0.7 475.2827 256.4129)" class="st17 st26">cocoa</text>
	<text transform="matrix(1 0 0 1 501.7427 256.4129)" class="st17 st26"> </text>
	<text transform="matrix(0.7 0 0 0.7 504.2867 256.4129)" class="st17 st26">butter</text>
	<text transform="matrix(1 0 0 1 531.2754 256.4129)" class="st17 st26">, </text>
	<text transform="matrix(0.7 0 0 0.7 536.3032 256.4129)" class="st17 st26">cocoa</text>
	<text transform="matrix(1 0 0 1 562.7632 256.4129)" class="st17 st26"> </text>
	<text transform="matrix(0.7 0 0 0.7 565.3071 256.4129)" class="st17 st26">mass</text>
	<text transform="matrix(1 0 0 1 585.4834 256.4129)" class="st17 st26">, </text>
	<text transform="matrix(0.7 0 0 0.7 329.6338 270.8133)" class="st17 st26">skim</text>
	<text transform="matrix(1 0 0 1 347.0889 270.8133)" class="st17 st26"> </text>
	<text transform="matrix(0.7 0 0 0.7 349.6328 270.8133)" class="st17 st26">milk</text>
	<text transform="matrix(1 0 0 1 366.9117 270.8133)" class="st17 st26"> </text>
	<text transform="matrix(0.7 0 0 0.7 369.4556 270.8133)" class="st17 st26">powder</text>
	<text transform="matrix(1 0 0 1 401.0645 270.8133)" class="st17 st26">, </text>
	<text transform="matrix(0.7 0 0 0.7 406.0923 270.8133)" class="st17 st26">whey</text>
	<text transform="matrix(1 0 0 1 427.3526 270.8133)" class="st17 st26"> </text>
	<text transform="matrix(0.7 0 0 0.7 429.8965 270.8133)" class="st17 st26">powder</text>
	<text transform="matrix(1 0 0 1 461.5054 270.8133)" class="st17 st26">, </text>
	<text transform="matrix(0.7 0 0 0.7 466.5332 270.8133)" class="st17 st26">butter</text>
	<text transform="matrix(1 0 0 1 493.522 270.8133)" class="st17 st26"> </text>
	<text transform="matrix(0.7 0 0 0.7 496.0659 270.8133)" class="st17 st26">oil</text>
	<text transform="matrix(1 0 0 1 507.8262 270.8133)" class="st17 st26">,</text>
	<text transform="matrix(0.7 0 0 0.7 510.3101 270.8133)" class="st17 st26">vegetable</text>
	<text transform="matrix(1 0 0 1 550.6548 270.8133)" class="st17 st26"> </text>
	<text transform="matrix(0.7 0 0 0.7 553.1987 270.8133)" class="st17 st26">oil</text>
	<text transform="matrix(1 0 0 1 564.959 270.8133)" class="st17 st26"> </text>
	<text transform="matrix(1 0 0 1 329.6338 285.2127)" class="st17 st26">(</text>
	<text transform="matrix(0.7 0 0 0.7 333.0415 285.2127)" class="st17 st26">shea</text>
	<text transform="matrix(1 0 0 1 351.9326 285.2127)" class="st17 st26">, </text>
	<text transform="matrix(0.7 0 0 0.7 356.9605 285.2127)" class="st17 st26">illipe</text>
	<text transform="matrix(1 0 0 1 377.5074 285.2127)" class="st17 st26">, </text>
	<text transform="matrix(0.7 0 0 0.7 382.5352 285.2127)" class="st17 st26">sal</text>
	<text transform="matrix(1 0 0 1 395.7818 285.2127)" class="st17 st26">, </text>
	<text transform="matrix(0.7 0 0 0.7 400.8096 285.2127)" class="st17 st26">mango</text>
	<text transform="matrix(1 0 0 1 429.4449 285.2127)" class="st17 st26"> </text>
	<text transform="matrix(0.7 0 0 0.7 431.9888 285.2127)" class="st17 st26">kernal</text>
	<text transform="matrix(1 0 0 1 459.8257 285.2127)" class="st17 st26"> </text>
	<text transform="matrix(0.7 0 0 0.7 462.3697 285.2127)" class="st17 st26">and</text>
	<text transform="matrix(1 0 0 1 478.6319 285.2127)" class="st17 st26"> </text>
	<text transform="matrix(0.7 0 0 0.7 481.1758 285.2127)" class="st17 st26">kokum</text>
	<text transform="matrix(1 0 0 1 508.2569 285.2127)" class="st17 st26">) </text>
	<text transform="matrix(0.7 0 0 0.7 514.2085 285.2127)" class="st17 st26">and</text>
	<text transform="matrix(1 0 0 1 530.4707 285.2127)" class="st17 st26"> </text>
	<text transform="matrix(0.7 0 0 0.7 533.0146 285.2127)" class="st17 st26">palm</text>
	<text transform="matrix(1 0 0 1 553.3423 285.2127)" class="st17 st26"> </text>
	<text transform="matrix(0.7 0 0 0.7 555.8862 285.2127)" class="st17 st26">oil</text>
	<text transform="matrix(1 0 0 1 567.6465 285.2127)" class="st17 st26">, </text>
	<text transform="matrix(0.7 0 0 0.7 329.6338 299.6131)" class="st17 st26">soya</text>
	<text transform="matrix(1 0 0 1 349.2476 299.6131)" class="st17 st26"> </text>
	<text transform="matrix(0.7 0 0 0.7 351.7915 299.6131)" class="st17 st26">lecithin</text>
	<text transform="matrix(1 0 0 1 383.9556 299.6131)" class="st17 st26"> </text>
	<text transform="matrix(0.7 0 0 0.7 386.4995 299.6131)" class="st17 st26">and</text>
	<text transform="matrix(1 0 0 1 402.7617 299.6131)" class="st17 st26"> </text>
	<text transform="matrix(0.7 0 0 0.7 405.3057 299.6131)" class="st17 st26">polyglycerol</text>
	<text transform="matrix(1 0 0 1 461.2832 299.6131)" class="st17 st26"> </text>
	<text transform="matrix(0.7 0 0 0.7 463.8272 299.6131)" class="st17 st26">polyricinoleate</text>
	<text transform="matrix(1 0 0 1 528.8604 299.6131)" class="st17 st26"> (</text>
	<text transform="matrix(0.7 0 0 0.7 534.812 299.6131)" class="st17 st26">emulsifiers</text>
	<text transform="matrix(1 0 0 1 580.1382 299.6131)" class="st17 st26">), </text>
	<text transform="matrix(0.7 0 0 0.7 329.6338 314.0135)" class="st17 st26">natural</text>
	<text transform="matrix(1 0 0 1 363.5352 314.0135)" class="st17 st26"> </text>
	<text transform="matrix(0.7 0 0 0.7 366.0791 314.0135)" class="st17 st26">vanilla</text>
	<text transform="matrix(1 0 0 1 396.5122 314.0135)" class="st17 st26"> </text>
	<text transform="matrix(0.7 0 0 0.7 399.0562 314.0135)" class="st17 st26">flavour</text>
	<text transform="matrix(1 0 0 1 432.6807 314.0135)" class="st17 st26">], </text>
	<text transform="matrix(0.7 0 0 0.7 441.1162 314.0135)" class="st17 st26">palm</text>
	<text transform="matrix(1 0 0 1 461.4439 314.0135)" class="st17 st26"> </text>
	<text transform="matrix(0.7 0 0 0.7 463.9878 314.0135)" class="st17 st26">oil</text>
	<text transform="matrix(1 0 0 1 475.7481 314.0135)" class="st17 st26">, </text>
	<text transform="matrix(0.7 0 0 0.7 480.7759 314.0135)" class="st17 st26">sugar</text>
	<text transform="matrix(1 0 0 1 505.4375 314.0135)" class="st17 st26">, </text>
	<text transform="matrix(0.7 0 0 0.7 510.4654 314.0135)" class="st17 st26">whole</text>
	<text transform="matrix(1 0 0 1 536.9336 314.0135)" class="st17 st26"> </text>
	<text transform="matrix(0.7 0 0 0.7 539.4775 314.0135)" class="st17 st26">wheat</text>
	<text transform="matrix(1 0 0 1 565.5088 314.0135)" class="st17 st26"> </text>
	<text transform="matrix(0.7 0 0 0.7 329.6338 328.4129)" class="st17 st26">flour</text>
	<text transform="matrix(1 0 0 1 353.4307 328.4129)" class="st17 st26"> (7%) </text>
	<text transform="matrix(0.7 0 0 0.7 380.9937 328.4129)" class="st17 st26">glucose</text>
	<text transform="matrix(1 0 0 1 414.753 328.4129)" class="st17 st26">-</text>
	<text transform="matrix(0.7 0 0 0.7 418.437 328.4129)" class="st17 st26">fructose</text>
	<text transform="matrix(1 0 0 1 455.5899 328.4129)" class="st17 st26">, </text>
	<text transform="matrix(0.7 0 0 0.7 460.6177 328.4129)" class="st17 st26">sodium</text>
	<text transform="matrix(1 0 0 1 490.3365 328.4129)" class="st17 st26"> </text>
	<text transform="matrix(0.7 0 0 0.7 492.8804 328.4129)" class="st17 st26">bicarbonate</text>
	<text transform="matrix(1 0 0 1 543.2886 328.4129)" class="st17 st26"> </text>
	<text transform="matrix(0.7 0 0 0.7 545.8325 328.4129)" class="st17 st26">and</text>
	<text transform="matrix(1 0 0 1 562.0947 328.4129)" class="st17 st26"> </text>
	<text transform="matrix(0.7 0 0 0.7 329.6338 342.8133)" class="st17 st26">tartaric</text>
	<text transform="matrix(1 0 0 1 364.1826 342.8133)" class="st17 st26"> </text>
	<text transform="matrix(0.7 0 0 0.7 366.7266 342.8133)" class="st17 st26">acid</text>
	<text transform="matrix(1 0 0 1 384.3413 342.8133)" class="st17 st26"> </text>
	<text transform="matrix(0.7 0 0 0.7 386.8853 342.8133)" class="st17 st26">and</text>
	<text transform="matrix(1 0 0 1 403.1475 342.8133)" class="st17 st26"> </text>
	<text transform="matrix(0.7 0 0 0.7 405.6914 342.8133)" class="st17 st26">malic</text>
	<text transform="matrix(1 0 0 1 428.4302 342.8133)" class="st17 st26"> </text>
	<text transform="matrix(0.7 0 0 0.7 430.9742 342.8133)" class="st17 st26">acid</text>
	<text transform="matrix(1 0 0 1 448.5889 342.8133)" class="st17 st26"> </text>
	<text transform="matrix(0.7 0 0 0.7 451.1328 342.8133)" class="st17 st26">and</text>
	<text transform="matrix(1 0 0 1 467.3946 342.8133)" class="st17 st26"> </text>
	<text transform="matrix(0.7 0 0 0.7 469.9385 342.8133)" class="st17 st26">ammonium</text>
	<text transform="matrix(1 0 0 1 514.0967 342.8133)" class="st17 st26"> </text>
	<text transform="matrix(0.7 0 0 0.7 516.6406 342.8133)" class="st17 st26">bicarbonate</text>
	<text transform="matrix(1 0 0 1 567.0483 342.8133)" class="st17 st26"> </text>
	<text transform="matrix(1 0 0 1 329.6338 357.2127)" class="st17 st26">(</text>
	<text transform="matrix(0.7 0 0 0.7 333.0415 357.2127)" class="st17 st26">raising</text>
	<text transform="matrix(1 0 0 1 361.8116 357.2127)" class="st17 st26"> </text>
	<text transform="matrix(0.7 0 0 0.7 364.3555 357.2127)" class="st17 st26">agents</text>
	<text transform="matrix(1 0 0 1 392.8985 357.2127)" class="st17 st26">), </text>
	<text transform="matrix(0.7 0 0 0.7 401.334 357.2127)" class="st17 st26">salt</text>
	<text transform="matrix(1 0 0 1 418.7554 357.2127)" class="st17 st26"> </text>
	<text transform="matrix(0.7 0 0 0.7 421.2993 357.2127)" class="st17 st26">contains</text>
	<text transform="matrix(1 0 0 1 458.4776 357.2127)" class="st17 st26">: </text>
	<text transform="matrix(0.7 0 0 0.7 463.5054 357.2127)" class="st17 st26">wheat</text>
	<text transform="matrix(1 0 0 1 489.5367 357.2127)" class="st17 st26">, </text>
	<text transform="matrix(0.7 0 0 0.7 494.5645 357.2127)" class="st17 st26">milk</text>
	<text transform="matrix(1 0 0 1 511.8433 357.2127)" class="st17 st26"> </text>
	<text transform="matrix(0.7 0 0 0.7 514.3872 357.2127)" class="st17 st26">and</text>
	<text transform="matrix(1 0 0 1 530.6494 357.2127)" class="st17 st26"> </text>
	<text transform="matrix(0.7 0 0 0.7 533.1934 357.2127)" class="st17 st26">soya</text>
	<rect x="24.8" y="379.5" class="st7" width="564.1" height="102.7"/>
	<text transform="matrix(0.7 0 0 0.7 24.8369 388.0496)" class="st17 st26">ingrédients</text>
	<text transform="matrix(1 0 0 1 72.0274 388.0496)" class="st17 st26"> </text>
	<text transform="matrix(0.7 0 0 0.7 74.5713 388.0496)" class="st17 st26">de</text>
	<text transform="matrix(1 0 0 1 84.2984 388.0496)" class="st17 st26"> </text>
	<text transform="matrix(0.7 0 0 0.7 86.8423 388.0496)" class="st17 st26">blé</text>
	<text transform="matrix(1 0 0 1 99.4927 388.0496)" class="st17 st26"> </text>
	<text transform="matrix(0.7 0 0 0.7 102.0366 388.0496)" class="st17 st26">ingrédient</text>
	<text transform="matrix(1 0 0 1 145.0864 388.0496)" class="st17 st26"> (32% ) , </text>
	<text transform="matrix(0.7 0 0 0.7 186.3779 388.0496)" class="st17 st26">caramel</text>
	<text transform="matrix(1 0 0 1 220.9014 388.0496)" class="st17 st26"> ( 24 % ) [</text>
	<text transform="matrix(0.7 0 0 0.7 265.6606 388.0496)" class="st17 st26">sirop</text>
	<text transform="matrix(1 0 0 1 286.585 388.0496)" class="st17 st26"> </text>
	<text transform="matrix(0.7 0 0 0.7 289.1289 388.0496)" class="st17 st26">de</text>
	<text transform="matrix(1 0 0 1 298.856 388.0496)" class="st17 st26"> </text>
	<text transform="matrix(0.7 0 0 0.7 301.3999 388.0496)" class="st17 st26">glucose</text>
	<text transform="matrix(1 0 0 1 335.1597 388.0496)" class="st17 st26"> , </text>
	<text transform="matrix(0.7 0 0 0.7 342.731 388.0496)" class="st17 st26">lait</text>
	<text transform="matrix(1 0 0 1 358.019 388.0496)" class="st17 st26"> </text>
	<text transform="matrix(0.7 0 0 0.7 360.563 388.0496)" class="st17 st26">écrémé</text>
	<text transform="matrix(1 0 0 1 389.1069 388.0496)" class="st17 st26"> </text>
	<text transform="matrix(0.7 0 0 0.7 391.6509 388.0496)" class="st17 st26">condencé</text>
	<text transform="matrix(1 0 0 1 432.0972 388.0496)" class="st17 st26"> </text>
	<text transform="matrix(0.7 0 0 0.7 434.6411 388.0496)" class="st17 st26">sucré</text>
	<text transform="matrix(1 0 0 1 457.7417 388.0496)" class="st17 st26"> (</text>
	<text transform="matrix(0.7 0 0 0.7 463.6938 388.0496)" class="st17 st26">lait</text>
	<text transform="matrix(1 0 0 1 478.9819 388.0496)" class="st17 st26"> </text>
	<text transform="matrix(0.7 0 0 0.7 481.5259 388.0496)" class="st17 st26">écrémé</text>
	<text transform="matrix(1 0 0 1 510.0698 388.0496)" class="st17 st26"> </text>
	<text transform="matrix(0.7 0 0 0.7 512.6138 388.0496)" class="st17 st26">concentré</text>
	<text transform="matrix(1 0 0 1 556.1597 388.0496)" class="st17 st26"> </text>
	<text transform="matrix(0.7 0 0 0.7 558.7036 388.0496)" class="st17 st26">et</text>
	<text transform="matrix(1 0 0 1 567.0112 388.0496)" class="st17 st26"> </text>
	<text transform="matrix(0.7 0 0 0.7 24.8369 402.449)" class="st17 st26">sucre</text>
	<text transform="matrix(1 0 0 1 47.9365 402.449)" class="st17 st26"> ) , </text>
	<text transform="matrix(0.7 0 0 0.7 61.46 402.449)" class="st17 st26">huile</text>
	<text transform="matrix(1 0 0 1 82.4766 402.449)" class="st17 st26"> </text>
	<text transform="matrix(0.7 0 0 0.7 85.0205 402.449)" class="st17 st26">de</text>
	<text transform="matrix(1 0 0 1 94.7476 402.449)" class="st17 st26"> </text>
	<text transform="matrix(0.7 0 0 0.7 97.2915 402.449)" class="st17 st26">palme</text>
	<text transform="matrix(1 0 0 1 121.752 402.449)" class="st17 st26"> , </text>
	<text transform="matrix(0.7 0 0 0.7 129.3237 402.449)" class="st17 st26">glycérine</text>
	<text transform="matrix(1 0 0 1 168.4507 402.449)" class="st17 st26"> , </text>
	<text transform="matrix(0.7 0 0 0.7 176.0225 402.449)" class="st17 st26">sel</text>
	<text transform="matrix(1 0 0 1 188.2612 402.449)" class="st17 st26"> , </text>
	<text transform="matrix(0.7 0 0 0.7 195.833 402.449)" class="st17 st26">arôme</text>
	<text transform="matrix(1 0 0 1 222.1665 402.449)" class="st17 st26"> </text>
	<text transform="matrix(0.7 0 0 0.7 224.7105 402.449)" class="st17 st26">naturel</text>
	<text transform="matrix(1 0 0 1 257.6045 402.449)" class="st17 st26"> , </text>
	<text transform="matrix(0.7 0 0 0.7 265.1763 402.449)" class="st17 st26">mono</text>
	<text transform="matrix(1 0 0 1 289.0322 402.449)" class="st17 st26"> </text>
	<text transform="matrix(0.7 0 0 0.7 291.5762 402.449)" class="st17 st26">et</text>
	<text transform="matrix(1 0 0 1 299.8838 402.449)" class="st17 st26"> </text>
	<text transform="matrix(0.7 0 0 0.7 302.4277 402.449)" class="st17 st26">diglycérides</text>
	<text transform="matrix(1 0 0 1 353.3667 402.449)" class="st17 st26"> ( </text>
	<text transform="matrix(0.7 0 0 0.7 361.8628 402.449)" class="st17 st26">émulsifiant</text>
	<text transform="matrix(1 0 0 1 409.2397 402.449)" class="st17 st26"> ) ] , </text>
	<text transform="matrix(0.7 0 0 0.7 428.7153 402.449)" class="st17 st26">le</text>
	<text transform="matrix(1 0 0 1 436.813 402.449)" class="st17 st26"> </text>
	<text transform="matrix(0.7 0 0 0.7 439.3569 402.449)" class="st17 st26">chocolat</text>
	<text transform="matrix(1 0 0 1 479.4321 402.449)" class="st17 st26"> </text>
	<text transform="matrix(0.7 0 0 0.7 481.9761 402.449)" class="st17 st26">au</text>
	<text transform="matrix(1 0 0 1 492.5513 402.449)" class="st17 st26"> </text>
	<text transform="matrix(0.7 0 0 0.7 495.0952 402.449)" class="st17 st26">lait</text>
	<text transform="matrix(1 0 0 1 510.3833 402.449)" class="st17 st26"> </text>
	<text transform="matrix(0.7 0 0 0.7 512.9272 402.449)" class="st17 st26">revêtement</text>
	<text transform="matrix(1 0 0 1 559.2964 402.449)" class="st17 st26"> </text>
	<text transform="matrix(0.7 0 0 0.7 24.8369 416.8494)" class="st17 st26">aromatisé</text>
	<text transform="matrix(1 0 0 1 66.6348 416.8494)" class="st17 st26"> (18% ) [ </text>
	<text transform="matrix(0.7 0 0 0.7 108.8501 416.8494)" class="st17 st26">sucre</text>
	<text transform="matrix(1 0 0 1 131.9497 416.8494)" class="st17 st26"> , </text>
	<text transform="matrix(0.7 0 0 0.7 139.5215 416.8494)" class="st17 st26">beurre</text>
	<text transform="matrix(1 0 0 1 166.8125 416.8494)" class="st17 st26"> </text>
	<text transform="matrix(0.7 0 0 0.7 169.3565 416.8494)" class="st17 st26">de</text>
	<text transform="matrix(1 0 0 1 179.0835 416.8494)" class="st17 st26"> </text>
	<text transform="matrix(0.7 0 0 0.7 181.6275 416.8494)" class="st17 st26">cacao</text>
	<text transform="matrix(1 0 0 1 207.4404 416.8494)" class="st17 st26"> , </text>
	<text transform="matrix(0.7 0 0 0.7 215.0122 416.8494)" class="st17 st26">pâte</text>
	<text transform="matrix(1 0 0 1 232.9292 416.8494)" class="st17 st26"> </text>
	<text transform="matrix(0.7 0 0 0.7 235.4732 416.8494)" class="st17 st26">de</text>
	<text transform="matrix(1 0 0 1 245.2002 416.8494)" class="st17 st26"> </text>
	<text transform="matrix(0.7 0 0 0.7 247.7442 416.8494)" class="st17 st26">cacao</text>
	<text transform="matrix(1 0 0 1 273.5571 416.8494)" class="st17 st26"> , </text>
	<text transform="matrix(0.7 0 0 0.7 281.1289 416.8494)" class="st17 st26">lait</text>
	<text transform="matrix(1 0 0 1 296.417 416.8494)" class="st17 st26"> </text>
	<text transform="matrix(0.7 0 0 0.7 298.9609 416.8494)" class="st17 st26">écrémé</text>
	<text transform="matrix(1 0 0 1 327.5044 416.8494)" class="st17 st26"> </text>
	<text transform="matrix(0.7 0 0 0.7 330.0483 416.8494)" class="st17 st26">en</text>
	<text transform="matrix(1 0 0 1 339.7085 416.8494)" class="st17 st26"> </text>
	<text transform="matrix(0.7 0 0 0.7 342.2524 416.8494)" class="st17 st26">poudre</text>
	<text transform="matrix(1 0 0 1 372.1899 416.8494)" class="st17 st26"> , </text>
	<text transform="matrix(0.7 0 0 0.7 379.7612 416.8494)" class="st17 st26">lactosérum</text>
	<text transform="matrix(1 0 0 1 428.6831 416.8494)" class="st17 st26"> </text>
	<text transform="matrix(0.7 0 0 0.7 431.2271 416.8494)" class="st17 st26">en</text>
	<text transform="matrix(1 0 0 1 440.8872 416.8494)" class="st17 st26"> </text>
	<text transform="matrix(0.7 0 0 0.7 443.4312 416.8494)" class="st17 st26">poudre</text>
	<text transform="matrix(1 0 0 1 473.3687 416.8494)" class="st17 st26">, </text>
	<text transform="matrix(0.7 0 0 0.7 478.396 416.8494)" class="st17 st26">huile</text>
	<text transform="matrix(1 0 0 1 499.4126 416.8494)" class="st17 st26"> </text>
	<text transform="matrix(0.7 0 0 0.7 501.9565 416.8494)" class="st17 st26">de</text>
	<text transform="matrix(1 0 0 1 511.6841 416.8494)" class="st17 st26"> </text>
	<text transform="matrix(0.7 0 0 0.7 514.228 416.8494)" class="st17 st26">beurre</text>
	<text transform="matrix(1 0 0 1 541.52 416.8494)" class="st17 st26">, </text>
	<text transform="matrix(0.7 0 0 0.7 546.5474 416.8494)" class="st17 st26">de</text>
	<text transform="matrix(1 0 0 1 556.2749 416.8494)" class="st17 st26"> </text>
	<text transform="matrix(0.7 0 0 0.7 558.8188 416.8494)" class="st17 st26">l</text>
	<text transform="matrix(1 0 0 1 562.7837 416.8494)" class="st17 st26">&apos;</text>
	<text transform="matrix(0.7 0 0 0.7 565.0396 416.8494)" class="st17 st26">huile</text>
	<text transform="matrix(1 0 0 1 586.0562 416.8494)" class="st17 st26"> </text>
	<text transform="matrix(0.7 0 0 0.7 24.8369 431.2498)" class="st17 st26">végétale</text>
	<text transform="matrix(1 0 0 1 60.6289 431.2498)" class="st17 st26"> ( </text>
	<text transform="matrix(0.7 0 0 0.7 69.1245 431.2498)" class="st17 st26">karité</text>
	<text transform="matrix(1 0 0 1 93.6524 431.2498)" class="st17 st26"> , </text>
	<text transform="matrix(0.7 0 0 0.7 101.2241 431.2498)" class="st17 st26">illipe</text>
	<text transform="matrix(1 0 0 1 121.771 431.2498)" class="st17 st26"> , </text>
	<text transform="matrix(0.7 0 0 0.7 129.3428 431.2498)" class="st17 st26">sal</text>
	<text transform="matrix(1 0 0 1 142.5894 431.2498)" class="st17 st26"> , </text>
	<text transform="matrix(0.7 0 0 0.7 150.1611 431.2498)" class="st17 st26">mangue</text>
	<text transform="matrix(1 0 0 1 182.5762 431.2498)" class="st17 st26"> </text>
	<text transform="matrix(0.7 0 0 0.7 185.1201 431.2498)" class="st17 st26">kernal</text>
	<text transform="matrix(1 0 0 1 212.9575 431.2498)" class="st17 st26"> </text>
	<text transform="matrix(0.7 0 0 0.7 215.5015 431.2498)" class="st17 st26">et</text>
	<text transform="matrix(1 0 0 1 223.8091 431.2498)" class="st17 st26"> </text>
	<text transform="matrix(0.7 0 0 0.7 226.353 431.2498)" class="st17 st26">kokum</text>
	<text transform="matrix(1 0 0 1 253.4341 431.2498)" class="st17 st26"> ) </text>
	<text transform="matrix(0.7 0 0 0.7 261.9302 431.2498)" class="st17 st26">et</text>
	<text transform="matrix(1 0 0 1 270.2378 431.2498)" class="st17 st26"> </text>
	<text transform="matrix(0.7 0 0 0.7 272.7817 431.2498)" class="st17 st26">huile</text>
	<text transform="matrix(1 0 0 1 293.7983 431.2498)" class="st17 st26"> </text>
	<text transform="matrix(0.7 0 0 0.7 296.3423 431.2498)" class="st17 st26">de</text>
	<text transform="matrix(1 0 0 1 306.0693 431.2498)" class="st17 st26"> </text>
	<text transform="matrix(0.7 0 0 0.7 308.6128 431.2498)" class="st17 st26">palme</text>
	<text transform="matrix(1 0 0 1 333.0737 431.2498)" class="st17 st26"> , </text>
	<text transform="matrix(0.7 0 0 0.7 340.645 431.2498)" class="st17 st26">lécithine</text>
	<text transform="matrix(1 0 0 1 376.9419 431.2498)" class="st17 st26"> </text>
	<text transform="matrix(0.7 0 0 0.7 379.4858 431.2498)" class="st17 st26">de</text>
	<text transform="matrix(1 0 0 1 389.2134 431.2498)" class="st17 st26"> </text>
	<text transform="matrix(0.7 0 0 0.7 391.7573 431.2498)" class="st17 st26">soja</text>
	<text transform="matrix(1 0 0 1 409.9351 431.2498)" class="st17 st26"> </text>
	<text transform="matrix(0.7 0 0 0.7 412.479 431.2498)" class="st17 st26">et</text>
	<text transform="matrix(1 0 0 1 420.7866 431.2498)" class="st17 st26"> </text>
	<text transform="matrix(0.7 0 0 0.7 423.3306 431.2498)" class="st17 st26">polyricinoléate</text>
	<text transform="matrix(1 0 0 1 488.3628 431.2498)" class="st17 st26"> </text>
	<text transform="matrix(0.7 0 0 0.7 490.9067 431.2498)" class="st17 st26">de</text>
	<text transform="matrix(1 0 0 1 500.6343 431.2498)" class="st17 st26"> </text>
	<text transform="matrix(0.7 0 0 0.7 503.1782 431.2498)" class="st17 st26">polyglycérol</text>
	<text transform="matrix(1 0 0 1 559.1548 431.2498)" class="st17 st26"> </text>
	<text transform="matrix(1 0 0 1 24.8369 445.6492)" class="st17 st26">(</text>
	<text transform="matrix(0.7 0 0 0.7 28.2446 445.6492)" class="st17 st26">émulsifiants</text>
	<text transform="matrix(1 0 0 1 79.7617 445.6492)" class="st17 st26"> ) , </text>
	<text transform="matrix(0.7 0 0 0.7 93.2852 445.6492)" class="st17 st26">arôme</text>
	<text transform="matrix(1 0 0 1 119.6187 445.6492)" class="st17 st26"> </text>
	<text transform="matrix(0.7 0 0 0.7 122.1626 445.6492)" class="st17 st26">naturel</text>
	<text transform="matrix(1 0 0 1 155.0567 445.6492)" class="st17 st26"> </text>
	<text transform="matrix(0.7 0 0 0.7 157.6006 445.6492)" class="st17 st26">de</text>
	<text transform="matrix(1 0 0 1 167.3277 445.6492)" class="st17 st26"> </text>
	<text transform="matrix(0.7 0 0 0.7 169.8716 445.6492)" class="st17 st26">vanille</text>
	<text transform="matrix(1 0 0 1 199.2964 445.6492)" class="st17 st26"> ] , </text>
	<text transform="matrix(0.7 0 0 0.7 212.8203 445.6492)" class="st17 st26">l</text>
	<text transform="matrix(1 0 0 1 216.7852 445.6492)" class="st17 st26">&apos;</text>
	<text transform="matrix(0.7 0 0 0.7 219.041 445.6492)" class="st17 st26">huile</text>
	<text transform="matrix(1 0 0 1 240.0576 445.6492)" class="st17 st26"> </text>
	<text transform="matrix(0.7 0 0 0.7 242.6016 445.6492)" class="st17 st26">de</text>
	<text transform="matrix(1 0 0 1 252.3286 445.6492)" class="st17 st26"> </text>
	<text transform="matrix(0.7 0 0 0.7 254.8726 445.6492)" class="st17 st26">palme</text>
	<text transform="matrix(1 0 0 1 279.333 445.6492)" class="st17 st26"> , </text>
	<text transform="matrix(0.7 0 0 0.7 286.9048 445.6492)" class="st17 st26">le</text>
	<text transform="matrix(1 0 0 1 295.0024 445.6492)" class="st17 st26"> </text>
	<text transform="matrix(0.7 0 0 0.7 297.5464 445.6492)" class="st17 st26">sucre</text>
	<text transform="matrix(1 0 0 1 320.647 445.6492)" class="st17 st26"> , </text>
	<text transform="matrix(0.7 0 0 0.7 328.2183 445.6492)" class="st17 st26">la</text>
	<text transform="matrix(1 0 0 1 337.3237 445.6492)" class="st17 st26"> </text>
	<text transform="matrix(0.7 0 0 0.7 339.8677 445.6492)" class="st17 st26">farine</text>
	<text transform="matrix(1 0 0 1 365.2866 445.6492)" class="st17 st26"> </text>
	<text transform="matrix(0.7 0 0 0.7 367.8306 445.6492)" class="st17 st26">de</text>
	<text transform="matrix(1 0 0 1 377.5581 445.6492)" class="st17 st26"> </text>
	<text transform="matrix(0.7 0 0 0.7 380.1021 445.6492)" class="st17 st26">blé</text>
	<text transform="matrix(1 0 0 1 392.7524 445.6492)" class="st17 st26"> </text>
	<text transform="matrix(0.7 0 0 0.7 395.2964 445.6492)" class="st17 st26">entier</text>
	<text transform="matrix(1 0 0 1 419.7915 445.6492)" class="st17 st26"> (7% ), </text>
	<text transform="matrix(0.7 0 0 0.7 452.3833 445.6492)" class="st17 st26">de</text>
	<text transform="matrix(1 0 0 1 462.1108 445.6492)" class="st17 st26"> </text>
	<text transform="matrix(0.7 0 0 0.7 464.6548 445.6492)" class="st17 st26">glucose</text>
	<text transform="matrix(1 0 0 1 498.4146 445.6492)" class="st17 st26">-</text>
	<text transform="matrix(0.7 0 0 0.7 502.0981 445.6492)" class="st17 st26">fructose</text>
	<text transform="matrix(1 0 0 1 539.2515 445.6492)" class="st17 st26"> , </text>
	<text transform="matrix(0.7 0 0 0.7 546.8228 445.6492)" class="st17 st26">le</text>
	<text transform="matrix(1 0 0 1 554.9204 445.6492)" class="st17 st26"> </text>
	<text transform="matrix(0.7 0 0 0.7 24.8369 460.0496)" class="st17 st26">bicarbonate</text>
	<text transform="matrix(1 0 0 1 75.2446 460.0496)" class="st17 st26"> </text>
	<text transform="matrix(0.7 0 0 0.7 77.7886 460.0496)" class="st17 st26">de</text>
	<text transform="matrix(1 0 0 1 87.5156 460.0496)" class="st17 st26"> </text>
	<text transform="matrix(0.7 0 0 0.7 90.0596 460.0496)" class="st17 st26">sodium</text>
	<text transform="matrix(1 0 0 1 119.7783 460.0496)" class="st17 st26"> </text>
	<text transform="matrix(0.7 0 0 0.7 122.3223 460.0496)" class="st17 st26">et</text>
	<text transform="matrix(1 0 0 1 130.6299 460.0496)" class="st17 st26"> </text>
	<text transform="matrix(0.7 0 0 0.7 133.1738 460.0496)" class="st17 st26">de</text>
	<text transform="matrix(1 0 0 1 142.9009 460.0496)" class="st17 st26"> </text>
	<text transform="matrix(0.7 0 0 0.7 145.4448 460.0496)" class="st17 st26">l</text>
	<text transform="matrix(1 0 0 1 149.4097 460.0496)" class="st17 st26">&apos;</text>
	<text transform="matrix(0.7 0 0 0.7 151.6655 460.0496)" class="st17 st26">acide</text>
	<text transform="matrix(1 0 0 1 173.4131 460.0496)" class="st17 st26"> </text>
	<text transform="matrix(0.7 0 0 0.7 175.957 460.0496)" class="st17 st26">tartrique</text>
	<text transform="matrix(1 0 0 1 215.8482 460.0496)" class="st17 st26"> </text>
	<text transform="matrix(0.7 0 0 0.7 218.3921 460.0496)" class="st17 st26">et</text>
	<text transform="matrix(1 0 0 1 226.6997 460.0496)" class="st17 st26"> </text>
	<text transform="matrix(0.7 0 0 0.7 229.2437 460.0496)" class="st17 st26">l</text>
	<text transform="matrix(1 0 0 1 233.2085 460.0496)" class="st17 st26">&apos;</text>
	<text transform="matrix(0.7 0 0 0.7 235.4644 460.0496)" class="st17 st26">acide</text>
	<text transform="matrix(1 0 0 1 257.2119 460.0496)" class="st17 st26"> </text>
	<text transform="matrix(0.7 0 0 0.7 259.7559 460.0496)" class="st17 st26">et</text>
	<text transform="matrix(1 0 0 1 268.0635 460.0496)" class="st17 st26"> </text>
	<text transform="matrix(0.7 0 0 0.7 270.6074 460.0496)" class="st17 st26">le</text>
	<text transform="matrix(1 0 0 1 278.7051 460.0496)" class="st17 st26"> </text>
	<text transform="matrix(0.7 0 0 0.7 281.249 460.0496)" class="st17 st26">bicarbonate</text>
	<text transform="matrix(1 0 0 1 331.6567 460.0496)" class="st17 st26"> </text>
	<text transform="matrix(0.7 0 0 0.7 334.2007 460.0496)" class="st17 st26">d</text>
	<text transform="matrix(1 0 0 1 339.7954 460.0496)" class="st17 st26">&apos;</text>
	<text transform="matrix(0.7 0 0 0.7 342.0513 460.0496)" class="st17 st26">ammonium</text>
	<text transform="matrix(1 0 0 1 386.2104 460.0496)" class="st17 st26"> </text>
	<text transform="matrix(0.7 0 0 0.7 388.7544 460.0496)" class="st17 st26">malique</text>
	<text transform="matrix(1 0 0 1 421.9761 460.0496)" class="st17 st26"> ( </text>
	<text transform="matrix(0.7 0 0 0.7 430.4722 460.0496)" class="st17 st26">agents</text>
	<text transform="matrix(1 0 0 1 459.0161 460.0496)" class="st17 st26"> </text>
	<text transform="matrix(0.7 0 0 0.7 461.5601 460.0496)" class="st17 st26">levants</text>
	<text transform="matrix(1 0 0 1 493.3296 460.0496)" class="st17 st26"> ) , </text>
	<text transform="matrix(0.7 0 0 0.7 506.853 460.0496)" class="st17 st26">le</text>
	<text transform="matrix(1 0 0 1 514.9507 460.0496)" class="st17 st26"> </text>
	<text transform="matrix(0.7 0 0 0.7 517.4946 460.0496)" class="st17 st26">sel</text>
	<text transform="matrix(1 0 0 1 529.7339 460.0496)" class="st17 st26"> </text>
	<text transform="matrix(0.7 0 0 0.7 532.2778 460.0496)" class="st17 st26">contient</text>
	<text transform="matrix(1 0 0 1 568.4819 460.0496)" class="st17 st26"> : </text>
	<text transform="matrix(0.7 0 0 0.7 576.0532 460.0496)" class="st17 st26">le</text>
	<text transform="matrix(1 0 0 1 584.1509 460.0496)" class="st17 st26"> </text>
	<text transform="matrix(0.7 0 0 0.7 24.8369 474.449)" class="st17 st26">blé</text>
	<text transform="matrix(1 0 0 1 37.4873 474.449)" class="st17 st26">, </text>
	<text transform="matrix(0.7 0 0 0.7 42.5151 474.449)" class="st17 st26">le</text>
	<text transform="matrix(1 0 0 1 50.6128 474.449)" class="st17 st26"> </text>
	<text transform="matrix(0.7 0 0 0.7 53.1567 474.449)" class="st17 st26">lait</text>
	<text transform="matrix(1 0 0 1 68.4448 474.449)" class="st17 st26"> </text>
	<text transform="matrix(0.7 0 0 0.7 70.9888 474.449)" class="st17 st26">et</text>
	<text transform="matrix(1 0 0 1 79.2964 474.449)" class="st17 st26"> </text>
	<text transform="matrix(0.7 0 0 0.7 81.8403 474.449)" class="st17 st26">le</text>
	<text transform="matrix(1 0 0 1 89.938 474.449)" class="st17 st26"> </text>
	<text transform="matrix(0.7 0 0 0.7 92.4819 474.449)" class="st17 st26">soja</text>
	<rect x="24.8" y="491.5" class="st7" width="564.1" height="26.6"/>
	<text transform="matrix(0.7 0 0 0.7 24.8369 500.0464)" class="st2 st26">store</text>
	<text transform="matrix(1 0 0 1 49.4653 500.0464)" class="st2 st26"> </text>
	<text transform="matrix(0.7 0 0 0.7 51.8892 500.0464)" class="st2 st26">in</text>
	<text transform="matrix(1 0 0 1 60.0791 500.0464)" class="st2 st26"> </text>
	<text transform="matrix(0.7 0 0 0.7 62.5029 500.0464)" class="st2 st26">a</text>
	<text transform="matrix(1 0 0 1 68.0132 500.0464)" class="st2 st26"> </text>
	<text transform="matrix(0.7 0 0 0.7 70.437 500.0464)" class="st2 st26">cool</text>
	<text transform="matrix(1 0 0 1 91.7735 500.0464)" class="st2 st26"> </text>
	<text transform="matrix(0.7 0 0 0.7 94.1973 500.0464)" class="st2 st26">dry</text>
	<text transform="matrix(1 0 0 1 110.0894 500.0464)" class="st2 st26"> </text>
	<text transform="matrix(0.7 0 0 0.7 112.5132 500.0464)" class="st2 st26">place</text>
	<text transform="matrix(1 0 0 1 136.6797 500.0464)" class="st2 st26"> </text>
	<text transform="matrix(0.7 0 0 0.7 139.1035 500.0464)" class="st2 st26">away</text>
	<text transform="matrix(1 0 0 1 162.648 500.0464)" class="st2 st26"> </text>
	<text transform="matrix(0.7 0 0 0.7 165.0718 500.0464)" class="st2 st26">from</text>
	<text transform="matrix(1 0 0 1 187.6089 500.0464)" class="st2 st26"> </text>
	<text transform="matrix(0.7 0 0 0.7 190.0327 500.0464)" class="st2 st26">strong</text>
	<text transform="matrix(1 0 0 1 221.7002 500.0464)" class="st2 st26"> </text>
	<text transform="matrix(0.7 0 0 0.7 224.124 500.0464)" class="st2 st26">light</text>
	<text transform="matrix(1 0 0 1 246.9297 500.0464)" class="st2 st26">/</text>
	<text transform="matrix(0.7 0 0 0.7 250.9019 500.0464)" class="st2 st26">gardez</text>
	<text transform="matrix(1 0 0 1 282.2998 500.0464)" class="st2 st26"> </text>
	<text transform="matrix(0.7 0 0 0.7 284.7236 500.0464)" class="st2 st26">dans</text>
	<text transform="matrix(1 0 0 1 306.4121 500.0464)" class="st2 st26"> </text>
	<text transform="matrix(0.7 0 0 0.7 308.8364 500.0464)" class="st2 st26">un</text>
	<text transform="matrix(1 0 0 1 320.3608 500.0464)" class="st2 st26"> </text>
	<text transform="matrix(0.7 0 0 0.7 322.7847 500.0464)" class="st2 st26">endroit</text>
	<text transform="matrix(1 0 0 1 356.9136 500.0464)" class="st2 st26"> </text>
	<text transform="matrix(0.7 0 0 0.7 359.3374 500.0464)" class="st2 st26">frais</text>
	<text transform="matrix(1 0 0 1 381.186 500.0464)" class="st2 st26"> </text>
	<text transform="matrix(0.7 0 0 0.7 383.6099 500.0464)" class="st2 st26">et</text>
	<text transform="matrix(1 0 0 1 392.6987 500.0464)" class="st2 st26"> </text>
	<text transform="matrix(0.7 0 0 0.7 395.1226 500.0464)" class="st2 st26">sec</text>
	<text transform="matrix(1 0 0 1 409.1421 500.0464)" class="st2 st26"> </text>
	<text transform="matrix(0.7 0 0 0.7 411.5659 500.0464)" class="st2 st26">loin</text>
	<text transform="matrix(1 0 0 1 430.0698 500.0464)" class="st2 st26"> </text>
	<text transform="matrix(0.7 0 0 0.7 432.4937 500.0464)" class="st2 st26">de</text>
	<text transform="matrix(1 0 0 1 442.8257 500.0464)" class="st2 st26"> </text>
	<text transform="matrix(0.7 0 0 0.7 445.2495 500.0464)" class="st2 st26">la</text>
	<text transform="matrix(1 0 0 1 455.0522 500.0464)" class="st2 st26"> </text>
	<text transform="matrix(0.7 0 0 0.7 457.4761 500.0464)" class="st2 st26">lumière</text>
	<text transform="matrix(1 0 0 1 490.9487 500.0464)" class="st2 st26"> </text>
	<text transform="matrix(0.7 0 0 0.7 493.3726 500.0464)" class="st2 st26">forte</text>
	<text transform="matrix(1 0 0 1 517.8921 500.0464)" class="st2 st26">. </text>
	<text transform="matrix(0.7 0 0 0.7 24.8369 514.4459)" class="st2 st26">best</text>
	<text transform="matrix(1 0 0 1 43.5352 514.4459)" class="st2 st26"> </text>
	<text transform="matrix(0.7 0 0 0.7 45.959 514.4459)" class="st2 st26">before</text>
	<text transform="matrix(1 0 0 1 75.4341 514.4459)" class="st2 st26">, </text>
	<text transform="matrix(0.7 0 0 0.7 80.978 514.4459)" class="st2 st26">refer</text>
	<text transform="matrix(1 0 0 1 104.3374 514.4459)" class="st2 st26"> </text>
	<text transform="matrix(0.7 0 0 0.7 106.7612 514.4459)" class="st2 st26">to</text>
	<text transform="matrix(1 0 0 1 117.3872 514.4459)" class="st2 st26"> </text>
	<text transform="matrix(0.7 0 0 0.7 119.8111 514.4459)" class="st2 st26">pack</text>
	<text transform="matrix(1 0 0 1 140.3574 514.4459)" class="st2 st26">/</text>
	<text transform="matrix(0.7 0 0 0.7 144.3296 514.4459)" class="st2 st26">meilleur</text>
	<text transform="matrix(1 0 0 1 182.0952 514.4459)" class="st2 st26"> </text>
	<text transform="matrix(0.7 0 0 0.7 184.5191 514.4459)" class="st2 st26">avant</text>
	<text transform="matrix(1 0 0 1 211.2808 514.4459)" class="st2 st26"> , </text>
	<text transform="matrix(0.7 0 0 0.7 219.2486 514.4459)" class="st2 st26">voir</text>
	<text transform="matrix(1 0 0 1 237.9888 514.4459)" class="st2 st26"> </text>
	<text transform="matrix(0.7 0 0 0.7 240.4126 514.4459)" class="st2 st26">paquet</text>
	<rect x="24.8" y="542.9" class="st7" width="116.2" height="199.4"/>
	<text transform="matrix(0.7 0 0 0.7 24.8369 551.4098)" class="st8 st26">made</text>
	<text transform="matrix(1 0 0 1 47.1895 551.4098)" class="st8 st26"> </text>
	<text transform="matrix(0.7 0 0 0.7 49.6734 551.4098)" class="st8 st26">in</text>
	<text transform="matrix(1 0 0 1 57.5693 551.4098)" class="st8 st26"> </text>
	<text transform="matrix(0.7 0 0 0.7 60.0532 551.4098)" class="st8 st26">the</text>
	<text transform="matrix(1 0 0 1 74.4341 551.4098)" class="st8 st26"> </text>
	<text transform="matrix(0.7 0 0 0.7 76.918 551.4098)" class="st8 st26">uk</text>
	<text transform="matrix(1 0 0 1 87.4009 551.4098)" class="st8 st26"> </text>
	<text transform="matrix(0.7 0 0 0.7 89.8848 551.4098)" class="st8 st26">by</text>
	<text transform="matrix(1 0 0 1 99.5532 551.4098)" class="st8 st26">/ </text>
	<text transform="matrix(0.7 0 0 0.7 106.0811 551.4098)" class="st8 st26">produit</text>
	<text transform="matrix(1 0 0 1 139.4282 551.4098)" class="st8 st26"> </text>
	<text transform="matrix(0.7 0 0 0.7 24.8369 565.8092)" class="st8 st26">en</text>
	<text transform="matrix(1 0 0 1 34.8413 565.8092)" class="st8 st26"> </text>
	<text transform="matrix(0.7 0 0 0.7 37.3252 565.8092)" class="st8 st26">gb</text>
	<text transform="matrix(1 0 0 1 47.7578 565.8092)" class="st8 st26"> </text>
	<text transform="matrix(0.7 0 0 0.7 50.2417 565.8092)" class="st8 st26">par</text>
	<text transform="matrix(1 0 0 1 65.0586 565.8092)" class="st8 st26">/ </text>
	<text transform="matrix(0.7 0 0 0.7 71.5864 565.8092)" class="st8 st26">mcvitie</text>
	<text transform="matrix(1 0 0 1 101.6919 565.8092)" class="st8 st26">’</text>
	<text transform="matrix(0.7 0 0 0.7 104.5239 565.8092)" class="st8 st26">s</text>
	<text transform="matrix(1 0 0 1 108.8833 565.8092)" class="st8 st26"> </text>
	<text transform="matrix(0.7 0 0 0.7 111.3672 565.8092)" class="st8 st26">p</text>
	<text transform="matrix(1 0 0 1 116.0625 565.8092)" class="st8 st26">.</text>
	<text transform="matrix(0.7 0 0 0.7 118.8945 565.8092)" class="st8 st26">o</text>
	<text transform="matrix(1 0 0 1 124.8081 565.8092)" class="st8 st26">. </text>
	<text transform="matrix(0.7 0 0 0.7 24.8369 580.2096)" class="st8 st26">box</text>
	<text transform="matrix(1 0 0 1 40.5786 580.2096)" class="st8 st26"> </text>
	<text transform="matrix(1 0 0 1 43.0625 580.2096)" class="st8 st27">7249</text>
	<text transform="matrix(1 0 0 1 64.502 580.2096)" class="st8 st26">, </text>
	<text transform="matrix(0.7 0 0 0.7 24.8369 594.61)" class="st8 st26">ashby</text>
	<text transform="matrix(1 0 0 1 49.8516 594.61)" class="st8 st26">-</text>
	<text transform="matrix(0.7 0 0 0.7 53.6314 594.61)" class="st8 st26">de</text>
	<text transform="matrix(1 0 0 1 63.6948 594.61)" class="st8 st26">-</text>
	<text transform="matrix(0.7 0 0 0.7 67.4746 594.61)" class="st8 st26">la</text>
	<text transform="matrix(1 0 0 1 76.958 594.61)" class="st8 st26">-</text>
	<text transform="matrix(0.7 0 0 0.7 80.7378 594.61)" class="st8 st26">zouch</text>
	<text transform="matrix(1 0 0 1 107.5835 594.61)" class="st8 st26">, </text>
	<text transform="matrix(0.7 0 0 0.7 112.8994 594.61)" class="st8 st26">le</text>
	<text transform="matrix(1 0 0 1 121.3667 594.61)" class="st8 st27">65 </text>
	<text transform="matrix(1 0 0 1 24.8369 609.0094)" class="st8 st27">2</text>
	<text transform="matrix(0.7 0 0 0.7 30.1968 609.0094)" class="st8 st26">zh</text>
	<text transform="matrix(1 0 0 1 40.5957 609.0094)" class="st8 st26">, </text>
	<text transform="matrix(0.7 0 0 0.7 45.9116 609.0094)" class="st8 st26">great</text>
	<text transform="matrix(1 0 0 1 70.3638 609.0094)" class="st8 st26"> </text>
	<text transform="matrix(0.7 0 0 0.7 72.8477 609.0094)" class="st8 st26">britain</text>
	<text transform="matrix(1 0 0 1 102.3311 609.0094)" class="st8 st26">. </text>
	<text transform="matrix(1 0 0 1 24.8369 621.0094)" class="st2 st27">www.mcvities.com</text>
	<text transform="matrix(1 0 0 1 24.8369 635.4098)" class="st17 st26">®</text>
	<text transform="matrix(0.7 0 0 0.7 29.8648 635.4098)" class="st17 st26">registered</text>
	<text transform="matrix(1 0 0 1 72.6455 635.4098)" class="st17 st26"> </text>
	<text transform="matrix(0.7 0 0 0.7 75.1895 635.4098)" class="st17 st26">trademark</text>
	<text transform="matrix(1 0 0 1 119.7168 635.4098)" class="st17 st26"> </text>
	<text transform="matrix(0.7 0 0 0.7 122.2608 635.4098)" class="st17 st26">of</text>
	<text transform="matrix(1 0 0 1 132.1392 635.4098)" class="st17 st26"> </text>
	<text transform="matrix(0.7 0 0 0.7 24.8369 649.8092)" class="st17 st26">united</text>
	<text transform="matrix(1 0 0 1 51.708 649.8092)" class="st17 st26"> </text>
	<text transform="matrix(0.7 0 0 0.7 54.252 649.8092)" class="st17 st26">bisquits</text>
	<text transform="matrix(1 0 0 1 86.4995 649.8092)" class="st17 st26"> (</text>
	<text transform="matrix(0.7 0 0 0.7 92.4517 649.8092)" class="st17 st26">uk</text>
	<text transform="matrix(1 0 0 1 102.439 649.8092)" class="st17 st26">) </text>
	<text transform="matrix(0.7 0 0 0.7 108.3911 649.8092)" class="st17 st26">limited</text>
	<text transform="matrix(1 0 0 1 137.0269 649.8092)" class="st17 st26"> </text>
	<text transform="matrix(1 0 0 1 24.8369 664.2096)" class="st17 st26">®</text>
	<text transform="matrix(0.7 0 0 0.7 29.8648 664.2096)" class="st17 st26">marque</text>
	<text transform="matrix(1 0 0 1 61.6328 664.2096)" class="st17 st26"> </text>
	<text transform="matrix(0.7 0 0 0.7 64.1768 664.2096)" class="st17 st26">déposée</text>
	<text transform="matrix(1 0 0 1 96.5669 664.2096)" class="st17 st26"> </text>
	<text transform="matrix(0.7 0 0 0.7 99.1109 664.2096)" class="st17 st26">d</text>
	<text transform="matrix(1 0 0 1 104.7051 664.2096)" class="st17 st26">’</text>
	<text transform="matrix(0.7 0 0 0.7 107.189 664.2096)" class="st17 st26">united</text>
	<text transform="matrix(1 0 0 1 134.0606 664.2096)" class="st17 st26"> </text>
	<text transform="matrix(0.7 0 0 0.7 24.8369 678.61)" class="st17 st26">bisquits</text>
	<text transform="matrix(1 0 0 1 57.0845 678.61)" class="st17 st26"> (</text>
	<text transform="matrix(0.7 0 0 0.7 63.0366 678.61)" class="st17 st26">uk</text>
	<text transform="matrix(1 0 0 1 73.0239 678.61)" class="st17 st26">) </text>
	<text transform="matrix(0.7 0 0 0.7 78.9761 678.61)" class="st17 st26">limited</text>
</g>
</svg>
