<?xml version="1.0" encoding="utf-8"?>
<!-- Generator: Adobe Illustrator 19.1.0, SVG Export Plug-In . SVG Version: 6.00 Build 0)  -->
<svg version="1.1" xmlns="http://www.w3.org/2000/svg" xmlns:xlink="http://www.w3.org/1999/xlink" x="0px" y="0px"
	 viewBox="0 0 612 792" style="enable-background:new 0 0 612 792;" xml:space="preserve">
<style type="text/css">
	.st0{fill:#DBDFD5;}
	.st1{fill:#97BC5C;}
	.st2{fill:#221E1F;}
	.st3{fill:#DADED4;}
	.st4{fill:none;stroke:#FFFFFF;stroke-width:5;stroke-miterlimit:10;}
	.st5{font-family:'Raleway-Medium';}
	.st6{font-size:49px;}
	.st7{font-family:'Raleway-Light';}
	.st8{font-size:13px;}
	.st9{fill:none;stroke:#FFFFFF;stroke-width:2;stroke-miterlimit:10;}
	.st10{fill:#4C4A49;}
	.st11{fill:#DD2428;}
	.st12{fill:#FFFFFF;}
	.st13{fill:#273C93;}
	.st14{font-family:'MyriadPro-Bold';}
	.st15{font-size:20.5159px;}
	.st16{clip-path:url(#SVGID_2_);}
	.st17{fill-rule:evenodd;clip-rule:evenodd;fill:#FFF100;stroke:#FCB813;stroke-width:0.4889;stroke-miterlimit:2.6131;}
	.st18{fill-rule:evenodd;clip-rule:evenodd;fill:#2E3191;stroke:#231F20;stroke-width:0.4889;stroke-miterlimit:2.6131;}
	.st19{fill-rule:evenodd;clip-rule:evenodd;fill:#FFCA05;stroke:#231F20;stroke-width:0.4889;stroke-miterlimit:2.6131;}
	.st20{fill-rule:evenodd;clip-rule:evenodd;fill:#FFFFFF;}
	.st21{fill:#D4383B;}
	.st22{fill:#CB2730;}
	.st23{fill:#A22F33;}
	.st24{fill-rule:evenodd;clip-rule:evenodd;fill:#647275;stroke:#A22F33;stroke-width:3;stroke-miterlimit:10;}
	.st25{fill:#B3B6B7;}
	.st26{fill:none;stroke:#A22F33;stroke-width:4;stroke-miterlimit:10;}
	.st27{fill:#3E4D53;}
	.st28{fill:#B28E46;}
	.st29{fill:#251407;}
	.st30{fill:none;stroke:#251407;stroke-width:0.75;stroke-miterlimit:10;}
	.st31{font-family:'MyriadPro-Regular';}
	.st32{font-size:8.8647px;}
	.st33{fill:none;stroke:#F7F6F1;stroke-width:5;stroke-miterlimit:10;}
	.st34{fill:#272220;}
	.st35{fill:#F7F6F1;stroke:#272220;stroke-width:3;stroke-miterlimit:10;}
	.st36{fill:#F7F6F1;}
	.st37{fill:#86BAAD;}
	.st38{font-family:'Raleway-ExtraLight';}
	.st39{font-size:26.8428px;}
	.st40{fill:none;stroke:#251407;stroke-width:2;stroke-miterlimit:10;}
	.st41{font-size:17.8885px;}
	.st42{clip-path:url(#SVGID_4_);}
	.st43{display:none;}
	.st44{display:inline;}
	.st45{fill:none;stroke:#120F0D;stroke-width:2;stroke-miterlimit:10;}
	.st46{opacity:0.5;clip-path:url(#SVGID_6_);fill:#F0D4B2;stroke:#120F0D;stroke-miterlimit:10;}
	.st47{opacity:0.65;clip-path:url(#SVGID_6_);fill:#F0D4B2;stroke:#E32A26;stroke-miterlimit:10;}
	.st48{opacity:0.5;clip-path:url(#SVGID_6_);fill:#F0D4B2;stroke:#120F0D;stroke-width:2;stroke-miterlimit:10;}
	.st49{opacity:0.5;clip-path:url(#SVGID_6_);fill:#F0D4B2;stroke:#FFFFFF;stroke-width:2;stroke-miterlimit:10;}
	.st50{fill:#DDA747;}
	.st51{fill:#EA9B97;}
	.st52{opacity:0.8;fill:#FFFFFF;}
	.st53{fill:none;}
	.st54{fill:#F5D1B6;}
	.st55{fill:#F5D1B6;stroke:#F4CAAE;stroke-miterlimit:10;}
	.st56{fill:#5C2214;}
	.st57{fill:#FFFFFF;stroke:#CECECD;stroke-miterlimit:10;}
	.st58{fill:none;stroke:#231F20;stroke-width:0.365;stroke-miterlimit:10;}
	.st59{fill:#231F20;}
	.st60{fill:#0E113C;}
	.st61{fill:none;stroke:#5C2214;stroke-width:0.5;stroke-miterlimit:10;}
	.st62{fill:#F59698;}
	.st63{fill:#2D2D2D;}
	.st64{fill:none;stroke:#FFFFFF;stroke-width:0.25;stroke-miterlimit:10;}
	.st65{fill:#CECECD;}
	.st66{font-size:6.4439px;}
	.st67{fill:none;stroke:#251407;stroke-width:0.25;stroke-miterlimit:10;}
	.st68{font-size:2.0208px;}
</style>
<g id="Background">
	<path class="st0" d="M609.8,745V439.8c0-2.2,1.2-3.7,2.8-4.4V-0.9H0.5v790.4h612v-40.1C611,748.7,609.8,747.3,609.8,745z"/>
	<path class="st1" d="M32.1,765.5c12.7-1.8,24.8,7.3,37.7,6.9c11.9-0.4,22-8.9,33.4-12.4c2.7-0.8,5.6-1.4,8.2-0.4
		c2.5,0.9,4.3,3,6.4,4.7c9,7.4,21.8,7,33.4,7.3c22.7,0.6,45.2,5.2,67.4,9.8c4.6,4.4,2.4,12.7-2.7,16.5c-5,3.8-11.8,4.4-18.1,4.8
		c-63.8,4.1-127.7,2.8-191.6,1.6c-2.3,0-4.8-0.2-6.5-1.7c-1.5-1.4-1.9-3.5-2.1-5.5c-0.8-6.4-0.9-12.9-0.2-19.4
		C9.9,778.7,19.9,767.2,32.1,765.5z"/>
	<path class="st2" d="M386.1,779.2l226.4-2.4c0.6,13-0.6,2.2,0,15.2c-85,2.2-141.3,0-226.4,0V779.2z"/>
	<rect x="1151.4" y="261.5" class="st3" width="178.1" height="471.5"/>
	<path class="st1" d="M1160.9,722.5c3.9-0.5,7.6,2.1,11.5,1.9c3.6-0.1,6.7-2.5,10.2-3.5c0.8-0.2,1.7-0.4,2.5-0.1
		c0.8,0.3,1.3,0.8,1.9,1.3c2.7,2.1,6.6,2,10.2,2.1c6.9,0.2,13.7,1.5,20.5,2.8c1.4,1.2,0.7,3.6-0.8,4.7s-3.6,1.3-5.5,1.4
		c-19.4,1.2-38.9,0.8-58.3,0.5c-0.7,0-1.1,0-1.6-0.5c-0.4-0.4,0.1-1,0-1.6c-0.2-1.8-0.2-3.7,0-5.5
		C1155.2,726.2,1157.1,723,1160.9,722.5z"/>
</g>
<g id="Text">
	<g>
		<rect x="131.7" y="153.2" class="st4" width="348.5" height="95.6"/>
		<text transform="matrix(1 0 0 1 186.996 206.0932)"><tspan x="0" y="0" class="st5 st6">Digestives</tspan><tspan x="-47.2" y="24" class="st7 st8">Caramel Biscuits with Milk Chocolate Flavoured Coating</tspan></text>
	</g>
	<g>
		<rect x="1169.4" y="335.1" class="st9" width="141" height="38.6"/>
		<text transform="matrix(1 0 0 1 1191.7905 356.5071)"><tspan x="0" y="0" class="st5" style="font-size:19.8167px;">Digestives</tspan><tspan x="-19.1" y="9.7" class="st7" style="font-size:5.2575px;">Caramel Biscuits with Milk Chocolate Flavoured Coating</tspan></text>
	</g>
</g>
<g id="Underground_sign">
	<g>
		<path class="st10" d="M50.2,772.5L50.2,772.5c-6.6,0-12-5.4-12-12V434.1c0-6.6,5.4-12,12-12h0c6.6,0,12,5.4,12,12v326.4
			C62.2,767.1,56.8,772.5,50.2,772.5z"/>
		<circle class="st11" cx="49.4" cy="369.8" r="63.8"/>
		<circle class="st12" cx="48.9" cy="369.8" r="43.4"/>
		<rect x="-31.4" y="360" class="st13" width="160.6" height="25.3"/>
		<text transform="matrix(1 0 0 1 5.5269 379.2133)" class="st12 st14 st15">MCVITIES</text>
	</g>
	<g>
		<defs>
			<rect id="SVGID_1_" x="1151.4" y="465.3" width="66.2" height="262.2"/>
		</defs>
		<clipPath id="SVGID_2_">
			<use xlink:href="#SVGID_1_"  style="overflow:visible;"/>
		</clipPath>
		<g class="st16">
			<path class="st10" d="M1173.3,719.3h-4.5c-2,0-3.7-1.7-3.7-3.7V549.3c0-2,1.7-3.7,3.7-3.7h4.5c2,0,3.7,1.7,3.7,3.7v166.3
				C1177,717.6,1175.4,719.3,1173.3,719.3z"/>
			<circle class="st11" cx="1170.7" cy="519.6" r="31.6"/>
			<circle class="st12" cx="1170.4" cy="519.6" r="21.5"/>
			<rect x="1130.6" y="514.8" class="st13" width="79.6" height="12.5"/>
			<text transform="matrix(1 0 0 1 1148.9004 524.325)" class="st12 st14" style="font-size:10.1702px;">MCVITIES</text>
		</g>
	</g>
</g>
<g id="Phone_Booth_and_Logo">
	<g>
		<path class="st17" d="M92.5,73.7C103.7,56.9,114,41,125.4,25.2c3.2-4.4,9.7-6.2,12.9-6.2c0.2,0,3.1,0,338.2,0c7.4,0,8.7,0,13.4,4
			c2.4,2,36.1,48.9,36.1,48.9s-32.9,48.8-33.5,49.5c-3,3.4-7.4,5.2-12.5,5.2c-115,0-340.8,0-340.8,0s-8.3-0.6-12.6-5.6L92.5,73.7
			L92.5,73.7z"/>
		<path class="st18" d="M512.5,73l-26.3-36.8c-2.5-3.4-8.2-5.4-11.5-5.4c-200.5,0-126.5,0-331.3,0c-1.6,0-8.2,1-11.7,5.4l-25.2,37.4
			c9.2,12.9,17.9,25,26.8,37.2c2.7,3.7,7.4,5.2,11.1,5.2c3.7,0,328.3,0,332.4-0.1c3.2,0,7.8-1.5,10.9-6.3L512.5,73L512.5,73z"/>
		<path class="st19" d="M138.6,112.3c-3.4-2-1.1-8.6-1.1-8.6s3.4-4.3,7.9-5.4c7.9-1.8,20.9-1.8,24.3-7c1.3,2,1.3,9.7-6.5,10.2
			C154.2,103.6,144.5,108,138.6,112.3L138.6,112.3z"/>
		<path class="st19" d="M150.3,95.9c0,0-11-11.6,7-16.1c8.1-2,8.3,0.2,18.7-7c0.7,3.2-0.5,9.3-5.4,11.1
			C153.7,88.7,150.3,95.9,150.3,95.9L150.3,95.9z"/>
		<path class="st19" d="M158,70.1c0,0-4.1-5.9,5.2-10.4c16.2-3.6,19.8-6.6,19.8-6.6s1.8,7-5.4,10c-11,2.3-18,10.2-18,10.2L158,70.1
			L158,70.1z"/>
		<path class="st19" d="M156.9,60.8c0,0-16-20,17.1-26.1c1.8,8.2-4.5,17.7-7,20.2C162.9,60.1,156.9,60.8,156.9,60.8L156.9,60.8z"/>
		<path class="st19" d="M153.3,38.1c-19.6,16.3-8.1,49.7-8.1,49.7l11.9-10.2c0,0,4.7-2.7,2.7-11.1C157.5,58.3,153.3,61.9,153.3,38.1
			L153.3,38.1z"/>
		<path class="st19" d="M135,101.8c3.8,0.9,9-2.7,9-2.7s6.3-2.5,4.5-13.2c-6.8-16.1-5.6-32-5.6-32s-16.4,15.2-13.1,30.4
			C133.2,100,132.8,96.2,135,101.8L135,101.8z"/>
		<path class="st20" d="M456.8,86.1l-0.6,8.3c5.2,2.7,18.3,8.1,27.2-3.5c7.9-12.9,0.9-17.9,0.5-18.1c-3.4-4.8-11.9-5.7-13.5-8.6
			c-1.4-2.9,0-8.4,4.3-8.8c8.8-0.9,12.2,5.7,12.2,5.7l0.5-0.5V51c0,0-3.1,0.5-9-0.9c-3.8-0.5-12.6-0.9-16.9,10.9
			c-1.8,10.7,3.8,12.9,3.8,12.9l10.8,6.6c0,0,3.4,5.2-1.1,8.4C468.6,94.3,460.4,88.8,456.8,86.1L456.8,86.1z"/>
		<path class="st20" d="M457.6,59c5.9-6.5,1.8-8.7,1.2-9.7c-0.6-1-5,0-5,0c-5.9,5,0.5,7.7,1.1,7.3c0.9,1.4-2.3,4.3-2.3,4.3
			S454.2,62.1,457.6,59L457.6,59z"/>
		<path class="st20" d="M388.7,94.6l-0.6,2h14.8l0.2-0.9c0,0-1.6-1.4-1.8-2.3c-0.5-0.9,5.2-37.2,5.6-38.5c-0.2-1.6,2.7-3.2,2.7-3.2
			v-1.6h-14.4l-0.4,1.1c0,0,1.3,0.9,1.6,3.4c0.2,3.2-4.5,36.3-4.7,37.6C391.4,93.7,389.8,94.2,388.7,94.6L388.7,94.6z"/>
		<path class="st20" d="M419.7,50.4c15.8,0.5,27.7-0.9,27.7-0.9l-1.1,10h-0.7c0,0,0.2-2.9-5-2.9c-5,0-7.9-0.2-9,0.5
			c-0.7,1.1-1.6,5.7-2,10.7c2.5,4.3,12.4-0.9,12.4-0.9l-2,11.1c0,0-0.2-2.5-4.5-2.5c-4.3,0-3.1-0.5-5.6,0
			c-2.7,2.7-3.2,12.7-3.2,12.7s-0.2,2,1.1,1.8c16.7,1.6,17.8-3.4,17.8-3.4s0.2,11.1-7.4,10.2c-7.4-1.1-25.4,0-25.4,0v-1.4
			c0,0,3.6-0.7,3.8-6.3c0.9-0.2,3.6-30.2,4.3-33.6c0.9-3.6-1.3-4.1-1.3-4.1S419.5,51,419.7,50.4L419.7,50.4z"/>
		<path class="st20" d="M389.5,50.4l-2.5,0.3c-3.7,0.4-23.4,1.2-34.8-0.1c0,0.2-2.3,8.8-2.3,8.8l0.7,0.2c5-4.3,13.1-3.4,13.1-3.4
			l0.9,1.6c0,0-3.2,32.2-5.2,35.1c-1.8,2.9-3.2,2.7-3.2,2.7v0.9l16,0l0.2-0.9c0,0-1.6,0.2-1.8-3.9c-0.5-4.3,3.2-32,4.3-33.8
			c0.9-1.8,0.2-1.6,1.6-2c1.1-0.5,1.8-0.9,5.6-0.2c4.1,0.5,5.4,4.8,5.4,4.8L389.5,50.4L389.5,50.4z"/>
		<path class="st20" d="M326.6,95l-0.6,1.8h14.5l0.5-0.9c0,0-2-1.6-2-2.3c0-0.7,5.2-37.4,5.9-38.8c-0.2-1.6,2.5-2.9,2.5-2.9l0.2-1.6
			h-14.4l-0.7,1.1c0,0,1.6,0.7,1.8,3.4c0.4,3.2-4.7,36-4.9,37.6C328.8,93.4,327.5,94.3,326.6,95L326.6,95z"/>
		<path class="st20" d="M329.9,50.7l-0.3-0.1h-12l0.2,2.3l-0.7,3.4c0,0-13.1,27.9-13.3,26.1c-1.6,0-6.3-22.4-6.3-26.1
			c0-3.4,3.1-5,3.1-5l-0.2-0.7h-17.3c0,0,0,1.1,0.7,1.8c1.3,0.9,2.9,3.6,4.3,9.3c2.5,9.3,6.5,24.7,6.5,24.7s2.9,11.3,9,10.9
			c4.7-8.2,18.5-39,18.5-39s4.4-5.6,6.9-5.9L329.9,50.7L329.9,50.7z"/>
		<path class="st20" d="M279.7,87.5c1.6,8.6-8.3,7.5-8.3,7.5s-7.4-0.5-10.4-0.9c-3.2-0.5-6.5,1.4-6.5,1.4s1.3-8.4,11-6.1
			C275,91.6,280,88,279.7,87.5L279.7,87.5z"/>
		<path class="st20" d="M181.4,96.2c0,0,0.9,0.7,3.8-3.4c2.9-4.1,10.1-30.6,11.3-36c1.1-5.4-2.3-5.2-2.3-5.2l0.7-1.1l14.4-0.2
			c0,0,1.8,1.1,5.9,30.6c0.9,4.3,20.7-30.2,20.7-30.2H248l-0.5,1.2l-2,2.3c0,0-3.2,37-2,40.1c1.4,3.5,1.8,2,1.8,2l-0.2,1.4
			l-15.8,0.1l0.4-1.6c0,0,1.4-0.2,2.3-2c0.9-1.8,2.9-25.6,2.2-26.3c-0.7-0.9-19.6,29.7-20.7,29.9c-0.9,0-4.7,0.7-7-10.9
			c-2.2-11.3-3.6-20.9-4.5-21.3c-0.7-0.2-9,28.3-9,28.3s0.5,0.7,1.8,2.1c1.4,1.4,0.2,1.1,0.2,1.1l-13.3,0L181.4,96.2L181.4,96.2z"/>
		<path class="st20" d="M278.8,59.7c-0.2-0.2-2-7.9-2-7.9s-17.3-6.1-23.6,10.9C246.9,79.2,266.5,88,274.1,83c7.7-5,5-6.1,5.4-7.3
			c0.7-0.9-0.9-0.7-0.9-0.7s-2.7,2.5-5.9,3.2c-3.4,0.5-7,1.6-10.6-3.2c-3.6-5-2.7-12.5,0.5-15.9C265.8,55.8,271.4,53.1,278.8,59.7
			L278.8,59.7z"/>
	</g>
	<g>
		<rect x="215.2" y="779.2" class="st2" width="172.2" height="12.8"/>
		<rect x="220.7" y="413.7" class="st21" width="160.9" height="8.5"/>
		<rect x="221.9" y="422.2" class="st22" width="158.7" height="357"/>
		<path class="st22" d="M227,413.7v-23.1c0,0,21.3-27.5,72.7-25.8l18.5-0.1c0,0,18.1,1.4,32.1,7c14,5.6,21.5,11.9,26.5,17.6v24.5
			H227z"/>
		<path class="st23" d="M227,390.6l-3.1-2.7c0,0,11.2-16.1,32.6-22.6c1.1-0.3,2.2-0.7,3.2-1.1c9.6-4,68.7-26.1,120.8,22.8l-3.8,2.3
			C376.7,389.2,306,335,227,390.6z"/>
		<rect x="242.7" y="438.6" class="st24" width="118.4" height="305.1"/>
		<path class="st25" d="M324,741.8c11.2,0,24.2,0.2,35.4,0.2c1-37.7,0.5-74.8,1.6-112.5c0.3-12.3,0.7-24.7-1.9-36.7
			c-6.7-31.1-31.4-54.4-51.4-79.2c-4.5-5.5-8.8-11.3-11.5-17.9c-7-16.9-1.8-38.2,3.5-55.7c-8.6-0.4-18.6,0.4-27.2-0.1
			c-14.5,17.9-19.8,43.4-14.7,65.9c5.2,23,20.7,42.3,36.8,59.5s33.7,33.7,44.9,54.5c7.5,14,11.9,30.7,7.3,46
			c-3.9,13-13.8,23.3-19.5,35.7C321.4,714.2,320.1,728.4,324,741.8z"/>
		<g>
			<line class="st26" x1="281" y1="439.6" x2="281" y2="744.8"/>
			<line class="st26" x1="328" y1="439.2" x2="328" y2="744.8"/>
			<line class="st26" x1="242.7" y1="476.1" x2="361.1" y2="476.1"/>
			<line class="st26" x1="244.5" y1="554.1" x2="361.1" y2="554.1"/>
			<line class="st26" x1="243.4" y1="631.6" x2="361.1" y2="631.6"/>
			<line class="st26" x1="243.9" y1="710.1" x2="361.1" y2="710.1"/>
		</g>
		<path class="st27" d="M370.6,585.5h-0.7c-2.2,0-4-1.8-4-4v-15.4c0-2.2,1.8-4,4-4h0.7c2.2,0,4,1.8,4,4v15.4
			C374.6,583.7,372.8,585.5,370.6,585.5z"/>
		<circle class="st28" cx="302.7" cy="389.1" r="22.2"/>
		<circle class="st29" cx="297" cy="373.2" r="0.7"/>
		<circle class="st29" cx="289.2" cy="376.9" r="0.7"/>
		<circle class="st29" cx="304.9" cy="372.4" r="0.7"/>
		<circle class="st29" cx="312.3" cy="375.8" r="0.7"/>
		<circle class="st29" cx="307.9" cy="383.2" r="0.7"/>
		<circle class="st29" cx="295.6" cy="384.1" r="0.7"/>
		<circle class="st29" cx="287.1" cy="384.8" r="0.7"/>
		<circle class="st29" cx="287.8" cy="393.9" r="0.7"/>
		<circle class="st29" cx="296.1" cy="392.8" r="0.7"/>
		<circle class="st29" cx="292.1" cy="401" r="0.7"/>
		<circle class="st29" cx="299" cy="404.1" r="0.7"/>
		<circle class="st29" cx="302.7" cy="398.8" r="0.7"/>
		<circle class="st29" cx="307.2" cy="403.6" r="0.7"/>
		<circle class="st29" cx="314.2" cy="399.3" r="0.7"/>
		<circle class="st29" cx="308.5" cy="391.8" r="0.7"/>
		<circle class="st29" cx="317.8" cy="392.6" r="0.7"/>
		<circle class="st29" cx="316.8" cy="382.5" r="0.7"/>
		<path class="st30" d="M297.2,385.6c0,0-2.9-0.9-2.9,2.1c0,0,0.2,2.6,2.9,1.5"/>
		<line class="st30" x1="294.9" y1="390.9" x2="297.1" y2="390.9"/>
		<text transform="matrix(1 0 0 1 287.078 391.1044)" class="st29 st31 st32">M  VITIES</text>
		<g>
			<g>
				<path class="st29" d="M302.6,377.3c0,0,0.5-2.4,4.9-2.8C307.5,374.5,305.4,378,302.6,377.3z"/>
				<path class="st29" d="M298.6,377.1c0,0,0.5-2.4,4.9-2.8C303.6,374.3,301.4,377.9,298.6,377.1z"/>
				<path class="st29" d="M294.9,377.4c0,0,0.3-2.4,4.7-3.1C299.6,374.2,297.8,378,294.9,377.4z"/>
				<path class="st29" d="M302.5,377.7c0,0,0.1,2.4,4.5,3.4C306.9,381.2,305.3,377.4,302.5,377.7z"/>
				<path class="st29" d="M298.6,377.7c0,0,0.4,2.4,4.8,3C303.4,380.7,301.4,377,298.6,377.7z"/>
				<path class="st29" d="M295,377.9c0,0,0.4,2.4,4.9,2.8C299.9,380.7,297.8,377.1,295,377.9z"/>
			</g>
		</g>
		<path class="st29" d="M305.4,377.7c0,0,2.4-2.3,7.8,0.7C313.2,378.5,307.9,380.8,305.4,377.7z"/>
		<path class="st29" d="M294.3,377.7c0,0,0.2,1.7-2.3,2.8C291.9,380.5,292.4,377.7,294.3,377.7z"/>
	</g>
	<g>
		<path class="st17" d="M1154,300c4.6-6.8,8.7-13.2,13.3-19.6c1.3-1.8,3.9-2.5,5.2-2.5c0.1,0,1.2,0,136.8,0c3,0,3.5,0,5.4,1.6
			c1,0.8,14.6,19.8,14.6,19.8s-13.3,19.7-13.5,20c-1.2,1.4-3,2.1-5.1,2.1c-46.5,0-137.8,0-137.8,0s-3.4-0.3-5.1-2.3L1154,300
			L1154,300z"/>
		<path class="st18" d="M1323.9,299.8l-10.6-14.9c-1-1.4-3.3-2.2-4.7-2.2c-81.1,0-51.2,0-134,0c-0.6,0-3.3,0.4-4.7,2.2l-10.2,15.1
			c3.7,5.2,7.2,10.1,10.8,15c1.1,1.5,3,2.1,4.5,2.1c1.5,0,132.8,0,134.4,0c1.3,0,3.1-0.6,4.4-2.5L1323.9,299.8L1323.9,299.8z"/>
		<path class="st19" d="M1172.7,315.6c-1.4-0.8-0.5-3.5-0.5-3.5s1.4-1.7,3.2-2.2c3.2-0.7,8.5-0.7,9.8-2.8c0.5,0.8,0.5,3.9-2.6,4.1
			C1179,312.2,1175,313.9,1172.7,315.6L1172.7,315.6z"/>
		<path class="st19" d="M1177.4,309c0,0-4.5-4.7,2.8-6.5c3.3-0.8,3.4,0.1,7.6-2.8c0.3,1.3-0.2,3.8-2.2,4.5
			C1178.8,306.1,1177.4,309,1177.4,309L1177.4,309z"/>
		<path class="st19" d="M1180.5,298.6c0,0-1.6-2.4,2.1-4.2c6.6-1.5,8-2.7,8-2.7s0.7,2.8-2.2,4c-4.5,0.9-7.3,4.1-7.3,4.1
			L1180.5,298.6L1180.5,298.6z"/>
		<path class="st19" d="M1180,294.8c0,0-6.5-8.1,6.9-10.5c0.7,3.3-1.8,7.2-2.8,8.2C1182.5,294.5,1180,294.8,1180,294.8L1180,294.8z"
			/>
		<path class="st19" d="M1178.6,285.7c-7.9,6.6-3.3,20.1-3.3,20.1l4.8-4.1c0,0,1.9-1.1,1.1-4.5
			C1180.3,293.8,1178.6,295.3,1178.6,285.7L1178.6,285.7z"/>
		<path class="st19" d="M1171.2,311.4c1.5,0.4,3.6-1.1,3.6-1.1s2.5-1,1.8-5.3c-2.7-6.5-2.3-12.9-2.3-12.9s-6.6,6.1-5.3,12.3
			C1170.5,310.7,1170.3,309.1,1171.2,311.4L1171.2,311.4z"/>
		<path class="st20" d="M1301.3,305.1l-0.2,3.4c2.1,1.1,7.4,3.3,11-1.4c3.2-5.2,0.4-7.2,0.2-7.3c-1.4-1.9-4.8-2.3-5.5-3.5
			c-0.5-1.2,0-3.4,1.7-3.6c3.6-0.4,4.9,2.3,4.9,2.3l0.2-0.2v-3.9c0,0-1.3,0.2-3.6-0.4c-1.5-0.2-5.1-0.4-6.8,4.4
			c-0.7,4.3,1.5,5.2,1.5,5.2l4.4,2.7c0,0,1.4,2.1-0.5,3.4C1306.1,308.4,1302.8,306.2,1301.3,305.1L1301.3,305.1z"/>
		<path class="st20" d="M1301.6,294.1c2.4-2.6,0.7-3.5,0.5-3.9c-0.2-0.4-2,0-2,0c-2.4,2,0.2,3.1,0.5,2.9c0.4,0.6-0.9,1.7-0.9,1.7
			S1300.3,295.4,1301.6,294.1L1301.6,294.1z"/>
		<path class="st20" d="M1273.8,308.5l-0.2,0.8h6l0.1-0.4c0,0-0.6-0.6-0.7-0.9c-0.2-0.4,2.1-15,2.3-15.6c-0.1-0.6,1.1-1.3,1.1-1.3
			v-0.6h-5.8l-0.2,0.5c0,0,0.5,0.4,0.6,1.4c0.1,1.3-1.8,14.7-1.9,15.2C1274.9,308.1,1274.3,308.3,1273.8,308.5L1273.8,308.5z"/>
		<path class="st20" d="M1286.4,290.6c6.4,0.2,11.2-0.4,11.2-0.4l-0.5,4h-0.3c0,0,0.1-1.2-2-1.2c-2,0-3.2-0.1-3.6,0.2
			c-0.3,0.5-0.6,2.3-0.8,4.3c1,1.7,5-0.4,5-0.4l-0.8,4.5c0,0-0.1-1-1.8-1c-1.7,0-1.3-0.2-2.3,0c-1.1,1.1-1.3,5.1-1.3,5.1
			s-0.1,0.8,0.5,0.7c6.7,0.6,7.2-1.4,7.2-1.4s0.1,4.5-3,4.1c-3-0.5-10.3,0-10.3,0v-0.6c0,0,1.5-0.3,1.5-2.6
			c0.4-0.1,1.5-12.2,1.7-13.6c0.4-1.5-0.5-1.7-0.5-1.7S1286.3,290.9,1286.4,290.6L1286.4,290.6z"/>
		<path class="st20" d="M1274.1,290.6l-1,0.1c-1.5,0.2-9.4,0.5-14.1-0.1c0,0.1-0.9,3.6-0.9,3.6l0.3,0.1c2-1.7,5.3-1.4,5.3-1.4
			l0.4,0.6c0,0-1.3,13-2.1,14.2c-0.7,1.2-1.3,1.1-1.3,1.1v0.4l6.5,0l0.1-0.4c0,0-0.6,0.1-0.7-1.6c-0.2-1.7,1.3-12.9,1.7-13.7
			c0.4-0.7,0.1-0.6,0.6-0.8c0.5-0.2,0.7-0.4,2.3-0.1c1.6,0.2,2.2,1.9,2.2,1.9L1274.1,290.6L1274.1,290.6z"/>
		<path class="st20" d="M1248.7,308.7l-0.2,0.7h5.9l0.2-0.4c0,0-0.8-0.6-0.8-0.9c0-0.3,2.1-15.1,2.4-15.7c-0.1-0.6,1-1.2,1-1.2
			l0.1-0.6h-5.8l-0.3,0.5c0,0,0.6,0.3,0.7,1.4c0.2,1.3-1.9,14.6-2,15.2C1249.6,308,1249.1,308.4,1248.7,308.7L1248.7,308.7z"/>
		<path class="st20" d="M1250,290.7l-0.1,0h-4.9l0.1,0.9l-0.3,1.4c0,0-5.3,11.3-5.4,10.5c-0.6,0-2.5-9.1-2.5-10.5c0-1.4,1.3-2,1.3-2
			l-0.1-0.3h-7c0,0,0,0.5,0.3,0.7c0.5,0.4,1.2,1.5,1.7,3.8c1,3.8,2.6,10,2.6,10s1.2,4.6,3.6,4.4c1.9-3.3,7.5-15.8,7.5-15.8
			s1.8-2.3,2.8-2.4L1250,290.7L1250,290.7z"/>
		<path class="st20" d="M1229.7,305.6c0.6,3.5-3.4,3-3.4,3s-3-0.2-4.2-0.4c-1.3-0.2-2.6,0.5-2.6,0.5s0.5-3.4,4.5-2.5
			C1227.8,307.3,1229.8,305.8,1229.7,305.6L1229.7,305.6z"/>
		<path class="st20" d="M1190,309.1c0,0,0.4,0.3,1.5-1.4c1.2-1.7,4.1-12.4,4.6-14.6c0.5-2.2-0.9-2.1-0.9-2.1l0.3-0.5l5.8-0.1
			c0,0,0.7,0.5,2.4,12.4c0.4,1.7,8.4-12.2,8.4-12.2h4.9l-0.2,0.5l-0.8,0.9c0,0-1.3,15-0.8,16.2c0.5,1.4,0.7,0.8,0.7,0.8l-0.1,0.6
			l-6.4,0l0.2-0.6c0,0,0.5-0.1,0.9-0.8c0.4-0.7,1.2-10.4,0.9-10.6c-0.3-0.4-7.9,12-8.4,12.1c-0.4,0-1.9,0.3-2.8-4.4
			c-0.9-4.6-1.5-8.4-1.8-8.6c-0.3-0.1-3.6,11.5-3.6,11.5s0.2,0.3,0.7,0.8c0.5,0.6,0.1,0.5,0.1,0.5l-5.4,0L1190,309.1L1190,309.1z"/>
		<path class="st20" d="M1229.4,294.4c-0.1-0.1-0.8-3.2-0.8-3.2s-7-2.5-9.6,4.4c-2.5,6.7,5.4,10.3,8.5,8.3c3.1-2,2-2.5,2.2-2.9
			c0.3-0.4-0.4-0.3-0.4-0.3s-1.1,1-2.4,1.3c-1.4,0.2-2.8,0.6-4.3-1.3c-1.5-2-1.1-5,0.2-6.4C1224.1,292.8,1226.4,291.7,1229.4,294.4
			L1229.4,294.4z"/>
	</g>
	<g>
		<rect x="1196" y="727.7" class="st2" width="136.9" height="6.1"/>
		<rect x="1198.6" y="552.8" class="st21" width="77" height="4.1"/>
		<rect x="1199.2" y="556.9" class="st22" width="75.9" height="170.8"/>
		<path class="st22" d="M1201.6,552.8v-11.1c0,0,10.2-13.2,34.8-12.4l8.9,0c0,0,8.6,0.7,15.3,3.3c6.7,2.7,10.3,5.7,12.7,8.4v11.7
			H1201.6z"/>
		<path class="st23" d="M1201.6,541.8l-1.5-1.3c0,0,5.3-7.7,15.6-10.8c0.5-0.2,1-0.3,1.5-0.5c4.6-1.9,32.9-12.5,57.8,10.9l-1.8,1.1
			C1273.3,541.1,1239.4,515.2,1201.6,541.8z"/>
		<rect x="1209.1" y="564.7" class="st24" width="56.7" height="146"/>
		<path class="st25" d="M1248,709.8c5.4,0,11.6,0.1,16.9,0.1c0.5-18,0.3-35.8,0.8-53.8c0.2-5.9,0.3-11.8-0.9-17.6
			c-3.2-14.9-15-26-24.6-37.9c-2.1-2.7-4.2-5.4-5.5-8.6c-3.4-8.1-0.9-18.3,1.7-26.6c-4.1-0.2-8.9,0.2-13,0c-6.9,8.6-9.5,20.8-7,31.5
			c2.5,11,9.9,20.2,17.6,28.5c7.7,8.2,16.1,16.1,21.5,26.1c3.6,6.7,5.7,14.7,3.5,22c-1.9,6.2-6.6,11.2-9.3,17.1
			C1246.8,696.6,1246.2,703.4,1248,709.8z"/>
		<g>
			<line class="st26" x1="1227.4" y1="565.3" x2="1227.4" y2="711.2"/>
			<line class="st26" x1="1249.9" y1="565.1" x2="1249.9" y2="711.2"/>
			<line class="st26" x1="1209.1" y1="582.7" x2="1265.8" y2="582.7"/>
			<line class="st26" x1="1210" y1="620" x2="1265.8" y2="620"/>
			<line class="st26" x1="1209.4" y1="657.1" x2="1265.8" y2="657.1"/>
			<line class="st26" x1="1209.7" y1="694.6" x2="1265.8" y2="694.6"/>
		</g>
		<path class="st27" d="M1270.8,635.1h-1.2c-0.8,0-1.5-0.7-1.5-1.5v-8.3c0-0.8,0.7-1.5,1.5-1.5h1.2c0.8,0,1.5,0.7,1.5,1.5v8.3
			C1272.2,634.4,1271.6,635.1,1270.8,635.1z"/>
		<circle class="st28" cx="1237.8" cy="541.1" r="10.6"/>
		<circle class="st29" cx="1235.1" cy="533.5" r="0.3"/>
		<circle class="st29" cx="1231.4" cy="535.2" r="0.3"/>
		<circle class="st29" cx="1238.9" cy="533.1" r="0.3"/>
		<circle class="st29" cx="1242.4" cy="534.7" r="0.3"/>
		<circle class="st29" cx="1240.3" cy="538.2" r="0.3"/>
		<circle class="st29" cx="1234.4" cy="538.7" r="0.3"/>
		<circle class="st29" cx="1230.4" cy="539" r="0.3"/>
		<circle class="st29" cx="1230.7" cy="543.4" r="0.3"/>
		<circle class="st29" cx="1234.7" cy="542.9" r="0.3"/>
		<circle class="st29" cx="1232.8" cy="546.8" r="0.3"/>
		<circle class="st29" cx="1236.1" cy="548.3" r="0.3"/>
		<circle class="st29" cx="1237.8" cy="545.7" r="0.3"/>
		<circle class="st29" cx="1240" cy="548" r="0.3"/>
		<circle class="st29" cx="1243.3" cy="546" r="0.3"/>
		<circle class="st29" cx="1240.6" cy="542.4" r="0.3"/>
		<circle class="st29" cx="1245" cy="542.8" r="0.3"/>
		<circle class="st29" cx="1244.6" cy="537.9" r="0.3"/>
		<path class="st30" d="M1235.2,539.4c0,0-1.4-0.4-1.4,1c0,0,0.1,1.2,1.4,0.7"/>
		<line class="st30" x1="1234.1" y1="541.9" x2="1235.2" y2="541.9"/>
		<text transform="matrix(1 0 0 1 1230.3555 542.0332)"><tspan x="0" y="0" class="st29 st31" style="font-size:4.2413px;">M</tspan><tspan x="3.4" y="0" class="st31" style="fill:#251407;stroke:#231F20;stroke-width:2;stroke-miterlimit:10; font-size:4.2413px;">  </tspan><tspan x="5.2" y="0" class="st29 st31" style="font-size:4.2413px;">VITIES</tspan></text>
		<g>
			<g>
				<path class="st29" d="M1237.8,535.4c0,0,0.2-1.1,2.4-1.3C1240.1,534.1,1239.1,535.8,1237.8,535.4z"/>
				<path class="st29" d="M1235.9,535.3c0,0,0.2-1.1,2.4-1.3C1238.2,534,1237.2,535.7,1235.9,535.3z"/>
				<path class="st29" d="M1234.1,535.5c0,0,0.1-1.1,2.2-1.5C1236.4,534,1235.5,535.7,1234.1,535.5z"/>
				<path class="st29" d="M1237.7,535.6c0,0,0.1,1.2,2.1,1.6C1239.9,537.3,1239.1,535.5,1237.7,535.6z"/>
				<path class="st29" d="M1235.9,535.6c0,0,0.2,1.1,2.3,1.4C1238.2,537,1237.2,535.3,1235.9,535.6z"/>
				<path class="st29" d="M1234.2,535.7c0,0,0.2,1.1,2.3,1.4C1236.5,537.1,1235.5,535.3,1234.2,535.7z"/>
			</g>
		</g>
		<path class="st29" d="M1239.1,535.6c0,0,1.2-1.1,3.7,0.4C1242.9,536,1240.3,537.1,1239.1,535.6z"/>
		<path class="st29" d="M1233.8,535.6c0,0,0.1,0.8-1.1,1.4C1232.7,537,1232.9,535.6,1233.8,535.6z"/>
	</g>
</g>
<g id="Taxi">
	<path class="st33" d="M570.7,732.3c12.3-0.3,23.3-0.3,35,0"/>
	<line class="st33" x1="427.3" y1="732.3" x2="483.8" y2="732.3"/>
	<g>
		<g>
			<path class="st34" d="M612,524.5c-60.2,1.3-88.9,10.5-88.9,10.5c-51,5.8-58.7,91.4-58.7,91.4c-39.4,21.2-33.7,75-33.7,75
				c-16.4,19.2-7.7,42.3-7.7,42.3H612V524.5z"/>
			<circle class="st35" cx="531.9" cy="751" r="41"/>
			<path class="st36" d="M522.1,553.2c-11.2,6.3-37.1,25.2-36,65.7c0.1,4.4,3.7,8,8.1,8h33.6c4.2,0,7.6-3.1,8.1-7.2
				c1.5-15.1,4.1-49.7-2.9-63.4C530.9,552.3,525.9,551,522.1,553.2z"/>
			<path class="st36" d="M612,552.1h-52c-4.6,0-8.3,3.7-8.3,8.3v58.1c0,4.6,3.7,8.3,8.3,8.3h52V552.1z"/>
			<line class="st33" x1="542.5" y1="638" x2="542.5" y2="743.8"/>
			<line class="st33" x1="553.8" y1="673" x2="572.9" y2="673"/>
			<path class="st36" d="M430.8,701.4c0,0,28.8-0.1,21,42.3h-28.7C423.1,743.8,413.6,720.4,430.8,701.4z"/>
		</g>
		<rect x="569.1" y="649.3" class="st37" width="42.9" height="29.8"/>
		<text transform="matrix(1 0 0 1 573.0955 674.2084)" class="st38 st39">TAX</text>
		<g>
			<circle class="st28" cx="531.9" cy="751.4" r="44.8"/>
			<circle class="st29" cx="520.4" cy="719.5" r="1.4"/>
			<circle class="st29" cx="504.7" cy="726.9" r="1.4"/>
			<circle class="st29" cx="536.4" cy="717.7" r="1.4"/>
			<circle class="st29" cx="551.3" cy="724.5" r="1.4"/>
			<circle class="st29" cx="542.6" cy="739.5" r="1.4"/>
			<circle class="st29" cx="517.6" cy="741.4" r="1.4"/>
			<circle class="st29" cx="500.5" cy="742.9" r="1.4"/>
			<circle class="st29" cx="501.9" cy="761.1" r="1.4"/>
			<circle class="st29" cx="518.8" cy="759" r="1.4"/>
			<circle class="st29" cx="510.7" cy="775.4" r="1.4"/>
			<circle class="st29" cx="524.6" cy="781.8" r="1.4"/>
			<circle class="st29" cx="531.9" cy="771.1" r="1.4"/>
			<circle class="st29" cx="541.2" cy="780.8" r="1.4"/>
			<circle class="st29" cx="555.2" cy="772.1" r="1.4"/>
			<circle class="st29" cx="543.7" cy="756.9" r="1.4"/>
			<circle class="st29" cx="562.5" cy="758.6" r="1.4"/>
			<circle class="st29" cx="560.6" cy="738.1" r="1.4"/>
			<path class="st40" d="M521,744.3c0,0-5.8-1.9-5.9,4.3c0,0,0.3,5.2,5.9,3.1"/>
			<line class="st40" x1="516.3" y1="755" x2="520.8" y2="755"/>
			<text transform="matrix(1 0 0 1 500.5039 755.5255)" class="st29 st31 st41">M  VITIES</text>
			<g>
				<g>
					<path class="st29" d="M531.8,727.6c0,0,0.9-4.8,9.9-5.6C541.7,722,537.4,729.2,531.8,727.6z"/>
					<path class="st29" d="M523.8,727.2c0,0,0.9-4.8,9.9-5.6C533.8,721.6,529.4,728.8,523.8,727.2z"/>
					<path class="st29" d="M516.3,727.8c0,0,0.6-4.8,9.5-6.3C525.8,721.5,522,729,516.3,727.8z"/>
					<path class="st29" d="M531.5,728.6c0,0,0.3,4.9,9.1,6.9C540.6,735.5,537.3,727.8,531.5,728.6z"/>
					<path class="st29" d="M523.8,728.4c0,0,0.7,4.8,9.7,6C533.5,734.5,529.5,727.1,523.8,728.4z"/>
					<path class="st29" d="M516.6,728.8c0,0,0.9,4.8,9.9,5.7C526.4,734.5,522.2,727.3,516.6,728.8z"/>
				</g>
			</g>
			<path class="st29" d="M537.5,728.5c0,0,4.9-4.7,15.7,1.5C553.2,730.1,542.6,734.8,537.5,728.5z"/>
			<path class="st29" d="M515.1,728.4c0,0,0.5,3.3-4.7,5.7C510.3,734.1,511.3,728.5,515.1,728.4z"/>
		</g>
	</g>
	<g>
		<defs>
			<rect id="SVGID_3_" x="1253.2" y="611.4" width="76.3" height="125.3"/>
		</defs>
		<clipPath id="SVGID_4_">
			<use xlink:href="#SVGID_3_"  style="overflow:visible;"/>
		</clipPath>
		<g class="st42">
			<g>
				<path class="st34" d="M1280.3,668c0,0,2.9-32.5,22.3-34.7c0,0,28.1-9.1,89.2,0c0,0,25.6,13.2,32.9,34.7c0,0,43.5-0.4,50.4,12.8
					c0,0,15.3,4.4,9.1,31.8h-37.3h-182.4c0,0-3.3-8.8,2.9-16.1C1267.5,696.5,1265.3,676,1280.3,668z"/>
				<circle class="st35" cx="1305.9" cy="715.4" r="15.6"/>
				<circle class="st35" cx="1431.4" cy="715.4" r="15.6"/>
				<circle class="st36" cx="1468.4" cy="693.9" r="5.9"/>
				<path class="st36" d="M1302.1,640.2c-4.3,2.4-14.1,9.6-13.7,25c0,1.7,1.4,3,3.1,3h12.8c1.6,0,2.9-1.2,3.1-2.7
					c0.6-5.7,1.6-18.9-1.1-24.1C1305.5,639.9,1303.6,639.4,1302.1,640.2z"/>
				<path class="st36" d="M1331.6,668.2h-9.9c-4.6,0-8.3-3.7-8.3-8.3v-11.8c0-4.6,3.7-8.3,8.3-8.3h9.9c4.6,0,8.3,3.7,8.3,8.3v11.8
					C1339.9,664.5,1336.1,668.2,1331.6,668.2z"/>
				<path class="st36" d="M1376.3,668.2h-16.4c-4.6,0-8.3-3.7-8.3-8.3v-11.8c0-4.6,3.7-8.3,8.3-8.3h16.4c4.6,0,8.3,3.7,8.3,8.3v11.8
					C1384.6,664.5,1380.9,668.2,1376.3,668.2z"/>
				<path class="st36" d="M1391.7,633.3c0,0-3.2,34.7,6.4,34.9l26.5-0.2C1424.6,668,1420.6,648.8,1391.7,633.3z"/>
				<line class="st33" x1="1346.1" y1="672.4" x2="1346.1" y2="712.6"/>
				<line class="st33" x1="1309.9" y1="672.4" x2="1309.9" y2="712.6"/>
				<line class="st33" x1="1387.1" y1="670.9" x2="1387.1" y2="712.6"/>
				<line class="st33" x1="1314.2" y1="685.7" x2="1321.5" y2="685.7"/>
				<line class="st33" x1="1350.1" y1="685.7" x2="1358.4" y2="685.7"/>
				<path class="st36" d="M1267.5,696.5c0,0,10.9,0,8,16.1h-10.9C1264.5,712.6,1261,703.7,1267.5,696.5z"/>
			</g>
			<rect x="1320" y="676.7" class="st37" width="24.4" height="11.3"/>
			<text transform="matrix(1 0 0 1 1321.5311 686.172)" class="st38" style="font-size:10.1977px;">TAXI</text>
			<g>
				<circle class="st28" cx="1305.9" cy="715.5" r="17"/>
				<circle class="st29" cx="1301.5" cy="703.4" r="0.5"/>
				<circle class="st29" cx="1295.6" cy="706.2" r="0.5"/>
				<circle class="st29" cx="1307.6" cy="702.7" r="0.5"/>
				<circle class="st29" cx="1313.3" cy="705.3" r="0.5"/>
				<circle class="st29" cx="1309.9" cy="711" r="0.5"/>
				<circle class="st29" cx="1300.5" cy="711.7" r="0.5"/>
				<circle class="st29" cx="1294" cy="712.3" r="0.5"/>
				<circle class="st29" cx="1294.5" cy="719.2" r="0.5"/>
				<circle class="st29" cx="1300.9" cy="718.4" r="0.5"/>
				<circle class="st29" cx="1297.8" cy="724.6" r="0.5"/>
				<circle class="st29" cx="1303.1" cy="727.1" r="0.5"/>
				<circle class="st29" cx="1305.9" cy="723" r="0.5"/>
				<circle class="st29" cx="1309.4" cy="726.7" r="0.5"/>
				<circle class="st29" cx="1314.7" cy="723.4" r="0.5"/>
				<circle class="st29" cx="1310.4" cy="717.6" r="0.5"/>
				<circle class="st29" cx="1317.5" cy="718.2" r="0.5"/>
				<circle class="st29" cx="1316.8" cy="710.5" r="0.5"/>
				<path class="st40" d="M1301.7,712.8c0,0-2.2-0.7-2.2,1.6c0,0,0.1,2,2.2,1.2"/>
				<line class="st40" x1="1299.9" y1="716.9" x2="1301.7" y2="716.9"/>
				<text transform="matrix(1 0 0 1 1293.9529 717.0664)"><tspan x="0" y="0" class="st29 st31" style="font-size:6.796px;">M</tspan><tspan x="5.5" y="0" class="st31" style="fill:#251407;stroke:#231F20;stroke-miterlimit:10; font-size:6.796px;">  </tspan><tspan x="8.3" y="0" class="st29 st31" style="font-size:6.796px;">VITIES</tspan></text>
				<g>
					<g>
						<path class="st29" d="M1305.8,706.5c0,0,0.4-1.8,3.8-2.1C1309.6,704.3,1308,707.1,1305.8,706.5z"/>
						<path class="st29" d="M1302.8,706.3c0,0,0.4-1.8,3.8-2.1C1306.6,704.2,1304.9,706.9,1302.8,706.3z"/>
						<path class="st29" d="M1300,706.5c0,0,0.2-1.8,3.6-2.4C1303.6,704.1,1302.1,707,1300,706.5z"/>
						<path class="st29" d="M1305.7,706.8c0,0,0.1,1.8,3.4,2.6C1309.2,709.5,1307.9,706.5,1305.7,706.8z"/>
						<path class="st29" d="M1302.8,706.8c0,0,0.3,1.8,3.7,2.3C1306.5,709.1,1305,706.3,1302.8,706.8z"/>
						<path class="st29" d="M1300.1,706.9c0,0,0.3,1.8,3.7,2.2C1303.8,709.1,1302.2,706.3,1300.1,706.9z"/>
					</g>
				</g>
				<path class="st29" d="M1308,706.8c0,0,1.8-1.8,6,0.6C1314,707.4,1309.9,709.2,1308,706.8z"/>
				<path class="st29" d="M1299.5,706.8c0,0,0.2,1.3-1.8,2.2C1297.7,708.9,1298.1,706.8,1299.5,706.8z"/>
			</g>
		</g>
	</g>
</g>
<g id="Purse" class="st43">
	<g class="st44">
		<path class="st45" d="M-196.7,732.6c0,0,0-38,20.9-40.3c0,0,18.9-4.8,21.9,38.5"/>
		<g>
			<defs>
				<path id="SVGID_5_" d="M-197.8,728.3c0,0,21.8-10.1,44.8,0.7c0,0,17.3,33.5,5.2,50.6c0,0-1.4,2.1-5.1,1.6l-49.1,0.1
					c0,0-2.6,0.2-3-2.6c-0.4-2.7-9.8-17.5,4.8-46C-199.4,731.2-198.6,729.8-197.8,728.3z"/>
			</defs>
			<use xlink:href="#SVGID_5_"  style="overflow:visible;fill:#F0D4B2;"/>
			<clipPath id="SVGID_6_">
				<use xlink:href="#SVGID_5_"  style="overflow:visible;"/>
			</clipPath>
			<path class="st46" d="M-176.5,724c0,0,2.2,49,0.5,57.2"/>
			<path class="st47" d="M-201.5,735.5c0,0,6.2-1.3,13.8,1.2c0,0,5.2,3,11.8,2.5c0,0,5.2,1.4,17-2.1c0,0,5.6-1.9,9.6,0.1"/>
			<path class="st47" d="M-190.2,725.8c0,0-2.1,13.6-2,16c0,0-0.4,15.1-0.9,15.7c0,0-0.1,22.9-0.8,23.8"/>
			<path class="st47" d="M-160.2,726.2c0,0,2.1,13.2,2,15.6c0,0,0.4,15.1,0.9,15.7c0,0,0.1,22.9,0.8,23.8"/>
			<path class="st47" d="M-208.3,758.1c0,0,1.5,1.6,15.1,0c0,0,16.1,2,17.9,1.8c0,0,10.7-0.3,17.9-0.9c0,0,11.1-0.9,13.7,0.9"/>
			<line class="st48" x1="-187.4" y1="724" x2="-188.6" y2="781.2"/>
			<line class="st48" x1="-183.7" y1="724" x2="-184.9" y2="781.2"/>
			<line class="st48" x1="-180.1" y1="724" x2="-181.3" y2="781.2"/>
			<line class="st49" x1="-185.5" y1="724" x2="-186.8" y2="781.2"/>
			<line class="st49" x1="-181.9" y1="724" x2="-183.2" y2="781.2"/>
			<line class="st48" x1="-207.3" y1="750.7" x2="-143.4" y2="751.9"/>
			<line class="st48" x1="-207.3" y1="747" x2="-143.4" y2="748.2"/>
			<line class="st48" x1="-207.3" y1="743.3" x2="-143.4" y2="744.5"/>
			<line class="st48" x1="-208.4" y1="773.5" x2="-142.2" y2="774.7"/>
			<line class="st48" x1="-208.4" y1="769.8" x2="-142.2" y2="771"/>
			<line class="st48" x1="-208.4" y1="766.2" x2="-142.2" y2="767.4"/>
			<line class="st48" x1="-163.3" y1="724" x2="-162.1" y2="781.2"/>
			<line class="st48" x1="-167" y1="724" x2="-165.8" y2="781.2"/>
			<line class="st48" x1="-170.6" y1="724" x2="-169.4" y2="781.2"/>
			<line class="st49" x1="-165.1" y1="724" x2="-163.8" y2="781.2"/>
			<line class="st49" x1="-168.8" y1="724" x2="-167.5" y2="781.2"/>
		</g>
	</g>
</g>
<g id="Girl_and_Dog">
	<g>
		<path class="st50" d="M77,716.5c-0.3-0.6-1.1-0.9-1.8-0.7c-0.5,0.2-1,0.5-1.4,0.9c-0.1,0.1-0.3,0-0.3-0.1
			c-0.1-0.8-0.9-1.4-1.8-1.6c-1-0.2-2.1-0.4-2.6-1.2c-0.3-0.5-0.7-1.4-1.2-1.1c0.1,0.8-0.1,2-0.9,1.9c-0.2,0-0.4-0.1-0.6-0.3
			c-1.1-1.1-0.6-3.4-3.4-3.4c-0.4,0-0.8,0.1-1.2,0.4c-1.8,1.2-2,3.3-1.9,5.3c-0.8-0.1-1.5-0.4-2.1-1c-0.2-0.2-0.6,0-0.5,0.2
			c0.1,0.4,0.3,0.9,0.6,1.1c-0.5,0.3-1.2,0.3-1.7,0c-0.1-0.1-0.3,0-0.2,0.2c0.1,0.6,1.6,1.2,1.2,1.8c-0.2,0.2-0.5,0.2-0.8,0.1
			c-0.8-0.2-1.5-0.4-2.3-0.6c-0.4,0.2-0.3,0.8,0.1,1.2c0.3,0.3,0.7,0.7,0.7,1.1c-0.1,0.8-1.3,0.7-2,0.4l0.6,2.9
			c-0.6,0-1.2-0.2-1.7-0.5c-0.6,0.3-0.4,1.3,0.1,1.8c0.5,0.5,1.2,1,1.2,1.7c-1.3-0.5-2.7-0.6-4-0.1c-0.4,1.5,0.9,1,1.4,1.6
			c0.5,0.5-0.1,1.3-0.7,1.7s-1.4,0.8-1.3,1.5c0.5,0.2,1.1,0.6,1.1,1.2c0,1.3-2.6,1.1-2.6,2.3c0,0.7,0.8,1.5,0.2,1.9
			c-0.5,0.4-1.4-0.5-1.7,1.1c0,0.1,0,0.2,0,0.3c0.4,0.9,1.4,1.1,2.3,1.1c-0.5,1-1.7,1.6-2.8,1.3c-0.1,0.5-0.1,1,0.1,1.6
			c-0.3,0.2-0.6,0.3-0.9,0.2c-0.1,1.3,0.2,2.6,0.9,3.6c-1-0.2-1.9,1.2-1.2,2c0.5,0.6,1.8,0.8,1.7,1.7c-0.7,0.1-1.4,0.3-2,0.4
			c-0.5,0.1-1.1,0.4-0.9,0.8c0.1,0.2,0.3,0.3,0.5,0.5c0.5,0.5,0.3,1.3-0.1,1.8c-0.4,0.6-0.9,1-1.1,1.7c-0.4,1.5,1.3,3.2,0.6,4.6
			c-0.2,0.3-0.4,0.6-0.4,0.9c0,0.4,0.3,0.7,0.4,1.1c0.5,1.3-1.3,3.1-0.2,4.1c-1,0.6-2.1,1.6-1.5,2.6c0.2,0.3,0.4,0.5,0.6,0.7
			c0.1,0.1,0.1,0.2,0.1,0.2c0.5,1.5-1,2.1-1.8,1.5c0.1,1.5,1,3,2.3,3.8c-0.5,0.5-2.1,1.2-2,0.3c-1,1.3-0.4,1.5,0,1.8
			c0.3,0.2,0.5,0.6,0.6,1c0.1,0.5,0.3,1,0.7,1.4c0.4,0.3,0.6,0.9,0.7,1.4c0.2,0.9,0.6,2.1,1.5,2c0.2,0,0.4-0.1,0.5-0.1
			c0.5,0,0.6,0.6,0.8,1c0.6,1.8,2.6,2.9,4.5,3.1c1.9,0.2,3.8-0.5,5.5-1.3c0.5-0.2,1-0.5,1.6-0.4c0.9,0.1,1.8,1,2.6,0.6
			c0.1,1.5,0.9,2.9,2.3,3.5c1.3,0.6,3.1,0.1,3.8-1.2c0.2-0.4,0.3-0.9,0.7-1.2c0.3-0.2,0.7-0.2,1.1-0.2c1.3,0,2.6-0.1,3.9-0.1
			c1.1,0,2.1,0,3.2-0.1c0.9,0,1.8,0,2.7,0.3c0.5,0.2,1,0.5,1.5,0.4c0.9-0.1,1.3-1.2,2.1-1.5c0.8-0.3,1.7,0.2,2.2,0.9
			c0.5,0.6,0.9,1.4,1.5,2c1.5,1.5,4.5,0.7,5.1-1.4c0.1-0.4,0.3-0.8,0.5-1.1c0.3-0.3,0.5-0.6,0.6-1l0,0c1-0.1,1.5,1.3,2.4,1.4
			c0.7,0,1.2-0.7,1.9-0.8c0.4,0,0.8,0.2,1.1,0.3c2.8,1.3,6.2,0.6,9.2-0.2c0.5-0.1,0.9-0.2,1.3-0.5c0.9-0.8,0.7-2.3,0.1-3.4
			c0.8-0.6,1-2,0.4-2.8c0.3,0,0.6,0,0.9-0.1c0.1-0.7-0.2-1.5-0.7-1.9c0.7-0.2,1.8-0.9,2.3-1.4c0.5-0.5,0.8-1.4,0.4-2
			c-0.2-0.3-0.5-0.5-0.8-0.8s-0.4-0.7-0.2-1c0.2-0.3,0.6-0.3,0.8-0.6c0.3-0.4-0.2-0.9-0.4-1.3c-0.7-1.1,0.1-3-1.1-3.6
			c1.1-0.6,1.3-2.4,0.3-3.2c-0.2-0.2-0.4-0.3-0.5-0.6c-0.1-0.3,0.1-0.6,0.2-0.9c0.4-1-0.4-2.3-1.5-2.4c-0.2-1.3,1.7-2,1.8-3.2
			c0-0.8-0.6-1.4-1.1-2c-0.5-0.6-0.9-1.5-0.4-2.1c-1-0.2-2.3-0.7-2.3-1.8c0-0.9,1.1-1.8,0.7-2.7c-0.8,0.1-1.7-0.4-2.1-1.1
			c-0.4-0.7-0.4-1.7,0.2-2.4c0.2-0.2,0.4-0.4,0.5-0.7c0.4-0.9-0.7-1.8-1.6-2.3l0.1-2.1c-0.9-0.3-1.4-1.4-1-2.2
			c-0.9,0.1-1.9-0.4-2.3-1.2c-0.4-0.8-0.2-2,0.6-2.4c-0.3-0.5-0.6-0.9-1.1-1.3c0.3-0.3,0.6-0.6,0.7-1s-0.5-0.8-0.8-0.6l0.1-1.4
			l-1.2-0.1c-0.6-0.5-0.8-1.5-0.2-2.1c-0.6,0.2-1.3,0-1.7-0.5s-0.3-1.3,0-1.7c-0.6,0.3-1.4,0.1-1.6-0.5c-0.3-0.5-0.1-1.1-0.2-1.7
			s-0.6-1.2-1.1-1c0.3-0.7,0.6-1.4,0.9-2.1l-1.7-0.2l-0.2-2c-0.8,0-1.6,0.3-2.3,0.8c-0.4-2.3-1.7-4.5-3.4-6.1
			c-0.3-0.3-0.7-0.6-1.1-0.7c-1-0.2-1.9,0.6-2.3,1.5c-0.5,0.9-0.8,1.9-1.6,2.5c-0.2,0.1-0.3,0.2-0.5,0.2c-0.6,0-0.8-1.1-1.4-1.1
			C77.7,714.2,77.9,716.8,77,716.5z"/>
		<circle cx="64.8" cy="728.7" r="3.2"/>
		<circle cx="81.1" cy="729.2" r="3"/>
		<path d="M75.8,734.1c-1.1-0.9-3.3-2.1-5.6,0.1c-0.3,0.3-0.4,0.8-0.3,1.2c0.4,1,1.3,2.6,3.1,2.6c0,0,1.9,0.1,3.1-2.5
			C76.4,735,76.2,734.5,75.8,734.1z"/>
		<path class="st51" d="M61.7,714.3c0-0.3,0.1-0.6,0.3-0.9c0.2-0.3,0.4-0.5,0.7-0.5c0.4,0,0.7,0.4,1,0.7c0.2,0.2,0.3,0.5,0.4,0.7
			c0.3,0.5,0.5,1,0.7,1.4c0.2,0.4,0.3,0.8,0.3,1.2c0,0.4-0.1,0.9-0.4,1.1c-0.8,0.7-2,0.4-2.6-0.4C61.4,716.8,61.5,715.4,61.7,714.3z
			"/>
		<path class="st51" d="M85.8,714.3c0-0.3-0.1-0.6-0.3-0.9c-0.2-0.3-0.4-0.5-0.7-0.5c-0.4,0-0.7,0.4-1,0.7c-0.2,0.2-0.3,0.5-0.4,0.7
			c-0.3,0.5-0.5,1-0.7,1.4c-0.2,0.4-0.3,0.8-0.3,1.2c0,0.4,0.1,0.9,0.4,1.1c0.8,0.7,2,0.4,2.6-0.4C86.1,716.8,86,715.4,85.8,714.3z"
			/>
		<path class="st52" d="M72.9,733.6c0.4,0,0.9,0.1,1.3,0.3c0.4,0.2,0.8,0.5,1,0.8c0,0.1,0.1,0.2,0.1,0.2c-0.1,0-0.2-0.1-0.2-0.2
			c-0.2-0.3-0.5-0.5-0.9-0.6s-0.7-0.1-1.1-0.1c-0.4,0-0.7,0-1.1,0c-0.3,0-0.7,0.1-1,0.3c0.1-0.3,0.5-0.6,0.8-0.7
			C72.2,733.6,72.5,733.6,72.9,733.6z"/>
		<path class="st53" d="M65.8,729.2c-0.1-0.9-0.1-1.8,0.3-2.6c-0.3,0.1-0.5,0.2-0.7,0.4c-0.1,0.2-0.2,0.3-0.2,0.5
			c-0.1,0.6,0.1,1.4,0.7,1.7C65.8,729.3,65.8,729.3,65.8,729.2z"/>
		<g>
			<path class="st54" d="M158.8,500.4c0,0-13.2,5.1-15.3-26.5c0,0-2.9,7.1-14.8,3.2c0,0,7.1,21.6-13.5,23.7c0,0,0,15.1,21.8,19.5
				S158.8,500.4,158.8,500.4z"/>
			<path class="st55" d="M141.4,483.9c0,0,10.1-6.6,10.3-16.8c0,0,10.6-32.3-13.4-40c0,0-25.6-5.1-22.3,29.6c0,0,2,19,13.2,25.9
				C129.1,482.7,135.5,489.5,141.4,483.9z"/>
			<path class="st56" d="M127.2,427.6c0,0-6.1-11.2,8.2-11.8c0,0,9.8,0.4,5.4,12.3"/>
			<path class="st37" d="M125.9,428.7c0,0,9.5-10.1,15-1.3C140.9,427.4,142.5,431.8,125.9,428.7z"/>
			<path class="st56" d="M121.2,438.1c0,0-6.6,7.8-2.5,24.2c0,0,0.1-11,2.8-13.3c0,0-1.8,8.9,0.1,11c0,0,0.9-6.8,1.9-9.7
				c0,0,2.2-4.3,8.4-8.3c0,0-7.9,4.8-5,9.3c0,0-0.5-6,14.5-11.7c0,0,4.4,1.1,7.6,10.3l1.8-2.7c0,0,4.6,6.3,1.4,17.2
				c0,0,14.9-17.9-3.2-33c0,0-20.3-12.1-32.8,3.2c0,0-9.4,11.5-1.9,24.6l2.9-7.7"/>
			<path class="st54" d="M104.7,613.1c0,0,24,132.8,13.9,175.7l5.8,0.4c0,0,11-55.8,5.7-81.2l0.5-80.3L104.7,613.1z"/>
			<path class="st54" d="M165.6,614.8c0,0-26,132.4-16.6,175.5l-5.8,0.3c0,0-10.2-55.9-4.5-81.3l0.7-80.3L165.6,614.8z"/>
			<path class="st57" d="M110.3,530.5c-1.4,13.7,4.8,30.3,6.2,43.8c19.8,2.5,18.2,4.3,37.4-1.1c0.6-0.2,2.7-2.6,3.1-3.1
				c0.4-0.4,1.3-2,1.4-2.5c1.2-5.1,2.2-10,2.6-15.4c0.3-4.1,1.7-14,2.6-18.8c0.1-0.4,0.6-0.5,0.8-0.1l3.1,6.1
				c1.4,1.7,4.1,1.2,6.2,0.4c3.6-1.4,7.1-3.1,10.4-5.2c1-0.6,1.3-2,0.7-3c-5.3-8.2-9.8-17-13.4-26.1c-1-2.6-3-4.7-5.5-5.9
				c-4.7-2.3-7.1-3-13.1-1.6c-1.7,0.4-3.6,0.6-5.3,1.6c-6.9,4.4-15.7,4.1-23.6,2c-2.9-0.8-5.8-1.8-8.7-1.7c-4.8,0.1-9.2,3-12.6,6.4
				c-4,4-9.7,8.7-8.6,14.2c1.3,6.6,5.3,12.5,10.8,16.3c1.2,0.8,2.8,0.3,3.4-1.1c0.8-2,1.6-4,2.4-6.1"/>
			<path class="st58" d="M123.7,528.3c-0.4,0-0.9,0-1.3,0.1c-0.5,0.1-1,0.4-1.4,0.6c-0.7,0.4-1.4,0.7-2.2,1c1.8,1,2.7,3.3,4.5,4.2
				c1,0.5,2.2,0.5,3.3,0.3c1.1-0.2,2.2-0.6,3.2-0.9c0-1.1-0.7-2.1-1.4-3.1c-0.5-0.6-1-1.3-1.6-1.7
				C125.9,528.2,124.7,528.2,123.7,528.3z"/>
			<path class="st58" d="M121,529c-0.3,0-0.6,0.1-0.8,0c-0.1,0-0.2-0.1-0.2-0.2c-0.2-0.1-0.3-0.3-0.5-0.5"/>
			<path class="st58" d="M122.3,528.4c-0.1,0-0.5,0-0.6,0c-0.2,0-0.4-0.1-0.6-0.2c-0.2-0.1-0.3-0.3-0.4-0.5"/>
			<path class="st58" d="M119.7,529.6c-0.3,0.1-0.8,0.2-1.1,0.2c-0.3,0-0.6-0.1-0.8-0.3"/>
			
				<ellipse transform="matrix(0.9982 -6.067008e-02 6.067008e-02 0.9982 -32.0163 8.5726)" class="st58" cx="125.2" cy="531.5" rx="3" ry="3.1"/>
			<path class="st59" d="M125.5,530.4c0-0.4,0-0.4,0-0.7c0-0.3,0-0.6,0-0.9c0,0,0-0.1,0-0.1c0,0-0.1-0.1-0.1-0.1
				c-0.2,0-0.4-0.1-0.5,0l-0.1,0c0.1,0.3,0,0.6-0.1,0.8c-0.2,1.1-0.2,2.2-0.1,3.3c0,0.5,0.1,1.1,0.3,1.5c0,0.1,0.1,0.2,0.2,0.2
				c0.1,0.1,0.3,0.1,0.4,0.1c0.1,0,0.2,0,0.3,0c0.1,0,0.2-0.1,0.1-0.2c0-0.1,0-0.1,0-0.2c-0.1-0.2-0.1-0.4-0.1-0.7
				C125.7,532.5,125.6,531.4,125.5,530.4"/>
			<path class="st58" d="M148.8,527.8c0.4,0,0.9-0.1,1.3,0c0.5,0.1,1,0.3,1.5,0.5c0.7,0.3,1.5,0.5,2.3,0.7c-1.7,1.2-2.3,3.6-4,4.7
				c-0.9,0.6-2.1,0.8-3.2,0.7c-1.1-0.1-2.2-0.3-3.3-0.5c-0.1-1.1,0.5-2.2,1-3.2c0.4-0.7,0.8-1.4,1.4-1.9
				C146.6,528.1,147.7,527.9,148.8,527.8z"/>
			<path class="st58" d="M151.6,528.3c0.3,0,0.6,0.1,0.8-0.1c0.1,0,0.1-0.1,0.2-0.2c0.2-0.2,0.3-0.3,0.4-0.5"/>
			<path class="st58" d="M150.1,527.8c0.1,0,0.4-0.1,0.6-0.1c0.2-0.1,0.4-0.2,0.5-0.3c0.2-0.1,0.3-0.3,0.3-0.5"/>
			<path class="st58" d="M152.9,528.7c0.3,0,0.8,0.1,1.1,0c0.3-0.1,0.6-0.2,0.8-0.4"/>
			
				<ellipse transform="matrix(-0.9982 6.067008e-02 -6.067008e-02 -0.9982 327.3412 1052.5547)" class="st58" cx="147.7" cy="531.2" rx="3" ry="3.1"/>
			<path class="st59" d="M147.2,530.2c0-0.4-0.1-0.4-0.1-0.7c0-0.3-0.1-0.6-0.1-0.9c0,0,0-0.1,0-0.1c0,0,0.1-0.1,0.1-0.1
				c0.2-0.1,0.3-0.1,0.5-0.1l0.1,0c0,0.3,0.1,0.6,0.2,0.8c0.4,1,0.5,2.2,0.5,3.3c0,0.5,0.1,1.1-0.1,1.6c0,0.1-0.1,0.2-0.1,0.2
				c-0.1,0.1-0.3,0.1-0.4,0.1c-0.1,0-0.2,0-0.3,0c-0.1,0-0.2-0.1-0.2-0.2c0-0.1,0-0.1,0-0.2c0.1-0.2,0.1-0.4,0-0.7
				C147.3,532.3,147.2,531.2,147.2,530.2"/>
			<path class="st58" d="M122.4,539c-0.9-0.7-2.1-1-3.2-1.3c-0.8-0.2-1.6-0.4-2.4-0.6"/>
			<path class="st58" d="M122.1,541c-0.5,0.1-1-0.3-1.6-0.4c-0.4-0.1-0.8,0-1.2,0.2c-0.8,0.2-1.6,0.5-2.4,0.9"/>
			<path class="st58" d="M122.9,543.2c-1.1-0.1-2.1,0.4-3,1c-1,0.7-1.9,1.5-2.5,2.5"/>
			<path class="st58" d="M149.9,538.9c0.7-0.4,1.4-0.8,2.1-1.3c0.3-0.2,0.6-0.4,0.9-0.5c0.3-0.1,0.7-0.1,1.1-0.2
				c0.8-0.1,1.7-0.1,2.5-0.2"/>
			<path class="st58" d="M150.5,541c0.7-0.2,1.4-0.3,2.1-0.3c1.5-0.1,2.9,0.3,4.3,0.7"/>
			<path class="st58" d="M150.5,543.3c0.7,0.1,1.4,0.3,2,0.5c0.2,0.1,0.4,0.1,0.6,0.3c0.2,0.2,0.4,0.4,0.6,0.6
				c0.7,0.8,1.8,1.1,2.3,2"/>
			<path class="st58" d="M138.4,536.8c0.3,0,0.7,0,1,0.1c0.3,0.1,0.6,0.4,0.7,0.7c0.1,0.4-0.3,0.8-0.6,1.1c-0.2,0.2-0.5,0.5-0.7,0.7
				c-0.3,0.3-0.6,0.6-1,0.6c-0.4,0-0.6-0.3-0.9-0.6c-0.3-0.4-0.7-0.8-1-1.3c-0.1-0.2-0.3-0.5-0.2-0.7c0.1-0.3,0.5-0.4,0.9-0.4
				C137.2,536.9,137.8,536.8,138.4,536.8z"/>
			<path class="st58" d="M141.3,546.2c-0.1-0.2-0.2-0.3-0.4-0.5c-0.5-0.5-1-0.9-1.5-1.3c-1.4-0.9-3.1,1.1-3.6,2.2"/>
			<line class="st58" x1="138.1" y1="539.9" x2="138.3" y2="544.1"/>
			<path class="st60" d="M114.9,569.3l91.9,63.3c0,0-69.9,62.4-143.7,4.2C63.1,636.8,81.8,591.6,114.9,569.3z"/>
			<path class="st60" d="M114.9,569.3c0,0,28.5,10.1,42.1,0.8c0,0,36.3,26,49.8,62.5L114.9,569.3z"/>
			<path class="st61" d="M134.7,466.6c0,0,1.6,1.8,3.9,0.1"/>
			<g>
				<path class="st62" d="M135.3,475.6c0,0,1.2,0.8,2.4-0.1c0,0,2.5,1.3,2.4,2.1c0,0-0.7,1.2-3.5,1.8
					C136.7,479.4,133.3,478,135.3,475.6z"/>
				<path class="st62" d="M137.8,475.7c0,0-1.2,0.6-2.3-0.3c-0.1-0.1-1.2,0.7-1.3,0.8c-0.5,0.4-1.2,0.4-1.9,0.3
					c0.6,1.6,2.8,2.5,4.4,2.9C136.7,479.4,139.8,478.1,137.8,475.7z"/>
				<path class="st62" d="M135.5,475.7c0,0,1.2,0.6,2.3-0.3c0.1-0.1,1.2,0.7,1.3,0.8c0.5,0.4,1.2,0.4,1.9,0.3
					c-0.6,1.6-2.8,2.5-4.4,2.9C136.7,479.4,133.6,478.1,135.5,475.7z"/>
			</g>
			<g>
				<path class="st59" d="M136.9,459c0,0,1.3,0.4,4.2-2.6c0.4-0.4,0.8-0.8,1.3-1c2.3-1.2,8.9-4.1,15.4-0.2c0,0,0.9,1.7-4.7,10.8
					c-0.4,0.6-1,1-1.6,1.2c-2.4,0.7-8.2,1.8-11.4-2.5c0,0-2.5-4.6-3.5-4.1C136.6,460.6,134.5,459.2,136.9,459z"/>
				<path class="st59" d="M136.2,459c0,0-1.3,0.3-4.1-2.8c-0.4-0.4-0.8-0.8-1.3-1.1c-2.2-1.3-8.8-4.4-15.3-0.7c0,0-1,1.6,4.3,11
					c0.3,0.6,0.9,1.1,1.6,1.3c2.4,0.8,8.2,2.1,11.5-2.1c0,0,2.7-4.5,3.8-4C136.6,460.6,138.7,459,136.2,459z"/>
			</g>
			<path class="st63" d="M140.8,459.2c0,0,3.8-4.8,14.9-3.4c0,0,0.6,8-6.8,10.1c0,0-5.5,1.7-8.2-3.9
				C140.6,462,139.6,460.2,140.8,459.2z"/>
			<path class="st63" d="M132.4,458.4c0,0-3.8-4.8-14.9-3.4c0,0-0.6,8,6.8,10.1c0,0,5.5,1.7,8.2-3.9
				C132.6,461.3,133.6,459.5,132.4,458.4z"/>
			<line class="st64" x1="145.6" y1="457.1" x2="142.8" y2="462.1"/>
			<line class="st64" x1="143.9" y1="457.6" x2="141.1" y2="462.6"/>
			<line class="st64" x1="121.6" y1="454.8" x2="118.8" y2="459.8"/>
			<line class="st64" x1="120.2" y1="454.8" x2="118.1" y2="458.6"/>
			<path class="st37" d="M147.3,419c0.4,0.2,0.6,0.6,0.8,1c0.5,0.9,0.9,1.8,0.7,2.8c-0.1,1-0.8,1.8-1.6,2.4
				c-0.8,0.6-1.8,0.9-2.7,1.3c-1.5,0.5-3,1.1-4.6,1.6c2.2-1.2,4.8-1.6,7.3-1.8c1.8-0.1,3.7-0.1,5.5,0.5c1.8,0.5,3.4,1.6,4.4,3.2
				c0.3,0.6,0.6,1.2,0.5,1.9s-0.5,1.3-1.1,1.4c-0.4,0.1-0.7,0-1.1-0.1c-5.1-1.1-10-2.9-14.6-5.3c0.7-3.1,1.6-6.4,4-8.4
				C145.6,419,146.6,418.5,147.3,419z"/>
			<path class="st54" d="M93.7,548.9c-0.3,1.4-0.6,2.7-0.8,4.1c-1,6.5-2.4,13-4,19.4c-3.3,12.8-7.5,25.3-11.7,37.9
				c-1.3,3.9-2.6,8-2.6,12.1c0,1.4,1.6,2.4,2.8,1.6c0.8-0.5,1.8-1.1,2.2-1.9c0.1-0.3,0.3-0.6,0.4-0.9c5.4-12,10.9-23.9,14.9-36.4
				c1-3.1,1.9-6.2,2.6-9.3c0.4-1.5,0.6-3.1,1-4.6c0.3-1.4,1-2.8,1.4-4.2c1.7-6,2-12.3,3.4-18.4c0.8-3.3,1.9-6.5,1.8-9.8
				c0-0.3,0.1-0.4,0-0.6c-0.1-0.3-0.6-0.5-0.8-0.7c-3.5-2.5-6.4-5.7-8.4-9.5c-0.3,2.3-0.4,4.3-0.6,6.6c-0.1,3.2-0.2,6.4-0.6,9.6
				C94.4,545.5,94.1,547.2,93.7,548.9z"/>
		</g>
		<path class="st65" d="M118.1,706.7h12c0,0,6.1,29.6-5.8,83.3l-5.8-0.4L118.1,706.7z"/>
		<path class="st65" d="M151.1,707.3h-12.3c0,0-7.3,30.9,4.6,83.3l5.8-0.4L151.1,707.3z"/>
		<path class="st45" d="M45.5,738c8.7,4.6,20.8,7.6,30.6,7c9.1-0.6,18.4-3.8,24.2-10.8c7.3-8.9,7.1-22.2,2.2-32.6
			c-4.9-10.4-13.7-18.4-22.8-25.3c-4.4-3.3-9-6.5-12.7-10.6c-3.7-4.1-6.5-9.3-6.5-14.8c0-4.3,1.6-8.4,3.5-12.1
			c2.9-5.6,6.6-10.8,11.1-15.3"/>
		<path class="st50" d="M42,772.4c-1.8-1.3-2.7-3.5-3.2-5.7c-1-4.2-1.2-8.5-0.6-12.7c0.8,1.6,1.7,3.1,2.5,4.7c1.2,2.2,2.4,4.4,4,6.2
			"/>
		<g>
			<circle class="st28" cx="138.3" cy="514.7" r="16.1"/>
			<circle class="st29" cx="134.2" cy="503.2" r="0.5"/>
			<circle class="st29" cx="128.5" cy="505.9" r="0.5"/>
			<circle class="st29" cx="139.9" cy="502.6" r="0.5"/>
			<circle class="st29" cx="145.3" cy="505.1" r="0.5"/>
			<circle class="st29" cx="142.1" cy="510.5" r="0.5"/>
			<circle class="st29" cx="133.2" cy="511.1" r="0.5"/>
			<circle class="st29" cx="127" cy="511.7" r="0.5"/>
			<circle class="st29" cx="127.5" cy="518.2" r="0.5"/>
			<circle class="st29" cx="133.6" cy="517.5" r="0.5"/>
			<circle class="st29" cx="130.7" cy="523.4" r="0.5"/>
			<circle class="st29" cx="135.7" cy="525.7" r="0.5"/>
			<circle class="st29" cx="138.3" cy="521.8" r="0.5"/>
			<circle class="st29" cx="141.6" cy="525.3" r="0.5"/>
			<circle class="st29" cx="146.7" cy="522.2" r="0.5"/>
			<circle class="st29" cx="142.5" cy="516.7" r="0.5"/>
			<circle class="st29" cx="149.3" cy="517.3" r="0.5"/>
			<circle class="st29" cx="148.6" cy="509.9" r="0.5"/>
			<path class="st30" d="M134.4,512.2c0,0-2.1-0.7-2.1,1.6c0,0,0.1,1.9,2.1,1.1"/>
			<line class="st30" x1="132.7" y1="516" x2="134.3" y2="516"/>
			<text transform="matrix(1 0 0 1 126.9804 516.2172)" class="st29 st31 st66">M  VITIES</text>
			<g>
				<g>
					<path class="st29" d="M138.2,506.2c0,0,0.3-1.7,3.6-2C141.8,504.1,140.3,506.7,138.2,506.2z"/>
					<path class="st29" d="M135.4,506c0,0,0.3-1.7,3.6-2C139,504,137.4,506.6,135.4,506z"/>
					<path class="st29" d="M132.7,506.2c0,0,0.2-1.7,3.4-2.3C136.1,504,134.7,506.7,132.7,506.2z"/>
					<path class="st29" d="M138.2,506.5c0,0,0.1,1.7,3.3,2.5C141.4,509,140.2,506.2,138.2,506.5z"/>
					<path class="st29" d="M135.4,506.5c0,0,0.3,1.7,3.5,2.2C138.9,508.6,137.4,506,135.4,506.5z"/>
					<path class="st29" d="M132.8,506.6c0,0,0.3,1.7,3.6,2.1C136.3,508.6,134.8,506,132.8,506.6z"/>
				</g>
			</g>
			<path class="st29" d="M140.3,506.5c0,0,1.7-1.7,5.7,0.5C146,507,142.1,508.7,140.3,506.5z"/>
			<path class="st29" d="M132.2,506.4c0,0,0.2,1.2-1.7,2.1C130.5,508.5,130.9,506.5,132.2,506.4z"/>
		</g>
		<g>
			<circle class="st28" cx="73.7" cy="751" r="5.1"/>
			<circle class="st29" cx="72.4" cy="747.4" r="0.2"/>
			<circle class="st29" cx="70.6" cy="748.2" r="0.2"/>
			<circle class="st29" cx="74.2" cy="747.2" r="0.2"/>
			<circle class="st29" cx="75.9" cy="747.9" r="0.2"/>
			<circle class="st29" cx="74.9" cy="749.6" r="0.2"/>
			<circle class="st29" cx="72.1" cy="749.9" r="0.2"/>
			<circle class="st29" cx="70.1" cy="750" r="0.2"/>
			<circle class="st29" cx="70.3" cy="752.1" r="0.2"/>
			<circle class="st29" cx="72.2" cy="751.8" r="0.2"/>
			<circle class="st29" cx="71.3" cy="753.7" r="0.2"/>
			<circle class="st29" cx="72.8" cy="754.4" r="0.2"/>
			<circle class="st29" cx="73.7" cy="753.2" r="0.2"/>
			<circle class="st29" cx="74.7" cy="754.3" r="0.2"/>
			<circle class="st29" cx="76.3" cy="753.3" r="0.2"/>
			<circle class="st29" cx="75" cy="751.6" r="0.2"/>
			<circle class="st29" cx="77.1" cy="751.8" r="0.2"/>
			<circle class="st29" cx="76.9" cy="749.5" r="0.2"/>
			<path class="st67" d="M72.4,750.2c0,0-0.7-0.2-0.7,0.5c0,0,0,0.6,0.7,0.3"/>
			<line class="st67" x1="71.9" y1="751.4" x2="72.4" y2="751.4"/>
			<text transform="matrix(1 0 0 1 70.1161 751.4427)" class="st29 st31 st68">M  VITIES</text>
			<g>
				<g>
					<path class="st29" d="M73.6,748.3c0,0,0.1-0.5,1.1-0.6C74.8,747.7,74.3,748.5,73.6,748.3z"/>
					<path class="st29" d="M72.8,748.2c0,0,0.1-0.5,1.1-0.6C73.9,747.6,73.4,748.4,72.8,748.2z"/>
					<path class="st29" d="M71.9,748.3c0,0,0.1-0.5,1.1-0.7C73,747.6,72.6,748.4,71.9,748.3z"/>
					<path class="st29" d="M73.6,748.4c0,0,0,0.5,1,0.8C74.6,749.2,74.3,748.3,73.6,748.4z"/>
					<path class="st29" d="M72.7,748.4c0,0,0.1,0.5,1.1,0.7C73.8,749.1,73.4,748.2,72.7,748.4z"/>
					<path class="st29" d="M71.9,748.4c0,0,0.1,0.5,1.1,0.6C73,749.1,72.6,748.3,71.9,748.4z"/>
				</g>
			</g>
			<path class="st29" d="M74.3,748.4c0,0,0.5-0.5,1.8,0.2C76.1,748.6,74.9,749.1,74.3,748.4z"/>
			<path class="st29" d="M71.8,748.4c0,0,0.1,0.4-0.5,0.6C71.2,749,71.3,748.4,71.8,748.4z"/>
		</g>
		<path class="st54" d="M174.8,576.8c-12.6-6.5-20.3-19.8-24.7-33.2c-2.3-7-4-14.5-8.6-20.3c-0.4-0.4-0.7-0.9-1.3-1.1
			c-1.2-0.5-2.7,0.4-3.2,1.6c-0.5,1.2-0.4,2.6-0.2,4c2.1,14.6,8.4,28.4,17.6,39.9c4.6,5.7,10,10.9,15.9,15.1
			c3.4,2.4,13,5.6,11.5-10.7c-0.3-3.6-0.1-7.1-0.1-10.7c0.1-8.1-0.7-15.9-1.6-23.9c-2.6,1.3-5.2,2.6-8,3.3c1.9,13.4,0.4,26.6,2.1,40
			c0.2,1.5,0.4,3,0.7,4.5"/>
	</g>
	<g>
		<path class="st50" d="M1167.6,706.8c-0.1-0.2-0.4-0.3-0.7-0.2c-0.2,0.1-0.4,0.2-0.5,0.3c0,0-0.1,0-0.1,0c0-0.3-0.4-0.5-0.7-0.6
			c-0.4-0.1-0.8-0.1-1-0.4c-0.1-0.2-0.3-0.5-0.5-0.4c0,0.3,0,0.7-0.3,0.7c-0.1,0-0.2-0.1-0.2-0.1c-0.4-0.4-0.2-1.3-1.3-1.3
			c-0.2,0-0.3,0-0.4,0.1c-0.7,0.4-0.8,1.3-0.7,2c-0.3,0-0.6-0.2-0.8-0.4c-0.1-0.1-0.2,0-0.2,0.1c0,0.2,0.1,0.3,0.2,0.4
			c-0.2,0.1-0.4,0.1-0.6,0c0,0-0.1,0-0.1,0.1c0.1,0.2,0.6,0.4,0.4,0.7c-0.1,0.1-0.2,0.1-0.3,0.1c-0.3-0.1-0.6-0.1-0.8-0.2
			c-0.2,0.1-0.1,0.3,0,0.4c0.1,0.1,0.3,0.2,0.3,0.4c0,0.3-0.5,0.3-0.7,0.1l0.2,1.1c-0.2,0-0.5-0.1-0.6-0.2c-0.2,0.1-0.2,0.5,0,0.7
			s0.4,0.4,0.5,0.6c-0.5-0.2-1-0.2-1.5,0c-0.1,0.6,0.3,0.4,0.5,0.6c0.2,0.2,0,0.5-0.3,0.6s-0.5,0.3-0.5,0.6c0.2,0.1,0.4,0.2,0.4,0.4
			c0,0.5-1,0.4-1,0.9c0,0.3,0.3,0.6,0.1,0.7c-0.2,0.1-0.5-0.2-0.6,0.4c0,0,0,0.1,0,0.1c0.2,0.3,0.5,0.4,0.9,0.4
			c-0.2,0.4-0.6,0.6-1,0.5c0,0.2,0,0.4,0,0.6c-0.1,0.1-0.2,0.1-0.3,0.1c-0.1,0.5,0.1,1,0.4,1.3c-0.4-0.1-0.7,0.4-0.5,0.7
			c0.2,0.2,0.7,0.3,0.7,0.6c-0.3,0-0.5,0.1-0.8,0.1c-0.2,0-0.4,0.2-0.3,0.3c0,0.1,0.1,0.1,0.2,0.2c0.2,0.2,0.1,0.5,0,0.7
			c-0.1,0.2-0.3,0.4-0.4,0.6c-0.2,0.6,0.5,1.2,0.2,1.7c-0.1,0.1-0.2,0.2-0.2,0.3c0,0.2,0.1,0.3,0.2,0.4c0.2,0.5-0.5,1.2-0.1,1.5
			c-0.4,0.2-0.8,0.6-0.6,1c0.1,0.1,0.2,0.2,0.2,0.3c0,0,0,0.1,0,0.1c0.2,0.6-0.4,0.8-0.7,0.6c0,0.6,0.4,1.1,0.8,1.4
			c-0.2,0.2-0.8,0.4-0.8,0.1c-0.4,0.5-0.1,0.5,0,0.7c0.1,0.1,0.2,0.2,0.2,0.4c0,0.2,0.1,0.4,0.3,0.5c0.1,0.1,0.2,0.3,0.3,0.5
			c0.1,0.3,0.2,0.8,0.6,0.7c0.1,0,0.1,0,0.2,0c0.2,0,0.2,0.2,0.3,0.4c0.2,0.7,1,1.1,1.7,1.2c0.7,0.1,1.4-0.2,2.1-0.5
			c0.2-0.1,0.4-0.2,0.6-0.2c0.3,0,0.7,0.4,1,0.2c0,0.5,0.4,1.1,0.9,1.3c0.5,0.2,1.2,0,1.4-0.4c0.1-0.2,0.1-0.3,0.3-0.4
			c0.1-0.1,0.3-0.1,0.4-0.1c0.5,0,1,0,1.5,0c0.4,0,0.8,0,1.2,0c0.3,0,0.7,0,1,0.1c0.2,0.1,0.4,0.2,0.6,0.2c0.3,0,0.5-0.4,0.8-0.6
			c0.3-0.1,0.6,0.1,0.8,0.3c0.2,0.2,0.3,0.5,0.6,0.8c0.6,0.6,1.7,0.2,1.9-0.5c0-0.1,0.1-0.3,0.2-0.4c0.1-0.1,0.2-0.2,0.2-0.4l0,0
			c0.4,0,0.6,0.5,0.9,0.5c0.3,0,0.4-0.3,0.7-0.3c0.1,0,0.3,0.1,0.4,0.1c1.1,0.5,2.3,0.2,3.4-0.1c0.2,0,0.3-0.1,0.5-0.2
			c0.4-0.3,0.3-0.9,0-1.3c0.3-0.2,0.4-0.7,0.1-1c0.1,0,0.2,0,0.3,0c0.1-0.3-0.1-0.5-0.3-0.7c0.3-0.1,0.7-0.3,0.9-0.5
			s0.3-0.5,0.1-0.7c-0.1-0.1-0.2-0.2-0.3-0.3c-0.1-0.1-0.1-0.3-0.1-0.4c0.1-0.1,0.2-0.1,0.3-0.2c0.1-0.1-0.1-0.3-0.2-0.5
			c-0.2-0.4,0-1.1-0.4-1.3c0.4-0.2,0.5-0.9,0.1-1.2c-0.1-0.1-0.2-0.1-0.2-0.2c0-0.1,0-0.2,0.1-0.3c0.1-0.4-0.1-0.9-0.5-0.9
			c-0.1-0.5,0.6-0.7,0.7-1.2c0-0.3-0.2-0.5-0.4-0.7c-0.2-0.2-0.3-0.6-0.1-0.8c-0.4-0.1-0.9-0.3-0.9-0.7c0-0.4,0.4-0.7,0.3-1
			c-0.3,0-0.6-0.1-0.8-0.4c-0.2-0.3-0.1-0.6,0.1-0.9c0.1-0.1,0.1-0.2,0.2-0.3c0.2-0.4-0.3-0.7-0.6-0.8l0.1-0.8
			c-0.3-0.1-0.5-0.5-0.4-0.8c-0.3,0-0.7-0.1-0.9-0.4c-0.2-0.3-0.1-0.7,0.2-0.9c-0.1-0.2-0.2-0.3-0.4-0.5c0.1-0.1,0.2-0.2,0.2-0.4
			c0-0.2-0.2-0.3-0.3-0.2l0-0.5l-0.5,0c-0.2-0.2-0.3-0.6-0.1-0.8c-0.2,0.1-0.5,0-0.6-0.2s-0.1-0.5,0-0.7c-0.2,0.1-0.5,0-0.6-0.2
			c-0.1-0.2,0-0.4-0.1-0.6s-0.2-0.5-0.4-0.4c0.1-0.3,0.2-0.5,0.3-0.8l-0.6-0.1l-0.1-0.7c-0.3,0-0.6,0.1-0.9,0.3
			c-0.2-0.9-0.6-1.7-1.3-2.3c-0.1-0.1-0.3-0.2-0.4-0.3c-0.4-0.1-0.7,0.2-0.9,0.6c-0.2,0.3-0.3,0.7-0.6,0.9c-0.1,0-0.1,0.1-0.2,0.1
			c-0.2,0-0.3-0.4-0.5-0.4C1167.8,706,1167.9,707,1167.6,706.8z"/>
		<circle cx="1163" cy="711.4" r="1.2"/>
		<circle cx="1169.1" cy="711.6" r="1.1"/>
		<path d="M1167.1,713.4c-0.4-0.3-1.2-0.8-2.1,0c-0.1,0.1-0.2,0.3-0.1,0.5c0.1,0.4,0.5,1,1.2,1c0,0,0.7,0,1.2-0.9
			C1167.3,713.8,1167.3,713.5,1167.1,713.4z"/>
		<path class="st51" d="M1161.9,706c0-0.1,0-0.2,0.1-0.3s0.2-0.2,0.3-0.2c0.2,0,0.3,0.1,0.4,0.3c0.1,0.1,0.1,0.2,0.2,0.3
			c0.1,0.2,0.2,0.4,0.3,0.5c0.1,0.1,0.1,0.3,0.1,0.5c0,0.2,0,0.3-0.2,0.4c-0.3,0.3-0.8,0.2-1-0.1
			C1161.7,707,1161.8,706.4,1161.9,706z"/>
		<path class="st51" d="M1170.8,706c0-0.1,0-0.2-0.1-0.3s-0.2-0.2-0.3-0.2c-0.2,0-0.3,0.1-0.4,0.3c-0.1,0.1-0.1,0.2-0.2,0.3
			c-0.1,0.2-0.2,0.4-0.3,0.5c-0.1,0.1-0.1,0.3-0.1,0.5c0,0.2,0,0.3,0.2,0.4c0.3,0.3,0.8,0.2,1-0.1C1171,707,1170.9,706.4,1170.8,706
			z"/>
		<path class="st52" d="M1166,713.2c0.2,0,0.3,0,0.5,0.1c0.2,0.1,0.3,0.2,0.4,0.3c0,0,0,0.1,0,0.1c0,0-0.1,0-0.1-0.1
			c-0.1-0.1-0.2-0.2-0.3-0.2c-0.1,0-0.3,0-0.4,0c-0.1,0-0.3,0-0.4,0c-0.1,0-0.3,0-0.4,0.1c0.1-0.1,0.2-0.2,0.3-0.3
			C1165.8,713.2,1165.9,713.2,1166,713.2z"/>
		<path class="st53" d="M1163.4,711.6c0-0.3,0-0.7,0.1-1c-0.1,0-0.2,0.1-0.2,0.1c0,0.1-0.1,0.1-0.1,0.2
			C1163.1,711.2,1163.2,711.5,1163.4,711.6C1163.4,711.6,1163.4,711.6,1163.4,711.6z"/>
		<g>
			<path class="st54" d="M1198.1,626.1c0,0-4.9,1.9-5.7-9.9c0,0-1.1,2.7-5.5,1.2c0,0,2.7,8.1-5,8.8c0,0,0,5.7,8.1,7.3
				C1198.1,635.1,1198.1,626.1,1198.1,626.1z"/>
			<path class="st55" d="M1191.6,620c0,0,3.8-2.5,3.9-6.3c0,0,4-12.1-5-14.9c0,0-9.6-1.9-8.3,11.1c0,0,0.8,7.1,4.9,9.7
				C1187,619.5,1189.4,622.1,1191.6,620z"/>
			<path class="st56" d="M1186.3,598.9c0,0-2.3-4.2,3.1-4.4c0,0,3.7,0.1,2,4.6"/>
			<path class="st37" d="M1185.8,599.3c0,0,3.6-3.8,5.6-0.5C1191.4,598.9,1192,600.5,1185.8,599.3z"/>
			<path class="st56" d="M1184.1,602.9c0,0-2.5,2.9-0.9,9c0,0,0-4.1,1.1-5c0,0-0.7,3.3,0,4.1c0,0,0.3-2.5,0.7-3.6
				c0,0,0.8-1.6,3.1-3.1c0,0-3,1.8-1.9,3.5c0,0-0.2-2.2,5.4-4.4c0,0,1.7,0.4,2.8,3.9l0.7-1c0,0,1.7,2.3,0.5,6.4
				c0,0,5.6-6.7-1.2-12.3c0,0-7.6-4.5-12.3,1.2c0,0-3.5,4.3-0.7,9.2l1.1-2.9"/>
			<path class="st54" d="M1177.9,668.2c0,0,9,49.6,5.2,65.6l2.1,0.2c0,0,4.1-20.8,2.1-30.3l0.2-30L1177.9,668.2z"/>
			<path class="st54" d="M1200.7,668.8c0,0-9.7,49.5-6.2,65.6l-2.2,0.1c0,0-3.8-20.9-1.7-30.4l0.3-30L1200.7,668.8z"/>
			<path class="st57" d="M1180,637.4c-0.5,5.1,1.8,11.3,2.3,16.4c7.4,0.9,6.8,1.6,14-0.4c0.2-0.1,1-1,1.1-1.2
				c0.1-0.1,0.5-0.7,0.5-0.9c0.4-1.9,0.8-3.7,1-5.8c0.1-1.5,0.6-5.2,1-7c0-0.1,0.2-0.2,0.3,0l1.2,2.3c0.5,0.6,1.5,0.4,2.3,0.2
				c1.4-0.5,2.7-1.2,3.9-1.9c0.4-0.2,0.5-0.7,0.3-1.1c-2-3.1-3.6-6.3-5-9.7c-0.4-1-1.1-1.8-2.1-2.2c-1.7-0.8-2.7-1.1-4.9-0.6
				c-0.6,0.2-1.4,0.2-2,0.6c-2.6,1.6-5.9,1.5-8.8,0.7c-1.1-0.3-2.2-0.7-3.3-0.6c-1.8,0-3.4,1.1-4.7,2.4c-1.5,1.5-3.6,3.2-3.2,5.3
				c0.5,2.5,2,4.7,4,6.1c0.4,0.3,1.1,0.1,1.3-0.4c0.3-0.8,0.6-1.5,0.9-2.3"/>
			<path class="st58" d="M1185,636.5c-0.2,0-0.3,0-0.5,0c-0.2,0-0.4,0.1-0.5,0.2c-0.3,0.1-0.5,0.3-0.8,0.4c0.7,0.4,1,1.2,1.7,1.6
				c0.4,0.2,0.8,0.2,1.2,0.1s0.8-0.2,1.2-0.4c0-0.4-0.3-0.8-0.5-1.1c-0.2-0.2-0.4-0.5-0.6-0.6C1185.8,636.5,1185.4,636.5,1185,636.5
				z"/>
			<path class="st58" d="M1184,636.8c-0.1,0-0.2,0.1-0.3,0c0,0-0.1,0-0.1-0.1c-0.1-0.1-0.1-0.1-0.2-0.2"/>
			<path class="st58" d="M1184.5,636.6c0,0-0.2,0-0.2,0c-0.1,0-0.2,0-0.2-0.1c-0.1,0-0.1-0.1-0.1-0.2"/>
			<path class="st58" d="M1183.5,637c-0.1,0-0.3,0.1-0.4,0.1c-0.1,0-0.2,0-0.3-0.1"/>
			
				<ellipse transform="matrix(0.9982 -6.067008e-02 6.067008e-02 0.9982 -36.5078 73.1026)" class="st58" cx="1185.6" cy="637.7" rx="1.1" ry="1.2"/>
			<path class="st59" d="M1185.7,637.3c0-0.1,0-0.1,0-0.3c0-0.1,0-0.2,0-0.3c0,0,0,0,0,0c0,0,0,0,0,0c-0.1,0-0.1,0-0.2,0l-0.1,0
				c0,0.1,0,0.2,0,0.3c-0.1,0.4-0.1,0.8,0,1.2c0,0.2,0,0.4,0.1,0.6c0,0,0,0.1,0.1,0.1c0,0,0.1,0,0.2,0c0,0,0.1,0,0.1,0
				c0,0,0.1,0,0.1-0.1c0,0,0,0,0-0.1c0-0.1,0-0.2,0-0.2C1185.7,638.1,1185.7,637.7,1185.7,637.3"/>
			<path class="st58" d="M1194.4,636.4c0.2,0,0.3,0,0.5,0c0.2,0,0.4,0.1,0.6,0.2c0.3,0.1,0.6,0.2,0.9,0.3c-0.6,0.5-0.8,1.3-1.5,1.8
				c-0.4,0.2-0.8,0.3-1.2,0.3c-0.4,0-0.8-0.1-1.2-0.2c0-0.4,0.2-0.8,0.4-1.2c0.1-0.3,0.3-0.5,0.5-0.7
				C1193.6,636.5,1194,636.4,1194.4,636.4z"/>
			<path class="st58" d="M1195.4,636.5c0.1,0,0.2,0,0.3,0c0,0,0.1,0,0.1-0.1c0.1-0.1,0.1-0.1,0.2-0.2"/>
			<path class="st58" d="M1194.9,636.4c0,0,0.2,0,0.2,0c0.1,0,0.1-0.1,0.2-0.1c0.1-0.1,0.1-0.1,0.1-0.2"/>
			<path class="st58" d="M1195.9,636.7c0.1,0,0.3,0,0.4,0c0.1,0,0.2-0.1,0.3-0.2"/>
			
				<ellipse transform="matrix(-0.9982 6.067008e-02 -6.067008e-02 -0.9982 2424.4319 1201.6681)" class="st58" cx="1194" cy="637.6" rx="1.1" ry="1.2"/>
			<path class="st59" d="M1193.8,637.2c0-0.1,0-0.1,0-0.3c0-0.1,0-0.2,0-0.3c0,0,0,0,0,0c0,0,0,0,0,0c0.1,0,0.1,0,0.2,0l0.1,0
				c0,0.1,0,0.2,0.1,0.3c0.1,0.4,0.2,0.8,0.2,1.2c0,0.2,0,0.4-0.1,0.6c0,0,0,0.1-0.1,0.1c0,0-0.1,0-0.2,0.1c0,0-0.1,0-0.1,0
				c0,0-0.1,0-0.1-0.1c0,0,0,0,0-0.1c0-0.1,0-0.2,0-0.2C1193.8,638,1193.8,637.6,1193.8,637.2"/>
			<path class="st58" d="M1184.5,640.5c-0.3-0.3-0.8-0.4-1.2-0.5c-0.3-0.1-0.6-0.2-0.9-0.2"/>
			<path class="st58" d="M1184.4,641.3c-0.2,0-0.4-0.1-0.6-0.1c-0.1,0-0.3,0-0.4,0.1c-0.3,0.1-0.6,0.2-0.9,0.3"/>
			<path class="st58" d="M1184.7,642.1c-0.4,0-0.8,0.2-1.1,0.4c-0.4,0.3-0.7,0.6-0.9,0.9"/>
			<path class="st58" d="M1194.8,640.5c0.3-0.2,0.5-0.3,0.8-0.5c0.1-0.1,0.2-0.1,0.3-0.2c0.1,0,0.3-0.1,0.4-0.1c0.3,0,0.6,0,0.9-0.1
				"/>
			<path class="st58" d="M1195,641.3c0.3-0.1,0.5-0.1,0.8-0.1c0.5,0,1.1,0.1,1.6,0.3"/>
			<path class="st58" d="M1195,642.1c0.3,0,0.5,0.1,0.8,0.2c0.1,0,0.2,0.1,0.2,0.1c0.1,0.1,0.2,0.2,0.2,0.2c0.3,0.3,0.7,0.4,0.9,0.7
				"/>
			<path class="st58" d="M1190.5,639.7c0.1,0,0.3,0,0.4,0s0.2,0.1,0.3,0.3c0,0.2-0.1,0.3-0.2,0.4c-0.1,0.1-0.2,0.2-0.3,0.3
				c-0.1,0.1-0.2,0.2-0.4,0.2c-0.1,0-0.2-0.1-0.3-0.2c-0.1-0.2-0.3-0.3-0.4-0.5c-0.1-0.1-0.1-0.2-0.1-0.3c0-0.1,0.2-0.1,0.3-0.1
				C1190,639.7,1190.3,639.7,1190.5,639.7z"/>
			<path class="st58" d="M1191.6,643.2c0-0.1-0.1-0.1-0.1-0.2c-0.2-0.2-0.4-0.3-0.6-0.5c-0.5-0.3-1.2,0.4-1.4,0.8"/>
			<line class="st58" x1="1190.4" y1="640.9" x2="1190.5" y2="642.5"/>
			<path class="st60" d="M1181.7,651.9l34.3,23.6c0,0-26.1,23.3-53.7,1.6C1162.4,677.1,1169.4,660.2,1181.7,651.9z"/>
			<path class="st60" d="M1181.7,651.9c0,0,10.7,3.8,15.7,0.3c0,0,13.5,9.7,18.6,23.4L1181.7,651.9z"/>
			<path class="st61" d="M1189.1,613.5c0,0,0.6,0.7,1.4,0.1"/>
			<g>
				<path class="st62" d="M1189.4,616.9c0,0,0.4,0.3,0.9,0c0,0,0.9,0.5,0.9,0.8c0,0-0.3,0.5-1.3,0.7
					C1189.9,618.3,1188.6,617.7,1189.4,616.9z"/>
				<path class="st62" d="M1190.3,616.9c0,0-0.4,0.2-0.9-0.1c0,0-0.5,0.3-0.5,0.3c-0.2,0.1-0.4,0.1-0.7,0.1c0.2,0.6,1.1,0.9,1.6,1.1
					C1189.9,618.3,1191,617.8,1190.3,616.9z"/>
				<path class="st62" d="M1189.4,616.9c0,0,0.4,0.2,0.9-0.1c0,0,0.5,0.3,0.5,0.3c0.2,0.1,0.4,0.1,0.7,0.1c-0.2,0.6-1.1,0.9-1.6,1.1
					C1189.9,618.3,1188.7,617.8,1189.4,616.9z"/>
			</g>
			<g>
				<path class="st59" d="M1189.9,610.6c0,0,0.5,0.1,1.6-1c0.1-0.2,0.3-0.3,0.5-0.4c0.8-0.5,3.3-1.5,5.7-0.1c0,0,0.3,0.6-1.8,4
					c-0.1,0.2-0.4,0.4-0.6,0.5c-0.9,0.3-3.1,0.7-4.2-0.9c0,0-0.9-1.7-1.3-1.5C1189.8,611.2,1189.1,610.7,1189.9,610.6z"/>
				<path class="st59" d="M1189.7,610.6c0,0-0.5,0.1-1.5-1c-0.1-0.2-0.3-0.3-0.5-0.4c-0.8-0.5-3.3-1.7-5.7-0.3c0,0-0.4,0.6,1.6,4.1
					c0.1,0.2,0.3,0.4,0.6,0.5c0.9,0.3,3,0.8,4.3-0.8c0,0,1-1.7,1.4-1.5C1189.8,611.2,1190.6,610.7,1189.7,610.6z"/>
			</g>
			<path class="st63" d="M1191.4,610.7c0,0,1.4-1.8,5.6-1.3c0,0,0.2,3-2.5,3.8c0,0-2.1,0.6-3.1-1.4
				C1191.3,611.8,1190.9,611.1,1191.4,610.7z"/>
			<path class="st63" d="M1188.3,610.4c0,0-1.4-1.8-5.6-1.3c0,0-0.2,3,2.5,3.8c0,0,2.1,0.6,3.1-1.4
				C1188.3,611.5,1188.7,610.8,1188.3,610.4z"/>
			<line class="st64" x1="1193.2" y1="610" x2="1192.2" y2="611.8"/>
			<line class="st64" x1="1192.6" y1="610.1" x2="1191.5" y2="612"/>
			<line class="st64" x1="1184.2" y1="609.1" x2="1183.2" y2="611"/>
			<line class="st64" x1="1183.7" y1="609.1" x2="1182.9" y2="610.5"/>
			<path class="st37" d="M1193.8,595.7c0.1,0.1,0.2,0.2,0.3,0.4c0.2,0.3,0.3,0.7,0.3,1c0,0.4-0.3,0.7-0.6,0.9s-0.7,0.3-1,0.5
				c-0.6,0.2-1.1,0.4-1.7,0.6c0.8-0.5,1.8-0.6,2.7-0.7c0.7,0,1.4,0,2.1,0.2c0.7,0.2,1.3,0.6,1.6,1.2c0.1,0.2,0.2,0.5,0.2,0.7
				c0,0.2-0.2,0.5-0.4,0.5c-0.1,0-0.3,0-0.4,0c-1.9-0.4-3.7-1.1-5.4-2c0.3-1.1,0.6-2.4,1.5-3.1
				C1193.2,595.7,1193.6,595.5,1193.8,595.7z"/>
			<path class="st54" d="M1173.8,644.2c-0.1,0.5-0.2,1-0.3,1.5c-0.4,2.4-0.9,4.9-1.5,7.3c-1.2,4.8-2.8,9.5-4.4,14.1
				c-0.5,1.5-1,3-1,4.5c0,0.5,0.6,0.9,1,0.6c0.3-0.2,0.7-0.4,0.8-0.7c0.1-0.1,0.1-0.2,0.2-0.3c2-4.5,4.1-8.9,5.6-13.6
				c0.4-1.1,0.7-2.3,1-3.5c0.1-0.6,0.2-1.2,0.4-1.7c0.1-0.5,0.4-1.1,0.5-1.6c0.6-2.2,0.7-4.6,1.3-6.9c0.3-1.2,0.7-2.4,0.7-3.7
				c0-0.1,0-0.1,0-0.2c-0.1-0.1-0.2-0.2-0.3-0.3c-1.3-0.9-2.4-2.1-3.1-3.5c-0.1,0.9-0.2,1.6-0.2,2.5c-0.1,1.2-0.1,2.4-0.2,3.6
				C1174.1,643,1173.9,643.6,1173.8,644.2z"/>
		</g>
		<path class="st65" d="M1182.9,703.2h4.5c0,0,2.3,11-2.2,31.1l-2.1-0.2L1182.9,703.2z"/>
		<path class="st65" d="M1195.2,703.4h-4.6c0,0-2.7,11.6,1.7,31.1l2.1-0.2L1195.2,703.4z"/>
		<path class="st45" d="M1155.8,714.9c3.3,1.7,7.8,2.8,11.4,2.6c3.4-0.2,6.9-1.4,9-4c2.7-3.3,2.6-8.3,0.8-12.2s-5.1-6.9-8.5-9.5
			c-1.6-1.2-3.3-2.4-4.7-4c-1.4-1.5-2.4-3.5-2.4-5.5c0-1.6,0.6-3.1,1.3-4.5c1.1-2.1,2.5-4,4.1-5.7"/>
		<path class="st50" d="M1154.5,727.7c-0.7-0.5-1-1.3-1.2-2.1c-0.4-1.6-0.4-3.2-0.2-4.7c0.3,0.6,0.6,1.2,0.9,1.7
			c0.4,0.8,0.9,1.6,1.5,2.3"/>
		<g>
			<circle class="st28" cx="1190.5" cy="631.5" r="6"/>
			<circle class="st29" cx="1188.9" cy="627.2" r="0.2"/>
			<circle class="st29" cx="1186.8" cy="628.2" r="0.2"/>
			<circle class="st29" cx="1191.1" cy="626.9" r="0.2"/>
			<circle class="st29" cx="1193.1" cy="627.9" r="0.2"/>
			<circle class="st29" cx="1191.9" cy="629.9" r="0.2"/>
			<circle class="st29" cx="1188.5" cy="630.1" r="0.2"/>
			<circle class="st29" cx="1186.2" cy="630.3" r="0.2"/>
			<circle class="st29" cx="1186.4" cy="632.8" r="0.2"/>
			<circle class="st29" cx="1188.7" cy="632.5" r="0.2"/>
			<circle class="st29" cx="1187.6" cy="634.7" r="0.2"/>
			<circle class="st29" cx="1189.5" cy="635.6" r="0.2"/>
			<circle class="st29" cx="1190.5" cy="634.1" r="0.2"/>
			<circle class="st29" cx="1191.7" cy="635.4" r="0.2"/>
			<circle class="st29" cx="1193.6" cy="634.3" r="0.2"/>
			<circle class="st29" cx="1192" cy="632.2" r="0.2"/>
			<circle class="st29" cx="1194.6" cy="632.4" r="0.2"/>
			<circle class="st29" cx="1194.3" cy="629.7" r="0.2"/>
			<path class="st30" d="M1189,630.5c0,0-0.8-0.2-0.8,0.6c0,0,0,0.7,0.8,0.4"/>
			<line class="st30" x1="1188.4" y1="632" x2="1189" y2="632"/>
			<text transform="matrix(1 0 0 1 1186.2363 632.0258)" class="st29 st31" style="font-size:2.4071px;">M  VITIES</text>
			<g>
				<g>
					<path class="st29" d="M1190.4,628.3c0,0,0.1-0.6,1.3-0.8C1191.8,627.5,1191.2,628.5,1190.4,628.3z"/>
					<path class="st29" d="M1189.4,628.2c0,0,0.1-0.6,1.3-0.8C1190.7,627.5,1190.1,628.4,1189.4,628.2z"/>
					<path class="st29" d="M1188.4,628.3c0,0,0.1-0.6,1.3-0.9C1189.6,627.4,1189.1,628.5,1188.4,628.3z"/>
					<path class="st29" d="M1190.4,628.4c0,0,0,0.7,1.2,0.9C1191.6,629.3,1191.2,628.3,1190.4,628.4z"/>
					<path class="st29" d="M1189.4,628.4c0,0,0.1,0.6,1.3,0.8C1190.7,629.2,1190.1,628.2,1189.4,628.4z"/>
					<path class="st29" d="M1188.4,628.4c0,0,0.1,0.6,1.3,0.8C1189.7,629.2,1189.2,628.2,1188.4,628.4z"/>
				</g>
			</g>
			<path class="st29" d="M1191.2,628.4c0,0,0.7-0.6,2.1,0.2C1193.3,628.6,1191.9,629.2,1191.2,628.4z"/>
			<path class="st29" d="M1188.2,628.4c0,0,0.1,0.4-0.6,0.8C1187.6,629.1,1187.7,628.4,1188.2,628.4z"/>
		</g>
		<g>
			<circle class="st28" cx="1166.3" cy="719.7" r="1.9"/>
			<circle class="st29" cx="1165.8" cy="718.4" r="0.1"/>
			<circle class="st29" cx="1165.2" cy="718.7" r="0.1"/>
			<circle class="st29" cx="1166.5" cy="718.3" r="0.1"/>
			<circle class="st29" cx="1167.1" cy="718.6" r="0.1"/>
			<circle class="st29" cx="1166.8" cy="719.2" r="0.1"/>
			<circle class="st29" cx="1165.7" cy="719.3" r="0.1"/>
			<circle class="st29" cx="1165" cy="719.4" r="0.1"/>
			<circle class="st29" cx="1165.1" cy="720.1" r="0.1"/>
			<circle class="st29" cx="1165.8" cy="720" r="0.1"/>
			<circle class="st29" cx="1165.4" cy="720.7" r="0.1"/>
			<circle class="st29" cx="1166" cy="721" r="0.1"/>
			<circle class="st29" cx="1166.3" cy="720.5" r="0.1"/>
			<circle class="st29" cx="1166.7" cy="721" r="0.1"/>
			<circle class="st29" cx="1167.3" cy="720.6" r="0.1"/>
			<circle class="st29" cx="1166.8" cy="720" r="0.1"/>
			<circle class="st29" cx="1167.6" cy="720" r="0.1"/>
			<circle class="st29" cx="1167.5" cy="719.2" r="0.1"/>
			<path class="st67" d="M1165.9,719.4c0,0-0.2-0.1-0.2,0.2c0,0,0,0.2,0.2,0.1"/>
			<line class="st67" x1="1165.7" y1="719.9" x2="1165.9" y2="719.9"/>
			<text transform="matrix(1 0 0 1 1164.9951 719.8939)" class="st29 st31" style="font-size:0.7549px;">M  VITIES</text>
			<g>
				<g>
					<path class="st29" d="M1166.3,718.7c0,0,0-0.2,0.4-0.2C1166.7,718.5,1166.6,718.8,1166.3,718.7z"/>
					<path class="st29" d="M1166,718.7c0,0,0-0.2,0.4-0.2C1166.4,718.5,1166.2,718.8,1166,718.7z"/>
					<path class="st29" d="M1165.7,718.7c0,0,0-0.2,0.4-0.3C1166.1,718.5,1165.9,718.8,1165.7,718.7z"/>
					<path class="st29" d="M1166.3,718.8c0,0,0,0.2,0.4,0.3C1166.7,719,1166.5,718.7,1166.3,718.8z"/>
					<path class="st29" d="M1166,718.7c0,0,0,0.2,0.4,0.3C1166.4,719,1166.2,718.7,1166,718.7z"/>
					<path class="st29" d="M1165.7,718.8c0,0,0,0.2,0.4,0.2C1166.1,719,1165.9,718.7,1165.7,718.8z"/>
				</g>
			</g>
			<path class="st29" d="M1166.6,718.8c0,0,0.2-0.2,0.7,0.1C1167.2,718.8,1166.8,719,1166.6,718.8z"/>
			<path class="st29" d="M1165.6,718.7c0,0,0,0.1-0.2,0.2C1165.4,719,1165.5,718.8,1165.6,718.7z"/>
		</g>
		<path class="st54" d="M1204.1,654.7c-4.7-2.4-7.6-7.4-9.2-12.4c-0.9-2.6-1.5-5.4-3.2-7.6c-0.1-0.2-0.3-0.3-0.5-0.4
			c-0.5-0.2-1,0.1-1.2,0.6c-0.2,0.5-0.1,1-0.1,1.5c0.8,5.4,3.1,10.6,6.6,14.9c1.7,2.1,3.7,4.1,6,5.7c1.3,0.9,4.8,2.1,4.3-4
			c-0.1-1.3,0-2.7,0-4c0-3-0.3-5.9-0.6-8.9c-1,0.5-2,1-3,1.2c0.7,5,0.1,9.9,0.8,15c0.1,0.6,0.2,1.1,0.3,1.7"/>
	</g>
</g>
</svg>
