<svg xmlns="http://www.w3.org/2000/svg" viewBox="-104.9 1 792 612" enable-background="new -104.9 1 792 612"><style type="text/css">.st0{fill:#6FC6C0;} .st1{fill:#383838;} .st2{fill:#181808;} .st3{fill:#181808;stroke:#262626;stroke-miterlimit:10;} .st4{fill:url(#SVGID_1_);} .st5{opacity:0.72;} .st6{fill:#2D2D2D;} .st7{opacity:0.47;} .st8{opacity:0.3;} .st9{opacity:0.71;} .st10{fill:#D3BF98;} .st11{opacity:0.56;} .st12{opacity:0.95;} .st13{opacity:0.87;} .st14{opacity:0.65;} .st15{opacity:0.49;} .st16{opacity:0.37;} .st17{opacity:0.26;} .st18{fill:url(#SVGID_2_);} .st19{opacity:0.27;} .st20{opacity:0.12;} .st21{opacity:0.54;} .st22{fill:none;} .st23{opacity:0.55;fill:#181808;enable-background:new ;} .st24{fill:url(#SVGID_3_);} .st25{fill:none;stroke:#181808;stroke-width:0.5;stroke-miterlimit:10;} .st26{fill:#E2DDC3;stroke:#C1BCA7;stroke-miterlimit:10;} .st27{fill:url(#SVGID_4_);}</style><path class="st0" d="M-104.9 1h792v612h-792z" id="bg"/><g id="Layer_2"><path class="st1" d="M192.2 50.2s27.8 45.7 74.6 53.3c1.1.2 2.1.2 3.2.3 11.5 1.6 105.3 7 121.1-63.9 0 0-15.5 36.2-96.6 35.3 0 0-80.3-1.6-102.3-25z"/><path class="st2" d="M404.1 34.3s13.8-.3 20.1 6c.4.4 1.1.9 1.7 1.1 5.7 2.4 30.8 13.9 40.8 21 2.4 1.7 3.3 4.7 1.3 6.8-6.9 6.8-22.4 22.1-24.9 26.6 0 0-13.6 22.6-16.2 30-.4 1.4-1 2.7-1.6 4-3.8 8.7-14.9 38.8-5.5 74.6.6 2.3 1.1 4.5 1.4 6.8 1.7 10.6 5.7 39.1 4.3 59.1-.3 4.6-.3 9.2.2 13.8 2.7 26.5 10.9 111.7 10.1 131.5-.1 1.7 0 3.3.1 5 1.7 20.5 10.7 137.5 1 148.1-9.9 11.6-20.3 1.8-26.9-3.8-2.4-2-4.3-4.5-5.5-7.4-4.2-10.6-13-5-13-5-11.9 9.7-21.5 12.1-28 12.2-4.3 0-8.5-1.3-11.8-4-11.6-9-32.3-7-32.3-7-10.2.5-22.6-.8-32.6-2.1-8-1.2-16-3-23.6-5.9-27.4-10.5-46.2 11.2-46.2 11.2-10.9 12.8-38.2 12.2-48.4 11.5-3.3-.2-6.2-2.4-7.3-5.6-8.4-24.5-4.2-124.4-3.3-142.9.1-1.7 0-3.3-.1-5-2-21.8 2.9-122.8 3.6-137.9.1-1.2 0-2.3-.2-3.4-3.4-19.7-.6-51.5.6-63.3.2-2.5.6-4.9 1.2-7.4 7.5-36.1-5-65.6-9.3-73.9-.6-1.3-1.2-2.6-1.8-4-3-7.3-17.7-29.2-17.7-29.2-3.5-5.7-28.1-27.4-28.1-27.4 1.1-5.6 35.6-24.6 42.4-27.8.6-.3 1.2-.6 1.6-1.2 5.9-6.7 22-7.2 22-7.2s23.9 59.9 78 80.4c15.9 6 33.2 7.6 50.1 5.2 29.8-4.3 87.8-20.8 103.8-83.5z"/><path class="st3" d="M105.7 262.3l4.2 88s-1 48.2 1.2 57.7c.2 1 .4 1.9.4 3 .9 14.7 7 111.9 9.5 120.5.1.3.3.6.8.8 2.9.9 19.3 5.1 35.8-4.5.6-.4 1.1-1.2 1.1-1.9l-5.2-67.1c-.1-1.1-.1-2.3 0-3.3l4.1-60.3 5.8-120.1c0-.6-.4-1.1-1.1-1.1-5.4 0-29-.3-44.8-4.2 0 0-1.2-1.2-1.7-7.6-.2-.1-9.6 2.2-10.1.1z"/><linearGradient id="SVGID_1_" gradientUnits="userSpaceOnUse" x1="57.915" y1="506.479" x2="187.296" y2="362.787" gradientTransform="matrix(1 .01 .01 -1 -3.135 613.592)"><stop offset=".099" stop-color="#FFF9D2"/><stop offset="1" stop-color="#D3BF98"/></linearGradient><path class="st4" d="M106.5 66.3s-11.3 20.5-10.6 35.9c0 .9.1 1.7.2 2.6.8 6 4 32 3.9 40.8 0 1.3 0 2.7.1 4l5.6 112.7c0 .6.5 1.2 1.2 1.2 1.9.1 5.8.1 8.3-.8.2-.1.4.1.5.3 0 1 .1 2.9.1 4.3 0 1 .6 1.9 1.6 2.3 4 1.5 16.3 4.9 45.5 4.8.3 0 .5-.2.5-.5-.4-6-3.8-57.1 2.1-74.7 0-.1 23.9-77.4-59-132.9z"/><path class="st6" d="M115.9 268.3s.5 4.1 1.4 11.4c.9 7.2 2.1 17.6 3.6 29.9 1.4 12.4 3.2 26.8 4.9 42.4 1.7 15.5 3.6 32.1 5.5 48.6 3.6 33 7.3 66.2 10.1 91 1.4 12.4 2.6 22.7 3.5 29.9.5 3.6.9 6.4 1.2 8.4.2 1 .3 1.7.4 2.1.1.5.3.8.2.8 0 0-.1-.2-.3-.8-.1-.4-.3-1.2-.5-2.1-.4-1.9-1-4.7-1.5-8.4-1.2-7.2-2.7-17.5-4.3-29.8-1.6-12.3-3.5-26.8-5.4-42.3-1.8-15.5-3.8-32.1-5.7-48.6-1.8-16.5-3.5-33-5.3-48.6-1.6-15.6-3-30-4.3-42.4-1.3-12.4-2.1-22.7-2.8-30-.3-7.4-.7-11.5-.7-11.5zM113.7 268.3s.5 4.1 1.4 11.4c.9 7.2 2.1 17.6 3.6 29.9 1.4 12.4 3.2 26.8 4.9 42.4 1.7 15.5 3.6 32.1 5.5 48.6 3.6 33 7.3 66.2 10.1 91 1.4 12.4 2.6 22.7 3.5 29.9.5 3.6.9 6.4 1.2 8.4.2 1 .3 1.7.4 2.1.1.5.3.8.2.8 0 0-.1-.2-.3-.8-.1-.4-.3-1.2-.5-2.1-.4-1.9-1-4.7-1.5-8.4-1.2-7.2-2.7-17.5-4.3-29.8-1.6-12.3-3.5-26.8-5.4-42.3-1.8-15.5-3.8-32.1-5.7-48.6-1.8-16.5-3.5-33-5.3-48.6-1.6-15.6-3-30-4.3-42.4-1.3-12.4-2.1-22.7-2.8-30-.4-7.3-.7-11.5-.7-11.5zM111.4 268.4s.5 4.1 1.4 11.4c.9 7.2 2.1 17.6 3.6 29.9 1.4 12.4 3.2 26.8 4.9 42.4 1.7 15.5 3.6 32.1 5.5 48.6 3.6 33 7.3 66.2 10.1 91 1.4 12.4 2.6 22.7 3.5 29.9.5 3.6.9 6.4 1.2 8.4.2 1 .3 1.7.4 2.1.1.5.3.8.2.8 0 0-.1-.2-.3-.8-.1-.4-.3-1.2-.5-2.1-.4-1.9-1-4.7-1.5-8.4-1.2-7.2-2.7-17.5-4.3-29.8s-3.5-26.8-5.4-42.3c-1.8-15.5-3.8-32.1-5.7-48.6-1.8-16.5-3.5-33-5.3-48.6-1.6-15.6-3-30-4.3-42.4-1.3-12.4-2.1-22.7-2.8-30-.3-7.3-.7-11.5-.7-11.5zM109.3 268.4s.5 4.1 1.4 11.4c.9 7.2 2.1 17.6 3.6 29.9 1.4 12.4 3.2 26.8 4.9 42.4 1.7 15.5 3.6 32.1 5.5 48.6 3.6 33 7.3 66.2 10.1 91 1.4 12.4 2.6 22.7 3.5 29.9.5 3.6.9 6.4 1.2 8.4.2 1 .3 1.7.4 2.1.1.5.3.8.2.8 0 0-.1-.2-.3-.8-.1-.4-.3-1.2-.5-2.1-.4-1.9-1-4.7-1.5-8.4-1.2-7.2-2.7-17.5-4.3-29.8s-3.5-26.8-5.4-42.3c-1.8-15.5-3.8-32.1-5.7-48.6-1.8-16.5-3.5-33-5.3-48.6-1.6-15.6-3-30-4.3-42.4-1.3-12.4-2.1-22.7-2.8-30-.4-7.3-.7-11.5-.7-11.5zM106.9 268.5s.5 4.1 1.4 11.4c.9 7.2 2.1 17.6 3.6 29.9 1.4 12.4 3.2 26.8 4.9 42.4 1.7 15.5 3.6 32.1 5.5 48.6 3.6 33 7.3 66.2 10.1 91 1.4 12.4 2.6 22.7 3.5 29.9.5 3.6.9 6.4 1.2 8.4.2 1 .3 1.7.4 2.1.1.5.3.8.2.8 0 0-.1-.2-.3-.8-.1-.4-.3-1.2-.5-2.1-.4-1.9-1-4.7-1.5-8.4-1.2-7.2-2.7-17.5-4.3-29.8s-3.5-26.8-5.4-42.3c-1.8-15.5-3.8-32.1-5.7-48.6-1.8-16.5-3.5-33-5.3-48.6-1.6-15.6-3-30-4.3-42.4-1.3-12.4-2.1-22.7-2.8-30-.3-7.3-.7-11.5-.7-11.5z"/><path class="st3" d="M122.2 531.8c-.8-.1-1.5.1-1.7.9-.2 1-.4 2.6 0 4.6l3.3 25.4c.2 1.7 1.4 3.2 3 4h.1c1.5.6 3.2 1 4.9 1 3.4 0 11.2.1 15.2.9 1.5.2 2.7 1.5 2.9 3.1l1 8.7c.3 2.6 3.4 3.8 5.3 1.9l.3-.3c.6-.9 1-2 1-3.1v-.3l1.4.2c1.9.2 3.8-1.1 4.2-3 .1-.6.2-1.5.2-2.6 0-.3-1-8.9-1-8.9l-3.4-36.5c0-.3 0-2.6-.3-2.4-3.2 2.1-17.4 9.2-36.4 6.4z"/><path class="st6" d="M147.6 533.9s0 .5.1 1.5.2 2.4.3 4.1.2 3.6.3 5.8c.1 2.1.2 4.4.3 6.7.2 4.5.3 9 .5 12.4.1 1.7.1 3.1.2 4.1.1.5.1.9.2 1.1 0 .2.2.3.1.3 0 0-.1-.1-.2-.3-.1-.2-.2-.6-.3-1.1-.2-1-.4-2.4-.6-4.1-.2-1.7-.4-3.6-.5-5.8-.2-2.1-.3-4.4-.4-6.7-.1-2.3-.2-4.5-.2-6.7v-5.8s.1-3.1.1-4.1c.1-.9.1-1.4.1-1.4zM144.6 533.7s0 .5.1 1.5.2 2.4.3 4.1.2 3.6.3 5.8c.1 2.1.2 4.4.3 6.7.2 4.5.3 9 .5 12.4.1 1.7.1 3.1.2 4.1.1.5.1.9.2 1.1 0 .2.2.3.1.3 0 0-.1-.1-.2-.3-.1-.2-.2-.6-.3-1.1-.2-1-.4-2.4-.6-4.1-.2-1.7-.4-3.6-.5-5.8-.2-2.1-.3-4.4-.4-6.7-.1-2.3-.2-4.5-.2-6.7v-5.8s.1-3.1.1-4.1c.1-.9.1-1.4.1-1.4zM142.6 533.3s0 .5.1 1.5.2 2.4.3 4.1.2 3.6.3 5.8c.1 2.1.2 4.4.3 6.7.2 4.5.3 9 .5 12.4.1 1.7.1 3.1.2 4.1.1.5.1.9.2 1.1 0 .2.2.3.1.3 0 0-.1-.1-.2-.3-.1-.2-.2-.6-.3-1.1-.2-1-.4-2.4-.6-4.1-.2-1.7-.4-3.6-.5-5.8-.2-2.1-.3-4.4-.4-6.7-.1-2.3-.2-4.5-.2-6.7v-5.8c0-1.7.1-3.1.1-4.1.1-.7.1-1.4.1-1.4zM140.2 533.1s0 .5.1 1.5.2 2.4.3 4.1.2 3.6.3 5.8c.1 2.1.2 4.4.3 6.7.2 4.5.3 9 .5 12.4.1 1.7.1 3.1.2 4.1.1.5.1.9.2 1.1 0 .2.2.3.1.3 0 0-.1-.1-.2-.3-.1-.2-.2-.6-.3-1.1-.2-1-.4-2.4-.6-4.1s-.4-3.6-.5-5.8c-.2-2.1-.3-4.4-.4-6.7-.1-2.3-.2-4.5-.2-6.7v-5.8c0-1.7.1-3.1.1-4.1.1-.7.1-1.4.1-1.4zM137.9 532.9s0 .5.1 1.5.2 2.4.3 4.1.2 3.6.3 5.8.2 4.4.3 6.7c.2 4.5.3 9 .5 12.4.1 1.7.1 3.1.2 4.1.1.5.1.9.2 1.1 0 .2.2.3.1.3 0 0-.1-.1-.2-.3-.1-.2-.2-.6-.3-1.1-.2-1-.4-2.4-.6-4.1-.2-1.7-.4-3.6-.5-5.8-.2-2.1-.3-4.4-.4-6.7-.1-2.3-.2-4.5-.2-6.7v-5.8c0-1.7.1-3.1.1-4.1.1-.9.1-1.4.1-1.4z"/><path class="st10" d="M148.9 203.7v3.1c0 2 0 4.9.1 8.4 0 3.4.2 7.5.3 11.8.1 4.3.3 8.9.8 13.4.3 4.6.8 9.1 1.4 13.4.6 4.3 1.4 8.2 2.4 11.5 1 3.2 2.3 5.9 3.5 7.4.6.8 1.3 1.3 1.7 1.5.4.2.8.3.8.3s-.3-.1-.8-.3c-.5-.2-1.2-.6-1.9-1.4-1.4-1.5-2.9-4.1-4-7.3-1.1-3.3-2-7.2-2.7-11.5-.6-4.3-1.2-8.9-1.5-13.4-.3-4.6-.5-9.2-.5-13.5-.1-4.3 0-8.4 0-11.8.1-3.4.2-6.3.3-8.4-.1-2.1.1-3.2.1-3.2zM151 207.2v3c0 1.9 0 4.6.1 7.9 0 3.3.1 7.1.3 11.3.1 4.1.3 8.5.8 12.9.3 4.4.8 8.7 1.4 12.8.6 4.1 1.4 7.8 2.4 10.9 1 3.1 2.3 5.6 3.5 7 .6.6 1.3 1.2 1.7 1.4.4.2.8.3.8.3s-.2-.1-.8-.3c-.4-.2-1.2-.6-1.8-1.3-1.4-1.3-2.9-3.8-4-6.9-1.1-3.1-2-6.9-2.7-10.9-.6-4.1-1.2-8.5-1.5-12.9-.3-4.4-.4-8.8-.5-12.9-.1-4.1 0-7.9 0-11.3.1-3.3.2-6 .3-7.9v-3.1zM152.9 215.1v2.7s0 4.2.1 7.1c0 2.9.1 6.3.2 10 .1 3.6.3 7.5.6 11.4s.8 7.7 1.4 11.3c.6 3.5 1.4 6.9 2.5 9.5.5 1.4 1.1 2.6 1.7 3.5.6 1 1.3 1.8 1.9 2.4.6.5 1.2.9 1.6 1.1.4.2.6.2.6.2s-.2-.1-.6-.2c-.4-.2-1.1-.4-1.7-1-1.4-1.1-2.9-3.1-4-5.9-1.2-2.7-2.1-6-2.8-9.7-.6-3.6-1.2-7.5-1.5-11.4-.3-3.9-.4-7.8-.5-11.5s0-7.1.1-10c.1-2.9.2-5.4.3-7.1 0-1.4.1-2.4.1-2.4zM115.2 262.7s-.6-12.2-1.6-30.5c-.4-9.1-1-19.8-1.5-31.2-.5-11.5-1.1-23.6-1.7-35.8-.5-12.2-1.1-24.4-1.5-35.8-.4-11.5-.9-22.1-1.2-31.2-.6-18.3-1.1-30.5-1.1-30.5s.6 12.2 1.6 30.5c.4 9.1 1 19.8 1.5 31.2.5 11.5 1.1 23.6 1.6 35.8s1.1 24.4 1.5 35.8c.4 11.5.9 22.1 1.2 31.2.7 18.3 1.2 30.5 1.2 30.5zM113.1 262.7s-.6-12-1.6-29.9c-.4-9-1-19.4-1.5-30.7s-1.1-23.2-1.6-35.2-1-23.9-1.5-35.2c-.4-11.3-.9-21.7-1.2-30.7-.6-17.9-1.1-29.9-1.1-29.9s.6 12 1.6 29.9c.4 9 1 19.4 1.5 30.7s1.1 23.2 1.6 35.2 1 23.9 1.5 35.2c.4 11.3.9 21.7 1.2 30.7.7 17.9 1.1 29.9 1.1 29.9zM110.9 262.9s-.6-11.7-1.6-29.3c-.4-8.8-1-19-1.5-30-.5-10.9-1.1-22.6-1.6-34.3s-1-23.4-1.5-34.4c-.4-10.9-.9-21.2-1.2-30-.6-17.6-1-29.3-1-29.3s.6 11.7 1.6 29.3c.4 8.8 1 19 1.5 30 .5 10.9 1.1 22.6 1.6 34.3s1 23.4 1.5 34.4c.4 10.9.9 21.2 1.2 30 .7 17.4 1 29.3 1 29.3zM109.1 262.9s-.6-11.5-1.6-28.6c-.4-8.6-1-18.7-1.5-29.4s-1.1-22.2-1.6-33.7c-.5-11.5-1-23-1.4-33.7-.4-10.7-.9-20.8-1.2-29.4-.5-17.2-1-28.6-1-28.6s.6 11.5 1.6 28.6c.4 8.6 1 18.7 1.5 29.4s1.1 22.2 1.6 33.7c.5 11.5 1 23 1.4 33.7.4 10.7.9 20.8 1.2 29.4.6 17.1 1 28.6 1 28.6zM107.3 262.9s-.6-11.3-1.5-28.1c-.4-8.5-1-18.2-1.4-28.9-.5-10.5-1-21.8-1.5-33-.4-11.3-1-22.5-1.4-33-.4-10.5-.8-20.4-1.1-28.9-.5-16.8-1-28.1-1-28.1s.6 11.3 1.5 28.1c.4 8.5 1 18.2 1.4 28.9.5 10.5 1 21.8 1.5 33 .4 11.3 1 22.5 1.4 33 .4 10.5.8 20.4 1.1 28.9.7 16.8 1 28.1 1 28.1zM105.8 262.9s-.6-10.9-1.5-27.5c-.4-8.3-.9-17.9-1.4-28.2-.4-10.3-1-21.4-1.5-32.3-.4-11.1-1-22-1.4-32.3-.4-10.3-.8-20-1.1-28.2-.5-16.5-1-27.5-1-27.5s.6 10.9 1.5 27.5c.4 8.3.9 17.9 1.4 28.2.4 10.3 1 21.4 1.5 32.3.4 11.1 1 22 1.4 32.3.4 10.3.8 20 1.1 28.2.7 16.5 1 27.5 1 27.5zM166.3 194.1l-.4-4.3h.2zM165.5 185.5l-.7-4.2.5-.1.5 4.3zM164.2 177l-.8-4.2.7-.1.6 4.2zM162.6 168.6l-1-4.1.8-.3.8 4.2zM160.7 160.3l-1.1-4.2.8-.2 1.1 4.2zM158.4 152l-1.3-4.1 1-.3 1.2 4.2zM155.8 143.9l-1.3-4.1 1-.3 1.3 4zM153 135.7l-1.5-4 1.1-.3 1.5 4zM150 127.8l-1.6-4 .9-.4 1.7 3.9zM146.7 119.8l-1.8-3.8.8-.5 1.9 4zM143.1 112.1l-1.9-3.9.8-.3 1.9 3.8zM139.2 104.5l-1.9-3.9.5-.3 2.2 3.8zM135.1 97l-2.1-3.8.4-.3 2.3 3.8zM130.8 89.6l-2.2-3.7.1-.2 2.5 3.7zM126.2 82.3l-1.1-1.7 1.2 1.7z"/><path class="st3" d="M480.1 261l.3 88.1s3.4 48.1 1.8 57.7c-.2 1-.3 1.9-.3 3-.1 14.7-1.3 112.1-3.3 120.8-.1.3-.3.6-.6.8-2.8 1-19 6.1-36.1-2.7-.8-.3-1.2-1.1-1.1-1.9l1.7-67.2c0-1.1 0-2.3-.1-3.3l-7.1-60.1-11.9-119.6c-.1-.6.4-1.2 1-1.2 5.4-.3 28.9-1.7 44.6-6.5 0 0 1.2-1.3 1.4-7.6-.3-.1 9.3 1.8 9.7-.3z"/><linearGradient id="SVGID_2_" gradientUnits="userSpaceOnUse" x1="403.027" y1="480.165" x2="510.541" y2="396.166" gradientTransform="matrix(1 .01 .01 -1 -3.135 613.592)"><stop offset=".099" stop-color="#FFF9D2"/><stop offset="1" stop-color="#D3BF98"/></linearGradient><path class="st18" d="M469 65.3s12.4 19.8 12.7 35.4c0 .9 0 1.7-.1 2.6-.4 6-2.4 32.2-1.8 40.9.1 1.3.1 2.7.1 4l.2 112.8c0 .6-.4 1.2-1.1 1.2-1.9.2-5.8.4-8.3-.3-.2-.1-.4.1-.4.3 0 1 .1 2.9.1 4.3 0 1-.5 1.9-1.5 2.4-3.9 1.7-16 5.8-45.2 7.1-.3 0-.5-.2-.5-.5.1-6 .8-57.2-6-74.5-.1.1-28.2-76.1 51.8-135.7z"/><path class="st6" d="M470.1 267.6s-.1 4.2-.4 11.5c-.3 7.3-.6 17.7-1.3 30.1-.6 12.4-1.3 27-2.1 42.6-.9 15.6-1.8 32.2-2.7 48.8-1.1 16.6-2.1 33.3-3.1 48.8-1.1 15.6-2.3 30-3.2 42.5-1 12.4-2 22.7-2.8 30-.4 3.6-.8 6.4-1.1 8.4-.1 1-.3 1.7-.4 2.1-.1.5-.3.8-.2.8 0 0 .1-.2.2-.8.1-.5.2-1.2.3-2.1.2-1.9.5-4.8.8-8.4.6-7.3 1.2-17.6 2-30 1.5-24.9 3.4-58.2 5.4-91.3 1.1-16.6 2-33.3 3-48.8 1-15.6 1.9-30.1 2.8-42.6.9-12.4 1.6-22.9 2-30 .5-7.6.8-11.6.8-11.6zM472.4 267.5s-.1 4.2-.4 11.5c-.3 7.3-.6 17.7-1.3 30.1-.6 12.4-1.3 27-2.1 42.6-.9 15.6-1.8 32.2-2.7 48.8-1.1 16.6-2.1 33.3-3.1 48.8-1.1 15.6-2.3 30-3.2 42.5-1 12.4-2 22.7-2.8 30-.4 3.6-.8 6.4-1.1 8.4-.1 1-.3 1.7-.4 2.1-.1.5-.3.8-.2.8 0 0 .1-.2.2-.8.1-.5.2-1.2.3-2.1.2-1.9.5-4.8.8-8.4.6-7.3 1.2-17.6 2-30 1.5-24.9 3.4-58.2 5.4-91.3 1.1-16.6 2-33.3 3-48.8 1-15.6 1.9-30.1 2.8-42.6.9-12.4 1.6-22.9 2-30 .5-7.5.8-11.6.8-11.6zM474.6 267.4s-.1 4.2-.4 11.5-.6 17.7-1.3 30.1c-.6 12.4-1.3 27-2.1 42.6-.9 15.6-1.8 32.2-2.7 48.8-1.1 16.6-2.1 33.3-3.1 48.8-1.1 15.6-2.3 30-3.2 42.5-1 12.4-2 22.7-2.8 30-.4 3.6-.8 6.4-1.1 8.4-.1 1-.3 1.7-.4 2.1-.1.5-.3.8-.2.8 0 0 .1-.2.2-.8.1-.5.2-1.2.3-2.1.2-1.9.5-4.8.8-8.4.6-7.3 1.2-17.6 2-30 1.5-24.9 3.4-58.2 5.4-91.3 1.1-16.6 2-33.3 3-48.8 1-15.6 1.9-30.1 2.8-42.6.9-12.4 1.6-22.9 2-30 .6-7.5.8-11.6.8-11.6zM476.8 267.4s-.1 4.2-.4 11.5-.6 17.7-1.3 30.1c-.6 12.4-1.3 27-2.1 42.6-.9 15.6-1.8 32.2-2.7 48.8-1.1 16.6-2.1 33.3-3.1 48.8-1.1 15.6-2.3 30-3.2 42.5-1 12.4-2 22.7-2.8 30-.4 3.6-.8 6.4-1.1 8.4-.1 1-.3 1.7-.4 2.1-.1.5-.3.8-.2.8 0 0 .1-.2.2-.8.1-.5.2-1.2.3-2.1.2-1.9.5-4.8.8-8.4.6-7.3 1.2-17.6 2-30 1.5-24.9 3.4-58.2 5.4-91.3 1.1-16.6 2-33.3 3-48.8 1-15.6 1.9-30.1 2.8-42.6.9-12.4 1.6-22.9 2-30 .5-7.5.8-11.6.8-11.6zM479.1 267.2s-.1 4.2-.4 11.5c-.3 7.3-.6 17.7-1.3 30.1s-1.3 27-2.1 42.6c-.9 15.6-1.8 32.2-2.7 48.8-1.1 16.6-2.1 33.3-3.1 48.8-1.1 15.6-2.3 30-3.2 42.5-1 12.4-2 22.7-2.8 30-.4 3.6-.8 6.4-1.1 8.4-.1 1-.3 1.7-.4 2.1-.1.5-.3.8-.2.8 0 0 .1-.2.2-.8.1-.5.2-1.2.3-2.1.2-1.9.5-4.8.8-8.4.6-7.3 1.2-17.6 2-30 1.5-24.9 3.4-58.2 5.4-91.3 1.1-16.6 2-33.3 3-48.8 1-15.6 1.9-30.1 2.8-42.6.9-12.4 1.6-22.9 2-30 .5-7.4.8-11.6.8-11.6z"/><path class="st3" d="M477.3 531.1c.8-.1 1.5.1 1.7.9.3 1 .5 2.5.2 4.6l-2 25.5c-.1 1.7-1.2 3.3-2.8 4.1h-.1c-1.5.8-3.2 1.2-4.8 1.3-3.4.2-11.2.8-15.1 1.6-1.5.3-2.7 1.6-2.7 3.2l-.5 8.8c-.1 2.6-3.2 4-5.2 2.1l-.3-.3c-.8-.9-1.1-1.9-1.1-3.1v-.3l-1.4.2c-1.9.3-3.9-.9-4.4-2.8-.2-.6-.3-1.5-.3-2.6 0-.3.5-8.9.5-8.9l1.5-36.6c0-.3-.1-2.6.2-2.4 3.2 2 17.8 8.4 36.6 4.7z"/><path class="st6" d="M452.1 534.3s0 .5.1 1.5.2 2.4.3 4.1c.1 1.7.2 3.6.2 5.8.1 2.1.1 4.4.1 6.7s0 4.5-.1 6.7c0 2.1-.2 4.1-.3 5.8-.1 1.7-.3 3.1-.4 4.1-.1.5-.2.9-.3 1.1-.1.2-.2.3-.2.3s.1-.1.1-.3c.1-.2.1-.6.1-1.2.1-1 0-2.4 0-4.1 0-3.4-.1-7.9-.1-12.4v-6.7c0-2.1 0-4.1.1-5.8 0-1.7.1-3.1.1-4.1.3-1 .3-1.5.3-1.5zM455.2 534s0 .5.1 1.5.2 2.4.3 4.1c.1 1.7.2 3.6.2 5.8.1 2.1.1 4.4.1 6.7s0 4.5-.1 6.7c0 2.1-.2 4.1-.3 5.8-.1 1.7-.3 3.1-.4 4.1-.1.5-.2.9-.3 1.1-.1.2-.2.3-.2.3s.1-.1.1-.3c.1-.2.1-.6.1-1.2.1-1 0-2.4 0-4.1 0-3.4-.1-7.9-.1-12.4v-6.7c0-2.1 0-4.1.1-5.8 0-1.7.1-3.1.1-4.1l.3-1.5zM457 533.7s0 .5.1 1.5.2 2.4.3 4.1c.1 1.7.2 3.6.2 5.8.1 2.1.1 4.4.1 6.7s0 4.5-.1 6.7c0 2.1-.2 4.1-.3 5.8-.1 1.7-.3 3.1-.4 4.1-.1.5-.2.9-.3 1.1-.1.2-.2.3-.2.3s.1-.1.1-.3c.1-.2.1-.6.1-1.2.1-1 0-2.4 0-4.1 0-3.4-.1-7.9-.1-12.4v-6.7c0-2.1 0-4.1.1-5.8 0-1.7.1-3.1.1-4.1.3-1 .3-1.5.3-1.5zM459.5 533.2s0 .5.1 1.5.2 2.4.3 4.1c.1 1.7.2 3.6.2 5.8.1 2.1.1 4.4.1 6.7s0 4.5-.1 6.7c0 2.1-.2 4.1-.3 5.8-.1 1.7-.3 3.1-.4 4.1-.1.5-.2.9-.3 1.1-.1.2-.2.3-.2.3s.1-.1.1-.3c.1-.2.1-.6.1-1.2.1-1 0-2.4 0-4.1 0-3.4-.1-7.9-.1-12.4v-6.7s0-4.1.1-5.8c0-1.7.1-3.1.1-4.1.3-.8.3-1.5.3-1.5zM461.7 532.9s0 .5.1 1.5.2 2.4.3 4.1c.1 1.7.2 3.6.2 5.8.1 2.1.1 4.4.1 6.7s0 4.5-.1 6.7c0 2.1-.2 4.1-.3 5.8-.1 1.7-.3 3.1-.4 4.1-.1.5-.2.9-.3 1.1-.1.2-.2.3-.2.3s.1-.1.1-.3c.1-.2.1-.6.1-1.2.1-1 0-2.4 0-4.1 0-3.4-.1-7.9-.1-12.4v-6.7c0-2.1 0-4.1.1-5.8 0-1.7.1-3.1.1-4.1.3-1 .3-1.5.3-1.5z"/><path class="st10" d="M433.9 204.7s.1 1.2.3 3.1c.2 2 .5 4.8.8 8.3s.5 7.5.6 11.8c.1 4.3.2 8.9.1 13.5s-.4 9.2-.9 13.5c-.4 4.3-1.2 8.3-2.1 11.6-1 3.3-2.3 6-3.6 7.5-.6.8-1.3 1.3-1.8 1.5-.4.2-.8.3-.8.3l.8-.4c.4-.3 1.1-.8 1.7-1.6 1.3-1.6 2.4-4.3 3.2-7.5.9-3.3 1.4-7.3 1.8-11.6.4-4.3.6-8.9.6-13.4.1-4.6.1-9.2 0-13.5-.1-4.3-.1-8.4-.3-11.8-.1-3.4-.2-6.3-.3-8.4 0-1.7-.1-2.9-.1-2.9zM431.9 208.2s.1 1.1.3 3c.2 1.9.5 4.6.8 7.9.2 3.3.5 7.1.6 11.3.1 4.1.2 8.5.1 12.9s-.4 8.8-.9 12.9c-.4 4.1-1.2 7.9-2.1 11.1-1 3.2-2.3 5.7-3.6 7.1-.6.8-1.3 1.2-1.8 1.4-.4.2-.8.3-.8.3s.2-.1.8-.3c.4-.2 1.1-.8 1.6-1.5 1.3-1.4 2.4-4 3.2-7.1.9-3.1 1.4-7 1.8-11.1.4-4.1.6-8.5.8-12.8.1-4.4.1-8.8.1-12.9-.1-4.1-.1-7.9-.3-11.3-.1-3.3-.2-6-.3-7.9-.2-1.9-.3-3-.3-3zM430.4 216.3s.1 1 .3 2.7c.2 1.7.4 4.1.8 7.1.2 2.9.4 6.3.5 10 .1 3.6.1 7.6 0 11.5-.1 3.9-.4 7.8-1 11.5-.5 3.6-1.3 7-2.3 9.8-1 2.8-2.4 4.9-3.6 6-.6.5-1.3.9-1.7 1.1-.4.1-.6.2-.6.2l.6-.3c.4-.2 1-.5 1.6-1.2.6-.6 1.2-1.4 1.7-2.5s1.1-2.3 1.5-3.6c.9-2.8 1.5-6.1 1.9-9.7.4-3.6.6-7.5.8-11.4.1-3.9.2-7.7.1-11.4-.1-3.6-.1-7.1-.2-10-.1-2.9-.2-5.4-.3-7.1 0-1.7-.1-2.7-.1-2.7zM470.6 261.9l-.5-30.5c-.1-9.1-.2-19.8-.3-31.2-.1-11.5-.2-23.6-.3-35.8-.1-12.2-.1-24.4-.2-35.8v-31.2c.1-18.3.1-30.5.1-30.5l.5 30.5c.1 9.1.2 19.8.3 31.2.1 11.5.2 23.6.3 35.8s.1 24.4.2 35.8v31.2c-.1 18.3-.1 30.5-.1 30.5zM472.7 261.8s-.2-12-.5-29.9c-.1-9-.2-19.4-.3-30.7-.1-11.3-.2-23.2-.3-35.2-.1-12-.1-23.9-.2-35.2v-30.7c.1-18 .1-29.9.1-29.9s.2 12 .5 29.9c.1 9 .2 19.4.3 30.7.1 11.3.2 23.2.3 35.2.1 12 .1 23.9.2 35.2v30.7c-.1 18-.1 29.9-.1 29.9zM474.8 261.8s-.2-11.7-.5-29.3c-.1-8.8-.2-19-.3-30-.1-10.9-.2-22.7-.3-34.4-.1-11.7-.1-23.4-.2-34.4v-30c.1-17.6.1-29.3.1-29.3s.2 11.7.5 29.3c.1 8.8.2 19 .3 30 .1 10.9.2 22.7.3 34.4.1 11.7.1 23.4.2 34.4v30c0 17.6-.1 29.3-.1 29.3zM476.7 261.7s-.2-11.5-.5-28.6c-.1-8.6-.2-18.7-.3-29.4-.1-10.7-.2-22.2-.3-33.7-.1-11.5-.1-23-.2-33.7v-29.4c.1-17.2.1-28.6.1-28.6s.2 11.5.5 28.6c.1 8.6.2 18.7.3 29.4.1 10.7.2 22.2.3 33.7.1 11.5.1 23 .1 33.7v58zM478.5 261.7s-.2-11.3-.5-28.1c-.1-8.5-.2-18.3-.3-28.9-.1-10.5-.2-21.8-.3-33 0-11.3-.1-22.5-.1-33v-28.9c.1-16.8.1-28.1.1-28.1s.2 11.3.5 28.1c.1 8.5.2 18.3.3 28.9.1 10.5.2 21.8.3 33 0 11.3.1 22.5.1 33v28.9c-.1 16.8-.1 28.1-.1 28.1zM480 261.6s-.2-11.1-.5-27.5c-.1-8.3-.2-17.9-.3-28.2s-.2-21.4-.3-32.3c0-11.1-.1-22-.1-32.3v-28.2c.1-16.5.1-27.6.1-27.6s.2 11.1.5 27.5c.1 8.3.2 17.9.3 28.2.1 10.3.2 21.4.3 32.3 0 11.1.1 22 .1 32.3v28.2c-.1 16.5-.1 27.6-.1 27.6zM416 195.9v-4.3h.1zM416.1 187.3l.2-4.3.5.1-.4 4.2zM416.8 178.7l.4-4.2h.6l-.5 4.3zM417.7 170.3l.7-4.3.8.2-.7 4.2zM419.1 161.8l.9-4.2.8.1-.8 4.2zM420.8 153.3l1-4.2 1 .3-1 4.1zM422.9 145l1.2-4.1.9.3-1.2 4.1zM425.2 136.7l1.3-4.1 1.1.3-1.3 4.1zM427.9 128.5l1.5-3.9.9.3-1.4 4zM430.9 120.5l1.6-4 .9.3-1.6 4.1zM434.1 112.5l1.9-3.8.7.3-1.7 4zM437.8 104.7l1.9-3.9.6.4-1.9 3.8zM441.7 97.1l2-3.8.4.2-1.9 3.8zM445.8 89.6l2.2-3.8.2.2-2 3.8zM450.2 82.2l1.1-1.6-1 1.7z"/><path class="st6" d="M121.1 531.4s.6.1 1.7.1c1.1.1 2.6.1 4.4.2h2.9l3.2-.1s2.3-.1 3.4-.2c1.2-.1 2.4-.2 3.5-.4 1.2-.1 2.4-.3 3.5-.5l1.7-.3 1.6-.4 1.6-.4 1.5-.5c1-.3 1.9-.6 2.7-1 .9-.3 1.6-.6 2.3-.9.6-.3 1.3-.6 1.7-.9 1-.4 1.5-.8 1.5-.8s-.4.4-1.3 1.1c-.4.3-1 .8-1.5 1.2-.6.4-1.4.9-2.1 1.3-.4.2-.9.5-1.3.8l-1.4.6-1.5.6-1.6.5c-.5.2-1.1.3-1.7.5-.5.1-1.2.3-1.8.4-1.2.3-2.5.5-3.6.6-1.2.2-2.5.2-3.6.3-1.2.1-2.5 0-3.5 0-1.2 0-2.3-.1-3.3-.2s-2-.2-3-.4c-1-.1-1.7-.3-2.5-.5s-1.4-.3-1.8-.5c-1.2 0-1.7-.2-1.7-.2zM478.5 530.5s-.5.2-1.6.6c-1.1.3-2.5.8-4.3 1.2-.9.2-1.9.3-3 .5s-2.1.2-3.3.3c-1.2 0-2.4.1-3.5.1-1.2 0-2.5-.1-3.8-.2l-1.8-.2-1.8-.3c-1.2-.2-2.4-.5-3.5-.8-.5-.1-1.2-.2-1.6-.4-.5-.2-1.1-.4-1.5-.5l-1.5-.5-1.3-.6c-.9-.4-1.6-.8-2.3-1.2-.6-.4-1.2-.8-1.6-1.1-.9-.5-1.4-1-1.4-1s.6.2 1.6.5c.5.2 1.1.4 1.8.6.8.2 1.5.4 2.4.8.4.1.9.3 1.4.4.4.1 1 .2 1.5.3 1 .2 2 .5 3.2.8.5.1 1.1.2 1.7.3l1.7.2s1.2.2 1.7.2l1.8.1c1.2.1 2.4.2 3.5.2 1.2.1 2.4.1 3.4.1h3.2c1.1 0 2-.1 2.9-.1 1.8-.1 3.3-.2 4.4-.3 1 .2 1.6 0 1.6 0zM352.2 292.9s2.4 14.3 5.8 35.6c1.7 10.6 3.8 23.1 6 36.5 2.1 13.3 4.5 27.6 7.1 41.7 2.4 14.2 4.9 28.4 7.5 41.6 2.6 13.3 4.9 25.6 7.4 36.2 2.5 10.5 4.7 19.2 6.9 25.1 1.1 2.9 2.1 5.3 3 6.7l.6.9s.3.4.5.5c.3.3.5.4.5.4s-.2-.1-.5-.4c-.2-.1-.3-.3-.5-.5s-.4-.5-.8-.9c-1-1.4-2.1-3.6-3.3-6.5-2.4-5.9-5-14.5-7.6-25-2.6-10.5-5.5-22.9-8-36.1-2.7-13.3-5.3-27.5-7.7-41.6-2.4-14.3-4.7-28.4-6.8-41.8-2-13.4-3.8-25.9-5.4-36.6-1.5-10.7-2.6-19.6-3.4-26-.9-6.2-1.3-9.8-1.3-9.8zM357.1 312.3s2.3 13.3 5.8 33.3c1.7 10 3.8 21.6 5.9 34.1 2.1 12.4 4.5 25.8 7 39.1 2.4 13.3 4.9 26.5 7.4 38.9 2.6 12.3 4.9 23.9 7.4 33.8 2.5 9.8 4.6 17.9 6.9 23.4 1.1 2.8 2.1 4.8 3 6.1l.6.9c.2.2.3.4.5.5.3.2.5.3.5.3s-.2-.1-.5-.3c-.2-.1-.3-.3-.5-.5s-.4-.4-.6-.8c-1-1.3-2.1-3.3-3.3-6-2.4-5.5-5-13.5-7.6-23.3s-5.4-21.2-8-33.7c-2.6-12.3-5.3-25.6-7.7-38.9-2.4-13.3-4.6-26.6-6.8-39.1-2-12.4-3.8-24.1-5.3-34.2-1.5-10-2.6-18.3-3.3-24.2-1-6.1-1.4-9.4-1.4-9.4zM363.2 327.9s2.3 12.9 5.7 32.1c1.7 9.7 3.8 20.8 5.9 32.9 2.1 12 4.5 24.9 7 37.7 2.4 12.8 4.8 25.6 7.4 37.6s4.9 23.1 7.3 32.6c2.5 9.4 4.6 17.3 6.9 22.5 1.1 2.7 2.1 4.6 3 5.9l.6.8s.3.4.5.5c.3.2.4.3.4.3s-.2-.1-.5-.3c-.2-.1-.3-.2-.5-.4s-.4-.4-.6-.8c-1-1.2-2.1-3.1-3.3-5.8-2.4-5.3-5-13-7.6-22.4s-5.4-20.5-7.9-32.5c-2.6-11.9-5.2-24.8-7.6-37.6-2.4-12.9-4.6-25.6-6.7-37.8-2-12-3.8-23.4-5.3-33-1.5-9.7-2.6-17.7-3.3-23.4-.9-5.7-1.4-8.9-1.4-8.9zM349.1 287.8s2.3 14.4 5.6 35.8c1.7 10.7 3.6 23.3 5.8 36.7 2.1 13.4 4.4 27.8 6.9 42.1 2.4 14.3 4.7 28.6 7.3 42 2.5 13.4 4.8 25.9 7.2 36.5 2.4 10.6 4.6 19.4 6.8 25.3 1.1 3 2 5.3 3 6.7l.6.9.5.6c.3.3.5.4.5.4s-.2-.1-.5-.4c-.2-.1-.3-.3-.5-.5s-.4-.5-.8-.9c-1-1.4-2.1-3.6-3.3-6.7-2.4-5.9-4.9-14.7-7.5-25.2-2.6-10.6-5.4-23-7.8-36.4-2.6-13.4-5.1-27.7-7.5-42-2.4-14.4-4.5-28.6-6.5-42.2-2-13.4-3.6-26.1-5.1-36.8-1.5-10.8-2.5-19.8-3.3-26.1-1-6.1-1.4-9.8-1.4-9.8z"/><path class="st22" d="M161.1 526.5l3.7 41.8M166.1 527.6l3.7 40.9M168.6 528.2l3.6 40.4M171.3 528.7l3.5 40M173.9 529.2l3.6 39.5M176.8 529.5l3.4 39.1M179.4 529.9l3.5 38.7M182 530.1l3.3 38.3M163.8 527l3.3 41.2M184.6 530l3.4 38.2M189.6 530.2l3.4 37.5M192 529.9l3.3 37.3M194.7 529.8l3.2 36.9M197.2 529.5l3.5 36.5M199.9 528.8l3.2 36.4M202.4 528l3.3 36.3M204.9 527.2l3.3 36.1M187.3 530.2l3 37.8M207.8 526.3l3.1 35.5M212.4 522.6l3.1 35.7M214.7 522.5l3 33.5M217.3 518.9l2.6 35M220.4 516.6l2.5 35M223 514.8l2.5 35M225.5 513.3l2.5 34.9M227.8 511.7l2.6 35.3M210.2 524.9l2.9 35.5M230.5 510.9l2.6 35M235.3 509.3l2.5 35M237.7 508.8l2.6 34.8M240.3 507.9l2.5 35.3M243 507.6l2.5 35.4M245.6 507.5l2.6 35.4M248.3 507.5l2.6 35.5M250.8 507.8l2.6 35.5M233.1 509.9l2.2 35.1M256.5 508.4l2.1 36M258.9 508.8l2.5 36.3M261.6 509.3l2.5 36.9M264.4 510.1l2.5 37.1M267.1 510.3l2.6 37.7M269.5 511.7l2.7 37.1M271.9 511.7l2.9 37.7M254.1 508.1l2.3 35.6M274.6 512l2.9 38.1M279.6 513.5l2.9 37.5M282 514l2.9 37.5M284.6 514.2l3 37.6M287.5 514.2l2.9 38M290.2 514.1l2.9 38.4M292.9 514.9l2.8 38M295.4 515.1l2.9 38M277.4 512.7l2.5 37.9M298.3 515l2.9 38.4M303.2 515.5l2.9 38.2M305.7 515.4l2.9 38.4M308.4 516l2.8 37.9M311.1 516.3l2.8 37.6M313.8 516.6l2.8 37.3M316.4 516.8l2.8 37M319 517.3l2.8 36.4M300.9 515.5l2.6 38M321.8 518.2l2.6 35.4M326.7 518.4l2.6 35.4M329.2 519.2l2.6 34.8M331.9 519.9l2.6 34.5M334.7 520.8l2.6 34.1M337.2 522l2.7 33.4M340.2 523l2.5 33.3M342.5 523.7l2.7 33.6M324.4 518.7l2.3 35M347.9 524.8l3.2 35.7M350.4 524.8l3.3 37.5M353 525.3l3.5 38.3M355.7 525.4l3.6 38.9M358.3 525.3l3.6 39.5M361 525.1l3.6 39.7M363.5 525l3.6 39.4M345.5 523.6l2.8 35.2M366.1 524.3l3.7 39.7M371 522.6l3.6 40M373.4 522.5l3.5 39.2M375.8 521.2l3.6 39.3M379 518.6l3.1 40.4M381.6 516.3l3.1 41.2M384.1 515l3.1 40.8M386.7 514.2l2.9 39.7M368.7 523.4l3.3 40M389.4 514.1l2.9 38M394.4 515.7l2.7 35.3M397 517.8l2.6 33.9M400.1 522.2l2.3 31.8M403.1 526.4l2.4 33.5M405.9 528.7l2.6 35.1M408.5 530.5l2 35.1M411.1 532l2.1 35.9M392.1 514.8l2.5 36.5M414.2 534l1.9 36M418.9 535.8l2.3 37.1M421.4 536.4l2.2 37.4M424.1 536.8l2.2 37.4M426.7 537.1l2.2 36.9M429.4 537.1l2.2 35.9M432 536.7l2.1 34.6M434.6 536l2.1 32.7M437.5 535.2l1.4 28.5M416.3 534.9l2.1 36.6"/><path class="st6" d="M158.5 525.4s1.1.4 3.2 1c2.1.5 5.3 1.4 9.3 2.1 4.1.8 9 1.4 14.8 1.4 5.7 0 12.2-.6 18.9-3 3.2-1.2 6.4-3.1 9.3-5.5.8-.6 1.4-1.3 2.1-1.9.6-.6 1.4-1.4 2.1-2 1.5-1.3 3.1-2.6 4.9-3.6 3.5-2.3 7.4-4 11.6-5.1 4.2-1.2 8.7-1.7 13.2-1.7s9.1.5 13.6 1.6c2.3.5 4.5 1.2 6.8 1.8 2.1.6 4.4 1.3 6.7 1.7 2.3.4 4.5.9 6.9 1.1 2.3.2 4.6.3 7 .5 4.7.3 9.4.6 14.2 1.2 9.4 1 18.9 2.3 28 4.5 1.2.2 2.3.6 3.4 1 1.1.3 2.3.8 3.3 1.1 2.1.8 4.3 1.4 6.5 1.9 4.4 1.1 8.8 1.4 13.2 1.3 8.7-.2 17.5-1.6 22.9-8 3.3-2.7 7.9-3.8 11.8-2.5 1.9.6 3.6 1.6 5 3 1.4 1.3 2.4 3.1 3.2 4.6s1.8 2.9 2.9 4.1c1.1 1.2 2.4 2.3 3.6 3.2 2.5 1.9 5.2 3.5 7.7 4.8 5.2 2.5 10.2 3.3 14.3 3.1s7.3-1.2 9.2-2c1-.4 1.8-.9 2.3-1.1.5-.3.8-.4.8-.4l-.8.4c-.5.3-1.3.6-2.3 1.2-2 1-5.2 2.1-9.3 2.4-4.2.3-9.3-.4-14.7-2.9-2.7-1.2-5.4-2.7-8-4.7-1.3-1-2.6-2-3.9-3.3-1.2-1.3-2.3-2.7-3.2-4.3-.4-.9-.9-1.6-1.3-2.3-.5-.8-1.1-1.4-1.7-2-1.3-1.2-2.9-2.1-4.5-2.7-3.4-1.1-7.5-.1-10.4 2.4-.3.3-.6.6-1.1 1l-1.1 1.1c-.8.8-1.6 1.4-2.6 2-1.8 1.2-3.9 2-6 2.7-4.2 1.3-8.7 1.8-13.1 1.9-4.5.1-9.1-.2-13.6-1.3-2.3-.5-4.5-1.2-6.8-1.9-2.1-.8-4.3-1.4-6.5-1.9-9-2.1-18.3-3.3-27.8-4.3-4.7-.5-9.4-.9-14.1-1.2l-7.1-.5s-4.7-.6-7-1.2c-2.3-.5-4.6-1.1-6.8-1.8-2.1-.6-4.4-1.3-6.5-1.8-4.4-1-8.8-1.6-13.2-1.6-8.7-.1-17.2 2.1-23.9 6.3-1.7 1.1-3.3 2.3-4.7 3.4-.8.6-1.4 1.3-2.1 1.9l-2.3 1.9c-3 2.5-6.3 4.4-9.8 5.6-6.8 2.5-13.5 2.8-19.2 2.7-5.8-.2-10.8-1-14.9-1.7-4.1-.9-7.2-1.7-9.3-2.4-2-.9-3.1-1.3-3.1-1.3z"/><path class="st2" d="M204.9 54.3s0 .9.1 2.3.1 3.2.2 4.9c0 1.8.1 3.6.1 5v2.3s0-.9-.1-2.3-.1-3.2-.2-4.9c0-1.8-.1-3.6-.1-5v-2.3zM205.8 55.3s.1 1 .1 2.5c.1 1.5.1 3.4.2 5.4 0 1.9.1 3.9.1 5.4v2.5s-.1-1-.1-2.5c-.1-1.5-.1-3.4-.2-5.4 0-1.9-.1-3.9-.1-5.4-.1-1.5 0-2.5 0-2.5zM206.7 55.9s0 .9.1 2.3.1 3.2.2 4.9c0 1.8.1 3.6.1 5v2.3s0-.9-.1-2.3-.1-3.2-.2-4.9c0-1.8-.1-3.6-.1-5v-2.3zM207.5 57s.1 1 .1 2.5c.1 1.5.1 3.4.2 5.4 0 1.9.1 3.9.1 5.4v2.5s-.1-1-.1-2.5c-.1-1.5-.1-3.4-.2-5.4 0-1.9-.1-3.9-.1-5.4v-2.5zM208.4 57.4s0 .9.1 2.3.1 3.2.2 4.9c0 1.8.1 3.6.1 5v2.3s0-.9-.1-2.3-.1-3.2-.2-4.9c0-1.8-.1-3.6-.1-5v-2.3zM200.4 52.5s0 .9.1 2.3.1 3.2.2 4.9c0 1.8.1 3.6.1 5v2.3s0-.9-.1-2.3-.1-3.2-.2-4.9c0-1.8-.1-3.6-.1-5-.2-1.4 0-2.3 0-2.3zM199.5 52s0 .9.1 2.3.1 3.2.2 4.9c0 1.8.1 3.6.1 5v2.3s0-.9-.1-2.3-.1-3.2-.2-4.9c0-1.8-.1-3.6-.1-5v-2.3zM198.6 51.5s0 .9.1 2.3.1 3.2.2 4.9c0 1.8.1 3.6.1 5v2.3s0-.9-.1-2.3-.1-3.2-.2-4.9c0-1.8-.1-3.6-.1-5v-2.3zM197.5 50.8s0 .9.1 2.3.1 3.2.2 4.9c0 1.8.1 3.6.1 5v2.3s0-.9-.1-2.3-.1-3.2-.2-4.9c0-1.8-.1-3.6-.1-5v-2.3zM196.4 50s0 .9.1 2.3.1 3.2.2 4.9c0 1.8.1 3.6.1 5v2.3s0-.9-.1-2.3-.1-3.2-.2-4.9c0-1.8-.1-3.6-.1-5v-2.3zM195.5 49.1s0 .9.1 2.3.1 3.2.2 4.9c0 1.8.1 3.6.1 5v2.3s0-.9-.1-2.3-.1-3.2-.2-4.9c0-1.8-.1-3.6-.1-5v-2.3zM201.2 53.5s.1 1 .1 2.5c.1 1.5.1 3.4.2 5.4 0 1.9.1 3.9.1 5.4v2.5s-.1-1-.1-2.5c-.1-1.5-.1-3.4-.2-5.4 0-1.9-.1-3.9-.1-5.4v-2.5zM202.2 54.1s0 .9.1 2.3.1 3.2.2 4.9c0 1.8.1 3.6.1 5v2.3s0-.9-.1-2.3-.1-3.2-.2-4.9c0-1.8-.1-3.6-.1-5-.1-1.4 0-2.3 0-2.3zM203 55.1s.1 1 .1 2.5c.1 1.5.1 3.4.2 5.4 0 1.9.1 3.9.1 5.4v2.5s-.1-1-.1-2.5c-.1-1.5-.1-3.4-.2-5.4 0-1.9-.1-3.9-.1-5.4v-2.5zM203.9 55.6s0 .9.1 2.3.1 3.2.2 4.9c0 1.8.1 3.6.1 5v2.3s0-.9-.1-2.3-.1-3.2-.2-4.9c0-1.8-.1-3.6-.1-5v-2.3zM209.4 58.5s.1 1 .1 2.5c.1 1.5.1 3.4.2 5.4 0 1.9.1 3.9.1 5.4v2.5s-.1-1-.1-2.5c-.1-1.5-.1-3.4-.2-5.4 0-1.9-.1-3.9-.1-5.4v-2.5zM210.2 59s0 .9.1 2.3.1 3.2.2 4.9c0 1.8.1 3.6.1 5v2.3s0-.9-.1-2.3-.1-3.2-.2-4.9c0-1.8-.1-3.6-.1-5v-2.3zM211.2 60.1s.1 1 .1 2.5c.1 1.5.1 3.4.2 5.4 0 1.9.1 3.9.1 5.4v2.5s-.1-1-.1-2.5c-.1-1.5-.1-3.4-.2-5.4 0-1.9-.1-3.9-.1-5.4v-2.5zM212.2 61s0 .9.1 2.3.1 3.2.2 4.9c0 1.8.1 3.6.1 5v2.3s0-.9-.1-2.3-.1-3.2-.2-4.9c0-1.8-.1-3.6-.1-5v-2.3zM213.1 62.1s.1 1 .1 2.5c.1 1.5.1 3.4.2 5.4 0 1.9.1 3.9.1 5.4v2.5s-.1-1-.1-2.5c-.1-1.5-.1-3.4-.2-5.4 0-1.9-.1-3.9-.1-5.4v-2.5zM214 62.6s0 .9.1 2.3.1 3.2.2 4.9c0 1.8.1 3.6.1 5v2.3s0-.9-.1-2.3-.1-3.2-.2-4.9c0-1.8-.1-3.6-.1-5v-2.3zM214.9 63.7s.1 1 .1 2.5c.1 1.5.1 3.4.2 5.4 0 1.9.1 3.9.1 5.4v2.5s-.1-1-.1-2.5c-.1-1.5-.1-3.4-.2-5.4 0-1.9-.1-3.9-.1-5.4v-2.5zM215.7 64.1s0 .9.1 2.3.1 3.2.2 4.9c0 1.8.1 3.6.1 5v2.3s0-.9-.1-2.3-.1-3.2-.2-4.9c0-1.8-.1-3.6-.1-5v-2.3zM216.5 54.9s.1 1.6.2 4 .2 5.6.3 8.7c.1 3.2.1 6.3.2 8.8v4s-.1-1.6-.2-4-.2-5.6-.3-8.7c-.1-3.2-.1-6.3-.2-8.8v-4zM217.3 55.8s.1 1.5.2 3.6c.1 2.3.2 5.2.3 8.2 0 3 .1 5.9.1 8.2v3.6s-.1-1.5-.2-3.6c-.1-2.3-.2-5.2-.3-8.2 0-3-.1-5.9-.1-8.2v-3.6zM218.3 57.6s.1 1.6.2 4 .2 5.6.3 8.7c.1 3.2.1 6.3.2 8.8v4s-.1-1.6-.2-4-.2-5.6-.3-8.7c-.1-3.2-.1-6.3-.2-8.8v-4zM219.3 59.2s.1 1.5.2 3.6c.1 2.3.2 5.2.3 8.2 0 3 .1 5.9.1 8.2v3.6s-.1-1.5-.2-3.6c-.1-2.3-.2-5.2-.3-8.2 0-3-.1-5.9-.1-8.2v-3.6zM220.3 60.9s.1 1.6.2 4 .2 5.6.3 8.7c.1 3.2.1 6.3.2 8.8v4s-.1-1.6-.2-4-.2-5.6-.3-8.7c-.1-3.2-.1-6.3-.2-8.8v-4zM221.2 61.8s.1 1.5.2 3.6c.1 2.3.2 5.2.3 8.2 0 3 .1 5.9.1 8.2v3.6s-.1-1.5-.2-3.6c-.1-2.3-.2-5.2-.3-8.2 0-3-.1-5.9-.1-8.2v-3.6zM222.1 63.6s.1 1.6.2 4 .2 5.6.3 8.7c.1 3.2.1 6.3.2 8.8v4s-.1-1.6-.2-4-.2-5.6-.3-8.7c-.1-3.2-.1-6.3-.2-8.8v-4zM223 64.3s.1 1.5.2 3.6c.1 2.3.2 5.2.3 8.2 0 3 .1 5.9.1 8.2v3.6s-.1-1.5-.2-3.6c-.1-2.3-.2-5.2-.3-8.2 0-3-.1-5.9-.1-8.2v-3.6zM224 66.1s.1 1.6.2 4 .2 5.6.3 8.7c.1 3.2.1 6.3.2 8.8v4s-.1-1.6-.2-4-.2-5.6-.3-8.7c-.1-3.2-.1-6.3-.2-8.8v-4zM224.8 66.9s.1 1.5.2 3.6c.1 2.3.2 5.2.3 8.2 0 3 .1 5.9.1 8.2v3.6s-.1-1.5-.2-3.6c-.1-2.3-.2-5.2-.3-8.2 0-3-.1-5.9-.1-8.2v-3.6zM225.7 66.6s.1 1.6.2 4 .2 5.6.3 8.7c.1 3.2.1 6.3.2 8.8v4s-.1-1.6-.2-4-.2-5.6-.3-8.7c-.1-3.2-.1-6.3-.2-8.8.1-2.4 0-4 0-4zM227 65.6s.1 1.5.2 3.9.2 5.5.3 8.6c.1 3.1.1 6.2.1 8.6v3.9s-.1-1.5-.2-3.9-.2-5.5-.3-8.6c-.1-3.1-.1-6.2-.1-8.6v-3.9zM227.9 67.1s.1 1.4.1 3.4c.1 2 .2 4.8.2 7.5 0 2.8.1 5.5.1 7.5v3.4s-.1-1.4-.1-3.4c-.1-2-.2-4.8-.2-7.5 0-2.8-.1-5.5-.1-7.5v-3.4zM228.8 67.9s.1 1.3.1 3.2c.1 1.9.1 4.5.2 7 0 2.6.1 5.2.1 7.1v3.2s-.1-1.3-.1-3.2c-.1-1.9-.1-4.5-.2-7 0-2.6-.1-5.2-.1-7.1v-3.2zM229.8 67.5s.1 1.5.2 3.8.2 5.3.3 8.3c.1 3 .1 6 .1 8.3v3.8s-.1-1.5-.2-3.8-.2-5.3-.3-8.3c-.1-3-.1-6-.1-8.3v-3.8zM230.5 67.6s.1 1.4.2 3.5.2 5 .2 7.9c0 2.9.1 5.7.1 7.9v3.5s-.1-1.4-.2-3.5-.2-5-.2-7.9c0-2.9-.1-5.7-.1-7.9v-3.5zM231.5 68.1s.1 1.6.2 4 .2 5.6.3 8.8c.1 3.2.1 6.3.2 8.8v4s-.1-1.6-.2-4-.2-5.6-.3-8.8c-.1-3.2-.1-6.3-.2-8.8v-4zM232.3 68.1s.1 1.5.2 3.9.2 5.4.3 8.5c.1 3.1.1 6.1.1 8.5v3.9s-.1-1.5-.2-3.9-.2-5.4-.3-8.5c-.1-3.1-.1-6.1-.1-8.5v-3.9zM233.2 68.2s.1 1.7.2 4.3c.1 2.6.2 6 .3 9.5.1 3.4.1 7 .2 9.5v4.3s-.1-1.7-.2-4.3-.2-6-.3-9.5c-.1-3.4-.1-7-.2-9.5.1-2.6 0-4.3 0-4.3zM234.2 68.3s.1 1.7.2 4.3c.1 2.6.2 6 .3 9.4.1 3.4.1 6.9.2 9.4v4.3s-.1-1.7-.2-4.3-.2-6-.3-9.4c-.1-3.4-.1-6.9-.2-9.4v-4.3zM235.1 69.4s.1 1.8.2 4.6.2 6.4.3 10.1c.1 3.6.1 7.4.2 10.1v4.6s-.1-1.8-.2-4.6-.2-6.4-.3-10.1c-.1-3.6-.1-7.4-.2-10.1v-4.6zM236 69.1s.1 1.8.2 4.5.2 6.3.3 10c.1 3.6.1 7.2.2 10v4.5s-.1-1.8-.2-4.5-.2-6.3-.3-10c-.1-3.6-.1-7.2-.2-10v-4.5zM236.9 69.1s.1 2 .2 5 .2 7 .3 10.9c.1 4 .1 8 .2 10.9 0 3 .1 5 .1 5s-.1-2-.2-5-.2-7-.3-10.9c-.1-4-.1-8-.2-10.9-.1-3.1-.1-5-.1-5zM237.5 69.1s.1 1.9.2 4.8.3 6.8.4 10.6c.1 3.9.2 7.7.3 10.6.1 2.9.1 4.8.1 4.8s-.1-1.9-.2-4.8-.3-6.8-.4-10.6c-.1-3.9-.2-7.7-.3-10.6-.1-2.9-.1-4.8-.1-4.8zM238.6 66.3s.1 1.9.2 4.8.2 6.8.3 10.6c.1 3.9.1 7.7.2 10.6v4.8s-.1-1.9-.2-4.8-.2-6.8-.3-10.6c-.1-3.9-.1-7.7-.2-10.6v-4.8zM239.4 67.3s.1 1.9.2 4.8.2 6.8.3 10.5c.1 3.9.1 7.6.2 10.5v4.8s-.1-1.9-.2-4.8-.2-6.8-.3-10.5c-.1-3.9-.1-7.6-.2-10.5.1-3 0-4.8 0-4.8zM240.4 69s.1 1.6.2 4 .2 5.6.3 8.7c.1 3.2.1 6.3.2 8.8v4s-.1-1.6-.2-4-.2-5.6-.3-8.7c-.1-3.2-.1-6.3-.2-8.8v-4zM241.4 70.6s.1 1.5.2 3.6c.1 2.3.2 5.2.3 8.2 0 3 .1 5.9.1 8.2v3.6s-.1-1.5-.2-3.6c-.1-2.3-.2-5.2-.3-8.2 0-3-.1-5.9-.1-8.2v-3.6zM242.3 69s.1 1.8.2 4.5.2 6.3.3 9.9c.1 3.6.1 7.2.2 10v4.5s-.1-1.8-.2-4.5-.2-6.3-.3-9.9c-.1-3.6-.1-7.2-.2-10v-4.5zM243.3 69.6s.1 1.7.2 4.3c.1 2.6.2 5.9.3 9.3.1 3.4.1 6.8.2 9.3v4.3s-.1-1.7-.2-4.3-.2-5.9-.3-9.3c-.1-3.4-.1-6.8-.2-9.3v-4.3zM244.1 70.5s.1 1.8.2 4.7c.1 2.8.2 6.5.3 10.3.1 3.8.1 7.5.2 10.3v4.7s-.1-1.8-.2-4.7c-.1-2.8-.2-6.5-.3-10.3-.1-3.8-.1-7.5-.2-10.3v-4.7zM245 71s.1 1.8.2 4.4c.1 2.7.2 6.2.3 9.8.1 3.5.1 7.1.2 9.8v4.4s-.1-1.8-.2-4.4c-.1-2.7-.2-6.2-.3-9.8-.1-3.5-.1-7.1-.2-9.8v-4.4zM246 70.9s.1 2 .2 4.9c.1 3 .2 7 .3 10.9.1 4 .1 7.9.2 10.9 0 3 .1 5 .1 5s-.1-2-.2-4.9c-.1-3-.2-7-.3-10.9-.1-4-.1-7.9-.2-10.9s-.1-5-.1-5zM246.8 70.9s.1 1.9.2 4.8.2 6.8.3 10.6c.1 3.9.1 7.7.2 10.6v4.8s-.1-1.9-.2-4.8-.2-6.8-.3-10.6c-.1-3.9-.1-7.7-.2-10.6v-4.8zM247.7 71.3s.1 2.1.2 5.4c.1 3.2.2 7.5.3 11.7.1 4.3.2 8.6.2 11.7 0 3.2.1 5.4.1 5.4s-.1-2.1-.2-5.4c-.1-3.2-.2-7.5-.3-11.7-.1-4.3-.2-8.6-.2-11.7-.1-3.2-.1-5.4-.1-5.4zM248.4 71.3s.1 1.7.2 4.4.2 6.2.3 9.8c.1 3.5.1 7.1.2 9.8v4.4s-.1-1.7-.2-4.4-.2-6.2-.3-9.8c-.1-3.5-.1-7.1-.2-9.8v-4.4zM249.4 72.4s.1 1.8.2 4.6.2 6.4.3 10.1c.1 3.6.1 7.3.2 10.1v4.6s-.1-1.8-.2-4.6-.2-6.4-.3-10.1c-.1-3.6-.1-7.3-.2-10.1v-4.6zM250.2 72.9s.1 1.7.2 4.4.2 6.2.3 9.8c.1 3.5.1 7.1.2 9.8v4.4s-.1-1.7-.2-4.4-.2-6.2-.3-9.8c-.1-3.5-.1-7.1-.2-9.8v-4.4zM251.1 70.5s.1 1.9.2 4.9c.1 2.9.2 6.9.3 10.7.1 4 .1 7.8.2 10.7v4.9s-.1-1.9-.2-4.9c-.1-2.9-.2-6.9-.3-10.7-.1-4-.1-7.8-.2-10.7v-4.9zM251.9 70.9s.1 1.9.2 4.7c.1 2.8.2 6.7.3 10.4.1 3.8.1 7.6.2 10.4v4.7s-.1-1.9-.2-4.7c-.1-2.8-.2-6.7-.3-10.4-.1-3.8-.1-7.6-.2-10.4.1-2.8 0-4.7 0-4.7zM252.8 72s.1 1.9.2 4.9c.1 2.9.2 6.9.3 10.7.1 4 .1 7.8.2 10.7v4.9s-.1-1.9-.2-4.9c-.1-2.9-.2-6.9-.3-10.7-.1-4-.1-7.8-.2-10.7v-4.9zM253.7 69.3s.1 2.1.2 5.3c.1 3.2.2 7.4.3 11.6.1 4.2.2 8.5.2 11.6 0 3.2.1 5.3.1 5.3s-.1-2.1-.2-5.3c-.1-3.2-.2-7.4-.3-11.6-.1-4.2-.2-8.5-.2-11.6-.1-3.2-.1-5.3-.1-5.3zM254.5 70.4s.1 2.1.2 5.5c.1 3.3.2 7.6.3 12 .1 4.4.2 8.7.2 12 0 3.3.1 5.5.1 5.5s-.1-2.1-.2-5.5c-.1-3.3-.2-7.6-.3-12-.1-4.4-.2-8.7-.2-12 0-3.3-.1-5.5-.1-5.5zM255.5 71.4s.1 2.1.2 5.3c.1 3.2.2 7.4.3 11.6.1 4.2.2 8.5.2 11.6 0 3.2.1 5.3.1 5.3s-.1-2.1-.2-5.3c-.1-3.2-.2-7.4-.3-11.6-.1-4.2-.2-8.5-.2-11.6 0-3.2-.1-5.3-.1-5.3zM256.5 72.5s.1 2.1.2 5.5c.1 3.3.2 7.6.3 12 .1 4.4.2 8.7.2 12 0 3.3.1 5.5.1 5.5s-.1-2.1-.2-5.5c-.1-3.3-.2-7.6-.3-12-.1-4.4-.2-8.7-.2-12-.1-3.3-.1-5.5-.1-5.5zM257.3 73.1s.1 2.1.2 5.3c.1 3.2.2 7.4.3 11.6.1 4.2.2 8.5.2 11.6 0 3.2.1 5.3.1 5.3s-.1-2.1-.2-5.3c-.1-3.2-.2-7.4-.3-11.6-.1-4.2-.1-8.5-.2-11.6 0-3.3-.1-5.3-.1-5.3zM258.5 80.8s.1 1.4.1 3.6c.1 2.1.1 5 .2 7.9 0 2.9.1 5.8.1 7.9v3.6s-.1-1.4-.1-3.6c-.1-2.1-.1-5-.2-7.9 0-2.9-.1-5.8-.1-7.9v-3.6zM259.3 81.2s0 1.4.1 3.4.1 4.8.2 7.5c0 2.8.1 5.5.1 7.5v3.4s-.1-1.4-.1-3.4c-.1-2-.1-4.8-.2-7.5 0-2.8-.1-5.5-.1-7.5v-3.4zM260 72s.1 2 .2 5.2.2 7.2.3 11.3c.1 4.1.1 8.3.2 11.3v5.2s-.1-2-.2-5.2c-.1-3.1-.2-7.2-.3-11.3-.1-4.1-.1-8.3-.2-11.3v-5.2zM260.9 72.8s.1 1.9.2 4.8.2 6.8.3 10.7c.1 3.9.1 7.7.1 10.7v4.8s-.1-1.9-.2-4.8-.2-6.8-.3-10.7c-.1-3.9-.1-7.7-.1-10.7v-4.8zM261.8 74.7s.1 2 .2 5.2c.1 3.1.2 7.2.3 11.3.1 4.1.1 8.3.2 11.3v5.2s-.1-2-.2-5.2-.2-7.2-.3-11.3c-.1-4.1-.1-8.3-.2-11.3v-5.2zM262.9 76.3s.1 1.9.2 4.8.2 6.8.3 10.7c.1 3.9.1 7.7.1 10.7v4.8s-.1-1.9-.2-4.8-.2-6.8-.3-10.7c-.1-3.9-.1-7.7-.1-10.7v-4.8zM263.9 78s.1 1.6.2 4 .2 5.6.3 8.7c.1 3.2.1 6.3.2 8.8v4s-.1-1.6-.2-4-.2-5.6-.3-8.7c-.1-3.2-.1-6.3-.2-8.8v-4zM264.7 78.8s.1 1.6.2 3.9c.1 2.4.2 5.5.3 8.6.1 3.1.1 6.2.1 8.6v3.9s-.1-1.6-.2-3.9c-.1-2.4-.2-5.5-.3-8.6-.1-3.1-.1-6.2-.1-8.6v-3.9zM265.7 80.7s.1 1.6.2 4 .2 5.6.3 8.7c.1 3.2.1 6.3.2 8.8v4s-.1-1.6-.2-4-.2-5.6-.3-8.7c-.1-3.2-.1-6.3-.2-8.8v-4zM266.6 81.3s.1 1.5.2 3.6c.1 2.3.2 5.2.3 8.2 0 3 .1 5.9.1 8.2v3.6s-.1-1.5-.2-3.6c-.1-2.3-.2-5.2-.3-8.2 0-3-.1-5.9-.1-8.2v-3.6zM267.5 83.1s.1 1.6.2 4 .2 5.6.3 8.7c.1 3.2.1 6.3.2 8.8v4s-.1-1.6-.2-4-.2-5.6-.3-8.7c-.1-3.2-.1-6.3-.2-8.8v-4zM268.4 84s.1 1.5.2 3.6c.1 2.3.2 5.2.3 8.2 0 3 .1 5.9.1 8.2v3.6s-.1-1.5-.2-3.6c-.1-2.3-.2-5.2-.3-8.2 0-3-.1-5.9-.1-8.2v-3.6zM269.3 85.7s.1 1.6.2 4 .2 5.6.3 8.7c.1 3.2.1 6.3.2 8.8v4s-.1-1.6-.2-4-.2-5.6-.3-8.7c-.1-3.2-.1-6.3-.2-8.8v-4zM270 75.1s.1 1.9.2 4.8.2 6.8.3 10.6c.1 3.9.1 7.7.2 10.6v4.8s-.1-1.9-.2-4.8-.2-6.8-.3-10.6c-.1-3.9-.1-7.7-.2-10.6v-4.8zM270.8 75.9s.1 1.9.2 4.8.2 6.8.3 10.5c.1 3.9.1 7.6.2 10.5v4.8s-.1-1.9-.2-4.8-.2-6.8-.3-10.5c-.1-3.9-.1-7.6-.2-10.5v-4.8zM271.8 77.7s.1 1.7.2 4.3.2 6 .3 9.4c.1 3.4.1 6.9.2 9.4v4.3s-.1-1.7-.2-4.3c-.1-2.6-.2-6-.3-9.4-.1-3.4-.1-6.9-.2-9.4v-4.3zM272.9 81.3s.1 1.5.2 3.6c.1 2.3.2 5.2.3 8.2 0 3 .1 5.9.1 8.2v3.6s-.1-1.5-.2-3.6c-.1-2.3-.2-5.2-.3-8.2 0-3-.1-5.9-.1-8.2v-3.6zM273.7 77.7s.1 1.8.2 4.5.2 6.3.3 9.9c.1 3.6.1 7.2.2 10v4.5s-.1-1.8-.2-4.5-.2-6.3-.3-9.9c-.1-3.6-.1-7.2-.2-10v-4.5zM274.6 78.4s.1 1.7.2 4.3c.1 2.6.2 5.9.3 9.3s.1 6.8.2 9.3v4.3s-.1-1.7-.2-4.3c-.1-2.6-.2-5.9-.3-9.3-.1-3.4-.1-6.8-.2-9.3v-4.3zM275.6 79.3s.1 1.8.2 4.7c.1 2.8.2 6.5.3 10.3.1 3.8.1 7.5.2 10.3v4.7s-.1-1.8-.2-4.7c-.1-2.8-.2-6.5-.3-10.3-.1-3.8-.1-7.5-.2-10.3v-4.7zM276.4 79.7s.1 1.8.2 4.4c.1 2.7.2 6.2.3 9.8.1 3.5.1 7.1.2 9.8v4.4s-.1-1.8-.2-4.4c-.1-2.7-.2-6.2-.3-9.8-.1-3.5-.1-7.1-.2-9.8v-4.4zM277.3 79.7s.1 2 .2 4.9c.1 3 .2 7 .3 10.9.1 4 .1 7.9.2 10.9 0 3 .1 5 .1 5s-.1-2-.2-4.9c-.1-3-.2-7-.3-10.9-.1-4-.1-7.9-.2-10.9-.1-3.1-.1-5-.1-5zM278.1 79.7s.1 1.9.2 4.8.2 6.8.3 10.6c.1 3.9.1 7.7.2 10.6v4.8s-.1-1.9-.2-4.8-.2-6.8-.3-10.6c-.1-3.9-.1-7.7-.2-10.6v-4.8zM279.1 80.1s.1 2.1.2 5.4c.1 3.2.2 7.5.3 11.7.1 4.3.2 8.6.2 11.7 0 3.2.1 5.4.1 5.4s-.1-2.1-.2-5.4c-.1-3.2-.2-7.5-.3-11.7-.1-4.3-.2-8.6-.2-11.7-.1-3.2-.1-5.4-.1-5.4zM279.8 80.1s.1 1.7.2 4.4.2 6.2.3 9.8c.1 3.5.1 7.1.2 9.8v4.4s-.1-1.7-.2-4.4-.2-6.2-.3-9.8c-.1-3.5-.1-7.1-.2-9.8.1-2.7 0-4.4 0-4.4zM280.7 81.2s.1 1.8.2 4.6.2 6.4.3 10.1c.1 3.6.1 7.3.2 10.1v4.6s-.1-1.8-.2-4.6-.2-6.4-.3-10.1c-.1-3.6-.1-7.3-.2-10.1v-4.6zM281.6 81.6s.1 1.7.2 4.4.2 6.2.3 9.8c.1 3.5.1 7.1.2 9.8v4.4s-.1-1.7-.2-4.4-.2-6.2-.3-9.8c-.1-3.5-.1-7.1-.2-9.8.1-2.5 0-4.4 0-4.4zM282.4 79.3s.1 1.9.2 4.9c.1 2.9.2 6.9.3 10.7.1 4 .1 7.8.2 10.7v4.9s-.1-1.9-.2-4.9c-.1-2.9-.2-6.9-.3-10.7-.1-4-.1-7.8-.2-10.7.1-3 0-4.9 0-4.9zM283.3 79.7s.1 1.9.2 4.7.2 6.7.3 10.4c.1 3.8.1 7.6.2 10.4v4.7s-.1-1.9-.2-4.7-.2-6.7-.3-10.4c-.1-3.8-.1-7.6-.2-10.4v-4.7zM284.3 80.8s.1 1.9.2 4.9c.1 2.9.2 6.9.3 10.7.1 4 .1 7.8.2 10.7v4.9s-.1-1.9-.2-4.9c-.1-2.9-.2-6.9-.3-10.7-.1-4-.1-7.8-.2-10.7v-4.9zM285 78.1s.1 2.1.2 5.3c.1 3.2.2 7.4.3 11.6.1 4.2.2 8.5.2 11.6 0 3.2.1 5.3.1 5.3s-.1-2.1-.2-5.3c-.1-3.2-.2-7.4-.3-11.6-.1-4.2-.2-8.5-.2-11.6l-.1-5.3zM286 79.2s.1 2.1.2 5.5c.1 3.3.2 7.6.3 12 .1 4.4.2 8.7.2 12 0 3.3.1 5.5.1 5.5s-.1-2.1-.2-5.5c-.1-3.3-.2-7.6-.3-12-.1-4.4-.2-8.7-.2-12-.1-3.4-.1-5.5-.1-5.5zM286.9 80.1s.1 2.1.2 5.3c.1 3.2.2 7.4.3 11.6.1 4.2.2 8.5.2 11.6 0 3.2.1 5.3.1 5.3s-.1-2.1-.2-5.3c-.1-3.2-.2-7.4-.3-11.6-.1-4.2-.2-8.5-.2-11.6-.1-3.1-.1-5.3-.1-5.3zM287.9 81.2s.1 2.1.2 5.5c.1 3.3.2 7.6.3 12 .1 4.4.2 8.7.2 12 0 3.3.1 5.5.1 5.5s-.1-2.1-.2-5.5c-.1-3.3-.2-7.6-.3-12-.1-4.4-.2-8.7-.2-12-.1-3.3-.1-5.5-.1-5.5zM288.8 81.7s.1 2.1.2 5.3c.1 3.2.2 7.4.3 11.6.1 4.2.2 8.5.2 11.6 0 3.2.1 5.3.1 5.3s-.1-2.1-.2-5.3c-.1-3.2-.2-7.4-.3-11.6-.1-4.2-.2-8.5-.2-11.6-.1-3.1-.1-5.3-.1-5.3zM289.8 89.5s.1 1.4.1 3.6c.1 2.1.1 5 .2 7.9 0 2.9.1 5.8.1 7.9v3.6s-.1-1.4-.1-3.6c-.1-2.1-.1-5-.2-7.9 0-2.9-.1-5.8-.1-7.9v-3.6zM290.7 89.9s0 1.4.1 3.4.1 4.8.2 7.5c0 2.8.1 5.5.1 7.5v3.4s-.1-1.4-.1-3.4c-.1-2-.1-4.8-.2-7.5 0-2.8-.1-5.5-.1-7.5v-3.4zM291.4 80.8s.1 2 .2 5.2c.1 3.1.2 7.2.3 11.3.1 4.1.1 8.3.2 11.3v5.2s-.1-2-.2-5.2c-.1-3.1-.2-7.2-.3-11.3-.1-4.1-.1-8.3-.2-11.3v-5.2zM292.3 81.6s.1 1.9.2 4.8.2 6.8.3 10.7c.1 3.9.1 7.7.1 10.7v4.8s-.1-1.9-.2-4.8-.2-6.8-.3-10.7c-.1-3.9-.1-7.7-.1-10.7v-4.8zM293.3 83.4s.1 2 .2 5.2.2 7.2.3 11.3c.1 4.1.1 8.3.2 11.3v5.2s-.1-2-.2-5.2-.2-7.2-.3-11.3c-.1-4.1-.1-8.3-.2-11.3v-5.2zM294.3 85s.1 1.9.2 4.8.2 6.8.3 10.7c.1 3.9.1 7.7.1 10.7v4.8s-.1-1.9-.2-4.8-.2-6.8-.3-10.7c-.1-3.9-.1-7.7-.1-10.7v-4.8zM295.3 86.8s.1 1.6.2 4 .2 5.6.3 8.7c.1 3.2.1 6.3.2 8.8v4s-.1-1.6-.2-4-.2-5.6-.3-8.7c-.1-3.2-.1-6.3-.2-8.8v-4zM296.2 87.6s.1 1.6.2 3.9c.1 2.4.2 5.5.3 8.6.1 3.1.1 6.2.1 8.6v3.9s-.1-1.6-.2-3.9c-.1-2.4-.2-5.5-.3-8.6-.1-3.1-.1-6.2-.1-8.6v-3.9zM297.1 89.4s.1 1.6.2 4 .2 5.6.3 8.7c.1 3.2.1 6.3.2 8.8v4s-.1-1.6-.2-4-.2-5.6-.3-8.7c-.1-3.2-.1-6.3-.2-8.8v-4zM298 90.1s.1 1.5.2 3.6c.1 2.3.2 5.2.3 8.2 0 3 .1 5.9.1 8.2v3.6s-.1-1.5-.2-3.6c-.1-2.3-.2-5.2-.3-8.2 0-3-.1-5.9-.1-8.2v-3.6zM298.7 87.4s.1 1.8.2 4.6.2 6.5.3 10.3c.1 3.8.1 7.5.2 10.3v4.6s-.1-1.8-.2-4.6-.2-6.5-.3-10.3c-.1-3.8-.1-7.5-.2-10.3.2-2.6 0-4.6 0-4.6zM299.7 88.3s.1 1.7.2 4.4c.1 2.6.2 6.1.3 9.7.1 3.5.1 7 .2 9.7v4.4s-.1-1.7-.2-4.4c-.1-2.6-.2-6.1-.3-9.7-.1-3.5-.1-7-.2-9.7v-4.4zM300.7 90.1s.1 1.8.2 4.6.2 6.5.3 10.3c.1 3.8.1 7.5.2 10.3v4.6s-.1-1.8-.2-4.6-.2-6.5-.3-10.3c-.1-3.8-.1-7.5-.2-10.3v-4.6zM301.2 74.8s.1 1.8.2 4.5.2 6.3.3 9.9c.1 3.6.1 7.2.2 9.9v4.5s-.1-1.8-.2-4.5-.2-6.3-.3-9.9c-.1-3.6-.1-7.2-.2-9.9v-4.5zM302.1 75.6s.1 1.8.2 4.5.2 6.3.3 9.9c.1 3.6.1 7.2.2 9.9v4.5s-.1-1.8-.2-4.5-.2-6.3-.3-9.9c-.1-3.6-.1-7.2-.2-9.9v-4.5zM303 77.2s.1 1.7.2 4.4.2 6.1.3 9.7c.1 3.5.1 7.1.2 9.7v4.4s-.1-1.7-.2-4.4-.2-6.1-.3-9.7c-.1-3.5-.1-7.1-.2-9.7v-4.4zM303.9 72.3s.1 2 .2 5.2c.1 3.1.2 7.2.3 11.3.1 4.1.2 8.3.2 11.4 0 3.1.1 5.2.1 5.2s-.1-2-.2-5.2c-.1-3.1-.2-7.2-.3-11.3-.1-4.1-.2-8.3-.2-11.4 0-3.2-.1-5.2-.1-5.2zM304.9 70.8s.1 2.1.2 5.3.2 7.3.3 11.6c.1 4.2.2 8.4.2 11.6 0 3.1.1 5.3.1 5.3s-.1-2.1-.2-5.3-.2-7.3-.3-11.6c-.1-4.2-.2-8.4-.2-11.6-.1-3.3-.1-5.3-.1-5.3zM305.7 71.4s.1 2 .2 5 .2 7 .3 11.1c.1 4 .1 8 .2 11.1 0 3 .1 5 .1 5s-.1-2-.2-5-.2-7-.3-11.1c-.1-4-.1-8-.2-11.1-.1-2.9-.1-5-.1-5zM306.6 72.3s.1 2.1.2 5.4c.1 3.2.2 7.5.3 11.9.1 4.3.2 8.6.2 11.9 0 3.2.1 5.4.1 5.4s-.1-2.1-.2-5.4c-.1-3.2-.2-7.5-.3-11.9-.1-4.3-.2-8.6-.2-11.9 0-3.3-.1-5.4-.1-5.4zM307.4 72.6s.1 2 .2 5.2.2 7.2.3 11.4c.1 4.2.2 8.3.2 11.4l.1 5.2s-.1-2-.2-5.2-.2-7.2-.3-11.4c-.1-4.2-.2-8.3-.2-11.4-.1-3-.1-5.2-.1-5.2zM308.4 72.6s.1 2.3.2 5.7c.1 3.4.2 7.9.4 12.6.1 4.5.2 9.1.2 12.6l.1 5.7s-.1-2.3-.2-5.7c-.1-3.4-.2-7.9-.4-12.6-.1-4.5-.2-9.1-.2-12.6-.1-3.4-.1-5.7-.1-5.7zM309.3 72.6s.1 2.3.2 5.6.2 7.8.3 12.2c.1 4.4.2 8.9.2 12.2 0 3.3.1 5.6.1 5.6s-.1-2.3-.2-5.6-.2-7.8-.3-12.2c-.1-4.4-.2-8.9-.2-12.2-.1-3.3-.1-5.6-.1-5.6zM310.1 73.1s.1 2.4.2 6 .2 8.5.4 13.2c.1 4.8.2 9.7.3 13.2 0 3.6.1 6 .1 6s-.1-2.4-.2-6-.2-8.5-.4-13.2c-.1-4.8-.2-9.7-.3-13.2 0-3.7-.1-6-.1-6zM310.9 73.1s.1 2 .2 5.2c.1 3.1.2 7.2.3 11.4.1 4.1.2 8.3.2 11.4l.1 5.2s-.1-2-.2-5.2-.2-7.2-.3-11.4c-.1-4.1-.2-8.3-.2-11.4-.1-3.2-.1-5.2-.1-5.2zM311.8 74s.1 2.1.2 5.4c.1 3.2.2 7.4.3 11.7.1 4.3.2 8.5.2 11.7 0 3.2.1 5.4.1 5.4s-.1-2.1-.2-5.4c-.1-3.2-.2-7.4-.3-11.7-.1-4.3-.2-8.5-.2-11.7-.1-3.2-.1-5.4-.1-5.4zM312.7 74.6s.1 2 .2 5.2.2 7.2.3 11.4c.1 4.1.2 8.3.2 11.4 0 3.1.1 5.2.1 5.2s-.1-2-.2-5.2c-.1-3.1-.2-7.2-.3-11.4-.1-4.1-.2-8.3-.2-11.4-.1-3.2-.1-5.2-.1-5.2zM313.5 72.2s.1 2.3.2 5.6.2 7.8.4 12.3c.1 4.5.2 9 .2 12.3 0 3.3.1 5.6.1 5.6s-.1-2.3-.2-5.6-.2-7.8-.4-12.3c-.1-4.5-.2-9-.2-12.3-.1-3.4-.1-5.6-.1-5.6zM314.4 72.6s.1 2.1.2 5.5c.1 3.2.2 7.6.3 12 .1 4.4.2 8.7.2 12 0 3.2.1 5.5.1 5.5s-.1-2.1-.2-5.5c-.1-3.2-.2-7.6-.3-12-.1-4.4-.2-8.7-.2-12-.1-3.3-.1-5.5-.1-5.5zM315.3 73.6s.1 2.3.2 5.6.2 7.8.4 12.3c.1 4.5.2 9 .2 12.3 0 3.3.1 5.6.1 5.6s-.1-2.3-.2-5.6-.2-7.8-.4-12.3c-.1-4.5-.2-9-.2-12.3l-.1-5.6zM316.1 71.1s.1 2.4.2 6c.1 3.5.2 8.4.4 13.1.1 4.8.2 9.5.3 13.1 0 3.5.1 6 .1 6s-.1-2.4-.2-6c-.1-3.5-.2-8.4-.4-13.1-.1-4.8-.2-9.5-.3-13.1-.1-3.6-.1-6-.1-6zM317 70.3s.1 2.6.2 6.4c.1 3.9.3 9 .4 14.2.1 5.2.2 10.3.3 14.2.1 3.9.1 6.4.1 6.4s-.1-2.6-.2-6.4c-.1-3.9-.3-9-.4-14.2-.1-5.2-.2-10.3-.3-14.2-.1-3.9-.1-6.4-.1-6.4zM317.9 71.2s.1 2.5.2 6.2c.1 3.8.2 8.8.4 13.7.1 5 .2 10 .3 13.7 0 3.8.1 6.2.1 6.2s-.1-2.5-.2-6.2c-.1-3.8-.2-8.8-.4-13.7-.1-5-.2-10-.3-13.7-.1-3.7-.1-6.2-.1-6.2zM318.9 72.2s.1 2.6.2 6.4c.1 3.9.3 9 .4 14.2.1 5.2.2 10.3.3 14.2.1 3.9.1 6.4.1 6.4s-.1-2.6-.2-6.4c-.1-3.9-.3-9-.4-14.2-.1-5.2-.2-10.3-.3-14.2-.1-3.8-.1-6.4-.1-6.4zM319.8 72.7s.1 2.5.2 6.2.2 8.8.4 13.7c.1 5 .2 10 .3 13.7 0 3.8.1 6.2.1 6.2s-.1-2.5-.2-6.2-.2-8.8-.4-13.7c-.1-5-.2-10-.3-13.7-.1-3.7-.1-6.2-.1-6.2zM320.5 65.8s.1 2.8.2 6.9c.1 4.2.2 9.7.4 15.2.1 5.6.2 11.1.3 15.2 0 4.2.1 6.9.1 6.9s-.1-2.8-.2-6.9c-.1-4.2-.2-9.7-.4-15.2-.1-5.6-.2-11.1-.3-15.2-.1-4.3-.1-6.9-.1-6.9zM321.4 66.1s.1 2.7.2 6.8.2 9.4.4 14.8c.1 5.4.2 10.8.2 14.8 0 4.1.1 6.8.1 6.8s-.1-2.7-.2-6.8-.2-9.4-.4-14.8c-.1-5.4-.2-10.8-.2-14.8-.1-4.1-.1-6.8-.1-6.8zM322.2 65.9s.1 2.8.2 7.1c.1 4.2.2 9.9.4 15.5.1 5.7.2 11.3.3 15.6 0 4.2.1 7.1.1 7.1s-.1-2.8-.2-7.1c-.1-4.2-.2-9.9-.4-15.5-.1-5.7-.2-11.3-.3-15.6-.1-4.3-.1-7.1-.1-7.1zM323.1 66.7s.1 2.7.2 6.8.2 9.5.4 14.9c.1 5.5.2 10.8.2 14.9l.1 6.8s-.1-2.7-.2-6.8-.2-9.5-.4-14.9c-.1-5.5-.2-10.8-.2-14.9s-.1-6.8-.1-6.8zM324.1 68.3s.1 2.8.2 7.1c.1 4.2.2 9.9.4 15.5.1 5.7.2 11.3.3 15.6 0 4.2.1 7.1.1 7.1s-.1-2.8-.2-7.1c-.1-4.2-.2-9.9-.4-15.5-.1-5.7-.2-11.3-.3-15.6 0-4.3-.1-7.1-.1-7.1zM325.1 69.8s.1 2.7.2 6.8.2 9.5.4 14.9c.1 5.5.2 10.8.2 14.9l.1 6.8s-.1-2.7-.2-6.8-.2-9.5-.4-14.9c-.1-5.5-.2-10.8-.2-14.9-.1-4.1-.1-6.8-.1-6.8zM326.1 71.4s.1 2.4.2 6c.1 3.5.2 8.4.4 13.1.1 4.7.2 9.5.3 13.1 0 3.5.1 6 .1 6s-.1-2.4-.2-6c-.1-3.5-.2-8.4-.4-13.1-.1-4.7-.2-9.5-.3-13.1-.1-3.5-.1-6-.1-6zM327 72.3s.1 2.4.2 5.9.2 8.3.4 13c.1 4.7.2 9.4.3 13 0 3.5.1 5.9.1 5.9s-.1-2.4-.2-5.9-.2-8.3-.4-13c-.1-4.7-.2-9.4-.3-13 0-3.5-.1-5.9-.1-5.9zM327.7 66.8s.1 2.8.2 7.1.3 9.9.4 15.6c.1 5.7.2 11.4.3 15.6.1 4.3.1 7.1.1 7.1s-.1-2.8-.2-7.1-.3-9.9-.4-15.6c-.1-5.7-.2-11.4-.3-15.6 0-4.3-.1-7.1-.1-7.1zM328.6 67.5s.1 2.7.2 6.8.3 9.5.4 15 .2 10.9.3 15c.1 4.1.1 6.9.1 6.9s-.1-2.7-.2-6.8-.3-9.5-.4-15c-.1-5.5-.2-10.9-.3-15 0-4.2-.1-6.9-.1-6.9zM329.5 69.1s.1 2.8.2 7.1.3 9.9.4 15.6c.1 5.7.2 11.4.3 15.6.1 4.3.1 7.1.1 7.1s-.1-2.8-.2-7.1-.3-9.9-.4-15.6c-.1-5.7-.2-11.4-.3-15.6 0-4.3-.1-7.1-.1-7.1zM330.4 69.9s.1 2.7.2 6.8.3 9.5.4 15c.1 5.5.2 10.9.3 15 .1 4.1.1 6.9.1 6.9s-.1-2.7-.2-6.8-.3-9.5-.4-15c-.1-5.5-.2-10.9-.3-15 0-4.2-.1-6.9-.1-6.9zM331.4 71.5s.1 2.8.2 7.1.3 9.9.4 15.6c.1 5.7.2 11.4.3 15.6.1 4.3.1 7.1.1 7.1s-.1-2.8-.2-7.1-.3-9.9-.4-15.6c-.1-5.7-.2-11.4-.3-15.6 0-4.3-.1-7.1-.1-7.1zM331.4 69s.1 2 .2 5.2.2 7.2.3 11.3c.1 4.1.2 8.3.2 11.4l.1 5.2s-.1-2-.2-5.2-.2-7.2-.3-11.3c-.1-4.1-.2-8.3-.2-11.4-.1-3.2-.1-5.2-.1-5.2zM332.2 67.4s.1 2.1.2 5.3c.1 3.1.2 7.3.3 11.6.1 4.2.2 8.4.2 11.6 0 3.1.1 5.3.1 5.3s-.1-2.1-.2-5.3-.2-7.3-.3-11.6c-.1-4.2-.2-8.4-.2-11.6-.1-3.2-.1-5.3-.1-5.3zM333.1 68.1s.1 2 .2 5 .2 7 .3 11.1c.1 4 .1 8 .2 11.1 0 3 .1 5 .1 5s-.1-2-.2-5-.2-7-.3-11.1c-.1-4-.1-8-.2-11.1-.1-3.1-.1-5-.1-5zM334 68.9s.1 2.1.2 5.4.2 7.5.3 11.9c.1 4.3.2 8.6.2 11.9 0 3.2.1 5.4.1 5.4s-.1-2.1-.2-5.4c-.1-3.2-.2-7.5-.3-11.9-.1-4.3-.2-8.6-.2-11.9-.1-3.3-.1-5.4-.1-5.4zM334.9 69.3s.1 2 .2 5.2c.1 3.1.2 7.2.3 11.4.1 4.2.2 8.3.2 11.4 0 3.1.1 5.2.1 5.2s-.1-2-.2-5.2c-.1-3.1-.2-7.2-.3-11.4-.1-4.2-.2-8.3-.2-11.4-.1-3.2-.1-5.2-.1-5.2zM335.8 69.3s.1 2.3.2 5.7.2 7.9.4 12.6c.1 4.5.2 9.1.2 12.6 0 3.4.1 5.7.1 5.7s-.1-2.3-.2-5.7-.2-7.9-.4-12.6c-.1-4.5-.2-9.1-.2-12.6-.1-3.5-.1-5.7-.1-5.7zM336.6 69.3s.1 2.3.2 5.6.2 7.8.3 12.2c.1 4.4.2 8.9.2 12.2 0 3.3.1 5.6.1 5.6s-.1-2.3-.2-5.6-.2-7.8-.3-12.2c-.1-4.4-.2-8.9-.2-12.2-.1-3.5-.1-5.6-.1-5.6zM337.6 69.7s.1 2.4.2 6 .2 8.5.4 13.2c.1 4.8.2 9.7.3 13.2 0 3.6.1 6 .1 6s-.1-2.4-.2-6-.2-8.5-.4-13.2c-.1-4.8-.2-9.7-.3-13.2-.1-3.6-.1-6-.1-6zM338.2 69.7s.1 2 .2 5.2.2 7.2.3 11.4c.1 4.1.2 8.3.2 11.4l.1 5.2s-.1-2-.2-5.2-.2-7.2-.3-11.4c-.1-4.1-.2-8.3-.2-11.4 0-3.1-.1-5.2-.1-5.2zM339.2 70.7s.1 2.1.2 5.4.2 7.4.3 11.7c.1 4.3.2 8.5.2 11.7 0 3.2.1 5.4.1 5.4s-.1-2.1-.2-5.4c-.1-3.2-.2-7.4-.3-11.7-.1-4.3-.2-8.5-.2-11.7-.1-3.3-.1-5.4-.1-5.4zM340.1 71.1s.1 2 .2 5.2c.1 3.1.2 7.2.3 11.4.1 4.1.2 8.3.2 11.4 0 3.1.1 5.2.1 5.2s-.1-2-.2-5.2c-.1-3.1-.2-7.2-.3-11.4-.1-4.1-.2-8.3-.2-11.4-.1-3-.1-5.2-.1-5.2zM340.9 68.9s.1 2.3.2 5.6.2 7.8.4 12.3c.1 4.5.2 9 .2 12.3 0 3.3.1 5.6.1 5.6s-.1-2.3-.2-5.6-.2-7.8-.4-12.3c-.1-4.5-.2-9-.2-12.3-.1-3.4-.1-5.6-.1-5.6zM341.8 69.3s.1 2.1.2 5.5c.1 3.2.2 7.6.3 12 .1 4.4.2 8.7.2 12 0 3.2.1 5.5.1 5.5s-.1-2.1-.2-5.5c-.1-3.2-.2-7.6-.3-12-.1-4.4-.2-8.7-.2-12-.1-3.4-.1-5.5-.1-5.5zM342.7 70.3s.1 2.3.2 5.6.2 7.8.4 12.3c.1 4.5.2 9 .2 12.3 0 3.3.1 5.6.1 5.6s-.1-2.3-.2-5.6-.2-7.8-.4-12.3c-.1-4.5-.2-9-.2-12.3-.1-3.4-.1-5.6-.1-5.6zM343.5 67.8s.1 2.4.2 6c.1 3.5.2 8.4.4 13.1.1 4.8.2 9.5.3 13.1 0 3.5.1 6 .1 6s-.1-2.4-.2-6c-.1-3.5-.2-8.4-.4-13.1-.1-4.8-.2-9.5-.3-13.1-.1-3.6-.1-6-.1-6zM344.3 66.9s.1 2.6.2 6.4c.1 3.9.3 9 .4 14.2s.2 10.3.3 14.2c.1 3.9.1 6.4.1 6.4s-.1-2.6-.2-6.4c-.1-3.9-.3-9-.4-14.2-.1-5.2-.2-10.3-.3-14.2 0-3.8-.1-6.4-.1-6.4zM345.4 67.8s.1 2.5.2 6.2c.1 3.8.2 8.8.4 13.7.1 5 .2 10 .3 13.7 0 3.8.1 6.2.1 6.2s-.1-2.5-.2-6.2c-.1-3.8-.2-8.8-.4-13.7-.1-5-.2-10-.3-13.7-.1-3.6-.1-6.2-.1-6.2zM346.3 68.9s.1 2.6.2 6.4.3 9 .4 14.2c.1 5.2.2 10.3.3 14.2.1 3.9.1 6.4.1 6.4s-.1-2.6-.2-6.4c-.1-3.9-.3-9-.4-14.2-.1-5.2-.2-10.3-.3-14.2 0-3.9-.1-6.4-.1-6.4zM347.1 69.3s.1 2.5.2 6.2.2 8.8.4 13.7c.1 5 .2 10 .3 13.7 0 3.8.1 6.2.1 6.2s-.1-2.5-.2-6.2c-.1-3.8-.2-8.8-.4-13.7-.1-5-.2-10-.3-13.7 0-3.6-.1-6.2-.1-6.2zM347.9 62.3s.1 2.8.2 6.9c.1 4.2.2 9.7.4 15.2.1 5.6.2 11.1.3 15.2 0 4.2.1 6.9.1 6.9s-.1-2.8-.2-6.9c-.1-4.2-.2-9.7-.4-15.2-.1-5.6-.2-11.1-.3-15.2 0-4.1-.1-6.9-.1-6.9zM348.7 62.8s.1 2.7.2 6.8.2 9.4.4 14.8c.1 5.4.2 10.8.2 14.8 0 4.1.1 6.8.1 6.8s-.1-2.7-.2-6.8-.2-9.4-.4-14.8c-.1-5.4-.2-10.8-.2-14.8-.1-4.2-.1-6.8-.1-6.8zM349.6 62.5s.1 2.8.2 7.1c.1 4.2.2 9.9.4 15.5.1 5.7.2 11.3.3 15.6 0 4.2.1 7.1.1 7.1s-.1-2.8-.2-7.1c-.1-4.2-.2-9.9-.4-15.5-.1-5.7-.2-11.3-.3-15.6 0-4.3-.1-7.1-.1-7.1zM350.6 63.3s.1 2.7.2 6.8.2 9.5.4 14.9c.1 5.5.2 10.8.2 14.9l.1 6.8s-.1-2.7-.2-6.8-.2-9.5-.4-14.9c-.1-5.5-.2-10.8-.2-14.9-.1-4-.1-6.8-.1-6.8zM351.5 65s.1 2.8.2 7.1c.1 4.2.2 9.9.4 15.5.1 5.7.2 11.3.3 15.6 0 4.2.1 7.1.1 7.1s-.1-2.8-.2-7.1c-.1-4.2-.2-9.9-.4-15.5-.1-5.7-.2-11.3-.3-15.6-.1-4.3-.1-7.1-.1-7.1zM352.5 66.5s.1 2.7.2 6.8.2 9.5.4 14.9c.1 5.5.2 10.8.2 14.9s.1 6.8.1 6.8-.1-2.7-.2-6.8-.2-9.5-.4-14.9c-.1-5.5-.2-10.8-.2-14.9s-.1-6.8-.1-6.8zM353.5 68.1s.1 2.4.2 6c.1 3.5.2 8.4.4 13.1.1 4.7.2 9.5.3 13.1 0 3.5.1 6 .1 6s-.1-2.4-.2-6c-.1-3.5-.2-8.4-.4-13.1-.1-4.7-.2-9.5-.3-13.1 0-3.6-.1-6-.1-6zM354.3 66.4s.1 2.5.2 6.3.2 8.8.4 13.8c.1 5 .2 10.1.3 13.8 0 3.8.1 6.3.1 6.3s-.1-2.5-.2-6.3-.2-8.8-.4-13.8c-.1-5-.2-10.1-.3-13.8-.1-3.7-.1-6.3-.1-6.3zM355.2 63.4s.1 2.8.2 7.1.3 9.9.4 15.6c.1 5.7.2 11.4.3 15.6.1 4.3.1 7.1.1 7.1s-.1-2.8-.2-7.1-.3-9.9-.4-15.6c-.1-5.7-.2-11.4-.3-15.6-.1-4.2-.1-7.1-.1-7.1zM356 64s.1 2.7.2 6.8.3 9.5.4 15c.1 5.5.2 10.9.3 15 .1 4.1.1 6.9.1 6.9s-.1-2.7-.2-6.8-.3-9.5-.4-15c-.1-5.5-.2-10.9-.3-15-.1-4.1-.1-6.9-.1-6.9zM357 65.8s.1 2.8.2 7.1.3 9.9.4 15.6c.1 5.7.2 11.4.3 15.6.1 4.3.1 7.1.1 7.1s-.1-2.8-.2-7.1-.3-9.9-.4-15.6c-.1-5.7-.2-11.4-.3-15.6-.1-4.4-.1-7.1-.1-7.1zM357.9 66.5s.1 2.7.2 6.8.3 9.5.4 15c.1 5.5.2 10.9.3 15 .1 4.1.1 6.9.1 6.9s-.1-2.7-.2-6.8-.3-9.5-.4-15-.2-10.9-.3-15c-.1-4.1-.1-6.9-.1-6.9zM358.7 64s.1 3.1.3 7.7c.1 4.6.3 10.8.5 17.1.1 6.2.3 12.3.3 17.1.1 4.6.1 7.7.1 7.7s-.1-3.1-.3-7.7c-.1-4.6-.3-10.8-.5-17.1-.1-6.2-.3-12.3-.3-17.1-.1-4.6-.1-7.7-.1-7.7zM359.4 57.9s.1 2.1.2 5.5c.1 3.2.2 7.6.3 11.9.1 4.3.2 8.7.2 11.9 0 3.2.1 5.5.1 5.5s-.1-2.1-.2-5.5c-.1-3.2-.2-7.6-.3-11.9-.1-4.3-.2-8.7-.2-11.9-.1-3.2-.1-5.5-.1-5.5zM360.2 56.3s.1 2.3.2 5.6.2 7.7.3 12.1c.1 4.4.2 8.9.2 12.2 0 3.3.1 5.6.1 5.6s-.1-2.3-.2-5.6-.2-7.7-.3-12.1c-.1-4.4-.2-8.9-.2-12.2-.1-3.3-.1-5.6-.1-5.6zM361.1 57.1s.1 2.1.2 5.3c.1 3.2.2 7.4.3 11.6.1 4.2.2 8.5.2 11.6 0 3.2.1 5.3.1 5.3s-.1-2.1-.2-5.3c-.1-3.2-.2-7.4-.3-11.6-.1-4.2-.2-8.5-.2-11.6-.1-3.2-.1-5.3-.1-5.3zM362 57.9s.1 2.3.2 5.7c.1 3.4.2 7.9.4 12.6.1 4.5.2 9.1.2 12.6 0 3.4.1 5.7.1 5.7s-.1-2.3-.2-5.7-.2-7.9-.4-12.6c-.1-4.5-.2-9.1-.2-12.6-.1-3.4-.1-5.7-.1-5.7zM362.9 58.4s.1 2.1.2 5.5.2 7.6.3 12c.1 4.4.2 8.7.2 12 .1 3.2.1 5.4.1 5.4s-.1-2.1-.2-5.5c-.1-3.3-.2-7.6-.3-12-.1-4.4-.2-8.7-.2-12-.1-3.3-.1-5.4-.1-5.4zM363.8 58.4s.1 2.4.2 6 .2 8.4.4 13.2c.1 4.8.2 9.7.3 13.2 0 3.6.1 6 .1 6s-.1-2.4-.2-6-.2-8.4-.4-13.2c-.1-4.8-.2-9.7-.3-13.2-.1-3.7-.1-6-.1-6zM364.6 58.2s.1 2.4.2 5.9c.1 3.5.2 8.3.4 12.9.1 4.7.2 9.4.3 12.9 0 3.5.1 5.9.1 5.9s-.1-2.4-.2-5.9-.2-8.3-.4-12.9c-.1-4.7-.2-9.4-.3-12.9-.1-3.5-.1-5.9-.1-5.9zM365.6 58.8s.1 2.6.2 6.3c.1 3.9.2 8.9.4 13.9.1 5 .2 10.2.3 13.9.1 3.9.1 6.3.1 6.3s-.1-2.6-.2-6.3c-.1-3.9-.2-8.9-.4-13.9-.1-5-.2-10.2-.3-13.9-.1-3.9-.1-6.3-.1-6.3zM366.2 58.8s.1 2.1.2 5.5c.1 3.2.2 7.6.4 12 .1 4.4.2 8.7.2 12 0 3.2.1 5.5.1 5.5s-.1-2.1-.2-5.5c-.1-3.2-.2-7.6-.4-12-.1-4.4-.2-8.7-.2-12 0-3.4-.1-5.5-.1-5.5zM367.2 59.7s.1 2.3.2 5.6.2 7.8.4 12.3c.1 4.5.2 9 .2 12.3 0 3.3.1 5.6.1 5.6s-.1-2.3-.2-5.6-.2-7.8-.4-12.3c-.1-4.5-.2-9-.2-12.3-.1-3.3-.1-5.6-.1-5.6zM368.1 60.3s.1 2.1.2 5.5c.1 3.2.2 7.6.4 12 .1 4.4.2 8.7.2 12 0 3.2.1 5.5.1 5.5s-.1-2.1-.2-5.5c-.1-3.2-.2-7.6-.4-12-.1-4.4-.2-8.7-.2-12 0-3.3-.1-5.5-.1-5.5zM368.9 57.9s.1 2.4.2 5.9.2 8.3.4 13c.1 4.7.2 9.4.3 13 0 3.5.1 5.9.1 5.9s-.1-2.4-.2-5.9-.2-8.3-.4-13c-.1-4.7-.2-9.4-.3-13 0-3.5-.1-5.9-.1-5.9zM369.8 58.4s.1 2.3.2 5.8c.1 3.4.2 8 .4 12.7.1 4.6.2 9.2.2 12.7l.1 5.8s-.1-2.3-.2-5.8c-.1-3.4-.2-8-.4-12.7-.1-4.6-.2-9.2-.2-12.7-.1-3.6-.1-5.8-.1-5.8zM370.7 59.4s.1 2.4.2 5.9c.1 3.5.2 8.3.4 13 .1 4.7.2 9.4.3 13 0 3.5.1 5.9.1 5.9s-.1-2.4-.2-5.9-.2-8.3-.4-13c-.1-4.7-.2-9.4-.3-13-.1-3.5-.1-5.9-.1-5.9zM371.5 56.7s.1 2.5.2 6.3.2 8.8.4 13.8c.1 5 .2 10.1.3 13.8 0 3.8.1 6.3.1 6.3s-.1-2.5-.2-6.3-.2-8.8-.4-13.8c-.1-5-.2-10.1-.3-13.8 0-3.8-.1-6.3-.1-6.3zM372.3 55.8s.1 2.7.2 6.8.3 9.4.4 14.9c.1 5.5.2 10.8.3 14.9.1 4.1.1 6.8.1 6.8s-.1-2.7-.2-6.8-.3-9.4-.4-14.9c-.1-5.5-.2-10.8-.3-14.9.1-4-.1-6.8-.1-6.8zM373.4 56.7s.1 2.7.2 6.7.3 9.2.4 14.6c.1 5.3.2 10.6.3 14.6.1 4 .1 6.7.1 6.7s-.1-2.7-.2-6.7-.3-9.2-.4-14.6c-.1-5.3-.2-10.6-.3-14.6-.1-4-.1-6.7-.1-6.7zM374.3 57.8s.1 2.7.2 6.8.3 9.4.4 14.9.2 10.8.3 14.9c.1 4.1.1 6.8.1 6.8s-.1-2.7-.2-6.8-.3-9.4-.4-14.9-.2-10.8-.3-14.9c0-4-.1-6.8-.1-6.8zM375.1 56.7s.1 2.8.2 6.9c.1 4.1.3 9.7.4 15.1.1 5.5.2 10.9.3 15.1.1 4.1.1 6.9.1 6.9s-.1-2.8-.2-6.9-.3-9.7-.4-15.1c-.1-5.5-.2-10.9-.3-15.1 0-4.1-.1-6.9-.1-6.9zM375.9 51.1s.1 2.9.2 7.3.2 10.2.4 16.1c.1 5.8.2 11.7.3 16.1 0 4.4.1 7.3.1 7.3s-.1-2.9-.2-7.3-.2-10.2-.4-16.1c-.1-5.8-.2-11.7-.3-16.1 0-4.4-.1-7.3-.1-7.3zM376.7 51.5s.1 2.9.2 7.1c.1 4.3.2 10 .4 15.7.1 5.7.2 11.4.3 15.7 0 4.3.1 7.1.1 7.1s-.1-2.9-.2-7.1c-.1-4.3-.2-10-.4-15.7-.1-5.7-.2-11.4-.3-15.7-.1-4.3-.1-7.1-.1-7.1zM377.6 51.2s.1 3 .2 7.4c.1 4.5.3 10.4.4 16.3s.2 11.9.3 16.3c.1 4.5.1 7.4.1 7.4s-.1-3-.2-7.4c-.1-4.5-.3-10.4-.4-16.3s-.2-11.9-.3-16.3c0-4.4-.1-7.4-.1-7.4zM378.6 52s.1 2.9.2 7.2.2 10 .4 15.8c.1 5.7.2 11.5.3 15.8 0 4.3.1 7.2.1 7.2s-.1-2.9-.2-7.2-.2-10-.4-15.8c-.1-5.7-.2-11.5-.3-15.8-.1-4.3-.1-7.2-.1-7.2zM379.5 53.7s.1 3 .2 7.4c.1 4.5.3 10.4.4 16.3.1 5.9.2 11.9.3 16.3.1 4.5.1 7.4.1 7.4s-.1-3-.2-7.4c-.1-4.5-.3-10.4-.4-16.3s-.2-11.9-.3-16.3c-.1-4.4-.1-7.4-.1-7.4zM380.5 52.2s.1 3.1.2 7.6c.1 4.6.3 10.7.4 16.8.1 6.1.2 12.2.3 16.8.1 4.6.1 7.6.1 7.6s-.1-3.1-.2-7.6c-.1-4.6-.3-10.7-.4-16.8s-.2-12.2-.3-16.8c-.1-4.6-.1-7.6-.1-7.6zM381.4 51.4s.1 2.9.2 7.2.3 10.1.4 15.8c.1 5.8.2 11.5.3 15.8.1 4.3.1 7.2.1 7.2s-.1-2.9-.2-7.2c-.1-4.3-.3-10.1-.4-15.8-.1-5.8-.2-11.5-.3-15.8 0-4.4-.1-7.2-.1-7.2zM382.4 58s.1 2.5.2 6.2c.1 3.8.2 8.7.4 13.6.1 4.9.2 10 .3 13.6 0 3.8.1 6.2.1 6.2s-.1-2.5-.2-6.2-.2-8.7-.4-13.6c-.1-4.9-.2-10-.3-13.6-.1-3.7-.1-6.2-.1-6.2zM382.4 50.1s.1 3.1.3 7.8c.1 4.7.3 10.9.5 17.3.1 6.3.3 12.6.4 17.3l.1 7.8s-.1-3.1-.3-7.8c-.1-4.7-.3-10.9-.5-17.3-.1-6.3-.3-12.6-.4-17.3 0-4.7-.1-7.8-.1-7.8zM383.3 49.8s.1 3.1.3 7.7c.2 4.6.4 10.7.8 16.8.2 6.1.4 12.3.5 16.8.1 4.6.2 7.7.2 7.7s-.1-3.1-.3-7.7c-.2-4.6-.4-10.7-.8-16.8-.2-6.1-.4-12.3-.5-16.8-.1-4.7-.2-7.7-.2-7.7zM384.1 48.9s.1 3.1.3 7.7c.2 4.6.4 10.7.8 16.8.2 6.1.4 12.3.5 16.8.1 4.6.2 7.7.2 7.7s-.1-3.1-.3-7.7c-.2-4.6-.4-10.7-.8-16.8-.2-6.1-.4-12.3-.5-16.8 0-4.6-.2-7.7-.2-7.7zM385 48.3s.1 3.1.3 7.7c.2 4.6.4 10.7.8 16.8.2 6.1.4 12.3.5 16.8.1 4.6.2 7.7.2 7.7s-.1-3.1-.3-7.7c-.2-4.6-.4-10.7-.8-16.8-.2-6.1-.4-12.3-.5-16.8-.1-4.7-.2-7.7-.2-7.7zM386 47.5s.1 3.1.3 7.7c.2 4.6.4 10.7.8 16.8.2 6.1.4 12.3.5 16.8.1 4.6.2 7.7.2 7.7s-.1-3.1-.3-7.7-.4-10.7-.8-16.8c-.2-6.1-.4-12.3-.5-16.8-.2-4.7-.2-7.7-.2-7.7zM386.7 44.7s.1 3.1.3 7.7.4 10.7.8 16.8c.2 6.1.4 12.3.5 16.8.1 4.6.2 7.7.2 7.7s-.1-3.1-.3-7.7c-.2-4.6-.4-10.7-.8-16.8-.2-6.1-.4-12.3-.5-16.8-.2-4.6-.2-7.7-.2-7.7zM387.6 44s.1 3.1.3 7.7c.2 4.6.4 10.7.8 16.8.2 6.1.4 12.3.5 16.8.1 4.6.2 7.7.2 7.7s-.1-3.1-.3-7.7c-.2-4.6-.4-10.7-.8-16.8-.2-6.1-.4-12.3-.5-16.8-.1-4.6-.2-7.7-.2-7.7zM388.4 43.3s.1 3.1.3 7.7c.2 4.6.4 10.7.8 16.8.2 6.1.4 12.3.5 16.8.1 4.6.2 7.7.2 7.7s-.1-3.1-.3-7.7c-.2-4.6-.4-10.7-.8-16.8-.2-6.1-.4-12.3-.5-16.8-.1-4.7-.2-7.7-.2-7.7zM389.2 39.7s.1 3.1.3 7.7.4 10.7.8 16.8c.2 6.1.4 12.3.5 16.8.1 4.6.2 7.7.2 7.7s-.1-3.1-.3-7.7c-.2-4.6-.4-10.7-.8-16.8-.2-6.1-.4-12.3-.5-16.8-.1-4.7-.2-7.7-.2-7.7zM389.8 39.1s.1 3.1.3 7.7c.2 4.6.4 10.7.8 16.8.2 6.1.4 12.3.5 16.8.1 4.6.2 7.7.2 7.7s-.1-3.1-.3-7.7c-.2-4.6-.4-10.7-.8-16.8-.2-6.1-.4-12.3-.5-16.8-.1-4.6-.2-7.7-.2-7.7zM385 54.6s.1 3 .2 7.5.3 10.4.4 16.4c.1 6 .2 11.9.3 16.4.1 4.5.1 7.5.1 7.5s-.1-3-.2-7.5-.3-10.4-.4-16.4c-.1-6-.2-11.9-.3-16.4-.1-4.5-.1-7.5-.1-7.5zM385.9 55.5s.1 2.9.2 7.2.3 10.1.4 15.8c.1 5.8.2 11.5.3 15.8.1 4.3.1 7.2.1 7.2s-.1-2.9-.2-7.2c-.1-4.3-.3-10.1-.4-15.8-.1-5.8-.2-11.5-.3-15.8-.1-4.3-.1-7.2-.1-7.2zM386.8 57.2s.1 3 .2 7.5.3 10.4.4 16.4c.1 6 .2 11.9.3 16.4.1 4.5.1 7.5.1 7.5s-.1-3-.2-7.5-.3-10.4-.4-16.4-.2-11.9-.3-16.4c-.1-4.5-.1-7.5-.1-7.5z"/><path class="st23" d="M303 92.8l-44.4-1.9-.4-16.7 45.6 2.6z"/><linearGradient id="SVGID_3_" gradientUnits="userSpaceOnUse" x1="285.459" y1="524.201" x2="286.368" y2="541.56" gradientTransform="matrix(1 -.026 -.026 -1 8.473 621.821)"><stop offset="0" stop-color="#fff"/><stop offset=".183" stop-color="#FBFBFB"/><stop offset=".346" stop-color="#F1F1F1"/><stop offset=".501" stop-color="#DFDFDF"/><stop offset=".65" stop-color="#C5C5C5"/><stop offset=".796" stop-color="#A4A4A4"/><stop offset=".938" stop-color="#7C7C7C"/><stop offset="1" stop-color="#696969"/></linearGradient><path class="st24" d="M302.9 91.1l-44.4-2-.4-16.6 45.6 2.6z"/><path class="st25" d="M270.3 80.8s-1.4-1.4-2.9-.4c-1.3.8-1.4 2.7-.2 3.5.6.4 1.6.6 3.1.1M273.4 84.7v-2.9"/><ellipse transform="matrix(-.026 -1 1 -.026 195.887 357.431)" class="st25" cx="272.1" cy="83.2" rx="1.4" ry="1.3"/><path class="st25" d="M274.4 80l.1 5M286.7 80.6l.1 4.8M275 82.2l1.3 2.7c0 .1.1.1.1 0l1.1-2.6M278.3 82.4v2.7M278.1 80.2v.7M291.4 82.9l.2 2.6M291.3 80.8l.1.5M279.2 85.1l-.1-2.7s1.5-.8 2 .5l.1 2.1M292.4 85.6l-.1-2.7s1.5-.8 2 .5l.1 2.1M283.1 80.7l.1 4.6M285.9 80.6l-2.8 2.6M283.6 82.7l2.1 2.6M287.7 83.9l2.7-.1s-.1-1.3-1.3-1.2c0 0-1.4-.1-1.3 1.4 0 0 0 1.5 1.6 1.5 0 0 1-.2 1.1-1"/><path class="st26" d="M393.3 31.1s-1 6.7-2.1 8.8c-19.7 40.7-100.9 35.7-100.9 35.7-46.8-.8-68.6-8.6-75.1-11.6-1.6-.8-3.3-1.4-5-2-25.1-9.1-25.8-29.7-25.8-29.7-1-4.9 1.5-3.5 1.5-3.5l10.3 9.3c27.9 20 63.3 22.4 72.4 22.7l5.6.3c82 6.5 107-24.8 107-24.8l9.2-8.7c0 .1 3.5-1.5 2.9 3.5z"/><path class="st10" d="M185.1 36.2s0 .2.1.6c.1.4.3.9.5 1.4.4 1 1 1.9 1 1.9h-.1s-.5-1-1-1.9c-.2-.5-.3-1-.4-1.4-.1-.3-.1-.6-.1-.6zM189.2 43.7s.6.9 1.4 1.6l1.5 1.5-.1.2-1.5-1.5c-.8-.8-1.4-1.6-1.4-1.6l.1-.2zM195.4 49.6s.9.6 1.7 1.3c.9.6 1.9 1.1 1.9 1.1l-.2.3s-.9-.6-1.7-1.2c-.9-.6-1.7-1.3-1.7-1.3v-.2zM202.6 54.2s1 .5 1.9 1c1 .4 1.9 1 1.9 1l-.2.4s-1-.5-1.9-1c-1-.5-1.9-1.1-1.9-1.1l.2-.3zM210.2 57.8l4.1 1.6-.3.6-4-1.6zM218.3 60.8l4.1 1.3-.3.8-4-1.4zM226.5 63.3l4.1 1.1-.1.7-4.2-1.1zM234.8 65.2l4.2.9-.1.8-4.2-.8zM243.3 66.8l4.2.8-.1.8-4.3-.6zM251.7 68.2l4.2.6-.1.9-4.3-.6zM260.2 69.2l4.3.4-.1 1-4.3-.4zM268.7 70l4.3.4-.1.9-4.2-.3zM277.3 70.6l4.3.2-.1 1.1-4.2-.2zM285.9 71l3.8.1h.1l.4.1-.1 1.1-.5-.1h.1l-3.9-.1zM294.5 71.4l4.2.3-.1 1-4.3-.2zM302.9 71.8l4.3-.1.1 1h-4.3zM311.5 71.5l4.3-.3.1 1-4.3.3zM320.1 70.9l4.2-.5.1.9-4.2.6zM328.6 69.8l4.2-.7.2.9-4.3.8zM336.9 68.3l4.2-.9.2.8-4.1 1zM345.3 66.3l4.1-1.3.2.8-4.1 1.2zM353.4 63.6l4-1.5.2.7-3.9 1.6zM361.3 60.4l3.9-1.9.2.5-3.8 1.9zM368.8 56.3s.9-.5 1.8-1.1c.9-.5 1.8-1.2 1.8-1.2l.3.4-1.8 1.2c-.9.5-1.8 1.2-1.8 1.2l-.3-.5zM375.9 51.5s.9-.6 1.7-1.3c.9-.6 1.6-1.4 1.6-1.4l.2.3s-.8.8-1.6 1.4c-.9.6-1.7 1.4-1.7 1.4l-.2-.4zM382.4 45.9l1.5-1.5c.8-.8 1.4-1.6 1.4-1.6l.2.1s-.6.9-1.4 1.6c-.8.8-1.5 1.6-1.5 1.6l-.2-.2zM388 39.5s.6-.9 1.3-1.7c.6-.9 1.2-1.7 1.2-1.7h.1s-.5.9-1.2 1.8c-.6.9-1.3 1.7-1.3 1.7l-.1-.1zM392.7 32.4l.2-.2-.2.2z"/><linearGradient id="SVGID_4_" gradientUnits="userSpaceOnUse" x1="403.606" y1="543.935" x2="169.128" y2="543.935" gradientTransform="matrix(1 .01 .01 -1 -3.135 613.592)"><stop offset="0" stop-color="#D3BF98"/><stop offset=".041" stop-color="#DDCCA5"/><stop offset=".122" stop-color="#ECE0B9"/><stop offset=".214" stop-color="#F7EEC7"/><stop offset=".327" stop-color="#FDF7D0"/><stop offset=".522" stop-color="#FFF9D2"/><stop offset=".769" stop-color="#FEF7D0"/><stop offset=".858" stop-color="#F8F0C9"/><stop offset=".922" stop-color="#EFE5BE"/><stop offset=".973" stop-color="#E3D4AD"/><stop offset="1" stop-color="#D9C7A0"/></linearGradient><path class="st27" d="M185.8 28.6s-1.9-1.7-4-.9c-1 .4-1.8.8-2.9.8-2.3.1-6 .8-7.1 2.9 0 0-6 18.8 40.1 59.8 0 0 54.3 50 135.4 14.2 3.5-1.6 7-3.4 10.2-5.7 13.4-9 47.1-34.8 48.5-64.4.1-1.5-.5-2.9-1.6-4-2.3-1.9-6.7-4.6-13.9-3.5l.6.3c1.4.8 2.1 2.3 1.8 3.8-.8 4.8-2.7 15-6.8 20.3-1.3 1.6-2.5 3.2-3.5 4.9-7.5 12-39.2 53.4-112.8 46.2-6.8-.6-13.3-2.4-19.5-5-14.1-6.1-39.1-20.2-58-48.5-.1.4-11.4-15.6-6.5-21.2z"/><path class="st10" d="M171.8 31.5s.3 1 .8 2l.8 2h-.1l-.8-2c-.4-.9-.7-2-.7-2zM175 39.5l1.9 3.9h-.1l-1.9-3.8zM178.8 47.2l2.1 3.7-.2.2-2-3.8zM183.2 54.6l2.2 3.6-.3.3-2.2-3.7zM187.9 61.7l2.6 3.5-.4.2-2.5-3.4zM193.1 68.5l2.7 3.4-.4.3-2.7-3.3zM198.7 75l2.9 3.1-.4.4-2.9-3.1zM204.6 81.1l3.3 2.9-.5.5-3.2-2.9zM211.1 86.8l3.3 2.8-.4.5-3.3-2.8zM217.8 92l3.6 2.5-.4.7-3.6-2.5zM224.9 96.9l3.7 2.2-.5.7-3.6-2.3zM232.3 101.2l3.8 1.9-.3.7-3.8-1.9zM239.9 104.9l4 1.7-.3.9-4-1.7zM247.9 108.2l4.1 1.4-.4.9-4-1.4zM256 111l4.1 1.2-.2.9-4.2-1.2zM264.2 113.3l4.2.8-.2 1-4.2-1zM272.6 115l4.3.6-.3 1.1-4.1-.7zM281 116.1h4.3v1l-4.3-.1zM289.6 116.1l4.3-.2v1l-4.3.2zM298.1 115.5l4.3-.4.1 1.1-4.3.4zM306.7 114.7l4.2-.8.1 1-4.2.7zM315.1 113.2l4.1-.9.3 1-4.2.8zM323.4 111.4l4.2-1.2.2.8-4.2 1.2zM331.7 109l4-1.4.3.9-4.1 1.4zM339.7 106.1l4-1.6.3.7-3.9 1.6zM347.6 102.7l3.8-1.9.3.7-3.8 1.9zM355.2 98.8l3.6-2.3.5.7-3.8 2.2zM362.5 94.3l3.4-2.5.4.6-3.5 2.4zM369.3 89.3l3.4-2.7.4.4-3.3 2.8zM375.8 83.7l3.1-3 .4.4-3.1 3zM381.8 77.6l2.9-3.3.4.5-2.8 3.2zM387.4 71l2.5-3.4.4.3-2.5 3.4zM392.3 64l2.4-3.6.3.2-2.3 3.7zM396.8 56.7l1.9-3.7.3.1-2 3.7zM400.7 49.1l1.7-3.9.1.1-1.7 3.8zM404 41.2l1.4-4.1.1.1z"/></g></svg>