<svg xmlns="http://www.w3.org/2000/svg" viewBox="0 0 792 612" enable-background="new 0 0 792 612"><style type="text/css">.st0{fill:#EFAE9E;} .st1{fill:url(#SVGID_1_);} .st2{opacity:0.4;fill:#7F7F7F;} .st3{fill:url(#SVGID_2_);} .st4{fill:url(#SVGID_3_);} .st5{fill:url(#SVGID_4_);} .st6{fill:url(#SVGID_5_);} .st7{fill:url(#SVGID_6_);stroke:#382D26;stroke-miterlimit:10;} .st8{fill:url(#SVGID_7_);stroke:#382D26;stroke-miterlimit:10;} .st9{fill:url(#SVGID_8_);} .st10{fill:url(#SVGID_9_);} .st11{fill:#2F2321;} .st12{fill:#3F322A;} .st13{fill:url(#SVGID_10_);} .st14{fill:url(#SVGID_11_);} .st15{fill:url(#SVGID_12_);} .st16{fill:url(#SVGID_13_);} .st17{fill:url(#SVGID_14_);} .st18{fill:none;stroke:url(#SVGID_15_);stroke-miterlimit:10;} .st19{fill:none;stroke:url(#SVGID_16_);stroke-miterlimit:10;stroke-dasharray:3.9991,0.9998;} .st20{fill:none;stroke:url(#SVGID_17_);stroke-miterlimit:10;} .st21{fill:none;stroke:url(#SVGID_18_);stroke-miterlimit:10;} .st22{fill:none;stroke:url(#SVGID_19_);stroke-miterlimit:10;stroke-dasharray:4.0072,1.0018;} .st23{fill:none;stroke:url(#SVGID_20_);stroke-miterlimit:10;} .st24{fill:url(#SVGID_21_);} .st25{fill:url(#SVGID_22_);} .st26{fill:url(#SVGID_23_);} .st27{fill:url(#SVGID_24_);} .st28{fill:url(#SVGID_25_);} .st29{fill:url(#SVGID_26_);} .st30{fill:url(#SVGID_27_);} .st31{fill:url(#SVGID_28_);} .st32{fill:url(#SVGID_29_);} .st33{fill:url(#SVGID_30_);} .st34{fill:none;stroke:#B99B30;stroke-width:0.35;stroke-miterlimit:10;} .st35{fill:none;stroke:url(#SVGID_31_);stroke-width:0.15;stroke-miterlimit:10;} .st36{fill:none;stroke:url(#SVGID_32_);stroke-width:0.1;stroke-miterlimit:10;} .st37{fill:none;stroke:url(#SVGID_33_);stroke-width:0.1;stroke-miterlimit:10;} .st38{fill:none;stroke:url(#SVGID_34_);stroke-width:0.1;stroke-miterlimit:10;} .st39{fill:none;stroke:url(#SVGID_35_);stroke-width:0.1;stroke-miterlimit:10;} .st40{fill:none;stroke:url(#SVGID_36_);stroke-width:0.1;stroke-miterlimit:10;} .st41{fill:none;stroke:url(#SVGID_37_);stroke-width:0.1;stroke-miterlimit:10;} .st42{fill:none;stroke:url(#SVGID_38_);stroke-width:0.1;stroke-miterlimit:10;} .st43{fill:none;stroke:url(#SVGID_39_);stroke-width:0.1;stroke-miterlimit:10;} .st44{fill:none;stroke:url(#SVGID_40_);stroke-width:0.15;stroke-miterlimit:10;} .st45{fill:none;stroke:url(#SVGID_41_);stroke-width:0.15;stroke-miterlimit:10;} .st46{fill:none;stroke:url(#SVGID_42_);stroke-width:0.15;stroke-miterlimit:10;} .st47{fill:none;stroke:url(#SVGID_43_);stroke-width:0.15;stroke-miterlimit:10;} .st48{fill:none;stroke:url(#SVGID_44_);stroke-width:0.15;stroke-miterlimit:10;} .st49{fill:none;stroke:url(#SVGID_45_);stroke-width:0.15;stroke-miterlimit:10;} .st50{fill:none;stroke:url(#SVGID_46_);stroke-width:0.15;stroke-miterlimit:10;} .st51{fill:none;stroke:url(#SVGID_47_);stroke-width:0.15;stroke-miterlimit:10;} .st52{fill:none;stroke:url(#SVGID_48_);stroke-width:0.15;stroke-miterlimit:10;} .st53{fill:url(#SVGID_49_);} .st54{fill:url(#SVGID_50_);} .st55{fill:url(#SVGID_51_);} .st56{fill:url(#SVGID_52_);} .st57{fill:url(#SVGID_53_);} .st58{fill:url(#SVGID_54_);} .st59{fill:url(#SVGID_55_);} .st60{fill:url(#SVGID_56_);} .st61{fill:url(#SVGID_57_);} .st62{fill:url(#SVGID_58_);} .st63{fill:url(#SVGID_59_);} .st64{fill:url(#SVGID_60_);} .st65{fill:url(#SVGID_61_);} .st66{fill:url(#SVGID_62_);} .st67{fill:url(#SVGID_63_);} .st68{fill:url(#SVGID_64_);} .st69{fill:url(#SVGID_65_);} .st70{fill:url(#SVGID_66_);} .st71{fill:url(#SVGID_67_);} .st72{fill:url(#SVGID_68_);} .st73{opacity:0.21;} .st74{fill:#493F37;} .st75{opacity:0.1091;fill:#493E37;} .st76{opacity:0.4;fill:#2D2D2D;} .st77{fill:url(#SVGID_69_);stroke:#382D26;stroke-miterlimit:10;} .st78{fill:url(#SVGID_70_);} .st79{fill:url(#SVGID_71_);} .st80{fill:url(#SVGID_72_);} .st81{fill:url(#SVGID_73_);} .st82{fill:url(#SVGID_74_);} .st83{fill:url(#SVGID_75_);} .st84{fill:none;stroke:#B6952F;stroke-miterlimit:10;} .st85{fill:url(#SVGID_76_);} .st86{fill:#B6952F;} .st87{fill:url(#SVGID_77_);} .st88{fill:none;stroke:#B6952F;stroke-width:0.5;stroke-miterlimit:10;} .st89{fill:url(#SVGID_78_);} .st90{fill:none;stroke:url(#SVGID_79_);stroke-miterlimit:10;} .st91{fill:url(#SVGID_80_);} .st92{fill:url(#SVGID_81_);stroke:#382D26;stroke-miterlimit:10;} .st93{fill:url(#SVGID_82_);} .st94{fill:url(#SVGID_83_);} .st95{fill:url(#SVGID_84_);} .st96{fill:url(#SVGID_85_);} .st97{fill:url(#SVGID_86_);} .st98{fill:url(#SVGID_87_);} .st99{fill:url(#SVGID_88_);} .st100{fill:url(#SVGID_89_);} .st101{fill:url(#SVGID_90_);} .st102{fill:none;stroke:url(#SVGID_91_);stroke-miterlimit:10;} .st103{fill:url(#SVGID_92_);} .st104{fill:url(#SVGID_93_);}</style><path class="st0" d="M0 0h792v612h-792z" id="bg"/><g id="coach"><linearGradient id="SVGID_1_" gradientUnits="userSpaceOnUse" x1="478.204" y1="450.891" x2="446.149" y2="84.497"><stop offset="0" stop-color="#2F2321"/><stop offset=".488" stop-color="#3F322A"/><stop offset=".694" stop-color="#3C3029"/><stop offset=".947" stop-color="#332724"/><stop offset="1" stop-color="#312522"/></linearGradient><path class="st1" d="M158.1 138.6c-1.8-7.2 3.4-14.2 10.8-14.8 24.8-1.8 81-7.4 157.5-25.1 0 0 134-34.5 414.7 7.8l-75.8 307.7c-3.4 13.2-15.1 22.5-28.7 22.7l-379.2 7.7c-14.1.3-26.6-9.3-30-23l-69.3-283z"/><path class="st2" d="M355.2 458.9s-80 32.6-41.5 69.1c7.1 6.7 16 11.3 25.6 13.5 32.1 7.5 132.2 25.9 234.8-8.1 17.2-5.7 35.3-5.6 53.3-6.9 25.3-1.9 64.1-8.7 62.3-42.6l-7.6 4.6s13.9 17.3-49.5 29c-9.2 1.7-24.2 4-33.4 5.4-45.8 7.2-181.9 26.7-243.2 13.7-7.7-1.6-14.9-5.3-20.6-10.8-14-13.7-18.8-45.3 101-67.5l-81.2.6z"/><linearGradient id="SVGID_2_" gradientUnits="userSpaceOnUse" x1="110.205" y1="197.733" x2="118.484" y2="197.733"><stop offset=".261" stop-color="#E9B420"/><stop offset=".522" stop-color="#F4CA2D"/><stop offset=".625" stop-color="#F9D334"/><stop offset=".805" stop-color="#F9E538"/><stop offset=".861" stop-color="#FAED39"/></linearGradient><path class="st3" d="M114.3 193.6l-4.1 2.4s.3 4.2 3.5 5.9l4.8-2.4-4.2-5.9z"/><linearGradient id="SVGID_3_" gradientUnits="userSpaceOnUse" x1="135.651" y1="201.73" x2="134.6" y2="141.503"><stop offset=".261" stop-color="#E9B420"/><stop offset=".522" stop-color="#F4CA2D"/><stop offset=".625" stop-color="#F9D334"/><stop offset=".805" stop-color="#F9E538"/><stop offset=".861" stop-color="#FAED39"/></linearGradient><path class="st4" d="M157 157.9c-2.5-9.5-9.8-14.3-9.8-14.3l-7-2.1c-12.1-.8-15.1 11.2-15.1 11.2l-7 28.7c-6 3.9-5.5 9-3.8 12.9 1.9 4.4 6.2 7.4 11 7.7 10 .6 10.6-11.3 10.6-11.3l19.2-23.8c1.9-2.6 2.7-5.9 1.9-9zm-7.2 2.3c-.1 1.3-.7 2.6-1.4 3.5-.2.2-.5.5-.7.8l-18.4 22c-.7.8-1 1.9-.8 2.9.4 2 .5 5.4-2.3 5.5-.8 0-1.6-.3-2.3-.8-1.8-1.5-5.7-5.1-1.7-6.8.9-.4 1.7-1 2.4-1.7l.1-.1c.9-.9 1.6-2 1.8-3.2l5.4-26.8c.3-1.3.9-2.6 2-3.5 2.5-2.3 7.8-5.5 13.1.8 1.9 2 3 4.7 2.8 7.4z"/><linearGradient id="SVGID_4_" gradientUnits="userSpaceOnUse" x1="95.666" y1="204.333" x2="114.155" y2="204.333"><stop offset=".261" stop-color="#E9B420"/><stop offset=".522" stop-color="#F4CA2D"/><stop offset=".625" stop-color="#F9D334"/><stop offset=".805" stop-color="#F9E538"/><stop offset=".861" stop-color="#FAED39"/></linearGradient><path class="st5" d="M95.7 202.4s5.3-5.4 6.3-5.4c.3 0 6.5-2.2 6.5-2.2s5.7 3.6 5.7 9.4l-14.4 9.7-2.6-7"/><linearGradient id="SVGID_5_" gradientUnits="userSpaceOnUse" x1="87.581" y1="204.805" x2="108.645" y2="204.805"><stop offset=".261" stop-color="#E9B420"/><stop offset=".522" stop-color="#F4CA2D"/><stop offset=".625" stop-color="#F9D334"/><stop offset=".805" stop-color="#F9E538"/><stop offset=".861" stop-color="#FAED39"/></linearGradient><path class="st6" d="M87.7 212s-1.9-5 6.9-9.5c0 0 7.2-4.2 11-4.8 1.2-.2 2.5.5 2.9 1.7.3 1 0 2.2-2.5 3.1-1.2.4-2.3.9-3.3 1.5l-15 8z"/><linearGradient id="SVGID_6_" gradientUnits="userSpaceOnUse" x1="23.008" y1="343.309" x2="296.028" y2="343.309"><stop offset=".105" stop-color="#2F2321"/><stop offset=".751" stop-color="#3F322A"/><stop offset=".759" stop-color="#3F322A"/></linearGradient><path class="st7" d="M292.6 440.1c.5 6.4 1.5 13.1 3.4 20.1-37.9 1-65.4 2-65.4 2-184.8 7.3-205.6-115.1-205.6-115.1-13.5-63.6 47.1-123 47.1-123l6.2 10.9s-65.4 68-39.7 127.6c.3.7.6 1.4.9 2.2 3.9 9.5 45.3 99.9 194 79.8 0 .1 23-2.1 59.1-4.5z"/><linearGradient id="SVGID_7_" gradientUnits="userSpaceOnUse" x1="298.27" y1="452.487" x2="686.519" y2="452.487"><stop offset=".105" stop-color="#2F2321"/><stop offset=".751" stop-color="#3F322A"/><stop offset=".759" stop-color="#3F322A"/></linearGradient><path class="st8" d="M686.5 450.2l-43.7 19.9c-3.5-5.5-127.1-9.2-127.1-9.2-41.6-4.2-142.8-2.7-212.6-1-2.2-6.3-3.9-13.1-4.9-20.3 76.3-4.7 206.9-9.4 318.3 3.5 7.6.9 15.2 1.4 22.8 1.4 15.4.2 42.4 1 47.2 5.7z"/><linearGradient id="SVGID_8_" gradientUnits="userSpaceOnUse" x1="143.879" y1="131.537" x2="162.304" y2="131.537"><stop offset="0" stop-color="#2F2321"/><stop offset=".488" stop-color="#3F322A"/><stop offset=".694" stop-color="#3C3029"/><stop offset=".947" stop-color="#332724"/><stop offset="1" stop-color="#312522"/></linearGradient><path class="st9" d="M162.1 125.5c0-4.7-4.6-8.5-10.4-8.5-5.7 0-7.9 3.8-7.9 8.5s11.2 16.4 15.2 20c4.4 3.8 3.1-15.3 3.1-20zm-9.5 4.7c-1.7 0-3-2-3-4.4s1.4-4.4 3-4.4 3 2 3 4.4-1.3 4.4-3 4.4z"/><linearGradient id="SVGID_9_" gradientUnits="userSpaceOnUse" x1="138.934" y1="139.472" x2="155.302" y2="139.472"><stop offset=".393" stop-color="#F9D334"/><stop offset=".75" stop-color="#F9E538"/><stop offset=".861" stop-color="#FAED39"/></linearGradient><path class="st10" d="M151.7 123.2s-6.3.6-9.9 13.5c0 0-5.8 13.4-1 18.7 0 0 4.5 1.8 7.4-1.9 0 0-1.2-3.2-2.9-3.6 0 0 1-13.5 8.6-19.9.1-.1 4.2-6.8-2.2-6.8z"/><path class="st11" d="M716.3 206.9s9.8-11.5 12-13.6l-1.5 2.7s13 3.3 7.9 11.7l-18.4-.8z"/><path class="st12" d="M727.8 104.9s-2.6-12.5 6.4-12.5c2.3 0 13.2 2.9 13.2 2.9s-8.4 7-6.4 11.2l-13.2-1.6z"/><path class="st11" d="M747.4 95.3s7.4.4 4.2 8.8l-13.9 14.6 3.3-12.1s-3.1-4.3 6.4-11.3z"/><linearGradient id="SVGID_10_" gradientUnits="userSpaceOnUse" x1="754.181" y1="178.79" x2="773.283" y2="178.79" gradientTransform="matrix(.995 -.099 .099 .995 -27.555 82.341)"><stop offset=".261" stop-color="#E9B420"/><stop offset=".522" stop-color="#F4CA2D"/><stop offset=".625" stop-color="#F9D334"/><stop offset=".805" stop-color="#F9E538"/><stop offset=".861" stop-color="#FAED39"/></linearGradient><path class="st13" d="M740.3 182.3s5-6.3 6.1-6.4c.4 0 5.9 1.8 5.9 1.8s4.4-2.9 6.5.7c1.1 2 .6 4.5-1.1 5.9l-11.8 9.8-3.4-7.1"/><linearGradient id="SVGID_11_" gradientUnits="userSpaceOnUse" x1="745.613" y1="178.531" x2="767.934" y2="178.531" gradientTransform="matrix(.995 -.099 .099 .995 -27.555 82.341)"><stop offset=".261" stop-color="#E9B420"/><stop offset=".522" stop-color="#F4CA2D"/><stop offset=".625" stop-color="#F9D334"/><stop offset=".805" stop-color="#F9E538"/><stop offset=".861" stop-color="#FAED39"/></linearGradient><path class="st14" d="M733 193.3s-2.5-5.1 6.3-10.7c0 0 7-5.5 11.1-5.5 1.5 0 2.7-.6 3.2.7.4 1 .2 2.3-2.3 3.5-1.2.6-2.3 1.2-3.4 1.9l-14.9 10.1z"/><linearGradient id="SVGID_12_" gradientUnits="userSpaceOnUse" x1="734.203" y1="191.207" x2="752.252" y2="191.207"><stop offset="0" stop-color="#2F2321"/><stop offset=".488" stop-color="#3F322A"/><stop offset=".694" stop-color="#3C3029"/><stop offset=".947" stop-color="#332724"/><stop offset="1" stop-color="#312522"/></linearGradient><path class="st15" d="M744.6 197.8s7 .2 7.6-7.3c0 0-1.2-11.2-18-3 0 .1 10.4 1.9 10.4 10.3z"/><path class="st11" d="M742.5 192s6.2-7.3 7.6-5.6c0 0 3 3.1 2 5.6 0 0-6.3 2.2-8.3 1.8l-1.3-1.8z"/><linearGradient id="SVGID_13_" gradientUnits="userSpaceOnUse" x1="732.058" y1="152.669" x2="768.649" y2="152.669"><stop offset=".261" stop-color="#E9B420"/><stop offset=".522" stop-color="#F4CA2D"/><stop offset=".625" stop-color="#F9D334"/><stop offset=".805" stop-color="#F9E538"/><stop offset=".861" stop-color="#FAED39"/></linearGradient><path class="st16" d="M760.4 137.3l-.3 1-7.4 28.9c-.3 1.1 0 2.1.6 2.9 1.3 1.5 3.1 4.3.4 5.9-.8.5-1.7.6-2.6.5-2.5-.2-8.1-1.2-4.9-4.9.7-.8 1.2-1.8 1.6-2.8l.1-.2c.5-1.2.6-2.6.2-3.8l-7.6-25.8c-.4-1.3-.3-2.7.2-4.1 1.4-3.4 5-8.9 13.2-6.5 2.7.8 5 2.5 6.2 4.9.6 1.4.6 2.8.3 4zm5.6-9.7c-3.6-3.5-7.9-5.1-11.2-6-2.8-.7-5.8-.7-8.6.1l-2.1.5c-2.8.7-5.4 2-7.4 4-6.4 6.2-4.5 14.5-4.5 14.5l6.9 28.3c-4 6.6-1.1 10.7 2.5 13 4 2.6 9.6 2.9 14.4.5 10-5 5-15.4 5-15.4l7.3-30.8c.8-3.2 0-6.5-2.3-8.7z"/><linearGradient id="SVGID_14_" gradientUnits="userSpaceOnUse" x1="741.51" y1="117.692" x2="757.13" y2="117.692"><stop offset=".417" stop-color="#FBB040"/><stop offset=".567" stop-color="#FAC23F"/><stop offset=".861" stop-color="#FAED39"/></linearGradient><path class="st17" d="M744.6 105.6s5.2 8.2 5.7 12.8c.1 1.2.3 2.4.5 3.5.5 2.8.6 6.8-3.3 7.8-1.4.3-1.5.7-2.7.7h-.5c-.2 0-.5-.1-.7.1-.1.1-.2.2-.2.3l-1 1.5c-.2.3-.5.6-.7 1-.1.1-.1.2 0 .3.1.1.3.1.4.1l1.7.3c.8.1 1.7.1 2.5.1 1-.1 2-.2 3-.6 1.1-.4 2.1-.9 3-1.6 1.1-.8 2-1.9 2.7-3 0 0 7.3-11.9-4.5-26.4-.1 0-5.9-4.2-5.9 3.1z"/><path class="st12" d="M162.1 126.5s3.8-2.5 6.7-2.7 95.3-8.7 139.6-21.1c0 0 95.4-18.9 128.2-16.3 0 0 101.5-1.9 123.7 1.1 0 0 157.1 11.9 177.7 18.6l2.9.4-1.6 6.4s-193.6-15.6-213.9-11.7c0 0-151.5-2.1-207.4 17.1 0 0-56.5 14.6-156 13.1v-4.9z"/><linearGradient id="SVGID_15_" gradientUnits="userSpaceOnUse" x1="190.684" y1="126.38" x2="727.809" y2="126.38"><stop offset=".28" stop-color="#F9D334"/><stop offset=".322" stop-color="#FAD94F"/><stop offset=".412" stop-color="#FCE893"/><stop offset=".542" stop-color="#fff"/><stop offset=".545" stop-color="#FFFFFC"/><stop offset=".661" stop-color="#FDF7AA"/><stop offset=".756" stop-color="#FBF26D"/><stop offset=".825" stop-color="#FAEE47"/><stop offset=".861" stop-color="#FAED39"/></linearGradient><path class="st18" d="M190.8 126.5l1.9-.3"/><linearGradient id="SVGID_16_" gradientUnits="userSpaceOnUse" x1="190.684" y1="109.225" x2="727.809" y2="109.225"><stop offset=".28" stop-color="#F9D334"/><stop offset=".322" stop-color="#FAD94F"/><stop offset=".412" stop-color="#FCE893"/><stop offset=".542" stop-color="#fff"/><stop offset=".545" stop-color="#FFFFFC"/><stop offset=".661" stop-color="#FDF7AA"/><stop offset=".756" stop-color="#FBF26D"/><stop offset=".825" stop-color="#FAEE47"/><stop offset=".861" stop-color="#FAED39"/></linearGradient><path class="st19" d="M193.7 126.1l169.9-25.8c2.4-.4 14-1.8 20.5-3.5 3.7-.9 7.5-1.5 11.4-1.6l156.3-2.8 173.6 12"/><linearGradient id="SVGID_17_" gradientUnits="userSpaceOnUse" x1="190.684" y1="104.527" x2="727.809" y2="104.527"><stop offset=".28" stop-color="#F9D334"/><stop offset=".322" stop-color="#FAD94F"/><stop offset=".412" stop-color="#FCE893"/><stop offset=".542" stop-color="#fff"/><stop offset=".545" stop-color="#FFFFFC"/><stop offset=".661" stop-color="#FDF7AA"/><stop offset=".756" stop-color="#FBF26D"/><stop offset=".825" stop-color="#FAEE47"/><stop offset=".861" stop-color="#FAED39"/></linearGradient><path class="st20" d="M725.8 104.5l2 .1"/><linearGradient id="SVGID_18_" gradientUnits="userSpaceOnUse" x1="190.673" y1="125.641" x2="727.822" y2="125.641"><stop offset=".28" stop-color="#F9D334"/><stop offset=".322" stop-color="#FAD94F"/><stop offset=".412" stop-color="#FCE893"/><stop offset=".542" stop-color="#fff"/><stop offset=".545" stop-color="#FFFFFC"/><stop offset=".661" stop-color="#FDF7AA"/><stop offset=".756" stop-color="#FBF26D"/><stop offset=".825" stop-color="#FAEE47"/><stop offset=".861" stop-color="#FAED39"/></linearGradient><path class="st21" d="M190.8 125.8l1.9-.3"/><linearGradient id="SVGID_19_" gradientUnits="userSpaceOnUse" x1="190.673" y1="106.4" x2="727.822" y2="106.4"><stop offset=".28" stop-color="#F9D334"/><stop offset=".322" stop-color="#FAD94F"/><stop offset=".412" stop-color="#FCE893"/><stop offset=".542" stop-color="#fff"/><stop offset=".545" stop-color="#FFFFFC"/><stop offset=".661" stop-color="#FDF7AA"/><stop offset=".756" stop-color="#FBF26D"/><stop offset=".825" stop-color="#FAEE47"/><stop offset=".861" stop-color="#FAED39"/></linearGradient><path class="st22" d="M193.7 125.3l169.9-29.9c2.4-.4 14-1.8 20.5-3.5 3.7-.9 7.5-1.5 11.4-1.6l156.3-2.8 173.6 16.8"/><linearGradient id="SVGID_20_" gradientUnits="userSpaceOnUse" x1="190.673" y1="104.5" x2="727.822" y2="104.5"><stop offset=".28" stop-color="#F9D334"/><stop offset=".322" stop-color="#FAD94F"/><stop offset=".412" stop-color="#FCE893"/><stop offset=".542" stop-color="#fff"/><stop offset=".545" stop-color="#FFFFFC"/><stop offset=".661" stop-color="#FDF7AA"/><stop offset=".756" stop-color="#FBF26D"/><stop offset=".825" stop-color="#FAEE47"/><stop offset=".861" stop-color="#FAED39"/></linearGradient><path class="st23" d="M725.8 104.4l2 .2"/><linearGradient id="SVGID_21_" gradientUnits="userSpaceOnUse" x1="153.38" y1="116.934" x2="175.913" y2="116.934" gradientTransform="matrix(.938 -.348 .348 .938 -28.868 65.536)"><stop offset=".261" stop-color="#E9B420"/><stop offset=".522" stop-color="#F4CA2D"/><stop offset=".625" stop-color="#F9D334"/><stop offset=".805" stop-color="#F9E538"/><stop offset=".861" stop-color="#FAED39"/></linearGradient><path class="st24" d="M178.5 118.7l-17.2-7c-1.8-.7-3.8-.1-4.8 1.5l-1.5 2.4c-1.5 2.4-.1 5.5 2.7 6l16.8 2.5 4-5.4z"/><linearGradient id="SVGID_22_" gradientUnits="userSpaceOnUse" x1="170.739" y1="122.861" x2="194.744" y2="122.861"><stop offset=".261" stop-color="#E9B420"/><stop offset=".522" stop-color="#F4CA2D"/><stop offset=".625" stop-color="#F9D334"/><stop offset=".805" stop-color="#F9E538"/><stop offset=".861" stop-color="#FAED39"/></linearGradient><path class="st25" d="M182.7 117.7c-6.6 0-12 2.3-12 5.2s5.4 5.2 12 5.2 12-2.3 12-5.2-5.3-5.2-12-5.2zm2.3 8.2c-2.7 0-4.9-1.2-4.9-2.7 0-1.5 2.2-2.7 4.9-2.7s4.9 1.2 4.9 2.7c.1 1.5-2.1 2.7-4.9 2.7z"/><linearGradient id="SVGID_23_" gradientUnits="userSpaceOnUse" x1="590.945" y1="157.392" x2="592.998" y2="148.503" gradientTransform="matrix(-1 0 0 1 1202.844 0)"><stop offset=".455" stop-color="#2F2321"/><stop offset=".843" stop-color="#3F322A"/><stop offset=".848" stop-color="#3F322A"/></linearGradient><path class="st26" d="M599.6 151.1c.4.6.8 1.2 1.3 1.9.5.6.6 1.5 1.3 2 2.5 1.8 6.1 2.6 9.5 2.3 2.4-.2 7.6-1.4 8.7-3.5.1-.2.2-.4.2-.7.1-1.4-.2-2.9-.3-4.3l-.2-2.7c-.1 3.5-1.3 7-4.7 8.5-2.6 1.2-5.8 1-8.5.5-1.6-.3-3.2-1-4.5-1.8-1.1-.6-2.1-1.4-2.8-2.2z"/><linearGradient id="SVGID_24_" gradientUnits="userSpaceOnUse" x1="589.226" y1="181.015" x2="617.723" y2="181.015" gradientTransform="matrix(-1 0 0 1 1202.844 0)"><stop offset=".099" stop-color="#352614"/><stop offset=".252" stop-color="#382816"/><stop offset=".376" stop-color="#3F2F1A"/><stop offset=".491" stop-color="#4C3B20"/><stop offset=".599" stop-color="#604C27"/><stop offset=".703" stop-color="#7E662F"/><stop offset=".804" stop-color="#A98C36"/><stop offset=".9" stop-color="#E3C037"/><stop offset=".925" stop-color="#F9D334"/></linearGradient><path class="st27" d="M585.1 192.3l.2 2.8c.1 1.5 1.3 1.8 2.6 1.7l17 .3h.2c.3 0 .6-.1.9-.3l1.1-.7c.5-.3.9-.8 1-1.5l5.4-25.2c.4-1.7-.4-3.5-1.8-4.3-.1-.1-.2-.1-.2-.1l-.7-.2-6.5 26.8c0 .1-.1.3-.2.4l-1.1 1.4-17.9-1.1z"/><linearGradient id="SVGID_25_" gradientUnits="userSpaceOnUse" x1="421.674" y1="158.368" x2="421.577" y2="152.813"><stop offset=".261" stop-color="#E9B420"/><stop offset=".522" stop-color="#F4CA2D"/><stop offset=".625" stop-color="#F9D334"/><stop offset=".805" stop-color="#F9E538"/><stop offset=".861" stop-color="#FAED39"/></linearGradient><path class="st28" d="M425.4 155h.3v-2h-.2s-.2.6-.7.3c0 0-1.9-.7-3.6-.4h-.2c-.5 0-2.8.3-3.3 2.2-.2.7 0 1.5.5 2.1.6.6 1.7 1.2 3.9 1.2.4 0 .9 0 1.3-.1l.4-.1c.2 0 .4-.1.7-.2.2-.1.7-.2.9.3h.3v-2h-.2s-.8 1.9-2.8 1.9c0 0-2.6.2-2.3-2.9 0 0 .3-2.8 3.3-1.9-.1-.1 1.1.3 1.7 1.6z"/><linearGradient id="SVGID_26_" gradientUnits="userSpaceOnUse" x1="451.336" y1="158.368" x2="451.239" y2="152.813"><stop offset=".261" stop-color="#E9B420"/><stop offset=".522" stop-color="#F4CA2D"/><stop offset=".625" stop-color="#F9D334"/><stop offset=".805" stop-color="#F9E538"/><stop offset=".861" stop-color="#FAED39"/></linearGradient><path class="st29" d="M455 155h.3v-2h-.2s-.2.6-.7.3c0 0-1.9-.7-3.6-.4h-.2c-.5 0-2.8.3-3.3 2.2-.2.7 0 1.5.5 2.1.6.6 1.7 1.2 3.9 1.2.4 0 .9 0 1.3-.1l.4-.1c.2 0 .4-.1.7-.2.2-.1.7-.2.9.3h.3v-2h-.3s-.8 1.9-2.8 1.9c0 0-2.6.2-2.3-2.9 0 0 .3-2.8 3.3-1.9 0-.1 1.3.3 1.8 1.6z"/><linearGradient id="SVGID_27_" gradientUnits="userSpaceOnUse" x1="426.951" y1="155.662" x2="436.78" y2="155.662"><stop offset=".261" stop-color="#E9B420"/><stop offset=".522" stop-color="#F4CA2D"/><stop offset=".625" stop-color="#F9D334"/><stop offset=".805" stop-color="#F9E538"/><stop offset=".861" stop-color="#FAED39"/></linearGradient><path class="st30" d="M431.7 153c-2.8 0-4.7 1.2-4.7 2.7 0 1.5 1.9 2.7 4.7 2.7s5.1-1.2 5.1-2.7c0-1.5-2.3-2.7-5.1-2.7zm0 5.1c-1.2 0-2.1-.8-2.1-2.6 0-1.5.9-2.4 2.3-2.4s2.2.9 2.2 2.4c0 1.6-.8 2.6-2.4 2.6z"/><linearGradient id="SVGID_28_" gradientUnits="userSpaceOnUse" x1="441.874" y1="158.456" x2="441.778" y2="152.956"><stop offset=".261" stop-color="#E9B420"/><stop offset=".522" stop-color="#F4CA2D"/><stop offset=".625" stop-color="#F9D334"/><stop offset=".805" stop-color="#F9E538"/><stop offset=".861" stop-color="#FAED39"/></linearGradient><path class="st31" d="M445.9 157.5s-3.8-4.1-4-4.4c-.3-.3-.5 0-.5 0l-3.4 4.1c-.8 1-1.6 1-1.6 1v.2h2.5v-.2h-.3c-.3 0-.3-.2-.3-.3 0-.2 0-.4.1-.5l.2-.3h3.7l.6.6c.2.2.2.3.1.4 0 .1-.1.1-.2.1h-.4v.2h5v-.2c-1 0-1.5-.7-1.5-.7zm-4-.8h-2.9s-.1-.1 0-.1l1.4-1.7h.1l1.4 1.8c.1-.1.1 0 0 0z"/><linearGradient id="SVGID_29_" gradientUnits="userSpaceOnUse" x1="461.445" y1="158.487" x2="461.351" y2="153.041"><stop offset=".261" stop-color="#E9B420"/><stop offset=".522" stop-color="#F4CA2D"/><stop offset=".625" stop-color="#F9D334"/><stop offset=".805" stop-color="#F9E538"/><stop offset=".861" stop-color="#FAED39"/></linearGradient><path class="st32" d="M456.5 153.4v-.2h4.2v.3h-.4s-.4 0-.4.5v1.7h3.2v-1.7s-.2-.4-.5-.4h-.4v-.3h4.1v.3h-.4s-.4 0-.4.4v4s0 .3.4.3h.5v.3h-4.2v-.2h.4s.4-.1.4-.4v-2h-3.2v2s0 .4.5.4h.5v.3h-4.2v-.3h.5s.4 0 .4-.4v-4s0-.4-.5-.4l-.5-.2z"/><linearGradient id="SVGID_30_" gradientUnits="userSpaceOnUse" x1="430.272" y1="180.95" x2="430.199" y2="176.777" gradientTransform="matrix(1 .021 -.021 1 15.508 -23.692)"><stop offset=".261" stop-color="#E9B420"/><stop offset=".522" stop-color="#F4CA2D"/><stop offset=".625" stop-color="#F9D334"/><stop offset=".805" stop-color="#F9E538"/><stop offset=".861" stop-color="#FAED39"/></linearGradient><path class="st33" d="M455 164.3c0 .9-5.5 2-12.9 1.9-8.8-.2-13.3-1-13.3-1.9 0-.9 6-2.4 13.4-2.2 7.4.1 12.8 1.3 12.8 2.2z"/><path class="st34" d="M432.7 165.1v-1.7l1.8 1.7v-1.7M436.9 165.1h-1.5v-1.7h1.5M435.4 164.2h1.2M437.6 163.4l.7 1.7.7-1.7.6 1.7.8-1.7M442.2 163.4l.8 1v.7M443.8 163.4l-.8 1"/><ellipse class="st34" cx="445.3" cy="164.3" rx="1" ry=".9"/><path class="st34" d="M447.1 165.1v-1.5h1.2s.3.2.3.5c-.1.2-.2.3-.4.3h-1.1M448.1 164.3l.7.8M449.6 163.5v1.6M449.6 164.5l1.5-1.1M450.3 164l1 1.1"/><linearGradient id="SVGID_31_" gradientUnits="userSpaceOnUse" x1="442.089" y1="148.903" x2="445.093" y2="148.903"><stop offset=".261" stop-color="#E9B420"/><stop offset=".522" stop-color="#F4CA2D"/><stop offset=".625" stop-color="#F9D334"/><stop offset=".805" stop-color="#F9E538"/><stop offset=".861" stop-color="#FAED39"/></linearGradient><circle class="st35" cx="443.6" cy="148.9" r="1.4"/><linearGradient id="SVGID_32_" gradientUnits="userSpaceOnUse" x1="443.51" y1="148.148" x2="443.61" y2="148.148"><stop offset=".261" stop-color="#E9B420"/><stop offset=".522" stop-color="#F4CA2D"/><stop offset=".625" stop-color="#F9D334"/><stop offset=".805" stop-color="#F9E538"/><stop offset=".861" stop-color="#FAED39"/></linearGradient><path class="st36" d="M443.6 147.5v1.3"/><linearGradient id="SVGID_33_" gradientUnits="userSpaceOnUse" x1="442.522" y1="148.399" x2="443.553" y2="148.399"><stop offset=".261" stop-color="#E9B420"/><stop offset=".522" stop-color="#F4CA2D"/><stop offset=".625" stop-color="#F9D334"/><stop offset=".805" stop-color="#F9E538"/><stop offset=".861" stop-color="#FAED39"/></linearGradient><path class="st37" d="M442.6 147.9l.9 1"/><linearGradient id="SVGID_34_" gradientUnits="userSpaceOnUse" x1="442.164" y1="148.903" x2="443.56" y2="148.903"><stop offset=".261" stop-color="#E9B420"/><stop offset=".522" stop-color="#F4CA2D"/><stop offset=".625" stop-color="#F9D334"/><stop offset=".805" stop-color="#F9E538"/><stop offset=".861" stop-color="#FAED39"/></linearGradient><path class="st38" d="M442.2 148.9h1.4"/><linearGradient id="SVGID_35_" gradientUnits="userSpaceOnUse" x1="442.522" y1="149.391" x2="443.587" y2="149.391"><stop offset=".261" stop-color="#E9B420"/><stop offset=".522" stop-color="#F4CA2D"/><stop offset=".625" stop-color="#F9D334"/><stop offset=".805" stop-color="#F9E538"/><stop offset=".861" stop-color="#FAED39"/></linearGradient><path class="st39" d="M442.6 149.9l1-1"/><linearGradient id="SVGID_36_" gradientUnits="userSpaceOnUse" x1="443.501" y1="149.583" x2="443.601" y2="149.583"><stop offset=".261" stop-color="#E9B420"/><stop offset=".522" stop-color="#F4CA2D"/><stop offset=".625" stop-color="#F9D334"/><stop offset=".805" stop-color="#F9E538"/><stop offset=".861" stop-color="#FAED39"/></linearGradient><path class="st40" d="M443.6 150.3v-1.5"/><linearGradient id="SVGID_37_" gradientUnits="userSpaceOnUse" x1="443.557" y1="149.421" x2="444.657" y2="149.421"><stop offset=".261" stop-color="#E9B420"/><stop offset=".522" stop-color="#F4CA2D"/><stop offset=".625" stop-color="#F9D334"/><stop offset=".805" stop-color="#F9E538"/><stop offset=".861" stop-color="#FAED39"/></linearGradient><path class="st41" d="M444.6 149.9l-1-.9"/><linearGradient id="SVGID_38_" gradientUnits="userSpaceOnUse" x1="443.768" y1="148.879" x2="445.018" y2="148.879"><stop offset=".261" stop-color="#E9B420"/><stop offset=".522" stop-color="#F4CA2D"/><stop offset=".625" stop-color="#F9D334"/><stop offset=".805" stop-color="#F9E538"/><stop offset=".861" stop-color="#FAED39"/></linearGradient><path class="st42" d="M443.8 148.9h1.2"/><linearGradient id="SVGID_39_" gradientUnits="userSpaceOnUse" x1="443.694" y1="148.301" x2="444.615" y2="148.301"><stop offset=".261" stop-color="#E9B420"/><stop offset=".522" stop-color="#F4CA2D"/><stop offset=".625" stop-color="#F9D334"/><stop offset=".805" stop-color="#F9E538"/><stop offset=".861" stop-color="#FAED39"/></linearGradient><path class="st43" d="M443.7 148.7l.9-.8"/><linearGradient id="SVGID_40_" gradientUnits="userSpaceOnUse" x1="449.134" y1="148.49" x2="452.964" y2="148.49"><stop offset=".261" stop-color="#E9B420"/><stop offset=".522" stop-color="#F4CA2D"/><stop offset=".625" stop-color="#F9D334"/><stop offset=".805" stop-color="#F9E538"/><stop offset=".861" stop-color="#FAED39"/></linearGradient><circle class="st44" cx="451" cy="148.5" r="1.8"/><linearGradient id="SVGID_41_" gradientUnits="userSpaceOnUse" x1="450.935" y1="147.516" x2="451.086" y2="147.516"><stop offset=".261" stop-color="#E9B420"/><stop offset=".522" stop-color="#F4CA2D"/><stop offset=".625" stop-color="#F9D334"/><stop offset=".805" stop-color="#F9E538"/><stop offset=".861" stop-color="#FAED39"/></linearGradient><path class="st45" d="M451 146.6v1.8"/><linearGradient id="SVGID_42_" gradientUnits="userSpaceOnUse" x1="449.665" y1="147.84" x2="451.009" y2="147.84"><stop offset=".261" stop-color="#E9B420"/><stop offset=".522" stop-color="#F4CA2D"/><stop offset=".625" stop-color="#F9D334"/><stop offset=".805" stop-color="#F9E538"/><stop offset=".861" stop-color="#FAED39"/></linearGradient><path class="st46" d="M449.7 147.2l1.3 1.3"/><linearGradient id="SVGID_43_" gradientUnits="userSpaceOnUse" x1="449.209" y1="148.49" x2="451.01" y2="148.49"><stop offset=".261" stop-color="#E9B420"/><stop offset=".522" stop-color="#F4CA2D"/><stop offset=".625" stop-color="#F9D334"/><stop offset=".805" stop-color="#F9E538"/><stop offset=".861" stop-color="#FAED39"/></linearGradient><path class="st47" d="M449.2 148.5h1.8"/><linearGradient id="SVGID_44_" gradientUnits="userSpaceOnUse" x1="449.665" y1="149.119" x2="451.052" y2="149.119"><stop offset=".261" stop-color="#E9B420"/><stop offset=".522" stop-color="#F4CA2D"/><stop offset=".625" stop-color="#F9D334"/><stop offset=".805" stop-color="#F9E538"/><stop offset=".861" stop-color="#FAED39"/></linearGradient><path class="st48" d="M449.7 149.8l1.3-1.3"/><linearGradient id="SVGID_45_" gradientUnits="userSpaceOnUse" x1="450.924" y1="149.367" x2="451.074" y2="149.367"><stop offset=".261" stop-color="#E9B420"/><stop offset=".522" stop-color="#F4CA2D"/><stop offset=".625" stop-color="#F9D334"/><stop offset=".805" stop-color="#F9E538"/><stop offset=".861" stop-color="#FAED39"/></linearGradient><path class="st49" d="M451 150.3v-1.9"/><linearGradient id="SVGID_46_" gradientUnits="userSpaceOnUse" x1="450.999" y1="149.158" x2="452.431" y2="149.158"><stop offset=".261" stop-color="#E9B420"/><stop offset=".522" stop-color="#F4CA2D"/><stop offset=".625" stop-color="#F9D334"/><stop offset=".805" stop-color="#F9E538"/><stop offset=".861" stop-color="#FAED39"/></linearGradient><path class="st50" d="M452.4 149.8l-1.4-1.2"/><linearGradient id="SVGID_47_" gradientUnits="userSpaceOnUse" x1="451.278" y1="148.459" x2="452.89" y2="148.459"><stop offset=".261" stop-color="#E9B420"/><stop offset=".522" stop-color="#F4CA2D"/><stop offset=".625" stop-color="#F9D334"/><stop offset=".805" stop-color="#F9E538"/><stop offset=".861" stop-color="#FAED39"/></linearGradient><path class="st51" d="M451.3 148.5h1.6"/><linearGradient id="SVGID_48_" gradientUnits="userSpaceOnUse" x1="451.175" y1="147.714" x2="452.378" y2="147.714"><stop offset=".261" stop-color="#E9B420"/><stop offset=".522" stop-color="#F4CA2D"/><stop offset=".625" stop-color="#F9D334"/><stop offset=".805" stop-color="#F9E538"/><stop offset=".861" stop-color="#FAED39"/></linearGradient><path class="st52" d="M451.2 148.3l1.1-1.1"/><linearGradient id="SVGID_49_" gradientUnits="userSpaceOnUse" x1="444.788" y1="147.903" x2="449.028" y2="147.903"><stop offset=".261" stop-color="#E9B420"/><stop offset=".522" stop-color="#F4CA2D"/><stop offset=".625" stop-color="#F9D334"/><stop offset=".805" stop-color="#F9E538"/><stop offset=".861" stop-color="#FAED39"/></linearGradient><path class="st53" d="M444.8 147.8l.1.2h4.1v-.2h-4.2"/><linearGradient id="SVGID_50_" gradientUnits="userSpaceOnUse" x1="446.826" y1="147.941" x2="448.086" y2="147.941"><stop offset=".261" stop-color="#E9B420"/><stop offset=".522" stop-color="#F4CA2D"/><stop offset=".625" stop-color="#F9D334"/><stop offset=".805" stop-color="#F9E538"/><stop offset=".861" stop-color="#FAED39"/></linearGradient><path class="st54" d="M447 147.6v.6h-.2v.1h1.3v-.1h-.1v-.6h-.2v.6h-.7v-.6z"/><linearGradient id="SVGID_51_" gradientUnits="userSpaceOnUse" x1="450.289" y1="146.197" x2="451.439" y2="146.197"><stop offset=".261" stop-color="#E9B420"/><stop offset=".522" stop-color="#F4CA2D"/><stop offset=".625" stop-color="#F9D334"/><stop offset=".805" stop-color="#F9E538"/><stop offset=".861" stop-color="#FAED39"/></linearGradient><path class="st55" d="M451.4 146.6s-.1-.7-.7-.8c0 0-.3-.1-.4.2 0 .1.1.3.2.1 0-.1.1-.1.2-.1.2 0 .5.1.5.6h.2z"/><linearGradient id="SVGID_52_" gradientUnits="userSpaceOnUse" x1="438.375" y1="146.895" x2="442.185" y2="146.895"><stop offset=".261" stop-color="#E9B420"/><stop offset=".522" stop-color="#F4CA2D"/><stop offset=".625" stop-color="#F9D334"/><stop offset=".805" stop-color="#F9E538"/><stop offset=".861" stop-color="#FAED39"/></linearGradient><path class="st56" d="M438.5 145.8c.2.3.2.6 0 .9l3.7 1.1v.1l-3.8-.8 3.8.6v.1c-1.2-.4-2.4-.8-3.7-1.1.2-.2.1-.6 0-.9z"/><linearGradient id="SVGID_53_" gradientUnits="userSpaceOnUse" x1="431.832" y1="143.94" x2="434.02" y2="143.94"><stop offset=".261" stop-color="#E9B420"/><stop offset=".522" stop-color="#F4CA2D"/><stop offset=".625" stop-color="#F9D334"/><stop offset=".805" stop-color="#F9E538"/><stop offset=".861" stop-color="#FAED39"/></linearGradient><path class="st57" d="M432.2 143.7l-.2.1c-.1.1-.3.3-.1.4 0 0 .3.1.5-.1 0 0 .3.1.5 0 0 0 .3.1-.1.9 0 0 0 .1.1.1.2-.1.6-.3.9-.5.1-.1.1-.2.1-.3 0-.4-.1-1.1-.6-1.2 0 0-.3-.2-.3-.3l-.1.3s-.4.1-.5.4c0 .1-.1.1-.1.1l-.1.1z"/><linearGradient id="SVGID_54_" gradientUnits="userSpaceOnUse" x1="432.693" y1="145.281" x2="433.944" y2="145.281"><stop offset=".261" stop-color="#E9B420"/><stop offset=".522" stop-color="#F4CA2D"/><stop offset=".625" stop-color="#F9D334"/><stop offset=".805" stop-color="#F9E538"/><stop offset=".861" stop-color="#FAED39"/></linearGradient><path class="st58" d="M432.7 145.4s.7-.2 1.2-.7h.1v.2s-.5.7-1.3.9v-.4z"/><linearGradient id="SVGID_55_" gradientUnits="userSpaceOnUse" x1="431.446" y1="147.629" x2="438.734" y2="147.629"><stop offset=".261" stop-color="#E9B420"/><stop offset=".522" stop-color="#F4CA2D"/><stop offset=".625" stop-color="#F9D334"/><stop offset=".805" stop-color="#F9E538"/><stop offset=".861" stop-color="#FAED39"/></linearGradient><path class="st59" d="M432.9 146c.3-.2.9-.5 1.2-.9.1-.1.2-.1.3-.1.2.1.4.2.6.2.1 0 .2.1.2.3 0 .2 0 .5-.1.7 0 .1-.1.1-.1.1l-.8-.2-.1.1v.1l.7.1c.1 0 .1.1.1.2l-.3.7v.1h.1l.4-.7.1-.1 2.9.6c.1 0 .2.1.2.1l.3.6.1.3c0 .3 0 1 .1 1.2v.3l-.1.1-.1.2v.1c0 .1-.1.2-.2.2h-.2c-.1 0-.1-.1-.1-.1l.3-.5v-.8999999999999999l-.5-.8h-.1l-.9 1s0 .1-.1.1v.4l-.2.2h-.1v-.4c0-.2.1-.4.2-.6l.7-.8c.1-.1 0-.2 0-.2l-.8-.7h-.2c-.3.1-1.5.6-2.2.6 0 0-.1 0-.1.1v1.7c0 .1 0 .1-.1.2 0 0-.1.1-.1.2v.2c0 .1-.1.2-.2.2h-.4v-.1l.3-.4v-.1l-.2-1.9c0-.1 0-.1-.1-.1h-1.2s-.3 0-.2.3l.3.6s0 .1.1.1h.2s.1 0 .1.1.1.3 0 .5h-.1c-.1-.1-.4-.3-.5-.5l-.5-.9s-.2-.5.4-.5c0 0 .4 0 .7-.2.1 0 .1-.1.1-.2v-.4c0-.3.1-.4.2-.5z"/><linearGradient id="SVGID_56_" gradientUnits="userSpaceOnUse" x1="434.506" y1="144.968" x2="435.644" y2="144.968"><stop offset=".261" stop-color="#E9B420"/><stop offset=".522" stop-color="#F4CA2D"/><stop offset=".625" stop-color="#F9D334"/><stop offset=".805" stop-color="#F9E538"/><stop offset=".861" stop-color="#FAED39"/></linearGradient><path class="st60" d="M434.5 144.8c.3 0 .7.1 1.1 0 0 0 .1 0 0 .1l-.5.3-.6-.4z"/><linearGradient id="SVGID_57_" gradientUnits="userSpaceOnUse" x1="435.079" y1="146.015" x2="435.366" y2="146.015"><stop offset=".261" stop-color="#E9B420"/><stop offset=".522" stop-color="#F4CA2D"/><stop offset=".625" stop-color="#F9D334"/><stop offset=".805" stop-color="#F9E538"/><stop offset=".861" stop-color="#FAED39"/></linearGradient><path class="st61" d="M435.1 146.3c0-.1.1-.5.2-.7l.1.8-.3-.1z"/><linearGradient id="SVGID_58_" gradientUnits="userSpaceOnUse" x1="435.467" y1="145.72" x2="436.995" y2="145.72"><stop offset=".261" stop-color="#E9B420"/><stop offset=".522" stop-color="#F4CA2D"/><stop offset=".625" stop-color="#F9D334"/><stop offset=".805" stop-color="#F9E538"/><stop offset=".861" stop-color="#FAED39"/></linearGradient><path class="st62" d="M435.6 145.1c.2-.1.8-.3 1.1-.3.1 0 .1 0 .1.1.1.2.3.8-.2 1.7l-.1.1-.9-.2c-.1 0-.1-.1-.1-.1v-1.1c0-.1 0-.2.1-.2z"/><linearGradient id="SVGID_59_" gradientUnits="userSpaceOnUse" x1="436.711" y1="145.812" x2="439.469" y2="145.812"><stop offset=".261" stop-color="#E9B420"/><stop offset=".522" stop-color="#F4CA2D"/><stop offset=".625" stop-color="#F9D334"/><stop offset=".805" stop-color="#F9E538"/><stop offset=".861" stop-color="#FAED39"/></linearGradient><path class="st63" d="M437 146.1c-.1.1-.2.4-.3.6v.1l1.3.3s.1 0 .1-.1v-.1c.1-.2.4-.7.1-1.3 0 0-.1-.5.2-.1 0 0 .5.5.7.3l.3-.3c.1-.1.1-.2.1-.3-.1-.2-.2-.3-.5-.4 0 0-.6-.2-.9.4 0 0-.3.2-.8-.2l.2 1.7c-.3-.1-.4-.2-.5-.6z"/><linearGradient id="SVGID_60_" gradientUnits="userSpaceOnUse" x1="439.736" y1="142.085" x2="442.835" y2="142.085"><stop offset=".261" stop-color="#E9B420"/><stop offset=".522" stop-color="#F4CA2D"/><stop offset=".625" stop-color="#F9D334"/><stop offset=".805" stop-color="#F9E538"/><stop offset=".861" stop-color="#FAED39"/></linearGradient><path class="st64" d="M442.8 143.6s-.3-.4-.8-1c-.2-.3-.5-.6-.8-1-.1-.2-.3-.3-.5-.5s-.4-.3-.6-.4c-.1-.1-.2-.1-.2 0s0 .2.1.3c.1.2.4.3.6.4.4.2.8.5 1.1.7.6.4 1 .7 1 .7s-.4-.2-1.1-.6c-.3-.2-.7-.4-1.1-.6-.2-.1-.4-.2-.6-.4-.1-.1-.1-.2-.1-.4 0-.1.1-.2.2-.2s.1 0 .2.1c.2.1.5.3.6.5l.5.5c.3.4.5.7.8 1 .4.5.7.9.7.9z"/><linearGradient id="SVGID_61_" gradientUnits="userSpaceOnUse" x1="443.074" y1="142.426" x2="444.219" y2="142.426"><stop offset=".261" stop-color="#E9B420"/><stop offset=".522" stop-color="#F4CA2D"/><stop offset=".625" stop-color="#F9D334"/><stop offset=".805" stop-color="#F9E538"/><stop offset=".861" stop-color="#FAED39"/></linearGradient><path class="st65" d="M443.3 141.7l-.2-.2h.9l.2.2c.1.1.1.2 0 .2l-.1.1v.2c0 .1 0 .1-.1.2l-.3.2-.1.1-.3.7.2-.9h.1-.1-.1c0-.1-.1-.3 0-.5-.1-.2-.1-.3-.1-.3z"/><linearGradient id="SVGID_62_" gradientUnits="userSpaceOnUse" x1="450.079" y1="143.7" x2="450.799" y2="143.7"><stop offset=".261" stop-color="#E9B420"/><stop offset=".522" stop-color="#F4CA2D"/><stop offset=".625" stop-color="#F9D334"/><stop offset=".805" stop-color="#F9E538"/><stop offset=".861" stop-color="#FAED39"/></linearGradient><path class="st66" d="M450.8 143.1v.8c0 .1 0 .2-.1.3l-.1.1v.3h-.2v-.4h-.1l-.1.1v-1.3h.2v-.2h.2v.2l.2.1z"/><linearGradient id="SVGID_63_" gradientUnits="userSpaceOnUse" x1="440.809" y1="145.016" x2="450.179" y2="145.016"><stop offset=".261" stop-color="#E9B420"/><stop offset=".522" stop-color="#F4CA2D"/><stop offset=".625" stop-color="#F9D334"/><stop offset=".805" stop-color="#F9E538"/><stop offset=".861" stop-color="#FAED39"/></linearGradient><path class="st67" d="M450.2 142.8l-.2.2v2.5h-1.7v-2.2h-1.7v2.1h-.9v.2h1v1.1c0 .7.8.7.8.7.4 0 .6-.1.8-.3.1-.1.1-.2.1-.4v-1.1h1.7c0 .3-.1.6-.2.8-1 1.5-3 1.1-3 1.1-.9 0-1.5-.6-1.8-1-.1-.1-.2-.3-.2-.4h-1.9s-.1 0-.1-.1l.3-1c0-.1 0-.2-.2-.2h-.1c-.1 0-.1 0-.2.1-.1.2-.3.7-.7 1 0 0 0 .1-.1.1 0 0 0 .1.1.1l.2.1h.1c.3 0 1.4 0 1.9.3v.1h-.6c-.1 0-.1 0-.1.1v.1l.2.3v.1l-.5-.5h-.1l-.3.6h-.1v-.1l.2-.5c0-.1 0-.2-.1-.3-.1 0-.3-.1-.6-.1h-.1l-1.2-1.3.1-.1s.5.4.8.4c.1 0 .1 0 .2-.1l.5-.9c0-.1.1-.1.2-.2l.8-.2h.1l.2-.2c.1-.1.1-.1.1-.2v-.1c-.1-.1-.2-.3-.1-.4 0 0 .3-.5.5-.7h.1l.3 1c0 .1 0 .3-.1.3 0 0 .1.3.1.6v.30000000000000004l.1.2s.1.1.2 0l.1-.1v.4-2.4l-.1-.1h.7s.2-.6.6 0h3.9z"/><linearGradient id="SVGID_64_" gradientUnits="userSpaceOnUse" x1="442.722" y1="143.889" x2="443.375" y2="143.889"><stop offset=".261" stop-color="#E9B420"/><stop offset=".522" stop-color="#F4CA2D"/><stop offset=".625" stop-color="#F9D334"/><stop offset=".805" stop-color="#F9E538"/><stop offset=".861" stop-color="#FAED39"/></linearGradient><path class="st68" d="M442.9 143.6h.4c.1.1.1.3-.1.5h-.1c-.1 0-.4-.2-.4-.4 0 0 .1-.1.2-.1z"/><linearGradient id="SVGID_65_" gradientUnits="userSpaceOnUse" x1="446.826" y1="144.395" x2="448.086" y2="144.395"><stop offset=".261" stop-color="#E9B420"/><stop offset=".522" stop-color="#F4CA2D"/><stop offset=".625" stop-color="#F9D334"/><stop offset=".805" stop-color="#F9E538"/><stop offset=".861" stop-color="#FAED39"/></linearGradient><path class="st69" d="M446.8 143.4h1.3v2h-1.3z"/><linearGradient id="SVGID_66_" gradientUnits="userSpaceOnUse" x1="446.771" y1="146.388" x2="448.086" y2="146.388"><stop offset=".261" stop-color="#E9B420"/><stop offset=".522" stop-color="#F4CA2D"/><stop offset=".625" stop-color="#F9D334"/><stop offset=".805" stop-color="#F9E538"/><stop offset=".861" stop-color="#FAED39"/></linearGradient><path class="st70" d="M446.8 145.6h1.3v1c0 .5-.5.8-.9.6-.2-.1-.4-.3-.4-.6v-1z"/><linearGradient id="SVGID_67_" gradientUnits="userSpaceOnUse" x1="443.204" y1="148.928" x2="443.917" y2="148.928"><stop offset=".261" stop-color="#E9B420"/><stop offset=".522" stop-color="#F4CA2D"/><stop offset=".625" stop-color="#F9D334"/><stop offset=".805" stop-color="#F9E538"/><stop offset=".861" stop-color="#FAED39"/></linearGradient><circle class="st71" cx="443.6" cy="148.9" r=".4"/><linearGradient id="SVGID_68_" gradientUnits="userSpaceOnUse" x1="450.55" y1="148.522" x2="451.471" y2="148.522"><stop offset=".261" stop-color="#E9B420"/><stop offset=".522" stop-color="#F4CA2D"/><stop offset=".625" stop-color="#F9D334"/><stop offset=".805" stop-color="#F9E538"/><stop offset=".861" stop-color="#FAED39"/></linearGradient><circle class="st72" cx="451" cy="148.5" r=".5"/><g class="st73"><path class="st74" d="M203.6 205.5c8.4 23.7 26.4 38.5 45.4 51.8 19 13.4 40.3 23.1 61.5 32.6 17 7.6 34.2 15.2 52.2 19.7 16.9 4.2 34.4 5.6 51.8 6.4 24.3 1 48.6.8 72.9.5 15.5-.2 31.3-.4 46.3-4.2 12.6-3.2 24.4-8.8 36.7-13 17.3-5.9 35.5-9 52.5-15.6 24.8-9.7 46.6-26.9 61.8-48.8 3.2-4.6 6.1-9.5 7.1-15 2.8-15.4-11-29.8-26.2-33.6-15.2-3.8-31.1.1-46.3 3.7-105.4 25-215.8 34.8-322.3 14.8-24.5-4.6-49-10.8-73.9-10.7-7 .1-19.1 4.5-19.5 11.4"/><path class="st75" d="M198.4 211.6c1 3.6 2.4 7.1 4.4 10.3 1.6 3.3 3.6 6.4 5.9 9.3 4.6 5.8 9.7 11.2 15.4 16 10.7 9 22.5 16.7 34.5 23.9 10.3 6.2 21.2 11.4 32.2 16.4 10.7 4.9 21.6 9.6 32.5 14.1 8.8 3.7 17.7 7.2 26.7 10.1 8.9 2.9 17.9 5.1 27.2 6.7 10.6 1.8 21.7 2.5 32.5 2.9 15.9.6 31.9.8 47.8.7 13.6-.1 27.3-.3 40.9-.7 6.6-.2 13.3-.5 19.9-1 8-.7 15.9-2.1 23.7-4.2 7.9-2.1 15.5-5.6 23-8.8 6.4-2.7 12.8-5.3 19.4-7.5 8.7-2.9 17.6-5 26.5-7.4 7.4-2 14.7-4.2 21.9-7 4.2-1.7 8.3-3.6 12.3-5.9 4.1-2.1 8-4.5 11.8-7.1 14.1-9.9 26.3-22 36.1-36.3 5.2-7.6 10.5-16.7 9.5-26.3-.9-8.7-5.1-16.5-11.1-22.7-6-6.2-13.7-11.1-22.1-13.4-11.5-3.1-23.3-2.5-34.9-.2-5.4 1.1-10.8 2.4-16.2 3.8-14.7 3.8-29.5 7.1-44.4 10.1-18.9 3.8-38.1 7.2-57.2 9.7-19 2.5-38.1 4.3-57.2 5.7h.4l-19.5 1h.4c-6.5.2-13 .3-19.4.5h.8-19.4c-19-.5-37.8-1.3-56.7-3.3-18.7-1.9-37.7-4.6-56.1-8.4-19.2-4-38.2-8.8-57.8-10.5-6.2-.5-12.5-1.4-18.6-.2-2.8.6-6 1.9-8.5 3.3-2.8 1.6-5.7 3.4-7.7 5.9-.6.9-1.2 1.8-1.8 2.6-1.1 2-1.6 4.1-1.5 6.3 0 .4 4.2-1.1 3.2-.8 2.4-.8 4.8-1.6 7.1-2.7.9-.3 1.8-.7 2.6-1.3 1.1-1 2.3-1.8 3.7-2.3-.1 0-.2.1-.4.1 3.6-1.1 6.9-2.1 10.7-2.5 1.6-.2 3.2-.3 4.9-.2 4.2.5 8.5.7 12.8.7 10.6.8 21.2 2.5 31.7 4.3 16.7 2.9 33.4 6 50.1 8.4 50.5 7.3 101.7 8.2 152.5 4.4 19.1-1.4 38.2-3.5 57.2-6.1 25.4-3.5 50.6-8.2 75.8-13 17.1-3.2 34.7-7.1 52.2-4.6 3.7.4 7.2 1.2 10.7 2.5 1.2 1.1 2.6 2.1 4.2 2.7 1.5 1.2 3 2.2 4.6 3.3 1.4 1.3 2.8 2.5 4.2 3.7 4.8 4.7 9 11 8.6 18.1-.3 5.3-3 10.4-5.7 14.8-4.7 7.4-10.3 14.3-16.5 20.6-8.2 8.4-17.6 15.7-27.8 21.6-10.4 6-21.6 10.1-33.1 13.3-8.8 2.5-17.8 4.5-26.5 7.2-10.5 3.3-20.5 7.7-30.7 11.8-9.7 3.8-19.6 6.8-30 8.1-7.8.9-15.6 1.4-23.5 1.6-8.7.1-17.3.2-26 .4-12.2.2-24.4.2-36.6.1-9.6-.2-19.1-.5-28.7-.9-7-.3-14.1-.9-21.1-1.7-10.7-1.4-21.2-3.5-31.6-6.6-14.4-4.4-28.2-10.5-41.9-16.5-23.9-10.5-47.8-21.5-69.1-36.8-7.8-5.6-15.3-11.6-21.9-18.5-3.3-3.4-6.3-7.1-9-11-4.2-5.8-7.2-12.3-8.9-19.4-.3.2-.5.5-.6.9-.5 1.2-.9 2.4-1.3 3.6-.6.6-1.9 3.1-1.5 4.3zM200.2 215.9c1.6 4.6 3.7 9 6.2 13.1 2.6 4.2 5.6 8.1 8.9 11.7 5.8 6.4 12.4 12 19.3 17.2 8.2 6.1 16.7 11.8 25.5 17 13.8 8.2 28.4 14.9 43 21.3 24.4 10.7 48.8 21.8 75.3 26.1 10.7 1.8 21.6 2.5 32.4 3 22.1 1 44.2.8 66.3.5 12.8-.2 25.6-.3 38.3-1.2 9.3-.6 18.6-1.8 27.7-4.4 10.5-3 20.3-7.8 30.5-11.8 8.2-3.3 16.6-5.9 25.1-8.2 11.8-3.2 23.8-5.9 35.1-10.5 8.4-3.4 16.6-7.9 24.1-13 10.3-7 19.6-15.5 27.6-25 5.6-6.6 10.8-13.6 14.5-21.4 2.4-5.1 3.9-10.4 3.5-16.1-.5-6.1-2.9-12-6.4-17-6.4-9-15.6-15.7-26.2-19-5.8-1.8-12.1-2.4-18.1-2.3-9 .1-17.9 1.9-26.7 4l-12.6 3.3-19 4.4c-25.2 5.7-50.7 10.3-76.3 13.8-44.1 6-88.7 8.5-133.2 6.6-25.2-1.1-50.4-3.6-75.2-7.8-13.2-2.2-26.2-5.1-39.3-7.9-13.9-2.9-27.9-5.6-42.1-6.4-6.1-.3-10.6-.7-16 .9-4 1.2-8.2 3.3-11.3 6-1.6 1.4-3 3.1-4.1 4.9-1.2 2-1.8 4.1-1.7 6.4-.1.4 5.9-.4 5.7-.4 1.5-.2 3-.4 4.5-.7.5 0 .8-.2 1.1-.5.6-.7 1.2-1.4 1.6-2.3 1-1.1 2.3-2 3.7-2.7 2.7-1.5 5.6-2.5 8.7-3.1 5.2-.9 11.4-.3 16.4 0 14.2.9 28.2 3.6 42.1 6.3 13.3 2.5 26.6 5 40 7.1 25.1 3.8 50.5 6.1 75.8 6.9 44.6 1.5 89.4-1.4 133.6-7.5 22.3-3.1 44.4-7 66.4-11.4 13.3-2.7 26.5-5.8 39.8-8.1 7.8-1.3 15.8-2.2 23.7-1.6 2.1.2 4.3.4 6.4.7 3.4-.1 6.4.9 8.9 3 2.2 1.1 4.3 2.5 6.2 4 1.9 1.5 3.6 3.2 5.1 5.1 2.1 2.5 4 5.6 5.1 8.7 1.4 3.8 1.9 8.1 1.2 12.1-.7 4.3-2.7 8.2-5 11.9-4.2 6.5-9.3 12.6-14.6 18.2-8 8.4-17.1 15.9-27 21.8-7.5 4.5-15.3 8.4-23.5 11.5-11.4 4.3-23.2 7.1-35 10.3-8.5 2.3-16.7 5-25 8-9.6 3.5-19.1 7.4-29 9.7-7.5 1.7-15.1 2.6-22.7 3.1-5.2.3-10.4.5-15.6.6-8.6-.1-17.2-.1-25.8.1-19.8.1-39.5-.2-59.3-1.4-12-.7-24-1.8-35.8-4.1-25.3-5-48.9-16-72.2-26.8-14-6.5-27.6-13.4-40.8-21.3-5.5-3.1-10.8-6.6-15.9-10.4-1.8-1.4-3.6-2.8-5.5-4.1-7.1-5.5-13.9-11.7-19.6-18.7-2.9-3.5-5.4-7.2-7.7-11.2-2-3.9-3.6-8-4.8-12.3-.4.2-.7.5-.9 1-.9 1.4-1.8 2.8-2.6 4.3-.9 1.4-1.7 2.9-2.5 4.4-.2.7-.3 1.1-.3 1.6zM197.3 209.9c.8 3.8 2.3 7.4 4.3 10.6 1.7 3.3 3.7 6.4 6 9.3 3.9 4.9 8.2 9.5 12.9 13.7 11.4 10.2 24.5 18.8 37.7 26.5 10.5 6.2 21.5 11.5 32.6 16.5 14.2 6.4 28.6 12.6 43.1 18.3 7.2 2.8 14.5 5.5 21.9 7.6 9 2.5 18 4.4 27.3 5.5 9 1.1 18.1 1.7 27.2 2.1 16 .6 32 .7 48 .5 20.3-.2 40.7-.1 60.9-1.9 7.9-.7 16.1-2 23.7-4.3 6.6-2 12.9-4.6 19.2-7.4 6.2-2.7 12.4-5.5 18.8-7.8 7.3-2.6 14.7-4.6 22.1-6.5 16.2-4.3 32.5-8.7 47-17.6 13.4-8.2 25.1-18.4 35.2-30.3 3.1-3.6 5.9-7.4 8.4-11.4 1.9-2.5 3.5-5.2 4.9-8.1 1.8-3.7 3.2-7.4 4-11.4 3-16.8-10.6-32.7-24.9-39.6-8.5-4.1-17.5-5.6-26.9-5.6-6.7 0-13.7 1.2-20.2 2.5-6.5 1.4-12.9 3.1-19.3 4.8l.3-.1c-12.7 2.9-25.4 5.8-38.2 8.5-15.8 3.3-31.7 6-47.7 8.3-25.3 3.7-50.7 6.3-76.2 7.7-55.2 2.9-111.2-.2-165.4-11.8-13.8-3-27.6-6.1-41.6-8.1-3.5-.6-7.1-1-10.6-1.2-5.4-.6-10.8-.8-16.2-.6-1 .1-1.9.2-2.9.4-4 .9-8 2.7-11.5 4.9-2.3 1.5-4.5 3.4-6.1 5.6-.8.8-1.3 1.8-1.7 2.8-.8 1.5-1.2 3.1-1 4.8 0 .4 3-1.6 2.2-1.1 1.6-1 3.3-2 4.8-3.3 1.6-1.3 3.1-2.7 4.8-3.9 2.1-1.5 4.8-2.4 7.2-3.1 4.1-1.2 8.6-1.8 12.9-1.6 4.4.2 8.7.4 13.1.8 8.9.7 17.7 2 26.4 3.4 18.4 3.1 36.8 6.8 55.3 9.4 25 3.5 50.1 5.5 75.3 6.3 28.5.9 57.1-.3 85.4-2.7 28.7-2.5 57.3-6.3 85.6-11.3 15.9-2.8 31.7-6 47.5-9 4.1-1 8.3-1.7 12.5-2.2 3.2-.4 6.4-.8 9.6-1.1h-.4c5-.1 10-.2 15 .3 3.6.4 7.2 1 10.7 1.9 2.6.5 5.1 1.4 7.6 2.5l1.4 1.4 2.2 1.1c.7.5 1.4 1 2.1 1.4 1.3.5 2.5 1.1 3.6 2 .8.6 1.6 1.1 2.5 1.6 2.2 1.3 4.6 3.1 6.4 4.9 3.7 3.8 6.6 8.3 7.4 13.6.9 6.2-1.7 12.6-4.7 18l-4.9 7.6c-2.6 3.7-5.3 7.3-8.4 10.7-4 4.6-8.2 8.8-12.7 12.8-10.2 9-21.6 16.1-34.1 21.4-14.1 6-29.3 8.4-43.8 13-5.5 1.8-10.9 3.7-16.2 5.9-6.2 2.6-12.2 5.4-18.4 7.9-5 2-10 3.8-15.1 5.1-6.4 1.6-12.9 2.6-19.4 3.3-17 1.6-34.2 1.5-51.2 1.7-22.5.4-45 .4-67.4-.9-9-.5-17.9-1.6-26.7-3.3-9.2-1.8-18.3-4.3-27.1-7.4l-42.6-17.5c-3.6-1.6-7.3-3.2-10.9-4.9-15.7-7.2-31-15.2-45.3-24.8-9.3-6.2-18.4-12.8-26.3-20.7-3.5-3.5-6.7-7.3-9.7-11.2-2.2-2.9-4.1-6-5.7-9.3-2-3.3-3.3-6.9-3.9-10.8-.3-.9-.9 1.4-.9 1.2l-.7 2.5c-.1.3-.1.7-.1 1.2zM198.6 217.6c1.6 4.6 3.7 9 6.3 13.2 2.6 4.2 5.6 8.1 8.9 11.7 5.8 6.4 12.4 12 19.4 17.1 8.2 6.1 16.7 11.8 25.5 17 13.8 8.2 28.4 14.9 43 21.3 24.4 10.7 48.8 21.8 75.3 26.1 10.7 1.7 21.6 2.5 32.4 3 22.1 1 44.2.8 66.3.5 12.8-.2 25.6-.3 38.3-1.2 9.3-.6 18.6-1.8 27.6-4.4 10.5-3 20.3-7.8 30.4-11.8 8.2-3.3 16.6-5.9 25.1-8.2 11.8-3.2 23.8-5.9 35.1-10.5 8.4-3.4 16.6-7.9 24.1-13 10.3-7 19.6-15.4 27.6-24.9 5.6-6.6 10.8-13.6 14.5-21.4 2.4-5.1 3.9-10.3 3.5-16-.4-6.1-2.8-12.1-6.3-17-6.4-9.2-15.7-15.9-26.4-19.2-5.8-1.8-12.2-2.4-18.2-2.3-9 .1-17.9 2-26.7 4.1l-12.6 3.3-19 4.4c-25.2 5.7-50.6 10.3-76.2 13.7-44.1 6-88.7 8.5-133.2 6.6-25.2-1.1-50.4-3.6-75.2-7.8-13.2-2.2-26.2-5.1-39.3-7.9-13.9-2.9-27.9-5.6-42.1-6.4-6.1-.3-10.6-.7-16 .9-4 1.2-8.2 3.3-11.4 6-1.6 1.4-3 3.1-4.1 5-1.3 2-1.8 4.2-1.7 6.6 0 .5 12.7.7 12.6 0-.1-2.2 2.1-3.9 3.7-5 2.5-1.7 5.1-2.8 8-3.5 5.1-1.2 11-.6 16-.3 14.2.9 28.2 3.6 42.2 6.3 13.4 2.6 26.8 5.2 40.2 7.3 25.2 3.9 50.6 6.2 76.1 7.1 44.7 1.6 89.5-1.3 133.8-7.3 22.2-3 44.2-7 66.2-11.5 9.3-1.9 18.5-3.8 27.7-5.9 3.8-.9 7.7-1.8 11.5-2.6 7.7-1.6 15.5-2.9 23.4-2.7l6.6.4c3.4-.1 6.4.7 9.2 2.4 4.7 2.3 8.9 4.7 12.5 8.5 2.5 2.6 4.8 5.8 6.2 9.2 1.8 4.2 2.5 8.9 1.8 13.5-.8 4.6-2.9 8.9-5.4 12.8-4.4 6.7-9.7 13-15.2 18.7-8.2 8.5-17.6 16.1-27.7 22-7.6 4.5-15.6 8.4-23.9 11.5-11.4 4.3-23.3 7-35 10.3-8.5 2.3-16.8 5.1-25.1 8-9.8 3.5-19.5 7.2-29.6 9.4-7.6 1.6-15.3 2.4-23 2.9-5.2.2-10.5.4-15.7.5-8.6-.2-17.3-.2-25.9-.1-19.9 0-39.7-.4-59.5-1.8-12.1-.9-24.1-2.2-36-4.7-25.3-5.4-48.9-16.6-72.1-27.7-13.9-6.6-27.3-13.8-40.4-21.9-5.5-3.1-10.7-6.6-15.6-10.6-1.8-1.4-3.5-2.8-5.3-4.3-6.8-5.7-13.3-11.9-18.7-19-2.7-3.5-5.2-7.3-7.2-11.2-1.9-4-3.4-8.1-4.5-12.3-.5.3-.8.7-1 1.2-1 1.7-1.9 3.4-2.8 5.1l-2.7 5.2c-.2.5-.3 1-.3 1.6zM199.1 213.4c1.6 4.6 3.7 9 6.2 13.1 2.6 4.2 5.6 8.1 8.9 11.7 5.8 6.5 12.4 12 19.4 17.2 8.2 6.1 16.8 11.8 25.6 17 13.8 8.1 28.4 14.9 43 21.3 24.4 10.6 48.8 21.8 75.3 26.1 10.7 1.8 21.6 2.5 32.4 3 22.1 1 44.2.8 66.3.5 12.8-.2 25.6-.3 38.3-1.2 9.3-.6 18.6-1.8 27.6-4.4 10.5-3 20.3-7.8 30.5-11.8 8.2-3.3 16.6-5.9 25.1-8.2 11.8-3.2 23.8-5.9 35.1-10.5 8.4-3.4 16.6-7.9 24.1-13 10.3-7 19.6-15.5 27.6-24.9 5.6-6.6 10.8-13.6 14.6-21.4 2.4-5.1 3.9-10.4 3.5-16.1-.5-6.1-2.9-12.2-6.5-17.1-6.5-9-15.8-15.7-26.4-18.9-14.6-4.4-30.2-1.7-44.6 1.8l-12.6 3.3-19.1 4.4c-25.2 5.7-50.7 10.3-76.3 13.7-44.1 6-88.7 8.5-133.2 6.6-25.2-1.1-50.4-3.6-75.3-7.8-13.2-2.2-26.2-5.1-39.3-7.9-13.9-2.9-27.9-5.6-42.1-6.3-6.1-.3-10.6-.7-16 1-4 1.2-8.1 3.3-11.2 6-1.6 1.4-3 3.1-4.1 4.9-1.1 2-1.7 4.1-1.6 6.4 0 .2 4.3-.7 4.8-.8 2.3-.6 5-.9 7.2-2 .4-.2.9-.4 1.3-.7.8-1.1 1.9-1.9 3.1-2.5 3-1.5 6.4-2.4 9.7-2.9 2.3-.3 4.5-.3 6.9-.2 7.1.1 14.2.6 21.2 1.5 7.1.9 14.1 2 21.1 3.2 10.6 1.9 21.2 3.9 31.8 5.6 25.1 4.2 50.3 7.3 75.7 8.8 44.5 2.5 89.3.5 133.6-4.6 25.5-3 50.8-7.1 76-11.9 14.4-2.7 28.6-5.9 43.1-8.2 7.5-1.2 15.1-2.1 22.7-1.8 3.8.2 7.6.6 11.3 1.3 3.1 0 5.7 1 7.8 3 2.6 1.7 5.2 3.3 7.5 5.4 2.8 2.6 5.4 5.8 7.3 9.2 1.3 2.5 2.2 5.1 2.7 7.9.7 4.6-.5 9-2.5 13.1-3.1 6.3-7.5 11.8-12 17.1-6.6 7.8-13.9 14.8-22.1 21-9.4 7-19.7 12.7-30.6 16.9-8.5 3.3-17.3 5.7-26.1 8-5.9 1.5-11.8 3.1-17.7 4.9-5.4 1.7-10.8 3.6-16.2 5.7-8.4 3.2-16.7 6.8-25.4 9.3-8.7 2.6-17.5 3.9-26.5 4.5-13.8 1-27.7.8-41.5 1-18.1.2-36.3 0-54.4-.7-13.9-.6-27.9-1.4-41.6-4-25.6-4.8-49.5-15.8-73.1-26.6-22.1-10.1-44-21.2-63.1-36.2-7.3-5.7-14.3-12-20.1-19.3-2.9-3.6-5.5-7.5-7.8-11.5-2.1-4-3.7-8.2-5-12.6-.4.2-.6.5-.8 1-.7 1.4-1.3 2.7-1.9 4.1-.6 1.4-1.2 2.8-1.7 4.2l.1 1.3zM198.2 222.3c1.6 4.7 3.7 9.1 6.3 13.2 2.6 4.2 5.6 8.1 8.9 11.7 6.7 7.4 14.5 13.6 22.5 19.4 8.9 6.4 18.2 12.3 27.9 17.7 12.3 6.8 25 12.7 37.9 18.4 14.1 6.2 28.3 12.5 42.8 17.6 14.1 4.9 28.5 8.4 43.4 9.9 10.8 1.1 21.7 1.6 32.5 1.9 18.4.5 36.8.4 55.2.2 14.1-.2 28.3-.2 42.4-1.4 8-.7 16-1.9 23.7-4.1 5.3-1.5 10.4-3.4 15.5-5.5 10.5-4.2 20.7-8.8 31.5-12 8.8-2.7 17.7-4.7 26.5-7.2 11.8-3.3 23.2-7.7 33.8-13.9 10.7-6.2 20.6-14 29.3-22.9 7.1-7.3 13.9-15.4 19-24.2 3.7-6.5 6.6-13.3 6.2-20.9-.5-11.7-7.8-22.4-16.8-29.4-12.4-9.6-28.2-12.3-43.5-10.3-6.9.9-13.6 2.4-20.2 4.2l-12.7 3.6c-12.6 3.1-25.3 6-38 8.6-43.9 9-88.6 14.8-133.4 16.4-25.3.9-50.6.6-75.8-1.3-12.6-.9-25.1-2.3-37.6-4-19.5-2.8-38.8-6.5-58-10.9-10.4-2.3-20.8-4.3-31.4-5.5-7.2-.8-14.3-1.2-21.5-1-1.8.2-3.5.7-5.2 1.3-4 1.4-8.3 3.6-11.4 6.5-1.6 1.6-2.9 3.3-4 5.3-1.2 2-1.7 4.2-1.7 6.6-.1.6 3.8.9 3.8.9-.1 0 4.1.5 3.9.2-1.2-2.6 1-6.6 2.8-8.4 1.8-1.8 4-3.2 6.2-4.4 2-1.1 4-1.9 6.2-2.4 2.5-.6 5-.7 7.6-.3 5.4 0 10.7.3 16 1 17.7 2.1 34.9 6.5 52.3 10 18.8 3.8 37.7 6.5 56.7 8.6 34.7 3.8 69.9 4.2 104.7 2.5 35.1-1.8 70.2-5.9 104.8-12.4 15.8-3 31.5-6.4 47.1-10.1 5.2-1 10.3-2.4 15.3-4.1l6.1-1.8c6.2-1.8 12.7-3.5 19.2-4.2 5.8-.7 11.4-.7 17.2-.1 4.2.5 7.9 1.4 11.8 3.1 3.6 1.6 6.8 3.6 10 5.9 2 1.4 3.7 3 5.3 4.9 3.1 8.7 6.2 17.4 9.3 26-.3 2.3-.9 4.6-1.8 6.7-.7 2.4-1.7 4.6-3 6.8-2.4 4.1-5.4 7.9-8.4 11.6-4.9 6.2-10.2 11.9-16 17.3-3.4 3.2-7.1 6.1-10.9 8.8-3.7 2.9-7.5 5.5-11.5 7.8-6.6 3.9-13.4 7.3-20.5 10.1-15.6 6.3-32.1 9.5-48.2 14.6-13.3 4.2-26.1 9.8-39.6 13.3-6.5 1.7-13 2.9-19.7 3.7-6.6.7-13.2 1-19.8 1.2-4 .2-7.9.2-11.9.1-7.4-.1-14.9-.2-22.3-.1l-18.4-.2c-12.3-.2-24.7-.7-37-1.6h.4c-12.4-1.1-24.8-2.4-37-5-10.6-2.2-20.9-5.3-31-9.1-12.2-4.6-24-10.1-35.7-15.8-10.3-5-20.6-10.1-30.6-15.8-5-2.8-9.9-5.7-14.7-8.8-5-3.1-9.9-6.3-14.8-9.6-5.2-4-10.2-8.4-15-12.9-4.6-4.4-9-9.1-12.9-14.1-2.6-3.4-4.9-6.9-6.9-10.7-1.7-3.8-3.2-7.6-4.2-11.6-.5.2-.9.4-1.2.9l-3.6 4c-1.2 1.3-2.3 2.7-3.5 4.1-.4.5-.6.9-.7 1.4zM197.7 219.5c1.2 3.5 2.7 6.9 4.6 10 1.7 3.3 3.6 6.4 6 9.3 3 3.9 6.4 7.5 9.9 11 5.2 5.2 11.3 9.8 17.3 14.1 5.7 4 11.5 7.8 17.4 11.5 17 10.6 35.3 18.9 53.7 26.9 8.8 3.8 17.6 7.6 26.6 11.2 10.5 4.2 21.6 8.1 32.7 10.5 17.7 3.8 35.7 4.8 53.8 5.3 27.3.7 54.7.5 81.9-.4 14.7-.5 29.4-1.7 43.5-6.3 6.5-2.1 12.8-4.8 19.1-7.4l7.5-3.1c5.3-2.2 10.8-4.1 16.3-5.8l-.3.1c11.7-3.3 23.7-5.9 35.3-9.9 10.3-3.5 20-8 29.2-13.8 11.8-7.5 22.5-16.7 31.6-27.4 6.6-7.7 13-16.2 16.4-25.9 1.3-3.8 2-7.7 1.8-11.7-.2-3.9-1.3-7.6-2.8-11.1-2.8-6.7-7.7-12.5-13.3-17-5.6-4.4-12.2-7.6-19.2-9.4-10.8-2.7-22.5-1.7-33.3.4-4.4.9-8.7 1.9-13.1 3.1-9.4 2.5-18.9 4.9-28.4 7-28.3 6.4-56.9 11.4-85.7 15-59.7 7.4-120.5 8.5-180.2.4-12.5-1.7-25-3.8-37.3-6.3-8.7-1.7-17.2-3.8-25.9-5.6-8.7-1.8-17.4-3.4-26.2-4.4l-10.7-.9-10.8-.2c-4.9.5-9.9 2.5-13.9 5.3-1.8 1.3-3.5 2.6-4.9 4.3-1.1 1.3-2 2.7-2.6 4.3-.9 1.6-1.2 3.2-1 5.1-.1.6 5.6.9 5.5.9 1.5.2 2.9.3 4.4.4.4.1.8 0 1.2-.2l-.4-.8.6-2.1c.8-1.8 2.2-3.1 3.8-4.3 2.7-2.1 5.9-3.5 9.3-4.2 4.5-1 9.5-.5 13.8-.2 7.1.5 14.1 1.3 21.1 2.4 14.2 2.2 28.2 5.6 42.3 8.3 28.2 5.3 56.7 8.8 85.3 10.3 25.5 1.4 51 1.3 76.5-.1 28.8-1.6 57.4-4.7 85.8-9.2 12.7-2 25.3-4.3 37.8-6.9 13.4-2.7 26.9-5.3 40-9 7.8-2.2 15.7-4.3 23.7-5.4 4.2-.6 8.4-.8 12.6-.7 3.5 0 7 .3 10.5.9 1 .4 2 .8 3 1.1 5.3 2 10.2 4.7 14.4 8.5 4.6 4.3 8.2 9.8 9.6 15.9 1.3 5.4.7 10.5-1.1 15.6-1.3 3.6-3.1 6.8-5.3 9.9-2.6 3.7-5.4 7.4-8.4 10.8-7.9 9.3-17 17.4-27 24.5-6.1 4.4-12.8 8-19.5 11.3-6.8 3.3-13.8 5.8-21 8.3l.3-.1c-14.8 4.4-29.8 7.9-44.4 12.9-15 5.1-29.7 11.4-45.6 13.5-16.1 2.2-32.2 1.8-48.3 1.8-18.3 0-36.5-.1-54.8-1.1-11.8-.6-23.5-1.5-35.2-3.2-8.6-1.3-17.1-3-25.5-5.3-10.8-2.9-21.2-7.1-31.5-11.4-10.4-4.4-20.6-9.4-30.8-14.3-10.4-5.1-20.6-10.4-30.5-16.3-8.6-5.1-17.4-10.5-25.2-16.8-5.2-4.3-10.3-8.6-14.9-13.5-3.8-4-7.3-8.2-10.4-12.7-2-2.7-3.7-5.5-5.2-8.5-1.8-4-3.3-8.1-4.4-12.3-.5.3-.8.7-1 1.2l-2.9 5.1c-.9 1.7-1.9 3.4-2.7 5.2-.4.6-.6 1.1-.5 1.6zM199.8 212.9c3 6.7 6 13.1 10.6 18.9 3.8 4.9 8.1 9.3 12.7 13.5 9.8 8.9 20.9 16.2 32.1 23.1 18.8 11.6 39 20.5 59.3 29.2 17.5 7.5 35.2 15.1 53.8 19.2 17.7 4 35.8 4.8 53.9 5.2 18.5.5 37 .4 55.5.1 10.1-.2 20.3-.3 30.4-.8 13.4-.6 26.7-2 39.5-6.2 14.6-4.8 28.1-12.1 42.9-16.4 14.7-4.3 29.7-7.4 43.9-13 14.3-5.6 27.3-14.4 38.7-24.6 3.5-3.1 6.8-6.4 9.9-10 3.2-3.4 6.2-7 9-10.9 3.2-4.5 6.3-9.1 8.7-14.1 1.8-3.7 3-7.6 3.5-11.7.4-3.7-.3-7.8-1.4-11.3-5.1-16-20.3-27-36.2-30.5-6.5-1.4-13.9-1.4-20.4-.7-4.5.5-8.9 1.2-13.3 2.1-6.5 1.3-12.8 3.2-19.2 4.7-18.9 4.7-38.1 8.4-57.2 12.1.1 0 .2 0 .3-.1-25.3 4.3-50.7 8.1-76.3 10.3-25.3 2.2-50.7 3.3-76.1 2.9-25.2-.4-50.5-2.1-75.5-5.5-12.5-1.7-24.9-3.7-37.3-6.2-6.9-1.5-13.8-2.9-20.6-4.4-10.5-2.2-21.1-4.3-31.8-5.5-7.1-.8-14.3-1.2-21.5-1.1-1.8.2-3.5.6-5.2 1.2-4 1.3-8 3.3-11.3 6-1.7 1.4-3.1 3-4.2 4.9-1.1 1.9-1.7 4-1.7 6.3 0 .2 3.3-.9 3.7-1.1 1.8-.7 3.8-1.2 5.4-2.4l1.7-1.2c1.1-1.3 2.4-2.3 3.9-3l-.3.1c2.7-1.2 5.4-2.4 8.3-3 2.7-.6 5.3-.8 8.1-.9h-.4c4.4.3 8.9.5 13.4.6 7.1.5 14.1 1.4 21.2 2.5-.1 0-.2 0-.4-.1l41.9 7.5c25 4.3 50 7.4 75.3 8.9 44.4 2.6 89 .7 133.2-4.5 19.2-2.2 38.4-5.1 57.5-8.5l19-3.5 37.8-7.5c8-1.4 16-2.6 24.2-2.6 3.9-.1 7.8.2 11.7.8 4 .5 7.9 1.5 11.7 2.8-.1-.1-.2-.2-.3-.2 3.6 3 7.6 5.6 10.6 9.2.9 1.1 1.8 2.2 2.8 3.3l1.5 2.4c1.1 1.6 1.9 3 2.8 4.7l1.2 2.5c.4 1.3.7 2.7 1 4.1.4 2.2.2 4.1-.2 6.3-1.4 7.3-6.2 13.8-10.4 19.6-7.7 10.5-17.4 19.8-28 27.4-5.9 4.3-12.2 8.1-18.8 11.3-5.4 2.6-10.9 4.7-16.6 6.6-14.5 4.9-29.7 7.5-44.1 12.8-11 4-21.5 9.2-32.6 12.7-11.1 3.6-22.7 4.9-34.3 5.5-5.2.3-10.4.4-15.6.5-15.2.2-30.4.5-45.6.5-10.8 0-21.6-.3-32.4-.7-8.8-.3-17.5-.7-26.3-1.8-6.9-.8-13.9-1.9-20.7-3.5-9.1-2.1-18-5.1-26.7-8.4-16.1-6.1-31.9-13.1-47.4-20.3-15.4-7.2-30.7-15.1-44.7-24.7-8.8-6-17.5-12.5-25.1-20.1-3.3-3.4-6.4-7-9.2-10.8-4.3-5.8-6.8-11.9-9.3-18.5-.3.1-.5.3-.6.7l-1.5 3c-.8 1-2.3 3.4-1.9 4.3zM199 221c1.2 3.5 2.7 6.9 4.6 10 1.1 2.2 2.4 4.3 3.9 6.2 3.5 5.1 7.6 9.7 12 14 8.8 8.7 19.3 15.7 29.6 22.4 16.9 11 35 19.6 53.4 27.7 19.3 8.5 38.8 17.2 59.2 22.6 17.7 4.6 35.9 6 54.1 6.6 27.8.8 55.6.6 83.4-.2 13.3-.4 26.7-1 39.7-4.2 14.5-3.6 28-10.4 41.9-15.7-.1 0-.2.1-.4.1 7.3-2.4 14.6-4.5 22.1-6.5 7.4-1.9 14.8-3.8 22-6.2 7.4-2.5 14.5-5.5 21.3-9.2 12.3-6.6 23.3-15.2 33.1-25.1 5.5-5.5 10.4-11.7 14.8-18.2 2.7-3.9 5.2-7.9 7.1-12.3 1.6-3.7 2.5-7.6 2.6-11.7.1-3.1-.3-6-1.1-9-1.1-3.9-2.6-7.5-4.8-10.9-2.3-3.5-5-6.5-8.1-9.2-5.5-4.9-12.1-8.5-19.1-10.6-4.9-1.5-10-1.9-15.2-2-5.8-.1-11.6.3-17.3 1.4-4.5.8-8.9 1.9-13.3 3-3.2.8-6.4 1.7-9.5 2.6-4.2 1.2-8.4 2.2-12.6 3.1-28.3 6.7-56.9 12.1-85.7 16.1-31.5 4.4-63.4 6.8-95.2 7.1-28.4.3-56.8-1.2-85.1-4.5-15.6-1.9-31.2-4.2-46.7-7.4-8.6-1.8-17.2-3.8-25.9-5.6-8.7-1.8-17.4-3.5-26.2-4.4l-10.7-.9-10.8-.2c-4.9.7-9.8 2.6-13.9 5.4-1.9 1.3-3.5 2.7-4.9 4.4-1.1 1.3-2 2.7-2.5 4.3-.9 1.5-1.2 3.2-1 5-.1.6 4.5.9 4.6.9-.1 0 4.8.4 4.6.1-.8-1.1-.7-2.3.1-3.5.5-1.2 1.2-2.2 2-3.1 2.1-2.4 5.2-4.4 8.2-5.5 2.3-.9 4.6-1.4 7-1.7 5.4-.1 10.7.1 16 .7 5.3.4 10.6 1 15.9 1.9 10.6 1.7 21 4.1 31.4 6.3 19.1 4 38.3 7.2 57.7 9.4 41.1 4.8 82.6 5.5 123.8 2.8 38.4-2.5 76.5-8 114.2-15.6 12.5-2.6 25-5.4 37.4-8.4 3-.9 6-1.7 9-2.5 7.1-1.9 14.4-3.9 21.8-4.5 2.1-.1 4.2-.2 6.3-.4 4.9-.1 9.7.3 14.5 1.1 1.8.7 3.6 1.4 5.3 2.1 2.1.8 4.1 1.8 6 3 3.9 2.4 7.3 5.5 10.2 9 2 2.3 3.6 4.9 4.7 7.7 4.7 11.1 2.8 22.1-5.7 32.9l.2-.3c-2.9 3.7-5.8 7.5-8.8 11.1-5 5.8-10.6 11.1-16.5 16-4.7 3.9-9.6 7.4-14.8 10.7-6.4 4.1-13 7.4-19.9 10.6.1 0 .2-.1.4-.1l-8.7 3.5c.1 0 .2-.1.4-.1-8.7 2.9-17.4 5.5-26.3 7.9-8.9 2.4-17.7 4.8-26.5 7.8-15.1 5.1-30 11-46 13s-32.1 1.5-48.2 1.5c-18.2 0-36.4-.3-54.6-1.3-11.7-.7-23.3-1.7-34.8-3.5-8.5-1.3-16.8-3.1-25.1-5.4-10.7-3-20.9-7.1-31.1-11.4-10.3-4.4-20.4-9.3-30.4-14.2-10.2-5-20.3-10.2-30-16-8.5-5-17.2-10.3-24.9-16.5-5-4.1-10.1-8.2-14.6-12.9-3.8-3.8-7.3-7.8-10.5-12.1-2-2.6-3.8-5.3-5.3-8.2-1.9-3.8-3.3-7.8-4.5-11.9-.5.2-.9.5-1.2 1-1.2 1.4-2.5 2.9-3.7 4.4-1.2 1.5-2.4 3-3.5 4.5-.6.2-.8.6-.9 1.2zM198.5 215.4c1.6 4.6 3.7 9 6.2 13.2 2.6 4.2 5.5 8.1 8.8 11.7 5.8 6.4 12.4 12 19.3 17.2 8.2 6.1 16.7 11.8 25.5 17 13.8 8.2 28.4 14.9 43 21.3 24.4 10.7 48.8 21.8 75.3 26.1 10.7 1.8 21.5 2.5 32.4 3 22.1 1 44.2.8 66.3.5 12.8-.2 25.6-.3 38.3-1.2 9.3-.6 18.6-1.8 27.6-4.4 10.5-3 20.3-7.8 30.5-11.8 8.2-3.3 16.6-5.9 25.1-8.2 11.8-3.2 23.8-5.9 35.1-10.5 8.4-3.4 16.6-7.9 24.1-13 10.3-7 19.6-15.4 27.6-24.9 5.6-6.6 10.8-13.6 14.5-21.4 2.4-5.1 3.9-10.4 3.5-16-.4-6.1-2.8-12.1-6.4-17-6.4-9-15.7-15.7-26.3-19-5.7-1.7-12.1-2.4-18.1-2.3-9 .1-17.9 1.9-26.6 4l-12.6 3.3-19 4.4c-25.2 5.7-50.7 10.3-76.2 13.7-44.1 6-88.7 8.5-133.2 6.6-25.2-1.1-50.4-3.6-75.2-7.8-13.2-2.2-26.2-5.1-39.3-7.9-13.9-2.9-27.9-5.6-42.1-6.4-6.1-.3-10.6-.7-16 1-4 1.2-8.2 3.3-11.3 6-1.6 1.4-3 3.1-4.1 5-1.2 2-1.8 4.2-1.6 6.6 0 .4 6.8-.3 6.7-.3 1.8-.2 3.5-.4 5.2-.6.5 0 1-.1 1.4-.4.7-.4 1.1-1 1.4-1.7 1-1 2.1-1.7 3.4-2.2 2.6-1.3 5.2-2.2 8.1-2.7 5-.9 11.3-.2 16 .1 14.2.9 28.2 3.7 42.2 6.3 13.4 2.5 26.8 5 40.3 7 25.2 3.8 50.6 6 76.1 6.8 44.7 1.4 89.5-1.6 133.8-7.7 22.2-3 44.2-7 66.2-11.3 13-2.6 26-5.6 39.1-7.8 7.4-1.3 15-2.2 22.6-1.7 2 .2 4.1.4 6.1.5 3.1-.1 5.9.8 8.4 2.6 2.1.9 4.1 2.1 5.9 3.4 1.9 1.3 3.6 2.8 5.2 4.5 2.2 2.3 4.3 5.1 5.7 8 1.8 3.7 2.7 7.9 2.4 12-.4 4.4-2.3 8.5-4.6 12.3-4.1 6.7-9.2 12.9-14.5 18.7-8 8.5-17.1 16.2-27.1 22.3-7.5 4.6-15.4 8.5-23.6 11.7-11.4 4.3-23.3 7.1-35 10.3-8.5 2.3-16.8 5.1-25 8.1-9.7 3.6-19.3 7.5-29.4 9.9-7.5 1.8-15.2 2.6-22.9 3.1-5.2.3-10.4.5-15.7.6-8.6-.1-17.3-.1-25.9.1-19.9.1-39.7-.2-59.6-1.4-12.1-.7-24.2-1.9-36.2-4.3-25.5-5.1-49.2-16.2-72.6-27.2-14-6.6-27.7-13.7-40.9-21.8-5.6-3.1-10.8-6.7-15.8-10.6l-5.4-4.3c-7.1-5.7-13.7-12.1-19.3-19.3-2.8-3.6-5.3-7.4-7.5-11.4-1.9-4-3.5-8.2-4.7-12.5-.4.3-.7.7-.9 1.2-.8 1.6-1.6 3.2-2.3 4.9-.7 1.6-1.5 3.3-2.1 5-.2 0-.3.5-.3 1zM200.1 218.5c1.6 4.6 3.7 9 6.3 13.2 2.6 4.2 5.6 8.1 8.9 11.7 5.8 6.5 12.5 12 19.4 17.2 8.2 6.1 16.7 11.8 25.5 17 13.8 8.2 28.4 14.9 43.1 21.3 24.4 10.7 48.9 21.8 75.4 26.1 10.7 1.7 21.6 2.5 32.4 3 22.1 1 44.3.8 66.4.4 12.8-.2 25.6-.3 38.4-1.2 9.4-.7 18.6-1.9 27.7-4.5 10.5-3 20.3-7.9 30.5-11.9 8.2-3.3 16.6-5.9 25.1-8.2 11.8-3.2 23.8-5.9 35.1-10.6 8.4-3.4 16.6-7.9 24.1-13 10.3-7 19.5-15.5 27.6-25 5.6-6.6 10.8-13.6 14.5-21.4 2.4-5.1 3.9-10.3 3.5-16-.4-6.1-2.8-12-6.2-17-6.4-9.3-15.7-16-26.4-19.4-5.9-1.9-12.3-2.4-18.4-2.3-9.1.1-18 2-26.8 4.1-4.2 1.1-8.4 2.2-12.7 3.4-6.3 1.5-12.7 3-19 4.4-25.2 5.7-50.6 10.3-76.2 13.8-44.1 6-88.7 8.5-133.2 6.6-25.2-1.1-50.3-3.6-75.2-7.8-13.2-2.2-26.2-5.1-39.3-7.9-13.9-3-27.9-5.7-42.1-6.4-6.1-.3-10.6-.7-16 .9-4 1.2-8.2 3.3-11.4 6.1-1.6 1.5-3 3.1-4.1 5-1.2 2-1.8 4.1-1.8 6.5 0 .3 10.5.6 10.5-.3 0-2.6 2.1-4.7 4.1-6.1 2.5-1.9 5.5-3.2 8.6-4 5.3-1.3 11-.8 16.4-.5 14.2.8 28.2 3.6 42.1 6.4 13.3 2.7 26.6 5.3 39.9 7.4 25.1 4 50.4 6.3 75.8 7.3 44.6 1.7 89.4-1.1 133.6-7.2 22.3-3.1 44.4-7 66.4-11.6 9.4-1.9 18.7-3.9 28-6.1 4-1 7.9-1.9 11.9-2.8 8-1.7 16.2-3.1 24.5-2.8l6.9.4c3.6-.1 6.9.8 9.8 2.7 5 2.6 9.5 5.3 13.2 9.6 2.6 2.9 4.8 6.5 6.1 10.1 1.6 4.6 2.1 9.5 1 14.3-1.1 4.7-3.3 8.9-6 12.8-4.5 6.6-9.9 12.8-15.5 18.5-8.3 8.3-17.7 15.8-27.9 21.7-7.7 4.4-15.6 8.2-23.9 11.3-11.4 4.2-23.3 7-35 10.3-8.5 2.3-16.8 5.1-25.1 8-9.7 3.4-19.4 7-29.4 9.1-7.5 1.6-15.2 2.3-22.8 2.8-5.2.2-10.4.4-15.6.5-8.6-.2-17.2-.3-25.8-.1-19.8 0-39.5-.4-59.2-1.9-11.9-.9-23.9-2.1-35.6-4.6-25.1-5.3-48.5-16.3-71.6-27.3-13.8-6.5-27.2-13.5-40.2-21.4-5.5-3.1-10.6-6.6-15.6-10.4l-5.3-4.1c-6.9-5.5-13.4-11.5-18.9-18.3-2.8-3.4-5.3-7.1-7.5-11-1.9-3.9-3.5-7.9-4.7-12-.5.2-.8.5-1.1 1-1.1 1.4-2.2 2.9-3.2 4.4-1.1 1.5-2.1 3-3.1 4.5-.7.3-.9.8-.9 1.3zM199 211.1c1.6 4.6 3.7 9 6.3 13.1 1.3 2.1 2.8 4.1 4.2 6.1 4.6 6 10 11.4 15.7 16.2 6.7 5.7 13.9 10.6 21.3 15.4 11.2 7.3 22.8 13.9 34.9 19.7 14.3 6.9 28.9 13 43.5 19.1 14.1 5.8 28.4 11.6 43.4 14.7 10.7 2.2 21.4 3.6 32.3 4.3 7.2.4 14.5.7 21.7.8 12.3.3 24.7.4 37 .3 17.6-.2 35.3-.2 52.9-1.3 8-.5 16-1.2 23.8-2.9 10.8-2.3 20.7-6.5 30.8-10.8 4.9-2.2 9.9-4.2 15-6.1 5.8-2.1 11.7-3.8 17.6-5.4 8.8-2.4 17.7-4.5 26.4-7.4 11.7-3.8 22.7-9.3 32.8-16.3 10.2-7.1 19.5-15.6 27.5-25.1 5.6-6.6 10.7-13.7 14.5-21.5 2.4-5.1 3.9-10.5 3.4-16.2-.5-6.3-3.1-12.3-6.7-17.4-6.4-9-16.4-15.8-27-18.9-17-4.9-34.6-.8-51.2 3.5-14.6 3.8-29.4 7-44.2 10-25.3 5.1-50.7 9.2-76.3 12.1-44.1 5-88.7 6.4-133 3.2-25.1-1.8-50.2-5-74.9-10.1-13.8-2.8-27.5-6.3-41.5-8.5-7.2-1.1-14.3-2-21.6-2.3-6.1-.3-10.5-.8-16 1-4 1.3-7.9 3.3-11.2 6-1.8 1.4-3.3 3.1-4.5 5-1.2 1.9-1.8 4-1.7 6.3 0 .2 2.9-1.1 3.2-1.3 1.5-.8 3.2-1.5 4.5-2.6.6-.5 1.1-1 1.7-1.4l7.6-5c1.8-.8 3.8-1.3 5.8-1.7 5.5-1.1 10.7-.6 16.3-.4 14.2.6 28.3 2.9 42.3 5.5 21.1 3.9 42.2 7.8 63.5 10.2 50.4 5.6 101.1 5.5 151.5.7 28.7-2.7 57.3-7 85.7-12.2 12.7-2.4 25.4-4.9 38-7.4 7.5-1.5 14.7-2.7 22.2-3.6h-.4c6.1-.3 12.3-.7 18.4 0l5.8.9c3.8.7 7.4 1.9 10.9 3.4l-.3-.3 2.1 2.1c.7.5 1.4 1.1 2.2 1.6.9 1 1.9 1.9 3 2.8.7.5 1.3 1.1 1.9 1.7l3.8 3.5c.9 1.1 1.9 2 3 3l1.7 2.2c2.5 3.5 4.2 7.2 4.4 11.6.2 3.3-1.1 6.8-2.3 9.8-1.4 3.3-3.1 6.2-5.1 9.2-14.7 22.3-36.2 40-61.3 49.2-12.9 4.7-26.4 7.4-39.5 11.4-11.8 3.7-22.9 9-34.3 13.7-4.9 2-9.8 3.7-14.9 5-5.1 1.3-10.2 2.2-15.4 2.8-15.1 1.8-30.5 1.7-45.7 2-23.6.4-47.2.6-70.8-.5-16.2-.8-32.3-2.8-47.9-7.3-16.4-4.8-32.1-11.8-47.7-18.5-14.6-6.3-29-12.7-42.9-20.5-11.7-6.6-23.1-13.7-33.6-22.1-4.8-3.8-9.3-7.9-13.5-12.3-3.4-3.4-6.2-7.2-8.4-11.6-4-4.6-6.8-9.8-8.2-15.7-.3-.8-1.1 1.3-1 1.2-.4.9-.7 1.8-1 2.7-.3.6-.4 1.1-.5 1.6z"/></g><path class="st76" d="M605.8 198.6c-13.3 48.8-30 83.1-35.4 94.3-1.5 3.2-3.5 6.7-5.2 10-10.2 19.6-29.8 43.5-46.1 59.3h-.1c-3 2.9-5.9 5.6-8.7 7.9-6.3 4.7-15.8 10.1-28.7 13.2-10.6 2.6-23.6 3.5-39 1.2-13-1.9-25.3-7.6-35.3-16.1-.8-.7-1.6-1.4-2.5-2.1-2.5-2.2-5.3-4.6-8.1-7.3-16.7-15.4-37.1-37.3-47-56.3-1.7-3.3-3.7-6.8-5.2-10-5.4-11.2-23.5-49.7-36.8-98.5l20.3 11.8s13.1 92.1 44.5 122.9c0 0 10.7 13.4 27.6 26.4.5.4 1 .8 1.5 1.1 15 11.3 34.6 22 55.9 23.1 21.3-1.1 40.9-9.8 55.9-21.1l2.8-2.3c16.9-13 26.2-27.1 26.3-27.2 31.4-30.8 44.5-122.9 44.5-122.9l18.8-7.4z"/><linearGradient id="SVGID_69_" gradientUnits="userSpaceOnUse" x1="457.329" y1="194.332" x2="454.147" y2="376.637"><stop offset=".105" stop-color="#2F2321"/><stop offset=".751" stop-color="#3F322A"/><stop offset=".759" stop-color="#3F322A"/></linearGradient><path class="st77" d="M604 196.9c-13.3 48.8-28.3 75.5-33.7 86.8-1.5 3.2-3.5 6.7-5.2 10-10.2 19.6-29.8 43.5-46.1 59.3h-.1c-3 2.9-5.9 5.6-8.7 7.9-6.3 4.7-15.8 10.1-28.7 13.2-10.6 2.6-23.6 3.5-39 1.2-13-1.9-25.3-7.6-35.3-16.1-.8-.7-1.6-1.4-2.5-2.1-2.5-2.2-5.3-4.6-8.1-7.3-16.7-15.4-37.1-37.3-47-56.3-1.7-3.3-3.7-6.8-5.2-10-5.4-11.2-20.3-38-33.7-86.8h17.2s13.1 92.1 44.5 122.9c0 0 10.7 13.4 27.6 26.4.5.4 1 .8 1.5 1.1 15 11.3 34.6 22 55.9 23.1 21.3-1.1 40.9-9.8 55.9-21.1l2.8-2.3c16.9-13 26.2-27.1 26.3-27.2 31.4-30.8 44.5-122.9 44.5-122.9h17.1z"/><linearGradient id="SVGID_70_" gradientUnits="userSpaceOnUse" x1="302.672" y1="157.392" x2="304.724" y2="148.503"><stop offset=".455" stop-color="#2F2321"/><stop offset=".843" stop-color="#3F322A"/><stop offset=".848" stop-color="#3F322A"/></linearGradient><path class="st78" d="M315 151.1c-.4.6-.8 1.2-1.3 1.9-.5.6-.6 1.5-1.3 2-2.5 1.8-6.1 2.6-9.5 2.3-2.4-.2-7.6-1.4-8.7-3.5-.1-.2-.2-.4-.2-.7-.1-1.4.2-2.9.3-4.3l.2-2.7c.1 3.5 1.3 7 4.7 8.5 2.6 1.2 5.8 1 8.5.5 1.6-.3 3.2-1 4.5-1.8 1.1-.6 2-1.4 2.8-2.2z"/><linearGradient id="SVGID_71_" gradientUnits="userSpaceOnUse" x1="378.669" y1="124.497" x2="383.228" y2="137.738" gradientTransform="matrix(-.773 .634 .634 .773 513.547 -183.745)"><stop offset="0" stop-color="#fff"/><stop offset=".506" stop-color="#FAED39"/><stop offset=".618" stop-color="#F9E237"/><stop offset=".791" stop-color="#F9D735"/><stop offset=".925" stop-color="#F9D334"/></linearGradient><path class="st79" d="M302.7 166.6s-7.5-8.8-1.1-14.5c.4-.4 1.1-.2 1.3.3l-.1.2c-.9 2.2-.7 4.8.4 6.9 1.1 2 2.6 4.3 4 5.1l-4.5 2z"/><linearGradient id="SVGID_72_" gradientUnits="userSpaceOnUse" x1="323.665" y1="175.621" x2="279.725" y2="182.58"><stop offset=".28" stop-color="#F9D334"/><stop offset=".322" stop-color="#FAD94F"/><stop offset=".412" stop-color="#FCE893"/><stop offset=".542" stop-color="#fff"/><stop offset=".545" stop-color="#FFFFFC"/><stop offset=".661" stop-color="#FDF7AA"/><stop offset=".756" stop-color="#FBF26D"/><stop offset=".825" stop-color="#FAEE47"/><stop offset=".861" stop-color="#FAED39"/></linearGradient><path class="st80" d="M290.8 151.5l-8.4 47s-.3 6.3 6.1 7.9l8.7 1.9s9.7 2.7 13.4-8.8l9-50-7.4 6.6.7 7.2c.1.6 0 1.2-.1 1.8l-8.4 34.6c-.4 1.6-1.5 2.9-3 3.4-.9.3-2.1.4-3.6.1l-7.2-1.9c-1.4-.4-2.5-1.4-2.9-2.7-.4-1.2-.5-3 .1-5.5l7.7-36.9-4.7-4.7z"/><linearGradient id="SVGID_73_" gradientUnits="userSpaceOnUse" x1="304.024" y1="155.98" x2="310.127" y2="129.541"><stop offset=".455" stop-color="#2F2321"/><stop offset=".843" stop-color="#3F322A"/><stop offset=".848" stop-color="#3F322A"/></linearGradient><path class="st81" d="M322.2 135.3c-.4 1.4-.9 2.8-1.4 4.2-.9 2.1-1.9 4.2-2.9 6.3v.1c-.9 1.8-1.8 3.5-2.8 5.2-.8.9-1.7 1.6-2.8 2.3-1.4.8-3 1.5-4.5 1.8-2.8.5-5.9.7-8.5-.5-3.4-1.5-4.6-5-4.7-8.5l.3-4 .6-4.8c.1-.5.1-1.9.4-3.3.2-1.6.7-3.3 1.8-3.6 0 0 11-3.8 24.9 3.3.2 0-.4 1.3-.4 1.5z"/><linearGradient id="SVGID_74_" gradientUnits="userSpaceOnUse" x1="300.932" y1="132.166" x2="309.86" y2="158.096"><stop offset="0" stop-color="#fff"/><stop offset=".506" stop-color="#FAED39"/><stop offset=".618" stop-color="#F9E237"/><stop offset=".791" stop-color="#F9D735"/><stop offset=".925" stop-color="#F9D334"/></linearGradient><path class="st82" d="M321.9 142.2c.1 1.2-.2 2.5-.6 3.6-.3 1-.5 1.9-.8 2.8-.5 1.7-1.5 3.2-2.7 4.4-2.1 2.2-4.8 3.8-7.6 4.8-1.9.7-3.9 1.2-5.8.9-1.1-.1-2.3-.3-3.4-.5-4.4-.9-9.7-2.8-11.3-7.4-.6-1.7-.6-3.8-.4-5.6.4-3.6 2.1-7.1 4.5-9.8.5-.5 1-1.1 1.7-1.4l.2-.1c-.2 1.4-.3 2.8-.4 3.3l-.6 4.8c-.1.3-.2.7-.2 1.1-.1.9-.1 1.7-.1 2.6v.3c.1 3.5 1.3 7 4.7 8.5 2.6 1.2 5.8 1 8.5.5 1.6-.3 3.2-1 4.5-1.8 1.2-.7 2.1-1.5 2.8-2.3.7-.8 1.2-1.6 1.6-2.5l1.2-2.7v-.1c1-2.1 2-4.2 2.9-6.3l.4.4c.3.5.5 1 .6 1.6.2.4.2.7.3.9z"/><linearGradient id="SVGID_75_" gradientUnits="userSpaceOnUse" x1="300.952" y1="181.016" x2="329.45" y2="181.016"><stop offset=".099" stop-color="#352614"/><stop offset=".252" stop-color="#382816"/><stop offset=".376" stop-color="#3F2F1A"/><stop offset=".491" stop-color="#4C3B20"/><stop offset=".599" stop-color="#604C27"/><stop offset=".703" stop-color="#7E662F"/><stop offset=".804" stop-color="#A98C36"/><stop offset=".9" stop-color="#E3C037"/><stop offset=".925" stop-color="#F9D334"/></linearGradient><path class="st83" d="M329.4 192.3l-.2 2.8c-.1 1.5-1.3 1.8-2.6 1.7l-17 .3h-.2c-.3 0-.6-.1-.9-.3l-1.1-.7c-.5-.3-.9-.8-1-1.5l-5.4-25.2c-.4-1.7.4-3.5 1.8-4.3.1-.1.2-.1.2-.1l.7-.2 6.5 26.8c0 .1.1.3.2.4l1.1 1.4 17.9-1.1z"/><path class="st84" d="M319.2 187.6l-2.2-1.5"/><linearGradient id="SVGID_76_" gradientUnits="userSpaceOnUse" x1="300.358" y1="167.065" x2="330.901" y2="191.798"><stop offset=".393" stop-color="#F9D334"/><stop offset=".75" stop-color="#F9E538"/><stop offset=".861" stop-color="#FAED39"/></linearGradient><path class="st85" d="M302 165.5c-.2-.8.4-.7 1.2-.7l16.2-.8c.5 0 1 .1 1.6.3 1 .3 1.8 1.2 2 2.2l6.2 23.8c.7 2.1-.2 5.2-2.5 5.4l-13.5.2c-1.6.1-3.5-1.1-3.9-2.7l-7.3-27.7z"/><ellipse class="st86" cx="315.3" cy="175.5" rx="3.3" ry="3.3"/><linearGradient id="SVGID_77_" gradientUnits="userSpaceOnUse" x1="318.307" y1="175.501" x2="312.386" y2="175.501"><stop offset=".05" stop-color="#C3A22E"/><stop offset=".511" stop-color="#F9D334"/><stop offset=".668" stop-color="#DFBB2F"/><stop offset=".792" stop-color="#C9A72D"/></linearGradient><ellipse class="st87" cx="315.3" cy="175.5" rx="3" ry="2.9"/><path class="st88" d="M314.9 176.8l.4-2.6M316.2 176.2l-2.2-1.4"/><ellipse class="st86" cx="317.9" cy="186.5" rx="3.3" ry="3.3"/><linearGradient id="SVGID_78_" gradientUnits="userSpaceOnUse" x1="320.835" y1="186.488" x2="314.915" y2="186.488"><stop offset=".05" stop-color="#C3A22E"/><stop offset=".511" stop-color="#F9D334"/><stop offset=".668" stop-color="#DFBB2F"/><stop offset=".792" stop-color="#C9A72D"/></linearGradient><ellipse class="st89" cx="317.9" cy="186.5" rx="3" ry="2.9"/><path class="st88" d="M317.5 187.8l.3-2.6M318.8 187.2l-2.3-1.5"/><linearGradient id="SVGID_79_" gradientUnits="userSpaceOnUse" x1="301.932" y1="179.924" x2="328.281" y2="179.924"><stop offset=".099" stop-color="#352614"/><stop offset=".252" stop-color="#382816"/><stop offset=".376" stop-color="#3F2F1A"/><stop offset=".491" stop-color="#4C3B20"/><stop offset=".599" stop-color="#604C27"/><stop offset=".703" stop-color="#7E662F"/><stop offset=".804" stop-color="#A98C36"/><stop offset=".9" stop-color="#E3C037"/><stop offset=".925" stop-color="#F9D334"/></linearGradient><path class="st90" d="M302 166.2l16.3-.8c.8 0 1.5.2 2.2.5.9.5 1.6 1.4 1.8 2.5l5.4 20.9c.2.7.2 1.3 0 2-.4 1.8-2 3.1-3.8 3.1h-14.2"/><linearGradient id="SVGID_80_" gradientUnits="userSpaceOnUse" x1="304.491" y1="151.087" x2="309.375" y2="165.27"><stop offset="0" stop-color="#fff"/><stop offset=".506" stop-color="#FAED39"/><stop offset=".618" stop-color="#F9E237"/><stop offset=".791" stop-color="#F9D735"/><stop offset=".925" stop-color="#F9D334"/></linearGradient><path class="st91" d="M312 164.4s-1-12.2-9.7-12.5c-.6 0-1 .5-.7 1.1l2 1.1c1.7.9 3 2.6 3.4 4.5.5 2 .8 4.5.2 6l4.8-.2z"/><path class="st11" d="M293.9 207.6l-5.6 15.8-5.7 15.7-11.5 31.4c-1.5 3.2-2.8 6.6-4.1 9.9-1.3 3.3-2.5 6.7-3.6 10.1-1.1 3.4-2.1 6.8-3.1 10.3-.9 3.5-1.7 6.9-2.4 10.4s-1.2 7-1.5 10.6c-.1.9-.2 1.8-.2 2.7l-.1 2.7c-.1.9 0 1.8 0 2.7l.1 2.7.1 5.4v2.7l-.1 2.7c-.1 3.6-.3 7.2-.5 10.8l-.7 10.8c-.3 3.6-.6 7.2-1 10.8-.4 3.6-.8 7.2-1.4 10.7-.5 3.6-1.1 7.1-1.7 10.7l-1 5.3c-.3 1.8-.7 3.5-1.1 5.3l-1.2 5.3-1.4 5.2c-.4 1.7-1.1 3.4-1.6 5.2l-.8 2.6c-.3.9-.6 1.7-.9 2.5-.7 1.7-1.2 3.4-2 5l-2.3 4.9 2.1-5c.4-.8.6-1.7.9-2.5l.9-2.5c.3-.9.6-1.7.9-2.5l.8-2.6c.5-1.7 1-3.4 1.4-5.2l1.3-5.2 1.1-5.3c.4-1.8.7-3.5 1-5.3.3-1.8.7-3.5.9-5.3.5-3.6 1.1-7.1 1.5-10.7.5-3.6.8-7.1 1.2-10.7.3-3.6.7-7.2.9-10.7.3-3.6.5-7.2.7-10.7.2-3.6.3-7.2.4-10.8l.1-2.7v-2.6l-.1-5.4-.1-2.7c0-.9-.1-1.8 0-2.7l.1-2.7c0-.9.1-1.8.2-2.7.3-3.6.9-7.2 1.6-10.8.7-3.6 1.5-7.1 2.5-10.6s2-6.9 3.2-10.4c1.1-3.4 2.4-6.8 3.7-10.2 1.3-3.4 2.7-6.7 4.2-10v.1l12.1-31.2 6.1-15.6 5.7-15.7zM602.2 212.6s1.9 2.8 5 7.8 7.5 12.1 12.4 20.9c2.5 4.4 5 9.2 7.7 14.3 2.7 5.1 5.3 10.6 7.4 16.6 2.2 5.9 4.1 12.1 5.6 18.6 1.5 6.5 2.6 13.1 3.3 19.8.3 3.4.5 6.7.7 10 .2 3.3.5 6.6.9 9.9.7 6.5 1.6 12.9 2.8 19.1 1.2 6.1 2.6 12 4.3 17.4.9 2.7 1.8 5.3 2.9 7.8.5 1.2 1.1 2.4 1.7 3.6l1.7 3.5c2.2 4.5 3.9 8.9 4.9 12.9 1 4 1.4 7.6 1.5 10.5.1 2.9-.1 5.2-.3 6.8-.1.8-.2 1.4-.3 1.8-.1.4-.1.6-.1.6s0-.2.1-.6c.1-.4.2-1 .2-1.8.2-1.6.2-3.9 0-6.8s-.7-6.4-1.9-10.3c-1.1-3.9-2.9-8.1-5.2-12.6-.6-1.1-1.2-2.2-1.8-3.4l-1.8-3.6c-1.1-2.5-2.2-5.1-3.1-7.9-1.9-5.5-3.4-11.4-4.6-17.6-1.2-6.2-2.2-12.6-2.9-19.2-.4-3.3-.7-6.6-1-9.9l-.8-10c-.6-6.6-1.7-13.2-3.1-19.6-1.4-6.4-3.3-12.6-5.4-18.4-2.1-5.9-4.6-11.4-7.1-16.5-2.5-5.2-5-10-7.4-14.4-4.7-8.8-8.8-16.2-11.7-21.2-2.9-5.2-4.6-8.1-4.6-8.1z"/><linearGradient id="SVGID_81_" gradientUnits="userSpaceOnUse" x1="558.516" y1="529.302" x2="497.065" y2="240.197"><stop offset=".105" stop-color="#2F2321"/><stop offset=".751" stop-color="#3F322A"/><stop offset=".759" stop-color="#3F322A"/></linearGradient><path class="st92" d="M345 346.5c-31.7 18.8-50.2 54.3-46.2 90.9l.3 2.2c1 7.2 2.6 14 4.9 20.3 12.7 36.1 42 56.9 42 56.9 69.6 47 166.2 3.8 195.5-11.4 7.9-4.1 16.2-7.6 24.6-10.5 21.3-7.3 54.2-17.8 76.8-24.9 9.9-5 17.2-8.2 20.9-9.7 1.9-.8 3.8-1.7 5.6-2.6 12.2-6.4 14.4-6.4 17.1-7.6 7.8 1.3 9.4 15 9.6 23.3.1 4.1-2.1 7.9-5.7 10-45.7 26-189.4 58-189.4 58-144 32.5-193.5-52-193.5-52-5.8-10.1-9.6-19.9-12.1-29.3-1.8-7-2.9-13.7-3.4-20.1-2-26.3 5.8-46.3 8.8-52.8.7-1.6 1.5-3.3 2.1-4.9 15.5-38.5 68.7-62.3 86.3-69.2 3.3-1.3 6.6-2.7 9.9-4.2 38.7-17.8 160.5-39.7 207.4-47.8 25.5-4.4 50.1-13.1 72.5-26.2 32.8-19.2 51.3-44.4 51.3-44.4l7.5 13.7c-44.5 53.5-149.9 70.5-168.4 72.6-2.2.3-4.5.5-6.7.9-116.1 18.3-183.4 48.5-217.7 68.8z"/><linearGradient id="SVGID_82_" gradientUnits="userSpaceOnUse" x1="726.365" y1="198.582" x2="745.255" y2="198.582"><stop offset="0" stop-color="#2F2321"/><stop offset=".488" stop-color="#3F322A"/><stop offset=".694" stop-color="#3C3029"/><stop offset=".947" stop-color="#332724"/><stop offset="1" stop-color="#312522"/></linearGradient><path class="st93" d="M726.6 196s-2.1-7.3 5.8-8.3c0 0 8.2-1.1 12.2 6.9 1 2.1.8 4.5-.5 6.4-1.9 2.8-6.3 6.7-11.4 8.6-.1 0 9.8-7.1-6.1-13.6z"/><linearGradient id="SVGID_83_" gradientUnits="userSpaceOnUse" x1="91.876" y1="223.707" x2="89.908" y2="201.211"><stop offset="0" stop-color="#2F2321"/><stop offset=".488" stop-color="#3F322A"/><stop offset=".694" stop-color="#3C3029"/><stop offset=".947" stop-color="#332724"/><stop offset="1" stop-color="#312522"/></linearGradient><path class="st94" d="M81.3 212.5s1.6-15.8 13.3-10 12.6 12.8-3.9 21.3l-4.7-8.2s11.4-1.4 9.6-7.9-8.6-13.1-12.8 5.5l-1.5-.7z"/><path class="st11" d="M80.7 235.6l-2.4-.5-9.7-7.8v-3.5l2.6-2.4 8.8 7.5zM85.4 214.9s6.2-6.5 8.8-2.4c0 0 3-1.4 1.6-4.8s-1.5-6.7-8.1-4.3c0 0-4.5 1.8-4.7 9.8-.1 0 .6 2.7 2.4 1.7z"/><linearGradient id="SVGID_84_" gradientUnits="userSpaceOnUse" x1="80.478" y1="235.638" x2="78.411" y2="212.01"><stop offset="0" stop-color="#2F2321"/><stop offset=".488" stop-color="#3F322A"/><stop offset=".694" stop-color="#3C3029"/><stop offset=".947" stop-color="#332724"/><stop offset="1" stop-color="#312522"/></linearGradient><path class="st95" d="M68.6 227.8s.6-15.6 12.1 7.8l10.7-9.3s-2.7-13.7-12.9-14.3c0 0-13.8 10-9.9 15.8"/><linearGradient id="SVGID_85_" gradientUnits="userSpaceOnUse" x1="155.827" y1="307.372" x2="160.386" y2="320.613" gradientTransform="matrix(.773 .634 -.634 .773 689.297 -183.745)"><stop offset="0" stop-color="#fff"/><stop offset=".506" stop-color="#FAED39"/><stop offset=".618" stop-color="#F9E237"/><stop offset=".791" stop-color="#F9D735"/><stop offset=".925" stop-color="#F9D334"/></linearGradient><path class="st96" d="M611.8 166.6s7.5-8.8 1.1-14.5c-.4-.4-1.1-.2-1.3.3l.1.2c.9 2.2.7 4.8-.4 6.9-1.1 2-2.6 4.3-4 5.1l4.5 2z"/><linearGradient id="SVGID_86_" gradientUnits="userSpaceOnUse" x1="611.939" y1="175.621" x2="567.999" y2="182.58" gradientTransform="matrix(-1 0 0 1 1202.844 0)"><stop offset=".28" stop-color="#F9D334"/><stop offset=".322" stop-color="#FAD94F"/><stop offset=".412" stop-color="#FCE893"/><stop offset=".542" stop-color="#fff"/><stop offset=".545" stop-color="#FFFFFC"/><stop offset=".661" stop-color="#FDF7AA"/><stop offset=".756" stop-color="#FBF26D"/><stop offset=".825" stop-color="#FAEE47"/><stop offset=".861" stop-color="#FAED39"/></linearGradient><path class="st97" d="M623.8 151.5l8.4 47s.3 6.3-6.1 7.9l-8.7 1.9s-9.7 2.7-13.4-8.8l-9-50 7.4 6.6-.7 7.2c-.1.6 0 1.2.1 1.8l8.4 34.6c.4 1.6 1.5 2.9 3 3.4.9.3 2.1.4 3.6.1l7.2-1.9c1.4-.4 2.5-1.4 2.9-2.7.4-1.2.5-3-.1-5.5l-7.7-36.9 4.7-4.7z"/><linearGradient id="SVGID_87_" gradientUnits="userSpaceOnUse" x1="592.297" y1="155.98" x2="598.401" y2="129.541" gradientTransform="matrix(-1 0 0 1 1202.844 0)"><stop offset=".455" stop-color="#2F2321"/><stop offset=".843" stop-color="#3F322A"/><stop offset=".848" stop-color="#3F322A"/></linearGradient><path class="st98" d="M592.4 135.3c.4 1.4.9 2.8 1.4 4.2.9 2.1 1.9 4.2 2.9 6.3v.1c.9 1.8 1.8 3.5 2.8 5.2.8.9 1.7 1.6 2.8 2.3 1.4.8 3 1.5 4.5 1.8 2.8.5 5.9.7 8.5-.5 3.4-1.5 4.6-5 4.7-8.5l-.3-4-.6-4.8c-.1-.5-.1-1.9-.4-3.3-.2-1.6-.7-3.3-1.8-3.6 0 0-11-3.8-24.9 3.3-.2 0 .3 1.3.4 1.5z"/><linearGradient id="SVGID_88_" gradientUnits="userSpaceOnUse" x1="589.206" y1="132.166" x2="598.134" y2="158.096" gradientTransform="matrix(-1 0 0 1 1202.844 0)"><stop offset="0" stop-color="#fff"/><stop offset=".506" stop-color="#FAED39"/><stop offset=".618" stop-color="#F9E237"/><stop offset=".791" stop-color="#F9D735"/><stop offset=".925" stop-color="#F9D334"/></linearGradient><path class="st99" d="M592.7 142.2c-.1 1.2.2 2.5.6 3.6.3 1 .5 1.9.8 2.8.5 1.7 1.5 3.2 2.7 4.4 2.1 2.2 4.8 3.8 7.6 4.8 1.9.7 3.9 1.2 5.8.9 1.1-.1 2.3-.3 3.4-.5 4.4-.9 9.7-2.8 11.3-7.4.6-1.7.6-3.8.4-5.6-.4-3.6-2.1-7.1-4.5-9.8-.5-.5-1-1.1-1.7-1.4l-.2-.1c.2 1.4.3 2.8.4 3.3l.6 4.8c.1.3.2.7.2 1.1.1.9.1 1.7.1 2.6v.3c-.1 3.5-1.3 7-4.7 8.5-2.6 1.2-5.8 1-8.5.5-1.6-.3-3.2-1-4.5-1.8-1.2-.7-2.1-1.5-2.8-2.3-.7-.8-1.2-1.6-1.6-2.5l-1.2-2.7v-.1c-1-2.1-2-4.2-2.9-6.3l-.4.4c-.3.5-.5 1-.6 1.6-.2.4-.3.7-.3.9z"/><linearGradient id="SVGID_89_" gradientUnits="userSpaceOnUse" x1="588.632" y1="167.065" x2="619.174" y2="191.798" gradientTransform="matrix(-1 0 0 1 1202.844 0)"><stop offset=".393" stop-color="#F9D334"/><stop offset=".75" stop-color="#F9E538"/><stop offset=".861" stop-color="#FAED39"/></linearGradient><path class="st100" d="M612.6 165.5c.2-.8-.4-.7-1.2-.7l-16.2-.8c-.5 0-1 .1-1.6.3-1 .3-1.8 1.2-2 2.2l-6.2 23.8c-.7 2.1.2 5.2 2.5 5.4l13.5.2c1.6.1 3.5-1.1 3.9-2.7l7.3-27.7z"/><ellipse class="st86" cx="599.2" cy="175.5" rx="3.3" ry="3.3"/><linearGradient id="SVGID_90_" gradientUnits="userSpaceOnUse" x1="606.58" y1="175.501" x2="600.66" y2="175.501" gradientTransform="matrix(-1 0 0 1 1202.844 0)"><stop offset=".05" stop-color="#C3A22E"/><stop offset=".511" stop-color="#F9D334"/><stop offset=".668" stop-color="#DFBB2F"/><stop offset=".792" stop-color="#C9A72D"/></linearGradient><ellipse class="st101" cx="599.2" cy="175.5" rx="3" ry="2.9"/><path class="st88" d="M599.6 176.8l-.3-2.6M598.3 176.2l2.3-1.4"/><linearGradient id="SVGID_91_" gradientUnits="userSpaceOnUse" x1="589.804" y1="179.924" x2="616.555" y2="179.924" gradientTransform="matrix(-1 0 0 1 1202.844 0)"><stop offset=".099" stop-color="#352614"/><stop offset=".252" stop-color="#382816"/><stop offset=".376" stop-color="#3F2F1A"/><stop offset=".491" stop-color="#4C3B20"/><stop offset=".599" stop-color="#604C27"/><stop offset=".703" stop-color="#7E662F"/><stop offset=".804" stop-color="#A98C36"/><stop offset=".9" stop-color="#E3C037"/><stop offset=".925" stop-color="#F9D334"/></linearGradient><path class="st102" d="M613 166.2l-16.6-.8c-.8 0-1.5.2-2.2.5-.9.5-1.6 1.4-1.9 2.5l-5.5 20.9c-.2.7-.2 1.3 0 2 .4 1.8 2 3.1 3.9 3.1h14.4"/><linearGradient id="SVGID_92_" gradientUnits="userSpaceOnUse" x1="592.742" y1="151.095" x2="597.691" y2="165.469" gradientTransform="matrix(-1 0 0 1 1202.844 0)"><stop offset="0" stop-color="#fff"/><stop offset=".506" stop-color="#FAED39"/><stop offset=".618" stop-color="#F9E237"/><stop offset=".791" stop-color="#F9D735"/><stop offset=".925" stop-color="#F9D334"/></linearGradient><path class="st103" d="M602.6 164.6s1-12.4 9.7-12.7c.6 0 1 .6.7 1.1l-2 1.1c-1.7 1-3 2.6-3.4 4.6-.5 2-.8 4.6-.2 6.1l-4.8-.2z"/><path class="st84" d="M595.3 187.6l2.3-1.5"/><ellipse class="st86" cx="596.7" cy="186.5" rx="3.3" ry="3.3"/><linearGradient id="SVGID_93_" gradientUnits="userSpaceOnUse" x1="609.109" y1="186.488" x2="603.188" y2="186.488" gradientTransform="matrix(-1 0 0 1 1202.844 0)"><stop offset=".05" stop-color="#C3A22E"/><stop offset=".511" stop-color="#F9D334"/><stop offset=".668" stop-color="#DFBB2F"/><stop offset=".792" stop-color="#C9A72D"/></linearGradient><ellipse class="st104" cx="596.7" cy="186.5" rx="3" ry="2.9"/><path class="st88" d="M597.1 187.8l-.4-2.6M595.8 187.2l2.2-1.5"/></g></svg>