<?xml version="1.0" encoding="utf-8"?>
<!-- Generator: Adobe Illustrator 19.1.0, SVG Export Plug-In . SVG Version: 6.00 Build 0)  -->
<svg version="1.1" xmlns="http://www.w3.org/2000/svg" xmlns:xlink="http://www.w3.org/1999/xlink" x="0px" y="0px"
	 viewBox="0 0 792 612" style="enable-background:new 0 0 792 612;" xml:space="preserve">
<style type="text/css">
	.st0{fill:#6FC6C0;}
	.st1{fill:url(#SVGID_1_);}
	.st2{fill:url(#SVGID_2_);}
	.st3{fill:url(#SVGID_3_);}
	.st4{fill:url(#SVGID_4_);}
	.st5{fill:url(#SVGID_5_);}
	.st6{fill:url(#SVGID_6_);}
	.st7{fill:url(#SVGID_7_);}
	.st8{fill:url(#SVGID_8_);}
	.st9{fill:url(#SVGID_9_);}
	.st10{fill:url(#SVGID_10_);}
	.st11{fill:url(#SVGID_11_);}
	.st12{fill:url(#SVGID_12_);}
	.st13{fill:url(#SVGID_13_);}
	.st14{fill:url(#SVGID_14_);}
	.st15{fill:url(#SVGID_15_);}
	.st16{fill:url(#SVGID_16_);}
	.st17{fill:url(#SVGID_17_);}
	.st18{fill:#DDD5C7;stroke:#330B08;stroke-width:3;stroke-miterlimit:10;}
	.st19{fill:url(#SVGID_18_);}
	.st20{fill:#DDD5C7;}
	.st21{fill:none;stroke:#DDD5C7;stroke-miterlimit:10;}
	.st22{fill:none;stroke:#330B08;stroke-miterlimit:10;}
	.st23{fill:none;stroke:#330B08;stroke-miterlimit:10;stroke-dasharray:11.891,1.9818;}
</style>
<g id="bg">
	<rect class="st0" width="792" height="612"/>
</g>
<g id="Layer_2">
	<linearGradient id="SVGID_1_" gradientUnits="userSpaceOnUse" x1="125.4361" y1="73.0867" x2="212.2048" y2="73.0867">
		<stop  offset="4.772168e-03" style="stop-color:#953A2C"/>
		<stop  offset="0.2059" style="stop-color:#913123"/>
		<stop  offset="0.613" style="stop-color:#8B2416"/>
		<stop  offset="1" style="stop-color:#892012"/>
	</linearGradient>
	<path class="st1" d="M212.1,67.4c-0.3,1.2-1.3,2.3-3.3,3l-72.1,13.3l-7.8-1l-3.4-1.1c0-1.4,5.1-4.9,6.5-5.2l75.4-13.9
		C210.2,62,212.9,64.6,212.1,67.4z"/>
	<linearGradient id="SVGID_2_" gradientUnits="userSpaceOnUse" x1="103.0078" y1="80.5187" x2="139.2622" y2="80.5187">
		<stop  offset="4.772168e-03" style="stop-color:#953A2C"/>
		<stop  offset="0.2059" style="stop-color:#913123"/>
		<stop  offset="0.613" style="stop-color:#8B2416"/>
		<stop  offset="1" style="stop-color:#892012"/>
	</linearGradient>
	<path class="st2" d="M135.8,90.8C125.6,91.2,107,91,107,91c-8.9-3.6,0-10.3,0-10.3s2.9-20.7,32.3-4.6c-0.7-0.2-25.2-7.4-27,4.2
		c0.7-0.1,1.3-0.3,2-0.4c6-1.7,15.8,1.4,21.7,3.6C138.4,84.4,138.4,90.6,135.8,90.8z"/>
	<linearGradient id="SVGID_3_" gradientUnits="userSpaceOnUse" x1="260.2662" y1="19.2978" x2="517.7788" y2="597.6807">
		<stop  offset="3.938963e-02" style="stop-color:#2F3B4B"/>
		<stop  offset="0.2337" style="stop-color:#2A3647"/>
		<stop  offset="0.464" style="stop-color:#1C293A"/>
		<stop  offset="0.6552" style="stop-color:#0A182B"/>
	</linearGradient>
	<path class="st3" d="M706.9,512.5c-1.5,0.1-2.9,0.2-4.4,0.4c-17.4,1.9-110,10.3-325,7.6h-0.2c-189,1.4-271.9-6.2-288.3-7.9
		c-1.5-0.2-2.9-0.3-4.4-0.4C57.9,510,55.3,462,55,453.6c0-0.8,0-1.5,0.1-2.3l29.4-345.2c0.7-8.7,13-15.4,17.1-15.4L689.8,91
		c3.7-0.4,16.3,6.7,17.1,15.4l29,340.2c0.4,4.5,0.2,9.1-0.5,13.6C733,476.1,725.5,511.3,706.9,512.5z"/>
	<linearGradient id="SVGID_4_" gradientUnits="userSpaceOnUse" x1="65.0178" y1="234.8949" x2="300.9626" y2="226.6555">
		<stop  offset="0.1374" style="stop-color:#DDD5C7"/>
		<stop  offset="0.9746" style="stop-color:#908B82"/>
	</linearGradient>
	<path class="st4" d="M80.1,152.3C90.9,167.2,281.7,285,281.7,285H303v23.7l-235.6-5l2.1-25.3l179.1,4.3l-146.7-93
		c-13.7-8.7-23.5-18.3-23.5-18.3"/>
	<linearGradient id="SVGID_5_" gradientUnits="userSpaceOnUse" x1="68.6193" y1="169.5101" x2="316.1719" y2="235.8417">
		<stop  offset="4.772168e-03" style="stop-color:#953A2C"/>
		<stop  offset="5.206288e-02" style="stop-color:#923426"/>
		<stop  offset="0.2022" style="stop-color:#8D291B"/>
		<stop  offset="0.4133" style="stop-color:#8A2214"/>
		<stop  offset="1" style="stop-color:#892012"/>
	</linearGradient>
	<path class="st5" d="M83.2,115c0,0,61.4,38.6,219.8,144v26h-21.3c0,0-194.2-119.2-201.5-133.6"/>
	<linearGradient id="SVGID_6_" gradientUnits="userSpaceOnUse" x1="180.8596" y1="212.6577" x2="332.1737" y2="61.3436">
		<stop  offset="0.1374" style="stop-color:#DDD5C7"/>
		<stop  offset="0.9746" style="stop-color:#908B82"/>
	</linearGradient>
	<path class="st6" d="M118.5,90.7l217,139.8L339,90.8l22.5-0.2l-5,154.3H303v14L83.2,115C83.2,115,78.5,84.9,118.5,90.7z"/>
	<linearGradient id="SVGID_7_" gradientUnits="userSpaceOnUse" x1="344.4807" y1="154.1868" x2="451.0556" y2="182.7435">
		<stop  offset="4.772168e-03" style="stop-color:#953A2C"/>
		<stop  offset="5.206288e-02" style="stop-color:#923426"/>
		<stop  offset="0.2022" style="stop-color:#8D291B"/>
		<stop  offset="0.4133" style="stop-color:#8A2214"/>
		<stop  offset="1" style="stop-color:#892012"/>
	</linearGradient>
	<polygon class="st7" points="361.5,90.7 434.3,90.7 434.3,245.2 356.5,245 	"/>
	<linearGradient id="SVGID_8_" gradientUnits="userSpaceOnUse" x1="338.6207" y1="442.7861" x2="452.3663" y2="473.2642">
		<stop  offset="4.772168e-03" style="stop-color:#953A2C"/>
		<stop  offset="5.206288e-02" style="stop-color:#923426"/>
		<stop  offset="0.2022" style="stop-color:#8D291B"/>
		<stop  offset="0.4133" style="stop-color:#8A2214"/>
		<stop  offset="1" style="stop-color:#892012"/>
	</linearGradient>
	<polygon class="st8" points="439.7,520.7 351.3,520.5 351.3,395.3 439.7,395.5 	"/>
	<linearGradient id="SVGID_9_" gradientUnits="userSpaceOnUse" x1="66.1334" y1="308.506" x2="305.0413" y2="372.5212">
		<stop  offset="4.772168e-03" style="stop-color:#953A2C"/>
		<stop  offset="5.206288e-02" style="stop-color:#923426"/>
		<stop  offset="0.2022" style="stop-color:#8D291B"/>
		<stop  offset="0.4133" style="stop-color:#8A2214"/>
		<stop  offset="1" style="stop-color:#892012"/>
	</linearGradient>
	<path class="st9" d="M67.4,303.7l235.6,5v71.5c0,0-241.8-2.5-241.1-10.1L67.4,303.7z"/>
	<linearGradient id="SVGID_10_" gradientUnits="userSpaceOnUse" x1="80.8201" y1="424.7836" x2="281.2542" y2="478.4897">
		<stop  offset="4.772168e-03" style="stop-color:#953A2C"/>
		<stop  offset="5.206288e-02" style="stop-color:#923426"/>
		<stop  offset="0.2022" style="stop-color:#8D291B"/>
		<stop  offset="0.4133" style="stop-color:#8A2214"/>
		<stop  offset="1" style="stop-color:#892012"/>
	</linearGradient>
	<path class="st10" d="M236.7,397.3H303l-37.2,21.5c0,0-85.2,48.1-101.6,51.2c0,0-60.7,32.1-70.7,42.9c0,0-22.9,2.7-31.6-17.5
		c0,0,53-45.6,87.7-52.8L236.7,397.3z"/>
	<linearGradient id="SVGID_11_" gradientUnits="userSpaceOnUse" x1="351.3356" y1="445.2865" x2="54.9694" y2="445.2865">
		<stop  offset="0.1374" style="stop-color:#DDD5C7"/>
		<stop  offset="0.3436" style="stop-color:#D9D2C4"/>
		<stop  offset="0.5281" style="stop-color:#CFC7BA"/>
		<stop  offset="0.7043" style="stop-color:#BCB6AA"/>
		<stop  offset="0.8744" style="stop-color:#A39D93"/>
		<stop  offset="0.9746" style="stop-color:#908B82"/>
	</linearGradient>
	<path class="st11" d="M60.2,390c0,0,61.1,6,89.8,4.7c0,0-95,48.1-95,57.7c0,0-0.2,32.9,6.9,43.1c0,0,46.8-37.2,84.9-51.6
		c2.4-0.9,4.7-2,7-3.2l82.9-43.4H303l-51.6,29.8c-2.6,1.5-5.3,3-8.1,4.3l-94,45.9c0,0-53.7,29.3-55.8,35.7l19.8,1.7
		c0,0,27.1-20,45.3-26.8c2.6-1,5.1-2.1,7.6-3.4l162.5-81.2v117.2l22.7-0.1V395.3H303v-15.2c0,0-230.4-3.9-241.1-10.1L60.2,390z"/>
	<linearGradient id="SVGID_12_" gradientUnits="userSpaceOnUse" x1="632.8109" y1="333.3878" x2="587.1001" y2="192.7044">
		<stop  offset="0.1374" style="stop-color:#DDD5C7"/>
		<stop  offset="0.9746" style="stop-color:#908B82"/>
	</linearGradient>
	<path class="st12" d="M710.9,152.5c-10.8,15-201.6,132.7-201.6,132.7H488v23.7l235.6-5l-2.1-25.3l-179.1,4.3l146.7-93
		c13.7-8.7,23.5-18.3,23.5-18.3"/>
	<linearGradient id="SVGID_13_" gradientUnits="userSpaceOnUse" x1="510.0959" y1="176.6861" x2="691.108" y2="225.1881">
		<stop  offset="4.772168e-03" style="stop-color:#953A2C"/>
		<stop  offset="5.206288e-02" style="stop-color:#923426"/>
		<stop  offset="0.2022" style="stop-color:#8D291B"/>
		<stop  offset="0.4133" style="stop-color:#8A2214"/>
		<stop  offset="1" style="stop-color:#892012"/>
	</linearGradient>
	<path class="st13" d="M707.8,115.2c0,0-61.4,38.6-219.8,144v26h21.3c0,0,194.2-119.2,201.5-133.6"/>
	<linearGradient id="SVGID_14_" gradientUnits="userSpaceOnUse" x1="510.6488" y1="271.4223" x2="585.3436" y2="54.4929">
		<stop  offset="0.1374" style="stop-color:#DDD5C7"/>
		<stop  offset="0.9746" style="stop-color:#908B82"/>
	</linearGradient>
	<path class="st14" d="M672.5,90.9l-217,139.8L452,91l-22.5-0.2l5,154.3H488v14l219.8-144C707.8,115.2,712.5,85.1,672.5,90.9z"/>
	<linearGradient id="SVGID_15_" gradientUnits="userSpaceOnUse" x1="487.5639" y1="310.4433" x2="727.8962" y2="374.8401">
		<stop  offset="4.772168e-03" style="stop-color:#953A2C"/>
		<stop  offset="5.206288e-02" style="stop-color:#923426"/>
		<stop  offset="0.2022" style="stop-color:#8D291B"/>
		<stop  offset="0.4133" style="stop-color:#8A2214"/>
		<stop  offset="1" style="stop-color:#892012"/>
	</linearGradient>
	<path class="st15" d="M723.6,303.9l-235.6,5v71.5c0,0,241.8-2.5,241.1-10.1L723.6,303.9z"/>
	<linearGradient id="SVGID_16_" gradientUnits="userSpaceOnUse" x1="482.7692" y1="417.0042" x2="732.294" y2="483.8642">
		<stop  offset="4.772168e-03" style="stop-color:#953A2C"/>
		<stop  offset="5.206288e-02" style="stop-color:#923426"/>
		<stop  offset="0.2022" style="stop-color:#8D291B"/>
		<stop  offset="0.4133" style="stop-color:#8A2214"/>
		<stop  offset="1" style="stop-color:#892012"/>
	</linearGradient>
	<path class="st16" d="M554.3,397.5H488l37.2,21.5c0,0,85.2,48.1,101.6,51.2c0,0,60.7,32.1,70.7,42.9c0,0,22.9,2.7,31.6-17.5
		c0,0-53-45.6-87.7-52.8L554.3,397.5z"/>
	<linearGradient id="SVGID_17_" gradientUnits="userSpaceOnUse" x1="479.6103" y1="557.9792" x2="689.3237" y2="333.0892">
		<stop  offset="0.1374" style="stop-color:#DDD5C7"/>
		<stop  offset="0.318" style="stop-color:#D9D1C3"/>
		<stop  offset="0.5159" style="stop-color:#CBC4B7"/>
		<stop  offset="0.7221" style="stop-color:#B5AFA4"/>
		<stop  offset="0.9327" style="stop-color:#979288"/>
		<stop  offset="0.9746" style="stop-color:#908B82"/>
	</linearGradient>
	<path class="st17" d="M730.8,390.2c0,0-61.1,6-89.8,4.7c0,0,95,48.1,95,57.7c0,0,0.2,32.9-6.9,43.1c0,0-46.8-37.2-84.9-51.6
		c-2.4-0.9-4.7-2-7-3.2l-82.9-43.4H488l51.6,29.8c2.6,1.5,5.3,3,8.1,4.3l94,45.9c0,0,53.7,29.3,55.8,35.7l-19.8,1.7
		c0,0-27.1-20-45.3-26.8c-2.6-1-5.1-2.1-7.6-3.4l-162.5-81.2v117.2l-22.7-0.1V395.5H488v-15.2c0,0,230.4-3.9,241.1-10.1L730.8,390.2
		z"/>
	<rect x="303" y="245.2" class="st18" width="185" height="150.4"/>
	<linearGradient id="SVGID_18_" gradientUnits="userSpaceOnUse" x1="298.5532" y1="266.7013" x2="492.863" y2="374.409">
		<stop  offset="4.772168e-03" style="stop-color:#953A2C"/>
		<stop  offset="5.206288e-02" style="stop-color:#923426"/>
		<stop  offset="0.2022" style="stop-color:#8D291B"/>
		<stop  offset="0.4133" style="stop-color:#8A2214"/>
		<stop  offset="1" style="stop-color:#892012"/>
	</linearGradient>
	<rect x="308" y="249.6" class="st19" width="175.4" height="141.9"/>
	<path class="st20" d="M438.1,338.2c0,0-0.3,11.2-0.3,15c0,3.8-1.8,4.5-1.8,4.5l-8.5,3.4c-2.6,1.5-4.5,0-4.5,0
		c0-1.7-1.9-2.9-1.9-2.9c-4.4-3.4-8.3,0.6-8.3,0.6c-1.2,1-3,4.8-3,4.8c-0.4,1.8-1.2,4.7-1.2,4.7c-1.6,2.9-3.5,1.8-3.5,1.8v-7.8
		c0-1.1-0.6-2.2-1.6-2.7c-1.2-0.6-2.6-0.7-2.6-0.7c-1.3-0.3-1.4-2.7-1.4-4.2c0-0.9-0.4-1.8-1.1-2.3c-1.8-1.2-2.8,1.1-2.8,1.1
		c-0.8,1.5,0.8,3.9,1.5,4.8c0.3,0.4,0.5,0.8,0.5,1.3c0,3.1-3.8,9.7-3.8,9.7c-1.8,1.2-2-0.5-2-0.5l0.2-6.4c0-1.4-0.7-2.7-1.9-3.3
		c-0.8-0.4-1.6-0.7-2.2-0.9c-1-0.3-1.8-0.9-2.2-1.9c-0.4-0.9-0.4-2-0.3-2.7c0.1-0.8-0.5-1.6-1.2-1.8c-1.3-0.2-1.7,1.5-1.8,2.4
		c0,0.3,0,0.6,0.1,0.9c0.4,0.8,0.9,2.5,1.2,3.6c0.3,1,0.3,2,0,3.1c-0.7,2.6-2.6,6.2-2.6,6.2c-1.5,2.5-3.2,0.6-3.2,0.6
		c-1.9-3.6-0.9-5.9-1.2-6.6c-0.2-0.3-0.5-0.4-0.8-0.2c-1.1,0.8-2.8,3.8-3.1,4.5c-0.1,0.1-0.1,0.2-0.2,0.3c-2.3,3.2-3.5,4.1-4,4.3
		c-0.2,0.1-0.5,0-0.6-0.3c-0.6-1.9,1.2-4.4,1.2-4.4c2.1-2.4,7.3-7.8,7.3-7.8c1-1.8-0.9-1.9-0.9-1.9l-14.6,0.2
		c-0.8,0-0.9-0.9-0.9-0.9l0.6-26.1c0-0.9-0.3-1.8-1-2.4c-1.1-0.8-1.9-0.3-2.4,0.4c-0.5,0.6-0.7,1.4-0.7,2.2l-0.7,25.9
		c0,1.2-1.5,1.5-1.5,1.5l-5.2,0.3c-1.7,0-1.7-1.6-1.7-1.6l1.1-27.1c-0.3-2.4-3.1-2.3-3.1-2.3c-1-0.1-1.6,0.4-2.1,0.9
		c-0.6,0.6-0.8,1.4-0.9,2.3l-0.7,26.1c0,2.5-2.5,2.5-2.5,2.5l-12.2,1.7c-1.2,0.2-0.7,1-0.2,1.5c0.3,0.3,0.7,0.4,1.1,0.3l11.7-1.5
		c2.2,0,2,1.6,2,1.6l-0.5,18c0,1.2,0.5,2.3,1.5,3c0.9,0.5,1.7,0.4,2.3,0c1-0.5,1.6-1.6,1.6-2.8l0.7-17.8c0-0.3,0-0.6,0-1
		c-0.2-2.9,1.7-2.3,1.7-2.3l4.9-0.1c2,0,1.9,2.1,1.9,2.1l-0.5,19c0,0.9,0.3,1.7,1,2.3c0.9,0.8,1.7,0.5,2.3,0.1
		c0.7-0.5,1.1-1.4,1.1-2.3l0.3-19.9c0-1.8,1.6-1.6,1.6-1.6s5.1-0.1,5.5-0.1c1.9,0,1.1,2.2,1.1,2.2l-3.3,7.3
		c-1.1,2.4-0.3,3.9,0.3,4.6c0.4,0.5,1,0.7,1.6,0.6c3.1-0.3,5.8-5,5.8-5c2.1-1.7,2.3,3,2.3,3c0.5,3.2,3.4,1.6,3.4,1.6
		c4.1-2.2,6.8-12.4,6.8-12.4c2.3-3.1,3.4,1.2,3.4,1.2l-0.6,8.9c0,0.1,0,0.1,0,0.2c0,1.4,1,2.6,2.4,2.8c0.6,0.1,1.2,0,1.7-0.3
		c3.9-2.4,6.5-12,6.5-12c0.6-2.1,1.7-1.6,2.4-1c0.5,0.4,0.7,1,0.7,1.6v11.1c4.8,2.9,6.2-1.9,6.2-1.9c1.5-2.5,2.6-0.7,2.6-0.7
		c3.1,5.6,8.2,3.8,8.2,3.8c4.9-1.6,5-8.9,5-8.9c0.2-2.2,3-2.2,3-2.2c2,0.3,1.8,1.5,1.8,1.5l-1.2,4.6c-1,3.3,1.4,4.7,1.4,4.7
		c2.9,1.2,5.8-3,5.8-3c1.9-2.3,2.4,0.3,2.4,0.3l0.2,2.2c2.4,2.4,3.5-1.1,3.5-1.1l0.7-35.5C440,334.8,438.1,338.2,438.1,338.2z
		 M418.5,372.6c-0.8,0.3-1.8,0.3-2.6-0.1c-3-1.6-1.9-7.4-1.9-7.4c0.6-3.3,2.9-1.1,2.9-1.1c1.6,1,3.8,1.1,4.7,1.1
		c0.2,0,0.5,0.2,0.5,0.5C422.2,370.4,420,372,418.5,372.6z M417.5,362.2c-0.7-0.3-1.2-0.8-1.5-1.5c-0.2-0.5-0.1-0.8,0.7-1.3
		c0,0,3.8-2.3,5.7,2.8C422.3,362.2,420.5,363.5,417.5,362.2z M432.3,371.9c0,0-2.1,1.3-2.1-0.7c0,0,1-7.5,3.9-9.2
		c0,0,2.4-1.8,2.5,0.2C436.6,362.2,435.5,369.3,432.3,371.9z"/>
	<path class="st20" d="M454.6,359.3L454.6,359.3c1-1.4,0.1-3.3-1.6-3.2c-1.3,0-2.9,0.7-4.7,2.2c0,0-5.8,4.2-5.3,6.9
		c0,0,0,2.2,1.8,2.7c0,0,3.8,1.6,5.6,2.6c0.6,0.4,1.1,0.9,1.3,1.6c0.3,0.8,0.5,2-0.5,3c0,0-3.9,3.9-7.6,4.9c0,0-1.2,0.2-1.6,1.5
		c-0.3,1.1,0.5,2.2,1.7,2.3c0.9,0.1,1.9-0.3,3.5-1c0,0,6.4-2.9,6.7-6.6c0,0,0.2-0.9,0.2-2.2c0-1.9-1.1-3.7-2.7-4.6
		c-0.3-0.1-0.5-0.3-0.8-0.5c-0.8-0.5-1.7-0.9-2.6-1.2c-0.5-0.2-1-0.4-1.5-0.7c-0.9-0.7-0.8-2,0.1-2.6c1.3-0.9,4-2.8,6.3-4
		C453.6,360.2,454.2,359.8,454.6,359.3z"/>
	<path class="st20" d="M428.2,317.5h-60.3c-1.1,0-2.1,0.4-2.8,1.2c-0.7,0.7-1.2,1.7-1.2,2.8c0,2.2,1.8,3.9,3.9,3.9h60.3
		c1.1,0,2.1-0.4,2.8-1.2c0.7-0.7,1.2-1.7,1.2-2.8C432.1,319.2,430.4,317.5,428.2,317.5z M377,323.4h-6.7c-0.9-1.9,0.8-2,1.7-2
		c0.3,0,0.6-0.3,0.6-0.6c0-0.7-0.3-1.5-0.3-1.5c0.2-1.5,1.5-0.4,1.5-0.4l3.1,2.6C378.7,323.1,377,323.4,377,323.4z M388.7,323.4
		h-6.6c-0.9-1.9,0.8-2,1.7-2c0.3,0,0.6-0.3,0.6-0.6c0-0.7-0.3-1.5-0.3-1.5c0.2-1.5,1.5-0.4,1.5-0.4l3.1,2.6
		C390.4,323.1,388.7,323.4,388.7,323.4z M401.5,323.4h-6.7c-0.9-1.9,0.8-2,1.7-2c0.3,0,0.6-0.3,0.6-0.6c0-0.7-0.3-1.5-0.3-1.5
		c0.2-1.5,1.5-0.4,1.5-0.4l3.1,2.6C403.2,323.1,401.5,323.4,401.5,323.4z M413.2,323.4h-6.7c-0.9-1.9,0.8-2,1.7-2
		c0.3,0,0.6-0.3,0.6-0.6c0-0.7-0.3-1.5-0.3-1.5c0.2-1.5,1.5-0.4,1.5-0.4l3.1,2.6C414.9,323.1,413.2,323.4,413.2,323.4z M424.7,323.4
		H418c-0.9-1.9,0.8-2,1.7-2c0.3,0,0.6-0.3,0.6-0.6c0-0.7-0.3-1.5-0.3-1.5c0.2-1.5,1.5-0.4,1.5-0.4l3.1,2.6
		C426.4,323.1,424.7,323.4,424.7,323.4z"/>
	<circle class="st20" cx="370.5" cy="313.7" r="1.7"/>
	<circle class="st20" cx="358.8" cy="297" r="1.2"/>
	<circle class="st20" cx="358.8" cy="293.5" r="1.2"/>
	<circle class="st20" cx="358.8" cy="289.8" r="1.2"/>
	<path class="st20" d="M428.3,305.5c-2.4,4.8-7.8,0.4-7.8,0.4c-3.5,2.7-7.7,0.2-7.7,0.2c-3.4,2.4-6.9-0.1-6.9-0.1
		c-3.9,2.8-7.3-0.5-7.3-0.5c-3.9,3.2-7.7,0.7-7.7,0.7c-3.1,2.2-6.8-0.2-6.8-0.2c-4.1,2.6-7.3-0.3-7.3-0.3c-5,3.4-8-0.4-8-0.4
		c-1.5-2.3,0.4-2.8,0.4-2.8c1,0.4,0.5,1.6,0.2,2.1c-0.1,0.1,0,0.3,0.1,0.4c1.8,1.3,4.1,1.1,5.7-0.5c0.1-0.1,0.2-0.2,0.3-0.4
		c-1.4-0.5-2.4-1.9-2.4-3.5c0-2.1,1.7-3.8,3.8-3.8c2.1,0,3.8,1.7,3.8,3.8c0,1.7-1.2,3.2-2.8,3.6c0.1,0.1,0.3,0.2,0.4,0.3
		c0.2,0.2,0.4,0.4,0.7,0.5c0.9,0.6,1.9,0.9,2.9,0.7c0.3-0.1,0.6-0.2,0.8-0.3c0.2-0.1,0.4-0.2,0.5-0.4c-0.3-0.2-0.5-0.7-0.5-1.1
		c0-0.8,0.6-1.4,1.4-1.4c0.8,0,1.4,0.6,1.4,1.4c0,0.5-0.2,0.9-0.6,1.1c0.2,0.2,0.5,0.3,0.9,0.5c0.4,0.1,0.7,0.2,1.1,0.3
		c0.5,0.1,1.1,0.2,1.7,0.1c0.6-0.1,1.2-0.4,1.5-0.9c0.1-0.1,0.1-0.2,0.2-0.4c-0.4-0.2-0.7-0.7-0.7-1.2c0-0.8,0.6-1.4,1.4-1.4
		c0.8,0,1.4,0.6,1.4,1.4c0,0.5-0.3,0.9-0.7,1.2c0.8,0.9,1.9,1.5,3.2,1.3c0.8-0.1,1.5-0.5,2.2-1c0.2-0.2,0.4-0.4,0.5-0.7
		c-1.6-0.4-2.8-1.9-2.8-3.6c0-2.1,1.7-3.8,3.8-3.8c2.1,0,3.8,1.7,3.8,3.8c0,1.7-1.1,3.1-2.6,3.6c0,0.2,0.1,0.4,0.2,0.5
		c0.2,0.3,0.6,0.5,0.9,0.7c0.5,0.3,1.1,0.6,1.7,0.7c0.8,0.1,1.6,0,2.2-0.4c0.1-0.1,0.3-0.2,0.4-0.3c0,0,0.1-0.1,0.1-0.2
		c-0.3-0.2-0.5-0.6-0.5-1.1c0-0.8,0.6-1.4,1.4-1.4c0.8,0,1.4,0.6,1.4,1.4c0,0.5-0.2,0.9-0.6,1.1c0.1,0.3,0.5,0.5,0.8,0.6
		c0.6,0.4,1.2,0.6,1.9,0.7c0.9,0,1.7-0.3,2.3-0.9c0.1-0.1,0.2-0.2,0.3-0.4c-0.4-0.2-0.7-0.7-0.7-1.2c0-0.8,0.6-1.4,1.4-1.4
		c0.8,0,1.4,0.6,1.4,1.4c0,0.5-0.3,0.9-0.7,1.2c0.1,0.2,0.3,0.2,0.5,0.4c0.3,0.2,0.6,0.3,1,0.4c0.5,0.2,1,0.3,1.6,0.3
		c0.7,0,1.4-0.2,2-0.6c0.2-0.2,0.4-0.4,0.6-0.6c0.2-0.2,0.2-0.5,0.2-0.8c-1.7-0.4-3-1.9-3-3.7c0-2.1,1.7-3.8,3.8-3.8
		c2.1,0,3.8,1.7,3.8,3.8c0,1.7-1.2,3.2-2.7,3.6c0,0.2,0,0.4,0.1,0.6c4.1,3.8,6.4,0.5,6.4,0.5c-0.7-1.4,0.2-1.8,0.2-1.8
		C429.6,303.8,428.3,305.5,428.3,305.5z"/>
	<circle class="st20" cx="359.6" cy="286.4" r="1.2"/>
	<circle class="st20" cx="361.4" cy="283.2" r="1.2"/>
	<circle class="st20" cx="395.4" cy="276.2" r="1.2"/>
	<circle class="st20" cx="402.8" cy="276.2" r="1.2"/>
	<circle class="st20" cx="363.7" cy="280" r="1.2"/>
	<circle class="st20" cx="366.4" cy="276.5" r="1.1"/>
	<circle class="st20" cx="370.1" cy="273.8" r="1.1"/>
	<circle class="st20" cx="373.5" cy="272" r="1.1"/>
	<circle class="st20" cx="375.4" cy="291.3" r="1.1"/>
	<circle class="st20" cx="376.6" cy="288" r="1.1"/>
	<circle class="st20" cx="376.9" cy="271.5" r="0.7"/>
	<circle class="st20" cx="382.7" cy="280.7" r="0.7"/>
	<circle class="st20" cx="385" cy="278.8" r="0.7"/>
	<circle class="st20" cx="399.3" cy="276.2" r="0.7"/>
	<circle class="st20" cx="380.5" cy="282.5" r="0.7"/>
	<circle class="st20" cx="378.6" cy="284.9" r="0.7"/>
	<circle class="st20" cx="380.5" cy="271.3" r="0.7"/>
	<circle class="st20" cx="383.9" cy="271.7" r="0.7"/>
	<circle class="st20" cx="387.4" cy="272.7" r="0.7"/>
	<circle class="st20" cx="387.7" cy="313.7" r="1.7"/>
	<circle class="st20" cx="406.4" cy="313.7" r="1.7"/>
	<circle class="st20" cx="423.6" cy="313.7" r="1.7"/>
	<polygon class="st21" points="377.2,313.9 380.1,312 382.8,313.9 380,316.2 	"/>
	<polygon class="st21" points="395.2,313.9 398,312 400.8,313.9 398,316.2 	"/>
	<polygon class="st21" points="411.5,313.9 414.3,312 417.1,313.9 414.3,316.2 	"/>
	<path class="st20" d="M431.3,311.1h-67.1c-0.4,0-0.8-0.4-0.8-0.8V310c0-0.4,0.4-0.8,0.8-0.8h67.1c0.4,0,0.8,0.4,0.8,0.8v0.4
		C432.1,310.8,431.8,311.1,431.3,311.1z"/>
	<path class="st20" d="M366.5,306c0,0-2.6-3.9-4.9-1.3c0,0-0.9-0.8,1-2.3c0,0-1.8-1.3-1.8-2.2c0,0,0.1-2.2,3.6,0.6
		C364.3,300.8,367.7,303.3,366.5,306z"/>
	<path class="st20" d="M364.4,298.7l-2.2-1.7c-0.3-0.2-0.4-0.6-0.4-0.9c0.1-2.4,1.4-11,4.9-15.7c0,0,7.9-11.6,22.2-5.1l-0.5,0.7
		c0,0-6.8-1.6-13.1,0.5c0,0-11.6,3.4-10.4,21.9C365,298.7,364.7,298.8,364.4,298.7z"/>
	<path class="st20" d="M381.2,296.9l-3.3-2.5c0,0,3-14.1,15.5-17.5l1.1,1.5C394.6,278.4,384.5,280.4,381.2,296.9z"/>
	<circle class="st20" cx="439.3" cy="297" r="1.2"/>
	<circle class="st20" cx="439.3" cy="293.5" r="1.2"/>
	<circle class="st20" cx="439.3" cy="289.8" r="1.2"/>
	<circle class="st20" cx="438.5" cy="286.4" r="1.2"/>
	<circle class="st20" cx="436.7" cy="283.3" r="1.2"/>
	<circle class="st20" cx="434.4" cy="280" r="1.2"/>
	<circle class="st20" cx="431.7" cy="276.6" r="1.1"/>
	<circle class="st20" cx="428" cy="273.8" r="1.1"/>
	<circle class="st20" cx="424.6" cy="272.1" r="1.1"/>
	<circle class="st20" cx="422.7" cy="291.3" r="1.1"/>
	<circle class="st20" cx="421.5" cy="288" r="1.1"/>
	<circle class="st20" cx="421.2" cy="271.5" r="0.7"/>
	<circle class="st20" cx="415.4" cy="280.7" r="0.7"/>
	<circle class="st20" cx="413.1" cy="278.8" r="0.7"/>
	<circle class="st20" cx="417.6" cy="282.5" r="0.7"/>
	<circle class="st20" cx="419.5" cy="285" r="0.7"/>
	<circle class="st20" cx="417.6" cy="271.3" r="0.7"/>
	<circle class="st20" cx="414.2" cy="271.7" r="0.7"/>
	<circle class="st20" cx="410.7" cy="272.7" r="0.7"/>
	<path class="st20" d="M431.6,306c0,0,2.6-3.9,4.9-1.3c0,0,0.9-0.8-1-2.3c0,0,1.8-1.3,1.8-2.2c0,0-0.1-2.2-3.6,0.6
		C433.8,300.9,430.4,303.4,431.6,306z"/>
	<path class="st20" d="M433.7,298.7l2.2-1.7c0.3-0.2,0.4-0.6,0.4-0.9c-0.1-2.4-1.4-11-4.9-15.7c0,0-7.9-11.6-22.2-5.1l0.5,0.7
		c0,0,6.8-1.6,13.1,0.5c0,0,11.6,3.4,10.4,21.9C433.1,298.7,433.4,298.8,433.7,298.7z"/>
	<path class="st20" d="M416.9,296.9l3.3-2.5c0,0-3-14.1-15.5-17.5l-1.1,1.5C403.5,278.4,413.6,280.4,416.9,296.9z"/>
	<path class="st20" d="M396.9,270.1c0,0-1.1,0.1-0.9-1.3c0-0.1,0-0.3-0.1-0.4c-0.5-0.6-2.4-2.5-4.8,0.2c0,0-1.4-0.8-0.2-3.3
		c0,0,1.9-3.1,3.9-0.2C394.8,265.1,397.3,268.8,396.9,270.1z"/>
	<path class="st20" d="M402,270.1c0,0,1.1,0.1,0.9-1.3c0-0.1,0-0.3,0.1-0.4c0.5-0.6,2.4-2.5,4.8,0.2c0,0,1.4-0.8,0.2-3.3
		c0,0-1.9-3.1-3.9-0.2C404.1,265.1,401.6,268.8,402,270.1z"/>
	<path class="st20" d="M397.5,273.4h4.1v-0.7h-1.4c0,0-0.4,0.2-0.4-1.3c0,0,0-3.4,0.8-4.4c0,0,1.7-3.1,1.2-5.1c0,0-1.3-4-2.8-3.7
		h0.4c-1.5-0.3-2.8,3.7-2.8,3.7c-0.5,2,1.2,5.1,1.2,5.1c0.8,1,0.8,4.4,0.8,4.4c0,1.4-0.4,1.3-0.4,1.3h-1.4v0.7h4.1"/>
	<path class="st20" d="M401.2,286.7v-7.9h-3.8v7.9c-0.7,0.5-1.1,1.3-1.1,2.1c0,1.4,1,2.5,2.4,2.7c-0.5-0.2-0.9-0.8-0.9-1.4
		c0-0.8,0.7-1.5,1.5-1.5c0.8,0,1.5,0.7,1.5,1.5c0,0.6-0.4,1.2-0.9,1.4c1.4-0.3,2.4-1.4,2.4-2.8C402.2,288,401.8,287.2,401.2,286.7z
		 M399.3,287.6c-0.6,0-1.2-0.5-1.2-1.2c0-0.7,0.5-1.2,1.2-1.2c0.7,0,1.2,0.5,1.2,1.2C400.4,287.1,399.9,287.6,399.3,287.6z
		 M399.3,284.9c-0.6,0-1.2-0.5-1.2-1.2c0-0.6,0.5-1.2,1.2-1.2c0.7,0,1.2,0.5,1.2,1.2C400.4,284.4,399.9,284.9,399.3,284.9z
		 M399.3,281.9c-0.6,0-1.2-0.5-1.2-1.2c0-0.7,0.5-1.2,1.2-1.2c0.7,0,1.2,0.5,1.2,1.2C400.4,281.4,399.9,281.9,399.3,281.9z"/>
	<path class="st20" d="M397.9,292.1C398.4,292.1,397.9,292.1,397.9,292.1h2.6c0.1,0.7,0.1,1.4-0.1,2.1c-0.2,0.4-0.5,0.9-0.9,1
		c-0.6,0.1-1.2-0.4-1.4-1c-0.2-0.6-0.1-1.2-0.2-1.8V292.1"/>
	<g>
		<g>
			<path class="st22" d="M84.8,103.2c0,0-1.2-2.1,4.4-3"/>
			<path class="st23" d="M91.1,100c1.4-0.1,3.1-0.2,5.1-0.2c0,0,44.8-1.5,67,1.8c0,0,40,3.2,57.5,3.2l128.8,0.7l102.9,1.8
				c0,0,71.3,0.9,106.3,1.1c7.6,0,15.1,0,22.6-0.7l70.9-3.7c0,0,33-1,47.9,0.9"/>
			<path class="st22" d="M701.2,104.9c2.9,0.4,4.9,0.9,5.7,1.6"/>
		</g>
	</g>
</g>
</svg>
