<svg xmlns="http://www.w3.org/2000/svg" viewBox="0 0 792 612" enable-background="new 0 0 792 612"><style type="text/css">.st0{fill:#6FC6C0;} .st1{fill:url(#SVGID_1_);} .st2{fill:url(#SVGID_2_);} .st3{fill:url(#SVGID_3_);} .st4{fill:url(#SVGID_4_);} .st5{fill:url(#SVGID_5_);} .st6{fill:url(#SVGID_6_);} .st7{fill:url(#SVGID_7_);} .st8{fill:url(#SVGID_8_);} .st9{fill:url(#SVGID_9_);} .st10{fill:url(#SVGID_10_);} .st11{fill:url(#SVGID_11_);} .st12{fill:url(#SVGID_12_);} .st13{fill:url(#SVGID_13_);} .st14{fill:url(#SVGID_14_);} .st15{fill:url(#SVGID_15_);} .st16{fill:url(#SVGID_16_);} .st17{fill:url(#SVGID_17_);} .st18{fill:#DDD5C7;stroke:#330B08;stroke-width:3;stroke-miterlimit:10;} .st19{fill:url(#SVGID_18_);} .st20{fill:#DDD5C7;} .st21{fill:none;stroke:#DDD5C7;stroke-miterlimit:10;} .st22{fill:none;stroke:#330B08;stroke-miterlimit:10;} .st23{fill:none;stroke:#330B08;stroke-miterlimit:10;stroke-dasharray:11.891,1.9818;}</style><path class="st0" d="M0 0h792v612h-792z" id="bg"/><g id="Layer_2"><linearGradient id="SVGID_1_" gradientUnits="userSpaceOnUse" x1="125.436" y1="73.087" x2="212.205" y2="73.087"><stop offset=".005" stop-color="#953A2C"/><stop offset=".206" stop-color="#913123"/><stop offset=".613" stop-color="#8B2416"/><stop offset="1" stop-color="#892012"/></linearGradient><path class="st1" d="M212.1 67.4c-.3 1.2-1.3 2.3-3.3 3l-72.1 13.3-7.8-1-3.4-1.1c0-1.4 5.1-4.9 6.5-5.2l75.4-13.9c2.8-.5 5.5 2.1 4.7 4.9z"/><linearGradient id="SVGID_2_" gradientUnits="userSpaceOnUse" x1="103.008" y1="80.519" x2="139.262" y2="80.519"><stop offset=".005" stop-color="#953A2C"/><stop offset=".206" stop-color="#913123"/><stop offset=".613" stop-color="#8B2416"/><stop offset="1" stop-color="#892012"/></linearGradient><path class="st2" d="M135.8 90.8c-10.2.4-28.8.2-28.8.2-8.9-3.6 0-10.3 0-10.3s2.9-20.7 32.3-4.6c-.7-.2-25.2-7.4-27 4.2l2-.4c6-1.7 15.8 1.4 21.7 3.6 2.4.9 2.4 7.1-.2 7.3z"/><linearGradient id="SVGID_3_" gradientUnits="userSpaceOnUse" x1="260.266" y1="19.298" x2="517.779" y2="597.681"><stop offset=".039" stop-color="#2F3B4B"/><stop offset=".234" stop-color="#2A3647"/><stop offset=".464" stop-color="#1C293A"/><stop offset=".655" stop-color="#0A182B"/></linearGradient><path class="st3" d="M706.9 512.5c-1.5.1-2.9.2-4.4.4-17.4 1.9-110 10.3-325 7.6h-.2c-189 1.4-271.9-6.2-288.3-7.9-1.5-.2-2.9-.3-4.4-.4-26.7-2.2-29.3-50.2-29.6-58.6 0-.8 0-1.5.1-2.3l29.4-345.2c.7-8.7 13-15.4 17.1-15.4l588.2.3c3.7-.4 16.3 6.7 17.1 15.4l29 340.2c.4 4.5.2 9.1-.5 13.6-2.4 15.9-9.9 51.1-28.5 52.3z"/><linearGradient id="SVGID_4_" gradientUnits="userSpaceOnUse" x1="65.018" y1="234.895" x2="300.963" y2="226.655"><stop offset=".137" stop-color="#DDD5C7"/><stop offset=".975" stop-color="#908B82"/></linearGradient><path class="st4" d="M80.1 152.3c10.8 14.9 201.6 132.7 201.6 132.7h21.3v23.7l-235.6-5 2.1-25.3 179.1 4.3-146.7-93c-13.7-8.7-23.5-18.3-23.5-18.3"/><linearGradient id="SVGID_5_" gradientUnits="userSpaceOnUse" x1="68.619" y1="169.51" x2="316.172" y2="235.842"><stop offset=".005" stop-color="#953A2C"/><stop offset=".052" stop-color="#923426"/><stop offset=".202" stop-color="#8D291B"/><stop offset=".413" stop-color="#8A2214"/><stop offset="1" stop-color="#892012"/></linearGradient><path class="st5" d="M83.2 115s61.4 38.6 219.8 144v26h-21.3s-194.2-119.2-201.5-133.6"/><linearGradient id="SVGID_6_" gradientUnits="userSpaceOnUse" x1="180.86" y1="212.658" x2="332.174" y2="61.344"><stop offset=".137" stop-color="#DDD5C7"/><stop offset=".975" stop-color="#908B82"/></linearGradient><path class="st6" d="M118.5 90.7l217 139.8 3.5-139.7 22.5-.2-5 154.3h-53.5v14l-219.8-143.9s-4.7-30.1 35.3-24.3z"/><linearGradient id="SVGID_7_" gradientUnits="userSpaceOnUse" x1="344.481" y1="154.187" x2="451.056" y2="182.744"><stop offset=".005" stop-color="#953A2C"/><stop offset=".052" stop-color="#923426"/><stop offset=".202" stop-color="#8D291B"/><stop offset=".413" stop-color="#8A2214"/><stop offset="1" stop-color="#892012"/></linearGradient><path class="st7" d="M361.5 90.7h72.8v154.5l-77.8-.2z"/><linearGradient id="SVGID_8_" gradientUnits="userSpaceOnUse" x1="338.621" y1="442.786" x2="452.366" y2="473.264"><stop offset=".005" stop-color="#953A2C"/><stop offset=".052" stop-color="#923426"/><stop offset=".202" stop-color="#8D291B"/><stop offset=".413" stop-color="#8A2214"/><stop offset="1" stop-color="#892012"/></linearGradient><path class="st8" d="M439.7 520.7l-88.4-.2v-125.2l88.4.2z"/><linearGradient id="SVGID_9_" gradientUnits="userSpaceOnUse" x1="66.133" y1="308.506" x2="305.041" y2="372.521"><stop offset=".005" stop-color="#953A2C"/><stop offset=".052" stop-color="#923426"/><stop offset=".202" stop-color="#8D291B"/><stop offset=".413" stop-color="#8A2214"/><stop offset="1" stop-color="#892012"/></linearGradient><path class="st9" d="M67.4 303.7l235.6 5v71.5s-241.8-2.5-241.1-10.1l5.5-66.4z"/><linearGradient id="SVGID_10_" gradientUnits="userSpaceOnUse" x1="80.82" y1="424.784" x2="281.254" y2="478.49"><stop offset=".005" stop-color="#953A2C"/><stop offset=".052" stop-color="#923426"/><stop offset=".202" stop-color="#8D291B"/><stop offset=".413" stop-color="#8A2214"/><stop offset="1" stop-color="#892012"/></linearGradient><path class="st10" d="M236.7 397.3h66.3l-37.2 21.5s-85.2 48.1-101.6 51.2c0 0-60.7 32.1-70.7 42.9 0 0-22.9 2.7-31.6-17.5 0 0 53-45.6 87.7-52.8l87.1-45.3z"/><linearGradient id="SVGID_11_" gradientUnits="userSpaceOnUse" x1="351.336" y1="445.286" x2="54.969" y2="445.286"><stop offset=".137" stop-color="#DDD5C7"/><stop offset=".344" stop-color="#D9D2C4"/><stop offset=".528" stop-color="#CFC7BA"/><stop offset=".704" stop-color="#BCB6AA"/><stop offset=".874" stop-color="#A39D93"/><stop offset=".975" stop-color="#908B82"/></linearGradient><path class="st11" d="M60.2 390s61.1 6 89.8 4.7c0 0-95 48.1-95 57.7 0 0-.2 32.9 6.9 43.1 0 0 46.8-37.2 84.9-51.6 2.4-.9 4.7-2 7-3.2l82.9-43.4h66.3l-51.6 29.8c-2.6 1.5-5.3 3-8.1 4.3l-94 45.9s-53.7 29.3-55.8 35.7l19.8 1.7s27.1-20 45.3-26.8c2.6-1 5.1-2.1 7.6-3.4l162.5-81.2v117.2l22.7-.1v-125.1h-48.4v-15.2s-230.4-3.9-241.1-10.1l-1.7 20z"/><linearGradient id="SVGID_12_" gradientUnits="userSpaceOnUse" x1="632.811" y1="333.388" x2="587.1" y2="192.704"><stop offset=".137" stop-color="#DDD5C7"/><stop offset=".975" stop-color="#908B82"/></linearGradient><path class="st12" d="M710.9 152.5c-10.8 15-201.6 132.7-201.6 132.7h-21.3v23.7l235.6-5-2.1-25.3-179.1 4.3 146.7-93c13.7-8.7 23.5-18.3 23.5-18.3"/><linearGradient id="SVGID_13_" gradientUnits="userSpaceOnUse" x1="510.096" y1="176.686" x2="691.108" y2="225.188"><stop offset=".005" stop-color="#953A2C"/><stop offset=".052" stop-color="#923426"/><stop offset=".202" stop-color="#8D291B"/><stop offset=".413" stop-color="#8A2214"/><stop offset="1" stop-color="#892012"/></linearGradient><path class="st13" d="M707.8 115.2s-61.4 38.6-219.8 144v26h21.3s194.2-119.2 201.5-133.6"/><linearGradient id="SVGID_14_" gradientUnits="userSpaceOnUse" x1="510.649" y1="271.422" x2="585.344" y2="54.493"><stop offset=".137" stop-color="#DDD5C7"/><stop offset=".975" stop-color="#908B82"/></linearGradient><path class="st14" d="M672.5 90.9l-217 139.8-3.5-139.7-22.5-.2 5 154.3h53.5v14l219.8-144c0 .1 4.7-30-35.3-24.2z"/><linearGradient id="SVGID_15_" gradientUnits="userSpaceOnUse" x1="487.564" y1="310.443" x2="727.896" y2="374.84"><stop offset=".005" stop-color="#953A2C"/><stop offset=".052" stop-color="#923426"/><stop offset=".202" stop-color="#8D291B"/><stop offset=".413" stop-color="#8A2214"/><stop offset="1" stop-color="#892012"/></linearGradient><path class="st15" d="M723.6 303.9l-235.6 5v71.5s241.8-2.5 241.1-10.1l-5.5-66.4z"/><linearGradient id="SVGID_16_" gradientUnits="userSpaceOnUse" x1="482.769" y1="417.004" x2="732.294" y2="483.864"><stop offset=".005" stop-color="#953A2C"/><stop offset=".052" stop-color="#923426"/><stop offset=".202" stop-color="#8D291B"/><stop offset=".413" stop-color="#8A2214"/><stop offset="1" stop-color="#892012"/></linearGradient><path class="st16" d="M554.3 397.5h-66.3l37.2 21.5s85.2 48.1 101.6 51.2c0 0 60.7 32.1 70.7 42.9 0 0 22.9 2.7 31.6-17.5 0 0-53-45.6-87.7-52.8l-87.1-45.3z"/><linearGradient id="SVGID_17_" gradientUnits="userSpaceOnUse" x1="479.61" y1="557.979" x2="689.324" y2="333.089"><stop offset=".137" stop-color="#DDD5C7"/><stop offset=".318" stop-color="#D9D1C3"/><stop offset=".516" stop-color="#CBC4B7"/><stop offset=".722" stop-color="#B5AFA4"/><stop offset=".933" stop-color="#979288"/><stop offset=".975" stop-color="#908B82"/></linearGradient><path class="st17" d="M730.8 390.2s-61.1 6-89.8 4.7c0 0 95 48.1 95 57.7 0 0 .2 32.9-6.9 43.1 0 0-46.8-37.2-84.9-51.6-2.4-.9-4.7-2-7-3.2l-82.9-43.4h-66.3l51.6 29.8c2.6 1.5 5.3 3 8.1 4.3l94 45.9s53.7 29.3 55.8 35.7l-19.8 1.7s-27.1-20-45.3-26.8c-2.6-1-5.1-2.1-7.6-3.4l-162.5-81.2v117.2l-22.7-.1v-125.1h48.4v-15.2s230.4-3.9 241.1-10.1l1.7 20z"/><path class="st18" d="M303 245.2h185v150.4h-185z"/><linearGradient id="SVGID_18_" gradientUnits="userSpaceOnUse" x1="298.553" y1="266.701" x2="492.863" y2="374.409"><stop offset=".005" stop-color="#953A2C"/><stop offset=".052" stop-color="#923426"/><stop offset=".202" stop-color="#8D291B"/><stop offset=".413" stop-color="#8A2214"/><stop offset="1" stop-color="#892012"/></linearGradient><path class="st19" d="M308 249.6h175.4v141.9h-175.4z"/><path class="st20" d="M438.1 338.2s-.3 11.2-.3 15c0 3.8-1.8 4.5-1.8 4.5l-8.5 3.4c-2.6 1.5-4.5 0-4.5 0 0-1.7-1.9-2.9-1.9-2.9-4.4-3.4-8.3.6-8.3.6-1.2 1-3 4.8-3 4.8-.4 1.8-1.2 4.7-1.2 4.7-1.6 2.9-3.5 1.8-3.5 1.8v-7.8c0-1.1-.6-2.2-1.6-2.7-1.2-.6-2.6-.7-2.6-.7-1.3-.3-1.4-2.7-1.4-4.2 0-.9-.4-1.8-1.1-2.3-1.8-1.2-2.8 1.1-2.8 1.1-.8 1.5.8 3.9 1.5 4.8.3.4.5.8.5 1.3 0 3.1-3.8 9.7-3.8 9.7-1.8 1.2-2-.5-2-.5l.2-6.4c0-1.4-.7-2.7-1.9-3.3-.8-.4-1.6-.7-2.2-.9-1-.3-1.8-.9-2.2-1.9-.4-.9-.4-2-.3-2.7.1-.8-.5-1.6-1.2-1.8-1.3-.2-1.7 1.5-1.8 2.4 0 .3 0 .6.1.9.4.8.9 2.5 1.2 3.6.3 1 .3 2 0 3.1-.7 2.6-2.6 6.2-2.6 6.2-1.5 2.5-3.2.6-3.2.6-1.9-3.6-.9-5.9-1.2-6.6-.2-.3-.5-.4-.8-.2-1.1.8-2.8 3.8-3.1 4.5l-.2.3c-2.3 3.2-3.5 4.1-4 4.3-.2.1-.5 0-.6-.3-.6-1.9 1.2-4.4 1.2-4.4 2.1-2.4 7.3-7.8 7.3-7.8 1-1.8-.9-1.9-.9-1.9l-14.6.2c-.8 0-.9-.9-.9-.9l.6-26.1c0-.9-.3-1.8-1-2.4-1.1-.8-1.9-.3-2.4.4-.5.6-.7 1.4-.7 2.2l-.7 25.9c0 1.2-1.5 1.5-1.5 1.5l-5.2.3c-1.7 0-1.7-1.6-1.7-1.6l1.1-27.1c-.3-2.4-3.1-2.3-3.1-2.3-1-.1-1.6.4-2.1.9-.6.6-.8 1.4-.9 2.3l-.7 26.1c0 2.5-2.5 2.5-2.5 2.5l-12.2 1.7c-1.2.2-.7 1-.2 1.5.3.3.7.4 1.1.3l11.7-1.5c2.2 0 2 1.6 2 1.6l-.5 18c0 1.2.5 2.3 1.5 3 .9.5 1.7.4 2.3 0 1-.5 1.6-1.6 1.6-2.8l.7-17.8v-1c-.2-2.9 1.7-2.3 1.7-2.3l4.9-.1c2 0 1.9 2.1 1.9 2.1l-.5 19c0 .9.3 1.7 1 2.3.9.8 1.7.5 2.3.1.7-.5 1.1-1.4 1.1-2.3l.3-19.9c0-1.8 1.6-1.6 1.6-1.6s5.1-.1 5.5-.1c1.9 0 1.1 2.2 1.1 2.2l-3.3 7.3c-1.1 2.4-.3 3.9.3 4.6.4.5 1 .7 1.6.6 3.1-.3 5.8-5 5.8-5 2.1-1.7 2.3 3 2.3 3 .5 3.2 3.4 1.6 3.4 1.6 4.1-2.2 6.8-12.4 6.8-12.4 2.3-3.1 3.4 1.2 3.4 1.2l-.6 8.9v.2c0 1.4 1 2.6 2.4 2.8.6.1 1.2 0 1.7-.3 3.9-2.4 6.5-12 6.5-12 .6-2.1 1.7-1.6 2.4-1 .5.4.7 1 .7 1.6v11.1c4.8 2.9 6.2-1.9 6.2-1.9 1.5-2.5 2.6-.7 2.6-.7 3.1 5.6 8.2 3.8 8.2 3.8 4.9-1.6 5-8.9 5-8.9.2-2.2 3-2.2 3-2.2 2 .3 1.8 1.5 1.8 1.5l-1.2 4.6c-1 3.3 1.4 4.7 1.4 4.7 2.9 1.2 5.8-3 5.8-3 1.9-2.3 2.4.3 2.4.3l.2 2.2c2.4 2.4 3.5-1.1 3.5-1.1l.7-35.5c-1.2-2-3.1 1.4-3.1 1.4zm-19.6 34.4c-.8.3-1.8.3-2.6-.1-3-1.6-1.9-7.4-1.9-7.4.6-3.3 2.9-1.1 2.9-1.1 1.6 1 3.8 1.1 4.7 1.1.2 0 .5.2.5.5.1 4.8-2.1 6.4-3.6 7zm-1-10.4c-.7-.3-1.2-.8-1.5-1.5-.2-.5-.1-.8.7-1.3 0 0 3.8-2.3 5.7 2.8-.1 0-1.9 1.3-4.9 0zm14.8 9.7s-2.1 1.3-2.1-.7c0 0 1-7.5 3.9-9.2 0 0 2.4-1.8 2.5.2 0 0-1.1 7.1-4.3 9.7zM454.6 359.3c1-1.4.1-3.3-1.6-3.2-1.3 0-2.9.7-4.7 2.2 0 0-5.8 4.2-5.3 6.9 0 0 0 2.2 1.8 2.7 0 0 3.8 1.6 5.6 2.6.6.4 1.1.9 1.3 1.6.3.8.5 2-.5 3 0 0-3.9 3.9-7.6 4.9 0 0-1.2.2-1.6 1.5-.3 1.1.5 2.2 1.7 2.3.9.1 1.9-.3 3.5-1 0 0 6.4-2.9 6.7-6.6 0 0 .2-.9.2-2.2 0-1.9-1.1-3.7-2.7-4.6-.3-.1-.5-.3-.8-.5-.8-.5-1.7-.9-2.6-1.2-.5-.2-1-.4-1.5-.7-.9-.7-.8-2 .1-2.6 1.3-.9 4-2.8 6.3-4 .7-.2 1.3-.6 1.7-1.1zM428.2 317.5h-60.3c-1.1 0-2.1.4-2.8 1.2-.7.7-1.2 1.7-1.2 2.8 0 2.2 1.8 3.9 3.9 3.9h60.3c1.1 0 2.1-.4 2.8-1.2.7-.7 1.2-1.7 1.2-2.8 0-2.2-1.7-3.9-3.9-3.9zm-51.2 5.9h-6.7c-.9-1.9.8-2 1.7-2 .3 0 .6-.3.6-.6 0-.7-.3-1.5-.3-1.5.2-1.5 1.5-.4 1.5-.4l3.1 2.6c1.8 1.6.1 1.9.1 1.9zm11.7 0h-6.6c-.9-1.9.8-2 1.7-2 .3 0 .6-.3.6-.6 0-.7-.3-1.5-.3-1.5.2-1.5 1.5-.4 1.5-.4l3.1 2.6c1.7 1.6 0 1.9 0 1.9zm12.8 0h-6.7c-.9-1.9.8-2 1.7-2 .3 0 .6-.3.6-.6 0-.7-.3-1.5-.3-1.5.2-1.5 1.5-.4 1.5-.4l3.1 2.6c1.8 1.6.1 1.9.1 1.9zm11.7 0h-6.7c-.9-1.9.8-2 1.7-2 .3 0 .6-.3.6-.6 0-.7-.3-1.5-.3-1.5.2-1.5 1.5-.4 1.5-.4l3.1 2.6c1.8 1.6.1 1.9.1 1.9zm11.5 0h-6.7c-.9-1.9.8-2 1.7-2 .3 0 .6-.3.6-.6 0-.7-.3-1.5-.3-1.5.2-1.5 1.5-.4 1.5-.4l3.1 2.6c1.8 1.6.1 1.9.1 1.9z"/><circle class="st20" cx="370.5" cy="313.7" r="1.7"/><circle class="st20" cx="358.8" cy="297" r="1.2"/><circle class="st20" cx="358.8" cy="293.5" r="1.2"/><circle class="st20" cx="358.8" cy="289.8" r="1.2"/><path class="st20" d="M428.3 305.5c-2.4 4.8-7.8.4-7.8.4-3.5 2.7-7.7.2-7.7.2-3.4 2.4-6.9-.1-6.9-.1-3.9 2.8-7.3-.5-7.3-.5-3.9 3.2-7.7.7-7.7.7-3.1 2.2-6.8-.2-6.8-.2-4.1 2.6-7.3-.3-7.3-.3-5 3.4-8-.4-8-.4-1.5-2.3.4-2.8.4-2.8 1 .4.5 1.6.2 2.1-.1.1 0 .3.1.4 1.8 1.3 4.1 1.1 5.7-.5.1-.1.2-.2.3-.4-1.4-.5-2.4-1.9-2.4-3.5 0-2.1 1.7-3.8 3.8-3.8 2.1 0 3.8 1.7 3.8 3.8 0 1.7-1.2 3.2-2.8 3.6l.4.3c.2.2.4.4.7.5.9.6 1.9.9 2.9.7.3-.1.6-.2.8-.3.2-.1.4-.2.5-.4-.3-.2-.5-.7-.5-1.1 0-.8.6-1.4 1.4-1.4.8 0 1.4.6 1.4 1.4 0 .5-.2.9-.6 1.1.2.2.5.3.9.5l1.1.3c.5.1 1.1.2 1.7.1.6-.1 1.2-.4 1.5-.9.1-.1.1-.2.2-.4-.4-.2-.7-.7-.7-1.2 0-.8.6-1.4 1.4-1.4.8 0 1.4.6 1.4 1.4 0 .5-.3.9-.7 1.2.8.9 1.9 1.5 3.2 1.3.8-.1 1.5-.5 2.2-1 .2-.2.4-.4.5-.7-1.6-.4-2.8-1.9-2.8-3.6 0-2.1 1.7-3.8 3.8-3.8 2.1 0 3.8 1.7 3.8 3.8 0 1.7-1.1 3.1-2.6 3.6 0 .2.1.4.2.5.2.3.6.5.9.7.5.3 1.1.6 1.7.7.8.1 1.6 0 2.2-.4l.4-.3s.1-.1.1-.2c-.3-.2-.5-.6-.5-1.1 0-.8.6-1.4 1.4-1.4.8 0 1.4.6 1.4 1.4 0 .5-.2.9-.6 1.1.1.3.5.5.8.6.6.4 1.2.6 1.9.7.9 0 1.7-.3 2.3-.9.1-.1.2-.2.3-.4-.4-.2-.7-.7-.7-1.2 0-.8.6-1.4 1.4-1.4.8 0 1.4.6 1.4 1.4 0 .5-.3.9-.7 1.2.1.2.3.2.5.4.3.2.6.3 1 .4.5.2 1 .3 1.6.3.7 0 1.4-.2 2-.6l.6-.6c.2-.2.2-.5.2-.8-1.7-.4-3-1.9-3-3.7 0-2.1 1.7-3.8 3.8-3.8 2.1 0 3.8 1.7 3.8 3.8 0 1.7-1.2 3.2-2.7 3.6 0 .2 0 .4.1.6 4.1 3.8 6.4.5 6.4.5-.7-1.4.2-1.8.2-1.8 1.4.3.1 2 .1 2z"/><circle class="st20" cx="359.6" cy="286.4" r="1.2"/><circle class="st20" cx="361.4" cy="283.2" r="1.2"/><circle class="st20" cx="395.4" cy="276.2" r="1.2"/><circle class="st20" cx="402.8" cy="276.2" r="1.2"/><circle class="st20" cx="363.7" cy="280" r="1.2"/><circle class="st20" cx="366.4" cy="276.5" r="1.1"/><circle class="st20" cx="370.1" cy="273.8" r="1.1"/><circle class="st20" cx="373.5" cy="272" r="1.1"/><circle class="st20" cx="375.4" cy="291.3" r="1.1"/><circle class="st20" cx="376.6" cy="288" r="1.1"/><circle class="st20" cx="376.9" cy="271.5" r=".7"/><circle class="st20" cx="382.7" cy="280.7" r=".7"/><circle class="st20" cx="385" cy="278.8" r=".7"/><circle class="st20" cx="399.3" cy="276.2" r=".7"/><circle class="st20" cx="380.5" cy="282.5" r=".7"/><circle class="st20" cx="378.6" cy="284.9" r=".7"/><circle class="st20" cx="380.5" cy="271.3" r=".7"/><circle class="st20" cx="383.9" cy="271.7" r=".7"/><circle class="st20" cx="387.4" cy="272.7" r=".7"/><circle class="st20" cx="387.7" cy="313.7" r="1.7"/><circle class="st20" cx="406.4" cy="313.7" r="1.7"/><circle class="st20" cx="423.6" cy="313.7" r="1.7"/><path class="st21" d="M377.2 313.9l2.9-1.9 2.7 1.9-2.8 2.3zM395.2 313.9l2.8-1.9 2.8 1.9-2.8 2.3zM411.5 313.9l2.8-1.9 2.8 1.9-2.8 2.3z"/><path class="st20" d="M431.3 311.1h-67.1c-.4 0-.8-.4-.8-.8v-.3c0-.4.4-.8.8-.8h67.1c.4 0 .8.4.8.8v.4c0 .4-.3.7-.8.7zM366.5 306s-2.6-3.9-4.9-1.3c0 0-.9-.8 1-2.3 0 0-1.8-1.3-1.8-2.2 0 0 .1-2.2 3.6.6-.1 0 3.3 2.5 2.1 5.2zM364.4 298.7l-2.2-1.7c-.3-.2-.4-.6-.4-.9.1-2.4 1.4-11 4.9-15.7 0 0 7.9-11.6 22.2-5.1l-.5.7s-6.8-1.6-13.1.5c0 0-11.6 3.4-10.4 21.9.1.3-.2.4-.5.3zM381.2 296.9l-3.3-2.5s3-14.1 15.5-17.5l1.1 1.5c.1 0-10 2-13.3 18.5z"/><circle class="st20" cx="439.3" cy="297" r="1.2"/><circle class="st20" cx="439.3" cy="293.5" r="1.2"/><circle class="st20" cx="439.3" cy="289.8" r="1.2"/><circle class="st20" cx="438.5" cy="286.4" r="1.2"/><circle class="st20" cx="436.7" cy="283.3" r="1.2"/><circle class="st20" cx="434.4" cy="280" r="1.2"/><circle class="st20" cx="431.7" cy="276.6" r="1.1"/><circle class="st20" cx="428" cy="273.8" r="1.1"/><circle class="st20" cx="424.6" cy="272.1" r="1.1"/><circle class="st20" cx="422.7" cy="291.3" r="1.1"/><circle class="st20" cx="421.5" cy="288" r="1.1"/><circle class="st20" cx="421.2" cy="271.5" r=".7"/><circle class="st20" cx="415.4" cy="280.7" r=".7"/><circle class="st20" cx="413.1" cy="278.8" r=".7"/><circle class="st20" cx="417.6" cy="282.5" r=".7"/><circle class="st20" cx="419.5" cy="285" r=".7"/><circle class="st20" cx="417.6" cy="271.3" r=".7"/><circle class="st20" cx="414.2" cy="271.7" r=".7"/><circle class="st20" cx="410.7" cy="272.7" r=".7"/><path class="st20" d="M431.6 306s2.6-3.9 4.9-1.3c0 0 .9-.8-1-2.3 0 0 1.8-1.3 1.8-2.2 0 0-.1-2.2-3.6.6.1.1-3.3 2.6-2.1 5.2zM433.7 298.7l2.2-1.7c.3-.2.4-.6.4-.9-.1-2.4-1.4-11-4.9-15.7 0 0-7.9-11.6-22.2-5.1l.5.7s6.8-1.6 13.1.5c0 0 11.6 3.4 10.4 21.9-.1.3.2.4.5.3zM416.9 296.9l3.3-2.5s-3-14.1-15.5-17.5l-1.1 1.5c-.1 0 10 2 13.3 18.5zM396.9 270.1s-1.1.1-.9-1.3c0-.1 0-.3-.1-.4-.5-.6-2.4-2.5-4.8.2 0 0-1.4-.8-.2-3.3 0 0 1.9-3.1 3.9-.2 0 0 2.5 3.7 2.1 5zM402 270.1s1.1.1.9-1.3c0-.1 0-.3.1-.4.5-.6 2.4-2.5 4.8.2 0 0 1.4-.8.2-3.3 0 0-1.9-3.1-3.9-.2 0 0-2.5 3.7-2.1 5zM397.5 273.4h4.1v-.7h-1.4s-.4.2-.4-1.3c0 0 0-3.4.8-4.4 0 0 1.7-3.1 1.2-5.1 0 0-1.3-4-2.8-3.7h.4c-1.5-.3-2.8 3.7-2.8 3.7-.5 2 1.2 5.1 1.2 5.1.8 1 .8 4.4.8 4.4 0 1.4-.4 1.3-.4 1.3h-1.4v.7h4.1"/><path class="st20" d="M401.2 286.7v-7.9h-3.8v7.9c-.7.5-1.1 1.3-1.1 2.1 0 1.4 1 2.5 2.4 2.7-.5-.2-.9-.8-.9-1.4 0-.8.7-1.5 1.5-1.5s1.5.7 1.5 1.5c0 .6-.4 1.2-.9 1.4 1.4-.3 2.4-1.4 2.4-2.8-.1-.7-.5-1.5-1.1-2zm-1.9.9c-.6 0-1.2-.5-1.2-1.2s.5-1.2 1.2-1.2 1.2.5 1.2 1.2c-.1.7-.6 1.2-1.2 1.2zm0-2.7c-.6 0-1.2-.5-1.2-1.2 0-.6.5-1.2 1.2-1.2s1.2.5 1.2 1.2c-.1.7-.6 1.2-1.2 1.2zm0-3c-.6 0-1.2-.5-1.2-1.2s.5-1.2 1.2-1.2 1.2.5 1.2 1.2c-.1.7-.6 1.2-1.2 1.2zM397.9 292.1h2.6c.1.7.1 1.4-.1 2.1-.2.4-.5.9-.9 1-.6.1-1.2-.4-1.4-1-.2-.6-.1-1.2-.2-1.8v-.3"/><path class="st22" d="M84.8 103.2s-1.2-2.1 4.4-3"/><path class="st23" d="M91.1 100c1.4-.1 3.1-.2 5.1-.2 0 0 44.8-1.5 67 1.8 0 0 40 3.2 57.5 3.2l128.8.7 102.9 1.8s71.3.9 106.3 1.1c7.6 0 15.1 0 22.6-.7l70.9-3.7s33-1 47.9.9"/><path class="st22" d="M701.2 104.9c2.9.4 4.9.9 5.7 1.6"/></g></svg>