<?xml version="1.0" encoding="utf-8"?>
<!-- Generator: Adobe Illustrator 19.1.0, SVG Export Plug-In . SVG Version: 6.00 Build 0)  -->
<svg version="1.1" id="Layer_1" xmlns="http://www.w3.org/2000/svg" xmlns:xlink="http://www.w3.org/1999/xlink" x="0px" y="0px"
	 viewBox="-200.8 0.4 792 612" style="enable-background:new -200.8 0.4 792 612;" xml:space="preserve">
<style type="text/css">
	.st0{fill:#336667;}
	.st1{fill:#AD9472;}
	.st2{fill:none;stroke:#000000;stroke-miterlimit:10;}
	.st3{opacity:0.25;}
	.st4{fill:#212121;}
	.st5{opacity:0.3;fill:url(#SVGID_1_);enable-background:new    ;}
	.st6{opacity:0.3;}
	.st7{fill:url(#SVGID_2_);}
	.st8{fill:url(#SVGID_3_);}
	.st9{fill:url(#SVGID_4_);}
	.st10{fill:url(#SVGID_5_);}
	.st11{fill:url(#SVGID_6_);}
	.st12{fill:url(#SVGID_7_);}
	.st13{fill:url(#SVGID_8_);}
	.st14{fill:url(#SVGID_9_);}
	.st15{fill:url(#SVGID_10_);}
	.st16{fill:url(#SVGID_11_);}
	.st17{fill:url(#SVGID_12_);}
	.st18{fill:url(#SVGID_13_);}
	.st19{fill:url(#SVGID_14_);}
	.st20{fill:url(#SVGID_15_);}
	.st21{fill:url(#SVGID_16_);}
	.st22{fill:url(#SVGID_17_);}
	.st23{fill:url(#SVGID_18_);}
	.st24{fill:url(#SVGID_19_);}
	.st25{fill:url(#SVGID_20_);}
	.st26{fill:url(#SVGID_21_);}
	.st27{fill:url(#SVGID_22_);}
	.st28{fill:url(#SVGID_23_);}
	.st29{fill:url(#SVGID_24_);}
	.st30{fill:url(#SVGID_25_);}
	.st31{fill:url(#SVGID_26_);}
	.st32{fill:url(#SVGID_27_);}
	.st33{fill:url(#SVGID_28_);}
	.st34{fill:url(#SVGID_29_);}
	.st35{fill:url(#SVGID_30_);}
	.st36{fill:url(#SVGID_31_);}
	.st37{fill:url(#SVGID_32_);}
	.st38{fill:url(#SVGID_33_);}
	.st39{fill:url(#SVGID_34_);}
</style>
<g id="bg">
	<rect x="-200.8" y="0.4" class="st0" width="792" height="612"/>
</g>
<g id="Layer_3">
	<path class="st1" d="M345.3,69.7c0,3.4-0.1,6.9-0.3,10.3l-5.7,457.1c-0.8,17.4-9,33.7-22.4,44.8c-5.5,4.6-11.8,8.1-18.5,10.5
		s-13.8,3.6-20.9,3.6H112.3c-16.4,0-32.1-6.5-43.8-18.1l-3.1-3.1c-11.2-11.2-17.7-26.3-18.1-42.2l-0.6-352.9L45.4,80
		c-0.2-3.4-0.3-6.9-0.3-10.3c0-12.5,1.8-24.4,10.1-34c12-14,29.5-22,47.9-22h184.2c18.4,0,35.9,8,47.9,22
		C343.5,45.3,345.3,57.2,345.3,69.7z"/>
</g>
<g id="Layer_2">
	<g>
		<path d="M191,13.6l12.9,18.7c1,1.4,3.1,1.3,4-0.1L220,13.6C220,13.6,191,13.6,191,13.6z"/>
		<path d="M150.7,15.3l54.6,92.3c1.8,3,6.1,2.9,7.8-0.1l50.6-92.2c0.4-0.7-0.1-1.6-1-1.6h-21.4l-30.8,60.9c-0.4,0.8-1.5,0.8-1.9,0.1
			l-38.1-60.9h-18.9C150.8,13.6,150.3,14.6,150.7,15.3z"/>
		<path d="M98.4,13.8c0,0,87.1,126.4,104.2,169c1.5,3.6,4.5,9.7,6.6,6.4L313,19.1c0,0-12.4-7.1-30.9-5.5c0,0-48.1,103.3-62.2,140.6
			c-2.1,5.5-11.5,5.5-14.5,0.4c-19.3-33.2-76.9-141-77.6-141C127.1,13.6,107.4,13.6,98.4,13.8z"/>
		<path d="M78,18.9c3.8,6,67.8,107.7,76.6,126.1c0.6,1.3,1.2,2.5,1.9,3.8c4.8,9.1,22.4,43,26.3,63.9c0.7,3.9,1.6,7.8,2.7,11.5
			l5.9,19.8c2,5.7,6.7,12.2,9.8,7l18.5-35.4l31.6-57.4c0,0,52.5-97,85.4-120.9c0.3-0.2-2.3-2.9-3-3.6l-4.2-4.1
			c-0.3-0.3-0.6,0-0.8,0.3c-6.1,7.3-70.6,85.1-86.7,125.1c-2.4,5.8-5,11.5-7.8,17.1c-7.7,15-21.2,41-26.3,51c-1.1,2.2-4,2.7-5.8,1.1
			c-3.6-3.4-8.9-25.2-14.7-37.5c-3-6.3-4.7-13.2-8.5-20.1L119.9,59.6c-5.4-9.9-13.5-18.1-23.2-23.7l0,0l-10-20
			c-0.1-0.1-2,0.4-2.1,0.5l-3.3,1.1C81,17.7,77.9,18.8,78,18.9z"/>
		<path d="M53.6,37.7c0,0,42,45.6,57.1,77.8c0,0,25.1,46,36.7,80.9c2.1,6.2,4.8,12.3,8,18c2.5,4.5,5.4,10.6,7.4,17.8
			c1.3,4.7,2.8,9.4,4.7,14l25.6,66c1.4,3.4,6.1,4.5,7.9,1.3l23.3-42.5c2-3.6,4.2-7.1,6.6-10.3c3.5-4.7,9.2-13.3,13.1-24.5
			c0.8-2.4,1.7-4.8,2.7-7.1c9.8-23.4,55.7-135,98.3-167.7c0,0-0.8-8.5-1.8-10.5c0,0-52.2,50.4-83.8,122l-37.5,80
			c0,0-18.3,41.1-26,31.9c-0.3-0.4-0.5-0.8-0.7-1.2l-17-37.3c-1.7-3.8-3.2-7.6-4.4-11.6c-2.4-7.7-6.6-21.6-10-33.6
			c0,0-17.7-64.9-51.4-110.8L67.1,24.9C67.1,24.9,60.6,28.9,53.6,37.7z"/>
		<path d="M345,80c0,0-25.2,21.3-42.5,54.8c0,0-36.1,67.6-40.4,84.5c-0.3,1.3,1.1,2.3,2.2,1.5c3.8-2.7,11.2-9.2,18.9-23.4
			c1.2-2.2,2.4-4.4,3.7-6.6c10.6-17.7,50.2-90,57.6-79.4L345,80z"/>
		<path d="M69.5,263.8c3.6,4.5,7.8,7.5,6.8-4.6c-0.1-1.4-0.2-2.8-0.3-4.3c-0.1-3.9-1.3-15.8-7.8-46.2c-1.1-5-1.7-10.2-1.8-15.4
			c-0.2-7-1.1-18.6-4.7-30.1c-0.7-2.2-1.3-4.4-1.9-6.6l-14-49.6l1.3,100.7l16,43.7C64.4,256,66.6,260.2,69.5,263.8z"/>
		<path d="M310.3,183c-3.3,5.4-6.2,11.1-8.8,17c-8.3,18.7-29.2,37.7-36.7,44.2c-1.3,1.1-2.7,2.2-4.1,3.1
			c-10.1,6.7-27.2,35.2-34.9,48.8c-2.2,3.8-4.5,7.6-6.9,11.3c-10.1,15.2-11.5,27.9-11.5,32.6c-0.1,2.7-0.1,5.3-0.3,7.9
			c-0.8,16.6-3.3,63.8-3.8,75.7c-0.1,2.4-3.1,3.4-4.6,1.5c-5.2-6.5-6.9-30.9-7.4-44.4c-0.2-4.7,0-9.5,0.4-14.2
			c3.5-41.9-36.9-130.1-53-163.3c-3.6-7.4-6.8-14.9-9.8-22.6C109.5,131.1,47.4,50.4,47.4,50.4c-1.6,5.2-2.2,13.9-2.2,13.9
			c9,2,44.1,66.4,53.5,83.6c1.2,2.2,2.6,4.3,4.1,6.4c8.5,12.2,21.4,69.4,27,95.4c2,9.1,4.2,18.2,6.9,27.1l17.8,60.6
			c2.4,8.3,5.7,16.3,9.6,24.1c6.1,12.3,9.2,26.5,9.2,26.5c2,11.3,15.7,47.7,15.7,47.7c0.5,11.3-10.3-7.3-18.8-23.5
			c-5.7-11-10.3-22.4-13.8-34.2c-11.3-38.4-41.4-129.1-41.4-129.1c-29.5-108-44.1-106.3-44.1-106.3c5.7,15.4,12.1,98.3,12.1,98.3
			c1.5,30.9,42.1,100.7,46.9,108.8c0.4,0.7,0.7,1.5,0.8,2.3c1.5,9.7-31.4-23.3-31.4-23.3C69.4,300.7,47,255.4,47,255.4L46.9,295
			c3.6,13.8,86.4,85.4,86.4,85.4c21.6,21.3,32.3,42.3,35.4,49.1c0.8,1.8,1.7,3.5,2.6,5.3c14.3,28.7,10.6,58.9,10.6,58.9
			c-2.3,6.2-9.1-19.8-11.6-29.8c-0.8-3.4-1.8-6.7-2.8-10c-17.5-54.3-47.4-74.1-57.4-79.5c-4-2.2-8-4.5-11.8-7.1
			C62.9,343.1,47,319.8,47,319.8v27.7c2.9,8.1,35.7,27.7,35.7,27.7c13,7.6,23.8,14.8,31.8,20.5c14.9,10.7,27.2,24.7,35.6,41
			c13.7,26.6,17.5,54.1,18.6,70.7c0.4,7.6-0.2,15.2-1.8,22.6c-5.2,24.9-0.5,66.1-0.5,66.1h12.9c-9.8-38.2-3.3-64.3-0.8-72
			c0.2-0.5,1-0.4,1,0.1c1.7,28.1,16.8,71.9,16.8,71.9H217c-13.3-34.4-4-99.3-4-99.3c7.1-66,37.5-107.5,46.5-118.4
			c1.3-1.5,2.5-3.1,3.6-4.7C272.7,360.6,311,334,311,334l31-21.2l0.3-23.8l-33.9,33.3c-2,2.1-4.2,4.1-6.6,5.9
			c-11.2,8.5-9.5,0.6-7.6-4.8c0.6-1.8,1.4-3.5,2.2-5.2c7.5-14.4,13.6-45.6,17-65.7c2.8-16.6,7.4-32.8,13.8-48.4
			c11.5-28.1,16.5-33.6,16.5-33.6l0.5-34.7C333.2,141.8,319.6,167.8,310.3,183z M181.6,365.3c-1.7,7.6-9.8-12.1-13.2-21
			c-0.8-2.1-1.7-4.1-2.7-6.2c-6.2-12.7-19.2-57.5-19.2-57.5l-12.4-45.5c-0.6-2.3-0.8-4.7-0.4-6.9c0.9-5.6,3.7-2.5,5.7,0.6
			c1.1,1.8,2.1,3.8,2.8,5.7l8,21.6c2.2,6.1,5,11.9,8.5,17.3c11,17.1,15.1,42,16.2,50.2c0.3,2.4,0.7,4.7,1.1,7.1l5.5,31.3
			C181.8,363.1,181.8,364.2,181.6,365.3z M232.4,322.8c1.1-2.6,2.2-5.3,3.1-8c6.9-19.7,32.1-55.5,38.4-64.3c1.3-1.7,2.7-3.3,4.3-4.7
			c4.8-4,4.4-0.3,3.3,3.2c-0.6,2.2-1.6,4.2-2.7,6.2l-15.6,26.4c-2,3.4-3.8,6.9-5.4,10.5l-15.2,35.6l-22.6,51.9c-5,11.6-6,6-6,6
			C212.7,370,226.9,335.6,232.4,322.8z M330,180.3c-0.4,2.5-1.1,4.9-2.1,7.3l-20,45.5c-2.4,5.3-5.2,10.3-8.5,15.1
			c-7.3,10.5-14.2,22.2-18.6,30.2c-3.3,5.9-6.1,11.9-8.6,18.2l-18.9,48.2c-0.6,1.4-1.3,2.7-2.3,3.8c-5.4,6.1-7.1,13.4-7.5,15.3
			c0,0.1,0.1,0.1,0.1,0.1c2-3.2,9.8-9,9.8-9c10-5.5,30-48.7,34.6-58.8c0.5-1.2,1-2.4,1.5-3.6c2.9-7.1,4.8-6.9,5.7-6.1
			c0.4,0.4,0.7,1.1,0.6,1.7c-2.2,29-17.9,50.9-27.5,61.7c-3.1,3.5-6.5,6.7-10.2,9.6c-26.3,19.8-38.4,55.9-42.1,69
			c-0.8,2.6-1.6,5.2-2.6,7.8c-5.3,13.9-8.4,50-9.6,65.5c-0.3,4.1-0.4,8.3-0.5,12.4c-0.1,15.4-1.1,21-1.9,23.1
			c-0.3,0.7-1.3,0.8-1.6,0.1c-5.5-10.6-3.4-70.8-3.4-70.8C195.9,450.3,224,384,224,384l24.5-55.1c0.6-1.5,1.3-3.1,1.8-4.6
			c8-22.1,23.4-48.6,29-58.1c1-1.7,2.1-3.3,3.3-4.8c5.8-7.8,22.6-43.2,22.6-43.2l18.2-34c0.8-1.6,1.8-3.1,2.9-4.6
			C330.2,174.2,330.4,177.1,330,180.3z"/>
		<path class="st2" d="M181.6,362c0.2,1.1,0.2,2.2-0.1,3.3c-1.7,7.6-9.8-12.1-13.2-21c-0.8-2.1-1.7-4.1-2.7-6.2
			c-6.2-12.7-19.2-57.5-19.2-57.5l-12.4-45.5c-0.6-2.3-0.8-4.7-0.4-6.9c0.9-5.6,3.7-2.5,5.7,0.6c1.1,1.8,2.1,3.8,2.8,5.7l8,21.6
			c2.2,6.1,5,11.9,8.5,17.3c11,17.1,15.1,42,16.2,50.2c0.3,2.4,0.7,4.7,1.1,7.1L181.6,362z"/>
		<path class="st2" d="M214.2,385.4c-1.5-15.4,12.7-49.9,18.2-62.7c1.1-2.6,2.2-5.3,3.1-8c6.9-19.7,32.1-55.5,38.4-64.3
			c1.3-1.7,2.7-3.3,4.3-4.7c4.8-4,4.4-0.3,3.3,3.2c-0.6,2.2-1.6,4.2-2.7,6.2l-15.6,26.4c-2,3.4-3.8,6.9-5.4,10.5l-15.2,35.6
			l-22.6,51.9C215.2,391.1,214.2,385.4,214.2,385.4z"/>
		<path class="st2" d="M330,180.3c-0.4,2.5-1.1,4.9-2.1,7.3l-20,45.5c-2.4,5.3-5.2,10.3-8.5,15.1c-7.3,10.5-14.2,22.2-18.6,30.2
			c-3.3,5.9-6.1,11.9-8.6,18.2l-18.9,48.2c-0.6,1.4-1.3,2.7-2.3,3.8c-5.4,6.1-7.1,13.4-7.5,15.3c0,0.1,0.1,0.1,0.1,0.1
			c2-3.2,9.8-9,9.8-9c10-5.5,30-48.7,34.6-58.8c0.5-1.2,1-2.4,1.5-3.6c2.9-7.1,4.8-6.9,5.7-6.1c0.4,0.4,0.7,1.1,0.6,1.7
			c-2.2,29-17.9,50.9-27.5,61.7c-3.1,3.5-6.5,6.7-10.2,9.6c-26.3,19.8-38.4,55.9-42.1,69c-0.8,2.6-1.6,5.2-2.6,7.8
			c-5.3,13.9-8.4,50-9.6,65.5c-0.3,4.1-0.4,8.3-0.5,12.4c-0.1,15.4-1.1,21-1.9,23.1c-0.3,0.7-1.3,0.8-1.6,0.1
			c-5.5-10.6-3.4-70.8-3.4-70.8C195.9,450.3,224,384,224,384l24.5-55.1c0.6-1.5,1.3-3.1,1.8-4.6c8-22.1,23.4-48.6,29-58.1
			c1-1.7,2.1-3.3,3.3-4.8c5.8-7.8,22.6-43.2,22.6-43.2l18.2-34c0.8-1.6,1.8-3.1,2.9-4.6C330.2,174.2,330.4,177.1,330,180.3z"/>
		<path d="M343.6,191.2c0,0-0.7,6.7-3.8,11.2c-3.3,4.8-5.7,10.2-7.6,15.7c-6.7,19.9-18.6,58.6-16.4,77.3c0.2,1.6,2.2,2.2,3.2,1
			l23.7-28.4L343.6,191.2z"/>
		<path d="M84.7,390.1c2.1,0.7,4.8,1.7,7.9,3.1c22.6,10.3,39.9,29.5,48.1,53c4.8,13.9,12.3,37.3,11.1,48.4c-0.2,1.7-2.4,2-3.1,0.5
			C142,480,116,424.6,83.4,392.2C82.5,391.2,83.4,389.6,84.7,390.1z"/>
		<path d="M342,325.9c0,0-41.4,25.6-55.5,41.1c0,0-55.3,53.8-60.9,121.8c0,0-11.3,82.9,5.2,107.2h15c0,0,0.6-24.7,4.3-24.7
			c0,0,5-4.6,4.7,24.7H265c0,0-14.7-80.3-1.8-119.5c0,0,19.6-61.4,45.6-89.4c0.7-0.7-0.3-1.8-1.1-1.3c-9.8,6.4-30.3,23.1-45.7,58.5
			c-0.8,1.9-1.7,3.8-2.6,5.7c-4.7,9.4-19.8,42.7-19.1,79.5c0,1.7,0,3.4-0.1,5.1c-0.4,8.8-2.4,35.8-7.6,33.7
			c-0.6-0.3-1.1-0.9-1.1-1.6c-0.6-4.3-3.6-24.9-0.6-41.5c0.3-2,0.6-4.1,0.9-6.1c1.5-14.4,9.4-74.1,36.2-106.9
			c0,0,50.2-56.9,73.9-65.3L342,325.9z"/>
		<path d="M47,369.7c0,0,36,38.9,53,70.8c0,0,10.2,17.7,14.4,23.7c0.6,0.8,1.1,1.5,1.8,2.2c4.1,4.6,29.2,33.5,29.2,66.6
			c0,0-1.3,57.4,2.2,62.6c0.1,0.1,0,0.4-0.2,0.4l-35.4-0.3c-0.8,0-1.5-1.3-1.9-1.8l-10.7-14.2c-0.9-1.2-1.8-2.4-2.9-3.4
			c-4-4.3-15.2-16.8-20.5-28.2c-0.8-1.6-1.5-3.2-2.4-4.7l-25.8-31.9l-0.5-19.4L88.5,545c2.5,4,5.4,7.8,8.4,11.5
			c4.1,5,10.5,13,15,19.8c2.6,3.9,5.8,7.3,9.6,10c4.8,3.4,10.1,5.9,9.5-0.6c-0.2-1.7-0.7-3.4-1.5-4.9c-2-3.8-6.9-13.7-7.6-22.4
			c0,0-0.9-9-1.5-22.7c-0.1-2-0.1-4.1-0.1-6.1c0-7-1.1-30.5-15.2-53.2c-0.9-1.5-1.8-3-2.6-4.5C94.3,457.4,51.8,393,47,389.7
			L47,369.7z"/>
		<path d="M47.1,402.8c0,0,27.3,46.3,40,77.2c5.1,12.4,6.7,26.1,4.3,39.3c-0.2,1.1-0.4,2-0.6,2.9c-0.3,1.3-2,1.6-2.7,0.5l-40.7-52.4
			L47.1,402.8z"/>
		<path d="M341.3,377.3c0,0-64.1,76.2-72,148.2c-1.1,10.1-0.9,20.3,0.4,30.5c1.8,13.5,5,39.3,1.5,39.8c0,0,16.3,1.3,27.6-3.6
			c0,0,26.3-56.7,31.5-50.2c0.4,0.6,0.5,1.4,0.3,2.1l-20.1,33.3c0,0,26.5-18.4,28.4-36.9c0-0.1,0.3-3.2,0.3-3.3l0.5-39.2
			c0,0-32.2,44.3-53.2,55.3c0,0-9.8,5.3-4.2-10c0,0,6.2-19.9,9.6-35.4c1.1-5.2,1.7-10.6,2-16c0.3-6.5,10.8-36.1,47.1-91.2
			L341.3,377.3"/>
		<path d="M340.8,420.8c0,0-38,51.4-38.7,75.8c-0.1,1.5,1.7,2.2,2.7,1.1l35.4-31.4L340.8,420.8z"/>
	</g>
	<g class="st3">
		<g>
			<g>
				<path d="M186.4,13.6l12.9,18.7c1,1.4,3.1,1.3,4-0.1l12.1-18.6C215.4,13.6,186.4,13.6,186.4,13.6z"/>
			</g>
			<path d="M146.1,15.3l54.6,92.3c1.8,3,6.1,2.9,7.8-0.1l50.6-92.2c0.4-0.7-0.1-1.6-1-1.6h-21.4l-30.8,60.9
				c-0.4,0.8-1.5,0.8-1.9,0.1l-38.1-60.9H147C146.2,13.6,145.7,14.6,146.1,15.3z"/>
			<path d="M94.3,14.3c0,0,86.6,126.3,103.8,168.9c1.5,3.6,4.5,9.7,6.6,6.4L308.4,19.4c0,0-13.1-6.1-30.7-5.7
				c0,0-48.3,103.7-62.3,140.8c-2.1,5.5-11.5,5.5-14.5,0.4C181.6,121.6,124,14,123.3,14C122.5,14,102.4,13,94.3,14.3z"/>
			<path d="M73.1,21.4c4.1,6.4,67.8,105.4,76.7,123.9c0.6,1.3,1.3,2.7,2,4c5,9.3,22.4,43.1,26.2,63.7c0.7,3.8,1.5,7.6,2.7,11.3l6,20
				c2,5.7,6.7,12.2,9.8,7L215,216l31.6-57.4c0,0,53-102.1,84.4-126.9c0.3-0.3-2.3-2.5-2.5-2.8L326,27c-0.4-0.3-0.6,0.1-0.8,0.3
				c-5.8,7.1-71.8,88-88,128.1c-2.4,5.8-5,11.5-7.8,17.1c-7.7,15-21.2,41-26.3,51c-1.1,2.2-4,2.7-5.8,1.1
				c-3.6-3.4-8.9-25.2-14.7-37.5c-3-6.3-4.7-13.2-8.5-20.1l-58.8-107c-5.4-9.9-13.5-18.1-23.2-23.7l-0.4-1.5l-8-18l-7.2,2.8
				C76.2,19.7,73,21.2,73.1,21.4z"/>
			<path d="M50.5,42.6c0,0,43.8,46.4,58.8,78.5c0,0,25.1,46,36.7,80.9c2.1,6.2,4.8,12.3,8,18c2.5,4.5,5.4,10.6,7.4,17.8
				c1.3,4.7,2.8,9.4,4.7,14l25.6,66c1.4,3.4,6.1,4.5,7.9,1.3l23.3-42.5c2-3.6,4.2-7.1,6.6-10.3c3.5-4.7,9.2-13.3,13.1-24.5
				c0.8-2.4,1.7-4.8,2.7-7.1c9.8-23.4,57.4-136,99.9-168.7c0,0-0.4-10.5-2.2-10.6c0,0-53.4,51.5-85,123.2l-37.5,80
				c0,0-18.3,41.1-26,31.9c-0.3-0.4-0.5-0.8-0.7-1.2L177,252c-1.7-3.8-3.2-7.6-4.4-11.6c-2.4-7.7-6.6-21.6-10-33.6
				c0,0-17.7-64.9-51.4-110.8L62.3,31C62.3,31,56.1,32.3,50.5,42.6z"/>
			<path d="M345,80c0,0-29.8,21.5-47,55c0,0-36.1,67.6-40.4,84.5c-0.3,1.3,1.1,2.3,2.2,1.5c3.8-2.7,11.2-9.2,18.9-23.4
				c1.2-2.2,2.4-4.4,3.7-6.6c10.6-17.7,54.8-90.3,62.2-79.6L345,80z"/>
			<path d="M65,267.7c3.6,4.5,7.8,3.8,6.8-8.2c-0.1-1.4-0.2-2.8-0.3-4.3c-0.1-3.9-1.3-15.8-7.8-46.2c-1.1-5-1.7-10.2-1.8-15.4
				c-0.2-7-1.1-18.6-4.7-30.1c-0.7-2.2-1.3-4.4-1.9-6.6L45.8,107l1.9,102.5l10.8,42.3C59.9,256.3,62,264,65,267.7z"/>
			<path d="M305.7,181.7c-3.3,5.4-6.2,11.1-8.8,17c-8.3,18.7-29.2,37.7-36.7,44.2c-1.3,1.1-2.7,2.2-4.1,3.1
				c-10,6.8-27.1,35.3-34.9,48.9c-2.2,3.8-4.5,7.6-6.9,11.3c-10.1,15.2-11.5,27.9-11.5,32.6c-0.1,2.7-0.1,5.3-0.3,7.9
				c-0.8,16.6-3.3,63.8-3.8,75.7c-0.1,2.4-3.1,3.4-4.6,1.5c-5.2-6.5-6.9-30.9-7.4-44.4c-0.2-4.7,0-9.5,0.4-14.2
				c3.5-41.9-36.9-130.2-53-163.3c-3.6-7.4-6.8-14.9-9.8-22.6c-19.4-49.6-77-123.9-77-123.9c-2.4,5.3-2.2,12.2-2.2,12.2
				c9,2,39.7,61.7,49.1,78.9c1.2,2.2,2.6,4.3,4.1,6.4c8.5,12.2,21.4,69.4,27,95.4c2,9.1,4.2,18.2,6.9,27.1l17.8,60.6
				c2.4,8.3,5.7,16.3,9.6,24.1c6.1,12.3,9.2,26.5,9.2,26.5c2,11.3,15.7,47.7,15.7,47.7c0.5,11.3-10.3-7.3-18.8-23.5
				c-5.7-11-10.3-22.4-13.8-34.2c-11.3-38.4-41.4-129.1-41.4-129.1C81,139.7,66.5,141.3,66.5,141.3c5.7,15.4,12.1,98.3,12.1,98.3
				c1.5,30.9,42.1,100.7,46.9,108.8c0.4,0.7,0.7,1.5,0.8,2.3c1.5,9.7-31.4-23.3-31.4-23.3C64.8,299.4,47,264,47,264l-0.2,35
				c3.6,13.8,81.9,80.1,81.9,80.1c21.6,21.3,32.3,42.3,35.4,49.1c0.8,1.8,1.7,3.5,2.5,5.3c14.3,28.7,10.6,58.9,10.6,58.9
				c-2.3,6.2-9.1-19.8-11.6-29.8c-0.8-3.4-1.8-6.7-2.8-10c-17.5-54.3-47.4-74.1-57.4-79.5c-4-2.2-8-4.5-11.8-7.1
				c-35.3-24.1-46.5-41.2-46.5-41.2v24.6c2.9,8.1,31.1,24.5,31.1,24.5c13,7.6,23.8,14.8,31.8,20.5c14.9,10.7,27.2,24.7,35.6,41
				c13.7,26.6,17.5,54.1,18.6,70.7c0.4,7.6-0.2,15.2-1.8,22.6c-5.2,24.9-0.5,65.8-0.5,65.8h12.9c-9.7-38.2-3.3-63.9-0.8-71.7
				c0.2-0.5,1-0.4,1,0.1c1.7,28.1,16.8,71.6,16.8,71.6h20.7c-13.3-34.4-4-99.1-4-99.1c7.1-66,37.5-107.5,46.5-118.4
				c1.3-1.5,2.5-3.1,3.6-4.7c9.6-12.9,47.9-39.5,47.9-39.5l35.6-23.3l0.4-29.1L303.8,321c-2,2.1-4.2,4.1-6.6,5.9
				c-11.2,8.5-9.5,0.6-7.6-4.8c0.6-1.8,1.4-3.5,2.2-5.2c7.5-14.4,13.6-45.6,17-65.7c2.8-16.6,7.4-32.8,13.8-48.4
				c11.5-28.1,21.1-33.9,21.1-33.9l0.4-37.7C333.2,137.3,315,166.6,305.7,181.7z M177,364c-1.7,7.6-9.8-12.1-13.2-21
				c-0.8-2.1-1.7-4.1-2.7-6.2c-6.2-12.7-19.2-57.5-19.2-57.5l-12.4-45.5c-0.6-2.3-0.8-4.7-0.4-6.9c0.9-5.6,3.7-2.5,5.7,0.6
				c1.1,1.8,2.1,3.8,2.8,5.7l8,21.6c2.2,6.1,5,11.9,8.5,17.3c11,17.1,15.1,42,16.2,50.2c0.3,2.4,0.7,4.7,1.1,7.1l5.5,31.3
				C177.2,361.8,177.2,363,177,364z M227.8,321.6c1.1-2.6,2.2-5.3,3.1-8c6.9-19.7,32.1-55.5,38.4-64.4c1.3-1.7,2.7-3.3,4.3-4.7
				c4.8-4,4.4-0.3,3.3,3.2c-0.6,2.2-1.6,4.2-2.7,6.2l-15.6,26.5c-2,3.4-3.8,6.9-5.4,10.5l-15.1,35.6l-22.6,51.9c-5,11.6-6,6-6,6
				C208.1,368.8,222.3,334.4,227.8,321.6z M325.4,179.1c-0.4,2.5-1.1,4.9-2.1,7.3l-20,45.5c-2.4,5.3-5.2,10.3-8.5,15.1
				c-7.3,10.5-14.2,22.2-18.6,30.2c-3.3,5.9-6.1,11.9-8.6,18.2l-18.9,48.2c-0.6,1.4-1.3,2.7-2.3,3.8c-5.4,6.1-7.1,13.4-7.5,15.3
				c0,0.1,0.1,0.1,0.1,0.1c2-3.2,9.8-9,9.8-9c10-5.5,30-48.7,34.6-58.8c0.5-1.2,1-2.4,1.5-3.6c2.9-7.1,4.8-6.9,5.7-6.1
				c0.4,0.4,0.7,1.1,0.6,1.7c-2.2,29-17.9,50.9-27.5,61.7c-3.1,3.5-6.5,6.7-10.2,9.6c-26.3,19.8-38.4,55.9-42.1,69
				c-0.8,2.6-1.6,5.2-2.6,7.8c-5.3,13.9-8.4,50-9.6,65.5c-0.3,4.1-0.4,8.3-0.5,12.4c-0.1,15.4-1.1,21-1.9,23.1
				c-0.3,0.7-1.3,0.8-1.6,0.1c-5.5-10.6-3.4-70.8-3.4-70.8c-0.6-16.3,27.5-82.6,27.5-82.6l24.5-55.1c0.6-1.5,1.3-3.1,1.8-4.6
				c8-22.1,23.4-48.6,29-58.1c1-1.7,2.1-3.3,3.3-4.8c5.8-7.8,22.6-43.2,22.6-43.2l18.2-34c0.8-1.6,1.8-3.1,2.9-4.6
				C325.6,172.9,325.8,175.8,325.4,179.1z"/>
			<path d="M343.6,188.6c0,0-5.3,9.6-8.3,14.1c-3.3,4.8-5.7,10.2-7.6,15.7c-6.7,19.9-18.6,58.6-16.4,77.3c0.2,1.6,2.2,2.2,3.2,1
				l26.7-30L343.6,188.6z"/>
			<path d="M80.1,390.3c2.1,0.7,4.8,1.7,7.9,3.1c22.6,10.3,39.9,29.5,48.1,53c4.8,13.9,12.3,37.3,11.1,48.4c-0.2,1.7-2.4,2-3.1,0.5
				c-6.8-15.1-32.8-70.4-65.4-102.9C77.9,391.5,78.9,390,80.1,390.3z"/>
			<path d="M342,320.1c0,0-46,31.7-60.1,47.2c0,0-55.3,53.8-60.9,121.8c0,0-11.3,82.6,5.2,106.8h15c0,0,0.6-24.4,4.3-24.4
				c0,0,5-4.9,4.7,24.4h10.2c0,0-14.7-79.9-1.8-119.3c0,0,19.6-61.4,45.6-89.4c0.7-0.7-0.3-1.8-1.1-1.3
				c-9.8,6.4-30.3,23.1-45.7,58.5c-0.8,1.9-1.7,3.8-2.6,5.7c-4.7,9.4-19.8,42.7-19.1,79.5c0,1.7,0,3.4-0.1,5.1
				c-0.4,8.8-2.4,35.8-7.6,33.7c-0.6-0.3-1.1-0.9-1.1-1.6c-0.6-4.3-3.6-24.9-0.6-41.5c0.3-2,0.6-4.1,0.9-6.1
				c1.5-14.4,9.4-74.1,36.2-106.9c0,0,54.8-59.8,78.5-68.2L342,320.1z"/>
			<path d="M47.6,374.6c0,0,30.9,34.3,47.8,66.2c0,0,10.2,17.7,14.4,23.7c0.6,0.8,1.1,1.5,1.8,2.2c4.1,4.6,29.2,33.5,29.2,66.6
				c0,0-1.4,62.7,2.7,62.7l-21.9-0.5c-1.4-0.1-2.7,0.1-4.1,0.4c-7.5,1.7-14.5-4.9-19.1-11l-3.7-4.9c-0.9-1.2-1.8-2.4-2.9-3.4
				c-4-4.3-15.2-16.8-20.5-28.2l0,0c-1.3-2.9-3.1-5.4-5.3-7.7l-18.2-19l-0.4-17.7l36.7,41.3c2.5,4,5.4,7.8,8.4,11.5
				c4.2,5.1,10.6,13.2,15.2,20c2.7,4,6.1,7.5,10.1,10.2c4.6,3.2,9.6,5.2,8.9-1c-0.2-1.7-0.7-3.4-1.5-4.9c-2-3.8-6.9-13.7-7.6-22.4
				c0,0-0.9-9.1-1.5-22.8c-0.1-2-0.1-4-0.1-6.1c0-7-1.1-30.5-15.2-53.2c-0.9-1.5-1.8-3-2.6-4.5c-8.2-14.5-46.1-78.5-50.8-81.8
				L47.6,374.6z"/>
			<path d="M47.1,403.6c0,0,22.7,45.4,35.4,76.2c5.1,12.4,6.7,26.1,4.3,39.3c-0.2,1.1-0.4,2-0.6,2.9c-0.3,1.3-2,1.6-2.7,0.5
				l-36.1-48.8L47.1,403.6z"/>
			<path d="M341.4,367.6c0,0-68.8,86.2-76.7,158.2c-1.1,10.1-0.9,20.3,0.4,30.5c1.8,13.5,9.3,39.3,5.3,39.8c0,0,15.5,0.3,23.8-8.9
				c0,0,18.8-53.4,24-46.9c0.2,0.3,0.5,0.9,0.8,1.5c0.6,1.3,9.3,3.2,8.9,4.6l-17.5,31c0,0,28.6-21,28.8-44.4l0.4-35
				c0,0-36.7,44.6-57.8,55.7c0,0-9.8,5.3-4.2-10c0,0,6.2-19.9,9.6-35.4c1.1-5.2,1.7-10.6,2-16c0.3-6.5,4.3-30.1,40.6-85.2l11.3-28.4
				"/>
			<path d="M340.9,417.3c0,0-38.1,52.8-38.8,77.3c-0.1,1.5,1.7,2.2,2.7,1.1l35.4-29.3L340.9,417.3z"/>
		</g>
	</g>
	<path d="M92.5,27.9h59.4c13.1,0,23.8,10.6,23.8,23.8v14.9c0,13.1-10.6,23.8-23.8,23.8H92.5c-13.1,0-23.8-10.6-23.8-23.8V51.6
		C68.7,38.6,79.3,27.9,92.5,27.9z"/>
	<path class="st4" d="M96.4,33.3h51c13.1,0,23.8,10.6,23.8,23.8V62c0,13.1-10.6,23.8-23.8,23.8h-51c-13.1,0-23.8-10.6-23.8-23.8
		v-4.9C72.6,44,83.3,33.3,96.4,33.3z"/>
</g>
<g id="Layer_4">
	
		<linearGradient id="SVGID_1_" gradientUnits="userSpaceOnUse" x1="186.3126" y1="97.9284" x2="197.5849" y2="87.7788" gradientTransform="matrix(1 0 0 -1 0 613.6001)">
		<stop  offset="0" style="stop-color:#BF9B01"/>
		<stop  offset="0.2766" style="stop-color:#DECB4B"/>
		<stop  offset="0.5271" style="stop-color:#FBF892"/>
		<stop  offset="0.5982" style="stop-color:#EBDF6B"/>
		<stop  offset="0.6823" style="stop-color:#DBC645"/>
		<stop  offset="0.7659" style="stop-color:#CFB327"/>
		<stop  offset="0.8476" style="stop-color:#C6A511"/>
		<stop  offset="0.9267" style="stop-color:#C19D04"/>
		<stop  offset="1" style="stop-color:#BF9A00"/>
	</linearGradient>
	<path class="st5" d="M196.1,527.5h-7.8c0,0,2.3-2,2.3-4.8c0,0-6.3,1.3-6.6-2.7c-0.1-1.4,0.6-2.8,1.8-3.6c1.7-1.2,4.6-3.3,6.2-4.8
		l0,0c1.6,1.5,4.5,3.7,6.2,4.8c1.1,0.8,1.9,2.2,1.8,3.6c-0.3,4-6.6,2.7-6.6,2.7c0,2.8,2.3,4.8,2.3,4.8h-7.7"/>
	<g class="st6">
		<g>
			
				<linearGradient id="SVGID_2_" gradientUnits="userSpaceOnUse" x1="136.2162" y1="74.9179" x2="148.9298" y2="74.9179" gradientTransform="matrix(1 0 0 -1 0 613.6001)">
				<stop  offset="0" style="stop-color:#BF9B01"/>
				<stop  offset="0.2766" style="stop-color:#DECB4B"/>
				<stop  offset="0.5271" style="stop-color:#FBF892"/>
				<stop  offset="0.5982" style="stop-color:#EBDF6B"/>
				<stop  offset="0.6823" style="stop-color:#DBC645"/>
				<stop  offset="0.7659" style="stop-color:#CFB327"/>
				<stop  offset="0.8476" style="stop-color:#C6A511"/>
				<stop  offset="0.9267" style="stop-color:#C19D04"/>
				<stop  offset="1" style="stop-color:#BF9A00"/>
			</linearGradient>
			<path class="st7" d="M140.2,529.8v11.3l2.9-2.6c0.6-0.6,1-0.9,1.1-1.1c0.1-0.1,0.1-0.2,0.1-0.3c0-0.2-0.1-0.3-0.2-0.4
				c-0.1-0.1-0.4-0.2-0.7-0.2v-0.4h5v0.4c-0.7,0-1.3,0.1-1.7,0.3c-0.4,0.2-1,0.5-1.5,1l-2.9,2.7l2.9,3.7c0.8,1,1.3,1.7,1.7,2
				c0.4,0.4,0.8,0.6,1,0.8c0.2,0.1,0.6,0.1,1.1,0.1v0.4h-5.5V547c0.3,0,0.5-0.1,0.6-0.1c0.1-0.1,0.2-0.2,0.2-0.4
				c0-0.2-0.2-0.5-0.5-0.9l-3.5-4.5v3.8c0,0.8,0.1,1.2,0.1,1.5c0.1,0.3,0.3,0.4,0.4,0.5c0.2,0.1,0.6,0.1,1.3,0.2v0.4h-5.8v-0.4
				c0.6,0,1-0.1,1.3-0.2c0.2-0.1,0.3-0.3,0.4-0.4c0.1-0.3,0.2-0.8,0.2-1.4v-10.4c0-1.3,0-2.1-0.1-2.4c-0.1-0.3-0.1-0.5-0.3-0.6
				s-0.3-0.2-0.5-0.2c-0.2,0-0.4,0.1-0.8,0.2l-0.2-0.4l3.4-1.4L140.2,529.8L140.2,529.8z"/>
			
				<linearGradient id="SVGID_3_" gradientUnits="userSpaceOnUse" x1="149.6908" y1="71.8898" x2="160.0713" y2="71.8898" gradientTransform="matrix(1 0 0 -1 0 613.6001)">
				<stop  offset="0" style="stop-color:#BF9B01"/>
				<stop  offset="0.2766" style="stop-color:#DECB4B"/>
				<stop  offset="0.5271" style="stop-color:#FBF892"/>
				<stop  offset="0.5982" style="stop-color:#EBDF6B"/>
				<stop  offset="0.6823" style="stop-color:#DBC645"/>
				<stop  offset="0.7659" style="stop-color:#CFB327"/>
				<stop  offset="0.8476" style="stop-color:#C6A511"/>
				<stop  offset="0.9267" style="stop-color:#C19D04"/>
				<stop  offset="1" style="stop-color:#BF9A00"/>
			</linearGradient>
			<path class="st8" d="M156.1,545.8c-1.1,0.9-1.9,1.4-2.2,1.6c-0.4,0.2-1,0.3-1.5,0.3c-0.8,0-1.5-0.3-2-0.8
				c-0.5-0.5-0.8-1.3-0.8-2.1c0-0.6,0.1-1,0.4-1.5c0.3-0.6,1-1.1,1.8-1.6c0.8-0.5,2.2-1.1,4.2-1.8v-0.4c0-1.1-0.2-1.9-0.6-2.4
				c-0.4-0.4-0.9-0.6-1.6-0.6c-0.5,0-1,0.1-1.3,0.4c-0.3,0.3-0.4,0.6-0.4,1v0.7c0,0.4-0.1,0.7-0.3,0.9c-0.2,0.2-0.4,0.3-0.8,0.3
				c-0.3,0-0.6-0.1-0.8-0.3s-0.3-0.5-0.3-0.9c0-0.7,0.4-1.4,1.1-2c0.7-0.6,1.8-0.9,3.1-0.9c1,0,1.8,0.2,2.5,0.5
				c0.5,0.3,0.8,0.6,1.1,1.2c0.1,0.4,0.3,1.1,0.3,2.2v3.9c0,1.1,0,1.8,0.1,2c0.1,0.2,0.1,0.4,0.2,0.5c0.1,0.1,0.2,0.1,0.3,0.1
				s0.3,0,0.3-0.1c0.2-0.1,0.5-0.4,1-0.9v0.7c-1,1.3-1.8,1.8-2.7,1.8c-0.4,0-0.7-0.1-1-0.4C155.9,546.9,156.1,546.5,156.1,545.8z
				 M156.1,545.1v-4.3c-1.3,0.5-2,0.8-2.4,1.1c-0.6,0.4-1.1,0.8-1.4,1.1c-0.3,0.4-0.4,0.8-0.4,1.3c0,0.6,0.2,1.1,0.5,1.5
				c0.4,0.4,0.8,0.6,1.2,0.6C154.2,546.3,155,545.9,156.1,545.1z"/>
			
				<linearGradient id="SVGID_4_" gradientUnits="userSpaceOnUse" x1="160.3708" y1="73.6111" x2="167.2558" y2="73.6111" gradientTransform="matrix(1 0 0 -1 0 613.6001)">
				<stop  offset="0" style="stop-color:#BF9B01"/>
				<stop  offset="0.2766" style="stop-color:#DECB4B"/>
				<stop  offset="0.5271" style="stop-color:#FBF892"/>
				<stop  offset="0.5982" style="stop-color:#EBDF6B"/>
				<stop  offset="0.6823" style="stop-color:#DBC645"/>
				<stop  offset="0.7659" style="stop-color:#CFB327"/>
				<stop  offset="0.8476" style="stop-color:#C6A511"/>
				<stop  offset="0.9267" style="stop-color:#C19D04"/>
				<stop  offset="1" style="stop-color:#BF9A00"/>
			</linearGradient>
			<path class="st9" d="M164.2,532.3v3.8h2.7v0.9h-2.7v7.4c0,0.8,0.1,1.2,0.3,1.5c0.2,0.3,0.5,0.4,0.8,0.4c0.3,0,0.5-0.1,0.8-0.3
				c0.3-0.2,0.4-0.4,0.6-0.8h0.5c-0.3,0.8-0.7,1.4-1.2,1.8c-0.5,0.4-1.1,0.6-1.7,0.6c-0.4,0-0.8-0.1-1.1-0.3
				c-0.4-0.2-0.6-0.5-0.8-0.9c-0.2-0.4-0.3-1-0.3-1.8v-7.7h-1.8v-0.4c0.4-0.2,1-0.5,1.4-1c0.5-0.4,0.9-1,1.3-1.5
				c0.2-0.3,0.4-0.9,0.8-1.7H164.2L164.2,532.3z"/>
			
				<linearGradient id="SVGID_5_" gradientUnits="userSpaceOnUse" x1="168.1701" y1="71.7622" x2="177.8394" y2="71.7622" gradientTransform="matrix(1 0 0 -1 0 613.6001)">
				<stop  offset="0" style="stop-color:#BF9B01"/>
				<stop  offset="0.2766" style="stop-color:#DECB4B"/>
				<stop  offset="0.5271" style="stop-color:#FBF892"/>
				<stop  offset="0.5982" style="stop-color:#EBDF6B"/>
				<stop  offset="0.6823" style="stop-color:#DBC645"/>
				<stop  offset="0.7659" style="stop-color:#CFB327"/>
				<stop  offset="0.8476" style="stop-color:#C6A511"/>
				<stop  offset="0.9267" style="stop-color:#C19D04"/>
				<stop  offset="1" style="stop-color:#BF9A00"/>
			</linearGradient>
			<path class="st10" d="M170,540.4c0,1.7,0.4,3,1.2,4c0.8,1,1.8,1.5,2.9,1.5c0.8,0,1.4-0.2,2-0.6c0.6-0.4,1-1.1,1.4-2.1l0.4,0.3
				c-0.2,1.1-0.7,2.2-1.5,3.1c-0.8,1-1.9,1.4-3.2,1.4c-1.4,0-2.5-0.5-3.5-1.6c-1-1.1-1.5-2.5-1.5-4.3c0-2,0.5-3.5,1.5-4.6
				s2.2-1.7,3.8-1.7c1.3,0,2.4,0.4,3.2,1.3s1.2,2,1.2,3.4L170,540.4L170,540.4z M170,539.6h5.3c-0.1-0.7-0.1-1.3-0.3-1.5
				c-0.2-0.4-0.5-0.8-1-1.1c-0.4-0.3-0.8-0.4-1.3-0.4c-0.7,0-1.3,0.3-1.8,0.8S170,538.7,170,539.6z"/>
			
				<linearGradient id="SVGID_6_" gradientUnits="userSpaceOnUse" x1="186.1969" y1="71.7941" x2="193.9948" y2="71.7941" gradientTransform="matrix(1 0 0 -1 0 613.6001)">
				<stop  offset="0" style="stop-color:#BF9B01"/>
				<stop  offset="0.2766" style="stop-color:#DECB4B"/>
				<stop  offset="0.5271" style="stop-color:#FBF892"/>
				<stop  offset="0.5982" style="stop-color:#EBDF6B"/>
				<stop  offset="0.6823" style="stop-color:#DBC645"/>
				<stop  offset="0.7659" style="stop-color:#CFB327"/>
				<stop  offset="0.8476" style="stop-color:#C6A511"/>
				<stop  offset="0.9267" style="stop-color:#C19D04"/>
				<stop  offset="1" style="stop-color:#BF9A00"/>
			</linearGradient>
			<path class="st11" d="M193.2,535.7v3.9h-0.4c-0.3-1.2-0.7-2-1.2-2.5c-0.5-0.4-1.1-0.6-1.9-0.6c-0.6,0-1.1,0.1-1.4,0.4
				c-0.4,0.3-0.5,0.6-0.5,1c0,0.4,0.1,0.9,0.4,1.2c0.3,0.3,0.8,0.7,1.6,1.1l1.8,0.9c1.7,0.8,2.6,1.9,2.6,3.3c0,1-0.4,1.8-1.1,2.5
				s-1.7,1-2.6,1c-0.7,0-1.5-0.1-2.4-0.4c-0.3-0.1-0.5-0.1-0.7-0.1c-0.2,0-0.3,0.1-0.4,0.3h-0.4v-4.1h0.4c0.3,1.1,0.7,2,1.3,2.6
				c0.6,0.6,1.4,0.9,2.2,0.9c0.6,0,1-0.2,1.4-0.5c0.4-0.3,0.6-0.8,0.6-1.2c0-0.6-0.2-1.1-0.6-1.5c-0.4-0.4-1.2-0.9-2.4-1.5
				c-1.2-0.6-2-1.1-2.4-1.6c-0.4-0.4-0.6-1.1-0.6-1.8c0-1,0.3-1.7,1-2.4c0.6-0.6,1.5-1,2.5-1c0.4,0,1,0.1,1.7,0.3
				c0.4,0.1,0.7,0.2,0.8,0.2c0.1,0,0.3,0,0.3-0.1c0.1-0.1,0.2-0.2,0.3-0.4L193.2,535.7L193.2,535.7z"/>
			
				<linearGradient id="SVGID_7_" gradientUnits="userSpaceOnUse" x1="194.8056" y1="69.1804" x2="206.7961" y2="69.1804" gradientTransform="matrix(1 0 0 -1 0 613.6001)">
				<stop  offset="0" style="stop-color:#BF9B01"/>
				<stop  offset="0.2766" style="stop-color:#DECB4B"/>
				<stop  offset="0.5271" style="stop-color:#FBF892"/>
				<stop  offset="0.5982" style="stop-color:#EBDF6B"/>
				<stop  offset="0.6823" style="stop-color:#DBC645"/>
				<stop  offset="0.7659" style="stop-color:#CFB327"/>
				<stop  offset="0.8476" style="stop-color:#C6A511"/>
				<stop  offset="0.9267" style="stop-color:#C19D04"/>
				<stop  offset="1" style="stop-color:#BF9A00"/>
			</linearGradient>
			<path class="st12" d="M194.9,537.2l3.5-1.4h0.4v2.7c0.6-1,1.2-1.7,1.8-2.1c0.6-0.4,1.2-0.6,1.8-0.6c1.1,0,2.1,0.4,2.9,1.3
				c1,1.1,1.4,2.5,1.4,4.3c0,2-0.6,3.6-1.7,4.9c-1,1.1-2.1,1.6-3.5,1.6c-0.6,0-1.1-0.1-1.6-0.3c-0.3-0.1-0.7-0.4-1.1-0.8v3.5
				c0,0.8,0.1,1.3,0.1,1.5c0.1,0.2,0.3,0.4,0.5,0.5c0.3,0.1,0.6,0.2,1.3,0.2v0.4h-6v-0.4h0.3c0.4,0,0.8-0.1,1.1-0.3
				c0.1-0.1,0.3-0.3,0.4-0.4c0.1-0.2,0.1-0.7,0.1-1.5v-10.8c0-0.8-0.1-1.2-0.1-1.4c-0.1-0.2-0.2-0.3-0.3-0.4
				c-0.1-0.1-0.3-0.1-0.6-0.1c-0.2,0-0.4,0.1-0.8,0.2V537.2z M198.8,539.2v4.3c0,0.9,0.1,1.5,0.1,1.8c0.1,0.5,0.4,0.9,0.8,1.3
				c0.4,0.4,1,0.6,1.7,0.6c0.8,0,1.5-0.3,2-1c0.7-0.8,1-2,1-3.6c0-1.7-0.4-3.1-1.1-4c-0.5-0.6-1.1-1-1.9-1c-0.4,0-0.8,0.1-1.2,0.3
				C200,538,199.5,538.4,198.8,539.2z"/>
			
				<linearGradient id="SVGID_8_" gradientUnits="userSpaceOnUse" x1="208.5797" y1="71.8898" x2="218.9602" y2="71.8898" gradientTransform="matrix(1 0 0 -1 0 613.6001)">
				<stop  offset="0" style="stop-color:#BF9B01"/>
				<stop  offset="0.2766" style="stop-color:#DECB4B"/>
				<stop  offset="0.5271" style="stop-color:#FBF892"/>
				<stop  offset="0.5982" style="stop-color:#EBDF6B"/>
				<stop  offset="0.6823" style="stop-color:#DBC645"/>
				<stop  offset="0.7659" style="stop-color:#CFB327"/>
				<stop  offset="0.8476" style="stop-color:#C6A511"/>
				<stop  offset="0.9267" style="stop-color:#C19D04"/>
				<stop  offset="1" style="stop-color:#BF9A00"/>
			</linearGradient>
			<path class="st13" d="M215,545.8c-1.1,0.9-1.9,1.4-2.2,1.6c-0.4,0.2-1,0.3-1.5,0.3c-0.8,0-1.5-0.3-2-0.8
				c-0.5-0.5-0.8-1.3-0.8-2.1c0-0.6,0.1-1,0.4-1.5c0.3-0.6,1-1.1,1.8-1.6c0.8-0.5,2.2-1.1,4.2-1.8v-0.4c0-1.1-0.2-1.9-0.6-2.4
				c-0.4-0.4-0.9-0.6-1.6-0.6c-0.5,0-1,0.1-1.3,0.4c-0.3,0.3-0.4,0.6-0.4,1v0.7c0,0.4-0.1,0.7-0.3,0.9c-0.2,0.2-0.4,0.3-0.8,0.3
				c-0.3,0-0.6-0.1-0.8-0.3c-0.2-0.2-0.3-0.5-0.3-0.9c0-0.7,0.4-1.4,1.1-2c0.7-0.6,1.8-0.9,3.1-0.9c1,0,1.8,0.2,2.5,0.5
				c0.5,0.3,0.8,0.6,1.1,1.2c0.1,0.4,0.3,1.1,0.3,2.2v3.9c0,1.1,0,1.8,0.1,2c0.1,0.3,0.1,0.4,0.2,0.5c0.1,0.1,0.2,0.1,0.3,0.1
				c0.1,0,0.3,0,0.3-0.1c0.2-0.1,0.5-0.4,1-0.9v0.7c-1,1.3-1.8,1.8-2.7,1.8c-0.4,0-0.7-0.1-1-0.4C215.1,547,215,546.5,215,545.8z
				 M215,545.1v-4.3c-1.3,0.5-2,0.8-2.4,1.1c-0.6,0.4-1.1,0.8-1.4,1.1c-0.3,0.4-0.4,0.8-0.4,1.3c0,0.6,0.2,1.1,0.5,1.5
				c0.4,0.4,0.8,0.6,1.2,0.6C213,546.3,213.9,545.9,215,545.1z"/>
			
				<linearGradient id="SVGID_9_" gradientUnits="userSpaceOnUse" x1="219.8586" y1="74.8542" x2="231.8484" y2="74.8542" gradientTransform="matrix(1 0 0 -1 0 613.6001)">
				<stop  offset="0" style="stop-color:#BF9B01"/>
				<stop  offset="0.2766" style="stop-color:#DECB4B"/>
				<stop  offset="0.5271" style="stop-color:#FBF892"/>
				<stop  offset="0.5982" style="stop-color:#EBDF6B"/>
				<stop  offset="0.6823" style="stop-color:#DBC645"/>
				<stop  offset="0.7659" style="stop-color:#CFB327"/>
				<stop  offset="0.8476" style="stop-color:#C6A511"/>
				<stop  offset="0.9267" style="stop-color:#C19D04"/>
				<stop  offset="1" style="stop-color:#BF9A00"/>
			</linearGradient>
			<path class="st14" d="M227.9,546.2c-0.6,0.6-1.1,1-1.7,1.3c-0.5,0.3-1.1,0.4-1.7,0.4c-1.3,0-2.4-0.5-3.3-1.6c-1-1-1.4-2.4-1.4-4
				c0-1.7,0.5-3.1,1.5-4.5c1-1.3,2.4-2,4-2c1,0,1.8,0.3,2.5,1v-2.1c0-1.3,0-2.1-0.1-2.4c-0.1-0.3-0.2-0.5-0.3-0.6s-0.3-0.2-0.5-0.2
				s-0.5,0.1-0.9,0.2l-0.2-0.4l3.4-1.4h0.6v13.2c0,1.3,0,2.2,0.1,2.4c0.1,0.3,0.2,0.5,0.3,0.6c0.1,0.1,0.3,0.2,0.5,0.2
				c0.3,0,0.5-0.1,0.9-0.2l0.1,0.4l-3.4,1.4h-0.6v-1.5H227.9z M227.9,545.3v-5.9c-0.1-0.6-0.2-1.1-0.4-1.5c-0.3-0.4-0.6-0.8-1-1.1
				c-0.4-0.3-0.8-0.4-1.2-0.4c-0.7,0-1.4,0.3-2,1c-0.8,0.9-1.1,2.1-1.1,3.8c0,1.7,0.4,3,1.1,3.9c0.7,0.9,1.5,1.3,2.4,1.3
				C226.4,546.5,227.2,546.1,227.9,545.3z"/>
			
				<linearGradient id="SVGID_10_" gradientUnits="userSpaceOnUse" x1="232.7343" y1="71.7622" x2="242.4038" y2="71.7622" gradientTransform="matrix(1 0 0 -1 0 613.6001)">
				<stop  offset="0" style="stop-color:#BF9B01"/>
				<stop  offset="0.2766" style="stop-color:#DECB4B"/>
				<stop  offset="0.5271" style="stop-color:#FBF892"/>
				<stop  offset="0.5982" style="stop-color:#EBDF6B"/>
				<stop  offset="0.6823" style="stop-color:#DBC645"/>
				<stop  offset="0.7659" style="stop-color:#CFB327"/>
				<stop  offset="0.8476" style="stop-color:#C6A511"/>
				<stop  offset="0.9267" style="stop-color:#C19D04"/>
				<stop  offset="1" style="stop-color:#BF9A00"/>
			</linearGradient>
			<path class="st15" d="M234.5,540.4c0,1.7,0.4,3,1.2,4s1.8,1.5,2.9,1.5c0.8,0,1.4-0.2,2-0.6c0.6-0.4,1-1.1,1.4-2.1l0.4,0.3
				c-0.2,1.1-0.7,2.2-1.5,3.1s-1.9,1.4-3.2,1.4c-1.4,0-2.6-0.5-3.5-1.6c-1-1.1-1.5-2.5-1.5-4.3c0-2,0.5-3.5,1.5-4.6s2.2-1.7,3.8-1.7
				c1.3,0,2.4,0.4,3.2,1.3c0.8,0.8,1.2,2,1.2,3.4L234.5,540.4L234.5,540.4z M234.5,539.6h5.3c-0.1-0.7-0.1-1.3-0.3-1.5
				c-0.2-0.4-0.5-0.8-1-1.1c-0.4-0.3-0.8-0.4-1.3-0.4c-0.7,0-1.3,0.3-1.8,0.8C235,538,234.6,538.7,234.5,539.6z"/>
		</g>
	</g>
	<g class="st6">
		<g>
			
				<linearGradient id="SVGID_11_" gradientUnits="userSpaceOnUse" x1="161.9035" y1="51.7449" x2="169.0862" y2="51.7449" gradientTransform="matrix(1 0 0 -1 0 613.6001)">
				<stop  offset="0" style="stop-color:#BF9B01"/>
				<stop  offset="0.2766" style="stop-color:#DECB4B"/>
				<stop  offset="0.5271" style="stop-color:#FBF892"/>
				<stop  offset="0.5982" style="stop-color:#EBDF6B"/>
				<stop  offset="0.6823" style="stop-color:#DBC645"/>
				<stop  offset="0.7659" style="stop-color:#CFB327"/>
				<stop  offset="0.8476" style="stop-color:#C6A511"/>
				<stop  offset="0.9267" style="stop-color:#C19D04"/>
				<stop  offset="1" style="stop-color:#BF9A00"/>
			</linearGradient>
			<path class="st16" d="M161.9,558.5h1.8l4,5v-3.8c0-0.4-0.1-0.6-0.1-0.8c-0.1-0.1-0.3-0.2-0.6-0.2h-0.3v-0.2h2.3v0.2h-0.3
				c-0.3,0-0.4,0.1-0.6,0.3c-0.1,0.1-0.1,0.3-0.1,0.7v5.5h-0.2l-4.3-5.3v4.1c0,0.4,0.1,0.6,0.1,0.8c0.1,0.1,0.3,0.2,0.6,0.2h0.3v0.2
				h-2.3v-0.2h0.3c0.3,0,0.5-0.1,0.6-0.3c0.1-0.1,0.1-0.3,0.1-0.7v-4.6c-0.2-0.3-0.3-0.4-0.4-0.4c-0.1-0.1-0.3-0.1-0.4-0.2
				c-0.1,0-0.3-0.1-0.4-0.1L161.9,558.5L161.9,558.5z"/>
			
				<linearGradient id="SVGID_12_" gradientUnits="userSpaceOnUse" x1="169.4314" y1="51.8405" x2="175.0824" y2="51.8405" gradientTransform="matrix(1 0 0 -1 0 613.6001)">
				<stop  offset="0" style="stop-color:#BF9B01"/>
				<stop  offset="0.2766" style="stop-color:#DECB4B"/>
				<stop  offset="0.5271" style="stop-color:#FBF892"/>
				<stop  offset="0.5982" style="stop-color:#EBDF6B"/>
				<stop  offset="0.6823" style="stop-color:#DBC645"/>
				<stop  offset="0.7659" style="stop-color:#CFB327"/>
				<stop  offset="0.8476" style="stop-color:#C6A511"/>
				<stop  offset="0.9267" style="stop-color:#C19D04"/>
				<stop  offset="1" style="stop-color:#BF9A00"/>
			</linearGradient>
			<path class="st17" d="M171.3,558.9v2.6h1.5c0.4,0,0.6-0.1,0.8-0.2c0.2-0.1,0.3-0.4,0.3-0.8h0.2v2.3h-0.2
				c-0.1-0.3-0.1-0.5-0.1-0.6c-0.1-0.1-0.1-0.2-0.3-0.3c-0.1-0.1-0.3-0.1-0.6-0.1h-1.5v2.2c0,0.3,0,0.4,0.1,0.5
				c0,0.1,0.1,0.1,0.1,0.1c0.1,0.1,0.2,0.1,0.4,0.1h1.1c0.4,0,0.6,0,0.8-0.1c0.2-0.1,0.3-0.1,0.5-0.3s0.4-0.5,0.6-0.9h0.2l-0.6,1.7
				h-5.1v-0.2h0.3c0.1,0,0.3-0.1,0.4-0.1c0.1-0.1,0.2-0.1,0.2-0.3c0.1-0.1,0.1-0.3,0.1-0.6v-4.3c0-0.4-0.1-0.7-0.1-0.8
				c-0.1-0.1-0.3-0.2-0.6-0.2h-0.3v-0.2h5.1l0.1,1.5h-0.2c-0.1-0.3-0.1-0.6-0.3-0.7c-0.1-0.1-0.2-0.3-0.4-0.3
				c-0.1-0.1-0.4-0.1-0.7-0.1L171.3,558.9L171.3,558.9z"/>
			
				<linearGradient id="SVGID_13_" gradientUnits="userSpaceOnUse" x1="175.4423" y1="51.7449" x2="184.6333" y2="51.7449" gradientTransform="matrix(1 0 0 -1 0 613.6001)">
				<stop  offset="0" style="stop-color:#BF9B01"/>
				<stop  offset="0.2766" style="stop-color:#DECB4B"/>
				<stop  offset="0.5271" style="stop-color:#FBF892"/>
				<stop  offset="0.5982" style="stop-color:#EBDF6B"/>
				<stop  offset="0.6823" style="stop-color:#DBC645"/>
				<stop  offset="0.7659" style="stop-color:#CFB327"/>
				<stop  offset="0.8476" style="stop-color:#C6A511"/>
				<stop  offset="0.9267" style="stop-color:#C19D04"/>
				<stop  offset="1" style="stop-color:#BF9A00"/>
			</linearGradient>
			<path class="st18" d="M184.6,558.5v0.2c-0.2,0-0.3,0-0.4,0.1c-0.1,0.1-0.2,0.2-0.3,0.3c-0.1,0.1-0.2,0.4-0.3,0.8l-1.8,5.3h-0.2
				L180,561l-1.5,4.2h-0.2l-2-5.5c-0.1-0.4-0.3-0.6-0.3-0.7c-0.1-0.1-0.1-0.2-0.3-0.3c-0.1-0.1-0.3-0.1-0.4-0.1v-0.2h2.4v0.2h-0.1
				c-0.2,0-0.3,0.1-0.4,0.1c-0.1,0.1-0.1,0.2-0.1,0.3c0,0.1,0.1,0.4,0.2,0.8l1.3,3.7l1.1-3.1l-0.2-0.6l-0.1-0.4
				c-0.1-0.2-0.1-0.3-0.3-0.4c-0.1-0.1-0.1-0.1-0.1-0.1c-0.1-0.1-0.2-0.1-0.3-0.1s-0.1,0-0.3,0v-0.2h2.6v0.2h-0.2
				c-0.2,0-0.3,0.1-0.4,0.1s-0.1,0.2-0.1,0.3c0,0.2,0.1,0.4,0.2,0.9l1.3,3.6l1.3-3.6c0.1-0.4,0.2-0.7,0.2-0.8c0-0.1,0-0.1-0.1-0.2
				s-0.1-0.1-0.2-0.1c-0.1-0.1-0.3-0.1-0.5-0.1v-0.2L184.6,558.5L184.6,558.5z"/>
			
				<linearGradient id="SVGID_14_" gradientUnits="userSpaceOnUse" x1="186.7438" y1="51.7768" x2="193.6926" y2="51.7768" gradientTransform="matrix(1 0 0 -1 0 613.6001)">
				<stop  offset="0" style="stop-color:#BF9B01"/>
				<stop  offset="0.2766" style="stop-color:#DECB4B"/>
				<stop  offset="0.5271" style="stop-color:#FBF892"/>
				<stop  offset="0.5982" style="stop-color:#EBDF6B"/>
				<stop  offset="0.6823" style="stop-color:#DBC645"/>
				<stop  offset="0.7659" style="stop-color:#CFB327"/>
				<stop  offset="0.8476" style="stop-color:#C6A511"/>
				<stop  offset="0.9267" style="stop-color:#C19D04"/>
				<stop  offset="1" style="stop-color:#BF9A00"/>
			</linearGradient>
			<path class="st19" d="M191.4,558.5h2.3v0.2h-0.1c-0.1,0-0.2,0.1-0.4,0.1c-0.2,0.1-0.3,0.2-0.4,0.3c-0.1,0.1-0.3,0.4-0.5,0.7
				l-1.6,2.5v1.7c0,0.4,0.1,0.6,0.1,0.8c0.1,0.1,0.3,0.2,0.6,0.2h0.2v0.2h-2.8v-0.2h0.3c0.3,0,0.4-0.1,0.6-0.3
				c0.1-0.1,0.1-0.3,0.1-0.7v-1.5l-1.8-2.7c-0.2-0.3-0.4-0.5-0.4-0.6c-0.1-0.1-0.3-0.2-0.4-0.3c-0.1-0.1-0.1-0.1-0.3-0.1v-0.2h2.8
				v0.2h-0.1c-0.1,0-0.3,0.1-0.4,0.1c-0.1,0.1-0.2,0.2-0.2,0.3s0.1,0.3,0.3,0.6l1.4,2.1l1.3-2c0.2-0.3,0.3-0.5,0.3-0.7
				c0-0.1,0-0.2-0.1-0.3s-0.1-0.1-0.2-0.2c-0.1-0.1-0.2-0.1-0.4-0.1L191.4,558.5L191.4,558.5z"/>
			
				<linearGradient id="SVGID_15_" gradientUnits="userSpaceOnUse" x1="194.194" y1="51.7767" x2="200.6521" y2="51.7767" gradientTransform="matrix(1 0 0 -1 0 613.6001)">
				<stop  offset="0" style="stop-color:#BF9B01"/>
				<stop  offset="0.2766" style="stop-color:#DECB4B"/>
				<stop  offset="0.5271" style="stop-color:#FBF892"/>
				<stop  offset="0.5982" style="stop-color:#EBDF6B"/>
				<stop  offset="0.6823" style="stop-color:#DBC645"/>
				<stop  offset="0.7659" style="stop-color:#CFB327"/>
				<stop  offset="0.8476" style="stop-color:#C6A511"/>
				<stop  offset="0.9267" style="stop-color:#C19D04"/>
				<stop  offset="1" style="stop-color:#BF9A00"/>
			</linearGradient>
			<path class="st20" d="M197.5,558.4c0.8,0,1.6,0.3,2.2,1s1,1.5,1,2.4c0,1-0.3,1.8-1,2.5c-0.6,0.6-1.4,1-2.3,1
				c-0.9,0-1.7-0.3-2.3-1c-0.6-0.6-1-1.5-1-2.5c0-1,0.4-1.9,1.1-2.5C195.9,558.6,196.6,558.4,197.5,558.4z M197.4,558.7
				c-0.6,0-1.1,0.2-1.4,0.6c-0.4,0.6-0.6,1.3-0.6,2.4s0.3,1.9,0.7,2.5c0.4,0.4,0.8,0.6,1.4,0.6c0.6,0,1.1-0.3,1.5-0.7
				c0.4-0.5,0.6-1.3,0.6-2.3c0-1.1-0.2-2-0.6-2.5C198.5,559,198,558.7,197.4,558.7z"/>
			
				<linearGradient id="SVGID_16_" gradientUnits="userSpaceOnUse" x1="201.2061" y1="51.7448" x2="207.7723" y2="51.7448" gradientTransform="matrix(1 0 0 -1 0 613.6001)">
				<stop  offset="0" style="stop-color:#BF9B01"/>
				<stop  offset="0.2766" style="stop-color:#DECB4B"/>
				<stop  offset="0.5271" style="stop-color:#FBF892"/>
				<stop  offset="0.5982" style="stop-color:#EBDF6B"/>
				<stop  offset="0.6823" style="stop-color:#DBC645"/>
				<stop  offset="0.7659" style="stop-color:#CFB327"/>
				<stop  offset="0.8476" style="stop-color:#C6A511"/>
				<stop  offset="0.9267" style="stop-color:#C19D04"/>
				<stop  offset="1" style="stop-color:#BF9A00"/>
			</linearGradient>
			<path class="st21" d="M207.8,565.1H206l-2.2-3.1c-0.2,0-0.3,0-0.4,0s-0.1,0-0.1,0s-0.1,0-0.1,0v1.9c0,0.4,0.1,0.7,0.1,0.8
				c0.1,0.1,0.3,0.2,0.6,0.2h0.3v0.2h-2.8v-0.2h0.3c0.3,0,0.5-0.1,0.6-0.3c0.1-0.1,0.1-0.3,0.1-0.7v-4.3c0-0.4-0.1-0.7-0.1-0.8
				c-0.1-0.1-0.3-0.2-0.6-0.2h-0.3v-0.2h2.4c0.7,0,1.2,0.1,1.5,0.1c0.3,0.1,0.6,0.3,0.8,0.6c0.3,0.3,0.3,0.6,0.3,1
				c0,0.4-0.1,0.8-0.4,1.1s-0.7,0.5-1.2,0.6l1.3,1.9c0.3,0.4,0.6,0.7,0.8,0.9c0.3,0.1,0.5,0.3,0.9,0.3L207.8,565.1L207.8,565.1z
				 M203.1,561.7c0.1,0,0.1,0,0.2,0c0.1,0,0.1,0,0.1,0c0.6,0,1.1-0.1,1.4-0.4c0.3-0.3,0.5-0.6,0.5-1s-0.1-0.8-0.4-1
				c-0.3-0.3-0.6-0.4-1-0.4c-0.2,0-0.4,0-0.8,0.1L203.1,561.7L203.1,561.7z"/>
			
				<linearGradient id="SVGID_17_" gradientUnits="userSpaceOnUse" x1="207.8445" y1="51.713" x2="214.9541" y2="51.713" gradientTransform="matrix(1 0 0 -1 0 613.6001)">
				<stop  offset="0" style="stop-color:#BF9B01"/>
				<stop  offset="0.2766" style="stop-color:#DECB4B"/>
				<stop  offset="0.5271" style="stop-color:#FBF892"/>
				<stop  offset="0.5982" style="stop-color:#EBDF6B"/>
				<stop  offset="0.6823" style="stop-color:#DBC645"/>
				<stop  offset="0.7659" style="stop-color:#CFB327"/>
				<stop  offset="0.8476" style="stop-color:#C6A511"/>
				<stop  offset="0.9267" style="stop-color:#C19D04"/>
				<stop  offset="1" style="stop-color:#BF9A00"/>
			</linearGradient>
			<path class="st22" d="M210.6,561.4l2.4,2.4c0.4,0.4,0.8,0.7,1,0.8c0.3,0.1,0.6,0.3,0.8,0.3v0.2h-3.1v-0.2c0.2,0,0.3,0,0.4-0.1
				c0.1-0.1,0.1-0.1,0.1-0.2s0-0.1-0.1-0.2c0-0.1-0.1-0.2-0.3-0.3l-2.3-2.2v2.1c0,0.3,0,0.6,0.1,0.6c0.1,0.1,0.1,0.1,0.2,0.2
				c0.1,0.1,0.3,0.1,0.4,0.1h0.3v0.2h-2.8V565h0.3c0.3,0,0.4-0.1,0.6-0.3c0.1-0.1,0.1-0.4,0.1-0.8v-4.3c0-0.3,0-0.6-0.1-0.6
				c-0.1-0.1-0.1-0.1-0.2-0.2c-0.1-0.1-0.3-0.1-0.4-0.1h-0.3v-0.2h2.8v0.2h-0.1c-0.1,0-0.3,0.1-0.4,0.1s-0.2,0.1-0.2,0.3
				c-0.1,0.1-0.1,0.3-0.1,0.6v2c0.1-0.1,0.3-0.3,0.6-0.6c1-0.9,1.5-1.5,1.7-1.8c0.1-0.1,0.1-0.3,0.1-0.3s-0.1-0.1-0.1-0.2
				s-0.2-0.1-0.3-0.1h-0.1v-0.2h2.4v0.2c-0.1,0-0.3,0-0.4,0.1s-0.3,0.1-0.4,0.2c-0.2,0.1-0.4,0.3-0.6,0.5c-0.1,0.1-0.4,0.4-1,1
				L210.6,561.4z"/>
		</g>
	</g>
	
		<linearGradient id="SVGID_18_" gradientUnits="userSpaceOnUse" x1="187.596" y1="97.9209" x2="198.8683" y2="87.7713" gradientTransform="matrix(1 0 0 -1 0 613.6001)">
		<stop  offset="0" style="stop-color:#BF9B01"/>
		<stop  offset="0.2766" style="stop-color:#DECB4B"/>
		<stop  offset="0.5271" style="stop-color:#FBF892"/>
		<stop  offset="0.5982" style="stop-color:#EBDF6B"/>
		<stop  offset="0.6823" style="stop-color:#DBC645"/>
		<stop  offset="0.7659" style="stop-color:#CFB327"/>
		<stop  offset="0.8476" style="stop-color:#C6A511"/>
		<stop  offset="0.9267" style="stop-color:#C19D04"/>
		<stop  offset="1" style="stop-color:#BF9A00"/>
	</linearGradient>
	<path class="st23" d="M197.4,527.5h-7.8c0,0,2.3-2,2.3-4.8c0,0-6.3,1.3-6.6-2.7c-0.1-1.4,0.6-2.8,1.8-3.6c1.7-1.2,4.6-3.3,6.2-4.8
		l0,0c1.6,1.5,4.5,3.7,6.2,4.8c1.1,0.8,1.9,2.2,1.8,3.6c-0.3,4-6.6,2.7-6.6,2.7c0,2.8,2.3,4.8,2.3,4.8h-7.7"/>
	<g>
		<g>
			
				<linearGradient id="SVGID_19_" gradientUnits="userSpaceOnUse" x1="137.5064" y1="74.9179" x2="150.2199" y2="74.9179" gradientTransform="matrix(1 0 0 -1 0 613.6001)">
				<stop  offset="0" style="stop-color:#BF9B01"/>
				<stop  offset="0.2766" style="stop-color:#DECB4B"/>
				<stop  offset="0.5271" style="stop-color:#FBF892"/>
				<stop  offset="0.5982" style="stop-color:#EBDF6B"/>
				<stop  offset="0.6823" style="stop-color:#DBC645"/>
				<stop  offset="0.7659" style="stop-color:#CFB327"/>
				<stop  offset="0.8476" style="stop-color:#C6A511"/>
				<stop  offset="0.9267" style="stop-color:#C19D04"/>
				<stop  offset="1" style="stop-color:#BF9A00"/>
			</linearGradient>
			<path class="st24" d="M141.5,529.8v11.3l2.9-2.6c0.6-0.6,1-0.9,1.1-1.1c0.1-0.1,0.1-0.2,0.1-0.3c0-0.2-0.1-0.3-0.2-0.4
				c-0.1-0.1-0.4-0.2-0.7-0.2v-0.4h5v0.4c-0.7,0-1.3,0.1-1.7,0.3s-1,0.5-1.5,1l-2.9,2.7l2.9,3.7c0.8,1,1.3,1.7,1.7,2
				c0.4,0.4,0.8,0.6,1,0.8c0.2,0.1,0.6,0.1,1.1,0.1v0.4h-5.5V547c0.3,0,0.5-0.1,0.6-0.1c0.1-0.1,0.2-0.2,0.2-0.4
				c0-0.2-0.2-0.5-0.5-0.9l-3.5-4.5v3.8c0,0.8,0.1,1.2,0.1,1.5c0.1,0.3,0.3,0.4,0.4,0.5c0.2,0.1,0.6,0.1,1.3,0.2v0.4h-5.8v-0.4
				c0.6,0,1-0.1,1.3-0.2c0.2-0.1,0.3-0.3,0.4-0.4c0.1-0.3,0.2-0.8,0.2-1.4v-10.4c0-1.3,0-2.1-0.1-2.4c-0.1-0.3-0.1-0.5-0.3-0.6
				s-0.3-0.2-0.5-0.2s-0.4,0.1-0.8,0.2l-0.2-0.4l3.4-1.4L141.5,529.8L141.5,529.8z"/>
			
				<linearGradient id="SVGID_20_" gradientUnits="userSpaceOnUse" x1="150.981" y1="71.8898" x2="161.3615" y2="71.8898" gradientTransform="matrix(1 0 0 -1 0 613.6001)">
				<stop  offset="0" style="stop-color:#BF9B01"/>
				<stop  offset="0.2766" style="stop-color:#DECB4B"/>
				<stop  offset="0.5271" style="stop-color:#FBF892"/>
				<stop  offset="0.5982" style="stop-color:#EBDF6B"/>
				<stop  offset="0.6823" style="stop-color:#DBC645"/>
				<stop  offset="0.7659" style="stop-color:#CFB327"/>
				<stop  offset="0.8476" style="stop-color:#C6A511"/>
				<stop  offset="0.9267" style="stop-color:#C19D04"/>
				<stop  offset="1" style="stop-color:#BF9A00"/>
			</linearGradient>
			<path class="st25" d="M157.3,545.8c-1.1,0.9-1.9,1.4-2.2,1.6c-0.4,0.2-1,0.3-1.5,0.3c-0.8,0-1.5-0.3-2-0.8
				c-0.5-0.5-0.8-1.3-0.8-2.1c0-0.6,0.1-1,0.4-1.5c0.3-0.6,1-1.1,1.8-1.6c0.8-0.5,2.2-1.1,4.2-1.8v-0.4c0-1.1-0.2-1.9-0.6-2.4
				c-0.4-0.4-0.9-0.6-1.6-0.6c-0.5,0-1,0.1-1.3,0.4c-0.3,0.3-0.4,0.6-0.4,1v0.7c0,0.4-0.1,0.7-0.3,0.9c-0.2,0.2-0.4,0.3-0.8,0.3
				c-0.3,0-0.6-0.1-0.8-0.3c-0.2-0.2-0.3-0.5-0.3-0.9c0-0.7,0.4-1.4,1.1-2c0.7-0.6,1.8-0.9,3.1-0.9c1,0,1.8,0.2,2.5,0.5
				c0.5,0.3,0.8,0.6,1.1,1.2c0.1,0.4,0.3,1.1,0.3,2.2v3.9c0,1.1,0,1.8,0.1,2c0.1,0.2,0.1,0.4,0.2,0.5c0.1,0.1,0.2,0.1,0.3,0.1
				s0.3,0,0.3-0.1c0.2-0.1,0.5-0.4,1-0.9v0.7c-1,1.3-1.8,1.8-2.7,1.8c-0.4,0-0.7-0.1-1-0.4C157.2,546.9,157.3,546.5,157.3,545.8z
				 M157.3,545.1v-4.3c-1.3,0.5-2,0.8-2.4,1.1c-0.6,0.4-1.1,0.8-1.4,1.1c-0.3,0.4-0.4,0.8-0.4,1.3c0,0.6,0.2,1.1,0.5,1.5
				c0.4,0.4,0.8,0.6,1.2,0.6C155.5,546.3,156.3,545.9,157.3,545.1z"/>
			
				<linearGradient id="SVGID_21_" gradientUnits="userSpaceOnUse" x1="161.6609" y1="73.6111" x2="168.5459" y2="73.6111" gradientTransform="matrix(1 0 0 -1 0 613.6001)">
				<stop  offset="0" style="stop-color:#BF9B01"/>
				<stop  offset="0.2766" style="stop-color:#DECB4B"/>
				<stop  offset="0.5271" style="stop-color:#FBF892"/>
				<stop  offset="0.5982" style="stop-color:#EBDF6B"/>
				<stop  offset="0.6823" style="stop-color:#DBC645"/>
				<stop  offset="0.7659" style="stop-color:#CFB327"/>
				<stop  offset="0.8476" style="stop-color:#C6A511"/>
				<stop  offset="0.9267" style="stop-color:#C19D04"/>
				<stop  offset="1" style="stop-color:#BF9A00"/>
			</linearGradient>
			<path class="st26" d="M165.6,532.3v3.8h2.7v0.9h-2.7v7.4c0,0.8,0.1,1.2,0.3,1.5c0.2,0.3,0.5,0.4,0.8,0.4c0.3,0,0.5-0.1,0.8-0.3
				c0.3-0.2,0.4-0.4,0.6-0.8h0.5c-0.3,0.8-0.7,1.4-1.2,1.8c-0.5,0.4-1.1,0.6-1.7,0.6c-0.4,0-0.8-0.1-1.1-0.3
				c-0.4-0.2-0.6-0.5-0.8-0.9s-0.3-1-0.3-1.8v-7.7h-1.8v-0.4c0.4-0.2,1-0.5,1.4-1c0.5-0.4,0.9-1,1.3-1.5c0.2-0.3,0.4-0.9,0.8-1.7
				H165.6L165.6,532.3z"/>
			
				<linearGradient id="SVGID_22_" gradientUnits="userSpaceOnUse" x1="169.4588" y1="71.7622" x2="179.1281" y2="71.7622" gradientTransform="matrix(1 0 0 -1 0 613.6001)">
				<stop  offset="0" style="stop-color:#BF9B01"/>
				<stop  offset="0.2766" style="stop-color:#DECB4B"/>
				<stop  offset="0.5271" style="stop-color:#FBF892"/>
				<stop  offset="0.5982" style="stop-color:#EBDF6B"/>
				<stop  offset="0.6823" style="stop-color:#DBC645"/>
				<stop  offset="0.7659" style="stop-color:#CFB327"/>
				<stop  offset="0.8476" style="stop-color:#C6A511"/>
				<stop  offset="0.9267" style="stop-color:#C19D04"/>
				<stop  offset="1" style="stop-color:#BF9A00"/>
			</linearGradient>
			<path class="st27" d="M171.2,540.4c0,1.7,0.4,3,1.2,4c0.8,1,1.8,1.5,2.9,1.5c0.8,0,1.4-0.2,2-0.6c0.6-0.4,1-1.1,1.4-2.1l0.4,0.3
				c-0.2,1.1-0.7,2.2-1.5,3.1c-0.8,1-1.9,1.4-3.2,1.4c-1.4,0-2.5-0.5-3.5-1.6c-1-1.1-1.5-2.5-1.5-4.3c0-2,0.5-3.5,1.5-4.6
				c1-1.1,2.2-1.7,3.8-1.7c1.3,0,2.4,0.4,3.2,1.3s1.2,2,1.2,3.4L171.2,540.4L171.2,540.4z M171.2,539.6h5.3
				c-0.1-0.7-0.1-1.3-0.3-1.5c-0.2-0.4-0.5-0.8-1-1.1c-0.4-0.3-0.8-0.4-1.3-0.4c-0.7,0-1.3,0.3-1.8,0.8S171.3,538.7,171.2,539.6z"/>
			
				<linearGradient id="SVGID_23_" gradientUnits="userSpaceOnUse" x1="187.4871" y1="71.7941" x2="195.2849" y2="71.7941" gradientTransform="matrix(1 0 0 -1 0 613.6001)">
				<stop  offset="0" style="stop-color:#BF9B01"/>
				<stop  offset="0.2766" style="stop-color:#DECB4B"/>
				<stop  offset="0.5271" style="stop-color:#FBF892"/>
				<stop  offset="0.5982" style="stop-color:#EBDF6B"/>
				<stop  offset="0.6823" style="stop-color:#DBC645"/>
				<stop  offset="0.7659" style="stop-color:#CFB327"/>
				<stop  offset="0.8476" style="stop-color:#C6A511"/>
				<stop  offset="0.9267" style="stop-color:#C19D04"/>
				<stop  offset="1" style="stop-color:#BF9A00"/>
			</linearGradient>
			<path class="st28" d="M194.4,535.7v3.9h-0.4c-0.3-1.2-0.7-2-1.2-2.5c-0.5-0.4-1.1-0.6-1.9-0.6c-0.6,0-1.1,0.1-1.4,0.4
				c-0.4,0.3-0.5,0.6-0.5,1c0,0.4,0.1,0.9,0.4,1.2c0.3,0.3,0.8,0.7,1.6,1.1l1.8,0.9c1.7,0.8,2.5,1.9,2.5,3.3c0,1-0.4,1.8-1.1,2.5
				s-1.7,1-2.6,1c-0.7,0-1.5-0.1-2.4-0.4c-0.3-0.1-0.5-0.1-0.7-0.1c-0.2,0-0.3,0.1-0.4,0.3h-0.4v-4.1h0.4c0.3,1.1,0.7,2,1.3,2.6
				c0.6,0.6,1.4,0.9,2.2,0.9c0.6,0,1-0.2,1.4-0.5c0.4-0.3,0.6-0.8,0.6-1.2c0-0.6-0.2-1.1-0.6-1.5c-0.4-0.4-1.2-0.9-2.4-1.5
				c-1.2-0.6-2-1.1-2.4-1.6c-0.4-0.4-0.6-1.1-0.6-1.8c0-1,0.3-1.7,1-2.4c0.6-0.6,1.5-1,2.5-1c0.4,0,1,0.1,1.7,0.3
				c0.4,0.1,0.7,0.2,0.8,0.2c0.1,0,0.3,0,0.3-0.1c0.1-0.1,0.2-0.2,0.3-0.4L194.4,535.7L194.4,535.7z"/>
			
				<linearGradient id="SVGID_24_" gradientUnits="userSpaceOnUse" x1="196.0958" y1="69.1804" x2="208.0863" y2="69.1804" gradientTransform="matrix(1 0 0 -1 0 613.6001)">
				<stop  offset="0" style="stop-color:#BF9B01"/>
				<stop  offset="0.2766" style="stop-color:#DECB4B"/>
				<stop  offset="0.5271" style="stop-color:#FBF892"/>
				<stop  offset="0.5982" style="stop-color:#EBDF6B"/>
				<stop  offset="0.6823" style="stop-color:#DBC645"/>
				<stop  offset="0.7659" style="stop-color:#CFB327"/>
				<stop  offset="0.8476" style="stop-color:#C6A511"/>
				<stop  offset="0.9267" style="stop-color:#C19D04"/>
				<stop  offset="1" style="stop-color:#BF9A00"/>
			</linearGradient>
			<path class="st29" d="M196.2,537.2l3.5-1.4h0.4v2.7c0.6-1,1.2-1.7,1.8-2.1c0.6-0.4,1.2-0.6,1.8-0.6c1.1,0,2.1,0.4,2.9,1.3
				c1,1.1,1.4,2.5,1.4,4.3c0,2-0.6,3.6-1.7,4.9c-1,1.1-2.1,1.6-3.5,1.6c-0.6,0-1.1-0.1-1.6-0.3c-0.3-0.1-0.7-0.4-1.1-0.8v3.5
				c0,0.8,0.1,1.3,0.1,1.5c0.1,0.2,0.3,0.4,0.5,0.5c0.3,0.1,0.6,0.2,1.3,0.2v0.4h-6v-0.4h0.3c0.4,0,0.8-0.1,1.1-0.3
				c0.1-0.1,0.3-0.3,0.4-0.4c0.1-0.2,0.1-0.7,0.1-1.5v-10.8c0-0.8-0.1-1.2-0.1-1.4c-0.1-0.2-0.2-0.3-0.3-0.4
				c-0.1-0.1-0.3-0.1-0.6-0.1c-0.2,0-0.4,0.1-0.8,0.2V537.2z M200.2,539.2v4.3c0,0.9,0.1,1.5,0.1,1.8c0.1,0.5,0.4,0.9,0.8,1.3
				c0.4,0.4,1,0.6,1.7,0.6c0.8,0,1.5-0.3,2-1c0.7-0.8,1-2,1-3.6c0-1.7-0.4-3.1-1.1-4c-0.5-0.6-1.1-1-1.9-1c-0.4,0-0.8,0.1-1.2,0.3
				C201.3,538,200.8,538.4,200.2,539.2z"/>
			
				<linearGradient id="SVGID_25_" gradientUnits="userSpaceOnUse" x1="209.8699" y1="71.8898" x2="220.2504" y2="71.8898" gradientTransform="matrix(1 0 0 -1 0 613.6001)">
				<stop  offset="0" style="stop-color:#BF9B01"/>
				<stop  offset="0.2766" style="stop-color:#DECB4B"/>
				<stop  offset="0.5271" style="stop-color:#FBF892"/>
				<stop  offset="0.5982" style="stop-color:#EBDF6B"/>
				<stop  offset="0.6823" style="stop-color:#DBC645"/>
				<stop  offset="0.7659" style="stop-color:#CFB327"/>
				<stop  offset="0.8476" style="stop-color:#C6A511"/>
				<stop  offset="0.9267" style="stop-color:#C19D04"/>
				<stop  offset="1" style="stop-color:#BF9A00"/>
			</linearGradient>
			<path class="st30" d="M216.2,545.8c-1.1,0.9-1.9,1.4-2.2,1.6c-0.4,0.2-1,0.3-1.5,0.3c-0.8,0-1.5-0.3-2-0.8
				c-0.5-0.5-0.8-1.3-0.8-2.1c0-0.6,0.1-1,0.4-1.5c0.3-0.6,1-1.1,1.8-1.6c0.8-0.5,2.2-1.1,4.2-1.8v-0.4c0-1.1-0.2-1.9-0.6-2.4
				c-0.4-0.4-0.9-0.6-1.6-0.6c-0.5,0-1,0.1-1.3,0.4c-0.3,0.3-0.4,0.6-0.4,1v0.7c0,0.4-0.1,0.7-0.3,0.9c-0.2,0.2-0.4,0.3-0.8,0.3
				c-0.3,0-0.6-0.1-0.8-0.3c-0.2-0.2-0.3-0.5-0.3-0.9c0-0.7,0.4-1.4,1.1-2c0.7-0.6,1.8-0.9,3.1-0.9c1,0,1.8,0.2,2.5,0.5
				c0.5,0.3,0.8,0.6,1.1,1.2c0.1,0.4,0.3,1.1,0.3,2.2v3.9c0,1.1,0,1.8,0.1,2c0.1,0.3,0.1,0.4,0.2,0.5c0.1,0.1,0.2,0.1,0.3,0.1
				c0.1,0,0.3,0,0.3-0.1c0.2-0.1,0.5-0.4,1-0.9v0.7c-1,1.3-1.8,1.8-2.7,1.8c-0.4,0-0.7-0.1-1-0.4C216.4,547,216.2,546.5,216.2,545.8
				z M216.2,545.1v-4.3c-1.3,0.5-2,0.8-2.4,1.1c-0.6,0.4-1.1,0.8-1.4,1.1c-0.3,0.4-0.4,0.8-0.4,1.3c0,0.6,0.2,1.1,0.5,1.5
				c0.4,0.4,0.8,0.6,1.2,0.6C214.4,546.3,215.2,545.9,216.2,545.1z"/>
			
				<linearGradient id="SVGID_26_" gradientUnits="userSpaceOnUse" x1="221.1461" y1="74.8542" x2="233.136" y2="74.8542" gradientTransform="matrix(1 0 0 -1 0 613.6001)">
				<stop  offset="0" style="stop-color:#BF9B01"/>
				<stop  offset="0.2766" style="stop-color:#DECB4B"/>
				<stop  offset="0.5271" style="stop-color:#FBF892"/>
				<stop  offset="0.5982" style="stop-color:#EBDF6B"/>
				<stop  offset="0.6823" style="stop-color:#DBC645"/>
				<stop  offset="0.7659" style="stop-color:#CFB327"/>
				<stop  offset="0.8476" style="stop-color:#C6A511"/>
				<stop  offset="0.9267" style="stop-color:#C19D04"/>
				<stop  offset="1" style="stop-color:#BF9A00"/>
			</linearGradient>
			<path class="st31" d="M229.2,546.2c-0.6,0.6-1.1,1-1.7,1.3c-0.5,0.3-1.1,0.4-1.7,0.4c-1.3,0-2.4-0.5-3.3-1.6c-1-1-1.4-2.4-1.4-4
				c0-1.7,0.5-3.1,1.5-4.5c1-1.3,2.4-2,4-2c1,0,1.8,0.3,2.5,1v-2.1c0-1.3,0-2.1-0.1-2.4c-0.1-0.3-0.2-0.5-0.3-0.6s-0.3-0.2-0.5-0.2
				c-0.2,0-0.5,0.1-0.9,0.2l-0.2-0.4l3.4-1.4h0.6v13.2c0,1.3,0,2.2,0.1,2.4c0.1,0.3,0.2,0.5,0.3,0.6c0.1,0.1,0.3,0.2,0.5,0.2
				c0.3,0,0.5-0.1,0.9-0.2l0.1,0.4l-3.4,1.4h-0.6v-1.5H229.2z M229.2,545.3v-5.9c-0.1-0.6-0.2-1.1-0.4-1.5c-0.3-0.4-0.6-0.8-1-1.1
				c-0.4-0.3-0.8-0.4-1.2-0.4c-0.7,0-1.4,0.3-2,1c-0.8,0.9-1.1,2.1-1.1,3.8c0,1.7,0.4,3,1.1,3.9c0.7,0.9,1.5,1.3,2.4,1.3
				C227.7,546.5,228.5,546.1,229.2,545.3z"/>
			
				<linearGradient id="SVGID_27_" gradientUnits="userSpaceOnUse" x1="234.0237" y1="71.7622" x2="243.6932" y2="71.7622" gradientTransform="matrix(1 0 0 -1 0 613.6001)">
				<stop  offset="0" style="stop-color:#BF9B01"/>
				<stop  offset="0.2766" style="stop-color:#DECB4B"/>
				<stop  offset="0.5271" style="stop-color:#FBF892"/>
				<stop  offset="0.5982" style="stop-color:#EBDF6B"/>
				<stop  offset="0.6823" style="stop-color:#DBC645"/>
				<stop  offset="0.7659" style="stop-color:#CFB327"/>
				<stop  offset="0.8476" style="stop-color:#C6A511"/>
				<stop  offset="0.9267" style="stop-color:#C19D04"/>
				<stop  offset="1" style="stop-color:#BF9A00"/>
			</linearGradient>
			<path class="st32" d="M235.8,540.4c0,1.7,0.4,3,1.2,4s1.8,1.5,2.9,1.5c0.8,0,1.4-0.2,2-0.6c0.6-0.4,1-1.1,1.4-2.1l0.4,0.3
				c-0.2,1.1-0.7,2.2-1.5,3.1s-1.9,1.4-3.2,1.4c-1.4,0-2.5-0.5-3.5-1.6s-1.5-2.5-1.5-4.3c0-2,0.5-3.5,1.5-4.6s2.2-1.7,3.8-1.7
				c1.3,0,2.4,0.4,3.2,1.3c0.8,0.8,1.2,2,1.2,3.4L235.8,540.4L235.8,540.4z M235.8,539.6h5.3c-0.1-0.7-0.1-1.3-0.3-1.5
				c-0.2-0.4-0.5-0.8-1-1.1c-0.4-0.3-0.8-0.4-1.3-0.4c-0.7,0-1.3,0.3-1.8,0.8S235.9,538.7,235.8,539.6z"/>
		</g>
	</g>
	<g>
		<g>
			
				<linearGradient id="SVGID_28_" gradientUnits="userSpaceOnUse" x1="163.1936" y1="51.7449" x2="170.3764" y2="51.7449" gradientTransform="matrix(1 0 0 -1 0 613.6001)">
				<stop  offset="0" style="stop-color:#BF9B01"/>
				<stop  offset="0.2766" style="stop-color:#DECB4B"/>
				<stop  offset="0.5271" style="stop-color:#FBF892"/>
				<stop  offset="0.5982" style="stop-color:#EBDF6B"/>
				<stop  offset="0.6823" style="stop-color:#DBC645"/>
				<stop  offset="0.7659" style="stop-color:#CFB327"/>
				<stop  offset="0.8476" style="stop-color:#C6A511"/>
				<stop  offset="0.9267" style="stop-color:#C19D04"/>
				<stop  offset="1" style="stop-color:#BF9A00"/>
			</linearGradient>
			<path class="st33" d="M163.2,558.5h1.8l4,5v-3.8c0-0.4-0.1-0.6-0.1-0.8c-0.1-0.1-0.3-0.2-0.6-0.2H168v-0.2h2.3v0.2h-0.3
				c-0.3,0-0.4,0.1-0.6,0.3c-0.1,0.1-0.1,0.3-0.1,0.7v5.5h-0.2l-4.3-5.3v4.1c0,0.4,0.1,0.6,0.1,0.8c0.1,0.1,0.3,0.2,0.6,0.2h0.3v0.2
				h-2.3v-0.2h0.3c0.3,0,0.5-0.1,0.6-0.3c0.1-0.1,0.1-0.3,0.1-0.7v-4.6c-0.2-0.3-0.3-0.4-0.4-0.4c-0.1-0.1-0.3-0.1-0.4-0.2
				c-0.1,0-0.3-0.1-0.4-0.1L163.2,558.5L163.2,558.5z"/>
			
				<linearGradient id="SVGID_29_" gradientUnits="userSpaceOnUse" x1="170.7216" y1="51.8405" x2="176.3726" y2="51.8405" gradientTransform="matrix(1 0 0 -1 0 613.6001)">
				<stop  offset="0" style="stop-color:#BF9B01"/>
				<stop  offset="0.2766" style="stop-color:#DECB4B"/>
				<stop  offset="0.5271" style="stop-color:#FBF892"/>
				<stop  offset="0.5982" style="stop-color:#EBDF6B"/>
				<stop  offset="0.6823" style="stop-color:#DBC645"/>
				<stop  offset="0.7659" style="stop-color:#CFB327"/>
				<stop  offset="0.8476" style="stop-color:#C6A511"/>
				<stop  offset="0.9267" style="stop-color:#C19D04"/>
				<stop  offset="1" style="stop-color:#BF9A00"/>
			</linearGradient>
			<path class="st34" d="M172.6,558.9v2.6h1.5c0.4,0,0.6-0.1,0.8-0.2c0.2-0.1,0.3-0.4,0.3-0.8h0.2v2.3h-0.2
				c-0.1-0.3-0.1-0.5-0.1-0.6c-0.1-0.1-0.1-0.2-0.3-0.3c-0.1-0.1-0.3-0.1-0.6-0.1h-1.5v2.2c0,0.3,0,0.4,0.1,0.5
				c0,0.1,0.1,0.1,0.1,0.1c0.1,0.1,0.2,0.1,0.4,0.1h1.1c0.4,0,0.6,0,0.8-0.1c0.2-0.1,0.3-0.1,0.5-0.3s0.4-0.5,0.6-0.9h0.2l-0.6,1.7
				h-5.1v-0.2h0.3c0.1,0,0.3-0.1,0.4-0.1c0.1-0.1,0.2-0.1,0.2-0.3c0.1-0.1,0.1-0.3,0.1-0.6v-4.3c0-0.4-0.1-0.7-0.1-0.8
				c-0.1-0.1-0.3-0.2-0.6-0.2h-0.3v-0.2h5.1l0.1,1.5h-0.2c-0.1-0.3-0.1-0.6-0.3-0.7c-0.1-0.1-0.2-0.3-0.4-0.3
				c-0.1-0.1-0.4-0.1-0.7-0.1L172.6,558.9L172.6,558.9z"/>
			
				<linearGradient id="SVGID_30_" gradientUnits="userSpaceOnUse" x1="176.7325" y1="51.7449" x2="185.9235" y2="51.7449" gradientTransform="matrix(1 0 0 -1 0 613.6001)">
				<stop  offset="0" style="stop-color:#BF9B01"/>
				<stop  offset="0.2766" style="stop-color:#DECB4B"/>
				<stop  offset="0.5271" style="stop-color:#FBF892"/>
				<stop  offset="0.5982" style="stop-color:#EBDF6B"/>
				<stop  offset="0.6823" style="stop-color:#DBC645"/>
				<stop  offset="0.7659" style="stop-color:#CFB327"/>
				<stop  offset="0.8476" style="stop-color:#C6A511"/>
				<stop  offset="0.9267" style="stop-color:#C19D04"/>
				<stop  offset="1" style="stop-color:#BF9A00"/>
			</linearGradient>
			<path class="st35" d="M185.9,558.5v0.2c-0.2,0-0.3,0-0.4,0.1c-0.1,0.1-0.2,0.2-0.3,0.3c-0.1,0.1-0.2,0.4-0.3,0.8l-1.8,5.3h-0.2
				l-1.5-4.2l-1.5,4.2h-0.2l-2-5.5c-0.1-0.4-0.3-0.6-0.3-0.7c-0.1-0.1-0.1-0.2-0.3-0.3c-0.1-0.1-0.3-0.1-0.4-0.1v-0.2h2.4v0.2h-0.1
				c-0.2,0-0.3,0.1-0.4,0.1c-0.1,0.1-0.1,0.2-0.1,0.3c0,0.1,0.1,0.4,0.2,0.8l1.3,3.7l1.1-3.1l-0.2-0.6l-0.1-0.4
				c-0.1-0.2-0.1-0.3-0.3-0.4c-0.1-0.1-0.1-0.1-0.1-0.1c-0.1-0.1-0.2-0.1-0.3-0.1s-0.1,0-0.3,0v-0.2h2.5v0.2h-0.2
				c-0.2,0-0.3,0.1-0.4,0.1s-0.1,0.2-0.1,0.3c0,0.2,0.1,0.4,0.2,0.9l1.3,3.6l1.3-3.6c0.1-0.4,0.2-0.7,0.2-0.8c0-0.1,0-0.1-0.1-0.2
				s-0.1-0.1-0.2-0.1c-0.1-0.1-0.3-0.1-0.5-0.1v-0.2L185.9,558.5L185.9,558.5z"/>
			
				<linearGradient id="SVGID_31_" gradientUnits="userSpaceOnUse" x1="188.034" y1="51.7768" x2="194.9828" y2="51.7768" gradientTransform="matrix(1 0 0 -1 0 613.6001)">
				<stop  offset="0" style="stop-color:#BF9B01"/>
				<stop  offset="0.2766" style="stop-color:#DECB4B"/>
				<stop  offset="0.5271" style="stop-color:#FBF892"/>
				<stop  offset="0.5982" style="stop-color:#EBDF6B"/>
				<stop  offset="0.6823" style="stop-color:#DBC645"/>
				<stop  offset="0.7659" style="stop-color:#CFB327"/>
				<stop  offset="0.8476" style="stop-color:#C6A511"/>
				<stop  offset="0.9267" style="stop-color:#C19D04"/>
				<stop  offset="1" style="stop-color:#BF9A00"/>
			</linearGradient>
			<path class="st36" d="M192.7,558.5h2.3v0.2h-0.1c-0.1,0-0.2,0.1-0.4,0.1c-0.2,0.1-0.3,0.2-0.4,0.3c-0.1,0.1-0.3,0.4-0.5,0.7
				l-1.6,2.5v1.7c0,0.4,0.1,0.6,0.1,0.8c0.1,0.1,0.3,0.2,0.6,0.2h0.2v0.2H190v-0.2h0.3c0.3,0,0.4-0.1,0.6-0.3
				c0.1-0.1,0.1-0.3,0.1-0.7v-1.5l-1.8-2.7c-0.2-0.3-0.4-0.5-0.4-0.6s-0.3-0.2-0.4-0.3c-0.1-0.1-0.1-0.1-0.3-0.1v-0.2h2.8v0.2h-0.1
				c-0.1,0-0.3,0.1-0.4,0.1c-0.1,0.1-0.2,0.2-0.2,0.3s0.1,0.3,0.3,0.6l1.4,2.1l1.3-2c0.2-0.3,0.3-0.5,0.3-0.7c0-0.1,0-0.2-0.1-0.3
				s-0.1-0.1-0.2-0.2c-0.1-0.1-0.2-0.1-0.4-0.1L192.7,558.5L192.7,558.5z"/>
			
				<linearGradient id="SVGID_32_" gradientUnits="userSpaceOnUse" x1="195.4841" y1="51.7767" x2="201.9422" y2="51.7767" gradientTransform="matrix(1 0 0 -1 0 613.6001)">
				<stop  offset="0" style="stop-color:#BF9B01"/>
				<stop  offset="0.2766" style="stop-color:#DECB4B"/>
				<stop  offset="0.5271" style="stop-color:#FBF892"/>
				<stop  offset="0.5982" style="stop-color:#EBDF6B"/>
				<stop  offset="0.6823" style="stop-color:#DBC645"/>
				<stop  offset="0.7659" style="stop-color:#CFB327"/>
				<stop  offset="0.8476" style="stop-color:#C6A511"/>
				<stop  offset="0.9267" style="stop-color:#C19D04"/>
				<stop  offset="1" style="stop-color:#BF9A00"/>
			</linearGradient>
			<path class="st37" d="M198.8,558.4c0.8,0,1.6,0.3,2.2,1s1,1.5,1,2.4c0,1-0.3,1.8-1,2.5c-0.6,0.6-1.4,1-2.3,1
				c-0.9,0-1.7-0.3-2.3-1s-1-1.5-1-2.5c0-1,0.4-1.9,1.1-2.5C197.2,558.6,197.9,558.4,198.8,558.4z M198.7,558.7
				c-0.6,0-1.1,0.2-1.4,0.6c-0.4,0.6-0.6,1.3-0.6,2.4s0.3,1.9,0.7,2.5c0.4,0.4,0.8,0.6,1.4,0.6c0.6,0,1.1-0.3,1.5-0.7
				c0.4-0.5,0.6-1.3,0.6-2.3c0-1.1-0.2-2-0.6-2.5C199.8,559,199.3,558.7,198.7,558.7z"/>
			
				<linearGradient id="SVGID_33_" gradientUnits="userSpaceOnUse" x1="202.4963" y1="51.7448" x2="209.0625" y2="51.7448" gradientTransform="matrix(1 0 0 -1 0 613.6001)">
				<stop  offset="0" style="stop-color:#BF9B01"/>
				<stop  offset="0.2766" style="stop-color:#DECB4B"/>
				<stop  offset="0.5271" style="stop-color:#FBF892"/>
				<stop  offset="0.5982" style="stop-color:#EBDF6B"/>
				<stop  offset="0.6823" style="stop-color:#DBC645"/>
				<stop  offset="0.7659" style="stop-color:#CFB327"/>
				<stop  offset="0.8476" style="stop-color:#C6A511"/>
				<stop  offset="0.9267" style="stop-color:#C19D04"/>
				<stop  offset="1" style="stop-color:#BF9A00"/>
			</linearGradient>
			<path class="st38" d="M209,565.1h-1.8l-2.2-3.1c-0.2,0-0.3,0-0.4,0s-0.1,0-0.1,0s-0.1,0-0.1,0v1.9c0,0.4,0.1,0.7,0.1,0.8
				c0.1,0.1,0.3,0.2,0.6,0.2h0.3v0.2h-2.8v-0.2h0.3c0.3,0,0.5-0.1,0.6-0.3c0.1-0.1,0.1-0.3,0.1-0.7v-4.3c0-0.4-0.1-0.7-0.1-0.8
				c-0.1-0.1-0.3-0.2-0.6-0.2h-0.3v-0.2h2.4c0.7,0,1.2,0.1,1.5,0.1s0.6,0.3,0.8,0.6c0.3,0.3,0.3,0.6,0.3,1c0,0.4-0.1,0.8-0.4,1.1
				s-0.7,0.5-1.2,0.6l1.3,1.9c0.3,0.4,0.6,0.7,0.8,0.9c0.3,0.1,0.5,0.3,0.9,0.3L209,565.1L209,565.1z M204.4,561.7
				c0.1,0,0.1,0,0.2,0c0.1,0,0.1,0,0.1,0c0.6,0,1.1-0.1,1.4-0.4c0.3-0.3,0.5-0.6,0.5-1s-0.1-0.8-0.4-1c-0.3-0.3-0.6-0.4-1-0.4
				c-0.2,0-0.4,0-0.8,0.1L204.4,561.7L204.4,561.7z"/>
			
				<linearGradient id="SVGID_34_" gradientUnits="userSpaceOnUse" x1="209.1346" y1="51.713" x2="216.2442" y2="51.713" gradientTransform="matrix(1 0 0 -1 0 613.6001)">
				<stop  offset="0" style="stop-color:#BF9B01"/>
				<stop  offset="0.2766" style="stop-color:#DECB4B"/>
				<stop  offset="0.5271" style="stop-color:#FBF892"/>
				<stop  offset="0.5982" style="stop-color:#EBDF6B"/>
				<stop  offset="0.6823" style="stop-color:#DBC645"/>
				<stop  offset="0.7659" style="stop-color:#CFB327"/>
				<stop  offset="0.8476" style="stop-color:#C6A511"/>
				<stop  offset="0.9267" style="stop-color:#C19D04"/>
				<stop  offset="1" style="stop-color:#BF9A00"/>
			</linearGradient>
			<path class="st39" d="M212,561.4l2.4,2.4c0.4,0.4,0.8,0.7,1,0.8c0.3,0.1,0.6,0.3,0.8,0.3v0.2h-3.1v-0.2c0.2,0,0.3,0,0.4-0.1
				c0.1-0.1,0.1-0.1,0.1-0.2s0-0.1-0.1-0.2c0-0.1-0.1-0.2-0.3-0.3l-2.3-2.2v2.1c0,0.3,0,0.6,0.1,0.6s0.1,0.1,0.2,0.2
				c0.1,0.1,0.3,0.1,0.4,0.1h0.3v0.2h-2.7V565h0.3c0.3,0,0.4-0.1,0.6-0.3c0.1-0.1,0.1-0.4,0.1-0.8v-4.3c0-0.3,0-0.6-0.1-0.6
				c-0.1-0.1-0.1-0.1-0.2-0.2c-0.1-0.1-0.3-0.1-0.4-0.1h-0.3v-0.2h2.8v0.2h-0.3c-0.1,0-0.3,0.1-0.4,0.1c-0.1,0.1-0.2,0.1-0.2,0.3
				c-0.1,0.1-0.1,0.3-0.1,0.6v2c0.1-0.1,0.3-0.3,0.6-0.6c1-0.9,1.5-1.5,1.7-1.8c0.1-0.1,0.1-0.3,0.1-0.3s-0.1-0.1-0.1-0.2
				s-0.2-0.1-0.3-0.1H213v-0.2h2.4v0.2c-0.1,0-0.3,0-0.4,0.1c-0.1,0.1-0.3,0.1-0.4,0.2c-0.2,0.1-0.4,0.3-0.6,0.5
				c-0.1,0.1-0.4,0.4-1,1L212,561.4z"/>
		</g>
	</g>
</g>
</svg>
