<svg xmlns="http://www.w3.org/2000/svg" viewBox="-200.8 0.4 792 612" enable-background="new -200.8 0.4 792 612"><style type="text/css">.st0{fill:#336667;} .st1{fill:#AD9472;} .st2{fill:none;stroke:#000000;stroke-miterlimit:10;} .st3{opacity:0.25;} .st4{fill:#212121;} .st5{opacity:0.3;fill:url(#SVGID_1_);enable-background:new ;} .st6{opacity:0.3;} .st7{fill:url(#SVGID_2_);} .st8{fill:url(#SVGID_3_);} .st9{fill:url(#SVGID_4_);} .st10{fill:url(#SVGID_5_);} .st11{fill:url(#SVGID_6_);} .st12{fill:url(#SVGID_7_);} .st13{fill:url(#SVGID_8_);} .st14{fill:url(#SVGID_9_);} .st15{fill:url(#SVGID_10_);} .st16{fill:url(#SVGID_11_);} .st17{fill:url(#SVGID_12_);} .st18{fill:url(#SVGID_13_);} .st19{fill:url(#SVGID_14_);} .st20{fill:url(#SVGID_15_);} .st21{fill:url(#SVGID_16_);} .st22{fill:url(#SVGID_17_);} .st23{fill:url(#SVGID_18_);} .st24{fill:url(#SVGID_19_);} .st25{fill:url(#SVGID_20_);} .st26{fill:url(#SVGID_21_);} .st27{fill:url(#SVGID_22_);} .st28{fill:url(#SVGID_23_);} .st29{fill:url(#SVGID_24_);} .st30{fill:url(#SVGID_25_);} .st31{fill:url(#SVGID_26_);} .st32{fill:url(#SVGID_27_);} .st33{fill:url(#SVGID_28_);} .st34{fill:url(#SVGID_29_);} .st35{fill:url(#SVGID_30_);} .st36{fill:url(#SVGID_31_);} .st37{fill:url(#SVGID_32_);} .st38{fill:url(#SVGID_33_);} .st39{fill:url(#SVGID_34_);}</style><path class="st0" d="M-200.8.4h792v612h-792z" id="bg"/><path class="st1" d="M345.3 69.7c0 3.4-.1 6.9-.3 10.3l-5.7 457.1c-.8 17.4-9 33.7-22.4 44.8-5.5 4.6-11.8 8.1-18.5 10.5s-13.8 3.6-20.9 3.6h-165.2c-16.4 0-32.1-6.5-43.8-18.1l-3.1-3.1c-11.2-11.2-17.7-26.3-18.1-42.2l-.6-352.9-1.3-99.7c-.2-3.4-.3-6.9-.3-10.3 0-12.5 1.8-24.4 10.1-34 12-14 29.5-22 47.9-22h184.2c18.4 0 35.9 8 47.9 22 8.3 9.6 10.1 21.5 10.1 34z" id="Layer_3"/><g id="Layer_2"><path d="M191 13.6l12.9 18.7c1 1.4 3.1 1.3 4-.1l12.1-18.6h-29zM150.7 15.3l54.6 92.3c1.8 3 6.1 2.9 7.8-.1l50.6-92.2c.4-.7-.1-1.6-1-1.6h-21.4l-30.8 60.9c-.4.8-1.5.8-1.9.1l-38.1-60.9h-18.9c-.8-.2-1.3.8-.9 1.5zM98.4 13.8s87.1 126.4 104.2 169c1.5 3.6 4.5 9.7 6.6 6.4l103.8-170.1s-12.4-7.1-30.9-5.5c0 0-48.1 103.3-62.2 140.6-2.1 5.5-11.5 5.5-14.5.4-19.3-33.2-76.9-141-77.6-141-.7 0-20.4 0-29.4.2zM78 18.9c3.8 6 67.8 107.7 76.6 126.1.6 1.3 1.2 2.5 1.9 3.8 4.8 9.1 22.4 43 26.3 63.9.7 3.9 1.6 7.8 2.7 11.5l5.9 19.8c2 5.7 6.7 12.2 9.8 7l18.5-35.4 31.6-57.4s52.5-97 85.4-120.9c.3-.2-2.3-2.9-3-3.6l-4.2-4.1c-.3-.3-.6 0-.8.3-6.1 7.3-70.6 85.1-86.7 125.1-2.4 5.8-5 11.5-7.8 17.1-7.7 15-21.2 41-26.3 51-1.1 2.2-4 2.7-5.8 1.1-3.6-3.4-8.9-25.2-14.7-37.5-3-6.3-4.7-13.2-8.5-20.1l-59-107c-5.4-9.9-13.5-18.1-23.2-23.7l-10-20c-.1-.1-2 .4-2.1.5l-3.3 1.1c-.3.2-3.4 1.3-3.3 1.4zM53.6 37.7s42 45.6 57.1 77.8c0 0 25.1 46 36.7 80.9 2.1 6.2 4.8 12.3 8 18 2.5 4.5 5.4 10.6 7.4 17.8 1.3 4.7 2.8 9.4 4.7 14l25.6 66c1.4 3.4 6.1 4.5 7.9 1.3l23.3-42.5c2-3.6 4.2-7.1 6.6-10.3 3.5-4.7 9.2-13.3 13.1-24.5.8-2.4 1.7-4.8 2.7-7.1 9.8-23.4 55.7-135 98.3-167.7 0 0-.8-8.5-1.8-10.5 0 0-52.2 50.4-83.8 122l-37.5 80s-18.3 41.1-26 31.9c-.3-.4-.5-.8-.7-1.2l-17-37.3c-1.7-3.8-3.2-7.6-4.4-11.6-2.4-7.7-6.6-21.6-10-33.6 0 0-17.7-64.9-51.4-110.8l-45.3-65.4s-6.5 4-13.5 12.8zM345 80s-25.2 21.3-42.5 54.8c0 0-36.1 67.6-40.4 84.5-.3 1.3 1.1 2.3 2.2 1.5 3.8-2.7 11.2-9.2 18.9-23.4 1.2-2.2 2.4-4.4 3.7-6.6 10.6-17.7 50.2-90 57.6-79.4l.5-31.4zM69.5 263.8c3.6 4.5 7.8 7.5 6.8-4.6-.1-1.4-.2-2.8-.3-4.3-.1-3.9-1.3-15.8-7.8-46.2-1.1-5-1.7-10.2-1.8-15.4-.2-7-1.1-18.6-4.7-30.1-.7-2.2-1.3-4.4-1.9-6.6l-14-49.6 1.3 100.7 16 43.7c1.3 4.6 3.5 8.8 6.4 12.4zM310.3 183c-3.3 5.4-6.2 11.1-8.8 17-8.3 18.7-29.2 37.7-36.7 44.2-1.3 1.1-2.7 2.2-4.1 3.1-10.1 6.7-27.2 35.2-34.9 48.8-2.2 3.8-4.5 7.6-6.9 11.3-10.1 15.2-11.5 27.9-11.5 32.6-.1 2.7-.1 5.3-.3 7.9-.8 16.6-3.3 63.8-3.8 75.7-.1 2.4-3.1 3.4-4.6 1.5-5.2-6.5-6.9-30.9-7.4-44.4-.2-4.7 0-9.5.4-14.2 3.5-41.9-36.9-130.1-53-163.3-3.6-7.4-6.8-14.9-9.8-22.6-19.4-49.5-81.5-130.2-81.5-130.2-1.6 5.2-2.2 13.9-2.2 13.9 9 2 44.1 66.4 53.5 83.6 1.2 2.2 2.6 4.3 4.1 6.4 8.5 12.2 21.4 69.4 27 95.4 2 9.1 4.2 18.2 6.9 27.1l17.8 60.6c2.4 8.3 5.7 16.3 9.6 24.1 6.1 12.3 9.2 26.5 9.2 26.5 2 11.3 15.7 47.7 15.7 47.7.5 11.3-10.3-7.3-18.8-23.5-5.7-11-10.3-22.4-13.8-34.2-11.3-38.4-41.4-129.1-41.4-129.1-29.5-108-44.1-106.3-44.1-106.3 5.7 15.4 12.1 98.3 12.1 98.3 1.5 30.9 42.1 100.7 46.9 108.8.4.7.7 1.5.8 2.3 1.5 9.7-31.4-23.3-31.4-23.3-29.9-28-52.3-73.3-52.3-73.3l-.1 39.6c3.6 13.8 86.4 85.4 86.4 85.4 21.6 21.3 32.3 42.3 35.4 49.1.8 1.8 1.7 3.5 2.6 5.3 14.3 28.7 10.6 58.9 10.6 58.9-2.3 6.2-9.1-19.8-11.6-29.8-.8-3.4-1.8-6.7-2.8-10-17.5-54.3-47.4-74.1-57.4-79.5-4-2.2-8-4.5-11.8-7.1-35.4-24.2-51.3-47.5-51.3-47.5v27.7c2.9 8.1 35.7 27.7 35.7 27.7 13 7.6 23.8 14.8 31.8 20.5 14.9 10.7 27.2 24.7 35.6 41 13.7 26.6 17.5 54.1 18.6 70.7.4 7.6-.2 15.2-1.8 22.6-5.2 24.9-.5 66.1-.5 66.1h12.9c-9.8-38.2-3.3-64.3-.8-72 .2-.5 1-.4 1 .1 1.7 28.1 16.8 71.9 16.8 71.9h20.7c-13.3-34.4-4-99.3-4-99.3 7.1-66 37.5-107.5 46.5-118.4 1.3-1.5 2.5-3.1 3.6-4.7 9.6-13.1 47.9-39.7 47.9-39.7l31-21.2.3-23.8-33.9 33.3c-2 2.1-4.2 4.1-6.6 5.9-11.2 8.5-9.5.6-7.6-4.8.6-1.8 1.4-3.5 2.2-5.2 7.5-14.4 13.6-45.6 17-65.7 2.8-16.6 7.4-32.8 13.8-48.4 11.5-28.1 16.5-33.6 16.5-33.6l.5-34.7c-11 6-24.6 32-33.9 47.2zm-128.7 182.3c-1.7 7.6-9.8-12.1-13.2-21-.8-2.1-1.7-4.1-2.7-6.2-6.2-12.7-19.2-57.5-19.2-57.5l-12.4-45.5c-.6-2.3-.8-4.7-.4-6.9.9-5.6 3.7-2.5 5.7.6 1.1 1.8 2.1 3.8 2.8 5.7l8 21.6c2.2 6.1 5 11.9 8.5 17.3 11 17.1 15.1 42 16.2 50.2.3 2.4.7 4.7 1.1 7.1l5.5 31.3c.3 1.1.3 2.2.1 3.3zm50.8-42.5c1.1-2.6 2.2-5.3 3.1-8 6.9-19.7 32.1-55.5 38.4-64.3 1.3-1.7 2.7-3.3 4.3-4.7 4.8-4 4.4-.3 3.3 3.2-.6 2.2-1.6 4.2-2.7 6.2l-15.6 26.4c-2 3.4-3.8 6.9-5.4 10.5l-15.2 35.6-22.6 51.9c-5 11.6-6 6-6 6-1.3-15.6 12.9-50 18.4-62.8zm97.6-142.5c-.4 2.5-1.1 4.9-2.1 7.3l-20 45.5c-2.4 5.3-5.2 10.3-8.5 15.1-7.3 10.5-14.2 22.2-18.6 30.2-3.3 5.9-6.1 11.9-8.6 18.2l-18.9 48.2c-.6 1.4-1.3 2.7-2.3 3.8-5.4 6.1-7.1 13.4-7.5 15.3 0 .1.1.1.1.1 2-3.2 9.8-9 9.8-9 10-5.5 30-48.7 34.6-58.8l1.5-3.6c2.9-7.1 4.8-6.9 5.7-6.1.4.4.7 1.1.6 1.7-2.2 29-17.9 50.9-27.5 61.7-3.1 3.5-6.5 6.7-10.2 9.6-26.3 19.8-38.4 55.9-42.1 69-.8 2.6-1.6 5.2-2.6 7.8-5.3 13.9-8.4 50-9.6 65.5-.3 4.1-.4 8.3-.5 12.4-.1 15.4-1.1 21-1.9 23.1-.3.7-1.3.8-1.6.1-5.5-10.6-3.4-70.8-3.4-70.8-.5-16.3 27.6-82.6 27.6-82.6l24.5-55.1c.6-1.5 1.3-3.1 1.8-4.6 8-22.1 23.4-48.6 29-58.1 1-1.7 2.1-3.3 3.3-4.8 5.8-7.8 22.6-43.2 22.6-43.2l18.2-34c.8-1.6 1.8-3.1 2.9-4.6 3.9-5.4 4.1-2.5 3.7.7z"/><path class="st2" d="M181.6 362c.2 1.1.2 2.2-.1 3.3-1.7 7.6-9.8-12.1-13.2-21-.8-2.1-1.7-4.1-2.7-6.2-6.2-12.7-19.2-57.5-19.2-57.5l-12.4-45.5c-.6-2.3-.8-4.7-.4-6.9.9-5.6 3.7-2.5 5.7.6 1.1 1.8 2.1 3.8 2.8 5.7l8 21.6c2.2 6.1 5 11.9 8.5 17.3 11 17.1 15.1 42 16.2 50.2.3 2.4.7 4.7 1.1 7.1l5.7 31.3zM214.2 385.4c-1.5-15.4 12.7-49.9 18.2-62.7 1.1-2.6 2.2-5.3 3.1-8 6.9-19.7 32.1-55.5 38.4-64.3 1.3-1.7 2.7-3.3 4.3-4.7 4.8-4 4.4-.3 3.3 3.2-.6 2.2-1.6 4.2-2.7 6.2l-15.6 26.4c-2 3.4-3.8 6.9-5.4 10.5l-15.2 35.6-22.6 51.9c-4.8 11.6-5.8 5.9-5.8 5.9zM330 180.3c-.4 2.5-1.1 4.9-2.1 7.3l-20 45.5c-2.4 5.3-5.2 10.3-8.5 15.1-7.3 10.5-14.2 22.2-18.6 30.2-3.3 5.9-6.1 11.9-8.6 18.2l-18.9 48.2c-.6 1.4-1.3 2.7-2.3 3.8-5.4 6.1-7.1 13.4-7.5 15.3 0 .1.1.1.1.1 2-3.2 9.8-9 9.8-9 10-5.5 30-48.7 34.6-58.8l1.5-3.6c2.9-7.1 4.8-6.9 5.7-6.1.4.4.7 1.1.6 1.7-2.2 29-17.9 50.9-27.5 61.7-3.1 3.5-6.5 6.7-10.2 9.6-26.3 19.8-38.4 55.9-42.1 69-.8 2.6-1.6 5.2-2.6 7.8-5.3 13.9-8.4 50-9.6 65.5-.3 4.1-.4 8.3-.5 12.4-.1 15.4-1.1 21-1.9 23.1-.3.7-1.3.8-1.6.1-5.5-10.6-3.4-70.8-3.4-70.8-.5-16.3 27.6-82.6 27.6-82.6l24.5-55.1c.6-1.5 1.3-3.1 1.8-4.6 8-22.1 23.4-48.6 29-58.1 1-1.7 2.1-3.3 3.3-4.8 5.8-7.8 22.6-43.2 22.6-43.2l18.2-34c.8-1.6 1.8-3.1 2.9-4.6 3.9-5.4 4.1-2.5 3.7.7z"/><path d="M343.6 191.2s-.7 6.7-3.8 11.2c-3.3 4.8-5.7 10.2-7.6 15.7-6.7 19.9-18.6 58.6-16.4 77.3.2 1.6 2.2 2.2 3.2 1l23.7-28.4.9-76.8zM84.7 390.1c2.1.7 4.8 1.7 7.9 3.1 22.6 10.3 39.9 29.5 48.1 53 4.8 13.9 12.3 37.3 11.1 48.4-.2 1.7-2.4 2-3.1.5-6.7-15.1-32.7-70.5-65.3-102.9-.9-1 0-2.6 1.3-2.1zM342 325.9s-41.4 25.6-55.5 41.1c0 0-55.3 53.8-60.9 121.8 0 0-11.3 82.9 5.2 107.2h15s.6-24.7 4.3-24.7c0 0 5-4.6 4.7 24.7h10.2s-14.7-80.3-1.8-119.5c0 0 19.6-61.4 45.6-89.4.7-.7-.3-1.8-1.1-1.3-9.8 6.4-30.3 23.1-45.7 58.5-.8 1.9-1.7 3.8-2.6 5.7-4.7 9.4-19.8 42.7-19.1 79.5 0 1.7 0 3.4-.1 5.1-.4 8.8-2.4 35.8-7.6 33.7-.6-.3-1.1-.9-1.1-1.6-.6-4.3-3.6-24.9-.6-41.5l.9-6.1c1.5-14.4 9.4-74.1 36.2-106.9 0 0 50.2-56.9 73.9-65.3l.1-21zM47 369.7s36 38.9 53 70.8c0 0 10.2 17.7 14.4 23.7.6.8 1.1 1.5 1.8 2.2 4.1 4.6 29.2 33.5 29.2 66.6 0 0-1.3 57.4 2.2 62.6.1.1 0 .4-.2.4l-35.4-.3c-.8 0-1.5-1.3-1.9-1.8l-10.7-14.2c-.9-1.2-1.8-2.4-2.9-3.4-4-4.3-15.2-16.8-20.5-28.2-.8-1.6-1.5-3.2-2.4-4.7l-25.8-31.9-.5-19.4 41.2 52.9c2.5 4 5.4 7.8 8.4 11.5 4.1 5 10.5 13 15 19.8 2.6 3.9 5.8 7.3 9.6 10 4.8 3.4 10.1 5.9 9.5-.6-.2-1.7-.7-3.4-1.5-4.9-2-3.8-6.9-13.7-7.6-22.4 0 0-.9-9-1.5-22.7-.1-2-.1-4.1-.1-6.1 0-7-1.1-30.5-15.2-53.2-.9-1.5-1.8-3-2.6-4.5-8.2-14.5-50.7-78.9-55.5-82.2v-20zM47.1 402.8s27.3 46.3 40 77.2c5.1 12.4 6.7 26.1 4.3 39.3-.2 1.1-.4 2-.6 2.9-.3 1.3-2 1.6-2.7.5l-40.7-52.4-.3-67.5zM341.3 377.3s-64.1 76.2-72 148.2c-1.1 10.1-.9 20.3.4 30.5 1.8 13.5 5 39.3 1.5 39.8 0 0 16.3 1.3 27.6-3.6 0 0 26.3-56.7 31.5-50.2.4.6.5 1.4.3 2.1l-20.1 33.3s26.5-18.4 28.4-36.9l.3-3.3.5-39.2s-32.2 44.3-53.2 55.3c0 0-9.8 5.3-4.2-10 0 0 6.2-19.9 9.6-35.4 1.1-5.2 1.7-10.6 2-16 .3-6.5 10.8-36.1 47.1-91.2l.3-23.4"/><path d="M340.8 420.8s-38 51.4-38.7 75.8c-.1 1.5 1.7 2.2 2.7 1.1l35.4-31.4.6-45.5z"/><g class="st3"><path d="M186.4 13.6l12.9 18.7c1 1.4 3.1 1.3 4-.1l12.1-18.6h-29zM146.1 15.3l54.6 92.3c1.8 3 6.1 2.9 7.8-.1l50.6-92.2c.4-.7-.1-1.6-1-1.6h-21.4l-30.8 60.9c-.4.8-1.5.8-1.9.1l-38.1-60.9h-18.9c-.8-.2-1.3.8-.9 1.5zM94.3 14.3s86.6 126.3 103.8 168.9c1.5 3.6 4.5 9.7 6.6 6.4l103.7-170.2s-13.1-6.1-30.7-5.7c0 0-48.3 103.7-62.3 140.8-2.1 5.5-11.5 5.5-14.5.4-19.3-33.3-76.9-140.9-77.6-140.9-.8 0-20.9-1-29 .3zM73.1 21.4c4.1 6.4 67.8 105.4 76.7 123.9.6 1.3 1.3 2.7 2 4 5 9.3 22.4 43.1 26.2 63.7.7 3.8 1.5 7.6 2.7 11.3l6 20c2 5.7 6.7 12.2 9.8 7l18.5-35.3 31.6-57.4s53-102.1 84.4-126.9c.3-.3-2.3-2.5-2.5-2.8l-2.5-1.9c-.4-.3-.6.1-.8.3-5.8 7.1-71.8 88-88 128.1-2.4 5.8-5 11.5-7.8 17.1-7.7 15-21.2 41-26.3 51-1.1 2.2-4 2.7-5.8 1.1-3.6-3.4-8.9-25.2-14.7-37.5-3-6.3-4.7-13.2-8.5-20.1l-58.8-107c-5.4-9.9-13.5-18.1-23.2-23.7l-.4-1.5-8-18-7.2 2.8c-.3.1-3.5 1.6-3.4 1.8zM50.5 42.6s43.8 46.4 58.8 78.5c0 0 25.1 46 36.7 80.9 2.1 6.2 4.8 12.3 8 18 2.5 4.5 5.4 10.6 7.4 17.8 1.3 4.7 2.8 9.4 4.7 14l25.6 66c1.4 3.4 6.1 4.5 7.9 1.3l23.3-42.5c2-3.6 4.2-7.1 6.6-10.3 3.5-4.7 9.2-13.3 13.1-24.5.8-2.4 1.7-4.8 2.7-7.1 9.8-23.4 57.4-136 99.9-168.7 0 0-.4-10.5-2.2-10.6 0 0-53.4 51.5-85 123.2l-37.5 80s-18.3 41.1-26 31.9c-.3-.4-.5-.8-.7-1.2l-16.8-37.3c-1.7-3.8-3.2-7.6-4.4-11.6-2.4-7.7-6.6-21.6-10-33.6 0 0-17.7-64.9-51.4-110.8l-48.9-65s-6.2 1.3-11.8 11.6zM345 80s-29.8 21.5-47 55c0 0-36.1 67.6-40.4 84.5-.3 1.3 1.1 2.3 2.2 1.5 3.8-2.7 11.2-9.2 18.9-23.4 1.2-2.2 2.4-4.4 3.7-6.6 10.6-17.7 54.8-90.3 62.2-79.6l.4-31.4zM65 267.7c3.6 4.5 7.8 3.8 6.8-8.2-.1-1.4-.2-2.8-.3-4.3-.1-3.9-1.3-15.8-7.8-46.2-1.1-5-1.7-10.2-1.8-15.4-.2-7-1.1-18.6-4.7-30.1-.7-2.2-1.3-4.4-1.9-6.6l-9.5-49.9 1.9 102.5 10.8 42.3c1.4 4.5 3.5 12.2 6.5 15.9zM305.7 181.7c-3.3 5.4-6.2 11.1-8.8 17-8.3 18.7-29.2 37.7-36.7 44.2-1.3 1.1-2.7 2.2-4.1 3.1-10 6.8-27.1 35.3-34.9 48.9-2.2 3.8-4.5 7.6-6.9 11.3-10.1 15.2-11.5 27.9-11.5 32.6-.1 2.7-.1 5.3-.3 7.9-.8 16.6-3.3 63.8-3.8 75.7-.1 2.4-3.1 3.4-4.6 1.5-5.2-6.5-6.9-30.9-7.4-44.4-.2-4.7 0-9.5.4-14.2 3.5-41.9-36.9-130.2-53-163.3-3.6-7.4-6.8-14.9-9.8-22.6-19.4-49.6-77-123.9-77-123.9-2.4 5.3-2.2 12.2-2.2 12.2 9 2 39.7 61.7 49.1 78.9 1.2 2.2 2.6 4.3 4.1 6.4 8.5 12.2 21.4 69.4 27 95.4 2 9.1 4.2 18.2 6.9 27.1l17.8 60.6c2.4 8.3 5.7 16.3 9.6 24.1 6.1 12.3 9.2 26.5 9.2 26.5 2 11.3 15.7 47.7 15.7 47.7.5 11.3-10.3-7.3-18.8-23.5-5.7-11-10.3-22.4-13.8-34.2-11.3-38.4-41.4-129.1-41.4-129.1-29.5-107.9-44-106.3-44-106.3 5.7 15.4 12.1 98.3 12.1 98.3 1.5 30.9 42.1 100.7 46.9 108.8.4.7.7 1.5.8 2.3 1.5 9.7-31.4-23.3-31.4-23.3-30.1-28-47.9-63.4-47.9-63.4l-.2 35c3.6 13.8 81.9 80.1 81.9 80.1 21.6 21.3 32.3 42.3 35.4 49.1l2.5 5.3c14.3 28.7 10.6 58.9 10.6 58.9-2.3 6.2-9.1-19.8-11.6-29.8-.8-3.4-1.8-6.7-2.8-10-17.5-54.3-47.4-74.1-57.4-79.5-4-2.2-8-4.5-11.8-7.1-35.3-24.1-46.5-41.2-46.5-41.2v24.6c2.9 8.1 31.1 24.5 31.1 24.5 13 7.6 23.8 14.8 31.8 20.5 14.9 10.7 27.2 24.7 35.6 41 13.7 26.6 17.5 54.1 18.6 70.7.4 7.6-.2 15.2-1.8 22.6-5.2 24.9-.5 65.8-.5 65.8h12.9c-9.7-38.2-3.3-63.9-.8-71.7.2-.5 1-.4 1 .1 1.7 28.1 16.8 71.6 16.8 71.6h20.7c-13.3-34.4-4-99.1-4-99.1 7.1-66 37.5-107.5 46.5-118.4 1.3-1.5 2.5-3.1 3.6-4.7 9.6-12.9 47.9-39.5 47.9-39.5l35.6-23.3.4-29.1-38.7 40.6c-2 2.1-4.2 4.1-6.6 5.9-11.2 8.5-9.5.6-7.6-4.8.6-1.8 1.4-3.5 2.2-5.2 7.5-14.4 13.6-45.6 17-65.7 2.8-16.6 7.4-32.8 13.8-48.4 11.5-28.1 21.1-33.9 21.1-33.9l.4-37.7c-10.9 6.1-29.1 35.4-38.4 50.5zm-128.7 182.3c-1.7 7.6-9.8-12.1-13.2-21-.8-2.1-1.7-4.1-2.7-6.2-6.2-12.7-19.2-57.5-19.2-57.5l-12.4-45.5c-.6-2.3-.8-4.7-.4-6.9.9-5.6 3.7-2.5 5.7.6 1.1 1.8 2.1 3.8 2.8 5.7l8 21.6c2.2 6.1 5 11.9 8.5 17.3 11 17.1 15.1 42 16.2 50.2.3 2.4.7 4.7 1.1 7.1l5.5 31.3c.3 1.1.3 2.3.1 3.3zm50.8-42.4c1.1-2.6 2.2-5.3 3.1-8 6.9-19.7 32.1-55.5 38.4-64.4 1.3-1.7 2.7-3.3 4.3-4.7 4.8-4 4.4-.3 3.3 3.2-.6 2.2-1.6 4.2-2.7 6.2l-15.6 26.5c-2 3.4-3.8 6.9-5.4 10.5l-15.1 35.6-22.6 51.9c-5 11.6-6 6-6 6-1.4-15.6 12.8-50 18.3-62.8zm97.6-142.5c-.4 2.5-1.1 4.9-2.1 7.3l-20 45.5c-2.4 5.3-5.2 10.3-8.5 15.1-7.3 10.5-14.2 22.2-18.6 30.2-3.3 5.9-6.1 11.9-8.6 18.2l-18.9 48.2c-.6 1.4-1.3 2.7-2.3 3.8-5.4 6.1-7.1 13.4-7.5 15.3 0 .1.1.1.1.1 2-3.2 9.8-9 9.8-9 10-5.5 30-48.7 34.6-58.8l1.5-3.6c2.9-7.1 4.8-6.9 5.7-6.1.4.4.7 1.1.6 1.7-2.2 29-17.9 50.9-27.5 61.7-3.1 3.5-6.5 6.7-10.2 9.6-26.3 19.8-38.4 55.9-42.1 69-.8 2.6-1.6 5.2-2.6 7.8-5.3 13.9-8.4 50-9.6 65.5-.3 4.1-.4 8.3-.5 12.4-.1 15.4-1.1 21-1.9 23.1-.3.7-1.3.8-1.6.1-5.5-10.6-3.4-70.8-3.4-70.8-.6-16.3 27.5-82.6 27.5-82.6l24.5-55.1c.6-1.5 1.3-3.1 1.8-4.6 8-22.1 23.4-48.6 29-58.1 1-1.7 2.1-3.3 3.3-4.8 5.8-7.8 22.6-43.2 22.6-43.2l18.2-34c.8-1.6 1.8-3.1 2.9-4.6 4-5.5 4.2-2.6 3.8.7zM343.6 188.6s-5.3 9.6-8.3 14.1c-3.3 4.8-5.7 10.2-7.6 15.7-6.7 19.9-18.6 58.6-16.4 77.3.2 1.6 2.2 2.2 3.2 1l26.7-30 2.4-78.1zM80.1 390.3c2.1.7 4.8 1.7 7.9 3.1 22.6 10.3 39.9 29.5 48.1 53 4.8 13.9 12.3 37.3 11.1 48.4-.2 1.7-2.4 2-3.1.5-6.8-15.1-32.8-70.4-65.4-102.9-.8-.9.2-2.4 1.4-2.1zM342 320.1s-46 31.7-60.1 47.2c0 0-55.3 53.8-60.9 121.8 0 0-11.3 82.6 5.2 106.8h15s.6-24.4 4.3-24.4c0 0 5-4.9 4.7 24.4h10.2s-14.7-79.9-1.8-119.3c0 0 19.6-61.4 45.6-89.4.7-.7-.3-1.8-1.1-1.3-9.8 6.4-30.3 23.1-45.7 58.5-.8 1.9-1.7 3.8-2.6 5.7-4.7 9.4-19.8 42.7-19.1 79.5 0 1.7 0 3.4-.1 5.1-.4 8.8-2.4 35.8-7.6 33.7-.6-.3-1.1-.9-1.1-1.6-.6-4.3-3.6-24.9-.6-41.5l.9-6.1c1.5-14.4 9.4-74.1 36.2-106.9 0 0 54.8-59.8 78.5-68.2l.1-24zM47.6 374.6s30.9 34.3 47.8 66.2c0 0 10.2 17.7 14.4 23.7.6.8 1.1 1.5 1.8 2.2 4.1 4.6 29.2 33.5 29.2 66.6 0 0-1.4 62.7 2.7 62.7l-21.9-.5c-1.4-.1-2.7.1-4.1.4-7.5 1.7-14.5-4.9-19.1-11l-3.7-4.9c-.9-1.2-1.8-2.4-2.9-3.4-4-4.3-15.2-16.8-20.5-28.2-1.3-2.9-3.1-5.4-5.3-7.7l-18.2-19-.4-17.7 36.7 41.3c2.5 4 5.4 7.8 8.4 11.5 4.2 5.1 10.6 13.2 15.2 20 2.7 4 6.1 7.5 10.1 10.2 4.6 3.2 9.6 5.2 8.9-1-.2-1.7-.7-3.4-1.5-4.9-2-3.8-6.9-13.7-7.6-22.4 0 0-.9-9.1-1.5-22.8-.1-2-.1-4-.1-6.1 0-7-1.1-30.5-15.2-53.2-.9-1.5-1.8-3-2.6-4.5-8.2-14.5-46.1-78.5-50.8-81.8l.2-15.7zM47.1 403.6s22.7 45.4 35.4 76.2c5.1 12.4 6.7 26.1 4.3 39.3-.2 1.1-.4 2-.6 2.9-.3 1.3-2 1.6-2.7.5l-36.1-48.8-.3-70.1zM341.4 367.6s-68.8 86.2-76.7 158.2c-1.1 10.1-.9 20.3.4 30.5 1.8 13.5 9.3 39.3 5.3 39.8 0 0 15.5.3 23.8-8.9 0 0 18.8-53.4 24-46.9.2.3.5.9.8 1.5.6 1.3 9.3 3.2 8.9 4.6l-17.5 31s28.6-21 28.8-44.4l.4-35s-36.7 44.6-57.8 55.7c0 0-9.8 5.3-4.2-10 0 0 6.2-19.9 9.6-35.4 1.1-5.2 1.7-10.6 2-16 .3-6.5 4.3-30.1 40.6-85.2l11.3-28.4"/><path d="M340.9 417.3s-38.1 52.8-38.8 77.3c-.1 1.5 1.7 2.2 2.7 1.1l35.4-29.3.7-49.1z"/></g><path d="M92.5 27.9h59.4c13.1 0 23.8 10.6 23.8 23.8v14.9c0 13.1-10.6 23.8-23.8 23.8h-59.4c-13.1 0-23.8-10.6-23.8-23.8v-15c0-13 10.6-23.7 23.8-23.7z"/><path class="st4" d="M96.4 33.3h51c13.1 0 23.8 10.6 23.8 23.8v4.9c0 13.1-10.6 23.8-23.8 23.8h-51c-13.1 0-23.8-10.6-23.8-23.8v-4.9c0-13.1 10.7-23.8 23.8-23.8z"/></g><g id="Layer_4"><linearGradient id="SVGID_1_" gradientUnits="userSpaceOnUse" x1="186.313" y1="97.928" x2="197.585" y2="87.779" gradientTransform="matrix(1 0 0 -1 0 613.6)"><stop offset="0" stop-color="#BF9B01"/><stop offset=".277" stop-color="#DECB4B"/><stop offset=".527" stop-color="#FBF892"/><stop offset=".598" stop-color="#EBDF6B"/><stop offset=".682" stop-color="#DBC645"/><stop offset=".766" stop-color="#CFB327"/><stop offset=".848" stop-color="#C6A511"/><stop offset=".927" stop-color="#C19D04"/><stop offset="1" stop-color="#BF9A00"/></linearGradient><path class="st5" d="M196.1 527.5h-7.8s2.3-2 2.3-4.8c0 0-6.3 1.3-6.6-2.7-.1-1.4.6-2.8 1.8-3.6 1.7-1.2 4.6-3.3 6.2-4.8 1.6 1.5 4.5 3.7 6.2 4.8 1.1.8 1.9 2.2 1.8 3.6-.3 4-6.6 2.7-6.6 2.7 0 2.8 2.3 4.8 2.3 4.8h-7.7"/><g class="st6"><linearGradient id="SVGID_2_" gradientUnits="userSpaceOnUse" x1="136.216" y1="74.918" x2="148.93" y2="74.918" gradientTransform="matrix(1 0 0 -1 0 613.6)"><stop offset="0" stop-color="#BF9B01"/><stop offset=".277" stop-color="#DECB4B"/><stop offset=".527" stop-color="#FBF892"/><stop offset=".598" stop-color="#EBDF6B"/><stop offset=".682" stop-color="#DBC645"/><stop offset=".766" stop-color="#CFB327"/><stop offset=".848" stop-color="#C6A511"/><stop offset=".927" stop-color="#C19D04"/><stop offset="1" stop-color="#BF9A00"/></linearGradient><path class="st7" d="M140.2 529.8v11.3l2.9-2.6c.6-.6 1-.9 1.1-1.1.1-.1.1-.2.1-.3 0-.2-.1-.3-.2-.4-.1-.1-.4-.2-.7-.2v-.4h5v.4c-.7 0-1.3.1-1.7.3-.4.2-1 .5-1.5 1l-2.9 2.7 2.9 3.7c.8 1 1.3 1.7 1.7 2 .4.4.8.6 1 .8.2.1.6.1 1.1.1v.4h-5.5v-.5c.3 0 .5-.1.6-.1.1-.1.2-.2.2-.4s-.2-.5-.5-.9l-3.5-4.5v3.8c0 .8.1 1.2.1 1.5.1.3.3.4.4.5.2.1.6.1 1.3.2v.4h-5.8v-.4c.6 0 1-.1 1.3-.2.2-.1.3-.3.4-.4.1-.3.2-.8.2-1.4v-10.4c0-1.3 0-2.1-.1-2.4-.1-.3-.1-.5-.3-.6s-.3-.2-.5-.2-.4.1-.8.2l-.2-.4 3.4-1.4.5-.1z"/><linearGradient id="SVGID_3_" gradientUnits="userSpaceOnUse" x1="149.691" y1="71.89" x2="160.071" y2="71.89" gradientTransform="matrix(1 0 0 -1 0 613.6)"><stop offset="0" stop-color="#BF9B01"/><stop offset=".277" stop-color="#DECB4B"/><stop offset=".527" stop-color="#FBF892"/><stop offset=".598" stop-color="#EBDF6B"/><stop offset=".682" stop-color="#DBC645"/><stop offset=".766" stop-color="#CFB327"/><stop offset=".848" stop-color="#C6A511"/><stop offset=".927" stop-color="#C19D04"/><stop offset="1" stop-color="#BF9A00"/></linearGradient><path class="st8" d="M156.1 545.8c-1.1.9-1.9 1.4-2.2 1.6-.4.2-1 .3-1.5.3-.8 0-1.5-.3-2-.8s-.8-1.3-.8-2.1c0-.6.1-1 .4-1.5.3-.6 1-1.1 1.8-1.6s2.2-1.1 4.2-1.8v-.4c0-1.1-.2-1.9-.6-2.4-.4-.4-.9-.6-1.6-.6-.5 0-1 .1-1.3.4-.3.3-.4.6-.4 1v.7c0 .4-.1.7-.3.9-.2.2-.4.3-.8.3-.3 0-.6-.1-.8-.3s-.3-.5-.3-.9c0-.7.4-1.4 1.1-2 .7-.6 1.8-.9 3.1-.9 1 0 1.8.2 2.5.5.5.3.8.6 1.1 1.2.1.4.3 1.1.3 2.2v3.9c0 1.1 0 1.8.1 2 .1.2.1.4.2.5.1.1.2.1.3.1s.3 0 .3-.1c.2-.1.5-.4 1-.9v.7c-1 1.3-1.8 1.8-2.7 1.8-.4 0-.7-.1-1-.4-.3-.3-.1-.7-.1-1.4zm0-.7v-4.3c-1.3.5-2 .8-2.4 1.1-.6.4-1.1.8-1.4 1.1-.3.4-.4.8-.4 1.3 0 .6.2 1.1.5 1.5.4.4.8.6 1.2.6.6-.1 1.4-.5 2.5-1.3z"/><linearGradient id="SVGID_4_" gradientUnits="userSpaceOnUse" x1="160.371" y1="73.611" x2="167.256" y2="73.611" gradientTransform="matrix(1 0 0 -1 0 613.6)"><stop offset="0" stop-color="#BF9B01"/><stop offset=".277" stop-color="#DECB4B"/><stop offset=".527" stop-color="#FBF892"/><stop offset=".598" stop-color="#EBDF6B"/><stop offset=".682" stop-color="#DBC645"/><stop offset=".766" stop-color="#CFB327"/><stop offset=".848" stop-color="#C6A511"/><stop offset=".927" stop-color="#C19D04"/><stop offset="1" stop-color="#BF9A00"/></linearGradient><path class="st9" d="M164.2 532.3v3.8h2.7v.9h-2.7v7.4c0 .8.1 1.2.3 1.5.2.3.5.4.8.4.3 0 .5-.1.8-.3.3-.2.4-.4.6-.8h.5c-.3.8-.7 1.4-1.2 1.8-.5.4-1.1.6-1.7.6-.4 0-.8-.1-1.1-.3-.4-.2-.6-.5-.8-.9-.2-.4-.3-1-.3-1.8v-7.7h-1.8v-.4c.4-.2 1-.5 1.4-1 .5-.4.9-1 1.3-1.5.2-.3.4-.9.8-1.7h.4z"/><linearGradient id="SVGID_5_" gradientUnits="userSpaceOnUse" x1="168.17" y1="71.762" x2="177.839" y2="71.762" gradientTransform="matrix(1 0 0 -1 0 613.6)"><stop offset="0" stop-color="#BF9B01"/><stop offset=".277" stop-color="#DECB4B"/><stop offset=".527" stop-color="#FBF892"/><stop offset=".598" stop-color="#EBDF6B"/><stop offset=".682" stop-color="#DBC645"/><stop offset=".766" stop-color="#CFB327"/><stop offset=".848" stop-color="#C6A511"/><stop offset=".927" stop-color="#C19D04"/><stop offset="1" stop-color="#BF9A00"/></linearGradient><path class="st10" d="M170 540.4c0 1.7.4 3 1.2 4 .8 1 1.8 1.5 2.9 1.5.8 0 1.4-.2 2-.6.6-.4 1-1.1 1.4-2.1l.4.3c-.2 1.1-.7 2.2-1.5 3.1-.8 1-1.9 1.4-3.2 1.4-1.4 0-2.5-.5-3.5-1.6s-1.5-2.5-1.5-4.3c0-2 .5-3.5 1.5-4.6s2.2-1.7 3.8-1.7c1.3 0 2.4.4 3.2 1.3s1.2 2 1.2 3.4l-7.9-.1zm0-.8h5.3c-.1-.7-.1-1.3-.3-1.5-.2-.4-.5-.8-1-1.1-.4-.3-.8-.4-1.3-.4-.7 0-1.3.3-1.8.8s-.9 1.3-.9 2.2z"/><linearGradient id="SVGID_6_" gradientUnits="userSpaceOnUse" x1="186.197" y1="71.794" x2="193.995" y2="71.794" gradientTransform="matrix(1 0 0 -1 0 613.6)"><stop offset="0" stop-color="#BF9B01"/><stop offset=".277" stop-color="#DECB4B"/><stop offset=".527" stop-color="#FBF892"/><stop offset=".598" stop-color="#EBDF6B"/><stop offset=".682" stop-color="#DBC645"/><stop offset=".766" stop-color="#CFB327"/><stop offset=".848" stop-color="#C6A511"/><stop offset=".927" stop-color="#C19D04"/><stop offset="1" stop-color="#BF9A00"/></linearGradient><path class="st11" d="M193.2 535.7v3.9h-.4c-.3-1.2-.7-2-1.2-2.5-.5-.4-1.1-.6-1.9-.6-.6 0-1.1.1-1.4.4-.4.3-.5.6-.5 1s.1.9.4 1.2c.3.3.8.7 1.6 1.1l1.8.9c1.7.8 2.6 1.9 2.6 3.3 0 1-.4 1.8-1.1 2.5s-1.7 1-2.6 1c-.7 0-1.5-.1-2.4-.4-.3-.1-.5-.1-.7-.1-.2 0-.3.1-.4.3h-.4v-4.1h.4c.3 1.1.7 2 1.3 2.6.6.6 1.4.9 2.2.9.6 0 1-.2 1.4-.5.4-.3.6-.8.6-1.2 0-.6-.2-1.1-.6-1.5-.4-.4-1.2-.9-2.4-1.5s-2-1.1-2.4-1.6c-.4-.4-.6-1.1-.6-1.8 0-1 .3-1.7 1-2.4.6-.6 1.5-1 2.5-1 .4 0 1 .1 1.7.3.4.1.7.2.8.2.1 0 .3 0 .3-.1.1-.1.2-.2.3-.4l.1.1z"/><linearGradient id="SVGID_7_" gradientUnits="userSpaceOnUse" x1="194.806" y1="69.18" x2="206.796" y2="69.18" gradientTransform="matrix(1 0 0 -1 0 613.6)"><stop offset="0" stop-color="#BF9B01"/><stop offset=".277" stop-color="#DECB4B"/><stop offset=".527" stop-color="#FBF892"/><stop offset=".598" stop-color="#EBDF6B"/><stop offset=".682" stop-color="#DBC645"/><stop offset=".766" stop-color="#CFB327"/><stop offset=".848" stop-color="#C6A511"/><stop offset=".927" stop-color="#C19D04"/><stop offset="1" stop-color="#BF9A00"/></linearGradient><path class="st12" d="M194.9 537.2l3.5-1.4h.4v2.7c.6-1 1.2-1.7 1.8-2.1.6-.4 1.2-.6 1.8-.6 1.1 0 2.1.4 2.9 1.3 1 1.1 1.4 2.5 1.4 4.3 0 2-.6 3.6-1.7 4.9-1 1.1-2.1 1.6-3.5 1.6-.6 0-1.1-.1-1.6-.3-.3-.1-.7-.4-1.1-.8v3.5c0 .8.1 1.3.1 1.5.1.2.3.4.5.5.3.1.6.2 1.3.2v.4h-6v-.4h.3c.4 0 .8-.1 1.1-.3l.4-.4c.1-.2.1-.7.1-1.5v-10.8c0-.8-.1-1.2-.1-1.4-.1-.2-.2-.3-.3-.4-.1-.1-.3-.1-.6-.1-.2 0-.4.1-.8.2v-.6zm3.9 2v4.3c0 .9.1 1.5.1 1.8.1.5.4.9.8 1.3s1 .6 1.7.6c.8 0 1.5-.3 2-1 .7-.8 1-2 1-3.6 0-1.7-.4-3.1-1.1-4-.5-.6-1.1-1-1.9-1-.4 0-.8.1-1.2.3-.2.1-.7.5-1.4 1.3z"/><linearGradient id="SVGID_8_" gradientUnits="userSpaceOnUse" x1="208.58" y1="71.89" x2="218.96" y2="71.89" gradientTransform="matrix(1 0 0 -1 0 613.6)"><stop offset="0" stop-color="#BF9B01"/><stop offset=".277" stop-color="#DECB4B"/><stop offset=".527" stop-color="#FBF892"/><stop offset=".598" stop-color="#EBDF6B"/><stop offset=".682" stop-color="#DBC645"/><stop offset=".766" stop-color="#CFB327"/><stop offset=".848" stop-color="#C6A511"/><stop offset=".927" stop-color="#C19D04"/><stop offset="1" stop-color="#BF9A00"/></linearGradient><path class="st13" d="M215 545.8c-1.1.9-1.9 1.4-2.2 1.6-.4.2-1 .3-1.5.3-.8 0-1.5-.3-2-.8s-.8-1.3-.8-2.1c0-.6.1-1 .4-1.5.3-.6 1-1.1 1.8-1.6s2.2-1.1 4.2-1.8v-.4c0-1.1-.2-1.9-.6-2.4-.4-.4-.9-.6-1.6-.6-.5 0-1 .1-1.3.4-.3.3-.4.6-.4 1v.7c0 .4-.1.7-.3.9-.2.2-.4.3-.8.3-.3 0-.6-.1-.8-.3-.2-.2-.3-.5-.3-.9 0-.7.4-1.4 1.1-2 .7-.6 1.8-.9 3.1-.9 1 0 1.8.2 2.5.5.5.3.8.6 1.1 1.2.1.4.3 1.1.3 2.2v3.9c0 1.1 0 1.8.1 2 .1.3.1.4.2.5.1.1.2.1.3.1.1 0 .3 0 .3-.1.2-.1.5-.4 1-.9v.7c-1 1.3-1.8 1.8-2.7 1.8-.4 0-.7-.1-1-.4 0-.2-.1-.7-.1-1.4zm0-.7v-4.3c-1.3.5-2 .8-2.4 1.1-.6.4-1.1.8-1.4 1.1-.3.4-.4.8-.4 1.3 0 .6.2 1.1.5 1.5.4.4.8.6 1.2.6.5-.1 1.4-.5 2.5-1.3z"/><linearGradient id="SVGID_9_" gradientUnits="userSpaceOnUse" x1="219.859" y1="74.854" x2="231.848" y2="74.854" gradientTransform="matrix(1 0 0 -1 0 613.6)"><stop offset="0" stop-color="#BF9B01"/><stop offset=".277" stop-color="#DECB4B"/><stop offset=".527" stop-color="#FBF892"/><stop offset=".598" stop-color="#EBDF6B"/><stop offset=".682" stop-color="#DBC645"/><stop offset=".766" stop-color="#CFB327"/><stop offset=".848" stop-color="#C6A511"/><stop offset=".927" stop-color="#C19D04"/><stop offset="1" stop-color="#BF9A00"/></linearGradient><path class="st14" d="M227.9 546.2c-.6.6-1.1 1-1.7 1.3-.5.3-1.1.4-1.7.4-1.3 0-2.4-.5-3.3-1.6-1-1-1.4-2.4-1.4-4 0-1.7.5-3.1 1.5-4.5 1-1.3 2.4-2 4-2 1 0 1.8.3 2.5 1v-2.1c0-1.3 0-2.1-.1-2.4-.1-.3-.2-.5-.3-.6s-.3-.2-.5-.2-.5.1-.9.2l-.2-.4 3.4-1.4h.6v13.2c0 1.3 0 2.2.1 2.4.1.3.2.5.3.6.1.1.3.2.5.2.3 0 .5-.1.9-.2l.1.4-3.4 1.4h-.6v-1.5h.2zm0-.9v-5.9c-.1-.6-.2-1.1-.4-1.5-.3-.4-.6-.8-1-1.1-.4-.3-.8-.4-1.2-.4-.7 0-1.4.3-2 1-.8.9-1.1 2.1-1.1 3.8 0 1.7.4 3 1.1 3.9.7.9 1.5 1.3 2.4 1.3.7.1 1.5-.3 2.2-1.1z"/><linearGradient id="SVGID_10_" gradientUnits="userSpaceOnUse" x1="232.734" y1="71.762" x2="242.404" y2="71.762" gradientTransform="matrix(1 0 0 -1 0 613.6)"><stop offset="0" stop-color="#BF9B01"/><stop offset=".277" stop-color="#DECB4B"/><stop offset=".527" stop-color="#FBF892"/><stop offset=".598" stop-color="#EBDF6B"/><stop offset=".682" stop-color="#DBC645"/><stop offset=".766" stop-color="#CFB327"/><stop offset=".848" stop-color="#C6A511"/><stop offset=".927" stop-color="#C19D04"/><stop offset="1" stop-color="#BF9A00"/></linearGradient><path class="st15" d="M234.5 540.4c0 1.7.4 3 1.2 4s1.8 1.5 2.9 1.5c.8 0 1.4-.2 2-.6.6-.4 1-1.1 1.4-2.1l.4.3c-.2 1.1-.7 2.2-1.5 3.1s-1.9 1.4-3.2 1.4c-1.4 0-2.6-.5-3.5-1.6-1-1.1-1.5-2.5-1.5-4.3 0-2 .5-3.5 1.5-4.6s2.2-1.7 3.8-1.7c1.3 0 2.4.4 3.2 1.3.8.8 1.2 2 1.2 3.4l-7.9-.1zm0-.8h5.3c-.1-.7-.1-1.3-.3-1.5-.2-.4-.5-.8-1-1.1-.4-.3-.8-.4-1.3-.4-.7 0-1.3.3-1.8.8-.4.6-.8 1.3-.9 2.2z"/></g><g class="st6"><linearGradient id="SVGID_11_" gradientUnits="userSpaceOnUse" x1="161.904" y1="51.745" x2="169.086" y2="51.745" gradientTransform="matrix(1 0 0 -1 0 613.6)"><stop offset="0" stop-color="#BF9B01"/><stop offset=".277" stop-color="#DECB4B"/><stop offset=".527" stop-color="#FBF892"/><stop offset=".598" stop-color="#EBDF6B"/><stop offset=".682" stop-color="#DBC645"/><stop offset=".766" stop-color="#CFB327"/><stop offset=".848" stop-color="#C6A511"/><stop offset=".927" stop-color="#C19D04"/><stop offset="1" stop-color="#BF9A00"/></linearGradient><path class="st16" d="M161.9 558.5h1.8l4 5v-3.8c0-.4-.1-.6-.1-.8-.1-.1-.3-.2-.6-.2h-.3v-.2h2.3v.2h-.3c-.3 0-.4.1-.6.3-.1.1-.1.3-.1.7v5.5h-.2l-4.3-5.3v4.1c0 .4.1.6.1.8.1.1.3.2.6.2h.3v.2h-2.3v-.2h.3c.3 0 .5-.1.6-.3.1-.1.1-.3.1-.7v-4.6c-.2-.3-.3-.4-.4-.4l-.4-.2-.4-.1-.1-.2z"/><linearGradient id="SVGID_12_" gradientUnits="userSpaceOnUse" x1="169.431" y1="51.84" x2="175.082" y2="51.84" gradientTransform="matrix(1 0 0 -1 0 613.6)"><stop offset="0" stop-color="#BF9B01"/><stop offset=".277" stop-color="#DECB4B"/><stop offset=".527" stop-color="#FBF892"/><stop offset=".598" stop-color="#EBDF6B"/><stop offset=".682" stop-color="#DBC645"/><stop offset=".766" stop-color="#CFB327"/><stop offset=".848" stop-color="#C6A511"/><stop offset=".927" stop-color="#C19D04"/><stop offset="1" stop-color="#BF9A00"/></linearGradient><path class="st17" d="M171.3 558.9v2.6h1.5c.4 0 .6-.1.8-.2.2-.1.3-.4.3-.8h.2v2.3h-.2c-.1-.3-.1-.5-.1-.6-.1-.1-.1-.2-.3-.3-.1-.1-.3-.1-.6-.1h-1.5v2.2c0 .3 0 .4.1.5 0 .1.1.1.1.1.1.1.2.1.4.1h1.1c.4 0 .6 0 .8-.1.2-.1.3-.1.5-.3s.4-.5.6-.9h.2l-.6 1.7h-5.1v-.2h.3l.4-.1c.1-.1.2-.1.2-.3.1-.1.1-.3.1-.6v-4.3c0-.4-.1-.7-.1-.8-.1-.1-.3-.2-.6-.2h-.3v-.2h5.1l.1 1.5h-.2c-.1-.3-.1-.6-.3-.7-.1-.1-.2-.3-.4-.3-.1-.1-.4-.1-.7-.1l-1.8.1z"/><linearGradient id="SVGID_13_" gradientUnits="userSpaceOnUse" x1="175.442" y1="51.745" x2="184.633" y2="51.745" gradientTransform="matrix(1 0 0 -1 0 613.6)"><stop offset="0" stop-color="#BF9B01"/><stop offset=".277" stop-color="#DECB4B"/><stop offset=".527" stop-color="#FBF892"/><stop offset=".598" stop-color="#EBDF6B"/><stop offset=".682" stop-color="#DBC645"/><stop offset=".766" stop-color="#CFB327"/><stop offset=".848" stop-color="#C6A511"/><stop offset=".927" stop-color="#C19D04"/><stop offset="1" stop-color="#BF9A00"/></linearGradient><path class="st18" d="M184.6 558.5v.2c-.2 0-.3 0-.4.1l-.3.3c-.1.1-.2.4-.3.8l-1.8 5.3h-.2l-1.6-4.2-1.5 4.2h-.2l-2-5.5c-.1-.4-.3-.6-.3-.7-.1-.1-.1-.2-.3-.3-.1-.1-.3-.1-.4-.1v-.2h2.4v.2h-.1c-.2 0-.3.1-.4.1-.1.1-.1.2-.1.3 0 .1.1.4.2.8l1.3 3.7 1.1-3.1-.2-.6-.1-.4c-.1-.2-.1-.3-.3-.4l-.1-.1c-.1-.1-.2-.1-.3-.1h-.3v-.2h2.6v.2h-.2c-.2 0-.3.1-.4.1s-.1.2-.1.3c0 .2.1.4.2.9l1.3 3.6 1.3-3.6c.1-.4.2-.7.2-.8 0-.1 0-.1-.1-.2s-.1-.1-.2-.1c-.1-.1-.3-.1-.5-.1v-.2l2.1-.2z"/><linearGradient id="SVGID_14_" gradientUnits="userSpaceOnUse" x1="186.744" y1="51.777" x2="193.693" y2="51.777" gradientTransform="matrix(1 0 0 -1 0 613.6)"><stop offset="0" stop-color="#BF9B01"/><stop offset=".277" stop-color="#DECB4B"/><stop offset=".527" stop-color="#FBF892"/><stop offset=".598" stop-color="#EBDF6B"/><stop offset=".682" stop-color="#DBC645"/><stop offset=".766" stop-color="#CFB327"/><stop offset=".848" stop-color="#C6A511"/><stop offset=".927" stop-color="#C19D04"/><stop offset="1" stop-color="#BF9A00"/></linearGradient><path class="st19" d="M191.4 558.5h2.3v.2h-.1c-.1 0-.2.1-.4.1-.2.1-.3.2-.4.3-.1.1-.3.4-.5.7l-1.6 2.5v1.7c0 .4.1.6.1.8.1.1.3.2.6.2h.2v.2h-2.8v-.2h.3c.3 0 .4-.1.6-.3.1-.1.1-.3.1-.7v-1.5l-1.8-2.7c-.2-.3-.4-.5-.4-.6l-.4-.3c-.1-.1-.1-.1-.3-.1v-.2h2.8v.2h-.1l-.4.1c-.1.1-.2.2-.2.3s.1.3.3.6l1.4 2.1 1.3-2c.2-.3.3-.5.3-.7 0-.1 0-.2-.1-.3l-.2-.2c-.1-.1-.2-.1-.4-.1l-.2-.1z"/><linearGradient id="SVGID_15_" gradientUnits="userSpaceOnUse" x1="194.194" y1="51.777" x2="200.652" y2="51.777" gradientTransform="matrix(1 0 0 -1 0 613.6)"><stop offset="0" stop-color="#BF9B01"/><stop offset=".277" stop-color="#DECB4B"/><stop offset=".527" stop-color="#FBF892"/><stop offset=".598" stop-color="#EBDF6B"/><stop offset=".682" stop-color="#DBC645"/><stop offset=".766" stop-color="#CFB327"/><stop offset=".848" stop-color="#C6A511"/><stop offset=".927" stop-color="#C19D04"/><stop offset="1" stop-color="#BF9A00"/></linearGradient><path class="st20" d="M197.5 558.4c.8 0 1.6.3 2.2 1s1 1.5 1 2.4c0 1-.3 1.8-1 2.5-.6.6-1.4 1-2.3 1-.9 0-1.7-.3-2.3-1-.6-.6-1-1.5-1-2.5s.4-1.9 1.1-2.5c.7-.7 1.4-.9 2.3-.9zm-.1.3c-.6 0-1.1.2-1.4.6-.4.6-.6 1.3-.6 2.4s.3 1.9.7 2.5c.4.4.8.6 1.4.6.6 0 1.1-.3 1.5-.7.4-.5.6-1.3.6-2.3 0-1.1-.2-2-.6-2.5-.5-.3-1-.6-1.6-.6z"/><linearGradient id="SVGID_16_" gradientUnits="userSpaceOnUse" x1="201.206" y1="51.745" x2="207.772" y2="51.745" gradientTransform="matrix(1 0 0 -1 0 613.6)"><stop offset="0" stop-color="#BF9B01"/><stop offset=".277" stop-color="#DECB4B"/><stop offset=".527" stop-color="#FBF892"/><stop offset=".598" stop-color="#EBDF6B"/><stop offset=".682" stop-color="#DBC645"/><stop offset=".766" stop-color="#CFB327"/><stop offset=".848" stop-color="#C6A511"/><stop offset=".927" stop-color="#C19D04"/><stop offset="1" stop-color="#BF9A00"/></linearGradient><path class="st21" d="M207.8 565.1h-1.8l-2.2-3.1h-.6v1.9c0 .4.1.7.1.8.1.1.3.2.6.2h.3v.2h-2.8v-.2h.3c.3 0 .5-.1.6-.3.1-.1.1-.3.1-.7v-4.3c0-.4-.1-.7-.1-.8-.1-.1-.3-.2-.6-.2h-.3v-.2h2.4c.7 0 1.2.1 1.5.1.3.1.6.3.8.6.3.3.3.6.3 1s-.1.8-.4 1.1-.7.5-1.2.6l1.3 1.9c.3.4.6.7.8.9.3.1.5.3.9.3v.2zm-4.7-3.4h.30000000000000004c.6 0 1.1-.1 1.4-.4.3-.3.5-.6.5-1s-.1-.8-.4-1c-.3-.3-.6-.4-1-.4-.2 0-.4 0-.8.1v2.7z"/><linearGradient id="SVGID_17_" gradientUnits="userSpaceOnUse" x1="207.845" y1="51.713" x2="214.954" y2="51.713" gradientTransform="matrix(1 0 0 -1 0 613.6)"><stop offset="0" stop-color="#BF9B01"/><stop offset=".277" stop-color="#DECB4B"/><stop offset=".527" stop-color="#FBF892"/><stop offset=".598" stop-color="#EBDF6B"/><stop offset=".682" stop-color="#DBC645"/><stop offset=".766" stop-color="#CFB327"/><stop offset=".848" stop-color="#C6A511"/><stop offset=".927" stop-color="#C19D04"/><stop offset="1" stop-color="#BF9A00"/></linearGradient><path class="st22" d="M210.6 561.4l2.4 2.4c.4.4.8.7 1 .8.3.1.6.3.8.3v.2h-3.1v-.2c.2 0 .3 0 .4-.1.1-.1.1-.1.1-.2s0-.1-.1-.2c0-.1-.1-.2-.3-.3l-2.3-2.2v2.1c0 .3 0 .6.1.6l.2.2c.1.1.3.1.4.1h.3v.2h-2.8v-.1h.3c.3 0 .4-.1.6-.3.1-.1.1-.4.1-.8v-4.3c0-.3 0-.6-.1-.6l-.2-.2c-.1-.1-.3-.1-.4-.1h-.3v-.2h2.8v.2h-.1l-.4.1s-.2.1-.2.3c-.1.1-.1.3-.1.6v2l.6-.6c1-.9 1.5-1.5 1.7-1.8.1-.1.1-.3.1-.3s-.1-.1-.1-.2-.2-.1-.3-.1h-.1v-.2h2.4v.2c-.1 0-.3 0-.4.1s-.3.1-.4.2c-.2.1-.4.3-.6.5l-1 1-1 .9z"/></g><linearGradient id="SVGID_18_" gradientUnits="userSpaceOnUse" x1="187.596" y1="97.921" x2="198.868" y2="87.771" gradientTransform="matrix(1 0 0 -1 0 613.6)"><stop offset="0" stop-color="#BF9B01"/><stop offset=".277" stop-color="#DECB4B"/><stop offset=".527" stop-color="#FBF892"/><stop offset=".598" stop-color="#EBDF6B"/><stop offset=".682" stop-color="#DBC645"/><stop offset=".766" stop-color="#CFB327"/><stop offset=".848" stop-color="#C6A511"/><stop offset=".927" stop-color="#C19D04"/><stop offset="1" stop-color="#BF9A00"/></linearGradient><path class="st23" d="M197.4 527.5h-7.8s2.3-2 2.3-4.8c0 0-6.3 1.3-6.6-2.7-.1-1.4.6-2.8 1.8-3.6 1.7-1.2 4.6-3.3 6.2-4.8 1.6 1.5 4.5 3.7 6.2 4.8 1.1.8 1.9 2.2 1.8 3.6-.3 4-6.6 2.7-6.6 2.7 0 2.8 2.3 4.8 2.3 4.8h-7.7"/><linearGradient id="SVGID_19_" gradientUnits="userSpaceOnUse" x1="137.506" y1="74.918" x2="150.22" y2="74.918" gradientTransform="matrix(1 0 0 -1 0 613.6)"><stop offset="0" stop-color="#BF9B01"/><stop offset=".277" stop-color="#DECB4B"/><stop offset=".527" stop-color="#FBF892"/><stop offset=".598" stop-color="#EBDF6B"/><stop offset=".682" stop-color="#DBC645"/><stop offset=".766" stop-color="#CFB327"/><stop offset=".848" stop-color="#C6A511"/><stop offset=".927" stop-color="#C19D04"/><stop offset="1" stop-color="#BF9A00"/></linearGradient><path class="st24" d="M141.5 529.8v11.3l2.9-2.6c.6-.6 1-.9 1.1-1.1.1-.1.1-.2.1-.3 0-.2-.1-.3-.2-.4-.1-.1-.4-.2-.7-.2v-.4h5v.4c-.7 0-1.3.1-1.7.3s-1 .5-1.5 1l-2.9 2.7 2.9 3.7c.8 1 1.3 1.7 1.7 2 .4.4.8.6 1 .8.2.1.6.1 1.1.1v.4h-5.5v-.5c.3 0 .5-.1.6-.1.1-.1.2-.2.2-.4s-.2-.5-.5-.9l-3.5-4.5v3.8c0 .8.1 1.2.1 1.5.1.3.3.4.4.5.2.1.6.1 1.3.2v.4h-5.8v-.4c.6 0 1-.1 1.3-.2.2-.1.3-.3.4-.4.1-.3.2-.8.2-1.4v-10.4c0-1.3 0-2.1-.1-2.4-.1-.3-.1-.5-.3-.6s-.3-.2-.5-.2l-.8.2-.2-.4 3.4-1.4.5-.1z"/><linearGradient id="SVGID_20_" gradientUnits="userSpaceOnUse" x1="150.981" y1="71.89" x2="161.362" y2="71.89" gradientTransform="matrix(1 0 0 -1 0 613.6)"><stop offset="0" stop-color="#BF9B01"/><stop offset=".277" stop-color="#DECB4B"/><stop offset=".527" stop-color="#FBF892"/><stop offset=".598" stop-color="#EBDF6B"/><stop offset=".682" stop-color="#DBC645"/><stop offset=".766" stop-color="#CFB327"/><stop offset=".848" stop-color="#C6A511"/><stop offset=".927" stop-color="#C19D04"/><stop offset="1" stop-color="#BF9A00"/></linearGradient><path class="st25" d="M157.3 545.8c-1.1.9-1.9 1.4-2.2 1.6-.4.2-1 .3-1.5.3-.8 0-1.5-.3-2-.8s-.8-1.3-.8-2.1c0-.6.1-1 .4-1.5.3-.6 1-1.1 1.8-1.6s2.2-1.1 4.2-1.8v-.4c0-1.1-.2-1.9-.6-2.4-.4-.4-.9-.6-1.6-.6-.5 0-1 .1-1.3.4-.3.3-.4.6-.4 1v.7c0 .4-.1.7-.3.9-.2.2-.4.3-.8.3-.3 0-.6-.1-.8-.3-.2-.2-.3-.5-.3-.9 0-.7.4-1.4 1.1-2 .7-.6 1.8-.9 3.1-.9 1 0 1.8.2 2.5.5.5.3.8.6 1.1 1.2.1.4.3 1.1.3 2.2v3.9c0 1.1 0 1.8.1 2 .1.2.1.4.2.5.1.1.2.1.3.1s.3 0 .3-.1c.2-.1.5-.4 1-.9v.7c-1 1.3-1.8 1.8-2.7 1.8-.4 0-.7-.1-1-.4-.2-.3-.1-.7-.1-1.4zm0-.7v-4.3c-1.3.5-2 .8-2.4 1.1-.6.4-1.1.8-1.4 1.1-.3.4-.4.8-.4 1.3 0 .6.2 1.1.5 1.5.4.4.8.6 1.2.6.7-.1 1.5-.5 2.5-1.3z"/><linearGradient id="SVGID_21_" gradientUnits="userSpaceOnUse" x1="161.661" y1="73.611" x2="168.546" y2="73.611" gradientTransform="matrix(1 0 0 -1 0 613.6)"><stop offset="0" stop-color="#BF9B01"/><stop offset=".277" stop-color="#DECB4B"/><stop offset=".527" stop-color="#FBF892"/><stop offset=".598" stop-color="#EBDF6B"/><stop offset=".682" stop-color="#DBC645"/><stop offset=".766" stop-color="#CFB327"/><stop offset=".848" stop-color="#C6A511"/><stop offset=".927" stop-color="#C19D04"/><stop offset="1" stop-color="#BF9A00"/></linearGradient><path class="st26" d="M165.6 532.3v3.8h2.7v.9h-2.7v7.4c0 .8.1 1.2.3 1.5.2.3.5.4.8.4.3 0 .5-.1.8-.3.3-.2.4-.4.6-.8h.5c-.3.8-.7 1.4-1.2 1.8-.5.4-1.1.6-1.7.6-.4 0-.8-.1-1.1-.3-.4-.2-.6-.5-.8-.9s-.3-1-.3-1.8v-7.7h-1.8v-.4c.4-.2 1-.5 1.4-1 .5-.4.9-1 1.3-1.5.2-.3.4-.9.8-1.7h.4z"/><linearGradient id="SVGID_22_" gradientUnits="userSpaceOnUse" x1="169.459" y1="71.762" x2="179.128" y2="71.762" gradientTransform="matrix(1 0 0 -1 0 613.6)"><stop offset="0" stop-color="#BF9B01"/><stop offset=".277" stop-color="#DECB4B"/><stop offset=".527" stop-color="#FBF892"/><stop offset=".598" stop-color="#EBDF6B"/><stop offset=".682" stop-color="#DBC645"/><stop offset=".766" stop-color="#CFB327"/><stop offset=".848" stop-color="#C6A511"/><stop offset=".927" stop-color="#C19D04"/><stop offset="1" stop-color="#BF9A00"/></linearGradient><path class="st27" d="M171.2 540.4c0 1.7.4 3 1.2 4 .8 1 1.8 1.5 2.9 1.5.8 0 1.4-.2 2-.6.6-.4 1-1.1 1.4-2.1l.4.3c-.2 1.1-.7 2.2-1.5 3.1-.8 1-1.9 1.4-3.2 1.4-1.4 0-2.5-.5-3.5-1.6s-1.5-2.5-1.5-4.3c0-2 .5-3.5 1.5-4.6 1-1.1 2.2-1.7 3.8-1.7 1.3 0 2.4.4 3.2 1.3s1.2 2 1.2 3.4l-7.9-.1zm0-.8h5.3c-.1-.7-.1-1.3-.3-1.5-.2-.4-.5-.8-1-1.1-.4-.3-.8-.4-1.3-.4-.7 0-1.3.3-1.8.8s-.8 1.3-.9 2.2z"/><linearGradient id="SVGID_23_" gradientUnits="userSpaceOnUse" x1="187.487" y1="71.794" x2="195.285" y2="71.794" gradientTransform="matrix(1 0 0 -1 0 613.6)"><stop offset="0" stop-color="#BF9B01"/><stop offset=".277" stop-color="#DECB4B"/><stop offset=".527" stop-color="#FBF892"/><stop offset=".598" stop-color="#EBDF6B"/><stop offset=".682" stop-color="#DBC645"/><stop offset=".766" stop-color="#CFB327"/><stop offset=".848" stop-color="#C6A511"/><stop offset=".927" stop-color="#C19D04"/><stop offset="1" stop-color="#BF9A00"/></linearGradient><path class="st28" d="M194.4 535.7v3.9h-.4c-.3-1.2-.7-2-1.2-2.5-.5-.4-1.1-.6-1.9-.6-.6 0-1.1.1-1.4.4-.4.3-.5.6-.5 1s.1.9.4 1.2c.3.3.8.7 1.6 1.1l1.8.9c1.7.8 2.5 1.9 2.5 3.3 0 1-.4 1.8-1.1 2.5s-1.7 1-2.6 1c-.7 0-1.5-.1-2.4-.4-.3-.1-.5-.1-.7-.1-.2 0-.3.1-.4.3h-.4v-4.1h.4c.3 1.1.7 2 1.3 2.6.6.6 1.4.9 2.2.9.6 0 1-.2 1.4-.5.4-.3.6-.8.6-1.2 0-.6-.2-1.1-.6-1.5-.4-.4-1.2-.9-2.4-1.5s-2-1.1-2.4-1.6c-.4-.4-.6-1.1-.6-1.8 0-1 .3-1.7 1-2.4.6-.6 1.5-1 2.5-1 .4 0 1 .1 1.7.3.4.1.7.2.8.2.1 0 .3 0 .3-.1.1-.1.2-.2.3-.4l.2.1z"/><linearGradient id="SVGID_24_" gradientUnits="userSpaceOnUse" x1="196.096" y1="69.18" x2="208.086" y2="69.18" gradientTransform="matrix(1 0 0 -1 0 613.6)"><stop offset="0" stop-color="#BF9B01"/><stop offset=".277" stop-color="#DECB4B"/><stop offset=".527" stop-color="#FBF892"/><stop offset=".598" stop-color="#EBDF6B"/><stop offset=".682" stop-color="#DBC645"/><stop offset=".766" stop-color="#CFB327"/><stop offset=".848" stop-color="#C6A511"/><stop offset=".927" stop-color="#C19D04"/><stop offset="1" stop-color="#BF9A00"/></linearGradient><path class="st29" d="M196.2 537.2l3.5-1.4h.4v2.7c.6-1 1.2-1.7 1.8-2.1.6-.4 1.2-.6 1.8-.6 1.1 0 2.1.4 2.9 1.3 1 1.1 1.4 2.5 1.4 4.3 0 2-.6 3.6-1.7 4.9-1 1.1-2.1 1.6-3.5 1.6-.6 0-1.1-.1-1.6-.3-.3-.1-.7-.4-1.1-.8v3.5c0 .8.1 1.3.1 1.5.1.2.3.4.5.5.3.1.6.2 1.3.2v.4h-6v-.4h.3c.4 0 .8-.1 1.1-.3l.4-.4c.1-.2.1-.7.1-1.5v-10.8c0-.8-.1-1.2-.1-1.4-.1-.2-.2-.3-.3-.4-.1-.1-.3-.1-.6-.1-.2 0-.4.1-.8.2v-.6zm4 2v4.3c0 .9.1 1.5.1 1.8.1.5.4.9.8 1.3s1 .6 1.7.6c.8 0 1.5-.3 2-1 .7-.8 1-2 1-3.6 0-1.7-.4-3.1-1.1-4-.5-.6-1.1-1-1.9-1-.4 0-.8.1-1.2.3-.3.1-.8.5-1.4 1.3z"/><linearGradient id="SVGID_25_" gradientUnits="userSpaceOnUse" x1="209.87" y1="71.89" x2="220.25" y2="71.89" gradientTransform="matrix(1 0 0 -1 0 613.6)"><stop offset="0" stop-color="#BF9B01"/><stop offset=".277" stop-color="#DECB4B"/><stop offset=".527" stop-color="#FBF892"/><stop offset=".598" stop-color="#EBDF6B"/><stop offset=".682" stop-color="#DBC645"/><stop offset=".766" stop-color="#CFB327"/><stop offset=".848" stop-color="#C6A511"/><stop offset=".927" stop-color="#C19D04"/><stop offset="1" stop-color="#BF9A00"/></linearGradient><path class="st30" d="M216.2 545.8c-1.1.9-1.9 1.4-2.2 1.6-.4.2-1 .3-1.5.3-.8 0-1.5-.3-2-.8s-.8-1.3-.8-2.1c0-.6.1-1 .4-1.5.3-.6 1-1.1 1.8-1.6s2.2-1.1 4.2-1.8v-.4c0-1.1-.2-1.9-.6-2.4-.4-.4-.9-.6-1.6-.6-.5 0-1 .1-1.3.4-.3.3-.4.6-.4 1v.7c0 .4-.1.7-.3.9-.2.2-.4.3-.8.3-.3 0-.6-.1-.8-.3-.2-.2-.3-.5-.3-.9 0-.7.4-1.4 1.1-2 .7-.6 1.8-.9 3.1-.9 1 0 1.8.2 2.5.5.5.3.8.6 1.1 1.2.1.4.3 1.1.3 2.2v3.9c0 1.1 0 1.8.1 2 .1.3.1.4.2.5.1.1.2.1.3.1.1 0 .3 0 .3-.1.2-.1.5-.4 1-.9v.7c-1 1.3-1.8 1.8-2.7 1.8-.4 0-.7-.1-1-.4.1-.2-.1-.7-.1-1.4zm0-.7v-4.3c-1.3.5-2 .8-2.4 1.1-.6.4-1.1.8-1.4 1.1-.3.4-.4.8-.4 1.3 0 .6.2 1.1.5 1.5.4.4.8.6 1.2.6.7-.1 1.5-.5 2.5-1.3z"/><linearGradient id="SVGID_26_" gradientUnits="userSpaceOnUse" x1="221.146" y1="74.854" x2="233.136" y2="74.854" gradientTransform="matrix(1 0 0 -1 0 613.6)"><stop offset="0" stop-color="#BF9B01"/><stop offset=".277" stop-color="#DECB4B"/><stop offset=".527" stop-color="#FBF892"/><stop offset=".598" stop-color="#EBDF6B"/><stop offset=".682" stop-color="#DBC645"/><stop offset=".766" stop-color="#CFB327"/><stop offset=".848" stop-color="#C6A511"/><stop offset=".927" stop-color="#C19D04"/><stop offset="1" stop-color="#BF9A00"/></linearGradient><path class="st31" d="M229.2 546.2c-.6.6-1.1 1-1.7 1.3-.5.3-1.1.4-1.7.4-1.3 0-2.4-.5-3.3-1.6-1-1-1.4-2.4-1.4-4 0-1.7.5-3.1 1.5-4.5 1-1.3 2.4-2 4-2 1 0 1.8.3 2.5 1v-2.1c0-1.3 0-2.1-.1-2.4-.1-.3-.2-.5-.3-.6s-.3-.2-.5-.2-.5.1-.9.2l-.2-.4 3.4-1.4h.6v13.2c0 1.3 0 2.2.1 2.4.1.3.2.5.3.6.1.1.3.2.5.2.3 0 .5-.1.9-.2l.1.4-3.4 1.4h-.6v-1.5h.2zm0-.9v-5.9c-.1-.6-.2-1.1-.4-1.5-.3-.4-.6-.8-1-1.1-.4-.3-.8-.4-1.2-.4-.7 0-1.4.3-2 1-.8.9-1.1 2.1-1.1 3.8 0 1.7.4 3 1.1 3.9.7.9 1.5 1.3 2.4 1.3.7.1 1.5-.3 2.2-1.1z"/><linearGradient id="SVGID_27_" gradientUnits="userSpaceOnUse" x1="234.024" y1="71.762" x2="243.693" y2="71.762" gradientTransform="matrix(1 0 0 -1 0 613.6)"><stop offset="0" stop-color="#BF9B01"/><stop offset=".277" stop-color="#DECB4B"/><stop offset=".527" stop-color="#FBF892"/><stop offset=".598" stop-color="#EBDF6B"/><stop offset=".682" stop-color="#DBC645"/><stop offset=".766" stop-color="#CFB327"/><stop offset=".848" stop-color="#C6A511"/><stop offset=".927" stop-color="#C19D04"/><stop offset="1" stop-color="#BF9A00"/></linearGradient><path class="st32" d="M235.8 540.4c0 1.7.4 3 1.2 4s1.8 1.5 2.9 1.5c.8 0 1.4-.2 2-.6.6-.4 1-1.1 1.4-2.1l.4.3c-.2 1.1-.7 2.2-1.5 3.1s-1.9 1.4-3.2 1.4c-1.4 0-2.5-.5-3.5-1.6s-1.5-2.5-1.5-4.3c0-2 .5-3.5 1.5-4.6s2.2-1.7 3.8-1.7c1.3 0 2.4.4 3.2 1.3.8.8 1.2 2 1.2 3.4l-7.9-.1zm0-.8h5.3c-.1-.7-.1-1.3-.3-1.5-.2-.4-.5-.8-1-1.1-.4-.3-.8-.4-1.3-.4-.7 0-1.3.3-1.8.8s-.8 1.3-.9 2.2z"/><linearGradient id="SVGID_28_" gradientUnits="userSpaceOnUse" x1="163.194" y1="51.745" x2="170.376" y2="51.745" gradientTransform="matrix(1 0 0 -1 0 613.6)"><stop offset="0" stop-color="#BF9B01"/><stop offset=".277" stop-color="#DECB4B"/><stop offset=".527" stop-color="#FBF892"/><stop offset=".598" stop-color="#EBDF6B"/><stop offset=".682" stop-color="#DBC645"/><stop offset=".766" stop-color="#CFB327"/><stop offset=".848" stop-color="#C6A511"/><stop offset=".927" stop-color="#C19D04"/><stop offset="1" stop-color="#BF9A00"/></linearGradient><path class="st33" d="M163.2 558.5h1.8l4 5v-3.8c0-.4-.1-.6-.1-.8-.1-.1-.3-.2-.6-.2h-.3v-.2h2.3v.2h-.3c-.3 0-.4.1-.6.3-.1.1-.1.3-.1.7v5.5h-.2l-4.3-5.3v4.1c0 .4.1.6.1.8.1.1.3.2.6.2h.3v.2h-2.3v-.2h.3c.3 0 .5-.1.6-.3.1-.1.1-.3.1-.7v-4.6c-.2-.3-.3-.4-.4-.4l-.4-.2-.4-.1-.1-.2z"/><linearGradient id="SVGID_29_" gradientUnits="userSpaceOnUse" x1="170.722" y1="51.84" x2="176.373" y2="51.84" gradientTransform="matrix(1 0 0 -1 0 613.6)"><stop offset="0" stop-color="#BF9B01"/><stop offset=".277" stop-color="#DECB4B"/><stop offset=".527" stop-color="#FBF892"/><stop offset=".598" stop-color="#EBDF6B"/><stop offset=".682" stop-color="#DBC645"/><stop offset=".766" stop-color="#CFB327"/><stop offset=".848" stop-color="#C6A511"/><stop offset=".927" stop-color="#C19D04"/><stop offset="1" stop-color="#BF9A00"/></linearGradient><path class="st34" d="M172.6 558.9v2.6h1.5c.4 0 .6-.1.8-.2.2-.1.3-.4.3-.8h.2v2.3h-.2c-.1-.3-.1-.5-.1-.6-.1-.1-.1-.2-.3-.3-.1-.1-.3-.1-.6-.1h-1.5v2.2c0 .3 0 .4.1.5 0 .1.1.1.1.1.1.1.2.1.4.1h1.1c.4 0 .6 0 .8-.1.2-.1.3-.1.5-.3s.4-.5.6-.9h.2l-.6 1.7h-5.1v-.2h.3l.4-.1c.1-.1.2-.1.2-.3.1-.1.1-.3.1-.6v-4.3c0-.4-.1-.7-.1-.8-.1-.1-.3-.2-.6-.2h-.3v-.2h5.1l.1 1.5h-.2c-.1-.3-.1-.6-.3-.7-.1-.1-.2-.3-.4-.3-.1-.1-.4-.1-.7-.1l-1.8.1z"/><linearGradient id="SVGID_30_" gradientUnits="userSpaceOnUse" x1="176.732" y1="51.745" x2="185.923" y2="51.745" gradientTransform="matrix(1 0 0 -1 0 613.6)"><stop offset="0" stop-color="#BF9B01"/><stop offset=".277" stop-color="#DECB4B"/><stop offset=".527" stop-color="#FBF892"/><stop offset=".598" stop-color="#EBDF6B"/><stop offset=".682" stop-color="#DBC645"/><stop offset=".766" stop-color="#CFB327"/><stop offset=".848" stop-color="#C6A511"/><stop offset=".927" stop-color="#C19D04"/><stop offset="1" stop-color="#BF9A00"/></linearGradient><path class="st35" d="M185.9 558.5v.2c-.2 0-.3 0-.4.1l-.3.3c-.1.1-.2.4-.3.8l-1.8 5.3h-.2l-1.5-4.2-1.5 4.2h-.2l-2-5.5c-.1-.4-.3-.6-.3-.7-.1-.1-.1-.2-.3-.3-.1-.1-.3-.1-.4-.1v-.2h2.4v.2h-.1c-.2 0-.3.1-.4.1-.1.1-.1.2-.1.3 0 .1.1.4.2.8l1.3 3.7 1.1-3.1-.2-.6-.1-.4c-.1-.2-.1-.3-.3-.4l-.1-.1c-.1-.1-.2-.1-.3-.1h-.3v-.2h2.5v.2h-.2c-.2 0-.3.1-.4.1s-.1.2-.1.3c0 .2.1.4.2.9l1.3 3.6 1.3-3.6c.1-.4.2-.7.2-.8 0-.1 0-.1-.1-.2s-.1-.1-.2-.1c-.1-.1-.3-.1-.5-.1v-.2l2.1-.2z"/><linearGradient id="SVGID_31_" gradientUnits="userSpaceOnUse" x1="188.034" y1="51.777" x2="194.983" y2="51.777" gradientTransform="matrix(1 0 0 -1 0 613.6)"><stop offset="0" stop-color="#BF9B01"/><stop offset=".277" stop-color="#DECB4B"/><stop offset=".527" stop-color="#FBF892"/><stop offset=".598" stop-color="#EBDF6B"/><stop offset=".682" stop-color="#DBC645"/><stop offset=".766" stop-color="#CFB327"/><stop offset=".848" stop-color="#C6A511"/><stop offset=".927" stop-color="#C19D04"/><stop offset="1" stop-color="#BF9A00"/></linearGradient><path class="st36" d="M192.7 558.5h2.3v.2h-.1c-.1 0-.2.1-.4.1-.2.1-.3.2-.4.3-.1.1-.3.4-.5.7l-1.6 2.5v1.7c0 .4.1.6.1.8.1.1.3.2.6.2h.2v.2h-2.9v-.2h.3c.3 0 .4-.1.6-.3.1-.1.1-.3.1-.7v-1.5l-1.8-2.7c-.2-.3-.4-.5-.4-.6s-.3-.2-.4-.3c-.1-.1-.1-.1-.3-.1v-.2h2.8v.2h-.1l-.4.1c-.1.1-.2.2-.2.3s.1.3.3.6l1.4 2.1 1.3-2c.2-.3.3-.5.3-.7 0-.1 0-.2-.1-.3l-.2-.2c-.1-.1-.2-.1-.4-.1l-.1-.1z"/><linearGradient id="SVGID_32_" gradientUnits="userSpaceOnUse" x1="195.484" y1="51.777" x2="201.942" y2="51.777" gradientTransform="matrix(1 0 0 -1 0 613.6)"><stop offset="0" stop-color="#BF9B01"/><stop offset=".277" stop-color="#DECB4B"/><stop offset=".527" stop-color="#FBF892"/><stop offset=".598" stop-color="#EBDF6B"/><stop offset=".682" stop-color="#DBC645"/><stop offset=".766" stop-color="#CFB327"/><stop offset=".848" stop-color="#C6A511"/><stop offset=".927" stop-color="#C19D04"/><stop offset="1" stop-color="#BF9A00"/></linearGradient><path class="st37" d="M198.8 558.4c.8 0 1.6.3 2.2 1s1 1.5 1 2.4c0 1-.3 1.8-1 2.5-.6.6-1.4 1-2.3 1-.9 0-1.7-.3-2.3-1s-1-1.5-1-2.5.4-1.9 1.1-2.5c.7-.7 1.4-.9 2.3-.9zm-.1.3c-.6 0-1.1.2-1.4.6-.4.6-.6 1.3-.6 2.4s.3 1.9.7 2.5c.4.4.8.6 1.4.6.6 0 1.1-.3 1.5-.7.4-.5.6-1.3.6-2.3 0-1.1-.2-2-.6-2.5-.5-.3-1-.6-1.6-.6z"/><linearGradient id="SVGID_33_" gradientUnits="userSpaceOnUse" x1="202.496" y1="51.745" x2="209.063" y2="51.745" gradientTransform="matrix(1 0 0 -1 0 613.6)"><stop offset="0" stop-color="#BF9B01"/><stop offset=".277" stop-color="#DECB4B"/><stop offset=".527" stop-color="#FBF892"/><stop offset=".598" stop-color="#EBDF6B"/><stop offset=".682" stop-color="#DBC645"/><stop offset=".766" stop-color="#CFB327"/><stop offset=".848" stop-color="#C6A511"/><stop offset=".927" stop-color="#C19D04"/><stop offset="1" stop-color="#BF9A00"/></linearGradient><path class="st38" d="M209 565.1h-1.8l-2.2-3.1h-.6v1.9c0 .4.1.7.1.8.1.1.3.2.6.2h.3v.2h-2.8v-.2h.3c.3 0 .5-.1.6-.3.1-.1.1-.3.1-.7v-4.3c0-.4-.1-.7-.1-.8-.1-.1-.3-.2-.6-.2h-.3v-.2h2.4c.7 0 1.2.1 1.5.1s.6.3.8.6c.3.3.3.6.3 1s-.1.8-.4 1.1-.7.5-1.2.6l1.3 1.9c.3.4.6.7.8.9.3.1.5.3.9.3v.2zm-4.6-3.4h.30000000000000004c.6 0 1.1-.1 1.4-.4.3-.3.5-.6.5-1s-.1-.8-.4-1c-.3-.3-.6-.4-1-.4-.2 0-.4 0-.8.1v2.7z"/><linearGradient id="SVGID_34_" gradientUnits="userSpaceOnUse" x1="209.135" y1="51.713" x2="216.244" y2="51.713" gradientTransform="matrix(1 0 0 -1 0 613.6)"><stop offset="0" stop-color="#BF9B01"/><stop offset=".277" stop-color="#DECB4B"/><stop offset=".527" stop-color="#FBF892"/><stop offset=".598" stop-color="#EBDF6B"/><stop offset=".682" stop-color="#DBC645"/><stop offset=".766" stop-color="#CFB327"/><stop offset=".848" stop-color="#C6A511"/><stop offset=".927" stop-color="#C19D04"/><stop offset="1" stop-color="#BF9A00"/></linearGradient><path class="st39" d="M212 561.4l2.4 2.4c.4.4.8.7 1 .8.3.1.6.3.8.3v.2h-3.1v-.2c.2 0 .3 0 .4-.1.1-.1.1-.1.1-.2s0-.1-.1-.2c0-.1-.1-.2-.3-.3l-2.3-2.2v2.1c0 .3 0 .6.1.6l.2.2c.1.1.3.1.4.1h.3v.2h-2.7v-.1h.3c.3 0 .4-.1.6-.3.1-.1.1-.4.1-.8v-4.3c0-.3 0-.6-.1-.6l-.2-.2c-.1-.1-.3-.1-.4-.1h-.3v-.2h2.8v.2h-.3l-.4.1c-.1.1-.2.1-.2.3-.1.1-.1.3-.1.6v2l.6-.6c1-.9 1.5-1.5 1.7-1.8.1-.1.1-.3.1-.3s-.1-.1-.1-.2-.2-.1-.3-.1v-.2h2.4v.2c-.1 0-.3 0-.4.1l-.4.2c-.2.1-.4.3-.6.5l-1 1-1 .9z"/></g></svg>