<?xml version="1.0" encoding="utf-8"?>
<!-- Generator: Adobe Illustrator 19.1.0, SVG Export Plug-In . SVG Version: 6.00 Build 0)  -->
<svg version="1.1" xmlns="http://www.w3.org/2000/svg" xmlns:xlink="http://www.w3.org/1999/xlink" x="0px" y="0px"
	 viewBox="0 0 590.4 1033.2" style="enable-background:new 0 0 590.4 1033.2;" xml:space="preserve">
<style type="text/css">
	.st0{fill:#336667;}
	.st1{fill:#AD9472;}
	.st2{fill:none;stroke:#000000;stroke-miterlimit:10;}
	.st3{opacity:0.25;}
	.st4{fill:#212121;}
	.st5{opacity:0.3;fill:url(#SVGID_1_);}
	.st6{opacity:0.3;}
	.st7{fill:url(#SVGID_2_);}
	.st8{fill:url(#SVGID_3_);}
	.st9{fill:url(#SVGID_4_);}
	.st10{fill:url(#SVGID_5_);}
	.st11{fill:url(#SVGID_6_);}
	.st12{fill:url(#SVGID_7_);}
	.st13{fill:url(#SVGID_8_);}
	.st14{fill:url(#SVGID_9_);}
	.st15{fill:url(#SVGID_10_);}
	.st16{fill:url(#SVGID_11_);}
	.st17{fill:url(#SVGID_12_);}
	.st18{fill:url(#SVGID_13_);}
	.st19{fill:url(#SVGID_14_);}
	.st20{fill:url(#SVGID_15_);}
	.st21{fill:url(#SVGID_16_);}
	.st22{fill:url(#SVGID_17_);}
	.st23{fill:url(#SVGID_18_);}
	.st24{fill:url(#SVGID_19_);}
	.st25{fill:url(#SVGID_20_);}
	.st26{fill:url(#SVGID_21_);}
	.st27{fill:url(#SVGID_22_);}
	.st28{fill:url(#SVGID_23_);}
	.st29{fill:url(#SVGID_24_);}
	.st30{fill:url(#SVGID_25_);}
	.st31{fill:url(#SVGID_26_);}
	.st32{fill:url(#SVGID_27_);}
	.st33{fill:url(#SVGID_28_);}
	.st34{fill:url(#SVGID_29_);}
	.st35{fill:url(#SVGID_30_);}
	.st36{fill:url(#SVGID_31_);}
	.st37{fill:url(#SVGID_32_);}
	.st38{fill:url(#SVGID_33_);}
	.st39{fill:url(#SVGID_34_);}
</style>
<g id="bg">
	<rect x="-9" class="st0" width="599.4" height="1033.2"/>
</g>
<g id="Layer_3">
	<path class="st1" d="M529.6,147.3c0,5.3-0.2,10.8-0.5,16.2l-9,717.1c-1.3,27.3-14.1,52.8-35.2,70.2c-8.7,7.2-18.5,12.7-29,16.5
		c-10.5,3.8-21.6,5.7-32.8,5.7h-259c-25.8,0-50.4-10.2-68.7-28.4l-4.9-4.9c-17.6-17.6-27.8-41.3-28.4-66.2L61.1,320l-2-156.5
		c-0.3-5.4-0.5-10.8-0.5-16.2c0-19.6,2.8-38.2,15.8-53.4c18.8-21.9,46.3-34.5,75.2-34.5h288.9c28.9,0,56.3,12.6,75.2,34.5
		C526.8,109.1,529.6,127.7,529.6,147.3z"/>
</g>
<g id="Layer_2">
	<g>
		<path d="M287.5,59.4l20.3,29.3c1.5,2.2,4.8,2.1,6.2-0.1l19-29.2H287.5z"/>
		<path d="M224.3,62l85.6,144.8c2.8,4.7,9.6,4.6,12.2-0.2L401.5,62c0.6-1.1-0.2-2.5-1.5-2.5h-33.6l-48.3,95.5
			c-0.6,1.2-2.3,1.3-3,0.1l-59.7-95.6h-29.7C224.4,59.4,223.6,60.9,224.3,62z"/>
		<path d="M142.3,59.7c0,0,136.6,198.3,163.5,265.1c2.3,5.7,7.1,15.2,10.4,10L478.9,68c0,0-19.4-11.1-48.4-8.6
			c0,0-75.5,162.1-97.5,220.5c-3.3,8.6-18.1,8.6-22.8,0.6C280,228.4,189.6,59.4,188.5,59.4C187.3,59.4,156.3,59.4,142.3,59.7z"/>
		<path d="M110.2,67.7c5.9,9.4,106.4,168.9,120.1,197.8c1,2,1.9,4,3,5.9c7.6,14.2,35.2,67.5,41.2,100.2c1.1,6.1,2.5,12.2,4.3,18.1
			l9.3,31c3.1,8.9,10.5,19.1,15.4,11l29-55.5l49.5-90c0,0,82.3-152.2,134-189.6c0.4-0.3-3.6-4.5-4.7-5.6l-6.6-6.4
			c-0.4-0.4-0.9,0-1.3,0.4c-9.6,11.5-110.8,133.5-136,196.2c-3.7,9.1-7.8,18-12.3,26.8c-12.1,23.5-33.3,64.3-41.2,80
			c-1.7,3.4-6.3,4.3-9.1,1.7c-5.7-5.3-14-39.5-23.1-58.9c-4.7-9.9-7.4-20.7-13.3-31.6L176,131.5c-8.5-15.5-21.1-28.4-36.4-37.2l0,0
			L123.9,63c-0.1-0.2-3.1,0.7-3.3,0.8l-5.2,1.8C115,65.7,110.1,67.5,110.2,67.7z"/>
		<path d="M72,97.1c0,0,65.9,71.6,89.5,122.1c0,0,39.3,72.2,57.6,126.9c3.3,9.8,7.6,19.3,12.6,28.3c3.9,7,8.5,16.7,11.6,27.9
			c2,7.4,4.4,14.8,7.3,21.9l40.2,103.5c2.2,5.3,9.5,7.1,12.4,2.1l36.6-66.7c3.1-5.6,6.6-11.1,10.4-16.2c5.5-7.3,14.5-20.9,20.6-38.5
			c1.3-3.7,2.7-7.5,4.2-11.1c15.3-36.7,87.4-211.7,154.2-263c0,0-1.3-13.4-2.8-16.4c0,0-81.9,79-131.5,191.3L336,434.7
			c0,0-28.7,64.4-40.8,50c-0.5-0.6-0.8-1.2-1.1-1.9l-26.6-58.5c-2.7-5.9-5-12-6.9-18.2c-3.7-12.1-10.4-33.9-15.7-52.7
			c0,0-27.8-101.8-80.6-173.8L93.2,77.1C93.2,77.1,83,83.4,72,97.1z"/>
		<path d="M529.1,163.5c0,0-39.6,33.4-66.6,85.9c0,0-56.6,106-63.4,132.6c-0.5,2,1.8,3.6,3.5,2.4c6-4.2,17.6-14.5,29.7-36.7
			c1.9-3.5,3.8-6.9,5.8-10.3c16.6-27.8,78.8-141.1,90.4-124.5L529.1,163.5z"/>
		<path d="M97,451.8c5.7,7.1,12.2,11.7,10.7-7.2c-0.2-2.2-0.3-4.4-0.4-6.7c-0.2-6.1-2-24.8-12.3-72.5c-1.7-7.9-2.7-16-2.9-24.2
			c-0.3-11-1.7-29.2-7.3-47.2c-1.1-3.5-2.1-6.9-3-10.4l-22-77.8l2,158l25.1,68.6C89,439.5,92.4,446.1,97,451.8z"/>
		<path d="M474.6,325c-5.2,8.5-9.8,17.4-13.8,26.6c-13,29.3-45.8,59.2-57.5,69.3c-2.1,1.8-4.3,3.4-6.5,4.9
			C381,436.3,354.2,481,342,502.4c-3.5,6-7.1,12-10.9,17.8c-15.9,23.9-18,43.7-18.1,51.2c-0.1,4.2-0.2,8.3-0.4,12.4
			c-1.3,26.1-5.1,100.1-6,118.7c-0.2,3.7-4.9,5.3-7.2,2.4c-8.2-10.2-10.8-48.4-11.6-69.7c-0.3-7.4,0-14.9,0.7-22.3
			c5.5-65.8-57.9-204.1-83.1-256.2c-5.6-11.6-10.7-23.4-15.3-35.4C159.7,243.6,62.3,117,62.3,117c-2.5,8.2-3.4,21.8-3.4,21.8
			c14.1,3.1,69.2,104.2,84,131.2c1.9,3.5,4.1,6.8,6.4,10.1c13.4,19.2,33.6,108.9,42.3,149.6c3.1,14.3,6.6,28.5,10.8,42.5l28,95.1
			c3.8,13,9,25.6,15,37.8c9.5,19.3,14.5,41.5,14.5,41.5c3.2,17.8,24.7,74.9,24.7,74.9c0.8,17.8-16.2-11.4-29.5-36.9
			c-9-17.2-16.2-35.1-21.7-53.7c-17.8-60.3-64.9-202.5-64.9-202.5C122.2,259,99.4,261.6,99.4,261.6c8.9,24.1,19,154.2,19,154.2
			c2.4,48.4,66,158,73.5,170.7c0.7,1.1,1.1,2.3,1.3,3.6c2.4,15.2-49.2-36.6-49.2-36.6c-47.3-43.8-82.3-114.8-82.3-114.8l-0.3,62
			c5.6,21.6,135.6,134,135.6,134c33.9,33.4,50.6,66.3,55.5,77c1.3,2.8,2.7,5.5,4,8.3c22.5,45,16.6,92.4,16.6,92.4
			c-3.6,9.8-14.3-31.1-18.2-46.8c-1.3-5.3-2.8-10.5-4.4-15.7c-27.4-85.1-74.3-116.3-90-124.7c-6.3-3.4-12.5-7.1-18.5-11.2
			c-55.4-37.8-80.3-74.4-80.3-74.4V583c4.6,12.7,56,43.4,56,43.4c20.4,11.9,37.4,23.2,49.9,32.1c23.4,16.8,42.7,38.7,55.9,64.3
			c21.5,41.7,27.5,84.9,29.1,110.9c0.7,11.9-0.3,23.8-2.8,35.4c-8.1,39-0.8,103.7-0.8,103.7h20.3c-15.3-59.9-5.2-100.8-1.3-113
			c0.3-0.8,1.5-0.7,1.5,0.2c2.6,44.1,26.4,112.8,26.4,112.8h32.4c-20.9-53.9-6.3-155.8-6.3-155.8c11.2-103.6,58.9-168.6,73-185.7
			c2-2.4,3.9-4.8,5.7-7.3c15-20.3,75.1-62,75.1-62l48.6-33.3l0.5-37.4l-53.2,52.3c-3.2,3.3-6.6,6.5-10.3,9.3
			c-17.5,13.4-14.9,1-11.9-7.5c1-2.8,2.2-5.5,3.5-8.2c11.7-22.6,21.4-71.6,26.7-103.1c4.4-26,11.6-51.5,21.6-75.9
			c18.1-44.1,25.9-52.7,25.9-52.7L528,251C510.5,260.5,489.2,301.3,474.6,325z M272.7,611c-2.7,12-15.4-19-20.7-32.9
			c-1.3-3.3-2.7-6.5-4.2-9.7c-9.7-20-30.1-90.2-30.1-90.2l-19.4-71.3c-1-3.6-1.3-7.3-0.7-10.9c1.4-8.8,5.8-3.9,8.9,1
			c1.8,2.8,3.3,5.9,4.4,9l12.6,33.9c3.5,9.5,7.9,18.6,13.4,27.1c17.3,26.9,23.7,65.9,25.4,78.7c0.5,3.7,1.1,7.4,1.7,11.1l8.7,49.1
			C273.1,607.5,273.1,609.3,272.7,611z M352.5,544.3c1.8-4.1,3.5-8.3,4.9-12.6c10.8-30.9,50.4-87.1,60.3-100.9
			c2-2.7,4.2-5.2,6.8-7.3c7.6-6.2,6.9-0.4,5.2,5c-1,3.4-2.5,6.6-4.3,9.7L401,479.6c-3.1,5.3-5.9,10.8-8.4,16.5l-23.8,55.8
			l-35.5,81.4c-7.9,18.2-9.4,9.4-9.4,9.4C321.5,618.4,343.8,564.4,352.5,544.3z M505.5,320.9c-0.6,3.9-1.7,7.7-3.3,11.4l-31.4,71.3
			c-3.7,8.3-8.2,16.2-13.3,23.7c-11.4,16.5-22.2,34.8-29.2,47.4c-5.1,9.2-9.6,18.7-13.5,28.5l-29.6,75.6c-0.9,2.2-2.1,4.2-3.6,6
			c-8.5,9.5-11.1,21-11.7,24c0,0.1,0.2,0.2,0.2,0.1c3.1-5,15.4-14.1,15.4-14.1c15.7-8.6,47.1-76.4,54.3-92.2
			c0.8-1.9,1.6-3.7,2.4-5.6c4.5-11.2,7.5-10.9,8.9-9.5c0.7,0.7,1.1,1.7,1,2.7c-3.4,45.5-28.1,79.8-43.1,96.8
			c-4.9,5.5-10.2,10.5-16,15c-41.2,31.1-60.3,87.7-66.1,108.2c-1.2,4.1-2.5,8.2-4.1,12.2c-8.3,21.8-13.2,78.5-15,102.7
			c-0.5,6.5-0.7,13-0.8,19.4c-0.1,24.1-1.8,32.9-3,36.2c-0.4,1.1-2,1.2-2.5,0.2c-8.6-16.6-5.4-111.1-5.4-111.1
			c-0.9-25.5,43.2-129.5,43.2-129.5l38.5-86.4c1-2.4,2-4.8,2.9-7.2c12.6-34.7,36.7-76.3,45.5-91.1c1.6-2.6,3.3-5.1,5.1-7.5
			c9.1-12.3,35.5-67.8,35.5-67.8l28.5-53.4c1.3-2.5,2.8-4.9,4.5-7.2C505.9,311.2,506.2,315.8,505.5,320.9z"/>
		<path class="st2" d="M272.8,605.8c0.3,1.7,0.3,3.5-0.1,5.1c-2.7,12-15.4-19-20.7-32.9c-1.3-3.3-2.7-6.5-4.2-9.7
			c-9.7-20-30.1-90.2-30.1-90.2l-19.4-71.3c-1-3.6-1.3-7.3-0.7-10.9c1.4-8.8,5.8-3.9,8.9,1c1.8,2.8,3.3,5.9,4.4,9l12.6,33.9
			c3.5,9.5,7.9,18.6,13.4,27.1c17.3,26.9,23.7,65.9,25.4,78.7c0.5,3.7,1.1,7.4,1.7,11.1L272.8,605.8z"/>
		<path class="st2" d="M323.9,642.6c-2.4-24.2,19.9-78.2,28.6-98.3c1.8-4.1,3.5-8.3,4.9-12.6c10.8-30.9,50.4-87.1,60.3-100.9
			c2-2.7,4.2-5.2,6.8-7.3c7.6-6.2,6.9-0.4,5.2,5c-1,3.4-2.5,6.6-4.3,9.7L401,479.6c-3.1,5.3-5.9,10.8-8.4,16.5l-23.8,55.8
			l-35.5,81.4C325.4,651.5,323.9,642.6,323.9,642.6z"/>
		<path class="st2" d="M505.5,320.9c-0.6,3.9-1.7,7.7-3.3,11.4l-31.4,71.3c-3.7,8.3-8.2,16.2-13.3,23.7
			c-11.4,16.5-22.2,34.8-29.2,47.4c-5.1,9.2-9.6,18.7-13.5,28.5l-29.6,75.6c-0.9,2.2-2.1,4.2-3.6,6c-8.5,9.5-11.1,21-11.7,24
			c0,0.1,0.2,0.2,0.2,0.1c3.1-5,15.4-14.1,15.4-14.1c15.7-8.6,47.1-76.4,54.3-92.2c0.8-1.9,1.6-3.7,2.4-5.6
			c4.5-11.2,7.5-10.9,8.9-9.5c0.7,0.7,1.1,1.7,1,2.7c-3.4,45.5-28.1,79.8-43.1,96.8c-4.9,5.5-10.2,10.5-16,15
			c-41.2,31.1-60.3,87.7-66.1,108.2c-1.2,4.1-2.5,8.2-4.1,12.2c-8.3,21.8-13.2,78.5-15,102.7c-0.5,6.5-0.7,13-0.8,19.4
			c-0.1,24.1-1.8,32.9-3,36.2c-0.4,1.1-2,1.2-2.5,0.2c-8.6-16.6-5.4-111.1-5.4-111.1c-0.9-25.5,43.2-129.5,43.2-129.5l38.5-86.4
			c1-2.4,2-4.8,2.9-7.2c12.6-34.7,36.7-76.3,45.5-91.1c1.6-2.6,3.3-5.1,5.1-7.5c9.1-12.3,35.5-67.8,35.5-67.8l28.5-53.4
			c1.3-2.5,2.8-4.9,4.5-7.2C505.9,311.2,506.2,315.8,505.5,320.9z"/>
		<path d="M526.9,337.9c0,0-1.1,10.5-5.9,17.5c-5.2,7.6-9,16-12,24.7c-10.5,31.2-29.1,91.9-25.8,121.2c0.3,2.5,3.4,3.4,5,1.5
			l37.2-44.5L526.9,337.9z"/>
		<path d="M120.8,649.9c3.3,1.1,7.6,2.7,12.4,4.9c35.5,16.1,62.6,46.3,75.5,83.1c7.6,21.8,19.3,58.5,17.4,75.9
			c-0.3,2.6-3.7,3.2-4.8,0.8c-10.6-23.7-51.4-110.5-102.6-161.4C117.3,651.7,118.8,649.2,120.8,649.9z"/>
		<path d="M524.3,549.2c0,0-64.9,40.1-87.1,64.4c0,0-86.7,84.4-95.6,191.1c0,0-17.8,130.1,8.2,168.1l23.6,0c0,0,1-38.8,6.8-38.8
			c0,0,7.8-7.2,7.4,38.8l16,0c0,0-23.1-125.9-2.8-187.5c0,0,30.8-96.3,71.6-140.2c1.1-1.1-0.4-2.8-1.7-2
			c-15.4,10-47.6,36.2-71.7,91.8c-1.3,3-2.7,5.9-4.1,8.9c-7.3,14.7-31,67-30,124.7c0,2.7,0,5.3-0.1,8c-0.7,13.8-3.7,56.1-12,52.8
			c-1-0.4-1.7-1.4-1.8-2.5c-1-6.8-5.6-39-1-65.1c0.5-3.2,1-6.4,1.4-9.6c2.4-22.6,14.8-116.3,56.8-167.7c0,0,78.7-89.2,115.9-102.4
			L524.3,549.2z"/>
		<path d="M61.7,617.9c0,0,56.5,61,83.1,111c0,0,16,27.7,22.6,37.2c0.9,1.2,1.8,2.4,2.8,3.5c6.5,7.2,45.8,52.6,45.8,104.5
			c0,0-2,90,3.5,98.2c0.2,0.2,0,0.6-0.3,0.6l-55.6-0.4c-1.2,0-2.3-2-3-2.9l-16.8-22.2c-1.4-1.9-2.9-3.7-4.5-5.4
			c-6.2-6.7-23.8-26.3-32.2-44.3c-1.2-2.5-2.4-5-3.8-7.4l-40.4-50l-0.8-30.4l64.7,83c4,6.2,8.4,12.2,13.1,18
			c6.5,7.9,16.5,20.4,23.6,31c4.1,6.1,9.1,11.5,15.1,15.7c7.5,5.3,15.9,9.2,14.9-0.9c-0.3-2.7-1.1-5.3-2.4-7.7
			c-3.2-6-10.9-21.5-11.9-35.1c0,0-1.4-14.1-2.4-35.6c-0.1-3.2-0.2-6.4-0.2-9.6c0-11-1.7-47.9-23.9-83.5c-1.4-2.3-2.8-4.7-4.1-7
			c-12.8-22.7-79.4-123.8-86.9-128.9L61.7,617.9z"/>
		<path d="M61.8,669.8c0,0,42.9,72.7,62.7,121.1c8,19.5,10.5,40.9,6.7,61.7c-0.3,1.7-0.6,3.2-1,4.5c-0.5,2-3.1,2.5-4.3,0.8
			l-63.8-82.2L61.8,669.8z"/>
		<path d="M523.3,629.9c0,0-100.6,119.5-112.9,232.4c-1.7,15.9-1.4,31.9,0.7,47.8c2.8,21.1,7.8,61.7,2.4,62.5c0,0,25.5,2.1,43.3-5.6
			c0,0,41.3-89,49.4-78.7c0.7,0.9,0.8,2.2,0.5,3.3l-31.5,52.2c0,0,41.5-28.9,44.6-57.9c0-0.2,0.4-5,0.4-5.2l0.8-61.5
			c0,0-50.5,69.5-83.5,86.8c0,0-15.3,8.3-6.6-15.7c0,0,9.8-31.2,15-55.6c1.8-8.2,2.7-16.6,3.1-25.1c0.5-10.2,16.9-56.7,73.9-143.1
			L523.3,629.9"/>
		<path d="M522.5,698.1c0,0-59.6,80.6-60.7,118.9c-0.1,2.3,2.7,3.4,4.3,1.7l55.5-49.2L522.5,698.1z"/>
	</g>
	<g class="st3">
		<g>
			<g>
				<path d="M280.3,59.4l20.3,29.3c1.5,2.2,4.8,2.1,6.2-0.1l19-29.2H280.3z"/>
			</g>
			<path d="M217.1,62l85.6,144.8c2.8,4.7,9.6,4.6,12.2-0.2L394.3,62c0.6-1.1-0.2-2.5-1.5-2.5h-33.6l-48.3,95.5
				c-0.6,1.2-2.3,1.3-3,0.1l-59.7-95.6h-29.7C217.2,59.4,216.4,60.9,217.1,62z"/>
			<path d="M135.8,60.4c0,0,135.9,198.1,162.8,264.9c2.3,5.7,7.1,15.2,10.4,10L471.7,68.5c0,0-20.6-9.6-48.2-9
				c0,0-75.7,162.6-97.7,220.9c-3.3,8.6-18.1,8.6-22.8,0.6C272.8,228.8,182.4,59.9,181.3,59.9C180.1,59.9,148.5,58.4,135.8,60.4z"/>
			<path d="M102.6,71.5c6.5,10,106.4,165.4,120.3,194.4c1,2.1,2.1,4.2,3.2,6.3c7.8,14.6,35.1,67.6,41.1,100c1.1,6,2.4,12,4.2,17.8
				l9.4,31.3c3.1,8.9,10.5,19.1,15.4,11l29-55.5l49.5-90c0,0,83.2-160.2,132.4-199.1c0.5-0.4-3.6-4-4-4.4l-3.8-3
				c-0.6-0.4-0.9,0.1-1.3,0.5c-9.1,11.1-112.6,138.1-138,201c-3.7,9.1-7.8,18.1-12.3,26.8c-12.1,23.5-33.3,64.3-41.2,80
				c-1.7,3.4-6.3,4.3-9.1,1.7c-5.7-5.3-14-39.5-23.1-58.9c-4.7-9.9-7.4-20.7-13.3-31.6L168.7,132c-8.5-15.5-21.1-28.4-36.4-37.2
				l-0.6-2.3l-12.5-28.2l-11.3,4.4C107.5,68.9,102.4,71.2,102.6,71.5z"/>
			<path d="M67.1,104.9c0,0,68.7,72.8,92.3,123.2c0,0,39.3,72.2,57.6,126.9c3.3,9.8,7.6,19.3,12.6,28.3c3.9,7,8.5,16.7,11.6,27.9
				c2,7.4,4.4,14.8,7.3,21.9l40.2,103.5c2.2,5.3,9.5,7.1,12.4,2.1l36.6-66.7c3.1-5.6,6.6-11.1,10.4-16.2
				c5.5-7.3,14.5-20.9,20.6-38.5c1.3-3.7,2.7-7.5,4.2-11.1c15.3-36.7,90-213.4,156.7-264.6c0,0-0.6-16.5-3.5-16.6
				c0,0-83.8,80.8-133.3,193.2l-58.8,125.5c0,0-28.7,64.4-40.8,50c-0.5-0.6-0.8-1.2-1.1-1.9l-26.6-58.5c-2.7-5.9-5-12-6.9-18.2
				c-3.7-12.1-10.4-33.9-15.7-52.7c0,0-27.8-101.8-80.6-173.8L85.6,86.7C85.6,86.7,75.9,88.6,67.1,104.9z"/>
			<path d="M529.1,163.5c0,0-46.8,33.8-73.8,86.3c0,0-56.6,106-63.4,132.6c-0.5,2,1.8,3.6,3.5,2.4c6-4.2,17.6-14.5,29.7-36.7
				c1.9-3.5,3.8-6.9,5.8-10.3c16.6-27.8,86-141.6,97.6-124.9L529.1,163.5z"/>
			<path d="M89.8,458c5.7,7.1,12.2,6,10.7-12.9c-0.2-2.2-0.3-4.4-0.4-6.7c-0.2-6.1-2-24.8-12.3-72.5c-1.7-7.9-2.7-16-2.9-24.2
				c-0.3-11-1.7-29.2-7.3-47.2c-1.1-3.5-2.1-6.9-3-10.4l-14.9-78.3l3,160.8l16.9,66.4C81.8,440,85.2,452.2,89.8,458z"/>
			<path d="M467.4,323c-5.2,8.5-9.8,17.4-13.8,26.6c-13,29.3-45.8,59.2-57.5,69.3c-2.1,1.8-4.3,3.4-6.5,4.9
				c-15.7,10.6-42.5,55.3-54.7,76.7c-3.5,6-7.1,12-10.9,17.8c-15.9,23.9-18,43.7-18.1,51.2c-0.1,4.2-0.2,8.3-0.4,12.4
				c-1.3,26.1-5.1,100.1-6,118.7c-0.2,3.7-4.9,5.3-7.2,2.4c-8.2-10.2-10.8-48.4-11.6-69.7c-0.3-7.4,0-14.9,0.7-22.3
				c5.5-65.8-57.9-204.2-83.1-256.2c-5.6-11.6-10.7-23.4-15.3-35.4C152.5,241.6,62.2,125,62.2,125c-3.8,8.3-3.5,19.2-3.5,19.2
				c14.1,3.1,62.2,96.8,77,123.8c1.9,3.5,4.1,6.8,6.4,10.1c13.4,19.2,33.6,108.9,42.3,149.6c3.1,14.3,6.6,28.5,10.8,42.5l28,95.1
				c3.8,13,9,25.6,15,37.8c9.5,19.3,14.5,41.5,14.5,41.5c3.2,17.8,24.7,74.9,24.7,74.9c0.8,17.8-16.2-11.4-29.5-36.9
				c-9-17.2-16.2-35.1-21.7-53.7c-17.8-60.3-64.9-202.5-64.9-202.5C115,257.1,92.2,259.6,92.2,259.6c8.9,24.1,19,154.2,19,154.2
				c2.4,48.4,66,158,73.5,170.7c0.7,1.1,1.1,2.3,1.3,3.6c2.4,15.2-49.2-36.6-49.2-36.6c-47.3-43.8-75.1-99.4-75.1-99.4l-0.3,54.9
				c5.6,21.6,128.4,125.7,128.4,125.7c33.9,33.4,50.6,66.3,55.5,77c1.3,2.8,2.7,5.5,4,8.3c22.5,45,16.6,92.4,16.6,92.4
				c-3.6,9.8-14.3-31.1-18.2-46.8c-1.3-5.3-2.8-10.5-4.4-15.7c-27.4-85.1-74.3-116.3-90-124.7c-6.3-3.4-12.5-7.1-18.5-11.2
				c-55.4-37.8-73-64.6-73-64.6l0,38.6c4.6,12.7,48.8,38.4,48.8,38.4c20.4,11.9,37.4,23.2,49.9,32.1c23.4,16.8,42.7,38.7,55.9,64.3
				c21.5,41.7,27.5,84.9,29.1,110.9c0.7,11.9-0.3,23.8-2.8,35.4c-8.1,39-0.8,103.2-0.8,103.2h20.3c-15.2-59.9-5.2-100.3-1.3-112.5
				c0.3-0.8,1.5-0.7,1.5,0.2c2.6,44.1,26.4,112.3,26.4,112.3h32.4c-20.9-53.9-6.3-155.4-6.3-155.4c11.2-103.6,58.9-168.6,73-185.7
				c2-2.4,3.9-4.8,5.7-7.3c15-20.3,75.1-62,75.1-62l55.8-36.5l0.6-45.6l-60.6,63.7c-3.2,3.3-6.6,6.5-10.3,9.3
				c-17.5,13.4-14.9,1-11.9-7.5c1-2.8,2.2-5.5,3.5-8.2c11.7-22.6,21.4-71.6,26.7-103.1c4.4-26,11.6-51.5,21.6-75.9
				c18.1-44.1,33.1-53.2,33.1-53.2l0.7-59.2C510.5,253.4,482,299.4,467.4,323z M265.5,609c-2.7,12-15.4-19-20.7-32.9
				c-1.3-3.3-2.7-6.5-4.2-9.7c-9.7-20-30.1-90.2-30.1-90.2l-19.4-71.3c-1-3.6-1.3-7.3-0.7-10.9c1.4-8.8,5.8-3.9,8.9,1
				c1.8,2.8,3.3,5.9,4.4,9l12.6,33.9c3.5,9.5,7.9,18.6,13.4,27.1c17.3,26.9,23.7,65.9,25.4,78.7c0.5,3.7,1.1,7.4,1.7,11.1l8.7,49.1
				C265.9,605.6,265.9,607.4,265.5,609z M345.3,542.4c1.8-4.1,3.5-8.3,4.9-12.6c10.8-30.9,50.4-87.1,60.3-101c2-2.7,4.2-5.2,6.8-7.3
				c7.6-6.2,6.9-0.4,5.2,5c-1,3.4-2.5,6.6-4.3,9.7l-24.5,41.5c-3.1,5.3-5.9,10.8-8.4,16.5L361.6,550l-35.5,81.4
				c-7.9,18.2-9.4,9.4-9.4,9.4C314.3,616.5,336.6,562.5,345.3,542.4z M498.3,319c-0.6,3.9-1.7,7.7-3.3,11.4l-31.4,71.3
				c-3.7,8.3-8.2,16.2-13.3,23.7c-11.4,16.5-22.2,34.8-29.2,47.4c-5.1,9.2-9.6,18.7-13.5,28.5L378,576.9c-0.9,2.2-2.1,4.2-3.6,6
				c-8.5,9.5-11.1,21-11.7,24c0,0.1,0.2,0.2,0.2,0.1c3.1-5,15.4-14.1,15.4-14.1c15.7-8.6,47.1-76.4,54.3-92.2
				c0.8-1.9,1.6-3.7,2.4-5.6c4.5-11.2,7.5-10.9,8.9-9.5c0.7,0.7,1.1,1.7,1,2.7c-3.4,45.5-28.1,79.8-43.1,96.8
				c-4.9,5.5-10.2,10.5-16,15c-41.2,31.1-60.3,87.7-66.1,108.2c-1.2,4.1-2.5,8.2-4.1,12.2c-8.3,21.8-13.2,78.5-15,102.7
				c-0.5,6.5-0.7,13-0.8,19.4c-0.1,24.1-1.8,32.9-3,36.2c-0.4,1.1-2,1.2-2.5,0.2c-8.6-16.6-5.4-111.1-5.4-111.1
				c-0.9-25.5,43.2-129.5,43.2-129.5l38.5-86.4c1-2.4,2-4.8,2.9-7.2c12.6-34.7,36.7-76.3,45.5-91.1c1.6-2.6,3.3-5.1,5.1-7.5
				c9.1-12.3,35.5-67.8,35.5-67.8l28.5-53.4c1.3-2.5,2.8-4.9,4.5-7.2C498.7,309.2,499,313.8,498.3,319z"/>
			<path d="M526.9,333.9c0,0-8.3,15-13,22.1c-5.2,7.6-9,16-12,24.7c-10.5,31.2-29.1,91.9-25.8,121.2c0.3,2.5,3.4,3.4,5,1.5l41.9-47
				L526.9,333.9z"/>
			<path d="M113.6,650.3c3.3,1.1,7.6,2.7,12.4,4.9c35.5,16.1,62.6,46.3,75.5,83.1c7.6,21.8,19.3,58.5,17.4,75.9
				c-0.3,2.6-3.7,3.2-4.8,0.8c-10.6-23.7-51.4-110.5-102.6-161.4C110.1,652.1,111.7,649.7,113.6,650.3z"/>
			<path d="M524.3,540.1c0,0-72.1,49.8-94.3,74.1c0,0-86.7,84.4-95.6,191.1c0,0-17.8,129.6,8.2,167.6l23.6,0c0,0,1-38.3,6.7-38.3
				c0,0,7.8-7.7,7.4,38.3h16c0,0-23.1-125.4-2.8-187.1c0,0,30.8-96.3,71.6-140.2c1.1-1.1-0.4-2.8-1.7-2
				c-15.4,10-47.6,36.2-71.7,91.8c-1.3,3-2.7,5.9-4.1,8.9c-7.3,14.7-31,67-30,124.7c0,2.7,0,5.3-0.1,8c-0.7,13.8-3.7,56.1-12,52.8
				c-1-0.4-1.7-1.4-1.8-2.5c-1-6.8-5.6-39-1-65.1c0.5-3.2,1-6.4,1.4-9.6c2.4-22.6,14.8-116.3,56.8-167.7c0,0,85.9-93.8,123.1-107
				L524.3,540.1z"/>
			<path d="M62.6,625.6c0,0,48.4,53.8,75,103.9c0,0,16,27.7,22.6,37.2c0.9,1.2,1.8,2.4,2.8,3.5c6.5,7.2,45.8,52.6,45.8,104.5
				c0,0-2.2,98.3,4.3,98.3l-34.4-0.8c-2.2-0.1-4.3,0.1-6.4,0.6c-11.8,2.7-22.7-7.7-29.9-17.2l-5.8-7.7c-1.4-1.9-2.9-3.7-4.5-5.4
				c-6.2-6.7-23.8-26.3-32.2-44.3l0,0c-2.1-4.5-4.9-8.5-8.3-12.1L63,856.3l-0.7-27.8l57.5,64.8c4,6.2,8.4,12.2,13.1,18
				c6.6,8,16.7,20.7,23.8,31.4c4.2,6.3,9.5,11.7,15.8,16c7.2,5,15,8.2,14-1.5c-0.3-2.7-1.1-5.3-2.4-7.7c-3.2-6-10.9-21.5-11.9-35.1
				c0,0-1.4-14.2-2.4-35.8c-0.1-3.1-0.2-6.3-0.2-9.5c0-11-1.7-47.9-23.9-83.4c-1.4-2.3-2.8-4.7-4.1-7
				c-12.8-22.7-72.3-123.2-79.7-128.3L62.6,625.6z"/>
			<path d="M61.8,671.1c0,0,35.6,71.2,55.5,119.6c8,19.5,10.5,40.9,6.7,61.7c-0.3,1.7-0.6,3.2-1,4.5c-0.5,2-3.1,2.5-4.3,0.8
				l-56.6-76.5L61.8,671.1z"/>
			<path d="M523.5,614.6c0,0-108,135.2-120.3,248.1c-1.7,15.9-1.4,31.9,0.7,47.8c2.8,21.1,14.6,61.7,8.3,62.4c0,0,24.3,0.5,37.4-14
				c0,0,29.5-83.8,37.7-73.5c0.3,0.4,0.8,1.4,1.3,2.4c0.9,2,14.6,5,14,7.2l-27.4,48.7c0,0,44.8-33,45.1-69.6l0.7-54.9
				c0,0-57.6,69.9-90.7,87.3c0,0-15.3,8.3-6.6-15.7c0,0,9.8-31.2,15-55.6c1.8-8.2,2.7-16.6,3.1-25.1c0.5-10.2,6.7-47.2,63.7-133.7
				l17.8-44.5"/>
			<path d="M522.6,692.6c0,0-59.7,82.9-60.8,121.2c-0.1,2.3,2.7,3.4,4.3,1.7l55.5-46L522.6,692.6z"/>
		</g>
	</g>
	<path d="M133,81.7h93.1c20.6,0,37.3,16.7,37.3,37.3v23.3c0,20.6-16.7,37.3-37.3,37.3H133c-20.6,0-37.3-16.7-37.3-37.3v-23.3
		C95.6,98.5,112.3,81.7,133,81.7z"/>
	<path class="st4" d="M139.1,90.3h80c20.6,0,37.3,16.7,37.3,37.3v7.7c0,20.6-16.7,37.3-37.3,37.3h-80c-20.6,0-37.3-16.7-37.3-37.3
		v-7.7C101.8,107.1,118.5,90.3,139.1,90.3z"/>
</g>
<g id="Layer_4">
	<linearGradient id="SVGID_1_" gradientUnits="userSpaceOnUse" x1="280.1818" y1="846.8796" x2="297.8639" y2="862.8006">
		<stop  offset="0" style="stop-color:#BF9B01"/>
		<stop  offset="0.2766" style="stop-color:#DECB4B"/>
		<stop  offset="0.5271" style="stop-color:#FBF892"/>
		<stop  offset="0.5982" style="stop-color:#EBDF6B"/>
		<stop  offset="0.6823" style="stop-color:#DBC645"/>
		<stop  offset="0.7659" style="stop-color:#CFB327"/>
		<stop  offset="0.8476" style="stop-color:#C6A511"/>
		<stop  offset="0.9267" style="stop-color:#C19D04"/>
		<stop  offset="1" style="stop-color:#BF9A00"/>
	</linearGradient>
	<path class="st5" d="M295.5,865.4h-12.2c0,0,3.6-3.2,3.6-7.6c0,0-9.9,2-10.3-4.3c-0.1-2.2,1-4.4,2.9-5.6c2.7-1.9,7.2-5.2,9.7-7.6h0
		c2.5,2.4,7.1,5.8,9.7,7.6c1.8,1.3,3,3.4,2.9,5.6c-0.4,6.3-10.3,4.3-10.3,4.3c0,4.4,3.6,7.6,3.6,7.6H283"/>
	<g class="st6">
		<g>
			<linearGradient id="SVGID_2_" gradientUnits="userSpaceOnUse" x1="201.5761" y1="882.9142" x2="221.519" y2="882.9142">
				<stop  offset="0" style="stop-color:#BF9B01"/>
				<stop  offset="0.2766" style="stop-color:#DECB4B"/>
				<stop  offset="0.5271" style="stop-color:#FBF892"/>
				<stop  offset="0.5982" style="stop-color:#EBDF6B"/>
				<stop  offset="0.6823" style="stop-color:#DBC645"/>
				<stop  offset="0.7659" style="stop-color:#CFB327"/>
				<stop  offset="0.8476" style="stop-color:#C6A511"/>
				<stop  offset="0.9267" style="stop-color:#C19D04"/>
				<stop  offset="1" style="stop-color:#BF9A00"/>
			</linearGradient>
			<path class="st7" d="M207.8,869v17.8l4.6-4.1c1-0.9,1.5-1.4,1.7-1.7c0.1-0.2,0.2-0.3,0.2-0.5c0-0.3-0.1-0.5-0.3-0.7
				c-0.2-0.2-0.6-0.3-1.1-0.3v-0.6h7.8v0.6c-1.1,0-2,0.2-2.7,0.5c-0.7,0.3-1.5,0.8-2.3,1.6l-4.6,4.2l4.6,5.8
				c1.3,1.6,2.1,2.6,2.6,3.1c0.6,0.6,1.2,1,1.6,1.2c0.3,0.1,0.9,0.2,1.7,0.2v0.7h-8.7v-0.7c0.5,0,0.8-0.1,1-0.2
				c0.2-0.1,0.3-0.3,0.3-0.6c0-0.3-0.3-0.8-0.8-1.4l-5.5-7v6c0,1.2,0.1,1.9,0.2,2.3c0.2,0.4,0.4,0.6,0.7,0.8s1,0.2,2,0.3v0.7h-9.1
				v-0.7c0.9,0,1.6-0.1,2.1-0.3c0.3-0.1,0.5-0.4,0.6-0.7c0.2-0.4,0.3-1.2,0.3-2.2v-16.3c0-2.1,0-3.3-0.1-3.8s-0.2-0.8-0.5-1
				s-0.5-0.3-0.8-0.3c-0.3,0-0.7,0.1-1.2,0.3l-0.3-0.7l5.3-2.2H207.8z"/>
			<linearGradient id="SVGID_3_" gradientUnits="userSpaceOnUse" x1="222.7128" y1="887.7878" x2="238.996" y2="887.7878">
				<stop  offset="0" style="stop-color:#BF9B01"/>
				<stop  offset="0.2766" style="stop-color:#DECB4B"/>
				<stop  offset="0.5271" style="stop-color:#FBF892"/>
				<stop  offset="0.5982" style="stop-color:#EBDF6B"/>
				<stop  offset="0.6823" style="stop-color:#DBC645"/>
				<stop  offset="0.7659" style="stop-color:#CFB327"/>
				<stop  offset="0.8476" style="stop-color:#C6A511"/>
				<stop  offset="0.9267" style="stop-color:#C19D04"/>
				<stop  offset="1" style="stop-color:#BF9A00"/>
			</linearGradient>
			<path class="st8" d="M232.7,894.2c-1.8,1.4-3,2.2-3.5,2.5c-0.7,0.3-1.5,0.5-2.3,0.5c-1.2,0-2.3-0.4-3.1-1.3
				c-0.8-0.8-1.2-2-1.2-3.3c0-0.9,0.2-1.6,0.6-2.3c0.5-0.9,1.5-1.7,2.8-2.5c1.3-0.8,3.5-1.7,6.6-2.9v-0.7c0-1.8-0.3-3-0.9-3.7
				c-0.6-0.7-1.4-1-2.5-1c-0.8,0-1.5,0.2-2,0.7c-0.5,0.4-0.7,1-0.7,1.5l0,1.1c0,0.6-0.2,1.1-0.5,1.4c-0.3,0.3-0.7,0.5-1.2,0.5
				c-0.5,0-0.9-0.2-1.2-0.5c-0.3-0.3-0.5-0.8-0.5-1.4c0-1.1,0.6-2.2,1.7-3.1c1.1-0.9,2.8-1.4,4.8-1.4c1.6,0,2.9,0.3,3.9,0.8
				c0.8,0.4,1.3,1,1.7,1.9c0.2,0.6,0.4,1.7,0.4,3.4v6.1c0,1.7,0,2.8,0.1,3.1s0.2,0.6,0.3,0.8c0.1,0.1,0.3,0.2,0.5,0.2
				c0.2,0,0.4,0,0.5-0.1c0.3-0.2,0.8-0.6,1.6-1.4v1.1c-1.5,2-2.9,2.9-4.2,2.9c-0.6,0-1.1-0.2-1.5-0.7S232.7,895.3,232.7,894.2z
				 M232.7,893v-6.8c-2,0.8-3.2,1.3-3.8,1.7c-1,0.6-1.8,1.2-2.2,1.8s-0.7,1.3-0.7,2.1c0,0.9,0.3,1.7,0.8,2.3
				c0.6,0.6,1.2,0.9,1.9,0.9C229.8,894.9,231.1,894.3,232.7,893z"/>
			<linearGradient id="SVGID_4_" gradientUnits="userSpaceOnUse" x1="239.4658" y1="885.0671" x2="250.269" y2="885.0671">
				<stop  offset="0" style="stop-color:#BF9B01"/>
				<stop  offset="0.2766" style="stop-color:#DECB4B"/>
				<stop  offset="0.5271" style="stop-color:#FBF892"/>
				<stop  offset="0.5982" style="stop-color:#EBDF6B"/>
				<stop  offset="0.6823" style="stop-color:#DBC645"/>
				<stop  offset="0.7659" style="stop-color:#CFB327"/>
				<stop  offset="0.8476" style="stop-color:#C6A511"/>
				<stop  offset="0.9267" style="stop-color:#C19D04"/>
				<stop  offset="1" style="stop-color:#BF9A00"/>
			</linearGradient>
			<path class="st9" d="M245.5,873v5.9h4.2v1.4h-4.2v11.6c0,1.2,0.2,1.9,0.5,2.3s0.8,0.6,1.3,0.6c0.4,0,0.8-0.1,1.3-0.4
				s0.7-0.7,0.9-1.2h0.8c-0.5,1.3-1.1,2.2-1.9,2.9c-0.8,0.6-1.7,1-2.6,1c-0.6,0-1.2-0.2-1.8-0.5c-0.6-0.3-1-0.8-1.3-1.4
				c-0.3-0.6-0.4-1.6-0.4-2.9v-12.1h-2.8v-0.6c0.7-0.3,1.5-0.8,2.2-1.5c0.8-0.7,1.4-1.5,2-2.4c0.3-0.5,0.7-1.4,1.3-2.7H245.5z"/>
			<linearGradient id="SVGID_5_" gradientUnits="userSpaceOnUse" x1="251.6977" y1="887.8659" x2="266.8652" y2="887.8659">
				<stop  offset="0" style="stop-color:#BF9B01"/>
				<stop  offset="0.2766" style="stop-color:#DECB4B"/>
				<stop  offset="0.5271" style="stop-color:#FBF892"/>
				<stop  offset="0.5982" style="stop-color:#EBDF6B"/>
				<stop  offset="0.6823" style="stop-color:#DBC645"/>
				<stop  offset="0.7659" style="stop-color:#CFB327"/>
				<stop  offset="0.8476" style="stop-color:#C6A511"/>
				<stop  offset="0.9267" style="stop-color:#C19D04"/>
				<stop  offset="1" style="stop-color:#BF9A00"/>
			</linearGradient>
			<path class="st10" d="M254.5,885.7c0,2.7,0.6,4.7,1.9,6.3c1.3,1.5,2.8,2.3,4.6,2.3c1.2,0,2.2-0.3,3.1-1c0.9-0.6,1.6-1.8,2.2-3.3
				l0.6,0.4c-0.3,1.8-1.1,3.4-2.4,4.9s-3,2.2-5,2.2c-2.2,0-4-0.8-5.5-2.5c-1.5-1.7-2.3-3.9-2.3-6.8c0-3.1,0.8-5.5,2.4-7.2
				s3.5-2.6,5.9-2.6c2,0,3.7,0.7,5,2c1.3,1.3,1.9,3.1,1.9,5.3H254.5z M254.5,884.5h8.3c-0.1-1.1-0.2-2-0.4-2.4
				c-0.3-0.7-0.8-1.3-1.5-1.7c-0.6-0.4-1.3-0.6-2-0.6c-1.1,0-2.1,0.4-2.9,1.3S254.6,883,254.5,884.5z"/>
			<linearGradient id="SVGID_6_" gradientUnits="userSpaceOnUse" x1="279.9775" y1="887.8757" x2="292.2094" y2="887.8757">
				<stop  offset="0" style="stop-color:#BF9B01"/>
				<stop  offset="0.2766" style="stop-color:#DECB4B"/>
				<stop  offset="0.5271" style="stop-color:#FBF892"/>
				<stop  offset="0.5982" style="stop-color:#EBDF6B"/>
				<stop  offset="0.6823" style="stop-color:#DBC645"/>
				<stop  offset="0.7659" style="stop-color:#CFB327"/>
				<stop  offset="0.8476" style="stop-color:#C6A511"/>
				<stop  offset="0.9267" style="stop-color:#C19D04"/>
				<stop  offset="1" style="stop-color:#BF9A00"/>
			</linearGradient>
			<path class="st11" d="M290.9,878.4v6.1h-0.6c-0.5-1.9-1.1-3.2-1.9-3.9c-0.8-0.7-1.8-1-3-1c-0.9,0-1.7,0.2-2.2,0.7
				c-0.6,0.5-0.8,1-0.8,1.6c0,0.7,0.2,1.4,0.6,1.9c0.4,0.5,1.2,1.1,2.5,1.7l2.9,1.4c2.6,1.3,4,3,4,5.1c0,1.6-0.6,2.9-1.8,3.9
				s-2.6,1.5-4.1,1.5c-1.1,0-2.3-0.2-3.8-0.6c-0.4-0.1-0.8-0.2-1.1-0.2c-0.3,0-0.5,0.2-0.7,0.5h-0.6v-6.4h0.6
				c0.4,1.8,1.1,3.2,2.1,4.1c1,0.9,2.2,1.4,3.5,1.4c0.9,0,1.6-0.3,2.2-0.8c0.6-0.5,0.9-1.2,0.9-1.9c0-0.9-0.3-1.7-0.9-2.3
				c-0.6-0.6-1.9-1.4-3.8-2.3s-3.1-1.8-3.7-2.5c-0.6-0.7-0.9-1.7-0.9-2.8c0-1.5,0.5-2.7,1.5-3.7s2.3-1.5,3.9-1.5
				c0.7,0,1.6,0.1,2.6,0.5c0.7,0.2,1.1,0.3,1.3,0.3c0.2,0,0.4,0,0.5-0.1c0.1-0.1,0.3-0.3,0.4-0.6H290.9z"/>
			<linearGradient id="SVGID_7_" gradientUnits="userSpaceOnUse" x1="293.4814" y1="891.8879" x2="312.29" y2="891.8879">
				<stop  offset="0" style="stop-color:#BF9B01"/>
				<stop  offset="0.2766" style="stop-color:#DECB4B"/>
				<stop  offset="0.5271" style="stop-color:#FBF892"/>
				<stop  offset="0.5982" style="stop-color:#EBDF6B"/>
				<stop  offset="0.6823" style="stop-color:#DBC645"/>
				<stop  offset="0.7659" style="stop-color:#CFB327"/>
				<stop  offset="0.8476" style="stop-color:#C6A511"/>
				<stop  offset="0.9267" style="stop-color:#C19D04"/>
				<stop  offset="1" style="stop-color:#BF9A00"/>
			</linearGradient>
			<path class="st12" d="M293.6,880.7l5.5-2.2h0.7v4.2c0.9-1.6,1.9-2.7,2.8-3.3c0.9-0.6,1.9-0.9,2.9-0.9c1.8,0,3.3,0.7,4.5,2.1
				c1.5,1.7,2.2,4,2.2,6.7c0,3.1-0.9,5.6-2.7,7.7c-1.5,1.7-3.3,2.5-5.5,2.5c-1,0-1.8-0.1-2.5-0.4c-0.5-0.2-1.1-0.6-1.8-1.2v5.5
				c0,1.2,0.1,2,0.2,2.3s0.4,0.6,0.8,0.8c0.4,0.2,1,0.3,2,0.3v0.7h-9.4v-0.7h0.5c0.7,0,1.3-0.1,1.8-0.4c0.2-0.1,0.4-0.4,0.6-0.7
				c0.1-0.3,0.2-1.1,0.2-2.4v-16.9c0-1.2-0.1-1.9-0.2-2.2c-0.1-0.3-0.3-0.5-0.5-0.7c-0.2-0.2-0.5-0.2-0.9-0.2
				c-0.3,0-0.7,0.1-1.2,0.3L293.6,880.7z M299.8,883.8v6.7c0,1.4,0.1,2.4,0.2,2.9c0.2,0.8,0.6,1.4,1.3,2s1.6,0.9,2.7,0.9
				c1.3,0,2.4-0.5,3.2-1.5c1.1-1.3,1.6-3.2,1.6-5.6c0-2.7-0.6-4.8-1.8-6.3c-0.8-1-1.8-1.5-3-1.5c-0.6,0-1.2,0.2-1.9,0.5
				C301.7,881.9,300.9,882.6,299.8,883.8z"/>
			<linearGradient id="SVGID_8_" gradientUnits="userSpaceOnUse" x1="315.0878" y1="887.7878" x2="331.371" y2="887.7878">
				<stop  offset="0" style="stop-color:#BF9B01"/>
				<stop  offset="0.2766" style="stop-color:#DECB4B"/>
				<stop  offset="0.5271" style="stop-color:#FBF892"/>
				<stop  offset="0.5982" style="stop-color:#EBDF6B"/>
				<stop  offset="0.6823" style="stop-color:#DBC645"/>
				<stop  offset="0.7659" style="stop-color:#CFB327"/>
				<stop  offset="0.8476" style="stop-color:#C6A511"/>
				<stop  offset="0.9267" style="stop-color:#C19D04"/>
				<stop  offset="1" style="stop-color:#BF9A00"/>
			</linearGradient>
			<path class="st13" d="M325.1,894.2c-1.8,1.4-3,2.2-3.5,2.5c-0.7,0.3-1.5,0.5-2.3,0.5c-1.2,0-2.3-0.4-3.1-1.3
				c-0.8-0.8-1.2-2-1.2-3.3c0-0.9,0.2-1.6,0.6-2.3c0.5-0.9,1.5-1.7,2.8-2.5c1.3-0.8,3.5-1.7,6.6-2.9v-0.7c0-1.8-0.3-3-0.9-3.7
				c-0.6-0.7-1.4-1-2.5-1c-0.8,0-1.5,0.2-2,0.7c-0.5,0.4-0.7,1-0.7,1.5l0,1.1c0,0.6-0.2,1.1-0.5,1.4s-0.7,0.5-1.2,0.5
				c-0.5,0-0.9-0.2-1.2-0.5s-0.5-0.8-0.5-1.4c0-1.1,0.6-2.2,1.7-3.1c1.1-0.9,2.8-1.4,4.8-1.4c1.6,0,2.9,0.3,3.9,0.8
				c0.8,0.4,1.3,1,1.7,1.9c0.2,0.6,0.4,1.7,0.4,3.4v6.1c0,1.7,0,2.8,0.1,3.1c0.1,0.4,0.2,0.6,0.3,0.8c0.2,0.1,0.3,0.2,0.5,0.2
				c0.2,0,0.4,0,0.5-0.1c0.3-0.2,0.8-0.6,1.6-1.4v1.1c-1.5,2-2.9,2.9-4.2,2.9c-0.6,0-1.1-0.2-1.5-0.7
				C325.3,896.1,325.1,895.3,325.1,894.2z M325.1,893v-6.8c-2,0.8-3.2,1.3-3.8,1.7c-1,0.6-1.8,1.2-2.2,1.8s-0.7,1.3-0.7,2.1
				c0,0.9,0.3,1.7,0.8,2.3c0.6,0.6,1.2,0.9,1.9,0.9C322.1,894.9,323.5,894.3,325.1,893z"/>
			<linearGradient id="SVGID_9_" gradientUnits="userSpaceOnUse" x1="332.7802" y1="883.1882" x2="351.5878" y2="883.1882">
				<stop  offset="0" style="stop-color:#BF9B01"/>
				<stop  offset="0.2766" style="stop-color:#DECB4B"/>
				<stop  offset="0.5271" style="stop-color:#FBF892"/>
				<stop  offset="0.5982" style="stop-color:#EBDF6B"/>
				<stop  offset="0.6823" style="stop-color:#DBC645"/>
				<stop  offset="0.7659" style="stop-color:#CFB327"/>
				<stop  offset="0.8476" style="stop-color:#C6A511"/>
				<stop  offset="0.9267" style="stop-color:#C19D04"/>
				<stop  offset="1" style="stop-color:#BF9A00"/>
			</linearGradient>
			<path class="st14" d="M345.4,894.8c-0.9,0.9-1.7,1.6-2.6,2c-0.8,0.4-1.7,0.6-2.7,0.6c-2,0-3.7-0.8-5.1-2.5
				c-1.5-1.6-2.2-3.7-2.2-6.3s0.8-4.9,2.4-7.1c1.6-2.1,3.7-3.2,6.2-3.2c1.6,0,2.9,0.5,3.9,1.5v-3.3c0-2,0-3.3-0.1-3.8
				c-0.1-0.5-0.3-0.8-0.5-1c-0.2-0.2-0.5-0.3-0.8-0.3c-0.3,0-0.8,0.1-1.4,0.3l-0.3-0.7l5.3-2.2h0.9v20.7c0,2.1,0,3.4,0.1,3.8
				c0.1,0.5,0.3,0.8,0.5,1c0.2,0.2,0.5,0.3,0.8,0.3c0.4,0,0.8-0.1,1.4-0.3l0.2,0.7l-5.3,2.2h-0.9V894.8z M345.4,893.4v-9.2
				c-0.1-0.9-0.3-1.7-0.7-2.4c-0.4-0.7-0.9-1.3-1.6-1.7c-0.6-0.4-1.3-0.6-1.9-0.6c-1.1,0-2.2,0.5-3.1,1.5c-1.2,1.4-1.8,3.3-1.8,6
				c0,2.6,0.6,4.7,1.7,6.1c1.1,1.4,2.4,2.1,3.8,2.1C343.1,895.2,344.3,894.6,345.4,893.4z"/>
			<linearGradient id="SVGID_10_" gradientUnits="userSpaceOnUse" x1="352.9775" y1="887.8659" x2="368.1454" y2="887.8659">
				<stop  offset="0" style="stop-color:#BF9B01"/>
				<stop  offset="0.2766" style="stop-color:#DECB4B"/>
				<stop  offset="0.5271" style="stop-color:#FBF892"/>
				<stop  offset="0.5982" style="stop-color:#EBDF6B"/>
				<stop  offset="0.6823" style="stop-color:#DBC645"/>
				<stop  offset="0.7659" style="stop-color:#CFB327"/>
				<stop  offset="0.8476" style="stop-color:#C6A511"/>
				<stop  offset="0.9267" style="stop-color:#C19D04"/>
				<stop  offset="1" style="stop-color:#BF9A00"/>
			</linearGradient>
			<path class="st15" d="M355.8,885.7c0,2.7,0.6,4.7,1.9,6.3s2.8,2.3,4.6,2.3c1.2,0,2.2-0.3,3.1-1c0.9-0.6,1.6-1.8,2.2-3.3l0.6,0.4
				c-0.3,1.8-1.1,3.4-2.4,4.9c-1.3,1.5-3,2.2-5,2.2c-2.2,0-4-0.8-5.5-2.5s-2.3-3.9-2.3-6.8c0-3.1,0.8-5.5,2.4-7.2s3.5-2.6,5.9-2.6
				c2,0,3.7,0.7,5,2c1.3,1.3,1.9,3.1,1.9,5.3H355.8z M355.8,884.5h8.3c-0.1-1.1-0.2-2-0.4-2.4c-0.3-0.7-0.8-1.3-1.5-1.7
				c-0.6-0.4-1.3-0.6-2-0.6c-1.1,0-2.1,0.4-2.9,1.3S355.9,883,355.8,884.5z"/>
		</g>
	</g>
	<g class="st6">
		<g>
			<linearGradient id="SVGID_11_" gradientUnits="userSpaceOnUse" x1="241.8701" y1="919.3762" x2="253.1371" y2="919.3762">
				<stop  offset="0" style="stop-color:#BF9B01"/>
				<stop  offset="0.2766" style="stop-color:#DECB4B"/>
				<stop  offset="0.5271" style="stop-color:#FBF892"/>
				<stop  offset="0.5982" style="stop-color:#EBDF6B"/>
				<stop  offset="0.6823" style="stop-color:#DBC645"/>
				<stop  offset="0.7659" style="stop-color:#CFB327"/>
				<stop  offset="0.8476" style="stop-color:#C6A511"/>
				<stop  offset="0.9267" style="stop-color:#C19D04"/>
				<stop  offset="1" style="stop-color:#BF9A00"/>
			</linearGradient>
			<path class="st16" d="M241.9,914.1h2.8l6.3,7.8v-6c0-0.6-0.1-1-0.2-1.2c-0.2-0.2-0.5-0.3-0.9-0.3h-0.4v-0.3h3.6v0.3h-0.4
				c-0.4,0-0.7,0.1-0.9,0.4c-0.1,0.2-0.2,0.5-0.2,1.1v8.7h-0.3l-6.8-8.3v6.4c0,0.6,0.1,1,0.2,1.2c0.2,0.2,0.5,0.3,0.9,0.3h0.4v0.3
				h-3.6v-0.3h0.4c0.4,0,0.8-0.1,0.9-0.4c0.1-0.2,0.2-0.5,0.2-1.1v-7.2c-0.3-0.4-0.5-0.6-0.7-0.7c-0.2-0.1-0.4-0.2-0.7-0.3
				c-0.1,0-0.4-0.1-0.7-0.1V914.1z"/>
			<linearGradient id="SVGID_12_" gradientUnits="userSpaceOnUse" x1="253.6786" y1="919.2922" x2="262.5429" y2="919.2922">
				<stop  offset="0" style="stop-color:#BF9B01"/>
				<stop  offset="0.2766" style="stop-color:#DECB4B"/>
				<stop  offset="0.5271" style="stop-color:#FBF892"/>
				<stop  offset="0.5982" style="stop-color:#EBDF6B"/>
				<stop  offset="0.6823" style="stop-color:#DBC645"/>
				<stop  offset="0.7659" style="stop-color:#CFB327"/>
				<stop  offset="0.8476" style="stop-color:#C6A511"/>
				<stop  offset="0.9267" style="stop-color:#C19D04"/>
				<stop  offset="1" style="stop-color:#BF9A00"/>
			</linearGradient>
			<path class="st17" d="M256.6,914.7v4.1h2.3c0.6,0,1-0.1,1.2-0.3c0.3-0.2,0.4-0.6,0.4-1.2h0.3v3.6h-0.3c-0.1-0.5-0.1-0.8-0.2-1
				c-0.1-0.2-0.2-0.3-0.4-0.4c-0.2-0.1-0.5-0.2-1-0.2h-2.3v3.4c0,0.5,0,0.7,0.1,0.8c0,0.1,0.1,0.2,0.2,0.2c0.1,0.1,0.3,0.1,0.6,0.1
				h1.8c0.6,0,1,0,1.3-0.1c0.3-0.1,0.5-0.2,0.8-0.5c0.3-0.3,0.6-0.8,1-1.4h0.3l-0.9,2.6h-8v-0.3h0.4c0.2,0,0.5-0.1,0.7-0.2
				c0.2-0.1,0.3-0.2,0.3-0.4c0.1-0.2,0.1-0.5,0.1-1v-6.7c0-0.7-0.1-1.1-0.2-1.2c-0.2-0.2-0.5-0.3-0.9-0.3h-0.4v-0.3h8l0.1,2.3h-0.3
				c-0.1-0.5-0.2-0.9-0.4-1.1c-0.1-0.2-0.3-0.4-0.6-0.5c-0.2-0.1-0.6-0.1-1.1-0.1H256.6z"/>
			<linearGradient id="SVGID_13_" gradientUnits="userSpaceOnUse" x1="263.1074" y1="919.4103" x2="277.5248" y2="919.4103">
				<stop  offset="0" style="stop-color:#BF9B01"/>
				<stop  offset="0.2766" style="stop-color:#DECB4B"/>
				<stop  offset="0.5271" style="stop-color:#FBF892"/>
				<stop  offset="0.5982" style="stop-color:#EBDF6B"/>
				<stop  offset="0.6823" style="stop-color:#DBC645"/>
				<stop  offset="0.7659" style="stop-color:#CFB327"/>
				<stop  offset="0.8476" style="stop-color:#C6A511"/>
				<stop  offset="0.9267" style="stop-color:#C19D04"/>
				<stop  offset="1" style="stop-color:#BF9A00"/>
			</linearGradient>
			<path class="st18" d="M277.5,914.1v0.3c-0.3,0-0.5,0-0.7,0.1s-0.3,0.3-0.5,0.5c-0.1,0.2-0.3,0.6-0.5,1.3l-2.9,8.3h-0.3l-2.4-6.6
				l-2.3,6.6h-0.3l-3.1-8.6c-0.2-0.6-0.4-1-0.4-1.1c-0.1-0.2-0.2-0.3-0.4-0.4c-0.2-0.1-0.4-0.1-0.7-0.1v-0.3h3.8v0.3h-0.2
				c-0.3,0-0.5,0.1-0.6,0.2c-0.1,0.1-0.2,0.3-0.2,0.4c0,0.2,0.1,0.6,0.3,1.2l2,5.8l1.7-4.9l-0.3-0.9l-0.2-0.7
				c-0.1-0.3-0.2-0.5-0.4-0.7c-0.1-0.1-0.1-0.2-0.2-0.2c-0.1-0.1-0.3-0.2-0.4-0.2c-0.1,0-0.2,0-0.5,0v-0.3h4v0.3h-0.3
				c-0.3,0-0.5,0.1-0.6,0.2s-0.2,0.3-0.2,0.5c0,0.3,0.1,0.7,0.3,1.4l2,5.6l2-5.7c0.2-0.6,0.3-1.1,0.3-1.3c0-0.1,0-0.2-0.1-0.3
				s-0.2-0.2-0.3-0.2c-0.2-0.1-0.4-0.1-0.8-0.1v-0.3H277.5z"/>
			<linearGradient id="SVGID_14_" gradientUnits="userSpaceOnUse" x1="280.8354" y1="919.2922" x2="291.7436" y2="919.2922">
				<stop  offset="0" style="stop-color:#BF9B01"/>
				<stop  offset="0.2766" style="stop-color:#DECB4B"/>
				<stop  offset="0.5271" style="stop-color:#FBF892"/>
				<stop  offset="0.5982" style="stop-color:#EBDF6B"/>
				<stop  offset="0.6823" style="stop-color:#DBC645"/>
				<stop  offset="0.7659" style="stop-color:#CFB327"/>
				<stop  offset="0.8476" style="stop-color:#C6A511"/>
				<stop  offset="0.9267" style="stop-color:#C19D04"/>
				<stop  offset="1" style="stop-color:#BF9A00"/>
			</linearGradient>
			<path class="st19" d="M288.1,914.1h3.6v0.3h-0.2c-0.1,0-0.3,0.1-0.6,0.2c-0.3,0.1-0.5,0.3-0.7,0.5s-0.5,0.6-0.8,1.1l-2.5,3.9v2.6
				c0,0.6,0.1,1,0.2,1.2c0.2,0.2,0.5,0.3,0.9,0.3h0.3v0.3h-4.4v-0.3h0.4c0.4,0,0.7-0.1,0.9-0.4c0.1-0.2,0.2-0.5,0.2-1.1v-2.4
				l-2.8-4.3c-0.3-0.5-0.6-0.8-0.7-1s-0.4-0.3-0.7-0.5c-0.1-0.1-0.2-0.1-0.4-0.1v-0.3h4.4v0.3H285c-0.2,0-0.5,0.1-0.7,0.2
				c-0.2,0.1-0.3,0.3-0.3,0.5c0,0.2,0.2,0.5,0.5,1l2.2,3.3l2-3.2c0.3-0.5,0.5-0.8,0.5-1.1c0-0.1,0-0.3-0.1-0.4
				c-0.1-0.1-0.2-0.2-0.3-0.3c-0.1-0.1-0.3-0.1-0.6-0.1V914.1z"/>
			<linearGradient id="SVGID_15_" gradientUnits="userSpaceOnUse" x1="292.5219" y1="919.2922" x2="302.6523" y2="919.2922">
				<stop  offset="0" style="stop-color:#BF9B01"/>
				<stop  offset="0.2766" style="stop-color:#DECB4B"/>
				<stop  offset="0.5271" style="stop-color:#FBF892"/>
				<stop  offset="0.5982" style="stop-color:#EBDF6B"/>
				<stop  offset="0.6823" style="stop-color:#DBC645"/>
				<stop  offset="0.7659" style="stop-color:#CFB327"/>
				<stop  offset="0.8476" style="stop-color:#C6A511"/>
				<stop  offset="0.9267" style="stop-color:#C19D04"/>
				<stop  offset="1" style="stop-color:#BF9A00"/>
			</linearGradient>
			<path class="st20" d="M297.7,913.9c1.3,0,2.5,0.5,3.5,1.5c1,1,1.5,2.3,1.5,3.8c0,1.6-0.5,2.9-1.5,3.9c-1,1-2.2,1.6-3.6,1.6
				c-1.4,0-2.6-0.5-3.6-1.5c-1-1-1.5-2.3-1.5-3.9c0-1.6,0.6-3,1.7-4C295.2,914.3,296.3,913.9,297.7,913.9z M297.5,914.4
				c-0.9,0-1.7,0.3-2.2,1c-0.7,0.9-1,2.1-1,3.8c0,1.7,0.4,3,1.1,3.9c0.6,0.7,1.3,1,2.2,1c1,0,1.8-0.4,2.4-1.1c0.6-0.8,0.9-2,0.9-3.6
				c0-1.8-0.3-3.1-1-4C299.3,914.8,298.5,914.4,297.5,914.4z"/>
			<linearGradient id="SVGID_16_" gradientUnits="userSpaceOnUse" x1="303.5214" y1="919.2922" x2="313.8124" y2="919.2922">
				<stop  offset="0" style="stop-color:#BF9B01"/>
				<stop  offset="0.2766" style="stop-color:#DECB4B"/>
				<stop  offset="0.5271" style="stop-color:#FBF892"/>
				<stop  offset="0.5982" style="stop-color:#EBDF6B"/>
				<stop  offset="0.6823" style="stop-color:#DBC645"/>
				<stop  offset="0.7659" style="stop-color:#CFB327"/>
				<stop  offset="0.8476" style="stop-color:#C6A511"/>
				<stop  offset="0.9267" style="stop-color:#C19D04"/>
				<stop  offset="1" style="stop-color:#BF9A00"/>
			</linearGradient>
			<path class="st21" d="M313.8,924.5h-2.8l-3.5-4.8c-0.3,0-0.5,0-0.6,0c-0.1,0-0.1,0-0.2,0c-0.1,0-0.2,0-0.2,0v3
				c0,0.7,0.1,1.1,0.2,1.2c0.2,0.2,0.5,0.3,0.9,0.3h0.4v0.3h-4.4v-0.3h0.4c0.4,0,0.8-0.1,0.9-0.4c0.1-0.2,0.2-0.5,0.2-1.1V916
				c0-0.7-0.1-1.1-0.2-1.2c-0.2-0.2-0.5-0.3-0.9-0.3h-0.4v-0.3h3.8c1.1,0,1.9,0.1,2.4,0.2s1,0.5,1.3,0.9c0.4,0.4,0.5,0.9,0.5,1.5
				c0,0.6-0.2,1.2-0.6,1.7c-0.4,0.5-1.1,0.8-1.9,1l2.1,3c0.5,0.7,0.9,1.1,1.3,1.4c0.4,0.2,0.8,0.4,1.4,0.4V924.5z M306.5,919.1
				c0.1,0,0.2,0,0.3,0c0.1,0,0.1,0,0.2,0c1,0,1.7-0.2,2.2-0.6c0.5-0.4,0.8-1,0.8-1.6c0-0.6-0.2-1.2-0.6-1.6s-0.9-0.6-1.6-0.6
				c-0.3,0-0.7,0-1.2,0.1V919.1z"/>
			<linearGradient id="SVGID_17_" gradientUnits="userSpaceOnUse" x1="313.9345" y1="919.2922" x2="325.0869" y2="919.2922">
				<stop  offset="0" style="stop-color:#BF9B01"/>
				<stop  offset="0.2766" style="stop-color:#DECB4B"/>
				<stop  offset="0.5271" style="stop-color:#FBF892"/>
				<stop  offset="0.5982" style="stop-color:#EBDF6B"/>
				<stop  offset="0.6823" style="stop-color:#DBC645"/>
				<stop  offset="0.7659" style="stop-color:#CFB327"/>
				<stop  offset="0.8476" style="stop-color:#C6A511"/>
				<stop  offset="0.9267" style="stop-color:#C19D04"/>
				<stop  offset="1" style="stop-color:#BF9A00"/>
			</linearGradient>
			<path class="st22" d="M318.3,918.7l3.8,3.8c0.6,0.6,1.2,1.1,1.6,1.3c0.4,0.2,0.9,0.4,1.3,0.4v0.3h-4.9v-0.3c0.3,0,0.5,0,0.6-0.1
				c0.1-0.1,0.2-0.2,0.2-0.3s0-0.2-0.1-0.3c0-0.1-0.2-0.3-0.5-0.5l-3.6-3.5v3.3c0,0.5,0,0.9,0.1,1c0.1,0.1,0.2,0.2,0.3,0.3
				c0.2,0.1,0.5,0.2,0.7,0.2h0.4v0.3h-4.4v-0.3h0.4c0.4,0,0.7-0.1,0.9-0.4c0.1-0.2,0.2-0.6,0.2-1.2V916c0-0.5,0-0.9-0.1-1
				c-0.1-0.1-0.2-0.2-0.3-0.3c-0.2-0.1-0.5-0.2-0.7-0.2h-0.4v-0.3h4.4v0.3H318c-0.2,0-0.5,0.1-0.7,0.2c-0.2,0.1-0.3,0.2-0.3,0.4
				c-0.1,0.2-0.1,0.5-0.1,1v3.2c0.1-0.1,0.5-0.4,1-1c1.5-1.4,2.4-2.3,2.7-2.8c0.1-0.2,0.2-0.4,0.2-0.5c0-0.1-0.1-0.2-0.2-0.3
				c-0.1-0.1-0.3-0.1-0.5-0.1h-0.2v-0.3h3.8v0.3c-0.2,0-0.4,0-0.6,0.1c-0.2,0.1-0.4,0.2-0.7,0.3s-0.6,0.4-1,0.8
				c-0.1,0.1-0.6,0.6-1.5,1.6L318.3,918.7z"/>
		</g>
	</g>
	<linearGradient id="SVGID_18_" gradientUnits="userSpaceOnUse" x1="282.2056" y1="846.8796" x2="299.8877" y2="862.8006">
		<stop  offset="0" style="stop-color:#BF9B01"/>
		<stop  offset="0.2766" style="stop-color:#DECB4B"/>
		<stop  offset="0.5271" style="stop-color:#FBF892"/>
		<stop  offset="0.5982" style="stop-color:#EBDF6B"/>
		<stop  offset="0.6823" style="stop-color:#DBC645"/>
		<stop  offset="0.7659" style="stop-color:#CFB327"/>
		<stop  offset="0.8476" style="stop-color:#C6A511"/>
		<stop  offset="0.9267" style="stop-color:#C19D04"/>
		<stop  offset="1" style="stop-color:#BF9A00"/>
	</linearGradient>
	<path class="st23" d="M297.5,865.4h-12.2c0,0,3.6-3.2,3.6-7.6c0,0-9.9,2-10.3-4.3c-0.1-2.2,1-4.4,2.9-5.6c2.7-1.9,7.2-5.2,9.7-7.6
		h0c2.5,2.4,7.1,5.8,9.7,7.6c1.8,1.3,3,3.4,2.9,5.6c-0.4,6.3-10.3,4.3-10.3,4.3c0,4.4,3.6,7.6,3.6,7.6H285"/>
	<g>
		<g>
			<linearGradient id="SVGID_19_" gradientUnits="userSpaceOnUse" x1="203.5999" y1="882.9142" x2="223.5428" y2="882.9142">
				<stop  offset="0" style="stop-color:#BF9B01"/>
				<stop  offset="0.2766" style="stop-color:#DECB4B"/>
				<stop  offset="0.5271" style="stop-color:#FBF892"/>
				<stop  offset="0.5982" style="stop-color:#EBDF6B"/>
				<stop  offset="0.6823" style="stop-color:#DBC645"/>
				<stop  offset="0.7659" style="stop-color:#CFB327"/>
				<stop  offset="0.8476" style="stop-color:#C6A511"/>
				<stop  offset="0.9267" style="stop-color:#C19D04"/>
				<stop  offset="1" style="stop-color:#BF9A00"/>
			</linearGradient>
			<path class="st24" d="M209.8,869v17.8l4.6-4.1c1-0.9,1.5-1.4,1.7-1.7c0.1-0.2,0.2-0.3,0.2-0.5c0-0.3-0.1-0.5-0.3-0.7
				c-0.2-0.2-0.6-0.3-1.1-0.3v-0.6h7.8v0.6c-1.1,0-2,0.2-2.7,0.5c-0.7,0.3-1.5,0.8-2.3,1.6l-4.6,4.2l4.6,5.8
				c1.3,1.6,2.1,2.6,2.6,3.1c0.6,0.6,1.2,1,1.6,1.2c0.3,0.1,0.9,0.2,1.7,0.2v0.7h-8.7v-0.7c0.5,0,0.8-0.1,1-0.2
				c0.2-0.1,0.3-0.3,0.3-0.6c0-0.3-0.3-0.8-0.8-1.4l-5.5-7v6c0,1.2,0.1,1.9,0.2,2.3c0.2,0.4,0.4,0.6,0.7,0.8s1,0.2,2,0.3v0.7h-9.1
				v-0.7c0.9,0,1.6-0.1,2.1-0.3c0.3-0.1,0.5-0.4,0.6-0.7c0.2-0.4,0.3-1.2,0.3-2.2v-16.3c0-2.1,0-3.3-0.1-3.8s-0.2-0.8-0.5-1
				s-0.5-0.3-0.8-0.3c-0.3,0-0.7,0.1-1.2,0.3l-0.3-0.7l5.3-2.2H209.8z"/>
			<linearGradient id="SVGID_20_" gradientUnits="userSpaceOnUse" x1="224.7366" y1="887.7878" x2="241.0198" y2="887.7878">
				<stop  offset="0" style="stop-color:#BF9B01"/>
				<stop  offset="0.2766" style="stop-color:#DECB4B"/>
				<stop  offset="0.5271" style="stop-color:#FBF892"/>
				<stop  offset="0.5982" style="stop-color:#EBDF6B"/>
				<stop  offset="0.6823" style="stop-color:#DBC645"/>
				<stop  offset="0.7659" style="stop-color:#CFB327"/>
				<stop  offset="0.8476" style="stop-color:#C6A511"/>
				<stop  offset="0.9267" style="stop-color:#C19D04"/>
				<stop  offset="1" style="stop-color:#BF9A00"/>
			</linearGradient>
			<path class="st25" d="M234.7,894.2c-1.8,1.4-3,2.2-3.5,2.5c-0.7,0.3-1.5,0.5-2.3,0.5c-1.2,0-2.3-0.4-3.1-1.3
				c-0.8-0.8-1.2-2-1.2-3.3c0-0.9,0.2-1.6,0.6-2.3c0.5-0.9,1.5-1.7,2.8-2.5c1.3-0.8,3.5-1.7,6.6-2.9v-0.7c0-1.8-0.3-3-0.9-3.7
				c-0.6-0.7-1.4-1-2.5-1c-0.8,0-1.5,0.2-2,0.7c-0.5,0.4-0.7,1-0.7,1.5l0,1.1c0,0.6-0.2,1.1-0.5,1.4c-0.3,0.3-0.7,0.5-1.2,0.5
				c-0.5,0-0.9-0.2-1.2-0.5c-0.3-0.3-0.5-0.8-0.5-1.4c0-1.1,0.6-2.2,1.7-3.1c1.1-0.9,2.8-1.4,4.8-1.4c1.6,0,2.9,0.3,3.9,0.8
				c0.8,0.4,1.3,1,1.7,1.9c0.2,0.6,0.4,1.7,0.4,3.4v6.1c0,1.7,0,2.8,0.1,3.1s0.2,0.6,0.3,0.8c0.1,0.1,0.3,0.2,0.5,0.2
				c0.2,0,0.4,0,0.5-0.1c0.3-0.2,0.8-0.6,1.6-1.4v1.1c-1.5,2-2.9,2.9-4.2,2.9c-0.6,0-1.1-0.2-1.5-0.7S234.7,895.3,234.7,894.2z
				 M234.7,893v-6.8c-2,0.8-3.2,1.3-3.8,1.7c-1,0.6-1.8,1.2-2.2,1.8s-0.7,1.3-0.7,2.1c0,0.9,0.3,1.7,0.8,2.3
				c0.6,0.6,1.2,0.9,1.9,0.9C231.8,894.9,233.1,894.3,234.7,893z"/>
			<linearGradient id="SVGID_21_" gradientUnits="userSpaceOnUse" x1="241.4895" y1="885.0671" x2="252.2928" y2="885.0671">
				<stop  offset="0" style="stop-color:#BF9B01"/>
				<stop  offset="0.2766" style="stop-color:#DECB4B"/>
				<stop  offset="0.5271" style="stop-color:#FBF892"/>
				<stop  offset="0.5982" style="stop-color:#EBDF6B"/>
				<stop  offset="0.6823" style="stop-color:#DBC645"/>
				<stop  offset="0.7659" style="stop-color:#CFB327"/>
				<stop  offset="0.8476" style="stop-color:#C6A511"/>
				<stop  offset="0.9267" style="stop-color:#C19D04"/>
				<stop  offset="1" style="stop-color:#BF9A00"/>
			</linearGradient>
			<path class="st26" d="M247.6,873v5.9h4.2v1.4h-4.2v11.6c0,1.2,0.2,1.9,0.5,2.3s0.8,0.6,1.3,0.6c0.4,0,0.8-0.1,1.3-0.4
				s0.7-0.7,0.9-1.2h0.8c-0.5,1.3-1.1,2.2-1.9,2.9c-0.8,0.6-1.7,1-2.6,1c-0.6,0-1.2-0.2-1.8-0.5c-0.6-0.3-1-0.8-1.3-1.4
				c-0.3-0.6-0.4-1.6-0.4-2.9v-12.1h-2.8v-0.6c0.7-0.3,1.5-0.8,2.2-1.5c0.8-0.7,1.4-1.5,2-2.4c0.3-0.5,0.7-1.4,1.3-2.7H247.6z"/>
			<linearGradient id="SVGID_22_" gradientUnits="userSpaceOnUse" x1="253.7215" y1="887.8659" x2="268.889" y2="887.8659">
				<stop  offset="0" style="stop-color:#BF9B01"/>
				<stop  offset="0.2766" style="stop-color:#DECB4B"/>
				<stop  offset="0.5271" style="stop-color:#FBF892"/>
				<stop  offset="0.5982" style="stop-color:#EBDF6B"/>
				<stop  offset="0.6823" style="stop-color:#DBC645"/>
				<stop  offset="0.7659" style="stop-color:#CFB327"/>
				<stop  offset="0.8476" style="stop-color:#C6A511"/>
				<stop  offset="0.9267" style="stop-color:#C19D04"/>
				<stop  offset="1" style="stop-color:#BF9A00"/>
			</linearGradient>
			<path class="st27" d="M256.5,885.7c0,2.7,0.6,4.7,1.9,6.3c1.3,1.5,2.8,2.3,4.6,2.3c1.2,0,2.2-0.3,3.1-1c0.9-0.6,1.6-1.8,2.2-3.3
				l0.6,0.4c-0.3,1.8-1.1,3.4-2.4,4.9s-3,2.2-5,2.2c-2.2,0-4-0.8-5.5-2.5c-1.5-1.7-2.3-3.9-2.3-6.8c0-3.1,0.8-5.5,2.4-7.2
				c1.6-1.7,3.5-2.6,5.9-2.6c2,0,3.7,0.7,5,2c1.3,1.3,1.9,3.1,1.9,5.3H256.5z M256.5,884.5h8.3c-0.1-1.1-0.2-2-0.4-2.4
				c-0.3-0.7-0.8-1.3-1.5-1.7c-0.6-0.4-1.3-0.6-2-0.6c-1.1,0-2.1,0.4-2.9,1.3S256.6,883,256.5,884.5z"/>
			<linearGradient id="SVGID_23_" gradientUnits="userSpaceOnUse" x1="282.0013" y1="887.8757" x2="294.2332" y2="887.8757">
				<stop  offset="0" style="stop-color:#BF9B01"/>
				<stop  offset="0.2766" style="stop-color:#DECB4B"/>
				<stop  offset="0.5271" style="stop-color:#FBF892"/>
				<stop  offset="0.5982" style="stop-color:#EBDF6B"/>
				<stop  offset="0.6823" style="stop-color:#DBC645"/>
				<stop  offset="0.7659" style="stop-color:#CFB327"/>
				<stop  offset="0.8476" style="stop-color:#C6A511"/>
				<stop  offset="0.9267" style="stop-color:#C19D04"/>
				<stop  offset="1" style="stop-color:#BF9A00"/>
			</linearGradient>
			<path class="st28" d="M292.9,878.4v6.1h-0.6c-0.5-1.9-1.1-3.2-1.9-3.9c-0.8-0.7-1.8-1-3-1c-0.9,0-1.7,0.2-2.2,0.7
				c-0.6,0.5-0.8,1-0.8,1.6c0,0.7,0.2,1.4,0.6,1.9c0.4,0.5,1.2,1.1,2.5,1.7l2.9,1.4c2.6,1.3,4,3,4,5.1c0,1.6-0.6,2.9-1.8,3.9
				s-2.6,1.5-4.1,1.5c-1.1,0-2.3-0.2-3.8-0.6c-0.4-0.1-0.8-0.2-1.1-0.2c-0.3,0-0.5,0.2-0.7,0.5h-0.6v-6.4h0.6
				c0.4,1.8,1.1,3.2,2.1,4.1c1,0.9,2.2,1.4,3.5,1.4c0.9,0,1.6-0.3,2.2-0.8c0.6-0.5,0.9-1.2,0.9-1.9c0-0.9-0.3-1.7-0.9-2.3
				c-0.6-0.6-1.9-1.4-3.8-2.3s-3.1-1.8-3.7-2.5c-0.6-0.7-0.9-1.7-0.9-2.8c0-1.5,0.5-2.7,1.5-3.7s2.3-1.5,3.9-1.5
				c0.7,0,1.6,0.1,2.6,0.5c0.7,0.2,1.1,0.3,1.3,0.3c0.2,0,0.4,0,0.5-0.1c0.1-0.1,0.3-0.3,0.4-0.6H292.9z"/>
			<linearGradient id="SVGID_24_" gradientUnits="userSpaceOnUse" x1="295.5052" y1="891.8879" x2="314.3138" y2="891.8879">
				<stop  offset="0" style="stop-color:#BF9B01"/>
				<stop  offset="0.2766" style="stop-color:#DECB4B"/>
				<stop  offset="0.5271" style="stop-color:#FBF892"/>
				<stop  offset="0.5982" style="stop-color:#EBDF6B"/>
				<stop  offset="0.6823" style="stop-color:#DBC645"/>
				<stop  offset="0.7659" style="stop-color:#CFB327"/>
				<stop  offset="0.8476" style="stop-color:#C6A511"/>
				<stop  offset="0.9267" style="stop-color:#C19D04"/>
				<stop  offset="1" style="stop-color:#BF9A00"/>
			</linearGradient>
			<path class="st29" d="M295.6,880.7l5.5-2.2h0.7v4.2c0.9-1.6,1.9-2.7,2.8-3.3c0.9-0.6,1.9-0.9,2.9-0.9c1.8,0,3.3,0.7,4.5,2.1
				c1.5,1.7,2.2,4,2.2,6.7c0,3.1-0.9,5.6-2.7,7.7c-1.5,1.7-3.3,2.5-5.5,2.5c-1,0-1.8-0.1-2.5-0.4c-0.5-0.2-1.1-0.6-1.8-1.2v5.5
				c0,1.2,0.1,2,0.2,2.3s0.4,0.6,0.8,0.8c0.4,0.2,1,0.3,2,0.3v0.7h-9.4v-0.7h0.5c0.7,0,1.3-0.1,1.8-0.4c0.2-0.1,0.4-0.4,0.6-0.7
				c0.1-0.3,0.2-1.1,0.2-2.4v-16.9c0-1.2-0.1-1.9-0.2-2.2c-0.1-0.3-0.3-0.5-0.5-0.7c-0.2-0.2-0.5-0.2-0.9-0.2
				c-0.3,0-0.7,0.1-1.2,0.3L295.6,880.7z M301.9,883.8v6.7c0,1.4,0.1,2.4,0.2,2.9c0.2,0.8,0.6,1.4,1.3,2s1.6,0.9,2.7,0.9
				c1.3,0,2.4-0.5,3.2-1.5c1.1-1.3,1.6-3.2,1.6-5.6c0-2.7-0.6-4.8-1.8-6.3c-0.8-1-1.8-1.5-3-1.5c-0.6,0-1.2,0.2-1.9,0.5
				C303.7,881.9,302.9,882.6,301.9,883.8z"/>
			<linearGradient id="SVGID_25_" gradientUnits="userSpaceOnUse" x1="317.1116" y1="887.7878" x2="333.3948" y2="887.7878">
				<stop  offset="0" style="stop-color:#BF9B01"/>
				<stop  offset="0.2766" style="stop-color:#DECB4B"/>
				<stop  offset="0.5271" style="stop-color:#FBF892"/>
				<stop  offset="0.5982" style="stop-color:#EBDF6B"/>
				<stop  offset="0.6823" style="stop-color:#DBC645"/>
				<stop  offset="0.7659" style="stop-color:#CFB327"/>
				<stop  offset="0.8476" style="stop-color:#C6A511"/>
				<stop  offset="0.9267" style="stop-color:#C19D04"/>
				<stop  offset="1" style="stop-color:#BF9A00"/>
			</linearGradient>
			<path class="st30" d="M327.1,894.2c-1.8,1.4-3,2.2-3.5,2.5c-0.7,0.3-1.5,0.5-2.3,0.5c-1.2,0-2.3-0.4-3.1-1.3
				c-0.8-0.8-1.2-2-1.2-3.3c0-0.9,0.2-1.6,0.6-2.3c0.5-0.9,1.5-1.7,2.8-2.5c1.3-0.8,3.5-1.7,6.6-2.9v-0.7c0-1.8-0.3-3-0.9-3.7
				c-0.6-0.7-1.4-1-2.5-1c-0.8,0-1.5,0.2-2,0.7c-0.5,0.4-0.7,1-0.7,1.5l0,1.1c0,0.6-0.2,1.1-0.5,1.4s-0.7,0.5-1.2,0.5
				c-0.5,0-0.9-0.2-1.2-0.5s-0.5-0.8-0.5-1.4c0-1.1,0.6-2.2,1.7-3.1c1.1-0.9,2.8-1.4,4.8-1.4c1.6,0,2.9,0.3,3.9,0.8
				c0.8,0.4,1.3,1,1.7,1.9c0.2,0.6,0.4,1.7,0.4,3.4v6.1c0,1.7,0,2.8,0.1,3.1c0.1,0.4,0.2,0.6,0.3,0.8c0.2,0.1,0.3,0.2,0.5,0.2
				c0.2,0,0.4,0,0.5-0.1c0.3-0.2,0.8-0.6,1.6-1.4v1.1c-1.5,2-2.9,2.9-4.2,2.9c-0.6,0-1.1-0.2-1.5-0.7
				C327.3,896.1,327.1,895.3,327.1,894.2z M327.1,893v-6.8c-2,0.8-3.2,1.3-3.8,1.7c-1,0.6-1.8,1.2-2.2,1.8s-0.7,1.3-0.7,2.1
				c0,0.9,0.3,1.7,0.8,2.3c0.6,0.6,1.2,0.9,1.9,0.9C324.2,894.9,325.5,894.3,327.1,893z"/>
			<linearGradient id="SVGID_26_" gradientUnits="userSpaceOnUse" x1="334.804" y1="883.1882" x2="353.6116" y2="883.1882">
				<stop  offset="0" style="stop-color:#BF9B01"/>
				<stop  offset="0.2766" style="stop-color:#DECB4B"/>
				<stop  offset="0.5271" style="stop-color:#FBF892"/>
				<stop  offset="0.5982" style="stop-color:#EBDF6B"/>
				<stop  offset="0.6823" style="stop-color:#DBC645"/>
				<stop  offset="0.7659" style="stop-color:#CFB327"/>
				<stop  offset="0.8476" style="stop-color:#C6A511"/>
				<stop  offset="0.9267" style="stop-color:#C19D04"/>
				<stop  offset="1" style="stop-color:#BF9A00"/>
			</linearGradient>
			<path class="st31" d="M347.4,894.8c-0.9,0.9-1.7,1.6-2.6,2c-0.8,0.4-1.7,0.6-2.7,0.6c-2,0-3.7-0.8-5.1-2.5
				c-1.5-1.6-2.2-3.7-2.2-6.3s0.8-4.9,2.4-7.1c1.6-2.1,3.7-3.2,6.2-3.2c1.6,0,2.9,0.5,3.9,1.5v-3.3c0-2,0-3.3-0.1-3.8
				c-0.1-0.5-0.3-0.8-0.5-1c-0.2-0.2-0.5-0.3-0.8-0.3c-0.3,0-0.8,0.1-1.4,0.3l-0.3-0.7l5.3-2.2h0.9v20.7c0,2.1,0,3.4,0.1,3.8
				c0.1,0.5,0.3,0.8,0.5,1c0.2,0.2,0.5,0.3,0.8,0.3c0.4,0,0.8-0.1,1.4-0.3l0.2,0.7l-5.3,2.2h-0.9V894.8z M347.4,893.4v-9.2
				c-0.1-0.9-0.3-1.7-0.7-2.4c-0.4-0.7-0.9-1.3-1.6-1.7c-0.6-0.4-1.3-0.6-1.9-0.6c-1.1,0-2.2,0.5-3.1,1.5c-1.2,1.4-1.8,3.3-1.8,6
				c0,2.6,0.6,4.7,1.7,6.1c1.1,1.4,2.4,2.1,3.8,2.1C345.1,895.2,346.3,894.6,347.4,893.4z"/>
			<linearGradient id="SVGID_27_" gradientUnits="userSpaceOnUse" x1="355.0013" y1="887.8659" x2="370.1693" y2="887.8659">
				<stop  offset="0" style="stop-color:#BF9B01"/>
				<stop  offset="0.2766" style="stop-color:#DECB4B"/>
				<stop  offset="0.5271" style="stop-color:#FBF892"/>
				<stop  offset="0.5982" style="stop-color:#EBDF6B"/>
				<stop  offset="0.6823" style="stop-color:#DBC645"/>
				<stop  offset="0.7659" style="stop-color:#CFB327"/>
				<stop  offset="0.8476" style="stop-color:#C6A511"/>
				<stop  offset="0.9267" style="stop-color:#C19D04"/>
				<stop  offset="1" style="stop-color:#BF9A00"/>
			</linearGradient>
			<path class="st32" d="M357.8,885.7c0,2.7,0.6,4.7,1.9,6.3s2.8,2.3,4.6,2.3c1.2,0,2.2-0.3,3.1-1c0.9-0.6,1.6-1.8,2.2-3.3l0.6,0.4
				c-0.3,1.8-1.1,3.4-2.4,4.9c-1.3,1.5-3,2.2-5,2.2c-2.2,0-4-0.8-5.5-2.5s-2.3-3.9-2.3-6.8c0-3.1,0.8-5.5,2.4-7.2s3.5-2.6,5.9-2.6
				c2,0,3.7,0.7,5,2c1.3,1.3,1.9,3.1,1.9,5.3H357.8z M357.8,884.5h8.3c-0.1-1.1-0.2-2-0.4-2.4c-0.3-0.7-0.8-1.3-1.5-1.7
				c-0.6-0.4-1.3-0.6-2-0.6c-1.1,0-2.1,0.4-2.9,1.3S357.9,883,357.8,884.5z"/>
		</g>
	</g>
	<g>
		<g>
			<linearGradient id="SVGID_28_" gradientUnits="userSpaceOnUse" x1="243.8938" y1="919.3762" x2="255.1609" y2="919.3762">
				<stop  offset="0" style="stop-color:#BF9B01"/>
				<stop  offset="0.2766" style="stop-color:#DECB4B"/>
				<stop  offset="0.5271" style="stop-color:#FBF892"/>
				<stop  offset="0.5982" style="stop-color:#EBDF6B"/>
				<stop  offset="0.6823" style="stop-color:#DBC645"/>
				<stop  offset="0.7659" style="stop-color:#CFB327"/>
				<stop  offset="0.8476" style="stop-color:#C6A511"/>
				<stop  offset="0.9267" style="stop-color:#C19D04"/>
				<stop  offset="1" style="stop-color:#BF9A00"/>
			</linearGradient>
			<path class="st33" d="M243.9,914.1h2.8l6.3,7.8v-6c0-0.6-0.1-1-0.2-1.2c-0.2-0.2-0.5-0.3-0.9-0.3h-0.4v-0.3h3.6v0.3h-0.4
				c-0.4,0-0.7,0.1-0.9,0.4c-0.1,0.2-0.2,0.5-0.2,1.1v8.7h-0.3l-6.8-8.3v6.4c0,0.6,0.1,1,0.2,1.2c0.2,0.2,0.5,0.3,0.9,0.3h0.4v0.3
				h-3.6v-0.3h0.4c0.4,0,0.8-0.1,0.9-0.4c0.1-0.2,0.2-0.5,0.2-1.1v-7.2c-0.3-0.4-0.5-0.6-0.7-0.7c-0.2-0.1-0.4-0.2-0.7-0.3
				c-0.1,0-0.4-0.1-0.7-0.1V914.1z"/>
			<linearGradient id="SVGID_29_" gradientUnits="userSpaceOnUse" x1="255.7024" y1="919.2922" x2="264.5667" y2="919.2922">
				<stop  offset="0" style="stop-color:#BF9B01"/>
				<stop  offset="0.2766" style="stop-color:#DECB4B"/>
				<stop  offset="0.5271" style="stop-color:#FBF892"/>
				<stop  offset="0.5982" style="stop-color:#EBDF6B"/>
				<stop  offset="0.6823" style="stop-color:#DBC645"/>
				<stop  offset="0.7659" style="stop-color:#CFB327"/>
				<stop  offset="0.8476" style="stop-color:#C6A511"/>
				<stop  offset="0.9267" style="stop-color:#C19D04"/>
				<stop  offset="1" style="stop-color:#BF9A00"/>
			</linearGradient>
			<path class="st34" d="M258.6,914.7v4.1h2.3c0.6,0,1-0.1,1.2-0.3c0.3-0.2,0.4-0.6,0.4-1.2h0.3v3.6h-0.3c-0.1-0.5-0.1-0.8-0.2-1
				c-0.1-0.2-0.2-0.3-0.4-0.4c-0.2-0.1-0.5-0.2-1-0.2h-2.3v3.4c0,0.5,0,0.7,0.1,0.8c0,0.1,0.1,0.2,0.2,0.2c0.1,0.1,0.3,0.1,0.6,0.1
				h1.8c0.6,0,1,0,1.3-0.1c0.3-0.1,0.5-0.2,0.8-0.5c0.3-0.3,0.6-0.8,1-1.4h0.3l-0.9,2.6h-8v-0.3h0.4c0.2,0,0.5-0.1,0.7-0.2
				c0.2-0.1,0.3-0.2,0.3-0.4c0.1-0.2,0.1-0.5,0.1-1v-6.7c0-0.7-0.1-1.1-0.2-1.2c-0.2-0.2-0.5-0.3-0.9-0.3h-0.4v-0.3h8l0.1,2.3h-0.3
				c-0.1-0.5-0.2-0.9-0.4-1.1c-0.1-0.2-0.3-0.4-0.6-0.5c-0.2-0.1-0.6-0.1-1.1-0.1H258.6z"/>
			<linearGradient id="SVGID_30_" gradientUnits="userSpaceOnUse" x1="265.1312" y1="919.4103" x2="279.5486" y2="919.4103">
				<stop  offset="0" style="stop-color:#BF9B01"/>
				<stop  offset="0.2766" style="stop-color:#DECB4B"/>
				<stop  offset="0.5271" style="stop-color:#FBF892"/>
				<stop  offset="0.5982" style="stop-color:#EBDF6B"/>
				<stop  offset="0.6823" style="stop-color:#DBC645"/>
				<stop  offset="0.7659" style="stop-color:#CFB327"/>
				<stop  offset="0.8476" style="stop-color:#C6A511"/>
				<stop  offset="0.9267" style="stop-color:#C19D04"/>
				<stop  offset="1" style="stop-color:#BF9A00"/>
			</linearGradient>
			<path class="st35" d="M279.5,914.1v0.3c-0.3,0-0.5,0-0.7,0.1s-0.3,0.3-0.5,0.5c-0.1,0.2-0.3,0.6-0.5,1.3l-2.9,8.3h-0.3l-2.4-6.6
				l-2.3,6.6h-0.3l-3.1-8.6c-0.2-0.6-0.4-1-0.4-1.1c-0.1-0.2-0.2-0.3-0.4-0.4c-0.2-0.1-0.4-0.1-0.7-0.1v-0.3h3.8v0.3h-0.2
				c-0.3,0-0.5,0.1-0.6,0.2c-0.1,0.1-0.2,0.3-0.2,0.4c0,0.2,0.1,0.6,0.3,1.2l2,5.8l1.7-4.9l-0.3-0.9l-0.2-0.7
				c-0.1-0.3-0.2-0.5-0.4-0.7c-0.1-0.1-0.1-0.2-0.2-0.2c-0.1-0.1-0.3-0.2-0.4-0.2c-0.1,0-0.2,0-0.5,0v-0.3h4v0.3h-0.3
				c-0.3,0-0.5,0.1-0.6,0.2s-0.2,0.3-0.2,0.5c0,0.3,0.1,0.7,0.3,1.4l2,5.6l2-5.7c0.2-0.6,0.3-1.1,0.3-1.3c0-0.1,0-0.2-0.1-0.3
				s-0.2-0.2-0.3-0.2c-0.2-0.1-0.4-0.1-0.8-0.1v-0.3H279.5z"/>
			<linearGradient id="SVGID_31_" gradientUnits="userSpaceOnUse" x1="282.8592" y1="919.2922" x2="293.7674" y2="919.2922">
				<stop  offset="0" style="stop-color:#BF9B01"/>
				<stop  offset="0.2766" style="stop-color:#DECB4B"/>
				<stop  offset="0.5271" style="stop-color:#FBF892"/>
				<stop  offset="0.5982" style="stop-color:#EBDF6B"/>
				<stop  offset="0.6823" style="stop-color:#DBC645"/>
				<stop  offset="0.7659" style="stop-color:#CFB327"/>
				<stop  offset="0.8476" style="stop-color:#C6A511"/>
				<stop  offset="0.9267" style="stop-color:#C19D04"/>
				<stop  offset="1" style="stop-color:#BF9A00"/>
			</linearGradient>
			<path class="st36" d="M290.2,914.1h3.6v0.3h-0.2c-0.1,0-0.3,0.1-0.6,0.2c-0.3,0.1-0.5,0.3-0.7,0.5s-0.5,0.6-0.8,1.1l-2.5,3.9v2.6
				c0,0.6,0.1,1,0.2,1.2c0.2,0.2,0.5,0.3,0.9,0.3h0.3v0.3h-4.4v-0.3h0.4c0.4,0,0.7-0.1,0.9-0.4c0.1-0.2,0.2-0.5,0.2-1.1v-2.4
				l-2.8-4.3c-0.3-0.5-0.6-0.8-0.7-1s-0.4-0.3-0.7-0.5c-0.1-0.1-0.2-0.1-0.4-0.1v-0.3h4.4v0.3h-0.2c-0.2,0-0.5,0.1-0.7,0.2
				c-0.2,0.1-0.3,0.3-0.3,0.5c0,0.2,0.2,0.5,0.5,1l2.2,3.3l2-3.2c0.3-0.5,0.5-0.8,0.5-1.1c0-0.1,0-0.3-0.1-0.4
				c-0.1-0.1-0.2-0.2-0.3-0.3c-0.1-0.1-0.3-0.1-0.6-0.1V914.1z"/>
			<linearGradient id="SVGID_32_" gradientUnits="userSpaceOnUse" x1="294.5457" y1="919.2922" x2="304.6761" y2="919.2922">
				<stop  offset="0" style="stop-color:#BF9B01"/>
				<stop  offset="0.2766" style="stop-color:#DECB4B"/>
				<stop  offset="0.5271" style="stop-color:#FBF892"/>
				<stop  offset="0.5982" style="stop-color:#EBDF6B"/>
				<stop  offset="0.6823" style="stop-color:#DBC645"/>
				<stop  offset="0.7659" style="stop-color:#CFB327"/>
				<stop  offset="0.8476" style="stop-color:#C6A511"/>
				<stop  offset="0.9267" style="stop-color:#C19D04"/>
				<stop  offset="1" style="stop-color:#BF9A00"/>
			</linearGradient>
			<path class="st37" d="M299.7,913.9c1.3,0,2.5,0.5,3.5,1.5c1,1,1.5,2.3,1.5,3.8c0,1.6-0.5,2.9-1.5,3.9c-1,1-2.2,1.6-3.6,1.6
				c-1.4,0-2.6-0.5-3.6-1.5c-1-1-1.5-2.3-1.5-3.9c0-1.6,0.6-3,1.7-4C297.2,914.3,298.4,913.9,299.7,913.9z M299.6,914.4
				c-0.9,0-1.7,0.3-2.2,1c-0.7,0.9-1,2.1-1,3.8c0,1.7,0.4,3,1.1,3.9c0.6,0.7,1.3,1,2.2,1c1,0,1.8-0.4,2.4-1.1c0.6-0.8,0.9-2,0.9-3.6
				c0-1.8-0.3-3.1-1-4C301.3,914.8,300.6,914.4,299.6,914.4z"/>
			<linearGradient id="SVGID_33_" gradientUnits="userSpaceOnUse" x1="305.5452" y1="919.2922" x2="315.8362" y2="919.2922">
				<stop  offset="0" style="stop-color:#BF9B01"/>
				<stop  offset="0.2766" style="stop-color:#DECB4B"/>
				<stop  offset="0.5271" style="stop-color:#FBF892"/>
				<stop  offset="0.5982" style="stop-color:#EBDF6B"/>
				<stop  offset="0.6823" style="stop-color:#DBC645"/>
				<stop  offset="0.7659" style="stop-color:#CFB327"/>
				<stop  offset="0.8476" style="stop-color:#C6A511"/>
				<stop  offset="0.9267" style="stop-color:#C19D04"/>
				<stop  offset="1" style="stop-color:#BF9A00"/>
			</linearGradient>
			<path class="st38" d="M315.8,924.5h-2.8l-3.5-4.8c-0.3,0-0.5,0-0.6,0c-0.1,0-0.1,0-0.2,0c-0.1,0-0.2,0-0.2,0v3
				c0,0.7,0.1,1.1,0.2,1.2c0.2,0.2,0.5,0.3,0.9,0.3h0.4v0.3h-4.4v-0.3h0.4c0.4,0,0.8-0.1,0.9-0.4c0.1-0.2,0.2-0.5,0.2-1.1V916
				c0-0.7-0.1-1.1-0.2-1.2c-0.2-0.2-0.5-0.3-0.9-0.3h-0.4v-0.3h3.8c1.1,0,1.9,0.1,2.4,0.2s1,0.5,1.3,0.9c0.4,0.4,0.5,0.9,0.5,1.5
				c0,0.6-0.2,1.2-0.6,1.7c-0.4,0.5-1.1,0.8-1.9,1l2.1,3c0.5,0.7,0.9,1.1,1.3,1.4c0.4,0.2,0.8,0.4,1.4,0.4V924.5z M308.5,919.1
				c0.1,0,0.2,0,0.3,0c0.1,0,0.1,0,0.2,0c1,0,1.7-0.2,2.2-0.6c0.5-0.4,0.8-1,0.8-1.6c0-0.6-0.2-1.2-0.6-1.6s-0.9-0.6-1.6-0.6
				c-0.3,0-0.7,0-1.2,0.1V919.1z"/>
			<linearGradient id="SVGID_34_" gradientUnits="userSpaceOnUse" x1="315.9583" y1="919.2922" x2="327.1107" y2="919.2922">
				<stop  offset="0" style="stop-color:#BF9B01"/>
				<stop  offset="0.2766" style="stop-color:#DECB4B"/>
				<stop  offset="0.5271" style="stop-color:#FBF892"/>
				<stop  offset="0.5982" style="stop-color:#EBDF6B"/>
				<stop  offset="0.6823" style="stop-color:#DBC645"/>
				<stop  offset="0.7659" style="stop-color:#CFB327"/>
				<stop  offset="0.8476" style="stop-color:#C6A511"/>
				<stop  offset="0.9267" style="stop-color:#C19D04"/>
				<stop  offset="1" style="stop-color:#BF9A00"/>
			</linearGradient>
			<path class="st39" d="M320.4,918.7l3.8,3.8c0.6,0.6,1.2,1.1,1.6,1.3c0.4,0.2,0.9,0.4,1.3,0.4v0.3h-4.9v-0.3c0.3,0,0.5,0,0.6-0.1
				c0.1-0.1,0.2-0.2,0.2-0.3s0-0.2-0.1-0.3c0-0.1-0.2-0.3-0.5-0.5l-3.6-3.5v3.3c0,0.5,0,0.9,0.1,1c0.1,0.1,0.2,0.2,0.3,0.3
				c0.2,0.1,0.5,0.2,0.7,0.2h0.4v0.3H316v-0.3h0.4c0.4,0,0.7-0.1,0.9-0.4c0.1-0.2,0.2-0.6,0.2-1.2V916c0-0.5,0-0.9-0.1-1
				c-0.1-0.1-0.2-0.2-0.3-0.3c-0.2-0.1-0.5-0.2-0.7-0.2H316v-0.3h4.4v0.3H320c-0.2,0-0.5,0.1-0.7,0.2c-0.2,0.1-0.3,0.2-0.3,0.4
				c-0.1,0.2-0.1,0.5-0.1,1v3.2c0.1-0.1,0.5-0.4,1-1c1.5-1.4,2.4-2.3,2.7-2.8c0.1-0.2,0.2-0.4,0.2-0.5c0-0.1-0.1-0.2-0.2-0.3
				c-0.1-0.1-0.3-0.1-0.5-0.1H322v-0.3h3.8v0.3c-0.2,0-0.4,0-0.6,0.1c-0.2,0.1-0.4,0.2-0.7,0.3s-0.6,0.4-1,0.8
				c-0.1,0.1-0.6,0.6-1.5,1.6L320.4,918.7z"/>
		</g>
	</g>
</g>
</svg>
