<?xml version="1.0" encoding="utf-8"?>
<!-- Generator: Adobe Illustrator 19.1.0, SVG Export Plug-In . SVG Version: 6.00 Build 0)  -->
<svg version="1.1" xmlns="http://www.w3.org/2000/svg" xmlns:xlink="http://www.w3.org/1999/xlink" x="0px" y="0px"
	 viewBox="0 0 612 792" style="enable-background:new 0 0 612 792;" xml:space="preserve">
<style type="text/css">
	.st0{display:none;}
	.st1{fill:#361342;}
	.st2{fill:#081A5E;}
	.st3{fill:#1071AD;}
	.st4{opacity:0.5;fill:#FFFFFF;}
	.st5{fill:#18D6B2;}
	.st6{fill:#0191B7;}
	.st7{fill:#9CD4E8;}
	.st8{fill:#182E7F;}
	.st9{fill:#FFFFFF;}
	.st10{fill:#E8A89C;}
	.st11{fill:#00B19D;}
	.st12{fill:#4FDB9C;}
	.st13{fill:#FB5555;}
	.st14{font-family:'Raleway-Light';}
	.st15{font-size:20px;}
</style>
<g id="Layer_1" class="st0">
</g>
<g id="Layer_4">
	<rect y="0" class="st2" width="612" height="792"/>
	<ellipse class="st3" cx="52.3" cy="67.7" rx="28.3" ry="29"/>
	<path class="st4" d="M73.1,65.3c-0.4-0.7-0.8-1.4-1.2-2c-5-7.9-13.6-13.4-22.9-14.7c1.1-2.7,4-4.6,6.9-4.5c2.3,0,4.4,1.1,6.4,2.1
		c3.4,1.8,7,3.7,9,7C73.5,56.7,73.3,61.2,73.1,65.3z"/>
	<ellipse class="st3" cx="143.1" cy="182.4" rx="16" ry="16.4"/>
	<path class="st4" d="M152,182.4c-0.2-0.4-0.4-0.8-0.7-1.2c-2.8-4.5-7.7-7.6-12.9-8.3c0.6-1.5,2.3-2.6,3.9-2.6
		c1.3,0,2.5,0.6,3.6,1.2c1.9,1,4,2.1,5.1,3.9C152.2,177.5,152.1,180,152,182.4z"/>
	<ellipse class="st3" cx="536.8" cy="323" rx="16" ry="16.4"/>
	<path class="st4" d="M548.6,321.7c-0.2-0.4-0.4-0.8-0.7-1.2c-2.8-4.5-7.7-7.6-12.9-8.3c0.6-1.5,2.3-2.6,3.9-2.6
		c1.3,0,2.5,0.6,3.6,1.2c1.9,1,4,2.1,5.1,3.9C548.8,316.8,548.7,319.4,548.6,321.7z"/>
	<ellipse class="st3" cx="72.2" cy="746.6" rx="7.5" ry="7.7"/>
	<path class="st4" d="M77.7,746c-0.1-0.2-0.2-0.4-0.3-0.5c-1.3-2.1-3.6-3.6-6.1-3.9c0.3-0.7,1.1-1.2,1.8-1.2c0.6,0,1.2,0.3,1.7,0.6
		c0.9,0.5,1.9,1,2.4,1.8C77.8,743.7,77.8,744.9,77.7,746z"/>
	<ellipse class="st3" cx="110" cy="683.5" rx="7.5" ry="7.7"/>
	<path class="st4" d="M115.5,682.9c-0.1-0.2-0.2-0.4-0.3-0.5c-1.3-2.1-3.6-3.6-6.1-3.9c0.3-0.7,1.1-1.2,1.8-1.2
		c0.6,0,1.2,0.3,1.7,0.6c0.9,0.5,1.9,1,2.4,1.8C115.6,680.6,115.6,681.8,115.5,682.9z"/>
	<ellipse class="st3" cx="135.5" cy="761.5" rx="7.5" ry="7.7"/>
	<path class="st4" d="M141.1,760.9c-0.1-0.2-0.2-0.4-0.3-0.5c-1.3-2.1-3.6-3.6-6.1-3.9c0.3-0.7,1.1-1.2,1.8-1.2
		c0.6,0,1.2,0.3,1.7,0.6c0.9,0.5,1.9,1,2.4,1.8C141.2,758.6,141.1,759.8,141.1,760.9z"/>
	<ellipse class="st3" cx="552.8" cy="56.7" rx="26.3" ry="27"/>
	<path class="st4" d="M572.2,54.5c-0.4-0.6-0.7-1.3-1.1-1.9c-4.6-7.4-12.6-12.5-21.3-13.6c1.1-2.5,3.7-4.2,6.4-4.2c2.1,0,4.1,1,6,2
		c3.2,1.6,6.5,3.4,8.4,6.5C572.5,46.5,572.4,50.6,572.2,54.5z"/>
	<ellipse class="st3" cx="52.3" cy="368.9" rx="14.7" ry="15"/>
	<path class="st4" d="M63.1,367.6c-0.2-0.4-0.4-0.7-0.6-1.1c-2.6-4.1-7-7-11.8-7.6c0.6-1.4,2.1-2.4,3.6-2.3c1.2,0,2.3,0.6,3.3,1.1
		c1.8,0.9,3.6,1.9,4.7,3.6C63.3,363.2,63.2,365.5,63.1,367.6z"/>
	<ellipse class="st3" cx="561" cy="583.5" rx="14.7" ry="15"/>
	<path class="st4" d="M571.8,582.2c-0.2-0.4-0.4-0.7-0.6-1.1c-2.6-4.1-7-7-11.8-7.6c0.6-1.4,2.1-2.4,3.6-2.3c1.2,0,2.3,0.6,3.3,1.1
		c1.8,0.9,3.6,1.9,4.7,3.6C572,577.8,571.9,580.1,571.8,582.2z"/>
	<ellipse class="st3" cx="490.2" cy="756.5" rx="6.9" ry="7.1"/>
	<path class="st4" d="M495.3,755.9c-0.1-0.2-0.2-0.3-0.3-0.5c-1.2-1.9-3.3-3.3-5.6-3.6c0.3-0.7,1-1.1,1.7-1.1c0.6,0,1.1,0.3,1.6,0.5
		c0.8,0.4,1.7,0.9,2.2,1.7C495.4,753.8,495.3,754.9,495.3,755.9z"/>
	<ellipse class="st3" cx="520.8" cy="677.3" rx="6.9" ry="7.1"/>
	<path class="st4" d="M525.9,676.7c-0.1-0.2-0.2-0.3-0.3-0.5c-1.2-1.9-3.3-3.3-5.6-3.6c0.3-0.7,1-1.1,1.7-1.1c0.6,0,1.1,0.3,1.6,0.5
		c0.8,0.4,1.7,0.9,2.2,1.7C526,674.6,525.9,675.7,525.9,676.7z"/>
	<ellipse class="st3" cx="559.3" cy="729.9" rx="6.9" ry="7.1"/>
	<path class="st4" d="M564.3,729.3c-0.1-0.2-0.2-0.3-0.3-0.5c-1.2-1.9-3.3-3.3-5.6-3.6c0.3-0.7,1-1.1,1.7-1.1c0.6,0,1.1,0.3,1.6,0.5
		c0.8,0.4,1.7,0.9,2.2,1.7C564.4,727.2,564.4,728.3,564.3,729.3z"/>
</g>
<g id="Layer_2">
</g>
<g id="Layer_3">
</g>
<g id="Layer_5">
	<path class="st10" d="M355.2,517.6c-3.9,1.7-5.9,6-7.4,10c-8.6,22.5-11.4,47.2-8.4,71c0.9,6.9,7.9,22.6,5.3,29.2
		c-3.8,9.6-20.8,7.4-29.4,7.4c-17.7,0-35.3,0-52.9-1.4c-7.2-0.6-15.2-1.9-21.2-5.9c11-32.3,10.4-68.4-1.7-100.3
		c-1.5-4-3.5-8.3-7.4-10"/>
	<path class="st11" d="M330.2,0c-11.6,93.1,44.9,181.1,53.5,274.5c4,43.8-2.6,87.9-9.2,131.4c-2.5,16.2-4.9,32.4-7.4,48.6
		c-1.9,12.8-0.7,41.5-7.9,52c-5.2,7.6-5.5,5.5-16.5,4.2c-8.4-1-16.8-2-25.2-2.8c-16.9-1.6-33.8-2.6-50.7-3c-13.8-0.3-28.3,2-37,12.7
		c-5.7-37.2-11.3-74.5-17-111.7c-6.6-43.5-13.2-87.6-9.2-131.4c8.6-93.4,65.2-181.4,53.5-274.5"/>
	<path class="st12" d="M343.2,493.1c5.7,1.7,11.4,4.1,15.5,8.4s6.3,10.9,4.1,16.4c-5.8,4.3-13.6,4.2-20.8,4
		c-37.2-1-74.5-2.1-111.7-3.1c-4.5-5.4-2.4-14.3,2.8-19.1c5.2-4.8,12.5-6.5,19.6-7.5c12.2-1.8,24.7-2.3,37-2.8
		C307.7,488.7,326,488,343.2,493.1z"/>
	<path class="st13" d="M179.3,371c15.9,30.3,27.7,62.8,34.8,96.3c23.1-36.5,32.9-81.2,27.3-124c-3-22.7-10.1-45-10.1-67.9
		c0-42.7,24.5-81.2,49-116.2c-2.1,18.1-0.7,36.7,4.1,54.3c10.9-8.3,14.6-23.5,12.7-37.1c-1.9-13.6-8.5-25.9-15-38
		c22.6,0.4,39.9,22.3,44,44.5c4.2,22.2-1.3,45-4.8,67.3c-9,58.1-4.6,118.2,12.9,174.3c28.2-52.1,17.8-115.8,6.6-174.1
		c33.8,63.5,91.1,118.6,97,190.3c3.4,42.4-3.7,77.5,0.5,119.8c13.6,136.7-6.7,194.8-23.8,231.3c-11.2,23.9-13.7,34.2-32,53.2
		c-16.4,16.9-42.9,17.7-66.4,15.8c-27.7-2.2-55.5-6.6-81.2-17.1s-17.9-23.6-32.4-47.4c-17.1-28.1-38.2-69.3-34.6-102
		c3.5-32.7-0.2-62.1,6-94.3C188.4,524.9,184.8,447.4,179.3,371z"/>
	<path class="st13" d="M406.6,610.7c20.1-43.4-11-95.8,2.7-141.6c3.9-13,11.2-24.6,17.2-36.8c16.9-33.6,24.7-71.8,22.4-109.4
		c5.4,32.4,13.1,64.5,23.3,95.7c8.5,26.2,18.7,52.4,19.6,79.9c2.7,77.5-67.5,145.4-58.5,222.4"/>
	<path class="st13" d="M313.1,484.7c20.1-43.4-11-95.8,2.7-141.6c3.9-13,11.2-24.6,17.2-36.8c16.9-33.6,24.7-71.8,22.4-109.4
		c5.4,32.4,13.1,64.5,23.3,95.7c8.5,26.2,18.7,52.4,19.6,79.9C401,450.1,330.7,518,339.8,595"/>
	<path class="st13" d="M268.4,531.6c-19.5-43.7,12.5-95.6-0.5-141.6c-3.7-13.1-10.8-24.8-16.7-37c-16.4-33.9-23.6-72.1-20.8-109.7
		c-5.9,32.3-14.1,64.3-24.7,95.4c-8.9,26-19.5,52.1-20.8,79.6c-3.9,77.4,65.3,146.4,55.1,223.2"/>
	<path class="st13" d="M199.8,636c-19.5-43.7,12.5-95.6-0.5-141.6c-3.7-13.1-10.8-24.8-16.7-37c-16.4-33.9-23.6-72.1-20.8-109.7
		c-5.9,32.3-14.1,64.3-24.7,95.4c-8.9,26-19.5,52.1-20.8,79.6c-3.9,77.4,74.9,149.1,64.7,225.9"/>
	<rect x="-11.3" y="792" class="st9" width="750.1" height="160"/>
</g>
<g id="Layer_6">
	<text transform="matrix(1 0 0 1 152.7048 505.0854)"><tspan x="0" y="0" class="st9 st14 st15">Have a birthday out of this world</tspan><tspan x="-27.1" y="48" class="st9 st14 st15">...get it instead of part of this world heh</tspan><tspan x="71.8" y="72" class="st9 st14 st15">k happy birthday</tspan></text>
</g>
</svg>
