<svg xmlns="http://www.w3.org/2000/svg" xmlns:xlink="http://www.w3.org/1999/xlink" viewBox="-46.8 0.5 792 612" enable-background="new -46.8 0.5 792 612"><style type="text/css">.st0{display:none;} .st1{fill:#336667;} .st2{fill:url(#SVGID_1_);} .st3{fill:url(#SVGID_2_);} .st4{fill:none;stroke:#2A1820;stroke-width:2;stroke-miterlimit:10;stroke-dasharray:4;} .st5{fill:#2A1820;} .st6{fill:url(#SVGID_3_);} .st7{fill:none;stroke:#A27A47;stroke-miterlimit:10;stroke-dasharray:4;} .st8{fill:url(#SVGID_4_);} .st9{fill:none;stroke:#EFA207;stroke-miterlimit:10;} .st10{fill:none;stroke:#EFA207;stroke-miterlimit:10;stroke-dasharray:4.0007,4.0007;} .st11{fill:none;stroke:#EFA207;stroke-miterlimit:10;stroke-dasharray:3.8837,3.8837;} .st12{fill:#B08366;} .st13{fill:none;} .st14{fill:url(#SVGID_5_);} .st15{fill:url(#SVGID_6_);} .st16{fill:url(#SVGID_7_);} .st17{fill:none;stroke:#EFA207;stroke-width:8;stroke-miterlimit:10;stroke-dasharray:4;} .st18{fill:none;stroke:#A27A47;stroke-miterlimit:10;} .st19{fill:url(#SVGID_8_);} .st20{fill:url(#SVGID_9_);} .st21{font-family:&apos;ArialMT&apos;;} .st22{font-size:12.7615px;} .st23{fill:url(#SVGID_10_);} .st24{fill:url(#SVGID_11_);} .st25{fill:url(#SVGID_12_);} .st26{fill:url(#SVGID_13_);} .st27{fill:none;stroke:#EFA207;stroke-width:3;stroke-miterlimit:10;stroke-dasharray:4;} .st28{fill:url(#SVGID_14_);}</style><image width="3272" height="2458" xlink:href="83E3F92D9FE756E2.jpeg" transform="matrix(.238 0 0 .238 -43.247 -1.524)" overflow="visible" enable-background="new" id="Layer_1_1_" class="st0"/><path class="st1" d="M-46.9.6h791.6v612h-791.6z" id="Layer_3"/><g id="Layer_2"><linearGradient id="SVGID_1_" gradientUnits="userSpaceOnUse" x1="46.278" y1="515.842" x2="61.299" y2="515.842" gradientTransform="matrix(1 .001 .001 -1 -.203 613.723)"><stop offset=".251" stop-color="#ED9A11"/><stop offset=".739" stop-color="#E9B320"/><stop offset=".831" stop-color="#EBB723"/><stop offset=".93" stop-color="#F1C42B"/><stop offset="1" stop-color="#F8D233"/></linearGradient><path class="st2" d="M46.6 99.8v-3.7c0-1 .9-1.7 1.8-1.7h11.4c1 0 1.8.7 1.8 1.7v3.7c0 1-.9 1.7-1.8 1.7h-11.4c-1 0-1.8-.7-1.8-1.7z"/><linearGradient id="SVGID_2_" gradientUnits="userSpaceOnUse" x1="277.715" y1="570.991" x2="412.38" y2="30.879" gradientTransform="matrix(1 .001 .001 -1 -.203 613.723)"><stop offset="0" stop-color="#B08366"/><stop offset=".024" stop-color="#9D745B"/><stop offset=".069" stop-color="#805C4A"/><stop offset=".119" stop-color="#69493B"/><stop offset=".176" stop-color="#563A30"/><stop offset=".243" stop-color="#4A3029"/><stop offset=".332" stop-color="#422A24"/><stop offset=".522" stop-color="#402823"/><stop offset=".902" stop-color="#2F1C21"/><stop offset="1" stop-color="#2A1820"/></linearGradient><path class="st3" d="M39.8 111.4l-13.5 357.5c-.1 3.6-.4 7.1-.7 10.6-1 10.8-1.5 43.9 27 59.4 6.4 3.5 13.7 5.1 21 4.9 64.7-1.3 487.4-9.9 535-10.8 4-.1 8.1-.5 12-1.5 5.3-1.3 12.7-3.5 20.1-7.4 17.5-9.4 28-28 27.2-47.9l-12.7-331.2c-.2-6.4.7-12.8 3-18.7l.6-1.8c2.9-7.9 2.1-16.7-2.1-23.9-2.4-4.1-6.8-6.6-11.6-6.6l-593.1 5.5c-6.6.1-11.9 5.3-12.2 11.9z"/><path class="st4" d="M39.4 119.5s143-2.1 200.2 6.8c5.1.7 10.2 1.2 15.3 1.2l403.2-2.1M39.4 123.5s143-2.1 200.2 6.8c5.1.7 10.2 1.2 15.3 1.2l403.2-2.1M39.4 115.2s143-2.1 200.2 6.8c5.1.7 10.2 1.2 15.3 1.2l403.2-2.1"/><path class="st5" d="M78.7 212l-42.9 1.1 3-75.4h39.9zM74.6 360.2l-46.3-.1 1.8-81h44.7zM74.544 509.25l-50.3-.052.077-74.3 50.3.052zM153.673 434.656l-79-.082.077-74.3 79 .082zM153.58 546.416l-79-.082.039-37.1 79 .082zM299.567 541.342l-80.876 2.031-.826-32.89 80.876-2.031zM435.622 536.02l-68.18 1.712-.71-28.292 68.18-1.712zM573.742 536.493l-71.9-.164.061-26.8 71.9.164zM218.247 360.389l-64.7-.067.077-74.3 64.7.067zM366.705 360.617l-69-.072.077-74.3 69 .072zM216.511 212.777l-73.4-.076.077-74.3 73.4.076zM362.779 216.878l-73.4-.076.07-67.5 73.4.076zM498.812 217.104l-73.4-.076.07-67.5 73.4.076zM637.977 217.223l-85.7-.089.07-67.5 85.7.089zM218.134 509.371l-64.7-.067.077-74.3 64.7.067zM297.32 434.781l-79-.082.077-74.3 79 .082zM366.56 509.467l-69.3-.072.078-74.7 69.3.072zM501.763 507.781l-66.7-.069.077-74.3 66.7.069zM501.991 361.241l-66.7-.069.071-68.5 66.7.069zM643.286 361.477l-69.3-.072.075-71.7 69.3.072zM643.172 509.711l-69.3-.072.077-74.3 69.3.072zM435.735 434.888l-69.1-.072.077-74.3 69.1.072zM573.845 435.003l-71.9-.075.077-74.3 71.9.075zM667.6 435.1h-24.3l.1-74.3 20.2.1zM660.8 289.8l-17.4-.1.1-69.7h14.7z"/><linearGradient id="SVGID_3_" gradientUnits="userSpaceOnUse" x1="347.257" y1="455.961" x2="347.257" y2="256.718" gradientTransform="matrix(1 .001 .001 -1 -.203 613.723)"><stop offset="0" stop-color="#fff"/><stop offset=".002" stop-color="#FDFCFB"/><stop offset=".02" stop-color="#EAE0D6"/><stop offset=".039" stop-color="#DAC7B7"/><stop offset=".061" stop-color="#CCB39B"/><stop offset=".086" stop-color="#C0A285"/><stop offset=".115" stop-color="#B89574"/><stop offset=".15" stop-color="#B18C69"/><stop offset=".201" stop-color="#AE8662"/><stop offset=".34" stop-color="#AD8560"/></linearGradient><path class="st6" d="M589.3 158.6c21.2-1.9 33.2 8.5 44.3 23.5 5.5 7.4 10.4 16.9 12.9 28.6 8.1 39-17.1 77.2-55.8 86.6-11.1 2.7-24.6 4.5-40.6 4.4l-98.7-.1c-27.6 57.7-96.2 55.8-96.2 55.8-74.7-.1-96.9-56-96.9-56l-113.5-.1c-16.2 0-29.6-1.8-40.6-4.5-38.7-9.5-63.8-47.7-55.6-86.7 2.4-11.7 7.3-21.2 12.9-28.6 11.2-14.9 28.9-23.5 47.5-23.5l489.7.5"/><path class="st7" d="M582.8 172.1c20.5-1.6 32.1 7.4 42.9 20.6 5.4 6.6 10.1 14.9 12.4 25.2 7.8 34.3-27.4 60.3-64.9 68.5-10.7 2.3-23.7 3.9-39.2 3.8l-95.4-.1c-26.7 50.7-82.1 56.7-82.1 56.7-72.1-.1-94.9-58.8-94.9-58.8l-109.6-.1c-15.6 0-28.6-1.6-39.2-3.9-37.3-8.4-60.4-32.4-52.5-66.8 2.3-10.3 7-18.6 12.4-25.1 10.7-13.1 28-20.6 45.9-20.6l473.1.5"/><linearGradient id="SVGID_4_" gradientUnits="userSpaceOnUse" x1="97.724" y1="372.133" x2="115.205" y2="413.315" gradientTransform="matrix(1 .001 .001 -1 -.203 613.723)"><stop offset="0" stop-color="#E9A120"/><stop offset=".288" stop-color="#F1BC2A"/><stop offset=".501" stop-color="#F8D233"/><stop offset=".768" stop-color="#F8ED48"/><stop offset=".93" stop-color="#F8FF56"/></linearGradient><circle class="st8" cx="106.7" cy="221.1" r="22.3"/><path class="st5" d="M552.092 251.348l-398.4-.414.04-38.8 398.4.414z"/><path class="st9" d="M564.5 263.4v2.1h-2.1"/><path class="st10" d="M558.1 265.5l-414.9-.4"/><path class="st9" d="M141.1 265.1h-2.1v-2.2"/><path class="st11" d="M139 258.8l.1-55.8"/><path class="st9" d="M139.1 200.9v-2.1h2.1"/><path class="st10" d="M145.5 198.8l414.7.4"/><path class="st9" d="M562.4 199.2h2.1v2.2"/><path class="st11" d="M564.5 205.5v55.7"/><path class="st12" d="M663.7 365.3c6.3 18.8 10.2 102.8 10.8 117.1.1 1.4.1 2.7.1 4-1.2 35.1-32.3 46.4-52.4 50.1-7.8 1.4-15.6 1.7-23.5 1.2-90.3-6.2-462.8 12-500 13.8-2.4.1-4.8.1-7.2.1-45.8-1.3-62.2-22.2-65.5-27.4-.4-.7-1-1.3-1.5-1.9-18-22.5 1.1-312.7 1.1-312.7.7-57.9 12.8-60.5 12.8-60.5l-12.9 329.6s-7.3 57.3 48 64.4l535-10.8s59.3-5.8 59.3-52.4l-4.1-114.6z"/><path id="SVGID_x5F_5_x5F_" class="st13" d="M114.6 221.1c0 4.4-3.6 8-8 8s-8-3.6-8-8 3.6-8 8-8c4.4.1 8 3.7 8 8z"/><linearGradient id="SVGID_5_" gradientUnits="userSpaceOnUse" x1="98.987" y1="394.696" x2="113.901" y2="390.7" gradientTransform="matrix(1 .001 .001 -1 -.203 613.723)"><stop offset=".251" stop-color="#ED9A11"/><stop offset=".739" stop-color="#E9B320"/><stop offset=".831" stop-color="#EBB723"/><stop offset=".93" stop-color="#F1C42B"/><stop offset="1" stop-color="#F8D233"/></linearGradient><circle class="st14" cx="106.7" cy="221.1" r="7.8"/><linearGradient id="SVGID_6_" gradientUnits="userSpaceOnUse" x1="587.979" y1="372.111" x2="605.46" y2="413.293" gradientTransform="matrix(1 .001 .001 -1 -.203 613.723)"><stop offset="0" stop-color="#E9A120"/><stop offset=".288" stop-color="#F1BC2A"/><stop offset=".501" stop-color="#F8D233"/><stop offset=".768" stop-color="#F8ED48"/><stop offset=".93" stop-color="#F8FF56"/></linearGradient><circle class="st15" cx="596.9" cy="221.7" r="22.3"/><path id="SVGID_x5F_8_x5F_" class="st13" d="M604.9 221.7c0 4.4-3.6 8-8 8s-8-3.6-8-8 3.6-8 8-8 8 3.5 8 8z"/><linearGradient id="SVGID_7_" gradientUnits="userSpaceOnUse" x1="589.207" y1="394.684" x2="604.121" y2="390.687" gradientTransform="matrix(1 .001 .001 -1 -.203 613.723)"><stop offset=".251" stop-color="#ED9A11"/><stop offset=".739" stop-color="#E9B320"/><stop offset=".831" stop-color="#EBB723"/><stop offset=".93" stop-color="#F1C42B"/><stop offset="1" stop-color="#F8D233"/></linearGradient><circle class="st16" cx="596.9" cy="221.7" r="7.8"/><path class="st17" d="M153.8 234.1l366.7.4M158 225l362.5.3"/><path class="st18" d="M297.3 292.8v14.3h4.7"/><ellipse transform="matrix(.001 -1 1 .001 9.197 609.94)" class="st18" cx="309.9" cy="300.4" rx="6.7" ry="6.2"/><ellipse transform="matrix(.001 -1 1 .001 94.293 692.997)" class="st18" cx="394" cy="299.3" rx="6.7" ry="6.2"/><path class="st18" d="M319.6 292.9s-2.1 13.3 2.9 13.3c0 0 5.3 1.4 3-13.3M358.7 292.9s-2.1 13.3 2.9 13.3c0 0 5.3 1.4 3-13.3M330.2 293.6v13.5M369.7 292.6v13.4M364.3 312.3v13.4"/><ellipse transform="matrix(.001 -1 1 .001 76.257 629.001)" class="st18" cx="353" cy="276.3" rx="8.6" ry="8.8"/><path class="st18" d="M340.4 294.7s-4.7-3.5-5.8 1.2c-.2 1 .3 2 1.3 2.3 1.2.4 2.7 1.2 3.6 2.3 1 1.2.9 2.9-.1 4-1.3 1.5-3.6 3-6.5-1.5M374.3 313.9s-4.7-3.5-5.8 1.2c-.2 1 .3 2 1.3 2.3 1.2.4 2.7 1.2 3.6 2.3 1 1.2.9 2.9-.1 4-1.3 1.5-3.6 3-6.5-1.5M346.8 293.5l4.9 11.5 3.9-11.5M372 293.6h6.4M375.2 293.7v12.3M380.5 293.6h6.4M383.7 293.7v12.3M403.4 304.3v-12.9l7.7 13.8v-13.8M336 325.3v-12.7s4.5-.6 6 2.6c.7 1.6.1 3.5-1.5 4.3-.9.4-2.8.6-4.5.4M354.6 325.4v-12.7s4.5-.6 6 2.6c.7 1.6.1 3.5-1.5 4.3-.3.1-.7.3-1.4.3-1 .1-2 .2-3.1.1M343.1 325.3l2.7-12.7h1.9l4.2 13.1M344 320.9h6.4M361.7 325.7l-4.1-6M351 281.8v-11.2s3.9-.5 5.2 2.2c.6 1.4.1 3.1-1.3 3.7-.3.1-.7.2-1.2.3-.9.1-1.8.2-2.8.1M357.3 282.1l-3.5-5.2"/><linearGradient id="SVGID_8_" gradientUnits="userSpaceOnUse" x1="520.241" y1="382.922" x2="566.403" y2="382.922" gradientTransform="matrix(1 .001 .001 -1 -.203 613.723)"><stop offset=".251" stop-color="#ED9A11"/><stop offset=".739" stop-color="#E9B320"/><stop offset=".831" stop-color="#EBB723"/><stop offset=".93" stop-color="#F1C42B"/><stop offset="1" stop-color="#F8D233"/></linearGradient><path class="st19" d="M520.5 218.4v24.2h12.5s5.8 5.8 17.5 3c0 0 23-4.4 14-21.6 0 0-8.4-12.5-27.8-5.5l-16.2-.1z"/><linearGradient id="SVGID_9_" gradientUnits="userSpaceOnUse" x1="529.736" y1="425.061" x2="557.294" y2="425.061" gradientTransform="matrix(1 .001 .001 -1 -.203 613.723)"><stop offset=".251" stop-color="#ED9A11"/><stop offset=".739" stop-color="#E9B320"/><stop offset=".831" stop-color="#EBB723"/><stop offset=".93" stop-color="#F1C42B"/><stop offset="1" stop-color="#F8D233"/></linearGradient><path class="st20" d="M538.7 223.9s-18.7-72.6-1.4-76.6l3-.6c4-1.1 14.6-2.6 15.7 11.8l1.4 73.9-18.7-8.5z"/><path id="SVGID_x5F_12_x5F_" class="st13" d="M548.2 156.3c0 2.6-2.1 4.7-4.7 4.7s-4.7-2.1-4.7-4.7 2.1-4.7 4.7-4.7c2.7 0 4.7 2 4.7 4.7z"/><linearGradient id="SVGID_10_" gradientUnits="userSpaceOnUse" x1="538.915" y1="459.183" x2="547.647" y2="456.844" gradientTransform="matrix(1 .001 .001 -1 -.203 613.723)"><stop offset=".251" stop-color="#ED9A11"/><stop offset=".739" stop-color="#E9B320"/><stop offset=".831" stop-color="#EBB723"/><stop offset=".93" stop-color="#F1C42B"/><stop offset="1" stop-color="#F8D233"/></linearGradient><circle class="st23" cx="543.5" cy="156.3" r="4.5"/><linearGradient id="SVGID_11_" gradientUnits="userSpaceOnUse" x1="527.759" y1="386.318" x2="557.407" y2="386.318" gradientTransform="matrix(1 .001 .001 -1 -.203 613.723)"><stop offset="0" stop-color="#E9A120"/><stop offset=".288" stop-color="#F1BC2A"/><stop offset=".501" stop-color="#F8D233"/><stop offset=".768" stop-color="#F8ED48"/><stop offset=".93" stop-color="#F8FF56"/></linearGradient><path class="st24" d="M528 232.3s1.4-16.4 27.4-4.4c0 0 2.9 2.2 2.1 4.5l-29.5-.1z"/><linearGradient id="SVGID_12_" gradientUnits="userSpaceOnUse" x1="90.151" y1="533.14" x2="182.41" y2="533.14" gradientTransform="matrix(1 .001 .001 -1 -.203 613.723)"><stop offset=".251" stop-color="#ED9A11"/><stop offset=".739" stop-color="#E9B320"/><stop offset=".831" stop-color="#EBB723"/><stop offset=".93" stop-color="#F1C42B"/><stop offset="1" stop-color="#F8D233"/></linearGradient><path class="st25" d="M182.5 74.7c-.3 1.3-1.4 2.4-3.5 3.2l-76.6 14.1-8.3-1-3.6-1.2c0-1.5 5.4-5.2 6.9-5.5l80.1-14.8c3.1-.5 5.9 2.2 5 5.2z"/><linearGradient id="SVGID_13_" gradientUnits="userSpaceOnUse" x1="66.224" y1="525.172" x2="104.769" y2="525.172" gradientTransform="matrix(1 .001 .001 -1 -.203 613.723)"><stop offset=".251" stop-color="#ED9A11"/><stop offset=".739" stop-color="#E9B320"/><stop offset=".831" stop-color="#EBB723"/><stop offset=".93" stop-color="#F1C42B"/><stop offset="1" stop-color="#F8D233"/></linearGradient><path class="st26" d="M101.4 99.5c-10.8.5-30.6.3-30.6.3-9.5-3.8 0-11 0-11s3.1-22 34.3-4.9c-.7-.2-26.8-7.9-28.7 4.5l2.1-.4c6.4-1.8 16.8 1.5 23.1 3.8 2.6 1 2.6 7.6-.2 7.7z"/><path class="st27" d="M111 101.5s154 2.8 201.4 2.9c6.9 0 13.8.1 20.7 0 60.6-.6 299.7-.9 314.8.3M640.5 100.4l-323.7-2.1c-2.6-.1-5-.9-7.4-.7-87.6 5.2-198.3 2.2-198.3 2.2"/><linearGradient id="SVGID_14_" gradientUnits="userSpaceOnUse" x1="646.472" y1="510.834" x2="659.807" y2="510.834" gradientTransform="matrix(1 .001 .001 -1 -.203 613.723)"><stop offset=".251" stop-color="#ED9A11"/><stop offset=".739" stop-color="#E9B320"/><stop offset=".831" stop-color="#EBB723"/><stop offset=".93" stop-color="#F1C42B"/><stop offset="1" stop-color="#F8D233"/></linearGradient><path class="st28" d="M648.1 106.8l-1.3-8.6h8.9l4.4 10.7z"/></g></svg>