<?xml version="1.0" encoding="utf-8"?>
<!-- Generator: Adobe Illustrator 19.1.0, SVG Export Plug-In . SVG Version: 6.00 Build 0)  -->
<svg version="1.1" id="Layer_1" xmlns="http://www.w3.org/2000/svg" xmlns:xlink="http://www.w3.org/1999/xlink" x="0px" y="0px"
	 viewBox="-46.8 0.5 792 612" style="enable-background:new -46.8 0.5 792 612;" xml:space="preserve">
<style type="text/css">
	.st0{display:none;}
	.st1{fill:#336667;}
	.st2{fill:url(#SVGID_1_);}
	.st3{fill:url(#SVGID_2_);}
	.st4{fill:none;stroke:#2A1820;stroke-width:2;stroke-miterlimit:10;stroke-dasharray:4;}
	.st5{fill:#2A1820;}
	.st6{fill:url(#SVGID_3_);}
	.st7{fill:none;stroke:#A27A47;stroke-miterlimit:10;stroke-dasharray:4;}
	.st8{fill:url(#SVGID_4_);}
	.st9{fill:none;stroke:#EFA207;stroke-miterlimit:10;}
	.st10{fill:none;stroke:#EFA207;stroke-miterlimit:10;stroke-dasharray:4.0007,4.0007;}
	.st11{fill:none;stroke:#EFA207;stroke-miterlimit:10;stroke-dasharray:3.8837,3.8837;}
	.st12{fill:#B08366;}
	.st13{fill:none;}
	.st14{fill:url(#SVGID_5_);}
	.st15{fill:url(#SVGID_6_);}
	.st16{fill:url(#SVGID_7_);}
	.st17{fill:none;stroke:#EFA207;stroke-width:8;stroke-miterlimit:10;stroke-dasharray:4;}
	.st18{fill:none;stroke:#A27A47;stroke-miterlimit:10;}
	.st19{fill:url(#SVGID_8_);}
	.st20{fill:url(#SVGID_9_);}
	.st21{font-family:'ArialMT';}
	.st22{font-size:12.7615px;}
	.st23{fill:url(#SVGID_10_);}
	.st24{fill:url(#SVGID_11_);}
	.st25{fill:url(#SVGID_12_);}
	.st26{fill:url(#SVGID_13_);}
	.st27{fill:none;stroke:#EFA207;stroke-width:3;stroke-miterlimit:10;stroke-dasharray:4;}
	.st28{fill:url(#SVGID_14_);}
</style>
<g id="Layer_1_1_" class="st0">
	
		<image style="display:inline;overflow:visible;enable-background:new    ;" width="3272" height="2458" xlink:href="83E3F92D9FE756E2.jpeg"  transform="matrix(0.238 0 0 0.2376 -43.2472 -1.5239)">
	</image>
</g>
<g id="Layer_3">
	<rect x="-46.9" y="0.6" class="st1" width="791.6" height="612"/>
</g>
<g id="Layer_2">
	
		<linearGradient id="SVGID_1_" gradientUnits="userSpaceOnUse" x1="46.2775" y1="515.8425" x2="61.2988" y2="515.8425" gradientTransform="matrix(1 1.040294e-03 1.040294e-03 -1 -0.2026 613.7235)">
		<stop  offset="0.2512" style="stop-color:#ED9A11"/>
		<stop  offset="0.7393" style="stop-color:#E9B320"/>
		<stop  offset="0.8314" style="stop-color:#EBB723"/>
		<stop  offset="0.9304" style="stop-color:#F1C42B"/>
		<stop  offset="1" style="stop-color:#F8D233"/>
	</linearGradient>
	<path class="st2" d="M46.6,99.8v-3.7c0-1,0.9-1.7,1.8-1.7h11.4c1,0,1.8,0.7,1.8,1.7v3.7c0,1-0.9,1.7-1.8,1.7H48.4
		C47.4,101.5,46.6,100.8,46.6,99.8z"/>
	
		<linearGradient id="SVGID_2_" gradientUnits="userSpaceOnUse" x1="277.7146" y1="570.9913" x2="412.3798" y2="30.8788" gradientTransform="matrix(1 1.040294e-03 1.040294e-03 -1 -0.2026 613.7235)">
		<stop  offset="0" style="stop-color:#B08366"/>
		<stop  offset="2.388282e-02" style="stop-color:#9D745B"/>
		<stop  offset="6.873187e-02" style="stop-color:#805C4A"/>
		<stop  offset="0.119" style="stop-color:#69493B"/>
		<stop  offset="0.1759" style="stop-color:#563A30"/>
		<stop  offset="0.2435" style="stop-color:#4A3029"/>
		<stop  offset="0.3322" style="stop-color:#422A24"/>
		<stop  offset="0.522" style="stop-color:#402823"/>
		<stop  offset="0.9023" style="stop-color:#2F1C21"/>
		<stop  offset="1" style="stop-color:#2A1820"/>
	</linearGradient>
	<path class="st3" d="M39.8,111.4L26.3,468.9c-0.1,3.6-0.4,7.1-0.7,10.6c-1,10.8-1.5,43.9,27,59.4c6.4,3.5,13.7,5.1,21,4.9
		c64.7-1.3,487.4-9.9,535-10.8c4-0.1,8.1-0.5,12-1.5c5.3-1.3,12.7-3.5,20.1-7.4c17.5-9.4,28-28,27.2-47.9L655.2,145
		c-0.2-6.4,0.7-12.8,3-18.7l0.6-1.8c2.9-7.9,2.1-16.7-2.1-23.9l0,0c-2.4-4.1-6.8-6.6-11.6-6.6L52,99.5
		C45.4,99.6,40.1,104.8,39.8,111.4z"/>
	<path class="st4" d="M39.4,119.5c0,0,143-2.1,200.2,6.8c5.1,0.7,10.2,1.2,15.3,1.2l403.2-2.1"/>
	<path class="st4" d="M39.4,123.5c0,0,143-2.1,200.2,6.8c5.1,0.7,10.2,1.2,15.3,1.2l403.2-2.1"/>
	<path class="st4" d="M39.4,115.2c0,0,143-2.1,200.2,6.8c5.1,0.7,10.2,1.2,15.3,1.2l403.2-2.1"/>
	<polygon class="st5" points="78.7,212 35.8,213.1 38.8,137.7 78.7,137.7 	"/>
	<polygon class="st5" points="74.6,360.2 28.3,360.1 30.1,279.1 74.8,279.1 	"/>
	
		<rect x="24.2" y="434.9" transform="matrix(-1 -1.040293e-03 1.040293e-03 -1 98.2916 944.1756)" class="st5" width="50.3" height="74.3"/>
	
		<rect x="74.6" y="360.2" transform="matrix(-1 -1.040293e-03 1.040293e-03 -1 227.8987 794.9334)" class="st5" width="79" height="74.3"/>
	
		<rect x="74.5" y="509.2" transform="matrix(-1 -1.040293e-03 1.040293e-03 -1 227.5504 1055.6936)" class="st5" width="79" height="37.1"/>
	
		<rect x="218.2" y="509.6" transform="matrix(-0.9997 2.510469e-02 -2.510469e-02 -0.9997 530.4949 1045.3113)" class="st5" width="80.9" height="32.9"/>
	
		<rect x="367.1" y="508.6" transform="matrix(-0.9997 2.510469e-02 -2.510469e-02 -0.9997 815.3801 1035.2517)" class="st5" width="68.2" height="28.3"/>
	
		<rect x="501.8" y="509.7" transform="matrix(-1 -2.279720e-03 2.279720e-03 -1 1074.3796 1047.3368)" class="st5" width="71.9" height="26.8"/>
	
		<rect x="153.7" y="286" transform="matrix(-1 -1.040293e-03 1.040293e-03 -1 371.6495 646.549)" class="st5" width="64.7" height="74.3"/>
	
		<rect x="297.8" y="286.2" transform="matrix(-1 -1.040293e-03 1.040293e-03 -1 664.2068 647.1265)" class="st5" width="69" height="74.3"/>
	
		<rect x="143.1" y="138.4" transform="matrix(-1 -1.040293e-03 1.040293e-03 -1 359.4666 351.3262)" class="st5" width="73.4" height="74.3"/>
	
		<rect x="289.5" y="149.4" transform="matrix(-1 -1.040293e-03 1.040293e-03 -1 652.1232 366.5794)" class="st5" width="73.4" height="67.5"/>
	
		<rect x="425.5" y="149.6" transform="matrix(-1 -1.040293e-03 1.040293e-03 -1 924.1559 367.1462)" class="st5" width="73.4" height="67.5"/>
	
		<rect x="552.2" y="149.7" transform="matrix(-1 -1.040293e-03 1.040293e-03 -1 1190.0208 367.4975)" class="st5" width="85.7" height="67.5"/>
	
		<rect x="153.6" y="435" transform="matrix(-1 -1.040293e-03 1.040293e-03 -1 371.2817 944.5303)" class="st5" width="64.7" height="74.3"/>
	
		<rect x="218.3" y="360.5" transform="matrix(-1 -1.040293e-03 1.040293e-03 -1 515.2451 795.5081)" class="st5" width="79" height="74.3"/>
	
		<rect x="297.2" y="434.8" transform="matrix(-1 -1.040293e-03 1.040293e-03 -1 663.3077 944.5759)" class="st5" width="69.3" height="74.7"/>
	
		<rect x="435.2" y="433.4" transform="matrix(-1 -1.040293e-03 1.040293e-03 -1 936.5122 941.6339)" class="st5" width="66.7" height="74.3"/>
	
		<rect x="435.4" y="292.7" transform="matrix(-1 -1.040293e-03 1.040293e-03 -1 937.0868 654.3937)" class="st5" width="66.7" height="68.5"/>
	
		<rect x="573.9" y="289.7" transform="matrix(-1 -1.040293e-03 1.040293e-03 -1 1216.8846 651.7739)" class="st5" width="69.3" height="71.7"/>
	
		<rect x="573.8" y="435.3" transform="matrix(-1 -1.040293e-03 1.040293e-03 -1 1216.5192 945.608)" class="st5" width="69.3" height="74.3"/>
	
		<rect x="366.7" y="360.6" transform="matrix(-1 -1.040293e-03 1.040293e-03 -1 802.0603 795.8699)" class="st5" width="69.1" height="74.3"/>
	
		<rect x="501.9" y="360.7" transform="matrix(-1 -1.040293e-03 1.040293e-03 -1 1075.3694 796.2248)" class="st5" width="71.9" height="74.3"/>
	<polygon class="st5" points="667.6,435.1 643.3,435.1 643.4,360.8 663.6,360.9 	"/>
	<polygon class="st5" points="660.8,289.8 643.4,289.7 643.5,220 658.2,220 	"/>
	
		<linearGradient id="SVGID_3_" gradientUnits="userSpaceOnUse" x1="347.2569" y1="455.9605" x2="347.2569" y2="256.7183" gradientTransform="matrix(1 1.040294e-03 1.040294e-03 -1 -0.2026 613.7235)">
		<stop  offset="0" style="stop-color:#FFFFFF"/>
		<stop  offset="1.887718e-03" style="stop-color:#FDFCFB"/>
		<stop  offset="1.953978e-02" style="stop-color:#EAE0D6"/>
		<stop  offset="3.908975e-02" style="stop-color:#DAC7B7"/>
		<stop  offset="6.102925e-02" style="stop-color:#CCB39B"/>
		<stop  offset="8.579893e-02" style="stop-color:#C0A285"/>
		<stop  offset="0.1147" style="stop-color:#B89574"/>
		<stop  offset="0.1505" style="stop-color:#B18C69"/>
		<stop  offset="0.2006" style="stop-color:#AE8662"/>
		<stop  offset="0.3399" style="stop-color:#AD8560"/>
	</linearGradient>
	<path class="st6" d="M589.3,158.6c21.2-1.9,33.2,8.5,44.3,23.5c5.5,7.4,10.4,16.9,12.9,28.6c8.1,39-17.1,77.2-55.8,86.6
		c-11.1,2.7-24.6,4.5-40.6,4.4l-98.7-0.1c-27.6,57.7-96.2,55.8-96.2,55.8c-74.7-0.1-96.9-56-96.9-56l-113.5-0.1
		c-16.2,0-29.6-1.8-40.6-4.5c-38.7-9.5-63.8-47.7-55.6-86.7c2.4-11.7,7.3-21.2,12.9-28.6c11.2-14.9,28.9-23.5,47.5-23.5l489.7,0.5"
		/>
	<path class="st7" d="M582.8,172.1c20.5-1.6,32.1,7.4,42.9,20.6c5.4,6.6,10.1,14.9,12.4,25.2c7.8,34.3-27.4,60.3-64.9,68.5
		c-10.7,2.3-23.7,3.9-39.2,3.8l-95.4-0.1c-26.7,50.7-82.1,56.7-82.1,56.7c-72.1-0.1-94.9-58.8-94.9-58.8L152,287.9
		c-15.6,0-28.6-1.6-39.2-3.9c-37.3-8.4-60.4-32.4-52.5-66.8c2.3-10.3,7-18.6,12.4-25.1c10.7-13.1,28-20.6,45.9-20.6l473.1,0.5"/>
	
		<linearGradient id="SVGID_4_" gradientUnits="userSpaceOnUse" x1="97.7244" y1="372.1329" x2="115.2052" y2="413.3151" gradientTransform="matrix(1 1.040294e-03 1.040294e-03 -1 -0.2026 613.7235)">
		<stop  offset="0" style="stop-color:#E9A120"/>
		<stop  offset="0.2881" style="stop-color:#F1BC2A"/>
		<stop  offset="0.5015" style="stop-color:#F8D233"/>
		<stop  offset="0.7676" style="stop-color:#F8ED48"/>
		<stop  offset="0.9303" style="stop-color:#F8FF56"/>
	</linearGradient>
	<circle class="st8" cx="106.7" cy="221.1" r="22.3"/>
	
		<rect x="153.8" y="212.3" transform="matrix(-1 -1.040293e-03 1.040293e-03 -1 705.6707 463.8075)" class="st5" width="398.4" height="38.8"/>
	<g>
		<g>
			<polyline class="st9" points="564.5,263.4 564.5,265.5 562.4,265.5 			"/>
			<line class="st10" x1="558.1" y1="265.5" x2="143.2" y2="265.1"/>
			<polyline class="st9" points="141.1,265.1 139,265.1 139,262.9 			"/>
			<line class="st11" x1="139" y1="258.8" x2="139.1" y2="203"/>
			<polyline class="st9" points="139.1,200.9 139.1,198.8 141.2,198.8 			"/>
			<line class="st10" x1="145.5" y1="198.8" x2="560.2" y2="199.2"/>
			<polyline class="st9" points="562.4,199.2 564.5,199.2 564.5,201.4 			"/>
			<line class="st11" x1="564.5" y1="205.5" x2="564.5" y2="261.2"/>
		</g>
	</g>
	<path class="st12" d="M663.7,365.3c6.3,18.8,10.2,102.8,10.8,117.1c0.1,1.4,0.1,2.7,0.1,4c-1.2,35.1-32.3,46.4-52.4,50.1
		c-7.8,1.4-15.6,1.7-23.5,1.2c-90.3-6.2-462.8,12-500,13.8c-2.4,0.1-4.8,0.1-7.2,0.1c-45.8-1.3-62.2-22.2-65.5-27.4
		c-0.4-0.7-1-1.3-1.5-1.9c-18-22.5,1.1-312.7,1.1-312.7c0.7-57.9,12.8-60.5,12.8-60.5L25.5,478.7c0,0-7.3,57.3,48,64.4l535-10.8
		c0,0,59.3-5.8,59.3-52.4L663.7,365.3z"/>
	<path id="SVGID_x5F_5_x5F_" class="st13" d="M114.6,221.1c0,4.4-3.6,8-8,8c-4.4,0-8-3.6-8-8c0-4.4,3.6-8,8-8
		C111,213.2,114.6,216.8,114.6,221.1z"/>
	
		<linearGradient id="SVGID_5_" gradientUnits="userSpaceOnUse" x1="98.9875" y1="394.6958" x2="113.9015" y2="390.6996" gradientTransform="matrix(1 1.040294e-03 1.040294e-03 -1 -0.2026 613.7235)">
		<stop  offset="0.2512" style="stop-color:#ED9A11"/>
		<stop  offset="0.7393" style="stop-color:#E9B320"/>
		<stop  offset="0.8314" style="stop-color:#EBB723"/>
		<stop  offset="0.9304" style="stop-color:#F1C42B"/>
		<stop  offset="1" style="stop-color:#F8D233"/>
	</linearGradient>
	<circle class="st14" cx="106.7" cy="221.1" r="7.8"/>
	
		<linearGradient id="SVGID_6_" gradientUnits="userSpaceOnUse" x1="587.9792" y1="372.1112" x2="605.4601" y2="413.2933" gradientTransform="matrix(1 1.040294e-03 1.040294e-03 -1 -0.2026 613.7235)">
		<stop  offset="0" style="stop-color:#E9A120"/>
		<stop  offset="0.2881" style="stop-color:#F1BC2A"/>
		<stop  offset="0.5015" style="stop-color:#F8D233"/>
		<stop  offset="0.7676" style="stop-color:#F8ED48"/>
		<stop  offset="0.9303" style="stop-color:#F8FF56"/>
	</linearGradient>
	<circle class="st15" cx="596.9" cy="221.7" r="22.3"/>
	<path id="SVGID_x5F_8_x5F_" class="st13" d="M604.9,221.7c0,4.4-3.6,8-8,8s-8-3.6-8-8c0-4.4,3.6-8,8-8S604.9,217.2,604.9,221.7z"/>
	
		<linearGradient id="SVGID_7_" gradientUnits="userSpaceOnUse" x1="589.207" y1="394.6836" x2="604.121" y2="390.6874" gradientTransform="matrix(1 1.040294e-03 1.040294e-03 -1 -0.2026 613.7235)">
		<stop  offset="0.2512" style="stop-color:#ED9A11"/>
		<stop  offset="0.7393" style="stop-color:#E9B320"/>
		<stop  offset="0.8314" style="stop-color:#EBB723"/>
		<stop  offset="0.9304" style="stop-color:#F1C42B"/>
		<stop  offset="1" style="stop-color:#F8D233"/>
	</linearGradient>
	<circle class="st16" cx="596.9" cy="221.7" r="7.8"/>
	<line class="st17" x1="153.8" y1="234.1" x2="520.5" y2="234.5"/>
	<line class="st17" x1="158" y1="225" x2="520.5" y2="225.3"/>
	<polyline class="st18" points="297.3,292.8 297.3,307.1 302,307.1 	"/>
	
		<ellipse transform="matrix(1.040293e-03 -1 1 1.040293e-03 9.197 609.9398)" class="st18" cx="309.9" cy="300.4" rx="6.7" ry="6.2"/>
	
		<ellipse transform="matrix(1.040293e-03 -1 1 1.040293e-03 94.2927 692.9973)" class="st18" cx="394" cy="299.3" rx="6.7" ry="6.2"/>
	<path class="st18" d="M319.6,292.9c0,0-2.1,13.3,2.9,13.3c0,0,5.3,1.4,3-13.3"/>
	<path class="st18" d="M358.7,292.9c0,0-2.1,13.3,2.9,13.3c0,0,5.3,1.4,3-13.3"/>
	<line class="st18" x1="330.2" y1="293.6" x2="330.2" y2="307.1"/>
	<line class="st18" x1="369.7" y1="292.6" x2="369.7" y2="306"/>
	<line class="st18" x1="364.3" y1="312.3" x2="364.3" y2="325.7"/>
	
		<ellipse transform="matrix(1.040293e-03 -1 1 1.040293e-03 76.2566 629.0009)" class="st18" cx="353" cy="276.3" rx="8.6" ry="8.8"/>
	<path class="st18" d="M340.4,294.7c0,0-4.7-3.5-5.8,1.2c-0.2,1,0.3,2,1.3,2.3c1.2,0.4,2.7,1.2,3.6,2.3c1,1.2,0.9,2.9-0.1,4
		c-1.3,1.5-3.6,3-6.5-1.5"/>
	<path class="st18" d="M374.3,313.9c0,0-4.7-3.5-5.8,1.2c-0.2,1,0.3,2,1.3,2.3c1.2,0.4,2.7,1.2,3.6,2.3c1,1.2,0.9,2.9-0.1,4
		c-1.3,1.5-3.6,3-6.5-1.5"/>
	<polyline class="st18" points="346.8,293.5 351.7,305 355.6,293.5 	"/>
	<line class="st18" x1="372" y1="293.6" x2="378.4" y2="293.6"/>
	<line class="st18" x1="375.2" y1="293.7" x2="375.2" y2="306"/>
	<line class="st18" x1="380.5" y1="293.6" x2="386.9" y2="293.6"/>
	<line class="st18" x1="383.7" y1="293.7" x2="383.7" y2="306"/>
	<polyline class="st18" points="403.4,304.3 403.4,291.4 411.1,305.2 411.1,291.4 	"/>
	<path class="st18" d="M336,325.3v-12.7c0,0,4.5-0.6,6,2.6c0.7,1.6,0.1,3.5-1.5,4.3c-0.9,0.4-2.8,0.6-4.5,0.4"/>
	<path class="st18" d="M354.6,325.4v-12.7c0,0,4.5-0.6,6,2.6c0.7,1.6,0.1,3.5-1.5,4.3c-0.3,0.1-0.7,0.3-1.4,0.3
		c-1,0.1-2,0.2-3.1,0.1"/>
	<polyline class="st18" points="343.1,325.3 345.8,312.6 347.7,312.6 351.9,325.7 	"/>
	<line class="st18" x1="344" y1="320.9" x2="350.4" y2="320.9"/>
	<line class="st18" x1="361.7" y1="325.7" x2="357.6" y2="319.7"/>
	<path class="st18" d="M351,281.8v-11.2c0,0,3.9-0.5,5.2,2.2c0.6,1.4,0.1,3.1-1.3,3.7c-0.3,0.1-0.7,0.2-1.2,0.3
		c-0.9,0.1-1.8,0.2-2.8,0.1"/>
	<line class="st18" x1="357.3" y1="282.1" x2="353.8" y2="276.9"/>
	
		<linearGradient id="SVGID_8_" gradientUnits="userSpaceOnUse" x1="520.2415" y1="382.9223" x2="566.4033" y2="382.9223" gradientTransform="matrix(1 1.040294e-03 1.040294e-03 -1 -0.2026 613.7235)">
		<stop  offset="0.2512" style="stop-color:#ED9A11"/>
		<stop  offset="0.7393" style="stop-color:#E9B320"/>
		<stop  offset="0.8314" style="stop-color:#EBB723"/>
		<stop  offset="0.9304" style="stop-color:#F1C42B"/>
		<stop  offset="1" style="stop-color:#F8D233"/>
	</linearGradient>
	<path class="st19" d="M520.5,218.4v24.2H533c0,0,5.8,5.8,17.5,3c0,0,23-4.4,14-21.6c0,0-8.4-12.5-27.8-5.5L520.5,218.4z"/>
	
		<linearGradient id="SVGID_9_" gradientUnits="userSpaceOnUse" x1="529.7358" y1="425.0608" x2="557.2938" y2="425.0608" gradientTransform="matrix(1 1.040294e-03 1.040294e-03 -1 -0.2026 613.7235)">
		<stop  offset="0.2512" style="stop-color:#ED9A11"/>
		<stop  offset="0.7393" style="stop-color:#E9B320"/>
		<stop  offset="0.8314" style="stop-color:#EBB723"/>
		<stop  offset="0.9304" style="stop-color:#F1C42B"/>
		<stop  offset="1" style="stop-color:#F8D233"/>
	</linearGradient>
	<path class="st20" d="M538.7,223.9c0,0-18.7-72.6-1.4-76.6c1-0.2,2-0.4,3-0.6c4-1.1,14.6-2.6,15.7,11.8l1.4,73.9L538.7,223.9z"/>
	<g>
		<path id="SVGID_x5F_12_x5F_" class="st13" d="M548.2,156.3c0,2.6-2.1,4.7-4.7,4.7s-4.7-2.1-4.7-4.7s2.1-4.7,4.7-4.7
			C546.2,151.6,548.2,153.6,548.2,156.3z"/>
		<text transform="matrix(1 0 0 1 548.2021 154.4814)" class="st21 st22"> </text>
		
			<linearGradient id="SVGID_10_" gradientUnits="userSpaceOnUse" x1="538.9151" y1="459.1835" x2="547.6467" y2="456.8439" gradientTransform="matrix(1 1.040294e-03 1.040294e-03 -1 -0.2026 613.7235)">
			<stop  offset="0.2512" style="stop-color:#ED9A11"/>
			<stop  offset="0.7393" style="stop-color:#E9B320"/>
			<stop  offset="0.8314" style="stop-color:#EBB723"/>
			<stop  offset="0.9304" style="stop-color:#F1C42B"/>
			<stop  offset="1" style="stop-color:#F8D233"/>
		</linearGradient>
		<circle class="st23" cx="543.5" cy="156.3" r="4.5"/>
	</g>
	
		<linearGradient id="SVGID_11_" gradientUnits="userSpaceOnUse" x1="527.7585" y1="386.3184" x2="557.4073" y2="386.3184" gradientTransform="matrix(1 1.040294e-03 1.040294e-03 -1 -0.2026 613.7235)">
		<stop  offset="0" style="stop-color:#E9A120"/>
		<stop  offset="0.2881" style="stop-color:#F1BC2A"/>
		<stop  offset="0.5015" style="stop-color:#F8D233"/>
		<stop  offset="0.7676" style="stop-color:#F8ED48"/>
		<stop  offset="0.9303" style="stop-color:#F8FF56"/>
	</linearGradient>
	<path class="st24" d="M528,232.3c0,0,1.4-16.4,27.4-4.4c0,0,2.9,2.2,2.1,4.5L528,232.3z"/>
	
		<linearGradient id="SVGID_12_" gradientUnits="userSpaceOnUse" x1="90.1515" y1="533.1401" x2="182.4096" y2="533.1401" gradientTransform="matrix(1 1.040294e-03 1.040294e-03 -1 -0.2026 613.7235)">
		<stop  offset="0.2512" style="stop-color:#ED9A11"/>
		<stop  offset="0.7393" style="stop-color:#E9B320"/>
		<stop  offset="0.8314" style="stop-color:#EBB723"/>
		<stop  offset="0.9304" style="stop-color:#F1C42B"/>
		<stop  offset="1" style="stop-color:#F8D233"/>
	</linearGradient>
	<path class="st25" d="M182.5,74.7c-0.3,1.3-1.4,2.4-3.5,3.2L102.4,92L94.1,91l-3.6-1.2c0-1.5,5.4-5.2,6.9-5.5l80.1-14.8
		C180.6,69,183.4,71.7,182.5,74.7z"/>
	
		<linearGradient id="SVGID_13_" gradientUnits="userSpaceOnUse" x1="66.2244" y1="525.1724" x2="104.7689" y2="525.1724" gradientTransform="matrix(1 1.040294e-03 1.040294e-03 -1 -0.2026 613.7235)">
		<stop  offset="0.2512" style="stop-color:#ED9A11"/>
		<stop  offset="0.7393" style="stop-color:#E9B320"/>
		<stop  offset="0.8314" style="stop-color:#EBB723"/>
		<stop  offset="0.9304" style="stop-color:#F1C42B"/>
		<stop  offset="1" style="stop-color:#F8D233"/>
	</linearGradient>
	<path class="st26" d="M101.4,99.5c-10.8,0.5-30.6,0.3-30.6,0.3c-9.5-3.8,0-11,0-11s3.1-22,34.3-4.9c-0.7-0.2-26.8-7.9-28.7,4.5
		c0.7-0.1,1.4-0.3,2.1-0.4c6.4-1.8,16.8,1.5,23.1,3.8C104.2,92.8,104.2,99.4,101.4,99.5z"/>
	<path class="st27" d="M111,101.5c0,0,154,2.8,201.4,2.9c6.9,0,13.8,0.1,20.7,0c60.6-0.6,299.7-0.9,314.8,0.3"/>
	<path class="st27" d="M640.5,100.4l-323.7-2.1c-2.6-0.1-5-0.9-7.4-0.7c-87.6,5.2-198.3,2.2-198.3,2.2"/>
	
		<linearGradient id="SVGID_14_" gradientUnits="userSpaceOnUse" x1="646.4724" y1="510.8343" x2="659.8074" y2="510.8343" gradientTransform="matrix(1 1.040294e-03 1.040294e-03 -1 -0.2026 613.7235)">
		<stop  offset="0.2512" style="stop-color:#ED9A11"/>
		<stop  offset="0.7393" style="stop-color:#E9B320"/>
		<stop  offset="0.8314" style="stop-color:#EBB723"/>
		<stop  offset="0.9304" style="stop-color:#F1C42B"/>
		<stop  offset="1" style="stop-color:#F8D233"/>
	</linearGradient>
	<polygon class="st28" points="648.1,106.8 646.8,98.2 655.7,98.2 660.1,108.9 	"/>
</g>
</svg>
