<?xml version="1.0" encoding="utf-8"?>
<!-- Generator: Adobe Illustrator 19.1.0, SVG Export Plug-In . SVG Version: 6.00 Build 0)  -->
<svg version="1.1" xmlns="http://www.w3.org/2000/svg" xmlns:xlink="http://www.w3.org/1999/xlink" x="0px" y="0px"
	 viewBox="0 0 720 720" style="enable-background:new 0 0 720 720;" xml:space="preserve">
<style type="text/css">
	.st0{fill:none;}
	.st1{fill:#EFEFEF;}
	.st2{fill:#DBE690;}
	.st3{fill:#6FC6C0;}
	.st4{fill:#336667;}
	.st5{fill:#C9C9C9;}
	.st6{fill:#333333;}
	.st7{fill:url(#SVGID_1_);}
	.st8{fill:url(#SVGID_2_);}
	.st9{fill:url(#SVGID_3_);}
	.st10{fill:#F4F4F4;}
	.st11{fill:url(#SVGID_4_);}
	.st12{fill:url(#SVGID_5_);}
	.st13{fill:url(#SVGID_6_);}
	.st14{fill:url(#SVGID_7_);}
	.st15{fill:url(#SVGID_8_);}
	.st16{fill:url(#SVGID_9_);}
	.st17{fill:url(#SVGID_10_);}
	.st18{fill:url(#SVGID_11_);}
	.st19{fill:url(#SVGID_12_);}
	.st20{fill:url(#SVGID_13_);}
	.st21{fill:url(#SVGID_14_);}
	.st22{fill:url(#SVGID_15_);}
	.st23{fill:url(#SVGID_16_);}
	.st24{fill:url(#SVGID_17_);}
	.st25{fill:url(#SVGID_18_);}
	.st26{fill:url(#SVGID_19_);}
	.st27{fill:url(#SVGID_20_);}
	.st28{fill:url(#SVGID_21_);}
	.st29{fill:url(#SVGID_22_);}
	.st30{fill:url(#SVGID_23_);}
	.st31{fill:url(#SVGID_24_);}
	.st32{fill:url(#SVGID_25_);}
	.st33{fill:url(#SVGID_26_);}
	.st34{fill:url(#SVGID_27_);}
	.st35{fill:url(#SVGID_28_);}
	.st36{fill:url(#SVGID_29_);}
	.st37{fill:url(#SVGID_30_);}
	.st38{fill:url(#SVGID_31_);}
	.st39{fill:url(#SVGID_32_);}
	.st40{fill:url(#SVGID_33_);}
	.st41{fill:url(#SVGID_34_);}
	.st42{fill:url(#SVGID_35_);}
	.st43{fill:url(#SVGID_36_);}
	.st44{fill:url(#New_Pattern_Swatch_4);}
	.st45{fill:url(#SVGID_37_);}
	.st46{fill:url(#SVGID_38_);}
	.st47{fill:url(#SVGID_39_);}
	.st48{fill:url(#SVGID_40_);}
	.st49{fill:url(#SVGID_41_);}
	.st50{fill:url(#SVGID_42_);}
	.st51{fill:url(#SVGID_43_);}
	.st52{fill:url(#SVGID_44_);}
	.st53{fill:url(#SVGID_45_);}
	.st54{fill:url(#SVGID_46_);}
	.st55{fill:url(#SVGID_47_);}
	.st56{fill:url(#New_Pattern_Swatch_2);}
	.st57{fill:url(#SVGID_48_);}
	.st58{fill:url(#SVGID_49_);}
	.st59{fill:url(#SVGID_50_);}
	.st60{fill:url(#SVGID_51_);}
	.st61{fill:url(#SVGID_52_);}
	.st62{fill:url(#SVGID_53_);}
	.st63{fill:url(#SVGID_54_);}
	.st64{fill:url(#SVGID_55_);}
	.st65{fill:url(#SVGID_56_);}
	.st66{fill:url(#SVGID_57_);}
	.st67{fill:url(#SVGID_58_);}
	.st68{fill:url(#SVGID_59_);}
	.st69{fill:url(#SVGID_60_);}
	.st70{fill:url(#SVGID_61_);}
	.st71{fill:url(#SVGID_62_);}
	.st72{fill:url(#SVGID_63_);}
	.st73{fill:url(#SVGID_64_);}
	.st74{fill:url(#SVGID_65_);}
	.st75{fill:url(#SVGID_66_);}
	.st76{fill:url(#SVGID_67_);}
	.st77{fill:url(#SVGID_68_);}
	.st78{fill:url(#SVGID_69_);}
	.st79{fill:url(#New_Pattern_Swatch_5);}
	.st80{fill:url(#New_Pattern_Swatch_7);}
	.st81{fill:url(#SVGID_70_);}
	.st82{fill:url(#SVGID_71_);}
	.st83{fill:url(#SVGID_72_);}
	.st84{fill:url(#SVGID_73_);}
	.st85{fill:url(#SVGID_74_);}
	.st86{fill:url(#SVGID_75_);}
	.st87{fill:url(#SVGID_76_);}
	.st88{fill:url(#SVGID_77_);}
	.st89{fill:url(#SVGID_78_);}
	.st90{fill:url(#SVGID_79_);}
	.st91{fill:url(#SVGID_80_);}
	.st92{fill:url(#SVGID_81_);}
	.st93{fill:url(#SVGID_82_);}
	.st94{fill:url(#SVGID_83_);}
	.st95{fill:url(#SVGID_84_);}
	.st96{fill:url(#SVGID_85_);}
	.st97{fill:url(#SVGID_86_);}
	.st98{fill:url(#SVGID_87_);}
	.st99{fill:url(#SVGID_88_);}
	.st100{fill:url(#SVGID_89_);}
	.st101{fill:url(#SVGID_90_);}
	.st102{fill:url(#SVGID_91_);}
	.st103{fill:url(#SVGID_92_);}
	.st104{fill:url(#SVGID_93_);}
	.st105{fill:url(#SVGID_94_);}
	.st106{fill:url(#SVGID_95_);}
	.st107{fill:url(#SVGID_96_);}
	.st108{fill:url(#SVGID_97_);}
	.st109{fill:url(#SVGID_98_);}
	.st110{fill:url(#SVGID_99_);}
	.st111{fill:url(#SVGID_100_);}
	.st112{fill:url(#SVGID_101_);}
</style>
<pattern  width="144" height="144" patternUnits="userSpaceOnUse" id="New_Pattern" viewBox="0 -144 144 144" style="overflow:visible;">
	<g>
		<polygon class="st0" points="0,-144 144,-144 144,0 0,0 		"/>
		<path class="st1" d="M142.2-63.7c0,3.6-2.9,6.5-6.5,6.5s-6.5-2.9-6.5-6.5s2.9-6.5,6.5-6.5S142.2-67.3,142.2-63.7z"/>
		<path class="st1" d="M70.2-63.7c0,3.6-2.9,6.5-6.5,6.5s-6.5-2.9-6.5-6.5s2.9-6.5,6.5-6.5S70.2-67.3,70.2-63.7z"/>
		<path class="st1" d="M106.2-135.7c0,3.6-2.9,6.5-6.5,6.5s-6.5-2.9-6.5-6.5s2.9-6.5,6.5-6.5S106.2-139.3,106.2-135.7z"/>
		<path class="st1" d="M34.2-135.7c0,3.6-2.9,6.5-6.5,6.5s-6.5-2.9-6.5-6.5s2.9-6.5,6.5-6.5S34.2-139.3,34.2-135.7z"/>
	</g>
</pattern>
<pattern  width="115.3" height="115.3" patternUnits="userSpaceOnUse" id="New_Pattern_Swatch_2" viewBox="0 -115.3 115.3 115.3" style="overflow:visible;">
	<g>
		<polygon class="st0" points="0,0 115.3,0 115.3,-115.3 0,-115.3 		"/>
		<polygon class="st2" points="115.3,0 0,0 0,-115.3 115.3,-115.3 		"/>
	</g>
</pattern>
<pattern  width="115.3" height="115.3" patternUnits="userSpaceOnUse" id="New_Pattern_Swatch_4" viewBox="0 -115.3 115.3 115.3" style="overflow:visible;">
	<g>
		<polygon class="st0" points="0,0 115.3,0 115.3,-115.3 0,-115.3 		"/>
		<polygon class="st3" points="115.3,0 0,0 0,-115.3 115.3,-115.3 		"/>
	</g>
</pattern>
<pattern  width="115.3" height="115.3" patternUnits="userSpaceOnUse" id="New_Pattern_Swatch_5" viewBox="0 -115.3 115.3 115.3" style="overflow:visible;">
	<g>
		<polygon class="st0" points="0,0 115.3,0 115.3,-115.3 0,-115.3 		"/>
		<polygon class="st4" points="115.3,0 0,0 0,-115.3 115.3,-115.3 		"/>
	</g>
</pattern>
<pattern  width="115.3" height="115.3" patternUnits="userSpaceOnUse" id="New_Pattern_Swatch_7" viewBox="0 -115.3 115.3 115.3" style="overflow:visible;">
	<g>
		<polygon class="st0" points="0,0 115.3,0 115.3,-115.3 0,-115.3 		"/>
		<polygon class="st5" points="115.3,0 0,0 0,-115.3 115.3,-115.3 		"/>
	</g>
</pattern>
<pattern  width="115.3" height="115.3" patternUnits="userSpaceOnUse" id="New_Pattern_Swatch_9" viewBox="0 -115.3 115.3 115.3" style="overflow:visible;">
	<g>
		<polygon class="st0" points="0,0 115.3,0 115.3,-115.3 0,-115.3 		"/>
		<polygon class="st6" points="115.3,0 0,0 0,-115.3 115.3,-115.3 		"/>
	</g>
</pattern>
<g id="pattern">
	<pattern  id="SVGID_1_" xlink:href="#New_Pattern" patternTransform="matrix(0.9756 0 0 0.9756 8.7805 22.8293)">
	</pattern>
	<rect class="st7" width="720" height="720"/>
</g>
<g id="mandala">
	<pattern  id="SVGID_2_" xlink:href="#New_Pattern_Swatch_9" patternTransform="matrix(0.9112 0 0 0.9614 -599.7463 -193.2944)">
	</pattern>
	<rect x="-9" y="-19.4" class="st8" width="738" height="748.4"/>
	<pattern  id="SVGID_3_" xlink:href="#New_Pattern" patternTransform="matrix(1 0 0 1 0 5.9997)">
	</pattern>
	<rect x="-9" y="-9" class="st9" width="738" height="738"/>
	<g>
		<g>
			<path class="st10" d="M229.9,459.8C772.5,66.3,140.6-103.1,413.7,509C140.6-103.1-68.2,676,474.4,282.5
				C-68.2,676,563.8,845.3,290.6,233.3C563.8,845.3,772.5,66.3,229.9,459.8z"/>
			<path class="st10" d="M453.3,244.9c-422.3,520.5,232,520.5-190.2,0c422.3,520.5,422.3-286,0,234.5c422.3-520.5-232-520.5,190.2,0
				C31-41.1,31,765.4,453.3,244.9z"/>
			<path class="st10" d="M293.2,510.3C566.3-101.8-65.7,67.5,476.9,461C-65.7,67.5,143.1,846.6,416.2,234.5
				c-273.1,612.1,358.8,442.8-183.8,49.2C775.1,677.3,566.3-101.8,293.2,510.3z"/>
			<path class="st10" d="M379.2,212.5c-105.4,661.9,461.2,334.8-164.8,95.1c626,239.7,222.7-458.8,117.3,203.1
				c105.4-661.9-461.2-334.8,164.8-95.1C-129.5,175.9,273.7,874.4,379.2,212.5z"/>
			<path class="st10" d="M373.2,522.4c-69.5-666.7-532.1-204,134.5-134.5C-159,318.4,411.4,888.7,341.9,222
				C411.4,888.7,874,426,207.3,356.5C874,426,303.7-144.3,373.2,522.4z"/>
			<path class="st10" d="M298.7,221.5c239.7,626,566.8,59.3-95.1,164.8c661.9-105.4-36.6-508.7,203.1,117.3
				c-239.7-626-566.8-59.3,95.1-164.8C-160.1,444.2,538.4,847.5,298.7,221.5z"/>
			<path class="st10" d="M448.5,492.9C55-49.7-114.3,582.2,497.8,309.1c-612.1,273.1,167,481.9-226.5-60.7
				C664.7,791,834.1,159,222,432.2C834.1,159,55-49.7,448.5,492.9z"/>
			<path class="st10" d="M233.6,269.5c520.5,422.3,520.5-232,0,190.2c520.5-422.3-286-422.3,234.5,0c-520.5-422.3-520.5,232,0-190.2
				C-52.4,691.8,754.1,691.8,233.6,269.5z"/>
			<path class="st10" d="M499,429.6c-612.1-273.1-442.8,358.8-49.2-183.8C56.3,788.5,835.3,579.7,223.2,306.6
				C835.3,579.7,666-52.3,272.5,490.3C666-52.3-113.1,156.5,499,429.6z"/>
			<path class="st10" d="M201.2,343.7C863.1,449.1,536-117.5,296.3,508.4c239.7-626-458.8-222.7,203.1-117.3
				c-661.9-105.4-334.8,461.2-95.1-164.8C164.6,852.3,863.1,449.1,201.2,343.7z"/>
			<path class="st10" d="M511.1,349.6c-666.7,69.5-204,532.1-134.5-134.5c-69.5,666.7,500.8,96.3-165.8,165.8
				c666.7-69.5,204-532.1,134.5,134.5C414.8-151.2-155.6,419.1,511.1,349.6z"/>
			<path class="st10" d="M210.2,424.1c626-239.7,59.3-566.8,164.8,95.1c-105.4-661.9-508.7,36.6,117.3-203.1
				c-626,239.7-59.3,566.8-164.8-95.1C432.9,882.9,836.2,184.4,210.2,424.1z"/>
			<path class="st10" d="M481.6,274.3C-61,667.8,571,837.1,297.8,225c273.1,612.1,481.9-167-60.7,226.5
				c542.6-393.5-89.4-562.9,183.8,49.2C147.7-111.3-61,667.8,481.6,274.3z"/>
			<path class="st10" d="M258.2,489.2c422.3-520.5-232-520.5,190.2,0c-422.3-520.5-422.3,286,0-234.5
				c-422.3,520.5,232,520.5-190.2,0C680.5,775.2,680.5-31.3,258.2,489.2z"/>
			<path class="st10" d="M418.4,223.8C145.2,835.9,777.2,666.6,234.6,273c542.6,393.5,333.8-385.6,60.7,226.5
				C568.4-112.5-63.5,56.8,479.1,450.3C-63.5,56.8,145.2,835.9,418.4,223.8z"/>
			<path class="st10" d="M332.4,521.6c105.4-661.9-461.2-334.8,164.8-95.1c-626-239.7-222.7,458.8-117.3-203.1
				c-105.4,661.9,461.2,334.8-164.8,95.1C841.1,558.2,437.8-140.3,332.4,521.6z"/>
			<path class="st10" d="M338.4,211.7c69.5,666.7,532.1,204-134.5,134.5c666.7,69.5,96.3-500.8,165.8,165.8
				c-69.5-666.7-532.1-204,134.5-134.5C-162.5,308,407.8,878.4,338.4,211.7z"/>
			<path class="st10" d="M412.8,512.6c-239.7-626-566.8-59.3,95.1-164.8C-154,453.2,544.5,856.5,304.8,230.6
				c239.7,626,566.8,59.3-95.1,164.8C871.6,289.9,173.1-113.4,412.8,512.6z"/>
			<path class="st10" d="M263,241.2c393.5,542.6,562.9-89.4-49.2,183.8c612.1-273.1-167-481.9,226.5,60.7
				C46.8-56.9-122.5,575.1,489.5,301.9C-122.5,575.1,656.5,783.8,263,241.2z"/>
			<path class="st10" d="M477.9,464.6c-520.5-422.3-520.5,232,0-190.2c-520.5,422.3,286,422.3-234.5,0
				c520.5,422.3,520.5-232,0,190.2C763.9,42.3-42.6,42.3,477.9,464.6z"/>
			<path class="st10" d="M212.5,304.4c612.1,273.1,442.8-358.8,49.2,183.8c393.5-542.6-385.6-333.8,226.5-60.7
				c-612.1-273.1-442.8,358.8-49.2-183.8C45.5,786.3,824.6,577.6,212.5,304.4z"/>
			<path class="st10" d="M510.3,390.4C-151.6,285,175.5,851.6,415.2,225.7C175.5,851.6,874,448.3,212.1,342.9
				C874,448.3,546.9-118.3,307.2,507.7C546.9-118.3-151.6,285,510.3,390.4z"/>
			<path class="st10" d="M200.4,384.5C867.1,315,404.4-147.7,334.9,519c69.5-666.7-500.8-96.3,165.8-165.8
				c-666.7,69.5-204,532.1-134.5-134.5C296.8,885.3,867.1,315,200.4,384.5z"/>
			<path class="st10" d="M501.3,310c-626,239.7-59.3,566.8-164.8-95.1C442,876.8,845.2,178.3,219.3,418
				c626-239.7,59.3-566.8,164.8,95.1C278.6-148.8-124.6,549.7,501.3,310z"/>
			<path class="st10" d="M229.9,459.8C772.5,66.3,140.6-103.1,413.7,509C140.6-103.1-68.2,676,474.4,282.5
				C-68.2,676,563.8,845.3,290.6,233.3C563.8,845.3,772.5,66.3,229.9,459.8z"/>
			<path class="st10" d="M453.3,244.9c-422.3,520.5,232,520.5-190.2,0c422.3,520.5,422.3-286,0,234.5c422.3-520.5-232-520.5,190.2,0
				C31-41.1,31,765.4,453.3,244.9z"/>
		</g>
		<g>
			
				<pattern  id="SVGID_4_" xlink:href="#New_Pattern_Swatch_4" patternTransform="matrix(-0.866 -0.5 0.5 -0.866 -10855.2168 -17170.7637)">
			</pattern>
			<path class="st11" d="M260.2,305.6c485.7,63.9,430.1-143.7,41.4,154.6c63.9-485.7-143.7-430.1,154.6-41.4
				c-485.7-63.9-430.1,143.7-41.4-154.6C350.8,749.8,558.4,694.2,260.2,305.6z"/>
			
				<pattern  id="SVGID_5_" xlink:href="#New_Pattern_Swatch_4" patternTransform="matrix(-0.9397 0.342 -0.342 -0.9397 -17456.7285 -11273.0059)">
			</pattern>
			<path class="st12" d="M251.9,400.8c361.2-331,166.4-421.8,145,67.6c-331-361.2-421.8-166.4,67.6-145
				c-361.2,331-166.4,421.8-145-67.6C650.4,617,741.3,422.2,251.9,400.8z"/>
			
				<pattern  id="SVGID_6_" xlink:href="#New_Pattern_Swatch_4" patternTransform="matrix(-0.342 0.9397 -0.9397 -0.342 -17157.0684 -2354.054)">
			</pattern>
			<path class="st13" d="M319.5,468.5c-21.4-489.4-216.1-398.6,145-67.6c-489.4,21.4-398.6,216.1-67.6-145
				c21.4,489.4,216.1,398.6-145,67.6C741.3,302.1,650.4,107.3,319.5,468.5z"/>
			
				<pattern  id="SVGID_7_" xlink:href="#New_Pattern_Swatch_4" patternTransform="matrix(0.5 0.866 -0.866 0.5 -10067.3496 3111.2019)">
			</pattern>
			<path class="st14" d="M414.7,460.1C26.1,161.9-29.5,369.5,456.2,305.6c-298.2,388.6-90.6,444.3-154.6-41.4
				c388.6,298.2,444.3,90.6-41.4,154.6C558.4,30.1,350.8-25.5,414.7,460.1z"/>
			
				<pattern  id="SVGID_8_" xlink:href="#New_Pattern_Swatch_4" patternTransform="matrix(0.9848 0.1736 -0.1736 0.9848 -1449.3801 1188.249)">
			</pattern>
			<path class="st15" d="M469.6,381.8c-478.3,106-355,282.1-91.8-131.1c106,478.3,282.1,355-131.1,91.8
				c478.3-106,355-282.1,91.8,131.1C232.5-4.7,56.4,118.6,469.6,381.8z"/>
			
				<pattern  id="SVGID_9_" xlink:href="#New_Pattern_Swatch_4" patternTransform="matrix(0.766 -0.6428 0.6428 0.766 2700.5525 -6625.2676)">
			</pattern>
			<path class="st16" d="M444.8,289.4c-226.2,434.5-12.1,453.2-159.4-13.9c434.5,226.2,453.2,12.1-13.9,159.4
				C497.7,0.4,283.6-18.4,430.9,448.8C-3.6,222.6-22.3,436.7,444.8,289.4z"/>
			
				<pattern  id="SVGID_10_" xlink:href="#New_Pattern_Swatch_4" patternTransform="matrix(1.391775e-09 -1 1 1.391775e-09 -608.6802 -14815.5078)">
			</pattern>
			<path class="st17" d="M358.2,249C545.6,701.6,697.6,549.6,245,362.1C697.6,174.7,545.6,22.7,358.2,475.3
				C170.7,22.7,18.7,174.7,471.3,362.1C18.7,549.6,170.7,701.6,358.2,249z"/>
			
				<pattern  id="SVGID_11_" xlink:href="#New_Pattern_Swatch_4" patternTransform="matrix(-0.766 -0.6428 0.6428 -0.766 -9060.0605 -17563.3301)">
			</pattern>
			<path class="st18" d="M271.5,289.4c467.2,147.3,448.5-66.8,13.9,159.4C432.8-18.4,218.6,0.4,444.8,434.9
				C-22.3,287.6-3.6,501.7,430.9,275.5C283.6,742.7,497.7,723.9,271.5,289.4z"/>
			
				<pattern  id="SVGID_12_" xlink:href="#New_Pattern_Swatch_4" patternTransform="matrix(-0.9848 0.1736 -0.1736 -0.9848 -16583.543 -12858.4404)">
			</pattern>
			<path class="st19" d="M246.7,381.8C659.9,118.6,483.8-4.7,377.8,473.6C114.6,60.4-8.7,236.5,469.6,342.5
				C56.4,605.7,232.5,729,338.5,250.7C601.7,663.9,725,487.8,246.7,381.8z"/>
			
				<pattern  id="SVGID_13_" xlink:href="#New_Pattern_Swatch_4" patternTransform="matrix(-0.5 0.866 -0.866 -0.5 -17735.8379 -4035.8169)">
			</pattern>
			<path class="st20" d="M301.6,460.1c63.9-485.7-143.7-430.1,154.6-41.4c-485.7-63.9-430.1,143.7-41.4-154.6
				c-63.9,485.7,143.7,430.1-154.6,41.4C745.9,369.5,690.2,161.9,301.6,460.1z"/>
			
				<pattern  id="SVGID_14_" xlink:href="#New_Pattern_Swatch_4" patternTransform="matrix(0.342 0.9397 -0.9397 0.342 -11817.5547 2440.8364)">
			</pattern>
			<path class="st21" d="M396.9,468.5c-331-361.2-421.8-166.4,67.6-145c-361.2,331-166.4,421.8-145-67.6
				c331,361.2,421.8,166.4-67.6,145C613,69.9,418.2-20.9,396.9,468.5z"/>
			
				<pattern  id="SVGID_15_" xlink:href="#New_Pattern_Swatch_4" patternTransform="matrix(0.9397 0.342 -0.342 0.9397 -3026.865 2141.176)">
			</pattern>
			<path class="st22" d="M464.5,400.8c-489.4,21.4-398.6,216.1-67.6-145c21.4,489.4,216.1,398.6-145,67.6
				c489.4-21.4,398.6-216.1,67.6,145C298.1-20.9,103.3,69.9,464.5,400.8z"/>
			
				<pattern  id="SVGID_16_" xlink:href="#New_Pattern_Swatch_4" patternTransform="matrix(0.866 -0.5 0.5 0.866 2458.9165 -4823.6846)">
			</pattern>
			<path class="st23" d="M456.2,305.6c-298.2,388.6-90.6,444.3-154.6-41.4c388.6,298.2,444.3,90.6-41.4,154.6
				c298.2-388.6,90.6-444.3,154.6,41.4C26.1,161.9-29.5,369.5,456.2,305.6z"/>
			
				<pattern  id="SVGID_17_" xlink:href="#New_Pattern_Swatch_4" patternTransform="matrix(0.1736 -0.9848 0.9848 0.1736 523.8728 -13507.874)">
			</pattern>
			<path class="st24" d="M377.8,250.7c106,478.3,282.1,355-131.1,91.8c478.3-106,355-282.1,91.8,131.1
				c-106-478.3-282.1-355,131.1-91.8C-8.7,487.8,114.6,663.9,377.8,250.7z"/>
			
				<pattern  id="SVGID_18_" xlink:href="#New_Pattern_Swatch_4" patternTransform="matrix(-0.6428 -0.766 0.766 -0.6428 -7288.9482 -17583.3535)">
			</pattern>
			<path class="st25" d="M285.4,275.5c434.5,226.2,453.2,12.1-13.9,159.4C497.7,0.4,283.6-18.4,430.9,448.8
				C-3.6,222.6-22.3,436.7,444.8,289.4C218.6,723.9,432.8,742.7,285.4,275.5z"/>
			<pattern  id="SVGID_19_" xlink:href="#New_Pattern_Swatch_4" patternTransform="matrix(-1 0 0 -1 -15424.1875 -14206.8271)">
			</pattern>
			<path class="st26" d="M245,362.1C697.6,174.7,545.6,22.7,358.2,475.3C170.7,22.7,18.7,174.7,471.3,362.1
				C18.7,549.6,170.7,701.6,358.2,249C545.6,701.6,697.6,549.6,245,362.1z"/>
			
				<pattern  id="SVGID_20_" xlink:href="#New_Pattern_Swatch_4" patternTransform="matrix(-0.6428 0.766 -0.766 -0.6428 -18117.0098 -5822.7397)">
			</pattern>
			<path class="st27" d="M285.4,448.8C432.8-18.4,218.6,0.4,444.8,434.9C-22.3,287.6-3.6,501.7,430.9,275.5
				c-147.3,467.2,66.8,448.5-159.4,13.9C738.7,436.7,720,222.6,285.4,448.8z"/>
			
				<pattern  id="SVGID_21_" xlink:href="#New_Pattern_Swatch_4" patternTransform="matrix(0.1736 0.9848 -0.9848 0.1736 -13411.4248 1626.2898)">
			</pattern>
			<path class="st28" d="M377.8,473.6C114.6,60.4-8.7,236.5,469.6,342.5C56.4,605.7,232.5,729,338.5,250.7
				C601.7,663.9,725,487.8,246.7,381.8C659.9,118.6,483.8-4.7,377.8,473.6z"/>
			
				<pattern  id="SVGID_22_" xlink:href="#New_Pattern_Swatch_4" patternTransform="matrix(0.866 0.5 -0.5 0.866 -4600.8921 2844.8044)">
			</pattern>
			<path class="st29" d="M456.2,418.7c-485.7-63.9-430.1,143.7-41.4-154.6c-63.9,485.7,143.7,430.1-154.6,41.4
				c485.7,63.9,430.1-143.7,41.4,154.6C365.5-25.5,157.9,30.1,456.2,418.7z"/>
			
				<pattern  id="SVGID_23_" xlink:href="#New_Pattern_Swatch_4" patternTransform="matrix(0.9397 -0.342 0.342 0.9397 1896.2871 -3198.3379)">
			</pattern>
			<path class="st30" d="M464.5,323.4c-361.2,331-166.4,421.8-145-67.6c331,361.2,421.8,166.4-67.6,145
				c361.2-331,166.4-421.8,145,67.6C65.9,107.3-24.9,302.1,464.5,323.4z"/>
			
				<pattern  id="SVGID_24_" xlink:href="#New_Pattern_Swatch_4" patternTransform="matrix(0.342 -0.9397 0.9397 0.342 1468.3649 -11989.0283)">
			</pattern>
			<path class="st31" d="M396.9,255.8c21.4,489.4,216.1,398.6-145,67.6c489.4-21.4,398.6-216.1,67.6,145
				c-21.4-489.4-216.1-398.6,145-67.6C-24.9,422.2,65.9,617,396.9,255.8z"/>
			
				<pattern  id="SVGID_25_" xlink:href="#New_Pattern_Swatch_4" patternTransform="matrix(-0.5 -0.866 0.866 -0.5 -5475.9697 -17349.9512)">
			</pattern>
			<path class="st32" d="M301.6,264.2c388.6,298.2,444.3,90.6-41.4,154.6c298.2-388.6,90.6-444.3,154.6,41.4
				C26.1,161.9-29.5,369.5,456.2,305.6C157.9,694.2,365.5,749.8,301.6,264.2z"/>
			
				<pattern  id="SVGID_26_" xlink:href="#New_Pattern_Swatch_4" patternTransform="matrix(-0.9848 -0.1736 0.1736 -0.9848 -14172.25 -15481.127)">
			</pattern>
			<path class="st33" d="M246.7,342.5c478.3-106,355-282.1,91.8,131.1c-106-478.3-282.1-355,131.1-91.8
				c-478.3,106-355,282.1-91.8-131.1C483.8,729,659.9,605.7,246.7,342.5z"/>
			
				<pattern  id="SVGID_27_" xlink:href="#New_Pattern_Swatch_4" patternTransform="matrix(-0.766 0.6428 -0.6428 -0.766 -18247.0332 -7593.8521)">
			</pattern>
			<path class="st34" d="M271.5,434.9C497.7,0.4,283.6-18.4,430.9,448.8C-3.6,222.6-22.3,436.7,444.8,289.4
				c-226.2,434.5-12.1,453.2-159.4-13.9C720,501.7,738.7,287.6,271.5,434.9z"/>
			
				<pattern  id="SVGID_28_" xlink:href="#New_Pattern_Swatch_4" patternTransform="matrix(-1.391775e-09 1 -1 -1.391775e-09 -14815.5078 608.6802)">
			</pattern>
			<path class="st35" d="M358.2,475.3C170.7,22.7,18.7,174.7,471.3,362.1C18.7,549.6,170.7,701.6,358.2,249
				C545.6,701.6,697.6,549.6,245,362.1C697.6,174.7,545.6,22.7,358.2,475.3z"/>
			
				<pattern  id="SVGID_29_" xlink:href="#New_Pattern_Swatch_4" patternTransform="matrix(0.766 0.6428 -0.6428 0.766 -6376.4199 3234.2087)">
			</pattern>
			<path class="st36" d="M444.8,434.9C-22.3,287.6-3.6,501.7,430.9,275.5c-147.3,467.2,66.8,448.5-159.4,13.9
				c467.2,147.3,448.5-66.8,13.9,159.4C432.8-18.4,218.6,0.4,444.8,434.9z"/>
			
				<pattern  id="SVGID_30_" xlink:href="#New_Pattern_Swatch_4" patternTransform="matrix(0.9848 -0.1736 0.1736 0.9848 1073.3057 -1545.8291)">
			</pattern>
			<path class="st37" d="M469.6,342.5C56.4,605.7,232.5,729,338.5,250.7C601.7,663.9,725,487.8,246.7,381.8
				C659.9,118.6,483.8-4.7,377.8,473.6C114.6,60.4-8.7,236.5,469.6,342.5z"/>
			
				<pattern  id="SVGID_31_" xlink:href="#New_Pattern_Swatch_4" patternTransform="matrix(0.5 -0.866 0.866 0.5 2279.7292 -10290.1416)">
			</pattern>
			<path class="st38" d="M414.7,264.2c-63.9,485.7,143.7,430.1-154.6,41.4c485.7,63.9,430.1-143.7,41.4,154.6
				c63.9-485.7-143.7-430.1,154.6-41.4C-29.5,354.8,26.1,562.4,414.7,264.2z"/>
			
				<pattern  id="SVGID_32_" xlink:href="#New_Pattern_Swatch_4" patternTransform="matrix(-0.342 -0.9397 0.9397 -0.342 -3742.8872 -16912.1797)">
			</pattern>
			<path class="st39" d="M319.5,255.8c331,361.2,421.8,166.4-67.6,145c361.2-331,166.4-421.8,145,67.6
				c-331-361.2-421.8-166.4,67.6-145C103.3,654.4,298.1,745.2,319.5,255.8z"/>
			
				<pattern  id="SVGID_33_" xlink:href="#New_Pattern_Swatch_4" patternTransform="matrix(-0.9397 -0.342 0.342 -0.9397 -12661.8389 -16484.2578)">
			</pattern>
			<path class="st40" d="M251.9,323.4c489.4-21.4,398.6-216.1,67.6,145c-21.4-489.4-216.1-398.6,145-67.6
				c-489.4,21.4-398.6,216.1-67.6-145C418.2,745.2,613,654.4,251.9,323.4z"/>
			
				<pattern  id="SVGID_34_" xlink:href="#New_Pattern_Swatch_4" patternTransform="matrix(-0.866 0.5 -0.5 -0.866 -18002.2363 -9415.0645)">
			</pattern>
			<path class="st41" d="M260.2,418.7c298.2-388.6,90.6-444.3,154.6,41.4C26.1,161.9-29.5,369.5,456.2,305.6
				c-298.2,388.6-90.6,444.3-154.6-41.4C690.2,562.4,745.9,354.8,260.2,418.7z"/>
			
				<pattern  id="SVGID_35_" xlink:href="#New_Pattern_Swatch_4" patternTransform="matrix(-0.1736 0.9848 -0.9848 -0.1736 -16145.5029 -785.0038)">
			</pattern>
			<path class="st42" d="M338.5,473.6c-106-478.3-282.1-355,131.1-91.8c-478.3,106-355,282.1-91.8-131.1
				c106,478.3,282.1,355-131.1,91.8C725,236.5,601.7,60.4,338.5,473.6z"/>
			
				<pattern  id="SVGID_36_" xlink:href="#New_Pattern_Swatch_4" patternTransform="matrix(0.6428 0.766 -0.766 0.6428 -8257.5322 3364.2332)">
			</pattern>
			<path class="st43" d="M430.9,448.8C-3.6,222.6-22.3,436.7,444.8,289.4c-226.2,434.5-12.1,453.2-159.4-13.9
				c434.5,226.2,453.2,12.1-13.9,159.4C497.7,0.4,283.6-18.4,430.9,448.8z"/>
			<path class="st44" d="M471.3,362.1C18.7,549.6,170.7,701.6,358.2,249C545.6,701.6,697.6,549.6,245,362.1
				C697.6,174.7,545.6,22.7,358.2,475.3C170.7,22.7,18.7,174.7,471.3,362.1z"/>
		</g>
		<g>
			
				<pattern  id="SVGID_37_" xlink:href="#New_Pattern_Swatch_2" patternTransform="matrix(-0.1564 0.9877 -0.9877 -0.1564 -15454.2725 -616.2369)">
			</pattern>
			<path class="st45" d="M358.3,361c-87.8-240.7-203.1-156.9-1.3,0.9c-240.7,87.8-156.9,203.1,0.9,1.3
				c87.8,240.7,203.1,156.9,1.3-0.9C600,274.5,516.2,159.2,358.3,361z"/>
			
				<pattern  id="SVGID_38_" xlink:href="#New_Pattern_Swatch_2" patternTransform="matrix(-1.750966e-09 1 -1 -1.750966e-09 -14354.3496 608.6802)">
			</pattern>
			<path class="st46" d="M358.2,361C233.8,137,133,237.8,357,362.1c-224,124.4-123.2,225.2,1.1,1.1c124.4,224,225.2,123.2,1.1-1.1
				C583.3,237.8,482.5,137,358.2,361z"/>
			
				<pattern  id="SVGID_39_" xlink:href="#New_Pattern_Swatch_2" patternTransform="matrix(0.1564 0.9877 -0.9877 0.1564 -13157.0254 1577.5464)">
			</pattern>
			<path class="st47" d="M358,361c-157.9-201.8-241.7-86.5-0.9,1.3c-201.8,157.9-86.5,241.7,1.3,0.9c157.9,201.8,241.7,86.5,0.9-1.3
				C561.1,204.1,445.8,120.3,358,361z"/>
			
				<pattern  id="SVGID_40_" xlink:href="#New_Pattern_Swatch_2" patternTransform="matrix(0.309 0.9511 -0.9511 0.309 -11754.7002 2343.9524)">
			</pattern>
			<path class="st48" d="M357.8,361.1c-187.5-174.6-252.2-47.6-0.7,1.4c-174.6,187.5-47.6,252.2,1.4,0.7
				c187.5,174.6,252.2,47.6,0.7-1.4C533.9,174.3,406.9,109.6,357.8,361.1z"/>
			
				<pattern  id="SVGID_41_" xlink:href="#New_Pattern_Swatch_2" patternTransform="matrix(0.454 0.891 -0.891 0.454 -10266.0547 2872.7615)">
			</pattern>
			<path class="st49" d="M357.7,361.1c-212.5-143.2-256.6-7.6-0.5,1.5c-143.2,212.5-7.6,256.6,1.5,0.5
				c212.5,143.2,256.6,7.6,0.5-1.5C502.3,149.1,366.8,105.1,357.7,361.1z"/>
			
				<pattern  id="SVGID_42_" xlink:href="#New_Pattern_Swatch_2" patternTransform="matrix(0.5878 0.809 -0.809 0.5878 -8641.332 3214.9961)">
			</pattern>
			<path class="st50" d="M357.5,361.2c-232.3-108.1-254.6,32.7-0.3,1.6c-108.1,232.3,32.7,254.6,1.6,0.3
				c232.3,108.1,254.6-32.7,0.3-1.6C467.2,129.2,326.4,106.9,357.5,361.2z"/>
			
				<pattern  id="SVGID_43_" xlink:href="#New_Pattern_Swatch_2" patternTransform="matrix(0.7071 0.7071 -0.7071 0.7071 -7037.5376 3290.7983)">
			</pattern>
			<path class="st51" d="M357.4,361.3c-246.3-70.5-246.3,72.1,0,1.6c-70.5,246.3,72.1,246.3,1.6,0c246.3,70.5,246.3-72.1,0-1.6
				C429.5,115,286.9,115,357.4,361.3z"/>
			
				<pattern  id="SVGID_44_" xlink:href="#New_Pattern_Swatch_2" patternTransform="matrix(0.809 0.5878 -0.5878 0.809 -5473.1855 3087.8286)">
			</pattern>
			<path class="st52" d="M357.3,361.5c-254.3-31.1-232,109.7,0.3,1.6c-31.1,254.3,109.7,232,1.6-0.3c254.3,31.1,232-109.7-0.3-1.6
				C389.9,106.9,249.1,129.2,357.3,361.5z"/>
			
				<pattern  id="SVGID_45_" xlink:href="#New_Pattern_Swatch_2" patternTransform="matrix(0.891 0.454 -0.454 0.891 -3976.322 2590.1064)">
			</pattern>
			<path class="st53" d="M357.2,361.6c-256.1,9.1-212,144.7,0.5,1.5c9.1,256.1,144.7,212,1.5-0.5c256.1-9.1,212-144.7-0.5-1.5
				C349.6,105.1,214,149.1,357.2,361.6z"/>
			
				<pattern  id="SVGID_46_" xlink:href="#New_Pattern_Swatch_2" patternTransform="matrix(0.9511 0.309 -0.309 0.9511 -2512.3733 1926.8885)">
			</pattern>
			<path class="st54" d="M357.1,361.8c-251.5,49-186.8,176.1,0.7,1.4c49,251.5,176.1,186.8,1.4-0.7c251.5-49,186.8-176.1-0.7-1.4
				C309.5,109.6,182.5,174.3,357.1,361.8z"/>
			
				<pattern  id="SVGID_47_" xlink:href="#New_Pattern_Swatch_2" patternTransform="matrix(0.9877 0.1564 -0.1564 0.9877 -1181.4302 1028.0918)">
			</pattern>
			<path class="st55" d="M357.1,362c-240.7,87.8-156.9,203.1,0.9,1.3c87.8,240.7,203.1,156.9,1.3-0.9
				c240.7-87.8,156.9-203.1-0.9-1.3C270.6,120.3,155.2,204.1,357.1,362z"/>
			<path class="st56" d="M357,362.1c-224,124.4-123.2,225.2,1.1,1.1c124.4,224,225.2,123.2,1.1-1.1c224-124.4,123.2-225.2-1.1-1.1
				C233.8,137,133,237.8,357,362.1z"/>
		</g>
		<g>
			
				<pattern  id="SVGID_48_" xlink:href="#New_Pattern_Swatch_5" patternTransform="matrix(-0.848 -0.5299 0.5299 -0.848 -10618.6338 -17123.2949)">
			</pattern>
			<path class="st57" d="M615,302.8c-293.3,67.7-248.5,95.7-316.2-197.6c67.7,293.3,95.7,248.5-197.6,316.2
				c293.3-67.7,248.5-95.7,316.2,197.6C349.8,325.8,321.8,370.5,615,302.8z"/>
			
				<pattern  id="SVGID_49_" xlink:href="#New_Pattern_Swatch_5" patternTransform="matrix(-0.9945 -0.1045 0.1045 -0.9945 -14777.3721 -14837.8975)">
			</pattern>
			<path class="st58" d="M563,196.2c-233.9,189.4-181.4,194.9-370.8-39c189.4,233.9,194.9,181.4-39,370.8
				c233.9-189.4,181.4-194.9,370.8,39C334.7,333.1,329.2,385.6,563,196.2z"/>
			
				<pattern  id="SVGID_50_" xlink:href="#New_Pattern_Swatch_5" patternTransform="matrix(-0.9397 0.342 -0.342 -0.9397 -17446.7715 -10908.5645)">
			</pattern>
			<path class="st59" d="M469.6,123.2C342.4,396,392,377.9,119.2,250.7C392,377.9,374,328.3,246.8,601.1
				C374,328.3,324.3,346.4,597.1,473.6C324.3,346.4,342.4,396,469.6,123.2z"/>
			
				<pattern  id="SVGID_51_" xlink:href="#New_Pattern_Swatch_5" patternTransform="matrix(-0.6947 0.7193 -0.7193 -0.6947 -18073.2168 -6271.332)">
			</pattern>
			<path class="st60" d="M353.6,98.6c5.3,300.9,41.9,262.9-259,268.2c300.9-5.3,262.9-41.9,268.2,259
				c-5.3-300.9-41.9-262.9,259-268.2C320.8,362.8,358.8,399.5,353.6,98.6z"/>
			
				<pattern  id="SVGID_52_" xlink:href="#New_Pattern_Swatch_5" patternTransform="matrix(-0.309 0.9511 -0.9511 -0.309 -16752.457 -1817.5458)">
			</pattern>
			<path class="st61" d="M238.5,127.2c136.6,268.2,153,217.9-115.2,354.6c268.2-136.6,217.9-153,354.6,115.2
				c-136.6-268.2-153-217.9,115.2-354.6C324.9,379.1,375.1,395.4,238.5,127.2z"/>
			
				<pattern  id="SVGID_53_" xlink:href="#New_Pattern_Swatch_5" patternTransform="matrix(0.1392 0.9903 -0.9903 0.1392 -13476.0371 1618.0514)">
			</pattern>
			<path class="st62" d="M147.6,203.5c240.4,181.1,233,128.8,51.9,369.2c181.1-240.4,128.8-233,369.2-51.9
				c-240.4-181.1-233-128.8-51.9-369.2C335.7,392,388,384.6,147.6,203.5z"/>
			
				<pattern  id="SVGID_54_" xlink:href="#New_Pattern_Swatch_5" patternTransform="matrix(0.5592 0.829 -0.829 0.5592 -9032.1572 3253.0042)">
			</pattern>
			<path class="st63" d="M99.4,311.8c295.4,57.4,265.9,13.7,208.5,309.1C365.3,325.5,321.5,355,617,412.4
				C321.5,355,351,398.8,408.5,103.4C351,398.8,394.8,369.3,99.4,311.8z"/>
			
				<pattern  id="SVGID_55_" xlink:href="#New_Pattern_Swatch_5" patternTransform="matrix(0.866 0.5 -0.5 0.866 -4385.7588 2702.762)">
			</pattern>
			<path class="st64" d="M103.5,430.4c290.7-77.9,245-104.3,322.9,186.4c-77.9-290.7-104.3-245,186.4-322.9
				c-290.7,77.9-245,104.3-322.9-186.4C367.8,398.2,394.2,352.5,103.5,430.4z"/>
			
				<pattern  id="SVGID_56_" xlink:href="#New_Pattern_Swatch_5" patternTransform="matrix(0.9976 6.975648e-02 -6.975648e-02 0.9976 -415.8446 290.2277)">
			</pattern>
			<path class="st65" d="M159.2,535.1c227.1-197.5,174.5-201.1,371.9,26C333.7,334,330,386.6,557.1,189.2
				c-227.1,197.5-174.5,201.1-371.9-26C382.7,390.3,386.4,337.6,159.2,535.1z"/>
			
				<pattern  id="SVGID_57_" xlink:href="#New_Pattern_Swatch_5" patternTransform="matrix(0.9272 -0.3746 0.3746 0.9272 2091.189 -3636.022)">
			</pattern>
			<path class="st66" d="M255.2,604.8c117.6-277,68.6-257.3,345.7-139.7c-277-117.6-257.3-68.6-139.7-345.7
				c-117.6,277-68.6,257.3-345.7,139.7C392.5,376.7,372.8,327.8,255.2,604.8z"/>
			
				<pattern  id="SVGID_58_" xlink:href="#New_Pattern_Swatch_5" patternTransform="matrix(0.6691 -0.7431 0.7431 0.6691 2692.6172 -8239.6738)">
			</pattern>
			<path class="st67" d="M372,625.4c-15.8-300.6-51.1-261.3,249.5-277.1c-300.6,15.8-261.3,51.1-277.1-249.5
				c15.8,300.6,51.1,261.3-249.5,277.1C395.5,360.2,356.2,324.9,372,625.4z"/>
			
				<pattern  id="SVGID_59_" xlink:href="#New_Pattern_Swatch_5" patternTransform="matrix(0.2756 -0.9613 0.9613 0.2756 1116.8209 -12715.3408)">
			</pattern>
			<path class="st68" d="M486,592.7C340.1,329.5,325.5,380.2,588.7,234.3C325.5,380.2,376.3,394.8,230.4,131.6
				C376.3,394.8,390.8,344,127.6,490C390.8,344,340.1,329.5,486,592.7z"/>
			
				<pattern  id="SVGID_60_" xlink:href="#New_Pattern_Swatch_5" patternTransform="matrix(-0.1736 -0.9848 0.9848 -0.1736 -2212.3513 -16010.54)">
			</pattern>
			<path class="st69" d="M574.1,513.4c-246.5-172.6-237.4-120.6-64.7-367.2c-172.6,246.5-120.6,237.4-367.2,64.7
				C388.8,383.6,379.6,331.6,207,578.1C379.6,331.6,327.6,340.7,574.1,513.4z"/>
			
				<pattern  id="SVGID_61_" xlink:href="#New_Pattern_Swatch_5" patternTransform="matrix(-0.5878 -0.809 0.809 -0.5878 -6654.7271 -17436.207)">
			</pattern>
			<path class="st70" d="M618.6,403.4c-297.3-47.1-266.2-4.4-219.1-301.6C352.3,399,395.1,368,97.8,320.9
				C395.1,368,364,325.3,316.9,622.5C364,325.3,321.3,356.3,618.6,403.4z"/>
			
				<pattern  id="SVGID_62_" xlink:href="#New_Pattern_Swatch_5" patternTransform="matrix(-0.8829 -0.4695 0.4695 -0.8829 -11271.335 -16917.8359)">
			</pattern>
			<path class="st71" d="M610.3,285.1c-287.8,88-241.2,112.8-329.2-175c88,287.8,112.8,241.2-175,329.2
				c287.8-88,241.2-112.8,329.2,175C347.3,326.4,322.5,373.1,610.3,285.1z"/>
			
				<pattern  id="SVGID_63_" xlink:href="#New_Pattern_Swatch_5" patternTransform="matrix(-0.9994 -3.489950e-02 3.489950e-02 -0.9994 -15242.748 -14414.793)">
			</pattern>
			<path class="st72" d="M551,182.3c-220.1,205.3-167.3,207.1-372.6-13c205.3,220.1,207.1,167.3-13,372.6
				c220.1-205.3,167.3-207.1,372.6,13C332.7,334.8,330.9,387.6,551,182.3z"/>
			
				<pattern  id="SVGID_64_" xlink:href="#New_Pattern_Swatch_5" patternTransform="matrix(-0.9135 0.4067 -0.4067 -0.9135 -17682.1016 -10387.1621)">
			</pattern>
			<path class="st73" d="M452.6,116C344.8,397,393,375.5,112.1,267.7c281,107.9,259.5,59.6,151.6,340.6
				c107.9-281,59.6-259.5,340.6-151.6C323.3,348.8,344.8,397,452.6,116z"/>
			
				<pattern  id="SVGID_65_" xlink:href="#New_Pattern_Swatch_5" patternTransform="matrix(-0.6428 0.766 -0.766 -0.6428 -18102.7988 -5660.3164)">
			</pattern>
			<path class="st74" d="M335.2,99.5c26.2,299.8,60.2,259.4-239.6,285.6c299.8-26.2,259.4-60.2,285.6,239.6
				C354.9,324.9,321,365.4,620.8,339.2C321,365.4,361.4,399.3,335.2,99.5z"/>
			
				<pattern  id="SVGID_66_" xlink:href="#New_Pattern_Swatch_5" patternTransform="matrix(-0.2419 0.9703 -0.9703 -0.2419 -16513.9297 -1232.5934)">
			</pattern>
			<path class="st75" d="M222.4,136.2c155,258,167.8,206.7-90.2,361.8c258-155,206.7-167.8,361.8,90.2
				c-155-258-167.8-206.7,90.2-361.8C326.2,381.4,377.4,394.1,222.4,136.2z"/>
			
				<pattern  id="SVGID_67_" xlink:href="#New_Pattern_Swatch_5" patternTransform="matrix(0.2079 0.9781 -0.9781 0.2079 -13041.7119 2034.5299)">
			</pattern>
			<path class="st76" d="M137.1,218.6c252.4,163.9,241.4,112.3,77.5,364.7c163.9-252.4,112.3-241.4,364.7-77.5
				C326.9,341.8,337.8,393.5,501.8,141C337.8,393.5,389.5,382.5,137.1,218.6z"/>
			
				<pattern  id="SVGID_68_" xlink:href="#New_Pattern_Swatch_5" patternTransform="matrix(0.6157 0.788 -0.788 0.6157 -8466.541 3456.7256)">
			</pattern>
			<path class="st77" d="M96.5,330c298.7,36.7,266.2-4.9,229.5,293.8c36.7-298.7-4.9-266.2,293.8-229.5
				c-298.7-36.7-266.2,4.9-229.5-293.8C353.6,399.2,395.2,366.7,96.5,330z"/>
			
				<pattern  id="SVGID_69_" xlink:href="#New_Pattern_Swatch_5" patternTransform="matrix(0.8988 0.4384 -0.4384 0.8988 -3843.7104 2716.0464)">
			</pattern>
			<path class="st78" d="M108.9,448C393.5,350,346,326.8,444,611.4c-98-284.6-121.1-237.1,163.4-335.1
				c-284.6,98-237.1,121.1-335.1-163.4C370.3,397.4,393.5,350,108.9,448z"/>
			<path class="st79" d="M171.8,548.6c212.8-212.8,160-212.8,372.8,0c-212.8-212.8-212.8-160,0-372.8
				c-212.8,212.8-160,212.8-372.8,0C384.6,388.5,384.6,335.7,171.8,548.6z"/>
		</g>
		<g>
			<path class="st80" d="M326.2,481.3c-7.9,29.5,180.5-79.3,151.1-87.2C506.8,402,398,213.5,390.1,243
				c7.9-29.5-180.5,79.3-151.1,87.2C209.6,322.3,318.4,510.7,326.2,481.3z"/>
			<path class="st80" d="M390.1,481.3c7.9,29.5,116.7-159,87.2-151.1c29.5-7.9-159-116.7-151.1-87.2c-7.9-29.5-116.7,159-87.2,151.1
				C209.6,402,398,510.7,390.1,481.3z"/>
			<path class="st80" d="M445.4,449.4c21.6,21.6,21.6-196,0-174.4c21.6-21.6-196-21.6-174.4,0c-21.6-21.6-21.6,196,0,174.4
				C249.4,470.9,467,470.9,445.4,449.4z"/>
			<path class="st80" d="M477.3,394.1C506.8,402,398,213.5,390.1,243c7.9-29.5-180.5,79.3-151.1,87.2
				c-29.5-7.9,79.3,180.5,87.2,151.1C318.4,510.7,506.8,402,477.3,394.1z"/>
			<path class="st80" d="M477.3,330.2c29.5-7.9-159-116.7-151.1-87.2c-7.9-29.5-116.7,159-87.2,151.1
				c-29.5,7.9,159,116.7,151.1,87.2C398,510.7,506.8,322.3,477.3,330.2z"/>
			<path class="st80" d="M445.4,274.9c21.6-21.6-196-21.6-174.4,0c-21.6-21.6-21.6,196,0,174.4c-21.6,21.6,196,21.6,174.4,0
				C467,470.9,467,253.4,445.4,274.9z"/>
			<path class="st80" d="M390.1,243c7.9-29.5-180.5,79.3-151.1,87.2c-29.5-7.9,79.3,180.5,87.2,151.1
				c-7.9,29.5,180.5-79.3,151.1-87.2C506.8,402,398,213.5,390.1,243z"/>
			<path class="st80" d="M326.2,243c-7.9-29.5-116.7,159-87.2,151.1c-29.5,7.9,159,116.7,151.1,87.2c7.9,29.5,116.7-159,87.2-151.1
				C506.8,322.3,318.4,213.5,326.2,243z"/>
			<path class="st80" d="M270.9,274.9c-21.6-21.6-21.6,196,0,174.4c-21.6,21.6,196,21.6,174.4,0c21.6,21.6,21.6-196,0-174.4
				C467,253.4,249.4,253.4,270.9,274.9z"/>
			<path class="st80" d="M239,330.2c-29.5-7.9,79.3,180.5,87.2,151.1c-7.9,29.5,180.5-79.3,151.1-87.2
				C506.8,402,398,213.5,390.1,243C398,213.5,209.6,322.3,239,330.2z"/>
			<path class="st80" d="M239,394.1c-29.5,7.9,159,116.7,151.1,87.2c7.9,29.5,116.7-159,87.2-151.1c29.5-7.9-159-116.7-151.1-87.2
				C318.4,213.5,209.6,402,239,394.1z"/>
			<path class="st80" d="M270.9,449.4c-21.6,21.6,196,21.6,174.4,0c21.6,21.6,21.6-196,0-174.4c21.6-21.6-196-21.6-174.4,0
				C249.4,253.4,249.4,470.9,270.9,449.4z"/>
		</g>
		<g>
			
				<pattern  id="SVGID_70_" xlink:href="#New_Pattern_Swatch_2" patternTransform="matrix(0.866 0.5 -0.5 0.866 -4658.5366 2944.6482)">
			</pattern>
			<path class="st81" d="M218.3,399.6c61.2-16.4,161,41.2,177.4,102.4c-16.4-61.2,41.2-161,102.4-177.4
				c-61.2,16.4-161-41.2-177.4-102.4C337.1,283.5,279.5,383.2,218.3,399.6z"/>
			
				<pattern  id="SVGID_71_" xlink:href="#New_Pattern_Swatch_2" patternTransform="matrix(0.5 0.866 -0.866 0.5 -10167.1924 3168.8467)">
			</pattern>
			<path class="st82" d="M218.3,324.7c61.2,16.4,118.8,116.2,102.4,177.4c16.4-61.2,116.2-118.8,177.4-102.4
				c-61.2-16.4-118.8-116.2-102.4-177.4C379.3,283.5,279.5,341.1,218.3,324.7z"/>
			
				<pattern  id="SVGID_72_" xlink:href="#New_Pattern_Swatch_2" patternTransform="matrix(-4.489759e-11 1 -1 -4.489759e-11 -15046.0869 493.3907)">
			</pattern>
			<path class="st83" d="M255.8,259.7c44.8,44.8,44.8,160,0,204.8c44.8-44.8,160-44.8,204.8,0c-44.8-44.8-44.8-160,0-204.8
				C415.8,304.5,300.6,304.5,255.8,259.7z"/>
			
				<pattern  id="SVGID_73_" xlink:href="#New_Pattern_Swatch_2" patternTransform="matrix(-0.5 0.866 -0.866 -0.5 -17935.5254 -4151.1064)">
			</pattern>
			<path class="st84" d="M320.7,222.3c16.4,61.2-41.2,161-102.4,177.4c61.2-16.4,161,41.2,177.4,102.4
				c-16.4-61.2,41.2-161,102.4-177.4C436.9,341.1,337.1,283.5,320.7,222.3z"/>
			
				<pattern  id="SVGID_74_" xlink:href="#New_Pattern_Swatch_2" patternTransform="matrix(-0.866 0.5 -0.5 -0.866 -18117.5254 -9614.751)">
			</pattern>
			<path class="st85" d="M395.7,222.3c-16.4,61.2-116.2,118.8-177.4,102.4c61.2,16.4,118.8,116.2,102.4,177.4
				c16.4-61.2,116.2-118.8,177.4-102.4C436.9,383.2,379.3,283.5,395.7,222.3z"/>
			<pattern  id="SVGID_75_" xlink:href="#New_Pattern_Swatch_2" patternTransform="matrix(-1 0 0 -1 -15539.4775 -14552.6963)">
			</pattern>
			<path class="st86" d="M460.6,259.7c-44.8,44.8-160,44.8-204.8,0c44.8,44.8,44.8,160,0,204.8c44.8-44.8,160-44.8,204.8,0
				C415.8,419.7,415.8,304.5,460.6,259.7z"/>
			
				<pattern  id="SVGID_76_" xlink:href="#New_Pattern_Swatch_2" patternTransform="matrix(-0.866 -0.5 0.5 -0.866 -10839.7705 -17428.0957)">
			</pattern>
			<path class="st87" d="M498.1,324.7c-61.2,16.4-161-41.2-177.4-102.4c16.4,61.2-41.2,161-102.4,177.4
				c61.2-16.4,161,41.2,177.4,102.4C379.3,440.8,436.9,341.1,498.1,324.7z"/>
			
				<pattern  id="SVGID_77_" xlink:href="#New_Pattern_Swatch_2" patternTransform="matrix(-0.5 -0.866 0.866 -0.5 -5333.9272 -17565.084)">
			</pattern>
			<path class="st88" d="M498.1,399.6c-61.2-16.4-118.8-116.2-102.4-177.4c-16.4,61.2-116.2,118.8-177.4,102.4
				c61.2,16.4,118.8,116.2,102.4,177.4C337.1,440.8,436.9,383.2,498.1,399.6z"/>
			
				<pattern  id="SVGID_78_" xlink:href="#New_Pattern_Swatch_2" patternTransform="matrix(4.489759e-11 -1 1 4.489759e-11 -493.3907 -15046.0869)">
			</pattern>
			<path class="st89" d="M460.6,464.5c-44.8-44.8-44.8-160,0-204.8c-44.8,44.8-160,44.8-204.8,0c44.8,44.8,44.8,160,0,204.8
				C300.6,419.7,415.8,419.7,460.6,464.5z"/>
			
				<pattern  id="SVGID_79_" xlink:href="#New_Pattern_Swatch_2" patternTransform="matrix(0.5 -0.866 0.866 0.5 2437.2175 -10332.3408)">
			</pattern>
			<path class="st90" d="M395.7,502c-16.4-61.2,41.2-161,102.4-177.4c-61.2,16.4-161-41.2-177.4-102.4
				c16.4,61.2-41.2,161-102.4,177.4C279.5,383.2,379.3,440.8,395.7,502z"/>
			
				<pattern  id="SVGID_80_" xlink:href="#New_Pattern_Swatch_2" patternTransform="matrix(0.866 -0.5 0.5 0.866 2616.405 -4781.4854)">
			</pattern>
			<path class="st91" d="M320.7,502c16.4-61.2,116.2-118.8,177.4-102.4c-61.2-16.4-118.8-116.2-102.4-177.4
				c-16.4,61.2-116.2,118.8-177.4,102.4C279.5,341.1,337.1,440.8,320.7,502z"/>
			<path class="st56" d="M255.8,464.5c44.8-44.8,160-44.8,204.8,0c-44.8-44.8-44.8-160,0-204.8c-44.8,44.8-160,44.8-204.8,0
				C300.6,304.5,300.6,419.7,255.8,464.5z"/>
		</g>
		<g>
			
				<pattern  id="SVGID_81_" xlink:href="#New_Pattern_Swatch_7" patternTransform="matrix(0.1736 -0.9848 0.9848 0.1736 503.853 -13394.3359)">
			</pattern>
			<path class="st92" d="M465.3,515.1c-142.8-203.9-158.1-117.2,45.8-260c-203.9,142.8-117.2,158.1-260-45.8
				c142.8,203.9,158.1,117.2-45.8,260C409.2,326.4,322.5,311.2,465.3,515.1z"/>
			
				<pattern  id="SVGID_82_" xlink:href="#New_Pattern_Swatch_7" patternTransform="matrix(0.5 -0.866 0.866 0.5 2222.0845 -10190.2979)">
			</pattern>
			<path class="st93" d="M406.5,542.5c-64.4-240.5-108.4-164.2,132-228.7c-240.5,64.4-164.2,108.4-228.7-132
				c64.4,240.5,108.4,164.2-132,228.7C418.3,346,342.1,302,406.5,542.5z"/>
			
				<pattern  id="SVGID_83_" xlink:href="#New_Pattern_Swatch_7" patternTransform="matrix(0.766 -0.6428 0.6428 0.766 2700.5525 -6625.2676)">
			</pattern>
			<path class="st94" d="M341.9,548.1c21.7-248-45.7-191.4,202.3-169.7c-248-21.7-191.4,45.7-169.7-202.3
				c-21.7,248,45.7,191.4-202.3,169.7C420.2,367.6,363.6,300.1,341.9,548.1z"/>
			
				<pattern  id="SVGID_84_" xlink:href="#New_Pattern_Swatch_7" patternTransform="matrix(0.9397 -0.342 0.342 0.9397 1935.7185 -3090.0012)">
			</pattern>
			<path class="st95" d="M279.3,531.3c105.2-225.6,22.5-195.5,248.1-90.3c-225.6-105.2-195.5-22.5-90.3-248.1
				C331.9,418.5,414.6,388.4,189,283.2C414.6,388.4,384.5,305.7,279.3,531.3z"/>
			<path class="st80" d="M226.2,494.2c176-176,88-176,264,0c-176-176-176-88,0-264c-176,176-88,176-264,0
				C402.2,406.1,402.2,318.1,226.2,494.2z"/>
			
				<pattern  id="SVGID_85_" xlink:href="#New_Pattern_Swatch_7" patternTransform="matrix(0.9397 0.342 -0.342 0.9397 -2918.5281 2180.6072)">
			</pattern>
			<path class="st96" d="M189,441c225.6-105.2,142.9-135.3,248.1,90.3c-105.2-225.6-135.3-142.9,90.3-248.1
				c-225.6,105.2-142.9,135.3-248.1-90.3C384.5,418.5,414.6,335.8,189,441z"/>
			
				<pattern  id="SVGID_86_" xlink:href="#New_Pattern_Swatch_7" patternTransform="matrix(0.766 0.6428 -0.6428 0.766 -6376.4199 3234.2087)">
			</pattern>
			<path class="st97" d="M172.2,378.4c248-21.7,180.6-78.3,202.3,169.7c-21.7-248-78.3-180.6,169.7-202.3
				c-248,21.7-180.6,78.3-202.3-169.7C363.6,424.1,420.2,356.7,172.2,378.4z"/>
			
				<pattern  id="SVGID_87_" xlink:href="#New_Pattern_Swatch_7" patternTransform="matrix(0.5 0.866 -0.866 0.5 -9967.5059 3053.5571)">
			</pattern>
			<path class="st98" d="M177.8,313.8c240.5,64.4,196.4-11.8,132,228.7c64.4-240.5-11.8-196.4,228.7-132
				c-240.5-64.4-196.4,11.8-132-228.7C342.1,422.3,418.3,378.2,177.8,313.8z"/>
			
				<pattern  id="SVGID_88_" xlink:href="#New_Pattern_Swatch_7" patternTransform="matrix(0.1736 0.9848 -0.9848 0.1736 -13297.8867 1606.27)">
			</pattern>
			<path class="st99" d="M205.2,255.1c203.9,142.8,188.6,56.1,45.8,260c142.8-203.9,56.1-188.6,260-45.8
				c-203.9-142.8-188.6-56.1-45.8-260C322.5,413.1,409.2,397.8,205.2,255.1z"/>
			
				<pattern  id="SVGID_89_" xlink:href="#New_Pattern_Swatch_7" patternTransform="matrix(-0.1736 0.9848 -0.9848 -0.1736 -15898.4072 -858.5023)">
			</pattern>
			<path class="st100" d="M251.1,209.2c142.8,203.9,158.1,117.2-45.8,260c203.9-142.8,117.2-158.1,260,45.8
				c-142.8-203.9-158.1-117.2,45.8-260C307.2,397.8,393.9,413.1,251.1,209.2z"/>
			
				<pattern  id="SVGID_90_" xlink:href="#New_Pattern_Swatch_7" patternTransform="matrix(-0.5 0.866 -0.866 -0.5 -17478.5059 -4020.3711)">
			</pattern>
			<path class="st101" d="M309.9,181.8c64.4,240.5,108.4,164.2-132,228.7C418.3,346,342.1,302,406.5,542.5
				c-64.4-240.5-108.4-164.2,132-228.7C298.1,378.2,374.3,422.3,309.9,181.8z"/>
			
				<pattern  id="SVGID_91_" xlink:href="#New_Pattern_Swatch_7" patternTransform="matrix(-0.766 0.6428 -0.6428 -0.766 -17922.1855 -7565.4316)">
			</pattern>
			<path class="st102" d="M374.4,176.2c-21.7,248,45.7,191.4-202.3,169.7c248,21.7,191.4-45.7,169.7,202.3
				c21.7-248-45.7-191.4,202.3-169.7C296.2,356.7,352.7,424.1,374.4,176.2z"/>
			
				<pattern  id="SVGID_92_" xlink:href="#New_Pattern_Swatch_7" patternTransform="matrix(-0.9397 0.342 -0.342 -0.9397 -17121.7617 -11026.8584)">
			</pattern>
			<path class="st103" d="M437.1,192.9C331.9,418.5,414.6,388.4,189,283.2c225.6,105.2,195.5,22.5,90.3,248.1
				c105.2-225.6,22.5-195.5,248.1-90.3C301.8,335.8,331.9,418.5,437.1,192.9z"/>
			<pattern  id="SVGID_93_" xlink:href="#New_Pattern_Swatch_7" patternTransform="matrix(-1 0 0 -1 -15193.6084 -13976.248)">
			</pattern>
			<path class="st104" d="M490.2,230.1c-176,176-88,176-264,0c176,176,176,88,0,264c176-176,88-176,264,0
				C314.2,318.1,314.2,406.1,490.2,230.1z"/>
			
				<pattern  id="SVGID_94_" xlink:href="#New_Pattern_Swatch_7" patternTransform="matrix(-0.9397 -0.342 0.342 -0.9397 -12415.6914 -16149.29)">
			</pattern>
			<path class="st105" d="M527.4,283.2c-225.6,105.2-142.9,135.3-248.1-90.3C384.5,418.5,414.6,335.8,189,441
				c225.6-105.2,142.9-135.3,248.1,90.3C331.9,305.7,301.8,388.4,527.4,283.2z"/>
			
				<pattern  id="SVGID_95_" xlink:href="#New_Pattern_Swatch_7" patternTransform="matrix(-0.766 -0.6428 0.6428 -0.766 -9031.6396 -17238.4824)">
			</pattern>
			<path class="st106" d="M544.2,345.9c-248,21.7-180.6,78.3-202.3-169.7c21.7,248,78.3,180.6-169.7,202.3
				c248-21.7,180.6-78.3,202.3,169.7C352.7,300.1,296.2,367.6,544.2,345.9z"/>
			
				<pattern  id="SVGID_96_" xlink:href="#New_Pattern_Swatch_7" patternTransform="matrix(-0.5 -0.866 0.866 -0.5 -5460.5239 -17092.6191)">
			</pattern>
			<path class="st107" d="M538.5,410.5c-240.5-64.4-196.4,11.8-132-228.7c-64.4,240.5,11.8,196.4-228.7,132
				c240.5,64.4,196.4-11.8,132,228.7C374.3,302,298.1,346,538.5,410.5z"/>
			
				<pattern  id="SVGID_97_" xlink:href="#New_Pattern_Swatch_7" patternTransform="matrix(-0.1736 -0.9848 0.9848 -0.1736 -2172.3115 -15783.4639)">
			</pattern>
			<path class="st108" d="M511.1,469.2c-203.9-142.8-188.6-56.1-45.8-260c-142.8,203.9-56.1,188.6-260,45.8
				c203.9,142.8,188.6,56.1,45.8,260C393.9,311.2,307.2,326.4,511.1,469.2z"/>
			
				<pattern  id="SVGID_98_" xlink:href="#New_Pattern_Swatch_7" patternTransform="matrix(0.1736 -0.9848 0.9848 0.1736 503.853 -13394.3359)">
			</pattern>
			<path class="st109" d="M465.3,515.1c-142.8-203.9-158.1-117.2,45.8-260c-203.9,142.8-117.2,158.1-260-45.8
				c142.8,203.9,158.1,117.2-45.8,260C409.2,326.4,322.5,311.2,465.3,515.1z"/>
			
				<pattern  id="SVGID_99_" xlink:href="#New_Pattern_Swatch_7" patternTransform="matrix(0.5 -0.866 0.866 0.5 2222.0845 -10190.2979)">
			</pattern>
			<path class="st110" d="M406.5,542.5c-64.4-240.5-108.4-164.2,132-228.7c-240.5,64.4-164.2,108.4-228.7-132
				c64.4,240.5,108.4,164.2-132,228.7C418.3,346,342.1,302,406.5,542.5z"/>
			
				<pattern  id="SVGID_100_" xlink:href="#New_Pattern_Swatch_7" patternTransform="matrix(0.766 -0.6428 0.6428 0.766 2700.5525 -6625.2676)">
			</pattern>
			<path class="st111" d="M341.9,548.1c21.7-248-45.7-191.4,202.3-169.7c-248-21.7-191.4,45.7-169.7-202.3
				c-21.7,248,45.7,191.4-202.3,169.7C420.2,367.6,363.6,300.1,341.9,548.1z"/>
			
				<pattern  id="SVGID_101_" xlink:href="#New_Pattern_Swatch_7" patternTransform="matrix(0.9397 -0.342 0.342 0.9397 1935.7185 -3090.0012)">
			</pattern>
			<path class="st112" d="M279.3,531.3c105.2-225.6,22.5-195.5,248.1-90.3c-225.6-105.2-195.5-22.5-90.3-248.1
				C331.9,418.5,414.6,388.4,189,283.2C414.6,388.4,384.5,305.7,279.3,531.3z"/>
			<path class="st80" d="M226.2,494.2c176-176,88-176,264,0c-176-176-176-88,0-264c-176,176-88,176-264,0
				C402.2,406.1,402.2,318.1,226.2,494.2z"/>
		</g>
		<path class="st10" d="M368.4,362.1c-117.7,59.3-69.5,107.4-10.2-10.2c59.3,117.7,107.4,69.5-10.2,10.2
			c117.7-59.3,69.5-107.4,10.2,10.2C298.8,254.7,250.7,302.8,368.4,362.1z"/>
	</g>
</g>
</svg>
