<svg xmlns="http://www.w3.org/2000/svg" xmlns:xlink="http://www.w3.org/1999/xlink" viewBox="272.3 1.2 792 612" enable-background="new 272.3 1.2 792 612"><style type="text/css">.st0{display:none;} .st1{fill:#6FC6C0;} .st2{fill:#F4B8D3;stroke:#B27697;stroke-miterlimit:10;} .st3{fill:none;stroke:#B27697;stroke-miterlimit:10;} .st4{fill:none;stroke:#B27697;stroke-miterlimit:10;stroke-dasharray:3.9909,3.9909;} .st5{fill:none;stroke:#B27697;stroke-miterlimit:10;stroke-dasharray:4;} .st6{fill:none;stroke:#3E2819;stroke-width:2;stroke-miterlimit:10;} .st7{fill:none;stroke:#3E2819;stroke-miterlimit:10;} .st8{fill:#3E2819;} .st9{fill:none;stroke:url(#SVGID_1_);stroke-width:3;stroke-miterlimit:10;stroke-dasharray:5,1;} .st10{fill:none;stroke:url(#SVGID_2_);stroke-width:3;stroke-miterlimit:10;stroke-dasharray:5,1;} .st11{fill:#FFFFFF;} .st12{opacity:0.65;} .st13{opacity:0.5;fill:#878787;enable-background:new ;} .st14{fill:url(#SVGID_3_);} .st15{fill:url(#SVGID_4_);} .st16{fill:url(#SVGID_5_);} .st17{fill:url(#SVGID_6_);} .st18{fill:none;stroke:#332B32;stroke-width:2;stroke-miterlimit:10;} .st19{fill:url(#SVGID_7_);} .st20{fill:url(#SVGID_8_);} .st21{fill:url(#SVGID_9_);} .st22{fill:url(#SVGID_10_);} .st23{fill:#C68D28;} .st24{fill:url(#SVGID_11_);} .st25{fill:none;stroke:#C68D28;stroke-miterlimit:10;} .st26{opacity:0.33;}</style><image width="3260" height="2444" xlink:href="27ED17E9C21506C4.jpeg" transform="matrix(.296 0 0 .296 182.273 -77.069)" overflow="visible" enable-background="new" id="Layer_3" class="st0"/><g id="Layer_2"><path class="st1" d="M273.4 2h790.9v611.2h-790.9z"/><path class="st2" d="M294.4 235.9l58.7-29.7c4.7-2.3 9.8-5.5 13.6-9.2 13.9-13.4 26.2-12.9 65.2-12.7 53.5.4 501.9-17.2 534.6 9.2l79.7 46.8c2.1 1.3 3.5 3.5 3.4 6.1-.5 26.5-9.5 178-28.7 173.4-25.9-6.1-524.4-16.2-695.7 2.4-8.2.9-15.8-4.5-17.7-12.5-5.2-21.7-14.7-70.1-22.3-157.2-.9-7 2.9-13.6 9.2-16.6z"/><path class="st3" d="M319.6 422.3l-.2-1.7"/><path class="st4" d="M319.1 417.2l-18.5-164.2s-4.8-6.3-5.9-13.9"/><path class="st3" d="M294.4 237.6c-.1-.6-.1-1.1-.1-1.7"/><path class="st5" d="M969.4 195.3l-602.8 1.6M1040.7 237.1s-16.2 57.9-14.1 119.5c.3 7.8-.3 15.6-1.9 23.2-2.8 14.3-7.9 35.5-13.9 38.8"/><path class="st6" d="M595 338h7.2M599.1 351.3l-.5-13.3M615.1 337.5l-.1 13.1h5.1M614.2 338.1h5.7M615.1 343.6l4.8.1M729.6 338.4l-.1 13h5.2M728.7 339l5.7.1M729.6 344.6h4.8"/><path class="st6" d="M633.2 337.7l-.1 13.5s8.4 1.3 8.4-7.4c.1.1.5-6.7-8.3-6.1z"/><path class="st7" d="M676.8 364.5v4.6s4.7.4 4.7-2.5c0 0 .2-2.3-4.7-2.1z"/><path class="st6" d="M669.9 338.2l-.1 13.1s5 .8 5.4-2.8c.3-1.9-1.2-3.5-3-3.9-.5-.1-1-.2-1.7-.2 0 0 5.6-.4 4.6-3.7-.4-1.4-1.8-2.5-3.3-2.5-.5.1-1.1 0-1.9 0zM687.5 351.9l4.9-13.9 4 13.9M689.2 347.2l5.8.1M709.6 338l-.1 14.1M747 351.7l.1-13.9s4.1-.6 5.1 3c.4 1.7-.6 3.4-2.3 3.7-.6.1-1.3.2-2 .2"/><path class="st8" d="M747.8 344.2l2.1-.1 4 7.7h-1.9zM716.8 352.1h-1.9l-3.9-6.4-1 1.5-.6-2.1 5.4-7.4 1.9.1-4.6 6.4z"/><path class="st7" d="M639.7 363.7v5.4h2.7"/><ellipse transform="matrix(.008 -1 1 .008 280.95 1016.168)" class="st7" cx="652.4" cy="366.5" rx="2.7" ry="3.3"/><ellipse transform="matrix(.008 -1 1 .008 320.288 1056.312)" class="st7" cx="692.3" cy="366.8" rx="2.7" ry="3.3"/><path class="st7" d="M663.6 369.2v-4.9l5.2 5v-5.6M703.4 369.6v-5l5.2 5v-5.5"/><radialGradient id="SVGID_1_" cx="667.623" cy="410.983" r="214.572" gradientTransform="matrix(1 .008 .005 -.6 -2.989 610.481)" gradientUnits="userSpaceOnUse"><stop offset="0" stop-color="#fff"/><stop offset=".074" stop-color="#ddd"/><stop offset=".19" stop-color="#B0B0B0"/><stop offset=".31" stop-color="#898989"/><stop offset=".433" stop-color="#696969"/><stop offset=".56" stop-color="#505050"/><stop offset=".692" stop-color="#3E3E3E"/><stop offset=".834" stop-color="#343434"/><stop offset="1" stop-color="#303030"/></radialGradient><path class="st9" d="M367.3 196.9s17.6-13.5 53.9-9.6l169.2.1s129.9-.2 152.5-1.7c0 0 105.6-5.1 137.3.1 2 .3 4.1.5 6.1.6 12.5.4 65.4-.6 82.4 8.3"/><radialGradient id="SVGID_2_" cx="667.558" cy="413.311" r="214.415" gradientTransform="matrix(1 .008 .005 -.6 -2.989 610.481)" gradientUnits="userSpaceOnUse"><stop offset="0" stop-color="#fff"/><stop offset=".074" stop-color="#ddd"/><stop offset=".19" stop-color="#B0B0B0"/><stop offset=".31" stop-color="#898989"/><stop offset=".433" stop-color="#696969"/><stop offset=".56" stop-color="#505050"/><stop offset=".692" stop-color="#3E3E3E"/><stop offset=".834" stop-color="#343434"/><stop offset="1" stop-color="#303030"/></radialGradient><path class="st10" d="M367.3 196.9s15.7-13.7 53.9-12.8h169.2s120.6-2.9 150.7-1.8c1.3.1 2.6 0 3.9 0 15-.7 106.2-4.6 135.1.3 2 .3 4.1.5 6.1.6 12.5.4 65.3 2.7 82.3 11.7"/><path class="st11" d="M422.5 242.2c-2.5-.8-4.8-1.5-7.2-2.2l-3.6-1-3.6-.9c-2.5-.7-4.9-1.2-7.4-1.8-2.5-.5-4.9-1.1-7.4-1.5-2.5-.4-5-.9-7.4-1.4-2.5-.4-5-.8-7.4-1.1l-7.5-.9c-2.5-.3-5-.5-7.5-.7l-3.8-.3-3.8-.2c-2.5-.2-5-.2-7.5-.3h-7.5c-2.5.1-5 .1-7.5.3-5 .3-10.1.6-15 1.6s-9.6 2.7-13.6 5.7l-.5-1.2 3.8-.7 3.9-.4 3.9-.2 3.9.1 3.9.3c1.3.2 2.5.3 3.9.4l3.8.6 3.8.8 7.5 1.9c2.5.8 4.9 1.5 7.4 2.4 2.5.8 4.8 1.8 7.3 2.7 2.4.9 4.8 1.9 7.2 3l7.1 3c2.4 1 4.7 2.1 7 3.2 4.6 2.2 9.3 4.4 13.9 6.8 4.6 2.4 9.1 4.7 13.6 7.3 4.5 2.5 9 5.1 13.4 7.8l-.1.2c-4.5-2.5-9-4.9-13.6-7.2-4.6-2.4-9.1-4.6-13.8-6.8-4.6-2.2-9.3-4.4-13.9-6.5-2.4-1-4.7-2.1-7-3l-7.1-3-7.1-2.9c-2.4-.9-4.8-1.9-7.2-2.6-2.5-.8-4.8-1.7-7.3-2.4-2.5-.8-4.9-1.4-7.4-2-1.3-.3-2.5-.6-3.7-.8-1.3-.3-2.5-.5-3.8-.7s-2.5-.3-3.8-.5l-3.8-.3-3.8-.1-3.8.2-3.8.3-3.7.7-2.9.5 2.4-1.7c4.2-3 9.1-4.8 14.1-5.7 5-1 10.1-1.4 15.1-1.5 2.5-.2 5.1-.2 7.6-.2 2.5-.1 5.1 0 7.6 0 2.5.1 5.1.1 7.6.3l3.8.2 3.8.3c2.5.2 5 .5 7.5.8 2.5.3 5 .6 7.5 1 2.5.3 5 .8 7.4 1.2 2.5.4 5 .9 7.4 1.4s4.9 1.1 7.4 1.6c2.5.6 4.9 1.2 7.4 1.9l3.6 1 3.6 1.1c2.5.7 4.8 1.5 7.2 2.3l-.5-.2zM377.4 377.2c-.8 1.2-1.7 2.4-2.5 3.5-.8 1.2-1.8 2.4-2.6 3.5-.8 1.2-1.9 2.3-2.8 3.4-.9 1.1-1.9 2.2-2.9 3.3-1.9 2.2-4 4.3-6 6.4l-3.1 3-3.2 3c-1.1 1-2.2 1.9-3.4 2.9l-3.4 2.8-3.5 2.6-3.6 2.5c-2.4 1.7-4.9 3.3-7.6 4.6-2.7 1.3-5.7 2.2-8.7 2.3l-2.9.1 2.6-1.4 1.9-1 1.9-1.1 1.8-1.3 1.7-1.4 1.6-1.4 1.6-1.5c1-1 2-2.1 3-3.3 1.9-2.3 3.6-4.6 5.2-7.1 1.7-2.5 3.2-5 4.7-7.5s3-5.1 4.6-7.7l4.3-7.8c1.4-2.6 2.8-5.2 4.1-7.9 1.4-2.6 2.6-5.3 4-8l.2.1c-1.1 2.8-2.2 5.5-3.4 8.3l-3.7 8.1c-1.3 2.7-2.7 5.3-4.1 7.9l-2.1 4c-.8 1.4-1.4 2.6-2.2 3.9-1.5 2.5-3 5.2-4.7 7.6-1.7 2.5-3.5 4.9-5.5 7.2-1 1.1-2 2.3-3.1 3.3l-1.7 1.5-1.7 1.4-1.8 1.4-1.9 1.3-1.9 1.2-2 1-.3-1.3c2.8 0 5.6-.8 8.2-2s5.1-2.8 7.5-4.4c1.2-.8 2.5-1.6 3.6-2.5 1.2-.8 2.4-1.7 3.5-2.5l3.5-2.7 1.7-1.4 1.7-1.4c1.1-.9 2.2-1.9 3.3-2.9 1.1-1 2.1-1.9 3.2-3 2.1-2 4.1-4.1 6.1-6.3l2.9-3.3c.9-1.1 1.9-2.2 2.8-3.4.9-1.1 1.9-2.3 2.7-3.5.9-1.2 1.8-2.4 2.6-3.5l-.2.4zM955.9 369.7c.8 1.2 1.7 2.4 2.5 3.5.8 1.2 1.8 2.4 2.6 3.5.8 1.2 1.9 2.3 2.8 3.4.9 1.1 1.9 2.2 2.9 3.3 1.9 2.2 4 4.3 6 6.3l3.1 3c1.1 1 2.1 1.9 3.2 3l1.6 1.4 1.7 1.4c1.1.9 2.3 1.9 3.4 2.7l3.5 2.6c1.2.8 2.4 1.7 3.5 2.5 2.4 1.7 4.8 3.2 7.4 4.5 2.6 1.3 5.3 2.1 8.1 2.1l-.3 1.3-2-1-1.9-1.2-1.9-1.3-1.8-1.4-1.7-1.5-1.6-1.6c-1-1.1-2.1-2.2-3-3.4-1.9-2.3-3.7-4.7-5.3-7.3-1.6-2.5-3.1-5.1-4.6-7.7-.8-1.4-1.4-2.6-2.1-4l-2.1-4c-1.4-2.6-2.7-5.3-4-8s-2.5-5.4-3.6-8.2c-1.1-2.8-2.3-5.5-3.3-8.4l.2-.1 3.8 8.1c1.3 2.7 2.6 5.3 4 7.9 1.4 2.6 2.7 5.2 4.2 7.9 1.4 2.6 2.9 5.2 4.4 7.8 1.5 2.5 3 5.1 4.6 7.6 1.6 2.5 3.3 4.9 5.2 7.2.9 1.2 1.9 2.3 2.9 3.3l1.5 1.5 1.6 1.4 1.7 1.4 1.8 1.3 1.9 1.2 1.9 1 2.5 1.4-2.9-.1c-3-.1-6-1.1-8.6-2.4-2.7-1.4-5.2-3-7.5-4.6-1.2-.8-2.4-1.7-3.5-2.6-1.2-.8-2.3-1.8-3.5-2.7l-3.4-2.8s-2.2-1.9-3.3-2.9l-3.2-3c-1-1-2.1-2-3.1-3.1-2-2.1-4-4.3-5.9-6.5l-2.8-3.4c-.9-1.2-1.9-2.3-2.7-3.5-.9-1.2-1.8-2.4-2.6-3.5-.8-1.2-1.7-2.5-2.5-3.6l.2.3zM909 245.8c2.5-.8 4.8-1.5 7.3-2.2l3.6-1 3.6-.9c2.5-.7 4.9-1.2 7.4-1.8 2.5-.5 4.9-1.1 7.4-1.5 2.5-.4 5-.9 7.4-1.3 2.5-.4 5-.8 7.5-1.1 2.5-.3 5-.6 7.5-.8 2.5-.2 5-.5 7.5-.6l3.8-.3 3.8-.2 7.6-.2c2.5 0 5.1 0 7.6.1l7.6.3c5.1.3 10.1.7 15.1 1.7 5 1.1 9.9 2.9 14 6l2.3 1.7-2.9-.5-3.7-.7-3.8-.4-3.8-.2h-3.8l-3.8.3-3.8.4-3.8.6c-1.3.3-2.5.5-3.7.8-2.5.6-5 1.2-7.4 1.9-2.5.7-4.9 1.4-7.4 2.3l-7.3 2.5c-2.4.8-4.8 1.8-7.2 2.8-2.4.9-4.8 1.9-7.2 2.9-2.4.9-4.7 1.9-7.1 3-4.7 2-9.4 4.1-14 6.3-4.6 2.1-9.3 4.4-13.9 6.7s-9.2 4.6-13.7 7l-.1-.2c4.5-2.6 9-5.1 13.4-7.5 4.6-2.5 9.1-4.7 13.7-7s9.3-4.4 13.9-6.5l7.1-3.1 7.1-3 7.2-2.8c2.5-.9 4.8-1.8 7.3-2.6s4.9-1.6 7.4-2.3c2.5-.7 5-1.4 7.5-1.9l3.8-.8 3.8-.6c1.3-.2 2.6-.3 3.9-.4l3.9-.2h3.9l3.9.3 3.9.5 3.8.8-.6 1.2c-3.9-3-8.6-4.8-13.5-5.8-4.9-1.1-9.9-1.5-14.9-1.9-2.5-.2-5-.3-7.5-.4l-7.5-.2c-2.5 0-5.1 0-7.5.1l-3.8.1-3.8.2c-2.5.1-5 .3-7.5.5-2.5.3-5 .4-7.5.8s-5 .6-7.5 1c-2.5.3-5 .8-7.4 1.2-2.5.4-5 .9-7.4 1.4-2.5.6-4.9 1-7.4 1.7l-3.6.9-3.6 1c-2.4.5-4.7 1.3-7.1 1.9zM632.6 307.1s5.1-.1 12.8-.3c3.8-.1 8.3-.2 13-.3 4.7-.1 9.9-.3 15 .2 2.5.3 5.2.6 7.6 1 2.5.4 4.9.9 7.2 1.3s4.6.8 6.7 1c2.1.3 4.2.5 6.1.7 1.9.2 3.6.3 5.2.5s2.9.3 4 .4c2.2.3 3.5.4 3.5.4v.3s-1.3.1-3.5.3c-1.1.1-2.5.2-4.1.2-1.5 0-3.3.1-5.2.1-1.9 0-4-.1-6.3-.3-2.2-.2-4.6-.4-6.9-.8-2.4-.4-4.8-1-7.2-1.5-2.5-.5-4.9-1-7.4-1.4-5-.6-10.1-.6-14.8-.8-4.7-.1-9.2-.3-13-.3-7.6-.3-12.8-.3-12.8-.3l.1-.4z"/><path class="st13" d="M534.9 256.2c-5.7 1.6-9.8 7.9-9 13.8 10.3.8 16.5-.3 25.4-1.3 4.2-.4 9.8 1.9 14 2.6 5.7.8 10.6 4.2 15.6 7.2 12.5 7.5 27.3 13.1 41.7 10 5-1.1 9.9-3.1 15-2.5 6.3.8 11.2 5.7 16.7 9 10.1 6.3 23.3 7.3 34.2 2.6 4-1.7 7.7-4.1 11.8-5.6 17-5.9 35.7 5.5 53.3 2.1 21.4-4.1 35.8-28.7 57.6-28.5 5.6.1 12.3.3 16.7-3-15.5-9.9-35.8-7.1-53.2-1.4-17.4 5.7-34.5 14.2-52.7 14.6-10.8.3-21.5-2.3-32.1-4.2-17.8-3.2-35.9-4.6-54-4.1-12.3.3-24.8 1.5-36.6-2.1-9.2-2.8-17.4-8.4-26.5-11.5-12.2-4-25.9-2.5-37.9 2.3"/><linearGradient id="SVGID_3_" gradientUnits="userSpaceOnUse" x1="595.092" y1="346.895" x2="650.608" y2="346.895" gradientTransform="matrix(1 .008 .008 -1 -2.992 610.915)"><stop offset="0"/><stop offset=".444" stop-color="#020101"/><stop offset=".618" stop-color="#090705"/><stop offset=".744" stop-color="#150F0D"/><stop offset=".848" stop-color="#261C17"/><stop offset=".936" stop-color="#3D2C24"/><stop offset="1" stop-color="#523C31"/></linearGradient><path class="st14" d="M650.2 277.2s2-13.8-21.6-16.6c0 0-22.5-3.5-33.7.5-.1 0 17.5 22.6 55.3 16.1z"/><linearGradient id="SVGID_4_" gradientUnits="userSpaceOnUse" x1="581.717" y1="382.671" x2="650.597" y2="382.671" gradientTransform="matrix(1 .008 .008 -1 -2.992 610.915)"><stop offset="0"/><stop offset=".344" stop-color="#020201"/><stop offset=".537" stop-color="#0A0806"/><stop offset=".693" stop-color="#18120F"/><stop offset=".828" stop-color="#2C201A"/><stop offset=".95" stop-color="#453329"/><stop offset="1" stop-color="#523C31"/></linearGradient><path class="st15" d="M650.4 248.8v-4s-5.6-1.1-30.1-16.8c0 0-21-16.3-33.8-9 0 0-8.1 9.1-3.4 20.7 0 .1 42 4.3 67.3 9.1z"/><radialGradient id="SVGID_5_" cx="585.987" cy="358.95" r="47.684" gradientTransform="matrix(1 .008 .008 -1 -2.992 610.915)" gradientUnits="userSpaceOnUse"><stop offset="0" stop-color="#33251E"/><stop offset=".292" stop-color="#38291F"/><stop offset=".625" stop-color="#453324"/><stop offset=".977" stop-color="#5C442A"/><stop offset="1" stop-color="#5E452B"/></radialGradient><path class="st16" d="M650.4 248.6s-46.3-8.4-62.2-9c-1.5-.1-3-.3-4.6-.3l-20.8-2.3c-1.9-.3-3.9 0-5.7.8l-34.3 13.7c-2.6 1-2 3.6.8 3.9l41.7 5.2c.9.1 1.9.2 2.9.2l26.7.2c1.4 0 2.7-.1 4.1-.3 9-1.1 47.1-4.6 51.3 15.3l.1-27.4z"/><radialGradient id="SVGID_6_" cx="597.054" cy="366.894" r="32.243" gradientTransform="matrix(1 .008 .008 -1 -2.992 610.915)" gradientUnits="userSpaceOnUse"><stop offset="0" stop-color="#33251E"/><stop offset=".402" stop-color="#362720"/><stop offset=".702" stop-color="#3F2E26"/><stop offset=".968" stop-color="#503A2F"/><stop offset="1" stop-color="#523C31"/></radialGradient><path class="st17" d="M631.5 277.9c-22.3 2.2-47.8-7.5-53.5-9.9-5.2-2.1-10.1-5-13-9.9-.1-.2-.2-.3-.3-.4-5.1-8.8-2.7-19.9 5.2-26l16.5-12.6s-13.1 12.2 1.6 32.8c0 0 12.1 20.6 28.9 24l14.6 2z"/><path class="st18" d="M650.5 244.9s-2.8.3-29.4-16.8c0 0-23.6-16.6-34.5-9 0 0-14.9 10.7 5.7 38.9 0 0 3.1 5 8.4 8.9 12.9 9.6 18.8 11 35.5 11l14.2.2"/><linearGradient id="SVGID_7_" gradientUnits="userSpaceOnUse" x1="1013.107" y1="346.918" x2="1068.635" y2="346.918" gradientTransform="matrix(-1 -.008 .008 -1 1764.51 624.339)"><stop offset="0"/><stop offset=".444" stop-color="#020101"/><stop offset=".618" stop-color="#090705"/><stop offset=".744" stop-color="#150F0D"/><stop offset=".848" stop-color="#261C17"/><stop offset=".936" stop-color="#3D2C24"/><stop offset="1" stop-color="#523C31"/></linearGradient><path class="st19" d="M698.5 277.5s-1.8-13.8 21.9-16.3c0 0 22.5-3.1 33.7 1 .1 0-17.9 22.4-55.6 15.3z"/><linearGradient id="SVGID_8_" gradientUnits="userSpaceOnUse" x1="999.688" y1="382.633" x2="1068.591" y2="382.633" gradientTransform="matrix(-1 -.008 .008 -1 1764.51 624.339)"><stop offset="0"/><stop offset=".344" stop-color="#020201"/><stop offset=".537" stop-color="#0A0806"/><stop offset=".693" stop-color="#18120F"/><stop offset=".828" stop-color="#2C201A"/><stop offset=".95" stop-color="#453329"/><stop offset="1" stop-color="#523C31"/></linearGradient><path class="st20" d="M698.7 249.2v-4s5.6-1 30.3-16.4c0 0 21.2-16 34-8.5 0 0 7.9 9.2 3.1 20.8.1.1-42.1 3.6-67.4 8.1z"/><radialGradient id="SVGID_9_" cx="1003.964" cy="358.925" r="47.643" gradientTransform="matrix(-1 -.008 .008 -1 1764.51 624.339)" gradientUnits="userSpaceOnUse"><stop offset="0" stop-color="#33251E"/><stop offset=".292" stop-color="#38291F"/><stop offset=".625" stop-color="#453324"/><stop offset=".977" stop-color="#5C442A"/><stop offset="1" stop-color="#5E452B"/></radialGradient><path class="st21" d="M698.7 249.1s46.4-7.7 62.3-8c1.5 0 3-.2 4.6-.2l20.8-1.9c1.9-.3 3.9.1 5.7.8l34.1 14.2c2.5 1.1 1.9 3.6-.8 3.9l-41.8 4.6c-.9.1-1.9.1-2.9.1l-26.7-.2c-1.4 0-2.7-.1-4.1-.3-9-1.3-47.1-5.2-51.6 14.5l.4-27.5z"/><radialGradient id="SVGID_10_" cx="1015.07" cy="366.918" r="32.234" gradientTransform="matrix(-1 -.008 .008 -1 1764.51 624.339)" gradientUnits="userSpaceOnUse"><stop offset="0" stop-color="#33251E"/><stop offset=".402" stop-color="#362720"/><stop offset=".702" stop-color="#3F2E26"/><stop offset=".968" stop-color="#503A2F"/><stop offset="1" stop-color="#523C31"/></radialGradient><path class="st22" d="M717.2 278.5c22.2 2.5 47.8-6.8 53.7-9 5.2-2 10.2-4.8 13.2-9.6.1-.2.2-.3.3-.4 5.2-8.7 3-19.9-4.9-26.1l-16.3-12.8s12.8 12.3-2.1 32.8c0 0-12.3 20.5-29.2 23.5l-14.7 1.6z"/><path class="st18" d="M698.7 245.2s2.7.4 29.7-16.4c0 0 23.8-16.3 34.7-8.5 0 0 14.7 11-6.3 38.8 0 0-3.2 5-8.5 8.8-13.1 9.4-19 10.7-35.7 10.5l-14.2-.1"/><path class="st23" d="M695.8 289.4l-42.4-.3c-1.4 0-2.6-1.2-2.6-2.6l-.3-8.2c-.3-3 1.6 2.5 3 2.5l42 .3c1.4 0 3-2.9 3-2.6l-.1 8.2c0 1.5-1.2 2.7-2.6 2.7z"/><linearGradient id="SVGID_11_" gradientUnits="userSpaceOnUse" x1="653.076" y1="378.154" x2="696.526" y2="334.704" gradientTransform="matrix(1 .008 .008 -1 -2.992 610.915)"><stop offset="0" stop-color="#fff"/><stop offset=".027" stop-color="#FDFAF3"/><stop offset=".175" stop-color="#F3DFB6"/><stop offset=".317" stop-color="#EBC883"/><stop offset=".45" stop-color="#E4B75C"/><stop offset=".571" stop-color="#E0AA3F"/><stop offset=".676" stop-color="#DDA32E"/><stop offset=".754" stop-color="#DCA028"/></linearGradient><path class="st24" d="M694.2 281.6l-39.7-.3c-2.4 0-4.2-1.9-4.2-4.3l.3-35.2c0-2.4 1.9-4.2 4.3-4.2l39.7.3c2.4 0 4.2 1.9 4.2 4.3l-.3 35.2c0 2.3-2 4.2-4.3 4.2z"/><path class="st25" d="M654.8 275.8h3.1M656.4 280.2v-4.4M660.2 275.3l-.1 4.9h2.3M659.9 275.6h2.3M660.2 277.6h2M688.8 275.7v4.5h2.2M688.4 275.8l2.5.1M688.8 277.8h2.1"/><path class="st25" d="M664.7 275.6v4.5s2.9.4 2.9-2.5c-.1.1.1-2.2-2.9-2zM674.2 275.8v4.5s2.1.3 2.3-.9c.1-.6-.5-1.2-1.3-1.4-.2 0-.4-.1-.7-.1 0 0 2.3-.2 1.9-1.3-.2-.5-.8-.8-1.4-.8h-.8zM678.8 280.3l1.4-3.5 1.3 3.5M679.3 279.1h1.8M693.2 280.4v-4.5s1.5-.2 1.9 1c.2.5-.2 1.1-.8 1.2-.2 0-.4.1-.8.1"/><path class="st23" d="M693.5 278h.8l1.4 2.5h-.7z"/><path class="st25" d="M684.2 275.7l-.1 4.9"/><path class="st23" d="M686.7 280.6h-.6l-1.4-2.2-.3.4-.3-.7 2-2.3h.5l-1.5 2.1z"/><path class="st11" d="M428 311.3l66 5.2 1.3.1-1.3.4-7.8 2.2-7.9 2-7.9 1.9-7.9 1.8-7.9 1.7-7.9 1.5-7.9 1.4-8 1.3-8 1.1-8 1-8 .8-8 .7-8.1.5-8.1.4-8.1.3-8.1.1v-1l112.7 2.6 2.5.1-2.1 1.3-3 1.8-3.1 1.7-3.2 1.6-3.2 1.5c-1.1.5-2.2 1-3.3 1.4l-3.3 1.4c-1.1.4-2.2.8-3.4 1.3l-3.4 1.2-3.4 1.1c-1.1.3-2.3.7-3.5.9-1.2.3-2.3.6-3.5.8-1.2.3-2.4.5-3.5.8-1.2.3-2.4.4-3.5.7-1.2.2-2.4.3-3.5.5l-3.5.4-3.5.3.1-1.6 83.2 13-.1 1.7c-27.6.9-55.3.9-82.9-.1l.1-1 19.9 3 19.9 3 .6.1-.4.4c-1.2 1.1-2.4 2-3.7 3-.7.4-1.4.8-2 1.3s-1.4.8-2.1 1.1c-.7.3-1.4.7-2.2.9s-1.5.5-2.3.8c-.8.3-1.5.4-2.3.5-.8.2-1.6.3-2.4.3l.2-.2c.2 1.3.6 2.5 1.3 3.6.3.6.8 1.1 1.3 1.5.5.4 1.1.8 1.7.8v.2c-.7-.1-1.3-.4-1.8-.8s-.9-.9-1.3-1.5c-.7-1.1-1.2-2.5-1.4-3.7v-.2h.2l2.3-.3 2.3-.5c.8-.3 1.5-.5 2.2-.8.8-.3 1.4-.6 2.1-.9.7-.3 1.4-.8 2-1.1.7-.4 1.4-.8 1.9-1.3 1.3-.9 2.5-1.9 3.6-3l.2.5-19.9-2.8-19.9-2.8.1-1c27.6.8 55.3.6 82.8-.6l-.1 1.7-83.2-13.1-6.9-1.1 7-.5 3.5-.3 3.5-.4c1.2-.2 2.4-.3 3.5-.5l3.5-.6c1.2-.3 2.3-.4 3.5-.8l3.5-.8 3.4-.9 3.4-1c1.1-.4 2.2-.8 3.4-1.2 1.1-.4 2.2-.8 3.3-1.3 1.1-.4 2.2-.8 3.3-1.4 1.1-.5 2.2-.9 3.2-1.4l3.2-1.5 3.1-1.6 3.1-1.7 3-1.8.3 1.3-112.9-2.8v-1l8.1-.1 8.1-.3 8.1-.3 8-.5 8-.7 8-.8 8-.9 8-1.1 8-1.2 7.9-1.4 7.9-1.5 7.9-1.6 7.9-1.8 7.9-1.9 7.9-2 7.8-2.2.1.4-66-5.6v-.1zM848.2 314.5l66 5.2 1.3.1-1.3.3-7.8 2.2-7.9 2-7.9 1.9-7.9 1.8-7.9 1.7-7.9 1.5-7.9 1.4-8 1.3-8 1.1-8 1-8 .8-8 .7-8.1.5-8.1.4-8.1.3-8.1.1v-1l112.7 2.6 2.5.1-2.1 1.3-3 1.8-3.1 1.7-3.2 1.6-3.2 1.5c-1.1.5-2.2 1-3.3 1.4l-3.3 1.4c-1.1.4-2.2.8-3.4 1.3l-3.4 1.2-3.4 1.1c-1.1.3-2.3.7-3.5.9-1.2.3-2.3.6-3.5.8s-2.4.5-3.5.8c-1.2.3-2.4.4-3.5.7-1.2.2-2.4.3-3.5.5l-3.5.4-3.5.3.1-1.6 83.2 13-.1 1.7c-27.6.9-55.3.9-82.9-.1l.1-1 19.9 3 19.9 3 .6.1-.4.4c-1.2 1.1-2.4 2-3.7 3-.7.4-1.4.8-2 1.3-.7.4-1.4.8-2.1 1.1-.7.3-1.4.7-2.2.9s-1.5.5-2.3.8-1.5.4-2.3.5c-.8.2-1.6.3-2.4.3l.2-.2c.2 1.3.6 2.5 1.3 3.6.3.6.8 1.1 1.3 1.5.5.4 1.1.8 1.7.8v.2c-.7-.1-1.3-.4-1.8-.8s-.9-.9-1.3-1.5c-.7-1.1-1.2-2.5-1.4-3.7v-.2h.2l2.3-.3 2.3-.5c.8-.3 1.5-.5 2.2-.8.8-.3 1.4-.6 2.1-.9.7-.3 1.4-.8 2-1.1.7-.4 1.4-.8 1.9-1.3 1.3-.9 2.5-1.9 3.6-3l.2.5-19.9-2.8-19.9-2.8.1-1c27.6.8 55.3.6 82.8-.6l-.1 1.7-83.4-12.8-6.9-1.1 7-.5 3.5-.3 3.5-.4c1.2-.2 2.4-.3 3.5-.5l3.5-.6c1.2-.3 2.3-.4 3.5-.8l3.5-.8 3.4-.9 3.4-1c1.1-.4 2.2-.8 3.4-1.2 1.1-.4 2.2-.8 3.3-1.3 1.1-.4 2.2-.8 3.3-1.4 1.1-.5 2.2-.9 3.2-1.4l3.2-1.5 3.1-1.6 3.1-1.7 3-1.8.3 1.3-112.7-3v-1l8.1-.1 8.1-.3 8.1-.3 8-.5 8-.7 8-.8 8-.9 8-1.1 8-1.2 7.9-1.4 7.9-1.5 7.9-1.6 7.9-1.8 7.9-1.9 7.9-2 7.8-2.2.1.4-66-5.6-.2-.1z"/></g></svg>