<?xml version="1.0" encoding="utf-8"?>
<!-- Generator: Adobe Illustrator 19.1.0, SVG Export Plug-In . SVG Version: 6.00 Build 0)  -->
<svg version="1.1" id="Layer_1" xmlns="http://www.w3.org/2000/svg" xmlns:xlink="http://www.w3.org/1999/xlink" x="0px" y="0px"
	 viewBox="272.3 1.2 792 612" style="enable-background:new 272.3 1.2 792 612;" xml:space="preserve">
<style type="text/css">
	.st0{display:none;}
	.st1{fill:#6FC6C0;}
	.st2{fill:#F4B8D3;stroke:#B27697;stroke-miterlimit:10;}
	.st3{fill:none;stroke:#B27697;stroke-miterlimit:10;}
	.st4{fill:none;stroke:#B27697;stroke-miterlimit:10;stroke-dasharray:3.9909,3.9909;}
	.st5{fill:none;stroke:#B27697;stroke-miterlimit:10;stroke-dasharray:4;}
	.st6{fill:none;stroke:#3E2819;stroke-width:2;stroke-miterlimit:10;}
	.st7{fill:none;stroke:#3E2819;stroke-miterlimit:10;}
	.st8{fill:#3E2819;}
	.st9{fill:none;stroke:url(#SVGID_1_);stroke-width:3;stroke-miterlimit:10;stroke-dasharray:5,1;}
	.st10{fill:none;stroke:url(#SVGID_2_);stroke-width:3;stroke-miterlimit:10;stroke-dasharray:5,1;}
	.st11{fill:#FFFFFF;}
	.st12{opacity:0.65;}
	.st13{opacity:0.5;fill:#878787;enable-background:new    ;}
	.st14{fill:url(#SVGID_3_);}
	.st15{fill:url(#SVGID_4_);}
	.st16{fill:url(#SVGID_5_);}
	.st17{fill:url(#SVGID_6_);}
	.st18{fill:none;stroke:#332B32;stroke-width:2;stroke-miterlimit:10;}
	.st19{fill:url(#SVGID_7_);}
	.st20{fill:url(#SVGID_8_);}
	.st21{fill:url(#SVGID_9_);}
	.st22{fill:url(#SVGID_10_);}
	.st23{fill:#C68D28;}
	.st24{fill:url(#SVGID_11_);}
	.st25{fill:none;stroke:#C68D28;stroke-miterlimit:10;}
	.st26{opacity:0.33;}
</style>
<g id="Layer_3" class="st0">
	
		<image style="display:inline;overflow:visible;enable-background:new    ;" width="3260" height="2444" xlink:href="27ED17E9C21506C4.jpeg"  transform="matrix(0.2962 0 0 0.2963 182.2732 -77.0694)">
	</image>
</g>
<g id="Layer_1_1_">
</g>
<g id="Layer_2">
	<rect x="273.4" y="2" class="st1" width="790.9" height="611.2"/>
	<path class="st2" d="M294.4,235.9l58.7-29.7c4.7-2.3,9.8-5.5,13.6-9.2c13.9-13.4,26.2-12.9,65.2-12.7
		c53.5,0.4,501.9-17.2,534.6,9.2l79.7,46.8c2.1,1.3,3.5,3.5,3.4,6.1c-0.5,26.5-9.5,178-28.7,173.4c-25.9-6.1-524.4-16.2-695.7,2.4
		c-8.2,0.9-15.8-4.5-17.7-12.5c-5.2-21.7-14.7-70.1-22.3-157.2C284.3,245.5,288.1,238.9,294.4,235.9z"/>
	<g>
		<g>
			<line class="st3" x1="319.6" y1="422.3" x2="319.4" y2="420.6"/>
			<path class="st4" d="M319.1,417.2L300.6,253c0,0-4.8-6.3-5.9-13.9"/>
			<path class="st3" d="M294.4,237.6c-0.1-0.6-0.1-1.1-0.1-1.7"/>
		</g>
	</g>
	<line class="st5" x1="969.4" y1="195.3" x2="366.6" y2="196.9"/>
	<path class="st5" d="M1040.7,237.1c0,0-16.2,57.9-14.1,119.5c0.3,7.8-0.3,15.6-1.9,23.2c-2.8,14.3-7.9,35.5-13.9,38.8"/>
	<polyline class="st6" points="595,338 598.6,338 602.2,338 	"/>
	<line class="st6" x1="599.1" y1="351.3" x2="598.6" y2="338"/>
	<polyline class="st6" points="615.1,337.5 615,350.6 620.1,350.6 	"/>
	<line class="st6" x1="614.2" y1="338.1" x2="619.9" y2="338.1"/>
	<line class="st6" x1="615.1" y1="343.6" x2="619.9" y2="343.7"/>
	<polyline class="st6" points="729.6,338.4 729.5,351.4 734.7,351.4 	"/>
	<line class="st6" x1="728.7" y1="339" x2="734.4" y2="339.1"/>
	<line class="st6" x1="729.6" y1="344.6" x2="734.4" y2="344.6"/>
	<path class="st6" d="M633.2,337.7l-0.1,13.5c0,0,8.4,1.3,8.4-7.4C641.6,343.9,642,337.1,633.2,337.7z"/>
	<path class="st7" d="M676.8,364.5v4.6c0,0,4.7,0.4,4.7-2.5C681.5,366.6,681.7,364.3,676.8,364.5z"/>
	<path class="st6" d="M669.9,338.2l-0.1,13.1c0,0,5,0.8,5.4-2.8c0.3-1.9-1.2-3.5-3-3.9c-0.5-0.1-1-0.2-1.7-0.2c0,0,5.6-0.4,4.6-3.7
		c-0.4-1.4-1.8-2.5-3.3-2.5C671.3,338.3,670.7,338.2,669.9,338.2z"/>
	<polyline class="st6" points="687.5,351.9 692.4,338 696.4,351.9 	"/>
	<line class="st6" x1="689.2" y1="347.2" x2="695" y2="347.3"/>
	<line class="st6" x1="709.6" y1="338" x2="709.5" y2="352.1"/>
	<path class="st6" d="M747,351.7l0.1-13.9c0,0,4.1-0.6,5.1,3c0.4,1.7-0.6,3.4-2.3,3.7c-0.6,0.1-1.3,0.2-2,0.2"/>
	<polygon class="st8" points="747.8,344.2 749.9,344.1 753.9,351.8 752,351.8 	"/>
	<polygon class="st8" points="716.8,352.1 714.9,352.1 711,345.7 710,347.2 709.4,345.1 714.8,337.7 716.7,337.8 712.1,344.2 	"/>
	<polyline class="st7" points="639.7,363.7 639.7,369.1 642.4,369.1 	"/>
	
		<ellipse transform="matrix(7.594337e-03 -1 1 7.594337e-03 280.9503 1016.1682)" class="st7" cx="652.4" cy="366.5" rx="2.7" ry="3.3"/>
	
		<ellipse transform="matrix(7.594337e-03 -1 1 7.594337e-03 320.2878 1056.3116)" class="st7" cx="692.3" cy="366.8" rx="2.7" ry="3.3"/>
	<polyline class="st7" points="663.6,369.2 663.6,364.3 668.8,369.3 668.8,363.7 	"/>
	<polyline class="st7" points="703.4,369.6 703.4,364.6 708.6,369.6 708.6,364.1 	"/>
	
		<radialGradient id="SVGID_1_" cx="667.6229" cy="410.9829" r="214.5721" gradientTransform="matrix(1 7.594556e-03 4.556734e-03 -0.6 -2.9889 610.4806)" gradientUnits="userSpaceOnUse">
		<stop  offset="0" style="stop-color:#FFFFFF"/>
		<stop  offset="7.440805e-02" style="stop-color:#DDDDDD"/>
		<stop  offset="0.1898" style="stop-color:#B0B0B0"/>
		<stop  offset="0.3098" style="stop-color:#898989"/>
		<stop  offset="0.4328" style="stop-color:#696969"/>
		<stop  offset="0.5597" style="stop-color:#505050"/>
		<stop  offset="0.6921" style="stop-color:#3E3E3E"/>
		<stop  offset="0.8336" style="stop-color:#343434"/>
		<stop  offset="1" style="stop-color:#303030"/>
	</radialGradient>
	<path class="st9" d="M367.3,196.9c0,0,17.6-13.5,53.9-9.6l169.2,0.1c0,0,129.9-0.2,152.5-1.7c0,0,105.6-5.1,137.3,0.1
		c2,0.3,4.1,0.5,6.1,0.6c12.5,0.4,65.4-0.6,82.4,8.3"/>
	
		<radialGradient id="SVGID_2_" cx="667.5578" cy="413.3109" r="214.4151" gradientTransform="matrix(1 7.594556e-03 4.556734e-03 -0.6 -2.9889 610.4806)" gradientUnits="userSpaceOnUse">
		<stop  offset="0" style="stop-color:#FFFFFF"/>
		<stop  offset="7.440805e-02" style="stop-color:#DDDDDD"/>
		<stop  offset="0.1898" style="stop-color:#B0B0B0"/>
		<stop  offset="0.3098" style="stop-color:#898989"/>
		<stop  offset="0.4328" style="stop-color:#696969"/>
		<stop  offset="0.5597" style="stop-color:#505050"/>
		<stop  offset="0.6921" style="stop-color:#3E3E3E"/>
		<stop  offset="0.8336" style="stop-color:#343434"/>
		<stop  offset="1" style="stop-color:#303030"/>
	</radialGradient>
	<path class="st10" d="M367.3,196.9c0,0,15.7-13.7,53.9-12.8h169.2c0,0,120.6-2.9,150.7-1.8c1.3,0.1,2.6,0,3.9,0
		c15-0.7,106.2-4.6,135.1,0.3c2,0.3,4.1,0.5,6.1,0.6c12.5,0.4,65.3,2.7,82.3,11.7"/>
	<g>
		<path class="st11" d="M422.5,242.2c-2.5-0.8-4.8-1.5-7.2-2.2l-3.6-1l-3.6-0.9c-2.5-0.7-4.9-1.2-7.4-1.8c-2.5-0.5-4.9-1.1-7.4-1.5
			c-2.5-0.4-5-0.9-7.4-1.4c-2.5-0.4-5-0.8-7.4-1.1c-2.5-0.3-5-0.6-7.5-0.9c-2.5-0.3-5-0.5-7.5-0.7l-3.8-0.3l-3.8-0.2
			c-2.5-0.2-5-0.2-7.5-0.3c-2.5,0-5.1,0-7.5,0c-2.5,0.1-5,0.1-7.5,0.3c-5,0.3-10.1,0.6-15,1.6c-4.9,1-9.6,2.7-13.6,5.7l-0.5-1.2
			l3.8-0.7l3.9-0.4l3.9-0.2l3.9,0.1l3.9,0.3c1.3,0.2,2.5,0.3,3.9,0.4c1.3,0.2,2.5,0.4,3.8,0.6c1.3,0.3,2.5,0.5,3.8,0.8
			c2.5,0.6,5,1.3,7.5,1.9c2.5,0.8,4.9,1.5,7.4,2.4c2.5,0.8,4.8,1.8,7.3,2.7c2.4,0.9,4.8,1.9,7.2,3c2.4,1,4.7,2,7.1,3
			c2.4,1,4.7,2.1,7,3.2c4.6,2.2,9.3,4.4,13.9,6.8c4.6,2.4,9.1,4.7,13.6,7.3c4.5,2.5,9,5.1,13.4,7.8l-0.1,0.2
			c-4.5-2.5-9-4.9-13.6-7.2c-4.6-2.4-9.1-4.6-13.8-6.8c-4.6-2.2-9.3-4.4-13.9-6.5c-2.4-1-4.7-2.1-7-3c-2.4-1-4.7-2-7.1-3
			c-2.4-1-4.7-1.9-7.1-2.9c-2.4-0.9-4.8-1.9-7.2-2.6c-2.5-0.8-4.8-1.7-7.3-2.4c-2.5-0.8-4.9-1.4-7.4-2c-1.3-0.3-2.5-0.6-3.7-0.8
			c-1.3-0.3-2.5-0.5-3.8-0.7s-2.5-0.3-3.8-0.5l-3.8-0.3l-3.8-0.1l-3.8,0.2l-3.8,0.3l-3.7,0.7l-2.9,0.5l2.4-1.7
			c4.2-3,9.1-4.8,14.1-5.7c5-1,10.1-1.4,15.1-1.5c2.5-0.2,5.1-0.2,7.6-0.2c2.5-0.1,5.1,0,7.6,0c2.5,0.1,5.1,0.1,7.6,0.3l3.8,0.2
			l3.8,0.3c2.5,0.2,5,0.5,7.5,0.8c2.5,0.3,5,0.6,7.5,1c2.5,0.3,5,0.8,7.4,1.2c2.5,0.4,5,0.9,7.4,1.4s4.9,1.1,7.4,1.6
			c2.5,0.6,4.9,1.2,7.4,1.9l3.6,1l3.6,1.1c2.5,0.7,4.8,1.5,7.2,2.3L422.5,242.2z"/>
	</g>
	<g class="st12">
		<path class="st11" d="M377.4,377.2c-0.8,1.2-1.7,2.4-2.5,3.5c-0.8,1.2-1.8,2.4-2.6,3.5c-0.8,1.2-1.9,2.3-2.8,3.4
			c-0.9,1.1-1.9,2.2-2.9,3.3c-1.9,2.2-4,4.3-6,6.4c-1,1-2.1,2-3.1,3c-1.1,1-2.1,2-3.2,3c-1.1,1-2.2,1.9-3.4,2.9
			c-1.1,0.9-2.3,1.9-3.4,2.8c-1.2,0.8-2.3,1.8-3.5,2.6c-1.2,0.8-2.4,1.7-3.6,2.5c-2.4,1.7-4.9,3.3-7.6,4.6c-2.7,1.3-5.7,2.2-8.7,2.3
			l-2.9,0.1l2.6-1.4l1.9-1l1.9-1.1l1.8-1.3l1.7-1.4l1.6-1.4l1.6-1.5c1-1,2-2.1,3-3.3c1.9-2.3,3.6-4.6,5.2-7.1c1.7-2.5,3.2-5,4.7-7.5
			c1.5-2.5,3-5.1,4.6-7.7c1.4-2.6,2.9-5.2,4.3-7.8c1.4-2.6,2.8-5.2,4.1-7.9c1.4-2.6,2.6-5.3,4-8l0.2,0.1c-1.1,2.8-2.2,5.5-3.4,8.3
			c-1.2,2.7-2.5,5.4-3.7,8.1c-1.3,2.7-2.7,5.3-4.1,7.9l-2.1,4c-0.8,1.4-1.4,2.6-2.2,3.9c-1.5,2.5-3,5.2-4.7,7.6
			c-1.7,2.5-3.5,4.9-5.5,7.2c-1,1.1-2,2.3-3.1,3.3l-1.7,1.5l-1.7,1.4l-1.8,1.4l-1.9,1.3l-1.9,1.2l-2,1l-0.3-1.3c2.8,0,5.6-0.8,8.2-2
			s5.1-2.8,7.5-4.4c1.2-0.8,2.5-1.6,3.6-2.5c1.2-0.8,2.4-1.7,3.5-2.5c1.2-0.9,2.3-1.8,3.5-2.7l1.7-1.4l1.7-1.4
			c1.1-0.9,2.2-1.9,3.3-2.9c1.1-1,2.1-1.9,3.2-3c2.1-2,4.1-4.1,6.1-6.3c1-1.1,1.9-2.2,2.9-3.3c0.9-1.1,1.9-2.2,2.8-3.4
			c0.9-1.1,1.9-2.3,2.7-3.5c0.9-1.2,1.8-2.4,2.6-3.5L377.4,377.2z"/>
	</g>
	<g class="st12">
		<path class="st11" d="M955.9,369.7c0.8,1.2,1.7,2.4,2.5,3.5c0.8,1.2,1.8,2.4,2.6,3.5c0.8,1.2,1.9,2.3,2.8,3.4
			c0.9,1.1,1.9,2.2,2.9,3.3c1.9,2.2,4,4.3,6,6.3c1,1,2.1,2,3.1,3c1.1,1,2.1,1.9,3.2,3l1.6,1.4l1.7,1.4c1.1,0.9,2.3,1.9,3.4,2.7
			c1.2,0.8,2.3,1.8,3.5,2.6c1.2,0.8,2.4,1.7,3.5,2.5c2.4,1.7,4.8,3.2,7.4,4.5c2.6,1.3,5.3,2.1,8.1,2.1l-0.3,1.3l-2-1l-1.9-1.2
			l-1.9-1.3l-1.8-1.4l-1.7-1.5l-1.6-1.6c-1-1.1-2.1-2.2-3-3.4c-1.9-2.3-3.7-4.7-5.3-7.3c-1.6-2.5-3.1-5.1-4.6-7.7
			c-0.8-1.4-1.4-2.6-2.1-4l-2.1-4c-1.4-2.6-2.7-5.3-4-8s-2.5-5.4-3.6-8.2c-1.1-2.8-2.3-5.5-3.3-8.4l0.2-0.1c1.3,2.7,2.5,5.4,3.8,8.1
			c1.3,2.7,2.6,5.3,4,7.9c1.4,2.6,2.7,5.2,4.2,7.9c1.4,2.6,2.9,5.2,4.4,7.8c1.5,2.5,3,5.1,4.6,7.6c1.6,2.5,3.3,4.9,5.2,7.2
			c0.9,1.2,1.9,2.3,2.9,3.3l1.5,1.5l1.6,1.4l1.7,1.4l1.8,1.3l1.9,1.2l1.9,1l2.5,1.4l-2.9-0.1c-3-0.1-6-1.1-8.6-2.4
			c-2.7-1.4-5.2-3-7.5-4.6c-1.2-0.8-2.4-1.7-3.5-2.6c-1.2-0.8-2.3-1.8-3.5-2.7c-1.1-0.9-2.3-1.9-3.4-2.8s-2.2-1.9-3.3-2.9
			c-1.1-1-2.1-2-3.2-3c-1-1-2.1-2-3.1-3.1c-2-2.1-4-4.3-5.9-6.5c-0.9-1.1-1.9-2.3-2.8-3.4c-0.9-1.2-1.9-2.3-2.7-3.5
			c-0.9-1.2-1.8-2.4-2.6-3.5c-0.8-1.2-1.7-2.5-2.5-3.6L955.9,369.7z"/>
	</g>
	<g>
		<path class="st11" d="M909,245.8c2.5-0.8,4.8-1.5,7.3-2.2l3.6-1l3.6-0.9c2.5-0.7,4.9-1.2,7.4-1.8c2.5-0.5,4.9-1.1,7.4-1.5
			c2.5-0.4,5-0.9,7.4-1.3c2.5-0.4,5-0.8,7.5-1.1c2.5-0.3,5-0.6,7.5-0.8c2.5-0.2,5-0.5,7.5-0.6l3.8-0.3l3.8-0.2
			c2.5-0.1,5.1-0.1,7.6-0.2c2.5,0,5.1,0,7.6,0.1c2.5,0.1,5.1,0.2,7.6,0.3c5.1,0.3,10.1,0.7,15.1,1.7c5,1.1,9.9,2.9,14,6l2.3,1.7
			l-2.9-0.5l-3.7-0.7l-3.8-0.4l-3.8-0.2h-3.8l-3.8,0.3c-1.3,0.1-2.5,0.3-3.8,0.4c-1.3,0.2-2.5,0.4-3.8,0.6c-1.3,0.3-2.5,0.5-3.7,0.8
			c-2.5,0.6-5,1.2-7.4,1.9c-2.5,0.7-4.9,1.4-7.4,2.3c-2.5,0.8-4.8,1.7-7.3,2.5c-2.4,0.8-4.8,1.8-7.2,2.8c-2.4,0.9-4.8,1.9-7.2,2.9
			c-2.4,0.9-4.7,1.9-7.1,3c-4.7,2-9.4,4.1-14,6.3c-4.6,2.1-9.3,4.4-13.9,6.7c-4.6,2.3-9.2,4.6-13.7,7l-0.1-0.2
			c4.5-2.6,9-5.1,13.4-7.5c4.6-2.5,9.1-4.7,13.7-7c4.6-2.3,9.3-4.4,13.9-6.5c2.4-1,4.7-2.1,7.1-3.1c2.4-1,4.7-2,7.1-3
			c2.4-0.9,4.8-1.9,7.2-2.8c2.5-0.9,4.8-1.8,7.3-2.6c2.5-0.8,4.9-1.6,7.4-2.3c2.5-0.7,5-1.4,7.5-1.9c1.3-0.3,2.5-0.5,3.8-0.8
			c1.3-0.2,2.5-0.4,3.8-0.6c1.3-0.2,2.6-0.3,3.9-0.4l3.9-0.2h3.9l3.9,0.3l3.9,0.5l3.8,0.8l-0.6,1.2c-3.9-3-8.6-4.8-13.5-5.8
			c-4.9-1.1-9.9-1.5-14.9-1.9c-2.5-0.2-5-0.3-7.5-0.4c-2.5-0.1-5-0.1-7.5-0.2c-2.5,0-5.1,0-7.5,0.1l-3.8,0.1l-3.8,0.2
			c-2.5,0.1-5,0.3-7.5,0.5c-2.5,0.3-5,0.4-7.5,0.8s-5,0.6-7.5,1c-2.5,0.3-5,0.8-7.4,1.2c-2.5,0.4-5,0.9-7.4,1.4
			c-2.5,0.6-4.9,1-7.4,1.7l-3.6,0.9l-3.6,1C913.7,244.4,911.4,245.2,909,245.8L909,245.8z"/>
	</g>
	<g>
		<path class="st11" d="M632.6,307.1c0,0,5.1-0.1,12.8-0.3c3.8-0.1,8.3-0.2,13-0.3c4.7-0.1,9.9-0.3,15,0.2c2.5,0.3,5.2,0.6,7.6,1
			c2.5,0.4,4.9,0.9,7.2,1.3c2.3,0.4,4.6,0.8,6.7,1c2.1,0.3,4.2,0.5,6.1,0.7c1.9,0.2,3.6,0.3,5.2,0.5s2.9,0.3,4,0.4
			c2.2,0.3,3.5,0.4,3.5,0.4v0.3c0,0-1.3,0.1-3.5,0.3c-1.1,0.1-2.5,0.2-4.1,0.2c-1.5,0-3.3,0.1-5.2,0.1c-1.9,0-4-0.1-6.3-0.3
			c-2.2-0.2-4.6-0.4-6.9-0.8c-2.4-0.4-4.8-1-7.2-1.5c-2.5-0.5-4.9-1-7.4-1.4c-5-0.6-10.1-0.6-14.8-0.8c-4.7-0.1-9.2-0.3-13-0.3
			c-7.6-0.3-12.8-0.3-12.8-0.3L632.6,307.1z"/>
	</g>
	<path class="st13" d="M534.9,256.2c-5.7,1.6-9.8,7.9-9,13.8c10.3,0.8,16.5-0.3,25.4-1.3c4.2-0.4,9.8,1.9,14,2.6
		c5.7,0.8,10.6,4.2,15.6,7.2c12.5,7.5,27.3,13.1,41.7,10c5-1.1,9.9-3.1,15-2.5c6.3,0.8,11.2,5.7,16.7,9c10.1,6.3,23.3,7.3,34.2,2.6
		c4-1.7,7.7-4.1,11.8-5.6c17-5.9,35.7,5.5,53.3,2.1c21.4-4.1,35.8-28.7,57.6-28.5c5.6,0.1,12.3,0.3,16.7-3
		c-15.5-9.9-35.8-7.1-53.2-1.4c-17.4,5.7-34.5,14.2-52.7,14.6c-10.8,0.3-21.5-2.3-32.1-4.2c-17.8-3.2-35.9-4.6-54-4.1
		c-12.3,0.3-24.8,1.5-36.6-2.1c-9.2-2.8-17.4-8.4-26.5-11.5C560.6,249.9,546.9,251.4,534.9,256.2"/>
	<g>
		
			<linearGradient id="SVGID_3_" gradientUnits="userSpaceOnUse" x1="595.092" y1="346.8949" x2="650.6077" y2="346.8949" gradientTransform="matrix(1 7.594556e-03 7.594556e-03 -1 -2.9922 610.9154)">
			<stop  offset="0" style="stop-color:#000000"/>
			<stop  offset="0.4438" style="stop-color:#020101"/>
			<stop  offset="0.6176" style="stop-color:#090705"/>
			<stop  offset="0.7441" style="stop-color:#150F0D"/>
			<stop  offset="0.8477" style="stop-color:#261C17"/>
			<stop  offset="0.9361" style="stop-color:#3D2C24"/>
			<stop  offset="1" style="stop-color:#523C31"/>
		</linearGradient>
		<path class="st14" d="M650.2,277.2c0,0,2-13.8-21.6-16.6c0,0-22.5-3.5-33.7,0.5C594.8,261.1,612.4,283.7,650.2,277.2z"/>
		
			<linearGradient id="SVGID_4_" gradientUnits="userSpaceOnUse" x1="581.7173" y1="382.6712" x2="650.5966" y2="382.6712" gradientTransform="matrix(1 7.594556e-03 7.594556e-03 -1 -2.9922 610.9154)">
			<stop  offset="0" style="stop-color:#000000"/>
			<stop  offset="0.3441" style="stop-color:#020201"/>
			<stop  offset="0.5371" style="stop-color:#0A0806"/>
			<stop  offset="0.6927" style="stop-color:#18120F"/>
			<stop  offset="0.8284" style="stop-color:#2C201A"/>
			<stop  offset="0.9499" style="stop-color:#453329"/>
			<stop  offset="1" style="stop-color:#523C31"/>
		</linearGradient>
		<path class="st15" d="M650.4,248.8v-4c0,0-5.6-1.1-30.1-16.8c0,0-21-16.3-33.8-9c0,0-8.1,9.1-3.4,20.7
			C583.1,239.8,625.1,244,650.4,248.8z"/>
		
			<radialGradient id="SVGID_5_" cx="585.9874" cy="358.9496" r="47.6842" gradientTransform="matrix(1 7.594556e-03 7.594556e-03 -1 -2.9922 610.9154)" gradientUnits="userSpaceOnUse">
			<stop  offset="0" style="stop-color:#33251E"/>
			<stop  offset="0.2919" style="stop-color:#38291F"/>
			<stop  offset="0.625" style="stop-color:#453324"/>
			<stop  offset="0.9771" style="stop-color:#5C442A"/>
			<stop  offset="1" style="stop-color:#5E452B"/>
		</radialGradient>
		<path class="st16" d="M650.4,248.6c0,0-46.3-8.4-62.2-9c-1.5-0.1-3-0.3-4.6-0.3l-20.8-2.3c-1.9-0.3-3.9,0-5.7,0.8l-34.3,13.7
			c-2.6,1-2,3.6,0.8,3.9l41.7,5.2c0.9,0.1,1.9,0.2,2.9,0.2l26.7,0.2c1.4,0,2.7-0.1,4.1-0.3c9-1.1,47.1-4.6,51.3,15.3L650.4,248.6z"
			/>
		
			<radialGradient id="SVGID_6_" cx="597.0538" cy="366.8938" r="32.2432" gradientTransform="matrix(1 7.594556e-03 7.594556e-03 -1 -2.9922 610.9154)" gradientUnits="userSpaceOnUse">
			<stop  offset="0" style="stop-color:#33251E"/>
			<stop  offset="0.4022" style="stop-color:#362720"/>
			<stop  offset="0.7018" style="stop-color:#3F2E26"/>
			<stop  offset="0.9679" style="stop-color:#503A2F"/>
			<stop  offset="1" style="stop-color:#523C31"/>
		</radialGradient>
		<path class="st17" d="M631.5,277.9c-22.3,2.2-47.8-7.5-53.5-9.9c-5.2-2.1-10.1-5-13-9.9c-0.1-0.2-0.2-0.3-0.3-0.4
			c-5.1-8.8-2.7-19.9,5.2-26l16.5-12.6c0,0-13.1,12.2,1.6,32.8c0,0,12.1,20.6,28.9,24L631.5,277.9z"/>
		<path class="st18" d="M650.5,244.9c0,0-2.8,0.3-29.4-16.8c0,0-23.6-16.6-34.5-9c0,0-14.9,10.7,5.7,38.9c0,0,3.1,5,8.4,8.9
			c12.9,9.6,18.8,11,35.5,11l14.2,0.2"/>
		
			<linearGradient id="SVGID_7_" gradientUnits="userSpaceOnUse" x1="1013.1066" y1="346.9184" x2="1068.635" y2="346.9184" gradientTransform="matrix(-1 -7.594556e-03 7.594556e-03 -1 1764.5096 624.339)">
			<stop  offset="0" style="stop-color:#000000"/>
			<stop  offset="0.4438" style="stop-color:#020101"/>
			<stop  offset="0.6176" style="stop-color:#090705"/>
			<stop  offset="0.7441" style="stop-color:#150F0D"/>
			<stop  offset="0.8477" style="stop-color:#261C17"/>
			<stop  offset="0.9361" style="stop-color:#3D2C24"/>
			<stop  offset="1" style="stop-color:#523C31"/>
		</linearGradient>
		<path class="st19" d="M698.5,277.5c0,0-1.8-13.8,21.9-16.3c0,0,22.5-3.1,33.7,1C754.2,262.2,736.2,284.6,698.5,277.5z"/>
		
			<linearGradient id="SVGID_8_" gradientUnits="userSpaceOnUse" x1="999.6881" y1="382.6329" x2="1068.5913" y2="382.6329" gradientTransform="matrix(-1 -7.594556e-03 7.594556e-03 -1 1764.5096 624.339)">
			<stop  offset="0" style="stop-color:#000000"/>
			<stop  offset="0.3441" style="stop-color:#020201"/>
			<stop  offset="0.5371" style="stop-color:#0A0806"/>
			<stop  offset="0.6927" style="stop-color:#18120F"/>
			<stop  offset="0.8284" style="stop-color:#2C201A"/>
			<stop  offset="0.9499" style="stop-color:#453329"/>
			<stop  offset="1" style="stop-color:#523C31"/>
		</linearGradient>
		<path class="st20" d="M698.7,249.2v-4c0,0,5.6-1,30.3-16.4c0,0,21.2-16,34-8.5c0,0,7.9,9.2,3.1,20.8
			C766.2,241.2,724,244.7,698.7,249.2z"/>
		
			<radialGradient id="SVGID_9_" cx="1003.9636" cy="358.9247" r="47.6426" gradientTransform="matrix(-1 -7.594556e-03 7.594556e-03 -1 1764.5096 624.339)" gradientUnits="userSpaceOnUse">
			<stop  offset="0" style="stop-color:#33251E"/>
			<stop  offset="0.2919" style="stop-color:#38291F"/>
			<stop  offset="0.625" style="stop-color:#453324"/>
			<stop  offset="0.9771" style="stop-color:#5C442A"/>
			<stop  offset="1" style="stop-color:#5E452B"/>
		</radialGradient>
		<path class="st21" d="M698.7,249.1c0,0,46.4-7.7,62.3-8c1.5,0,3-0.2,4.6-0.2l20.8-1.9c1.9-0.3,3.9,0.1,5.7,0.8l34.1,14.2
			c2.5,1.1,1.9,3.6-0.8,3.9l-41.8,4.6c-0.9,0.1-1.9,0.1-2.9,0.1l-26.7-0.2c-1.4,0-2.7-0.1-4.1-0.3c-9-1.3-47.1-5.2-51.6,14.5
			L698.7,249.1z"/>
		
			<radialGradient id="SVGID_10_" cx="1015.0703" cy="366.9177" r="32.2341" gradientTransform="matrix(-1 -7.594556e-03 7.594556e-03 -1 1764.5096 624.339)" gradientUnits="userSpaceOnUse">
			<stop  offset="0" style="stop-color:#33251E"/>
			<stop  offset="0.4022" style="stop-color:#362720"/>
			<stop  offset="0.7018" style="stop-color:#3F2E26"/>
			<stop  offset="0.9679" style="stop-color:#503A2F"/>
			<stop  offset="1" style="stop-color:#523C31"/>
		</radialGradient>
		<path class="st22" d="M717.2,278.5c22.2,2.5,47.8-6.8,53.7-9c5.2-2,10.2-4.8,13.2-9.6c0.1-0.2,0.2-0.3,0.3-0.4
			c5.2-8.7,3-19.9-4.9-26.1l-16.3-12.8c0,0,12.8,12.3-2.1,32.8c0,0-12.3,20.5-29.2,23.5L717.2,278.5z"/>
		<path class="st18" d="M698.7,245.2c0,0,2.7,0.4,29.7-16.4c0,0,23.8-16.3,34.7-8.5c0,0,14.7,11-6.3,38.8c0,0-3.2,5-8.5,8.8
			c-13.1,9.4-19,10.7-35.7,10.5l-14.2-0.1"/>
		<path class="st23" d="M695.8,289.4l-42.4-0.3c-1.4,0-2.6-1.2-2.6-2.6l-0.3-8.2c-0.3-3,1.6,2.5,3,2.5l42,0.3c1.4,0,3-2.9,3-2.6
			l-0.1,8.2C698.4,288.2,697.2,289.4,695.8,289.4z"/>
		
			<linearGradient id="SVGID_11_" gradientUnits="userSpaceOnUse" x1="653.0762" y1="378.1536" x2="696.5258" y2="334.704" gradientTransform="matrix(1 7.594556e-03 7.594556e-03 -1 -2.9922 610.9154)">
			<stop  offset="0" style="stop-color:#FFFFFF"/>
			<stop  offset="2.662628e-02" style="stop-color:#FDFAF3"/>
			<stop  offset="0.1747" style="stop-color:#F3DFB6"/>
			<stop  offset="0.317" style="stop-color:#EBC883"/>
			<stop  offset="0.4497" style="stop-color:#E4B75C"/>
			<stop  offset="0.5706" style="stop-color:#E0AA3F"/>
			<stop  offset="0.6759" style="stop-color:#DDA32E"/>
			<stop  offset="0.7537" style="stop-color:#DCA028"/>
		</linearGradient>
		<path class="st24" d="M694.2,281.6l-39.7-0.3c-2.4,0-4.2-1.9-4.2-4.3l0.3-35.2c0-2.4,1.9-4.2,4.3-4.2l39.7,0.3
			c2.4,0,4.2,1.9,4.2,4.3l-0.3,35.2C698.5,279.7,696.5,281.6,694.2,281.6z"/>
		<polyline class="st25" points="654.8,275.8 656.4,275.8 657.9,275.8 		"/>
		<line class="st25" x1="656.4" y1="280.2" x2="656.4" y2="275.8"/>
		<g>
			<polyline class="st25" points="660.2,275.3 660.1,280.2 662.4,280.2 			"/>
			<line class="st25" x1="659.9" y1="275.6" x2="662.2" y2="275.6"/>
			<line class="st25" x1="660.2" y1="277.6" x2="662.2" y2="277.6"/>
		</g>
		<g>
			<polyline class="st25" points="688.8,275.7 688.8,280.2 691,280.2 			"/>
			<line class="st25" x1="688.4" y1="275.8" x2="690.9" y2="275.9"/>
			<line class="st25" x1="688.8" y1="277.8" x2="690.9" y2="277.8"/>
		</g>
		<path class="st25" d="M664.7,275.6v4.5c0,0,2.9,0.4,2.9-2.5C667.5,277.7,667.7,275.4,664.7,275.6z"/>
		<path class="st25" d="M674.2,275.8v4.5c0,0,2.1,0.3,2.3-0.9c0.1-0.6-0.5-1.2-1.3-1.4c-0.2,0-0.4-0.1-0.7-0.1c0,0,2.3-0.2,1.9-1.3
			c-0.2-0.5-0.8-0.8-1.4-0.8C674.8,275.8,674.6,275.8,674.2,275.8z"/>
		<g>
			<polyline class="st25" points="678.8,280.3 680.2,276.8 681.5,280.3 			"/>
			<line class="st25" x1="679.3" y1="279.1" x2="681.1" y2="279.1"/>
		</g>
		<g>
			<path class="st25" d="M693.2,280.4v-4.5c0,0,1.5-0.2,1.9,1c0.2,0.5-0.2,1.1-0.8,1.2c-0.2,0-0.4,0.1-0.8,0.1"/>
			<polygon class="st23" points="693.5,278 694.3,278 695.7,280.5 695,280.5 			"/>
		</g>
		<g>
			<line class="st25" x1="684.2" y1="275.7" x2="684.1" y2="280.6"/>
			<polygon class="st23" points="686.7,280.6 686.1,280.6 684.7,278.4 684.4,278.8 684.1,278.1 686.1,275.8 686.6,275.8 
				685.1,277.9 			"/>
		</g>
	</g>
	<g class="st26">
		<path class="st11" d="M428,311.3l66,5.2l1.3,0.1L494,317l-7.8,2.2l-7.9,2l-7.9,1.9l-7.9,1.8l-7.9,1.7l-7.9,1.5l-7.9,1.4l-8,1.3
			l-8,1.1l-8,1l-8,0.8l-8,0.7l-8.1,0.5l-8.1,0.4l-8.1,0.3l-8.1,0.1v-1l112.7,2.6l2.5,0.1l-2.1,1.3l-3,1.8l-3.1,1.7l-3.2,1.6
			c-1.1,0.5-2.1,1-3.2,1.5c-1.1,0.5-2.2,1-3.3,1.4c-1.1,0.5-2.2,0.9-3.3,1.4c-1.1,0.4-2.2,0.8-3.4,1.3c-1.1,0.4-2.3,0.8-3.4,1.2
			c-1.1,0.4-2.3,0.7-3.4,1.1c-1.1,0.3-2.3,0.7-3.5,0.9c-1.2,0.3-2.3,0.6-3.5,0.8c-1.2,0.3-2.4,0.5-3.5,0.8c-1.2,0.3-2.4,0.4-3.5,0.7
			c-1.2,0.2-2.4,0.3-3.5,0.5l-3.5,0.4l-3.5,0.3l0.1-1.6l83.2,13l-0.1,1.7c-27.6,0.9-55.3,0.9-82.9-0.1l0.1-1l19.9,3l19.9,3l0.6,0.1
			l-0.4,0.4c-1.2,1.1-2.4,2-3.7,3c-0.7,0.4-1.4,0.8-2,1.3s-1.4,0.8-2.1,1.1c-0.7,0.3-1.4,0.7-2.2,0.9s-1.5,0.5-2.3,0.8
			c-0.8,0.3-1.5,0.4-2.3,0.5c-0.8,0.2-1.6,0.3-2.4,0.3l0.2-0.2c0.2,1.3,0.6,2.5,1.3,3.6c0.3,0.6,0.8,1.1,1.3,1.5
			c0.5,0.4,1.1,0.8,1.7,0.8v0.2c-0.7-0.1-1.3-0.4-1.8-0.8s-0.9-0.9-1.3-1.5c-0.7-1.1-1.2-2.5-1.4-3.7v-0.2h0.2
			c0.8-0.1,1.5-0.2,2.3-0.3c0.8-0.2,1.5-0.3,2.3-0.5c0.8-0.3,1.5-0.5,2.2-0.8c0.8-0.3,1.4-0.6,2.1-0.9c0.7-0.3,1.4-0.8,2-1.1
			c0.7-0.4,1.4-0.8,1.9-1.3c1.3-0.9,2.5-1.9,3.6-3l0.2,0.5l-19.9-2.8l-19.9-2.8l0.1-1c27.6,0.8,55.3,0.6,82.8-0.6l-0.1,1.7
			l-83.2-13.1l-6.9-1.1l7-0.5l3.5-0.3l3.5-0.4c1.2-0.2,2.4-0.3,3.5-0.5c1.2-0.2,2.3-0.4,3.5-0.6c1.2-0.3,2.3-0.4,3.5-0.8
			c1.2-0.3,2.3-0.5,3.5-0.8c1.1-0.3,2.3-0.6,3.4-0.9c1.1-0.3,2.3-0.7,3.4-1c1.1-0.4,2.2-0.8,3.4-1.2c1.1-0.4,2.2-0.8,3.3-1.3
			c1.1-0.4,2.2-0.8,3.3-1.4c1.1-0.5,2.2-0.9,3.2-1.4c1.1-0.5,2.1-1,3.2-1.5l3.1-1.6l3.1-1.7l3-1.8l0.3,1.3l-112.9-2.8v-1l8.1-0.1
			l8.1-0.3l8.1-0.3l8-0.5l8-0.7l8-0.8l8-0.9l8-1.1l8-1.2l7.9-1.4l7.9-1.5l7.9-1.6l7.9-1.8l7.9-1.9l7.9-2l7.8-2.2l0.1,0.4l-66-5.6
			V311.3z"/>
	</g>
	<g class="st26">
		<path class="st11" d="M848.2,314.5l66,5.2l1.3,0.1l-1.3,0.3l-7.8,2.2l-7.9,2l-7.9,1.9l-7.9,1.8l-7.9,1.7l-7.9,1.5l-7.9,1.4l-8,1.3
			l-8,1.1l-8,1l-8,0.8l-8,0.7l-8.1,0.5l-8.1,0.4l-8.1,0.3l-8.1,0.1v-1l112.7,2.6l2.5,0.1l-2.1,1.3l-3,1.8l-3.1,1.7l-3.2,1.6
			c-1.1,0.5-2.1,1-3.2,1.5c-1.1,0.5-2.2,1-3.3,1.4c-1.1,0.5-2.2,0.9-3.3,1.4c-1.1,0.4-2.2,0.8-3.4,1.3c-1.1,0.4-2.3,0.8-3.4,1.2
			c-1.1,0.4-2.3,0.7-3.4,1.1c-1.1,0.3-2.3,0.7-3.5,0.9c-1.2,0.3-2.3,0.6-3.5,0.8s-2.4,0.5-3.5,0.8c-1.2,0.3-2.4,0.4-3.5,0.7
			c-1.2,0.2-2.4,0.3-3.5,0.5l-3.5,0.4l-3.5,0.3l0.1-1.6l83.2,13l-0.1,1.7c-27.6,0.9-55.3,0.9-82.9-0.1l0.1-1l19.9,3l19.9,3l0.6,0.1
			l-0.4,0.4c-1.2,1.1-2.4,2-3.7,3c-0.7,0.4-1.4,0.8-2,1.3c-0.7,0.4-1.4,0.8-2.1,1.1c-0.7,0.3-1.4,0.7-2.2,0.9s-1.5,0.5-2.3,0.8
			s-1.5,0.4-2.3,0.5c-0.8,0.2-1.6,0.3-2.4,0.3l0.2-0.2c0.2,1.3,0.6,2.5,1.3,3.6c0.3,0.6,0.8,1.1,1.3,1.5c0.5,0.4,1.1,0.8,1.7,0.8
			v0.2c-0.7-0.1-1.3-0.4-1.8-0.8s-0.9-0.9-1.3-1.5c-0.7-1.1-1.2-2.5-1.4-3.7v-0.2h0.2c0.8-0.1,1.5-0.2,2.3-0.3
			c0.8-0.2,1.5-0.3,2.3-0.5c0.8-0.3,1.5-0.5,2.2-0.8c0.8-0.3,1.4-0.6,2.1-0.9c0.7-0.3,1.4-0.8,2-1.1c0.7-0.4,1.4-0.8,1.9-1.3
			c1.3-0.9,2.5-1.9,3.6-3l0.2,0.5l-19.9-2.8l-19.9-2.8l0.1-1c27.6,0.8,55.3,0.6,82.8-0.6l-0.1,1.7l-83.4-12.8l-6.9-1.1l7-0.5
			l3.5-0.3l3.5-0.4c1.2-0.2,2.4-0.3,3.5-0.5c1.2-0.2,2.3-0.4,3.5-0.6c1.2-0.3,2.3-0.4,3.5-0.8c1.2-0.3,2.3-0.5,3.5-0.8
			c1.1-0.3,2.3-0.6,3.4-0.9c1.1-0.3,2.3-0.7,3.4-1c1.1-0.4,2.2-0.8,3.4-1.2c1.1-0.4,2.2-0.8,3.3-1.3c1.1-0.4,2.2-0.8,3.3-1.4
			c1.1-0.5,2.2-0.9,3.2-1.4c1.1-0.5,2.1-1,3.2-1.5l3.1-1.6l3.1-1.7l3-1.8l0.3,1.3l-112.7-3v-1l8.1-0.1l8.1-0.3l8.1-0.3l8-0.5l8-0.7
			l8-0.8l8-0.9l8-1.1l8-1.2l7.9-1.4l7.9-1.5l7.9-1.6l7.9-1.8l7.9-1.9l7.9-2l7.8-2.2l0.1,0.4l-66-5.6L848.2,314.5z"/>
	</g>
</g>
</svg>
