<svg xmlns="http://www.w3.org/2000/svg" viewBox="-173 147.9 444.3 318.1" enable-background="new -173 147.9 444.3 318.1"><style type="text/css">.st0{fill:#161616;stroke:#F4F4F4;stroke-miterlimit:10;} .st1{fill:#F4F4F4;} .st2{fill:none;stroke:#F4F4F4;stroke-miterlimit:10;}</style><path class="st0" d="M255.6 252.8c-1.1-5.3-2.5-22.4-27.1-27.4-5.8-1.2-11.9-1.2-17.7-.3-13.6 2.1-45.8 8.8-64.5 27.2l36.5-8.4s18.4-16.4 40.7-12.8c.6.1 1.1.2 1.7.2 4.8.5 33 5.6 16.9 52.9 0 0-20.4 54.4-64.6 70.2 0 0-22.4 8.8-27.1-22.2-.5-3.2-.4-6.4.3-9.6 1.8-9 5.2-29.7-1.7-31.9 0 0-12.6-4.7-26 .5-5.7 2.2-10.7 6.1-14.5 11-7.8 10.1-31.9 40.7-33.3 34 0 0-3.7-6.9 0-20.6l13-32.2-19 3.4s-8.2 21.9-22.5 28.6c-1.3.6-2.7.3-3.6-.8-1.9-2.2-4-7.5-1.2-20 0 0 1.4-10.3.5-12.6l-16.2 4.4s-13.6 47.6-31.4 55.8l-.4.2-.4.2c-5.2 1.9-10.9-.1-13.2-15.2-.5-3.2-.4-6.4.3-9.6 1.8-9 5.2-29.7-1.7-31.9 0 0-12.6-4.7-26 .5-5.7 2.2-10.7 6.1-14.5 11-7.8 10.1-27.2 50-28.7 43.3 0 0-15.5-61.2-13.5-86.9 0 0 .5-37.7 25-72.4 2.9-4.1 6.4-7.7 10.5-10.5 7.6-5.2 18.8-8.9 22.6 10.2 1.6 8.1 1 16.5-1.5 24.4-6.3 19.4-22.2 61.7-39.4 55.6.6.3 11.2 5.8 24 4.1 0 0 14.6-7.2 27.1-40.2l1.9-4.9c4.1-10.1 21.3-57-13.4-62.8-2.8-.5-5.6-.4-8.3.2-4.5 1-12.7 2.8-20.5 5.1-12.2 3.7-22.6 11.9-29.1 22.9-7.5 12.4-16.5 32.7-18.9 60.1-1.4 15.7-.4 31.6 2.9 47.1 3.9 18.8 11.8 58 10.6 62.6 0 0-41.3 32.6-47.8 61.5-.4 1.7-.9 3.4-1.3 5.2-1.6 5.7-4.2 18.5.3 28.5 2.2 4.8 7.1 7.9 12.4 7.9 4.5 0 10.1.2 15.4-.3 6.5-.6 12.1-1.8 16.8-5.8 6.5-5.5 14.6-13.6 16.8-21.9.7-2.5 1.5-5 2.4-7.4 4.3-12.3 13.7-44.6 5.7-70 3.9-3.3 9.2-9.8 19-22.4 2.5-3.2 4.5-6.8 7.1-10 7.9-9.8 20.5-29.8 27.2-29.3h1.1c1.8-.2 7.1.8 4 20.6-.9 5.9-.9 11.9.3 17.7 1.8 9.1 6.6 19.3 21.6 20.7 1.9.2 8.4.2 10.7.1 5.9-.6 8.2-3.1 13.3-10.4 1.3-1.9 2.4-3.9 3.2-6.1 2.2-5.5 9.8-23.9 14.1-15.4 1.2 2.3 4.9 3.9 7.9 4.6.1 0 .1 0 .2.1 6.3 1.5 11.2 0 16.8-3.4.7-.4 1.4-.8 2.1-1.1l.2-.1c.8-.6 1.9.6 1.8 1.6-.8 7.1-1.5 24.9 9.5 28.1.7.2 1.2.4 1.8.4 14 1.1 12.8 1.9 23.7-15.1 2.2-3.4 4.5-6.8 7.1-10 7.9-9.8 23.6-28 30.2-27.5h1.1c1.8-.2 7.1.8 4 20.6-.9 5.9-.9 11.9.3 17.7 2.1 10.3 8 23 24.5 26.2 0 0 24 5.2 50.9-19.5 9-8.3 15.1-19.1 22.4-29 9.1-12.5 19.2-35.8 19-51.4 0-.9-.2-7-.4-7.9zm-360.1 170.9c-8.7 21.4-19 26.5-25.4 27.3-3.5.4-6.9-1.1-8.9-4-23-33.8 39.7-87.2 39.7-87.2 1.4 3.1 1.9 13.1 2.2 22.1.3 14.3-2.2 28.6-7.6 41.8zM261.7 252.8c-1.1-5.3-2.5-22.4-27.1-27.4-5.8-1.2-12.8-1.8-18.7-.9-13.6 2.1-41.8 4.1-69.6 27.8l42.6-8.4s18.4-16.4 40.7-12.8c.6.1 1.1.2 1.7.2 4.8.5 33 5.6 16.9 52.9 0 0-20.4 54.4-64.6 70.2 0 0-22.4 8.8-27.1-22.2-.5-3.2-.4-6.4.3-9.6 1.8-9 5.2-29.7-1.7-31.9 0 0-12.6-4.7-26 .5-5.7 2.2-10.7 6.1-14.5 11-7.8 10.1-31.9 40.7-33.3 34 0 0-3.7-6.9 0-20.6l6.9-32.2-19 3.4s-2.1 21.9-16.4 28.6c-1.3.6-2.7.3-3.6-.8-1.2-1.4-2.1-4.2-2.5-9.5-.7-7.7-2.5-15.1-4.2-23.1v-.1l-16.2 4.4s-7.5 47.6-25.3 55.8l-.4.2-.4.2c-5.2 1.9-10.9-.1-13.2-15.2-.5-3.2-.4-6.4.3-9.6 1.8-9 5.2-29.7-1.7-31.9 0 0-12.6-4.7-26 .5-5.7 2.2-10.7 6.1-14.5 11-7.8 10.1-27.2 50-28.7 43.3 0 0-15.5-61.2-13.5-86.9 0 0 .5-37.7 25-72.4 2.9-4.1 6.4-7.7 10.5-10.5 7.6-5.2 18.8-8.9 22.6 10.2 1.6 8.1 1 16.5-1.5 24.4-6.3 19.4-28.3 61.7-45.5 55.6.6.3 17.3 5.8 30.1 4.1 0 0 14.6-7.2 27.1-40.2l1.9-4.9c4.1-10.1 21.3-57-13.4-62.8-2.8-.5-5.6-.4-8.3.2-4.5 1-12.7 2.8-20.5 5.1-12.2 3.7-22.6 11.9-29.1 22.9-7.6 12.5-16.6 32.8-19 60.2-1.4 15.7-.4 31.6 2.9 47.1 3.9 18.8 11.8 58 10.6 62.6 0 0-41.3 32.6-47.8 61.5-.4 1.7-.9 3.4-1.3 5.2-1.6 5.7-4.2 18.5.3 28.5 2.2 4.8 7.1 7.9 12.4 7.9 4.5 0 10.1.2 15.4-.3 6.5-.6 12.1-1.8 16.8-5.8 6.5-5.5 13.8-13.6 16.8-21.9l2.4-7.4c4.3-12.3 13.7-44.6 5.7-70 3.9-3.3 9.2-9.8 19-22.4 2.5-3.2 4.5-6.8 7.1-10 7.9-9.8 20.5-29.8 27.2-29.3h1.1c1.8-.2 7.1.8 4 20.6-.9 5.9-.9 11.9.3 17.7 1.8 9.1 6.6 19.3 21.6 20.7 1.9.2 4 .2 6.3.1 5.9-.6 12.6-3.1 17.7-10.4 1.3-1.9 2.4-3.9 3.2-6.1 2.2-5.5 9.8-23.9 14.1-15.4 1.2 2.3 4.9 3.9 7.9 4.6.1 0 .1 0 .2.1 6.2 1.5 11 .1 16.4-3.2.7-.4 1.8-1 2.5-1.3l.2-.1c.8-.6 1.9.6 1.8 1.6-.8 7.1-1.7 26.1 9.5 28.1.6.1 1.2.2 1.8.4 2.8.8 12.8 1.9 23.7-15.1 2.2-3.4 4.5-6.8 7.1-10 7.9-9.8 23.6-28 30.2-27.5h1.1c1.8-.2 7.1.8 4 20.6-.9 5.9-.9 11.9.3 17.7 2.1 10.3 8 23 24.5 26.2 0 0 24 5.2 50.9-19.5 9-8.3 15.1-19.1 22.4-29 9.1-12.5 19.2-35.8 19-51.4l-.4-7.9zm-360.1 170.9c-8.7 21.4-19 26.5-25.4 27.3-3.5.4-6.9-1.1-8.9-4-23-33.8 39.7-87.2 39.7-87.2 1.4 3.1 1.9 13.1 2.2 22.1.3 14.3-2.2 28.6-7.6 41.8z"/><path class="st1" d="M25.7 396.2c-1.2-6.2 2.7-14.2 9.5-13.5 7.9.7 8 11.2 8 17.1v27.7c0 2.2.8 6.3 0 8.4-.1.4-1.8.4-.6.3-2.3.3-5.3-.7-7.4-1.6-13.1-5.8-8.2-27.4 5.4-28.7h-3 1.3c1.5.1 2.8.4 4.3.8h3c-4.1-1.1-9.5-1.5-13.4.5-6.6 3.4-10.1 13.6-7.5 20.4 2.3 6 8.5 8.3 14.4 8.7 1.1.1 5.7.7 6.5-.1.3-.3 0-2.5 0-3v-27.400000000000002c0-7.5 1.8-21.6-8.3-23.1-8.8-1.3-17.1 3.9-15.2 13.6 0 .1 3-.3 3-.1zM49.7 422.5c.2 7.1 2.8 13.9 10.6 13.9 7.7 0 12.7-4.6 13.2-12.4.3-4.6-.5-10.3-4.1-13.6-4.6-4.1-11.3-2.2-15.1-7.7-2.7-3.9-3.3-10.3-1.3-14.6 1.7-3.5 6.3-6.2 9.6-5.3 5.7 1.7 6.9 8.4 7 13.5h3c-.2-7.1-2.8-13.9-10.6-13.9s-13.6 3.7-13.1 12.1c.4 7.2 4.4 11.7 11.6 13.2 9.6 1.9 12.4 14 8.7 22.2-1.7 3.6-6 7.1-9.4 6.1-5.7-1.7-6.9-8.4-7-13.5h-3.1zM76.2 399.5h20c-.4-6.4-2.4-16.4-10.2-16.9-3.5-.2-6.7.7-8.4 4.3-2.3 5-2.9 11.9-3.5 17.3-.8 7.4-.8 15 1.1 22.2 1.3 4.9 3.2 9.8 8.9 10.1 11.9.8 12-14.3 12.1-22.9h-3c-.1 6.6.1 22.7-9.7 22.9h2.8c-10.7-1.5-10.1-20.9-9.6-28.7.3-5 1.1-10 2.2-14.9 1-4.6 2-9.5 7.5-10.2h-3c7.5.7 9.4 10.8 9.8 16.9h1.5c-6.2-.2-12.3-.2-18.5-.1-1.7-.1-1.8 0 0 0zM8.7 436.1c-7.5.1-10.9-5.1-11.2-12.6v-19.400000000000002c0-6.2-1.4-15.2 3.9-19.6 2.9-2.4 7.3-2.3 10.8-1.8 6.3.9 10.1 6.2 8.8 12.5-.1.3-3-.1-2.9 0 .9-4.3-.6-9.2-4.7-11.3-5.9-3-11.2.6-12.5 7.1-1.1 5.4-.4 11.5-.4 16.9v15.5c.1 4.1.9 8.7 4.5 11.2 2.4 1.7 3.9 1.6 5.9.9 5.1-1.7 7.7-7 7.4-12.1 0 .1 3 0 3 0 .4 7.7-5.1 12.6-12.6 12.7zM-2.5 423.5v-.1.1z"/><path class="st2" d="M96 398.9h-19.8"/></svg>