<?xml version="1.0" encoding="utf-8"?>
<!-- Generator: Adobe Illustrator 19.1.0, SVG Export Plug-In . SVG Version: 6.00 Build 0)  -->
<svg version="1.1" xmlns="http://www.w3.org/2000/svg" xmlns:xlink="http://www.w3.org/1999/xlink" x="0px" y="0px"
	 viewBox="0 0 612 792" style="enable-background:new 0 0 612 792;" xml:space="preserve">
<style type="text/css">
	.st0{fill:none;stroke:#000000;stroke-width:2;stroke-miterlimit:10;}
	.st1{fill:none;stroke:#000000;stroke-miterlimit:10;}
	.st2{fill:none;stroke:#000000;stroke-width:0.5;stroke-miterlimit:10;}
	.st3{fill:none;stroke:#000000;stroke-width:0.35;stroke-miterlimit:10;}
	.st4{fill:none;stroke:#000000;stroke-width:0.45;stroke-miterlimit:10;}
</style>
<g id="NORTH">
	<path d="M230.4,260c0,0-6.7-13.1-20.9-20.5c-3.5-1.8-7.5-2.5-11.4-2l-6.9,1c-5.5,0.8-10.5,4-13.4,8.7c-3.3,5.4-6.3,14-5.1,26.9
		c0,0,1.3,15.2,8.2,27.2c5.8,10.1,17.3,15.5,28.9,13.7c8-1.2,17.8-5.1,22.9-16.2c0.3-0.6,0.7-1.3,0.9-2
		C235.3,292.1,239.7,275.9,230.4,260z M222.9,295.6c0,0.1,0,0.2,0,0.3c-0.3,2.2-1,4.3-2,6.2c-6.9,13.1-15.3,10.6-21.1,6.3
		c-3.9-2.9-6.9-6.9-9-11.5c-10.8-23.8-7.6-39.9-4.2-48.1c2.3-5.6,7.7-9.1,13.4-8.3c0.1,0,0.3,0,0.4,0.1c1,0.2,4,2.1,4.8,2.9
		c2.2,2.5,3.4,3.9,6.2,7.7C219.9,262.9,225,280.9,222.9,295.6z"/>
	<path d="M482.7,274.1l4.6,3.1c0.9,0.6,1.2,1.9,0.6,2.8l-26.4,39.6l25.6,17.1l26.4-39.6c0.6-0.9,1.9-1.2,2.8-0.6l4.6,3.1
		c0.9,0.6,1.2,1.9,0.6,2.8l-41.4,62.1c-0.6,0.9-1.9,1.2-2.8,0.6l-5-3.3c-0.9-0.6-0.9-1.7-0.3-2.6l11.9-17.8l-25.5-17L446.6,342
		c-0.6,0.9-2.2,1.1-3.2,0.5l-4.4-3c-0.9-0.6-1.2-1.9-0.6-2.8l41.4-62.1C480.6,273.7,481.8,273.5,482.7,274.1z"/>
	<path d="M372.5,231.1l70.5,25.8c1.2,0.4,1.9,1.7,1.5,2.7l-1.1,2.7c-0.4,1.1-1.7,1.6-2.9,1.2L410.9,253c-0.3-0.1-0.6,0-0.7,0.3
		l-22.6,62.7c-0.2,0.5-0.7,0.7-1.3,0.5l-9.3-3.5c-0.5-0.2-0.8-0.7-0.7-1.2l23-62.6c0.1-0.2-0.1-0.5-0.3-0.6l-29-10.7
		c-1.2-0.4-1.9-1.7-1.5-2.7l1.1-2.7C370.1,231.2,371.3,230.7,372.5,231.1z"/>
	<path d="M123.8,359l-2.5,1.4c-1,0.6-2.3,0.3-2.9-0.7l-38.7-63.3c-0.6-1-0.3-2.3,0.7-2.9l4.4-2.6c1.1-0.7,2.6-0.7,3.8-0.1l53.7,29.4
		L115,275.2c-0.7-1.1-0.3-2.6,0.8-3.3l2.4-1.5c1.1-0.7,2.4-0.4,3.1,0.7l38.2,62.6c0.8,1.3,0.4,3-0.9,3.8l-3.6,2.4
		c-1.2,0.7-2.6,0.7-3.8,0.1l-54-29.9l27.5,45.3C125.4,356.6,125,358.2,123.8,359z"/>
	<path d="M332.8,300.4c-3.2-2.3-3.7-17.1-3.6-20.4c0-0.2,0-0.6,0-0.8c-0.7-8.3-8.1-11.7-10.6-12.9c-0.4-0.2-0.4-0.8,0-0.9
		c7-2.8,10.3-8.7,11.8-13.7c1.9-6.2,1.1-12.9-2.5-18.2c-6.8-10-18.9-9.3-18.9-9.3l-35.5,0.2c-1.6,0-2.9,1.3-2.9,2.9l0.3,74.6
		c0,0.8,0.6,1.4,1.4,1.4l8,0c0.8,0,1.4-0.6,1.4-1.4l-0.1-28.8c0-0.3,0.2-0.5,0.5-0.5l20.7-0.1c8.1,0,11.8,5.8,13.5,10.1
		c0.8,2.1,1.2,4.4,1.1,6.6c-0.3,5,1.2,10.6,1.9,12.8c0.2,0.6,0.7,1,1.3,1l11.5-0.1c0.8,0,1.4-0.6,1.4-1.4l0,0
		C333.4,301,333.2,300.6,332.8,300.4z M318,248.9c0.4,17.1-13.6,15.9-13.6,15.9l-19.1,0.1c-2.3,0-4.3-1.9-4.3-4.2l-0.1-24.8
		c0-2.3,1.9-4.2,4.2-4.2l18.1-0.1c14.5-0.9,14.8,13.4,14.8,16.1C318,248.1,318,248.5,318,248.9z"/>
</g>
<g id="BOUND">
	<path d="M266,395c0,0-3.2-15.2-15.5-26.8c-3-2.8-6.9-4.6-11-5.2l-7.3-1c-5.9-0.8-11.8,1.1-16.1,5.1c-4.9,4.6-10.3,12.5-12.7,25.9
		c0,0-3,15.8,0.7,30c3.1,11.9,13.2,20.6,25.5,22.1c8.4,1,19.5-0.2,27.8-10c0.5-0.5,1-1.2,1.4-1.7C262,428.9,271,413.7,266,395z
		 M248.3,429c0,0.1-0.1,0.2-0.1,0.2c-0.9,2.1-2.2,4.1-3.8,5.8c-10.7,11.4-18.5,6.5-23.2,0.5c-3.1-4-5.1-9-5.9-14.2
		c-4.3-27.2,3.5-42.7,9.2-50.1c4-5.1,10.4-7.1,16-4.6c0.1,0.1,0.3,0.1,0.4,0.2c1,0.5,3.5,3.3,4,4.3c1.6,3.1,2.4,4.9,4.1,9.5
		C254.5,394.9,254.6,414.7,248.3,429z"/>
	<path d="M346.4,444.6l-2.9-0.1c-1.2,0-2.2-1-2.2-2.2v-77.1c0-1.2,1-2.2,2.2-2.2l5.4,0.1c1.4,0,2.7,0.7,3.4,2l31.7,55.2v-54.7
		c0-1.4,1.1-2.5,2.5-2.5l3,0c1.3,0,2.4,0.9,2.4,2.3v76.3c0,1.6-1.3,2.9-2.9,2.9l-4.5,0.1c-1.4,0-2.7-0.8-3.4-2l-31.7-55.8l-0.2,55.1
		C349,443.4,347.8,444.6,346.4,444.6z"/>
	<path d="M184.8,401.4c10.4-4.5,10.2-15,9.8-18.3c-0.1-0.7-0.1-1.5-0.2-2.2c-0.5-13.2-14.1-16.5-19.4-17.3c-1.1-0.2-2.1-0.2-3.2-0.2
		h-34.8c-2.1,0-3.7,1.7-3.7,3.7v74c0,2.1,1.7,3.7,3.7,3.7h36.4c3.2,0,6.4-0.6,9.4-1.9c12-5.3,14.4-18.4,14.4-18.4
		C200.6,406.2,184.8,401.4,184.8,401.4z M143.2,372.2c0-1.8,0.9-3.3,2-3.3h18.9c12.2,0.5,11.9,12.3,11.9,12.3
		c0.9,9.9-2.7,14.6-6,16.7c-1.9,1.2-3.8,1.8-5.8,1.8h-19c-1.1,0-2-1.5-2-3.3V372.2z M171.9,436.8c-2,1.4-4.2,2-6.4,2h-20.3
		c-1.1,0-2-1.3-2-3v-27c0-1.7,0.9-3,2-3h20.3c11.5,0.5,12.6,10.5,12.6,12.8c0,0.5,0.1,0.9,0.1,1.4
		C178.9,429.7,175.2,434.5,171.9,436.8z"/>
	<path d="M275.8,362.3l6,0.1c1.7,0,3,1.1,3,2.5v52.4c0,3.3,0.9,6.6,2.8,9.5c2.5,3.9,7.1,8,15.6,7.8c0,0,15.9,0,17.8-11.5
		c0.1-0.7,0.2-1.5,0.2-2.2l0-56c0-1.4,1.3-2.5,3-2.5h6.1c1.7,0,3,1.1,3,2.5v52.7c0,0,2.3,21.1-16.8,26.3c-0.3,0.1-3.2,0.7-3.6,0.7
		c-3.1,0.1-17.9,2.7-29.5-3.5c-7.6-4.1-10.6-8.2-10.6-27.4v-48.9C272.8,363.4,274.2,362.3,275.8,362.3z"/>
	<path d="M459.2,386.5c-4.7-13.5-17-23-31.3-23.4c-0.3,0-0.6,0-0.9,0h-22.5c-2.9,0-5.3,2.4-5.3,5.3V439c0,2.9,2.4,5.3,5.3,5.3h19.2
		c0.8,0,1.5,0,2.3,0.1c4.2,0.2,23.9,0,31.1-20.7c0.4-1,0.7-2.1,1.1-3.1C459.9,416.2,464.6,402.1,459.2,386.5z M442.9,418.5
		c-0.1,0.5-0.2,1-0.3,1.5c-3.6,18.4-13.9,18.5-16.1,18.3c-0.3,0-0.7,0-1,0H412c-1.5,0-2.7-1.2-2.7-2.7v-63.8c0-1.5,1.2-2.7,2.7-2.7
		h15c2.8,0,5.2,1,7.1,2.2c2.8,1.8,5,4.5,6.3,7.6C447.9,396.4,443.8,415,442.9,418.5z"/>
</g>
<g id="notebooks">
	<path class="st0" d="M232.3,511.8c0,0,5-23.5-15.6-14.4v-3.6v18"/>
	<ellipse class="st0" cx="300.8" cy="503.5" rx="7.9" ry="7.6"/>
	<ellipse class="st0" cx="320.5" cy="503.6" rx="7.8" ry="7.5"/>
	<ellipse class="st0" cx="245.3" cy="503.6" rx="7.8" ry="7.5"/>
	<ellipse class="st0" cx="341.1" cy="503.6" rx="7.8" ry="7.5"/>
	<path class="st0" d="M258,483.4v19.7c0,3.5,2.1,6.6,5.4,7.7c2.7,0.8,6.1,0.2,9.4-4.7"/>
	<path class="st0" d="M258,497.2c0,0,6.3,3.5,9.7-1.1"/>
	<path class="st0" d="M275.8,502.6c0,0,6.4,0.5,9.5-0.6c1.3-0.5,0.1-3.3-0.6-4.4c-1.2-2-4.7-2.9-7.2,0.1c-1.4,1.6-2,3.8-1.7,6
		c0.5,4.3,2.7,11.6,13.2,4.7"/>
	<path class="st0" d="M292.9,483v28.8V483z"/>
	<line class="st0" x1="354.1" y1="483" x2="354.1" y2="512"/>
	<path class="st0" d="M364.8,483.5l-7.8,10.8c-0.6,0.8-1.2,1.5-1.9,2.2c-0.9,0.8-0.4,1.2,1.4,0.6c4.4-1.5,14.3-7,13.6,14.5"/>
	<path class="st0" d="M385.9,497.3c0,0-7.1-6-9.6,1.3c0,0-1.4,5.2,6,4.2c1-0.1,2,0.2,2.8,0.9c1.3,1.3,2,4.7-0.6,6.6
		c-1,0.7-2.3,1-3.5,0.8c-1.9-0.3-4.8-1.2-5.1-4.5"/>
	<line class="st1" x1="396.5" y1="502.8" x2="416.3" y2="502.8"/>
	<line class="st1" x1="185.8" y1="502.8" x2="205.6" y2="502.8"/>
</g>
<g id="_x31_.5_x22_">
</g>
<g id="_x32__x22_">
</g>
</svg>
