<?xml version="1.0" encoding="utf-8"?>
<!-- Generator: Adobe Illustrator 19.1.0, SVG Export Plug-In . SVG Version: 6.00 Build 0)  -->
<svg version="1.1" xmlns="http://www.w3.org/2000/svg" xmlns:xlink="http://www.w3.org/1999/xlink" x="0px" y="0px"
	 viewBox="0 0 612 256" style="enable-background:new 0 0 612 256;" xml:space="preserve">
<style type="text/css">
	.st0{fill:#EFD30A;}
	.st1{fill:none;stroke:#EFD30A;stroke-width:2;stroke-miterlimit:10;}
	.st2{fill:#5B5B5A;}
	.st3{font-family:'Helvetica-Light';}
	.st4{font-size:128px;}
	.st5{font-size:165px;}
	.st6{fill:#D4D82A;}
	.st7{fill:#00803D;}
	.st8{fill:#39933B;}
	.st9{fill:#78A02E;}
	.st10{fill:#BDC927;}
	.st11{fill:#8CD8F6;}
	.st12{opacity:0.75;fill:#FFFFFF;}
	.st13{font-size:30px;}
	.st14{fill:#025B2A;}
</style>
<g id="Layer_2">
	<g>
		<g>
			<path class="st0" d="M53.9,97.4c0,0-25.1-4.4-30.6-51.5C23.3,46,61.5,67.9,53.9,97.4z"/>
			<path class="st0" d="M52.9,139.1c0,0-25.1-4.4-30.6-51.5C22.3,87.7,60.5,109.5,52.9,139.1z"/>
			<path class="st0" d="M57,178.4c0,0-25.4-2.5-34.4-49C22.6,129.4,62.3,148.3,57,178.4z"/>
			<path class="st0" d="M59,98.6c0,0,25.4-2,35.3-48.4C94.3,50.2,54.2,68.4,59,98.6z"/>
			<path class="st0" d="M59.2,139.1c0,0,25.1-4.4,30.6-51.5C89.8,87.7,51.6,109.5,59.2,139.1z"/>
			<path class="st0" d="M61.9,177.1c0,0,25-5.2,28.9-52.4C90.8,124.6,53.3,147.7,61.9,177.1z"/>
		</g>
		<path class="st1" d="M59.2,56.4c0,0-19,160,31.6,171"/>
		<path class="st0" d="M57.9,53.2c0,0,4.7-35,69.6-45C127.5,8.1,99.3,62.1,57.9,53.2z"/>
	</g>
	<text transform="matrix(1 0 0 1 94.2716 178.396)" class="st2 st3 st4">he</text>
	<text transform="matrix(1 0 0 1 524.6495 174.5326)" class="st2 st3 st4">r</text>
	<text transform="matrix(1 0 0 1.16 267.2718 178.3956)" class="st2 st3 st5">D</text>
	<g>
		<path class="st6" d="M420.9,193.8c0.4,0.8,1.6,0.8,2.1,0c3.9-6.7,15.9-29.8-2.5-29.2C406.4,165.2,417.3,187.2,420.9,193.8z"/>
		<path class="st7" d="M389.8,135.8c-0.5,0.3-1,0-1.1-0.6c-0.2-8-0.1-53.4,24.9-37.9C432.7,109.2,396.4,131.9,389.8,135.8z"/>
		<path class="st8" d="M420.4,154.6c0.3,0.5,1,0.5,1.3,0c3.7-6.1,20.6-36.6-2.4-35.8C401.8,119.5,417.1,148.6,420.4,154.6z"/>
		<path class="st9" d="M399.7,156.5c-0.3,0.4-0.9,0.3-1.1-0.2c-1.9-5.3-9.5-29.6,7-25.6C418.3,133.6,403.2,152.3,399.7,156.5z"/>
		<path class="st10" d="M407.2,175.8c-0.3,0.4-0.9,0.2-1.1-0.2c-1.8-5.4-9.2-29.7,7.3-25.6C426,153.2,410.8,171.7,407.2,175.8z"/>
		<path class="st7" d="M452.1,133.2c0.5,0.2,1-0.1,1-0.6c-0.3-8-3.1-53.3-27-36.4C407.7,109.2,445.2,129.7,452.1,133.2z"/>
		<path class="st9" d="M443.6,155.5c0.3,0.4,0.9,0.3,1.1-0.2c1.9-5.3,9.5-29.6-7-25.6C425,132.7,440.1,151.3,443.6,155.5z"/>
		<path class="st10" d="M436.1,174.8c0.3,0.4,0.9,0.2,1.1-0.2c1.8-5.4,9.2-29.7-7.3-25.6C417.3,152.2,432.5,170.7,436.1,174.8z"/>
	</g>
	<g>
		<path class="st6" d="M492.7,191.2c0.4,0.8,1.6,0.8,2.1,0c3.9-6.7,15.9-29.8-2.5-29.2C478.3,162.6,489.2,184.7,492.7,191.2z"/>
		<path class="st7" d="M461.6,133.3c-0.5,0.3-1,0-1.1-0.6c-0.2-8-0.1-53.4,24.9-37.9C504.5,106.6,468.3,129.3,461.6,133.3z"/>
		<path class="st8" d="M492.3,152.1c0.3,0.5,1,0.5,1.3,0c3.7-6.1,20.6-36.6-2.4-35.8C473.6,116.9,488.9,146,492.3,152.1z"/>
		<path class="st9" d="M471.5,153.9c-0.3,0.4-0.9,0.3-1.1-0.2c-1.9-5.3-9.5-29.6,7-25.6C490.1,131.1,475.1,149.8,471.5,153.9z"/>
		<path class="st10" d="M479,173.3c-0.3,0.4-0.9,0.2-1.1-0.2c-1.8-5.4-9.2-29.7,7.3-25.6C497.9,150.6,482.6,169.1,479,173.3z"/>
		<path class="st7" d="M524,130.7c0.5,0.2,1-0.1,1-0.6c-0.3-8-3.1-53.3-27-36.4C479.6,106.6,517.1,127.1,524,130.7z"/>
		<path class="st9" d="M515.5,152.9c0.3,0.4,0.9,0.3,1.1-0.2c1.9-5.3,9.5-29.6-7-25.6C496.9,130.1,511.9,148.8,515.5,152.9z"/>
		<path class="st10" d="M508,172.3c0.3,0.4,0.9,0.2,1.1-0.2c1.8-5.4,9.2-29.7-7.3-25.6C489.1,149.7,504.4,168.2,508,172.3z"/>
	</g>
	<path class="st11" d="M255.6,148.1c-2,0-4.3-0.9-6.1-1.7c-3.4-1.6-5.6-4.9-6.4-8.6c-0.4-2-0.8-4,0.2-5.8c0.4-0.7,0.7-1.4,1.1-1.9
		c2.1-2.8,4.9-4.8,7.2-7.5c2.3-2.7,4.1-6.1,4.3-9.6c0.4,0.2,0.9,0.5,1.2,0.9c3.9,3.6,7.2,7.8,9.6,12.6c1,2,1.9,4.1,2.2,6.3
		c0.4,2.2,0.5,4.6-0.4,6.6c-0.4,0.9-0.9,2.2-1.5,3c-1.1,1.5-2.6,3.1-4.2,4C260.7,147.4,257.9,148.1,255.6,148.1z"/>
	<path class="st12" d="M246.7,133.3c0.3-0.5,0.5-0.9,0.8-1.4c0.5-0.8,1.2-1.6,1.7-2.4c0.6-0.9,1.3-1.8,2-2.6c-3.6,1-4.1,1.9-5.4,3.6
		c-0.8,1.1-1.3,2.2-1.8,3.4c-0.5,1.2-0.4,2.7,0.2,3.9C245.1,136.2,245.9,134.8,246.7,133.3z"/>
	<text transform="matrix(1 0 0 1.16 100.1345 239.455)" class="st3 st13">brewing company</text>
	<rect x="418.3" y="87.1" class="st14" width="2.8" height="11.8"/>
	<rect x="490.6" y="84.6" class="st14" width="2.8" height="11.8"/>
</g>
<g id="Layer_3">
</g>
</svg>
