<?xml version="1.0" encoding="utf-8"?>
<!-- Generator: Adobe Illustrator 19.1.0, SVG Export Plug-In . SVG Version: 6.00 Build 0)  -->
<svg version="1.1" id="Layer_1" xmlns="http://www.w3.org/2000/svg" xmlns:xlink="http://www.w3.org/1999/xlink" x="0px" y="0px"
	 viewBox="0 0 303.6 404.4" style="enable-background:new 0 0 303.6 404.4;" xml:space="preserve">
<style type="text/css">
	.st0{fill:#75201C;}
	.st1{font-family:'Helvetica';}
	.st2{font-size:290.6208px;}
	.st3{fill:#FDB745;}
	.st4{stroke:#75201C;stroke-width:15.1131;stroke-miterlimit:10;}
	.st5{fill:#575757;}
	.st6{font-family:'Helvetica-Light';}
	.st7{font-size:69.5212px;}
	.st8{font-family:'HelveticaNeue-Thin';}
	.st9{font-size:39.2946px;}
	.st10{fill:#C6872C;}
	.st11{fill:#F8F6D2;}
	.st12{opacity:0.71;fill:#FFFFFF;}
	.st13{fill:#FFFFFF;}
</style>
<text transform="matrix(0.6639 0 0 1 149.2031 303.3632)" class="st0 st1 st2">D</text>
<rect x="70.1" y="95.1" class="st3" width="97.5" height="208.6"/>
<line class="st4" x1="68.1" y1="104.8" x2="68.1" y2="303.4"/>
<line class="st4" x1="6.9" y1="101" x2="170.1" y2="101"/>
<text transform="matrix(1 0 0 1 16.4101 360.622)" class="st5 st6 st7">TheDoor</text>
<text transform="matrix(1 0 0 1 7.9589 393.8837)" class="st0 st8 st9">brewing company</text>
<ellipse transform="matrix(0.7531 -0.6579 0.6579 0.7531 -41.6845 91.7956)" class="st10" cx="101.5" cy="101.4" rx="3.5" ry="3.2"/>
<ellipse transform="matrix(0.7531 -0.6579 0.6579 0.7531 -41.9122 101.3966)" class="st10" cx="114.1" cy="106.5" rx="3.5" ry="3.2"/>
<ellipse transform="matrix(0.7531 -0.6579 0.6579 0.7531 -38.3888 113.4159)" class="st11" cx="131.9" cy="107.9" rx="3.5" ry="3.2"/>
<ellipse transform="matrix(0.7531 -0.6579 0.6579 0.7531 -33.0613 81.9837)" class="st11" cx="92.7" cy="85" rx="3.5" ry="3.2"/>
<ellipse transform="matrix(0.7531 -0.6579 0.6579 0.7531 -40.4628 43.8401)" class="st10" cx="38.2" cy="75.8" rx="14.7" ry="15.6"/>
<ellipse transform="matrix(0.7531 -0.6579 0.6579 0.7531 -7.924 44.1374)" class="st11" cx="54.8" cy="32.6" rx="21.3" ry="28.2"/>
<ellipse transform="matrix(0.7531 -0.6579 0.6579 0.7531 -14.0296 63.2698)" class="st10" cx="77.3" cy="50.3" rx="31.5" ry="32.1"/>
<ellipse transform="matrix(0.7531 -0.6579 0.6579 0.7531 -48.6371 75.2702)" class="st11" cx="76" cy="102.4" rx="20.2" ry="23.8"/>
<ellipse transform="matrix(0.7531 -0.6579 0.6579 0.7531 -29.3951 137.1613)" class="st10" cx="168" cy="107.7" rx="19.2" ry="21.3"/>
<ellipse transform="matrix(0.7531 -0.6579 0.6579 0.7531 0.2322 117.1216)" class="st10" cx="156.2" cy="58.3" rx="25.8" ry="29.8"/>
<ellipse transform="matrix(0.7531 -0.6579 0.6579 0.7531 8.4467 149.0257)" class="st11" cx="202.8" cy="63.3" rx="21.1" ry="12"/>
<ellipse transform="matrix(0.7531 -0.6579 0.6579 0.7531 -9.5635 151.2321)" class="st10" cx="196.7" cy="88.4" rx="10.7" ry="10.8"/>
<ellipse transform="matrix(0.7531 -0.6579 0.6579 0.7531 11.9483 161.6426)" class="st10" cx="221.3" cy="64.9" rx="10.7" ry="10.8"/>
<ellipse transform="matrix(0.7531 -0.6579 0.6579 0.7531 21.9288 138.7186)" class="st10" cx="195.8" cy="40.1" rx="19.1" ry="22.1"/>
<ellipse transform="matrix(0.7531 -0.6579 0.6579 0.7531 10.8617 90.7581)" class="st11" cx="126.3" cy="30.9" rx="23.2" ry="17.7"/>
<ellipse transform="matrix(0.7531 -0.6579 0.6579 0.7531 -44.9305 96.8008)" class="st10" cx="106.5" cy="108.3" rx="5.1" ry="5"/>
<ellipse transform="matrix(0.7531 -0.6579 0.6579 0.7531 -44.5933 56.7605)" class="st10" cx="53.3" cy="87.8" rx="5.8" ry="5.2"/>
<ellipse transform="matrix(0.7531 -0.6579 0.6579 0.7531 27.9056 108.238)" class="st11" cx="158.2" cy="16.9" rx="5.3" ry="4.5"/>
<ellipse transform="matrix(0.7531 -0.6579 0.6579 0.7531 -25.3313 31.5668)" class="st11" cx="29.4" cy="49.5" rx="5.3" ry="4.5"/>
<ellipse transform="matrix(0.7531 -0.6579 0.6579 0.7531 17.5668 68.854)" class="st10" cx="100.5" cy="11" rx="5.3" ry="4.5"/>
<ellipse transform="matrix(0.7531 -0.6579 0.6579 0.7531 24.2698 79.6622)" class="st10" cx="118.3" cy="7.5" rx="1.4" ry="1.2"/>
<ellipse transform="matrix(0.7531 -0.6579 0.6579 0.7531 13.6723 58.5513)" class="st11" cx="84.8" cy="11.1" rx="1.4" ry="1.2"/>
<ellipse transform="matrix(0.7531 -0.6579 0.6579 0.7531 32.8698 116.8626)" class="st10" cx="172.1" cy="14.6" rx="1" ry="0.8"/>
<ellipse transform="matrix(0.7531 -0.6579 0.6579 0.7531 38.128 126.1654)" class="st10" cx="187.2" cy="12.3" rx="3.3" ry="2.8"/>
<ellipse transform="matrix(0.7531 -0.6579 0.6579 0.7531 -9.9649 93.049)" class="st11" cx="119" cy="59.8" rx="6.2" ry="9"/>
<ellipse transform="matrix(0.7531 -0.6579 0.6579 0.7531 -39.8412 119.9291)" class="st11" cx="139.9" cy="113" rx="5.6" ry="4.9"/>
<ellipse transform="matrix(0.7531 -0.6579 0.6579 0.7531 -33.6901 116.7413)" class="st10" cx="138.7" cy="103.3" rx="5.6" ry="4.9"/>
<ellipse transform="matrix(0.7531 -0.6579 0.6579 0.7531 -17.0072 89.2591)" class="st10" cx="110.4" cy="67.3" rx="5.6" ry="4.9"/>
<ellipse transform="matrix(0.7531 -0.6579 0.6579 0.7531 -35.5906 58.8723)" class="st11" cx="60.6" cy="76.9" rx="5.6" ry="4.9"/>
<ellipse transform="matrix(0.7531 -0.6579 0.6579 0.7531 -35.1122 76.5191)" class="st10" cx="84.4" cy="85" rx="5.6" ry="4.9"/>
<ellipse transform="matrix(0.7531 -0.6579 0.6579 0.7531 -36.4558 99.0979)" class="st10" cx="113.8" cy="98.1" rx="5.6" ry="4.9"/>
<ellipse transform="matrix(0.7531 -0.6579 0.6579 0.7531 -3.7353 140.4023)" class="st10" cx="185.2" cy="75.2" rx="5.6" ry="4.9"/>
<ellipse transform="matrix(0.7531 -0.6579 0.6579 0.7531 1.0014 155.7514)" class="st10" cx="208" cy="76.5" rx="5.6" ry="4.9"/>
<ellipse transform="matrix(0.7531 -0.6579 0.6579 0.7531 -26.7154 84.6281)" class="st11" cx="99.4" cy="77.9" rx="5.6" ry="4.9"/>
<ellipse transform="matrix(0.7531 -0.6579 0.6579 0.7531 -21.7976 160.3419)" class="st10" cx="202.7" cy="109.2" rx="5.6" ry="4.9"/>
<ellipse transform="matrix(0.7531 -0.6579 0.6579 0.7531 -20.8424 152.4968)" class="st11" cx="192.7" cy="104" rx="5.6" ry="4.9"/>
<ellipse transform="matrix(0.7531 -0.6579 0.6579 0.7531 -14.1236 159.7057)" class="st11" cx="205.7" cy="98.7" rx="5.6" ry="4.9"/>
<ellipse transform="matrix(0.7531 -0.6579 0.6579 0.7531 -1.6261 162.8983)" class="st11" cx="216.2" cy="83.6" rx="5.6" ry="4.9"/>
<ellipse transform="matrix(0.7531 -0.6579 0.6579 0.7531 -39.0632 107.5724)" class="st11" cx="123.8" cy="105.8" rx="5.6" ry="4.9"/>
<ellipse transform="matrix(0.7531 -0.6579 0.6579 0.7531 -13.996 136.9478)" class="st11" cx="175.5" cy="87.1" rx="5.6" ry="4.9"/>
<ellipse transform="matrix(0.7531 -0.6579 0.6579 0.7531 -21.7068 116.9131)" class="st11" cx="144.9" cy="87.4" rx="5.6" ry="4.9"/>
<ellipse transform="matrix(0.7531 -0.6579 0.6579 0.7531 -25.415 121.7578)" class="st10" cx="149.5" cy="94.7" rx="6.2" ry="6.7"/>
<ellipse transform="matrix(0.7531 -0.6579 0.6579 0.7531 -31.6508 91.546)" class="st10" cx="106.1" cy="87.9" rx="12.1" ry="8.9"/>
<path class="st12" d="M114.9,61.6c0.8,1.5,1.9,3,3.5,3.6c1.3,0.5,2.8,0.3,4.2,0.2c0,0,0,0,0,0c1-0.1,1-1.6,0-1.7
	c-0.7-0.1-1.5-0.2-2.4-0.7c-0.9-0.5-1.9-1.3-2-2.4c-0.1-1.8-0.2-2.9-0.7-3.9c-0.5-1.2-2.3-1.3-3.3-0.1c-0.6,0.7-0.7,1.7-0.5,2.6
	C114,60,114.4,60.8,114.9,61.6z"/>
<path class="st12" d="M26.5,67.9c-1.3,2-2.6,4.2-2.4,6.5c0.1,2,1.3,3.7,2.4,5.4c0,0,0,0,0,0c0.8,1.2,2.6,0.3,2.2-1
	c-0.3-1-0.7-2-0.6-3.5c0.1-1.5,0.5-3.2,1.8-3.9c2.2-1.3,3.5-2.1,4.4-3.2c1.2-1.3,0.2-3.7-1.8-4.2c-1.2-0.3-2.6,0.2-3.6,1
	S27.2,66.9,26.5,67.9z"/>
<path class="st12" d="M184.1,112.7c0.3-2.4,0.3-4.9-0.9-6.9c-1-1.7-2.9-2.7-4.6-3.6c0,0,0,0,0,0c-1.2-0.7-2.4,0.9-1.5,1.9
	c0.7,0.7,1.6,1.5,2.1,2.8c0.6,1.4,1,3.1,0.2,4.4c-1.3,2.2-2.1,3.5-2.4,4.9c-0.4,1.7,1.6,3.4,3.6,2.8c1.2-0.3,2.2-1.4,2.7-2.5
	C183.8,115.2,184,113.9,184.1,112.7z"/>
<path class="st13" d="M85.5,25.2c-5.1-1.4-10.7-2.4-15.6-0.3c-4.1,1.8-6.9,5.4-9.6,8.9c0,0,0,0.1-0.1,0.1c-1.9,2.5,1.2,5.7,3.8,3.9
	c1.9-1.3,3.8-2.9,6.9-3.8c3.3-0.9,7.2-1.3,9.7,1c4.4,3.7,7,5.9,10,7.1c3.7,1.5,8-2.3,7.5-6.9c-0.3-2.8-2.3-5.3-4.7-6.9
	C91,26.7,88.3,25.9,85.5,25.2z"/>
<path class="st13" d="M159.2,37.5c-4.2-1.1-8.7-2-12.7-0.3c-3.3,1.4-5.7,4.4-7.9,7.3c0,0,0,0-0.1,0.1c-1.5,2,1,4.7,3.1,3.2
	c1.5-1.1,3.1-2.4,5.7-3.1c2.7-0.7,5.9-1,7.9,0.8c3.6,3,5.7,4.8,8.1,5.8c3,1.2,6.5-1.9,6.1-5.6c-0.3-2.3-1.9-4.3-3.8-5.6
	C163.7,38.8,161.4,38.1,159.2,37.5z"/>
<path class="st13" d="M117.9,20c-2.4,1.9-4.8,4.1-5.5,7.1c-0.6,2.5,0.1,5.1,0.8,7.5c0,0,0,0,0,0.1c0.5,1.7,3.1,1.4,3.1-0.4
	c0-1.3,0-2.8,0.7-4.5c0.7-1.8,1.9-3.8,3.8-4.1c3.2-0.7,5.1-1.2,6.7-2.2c1.9-1.2,1.7-4.5-0.6-5.8c-1.4-0.8-3.2-0.8-4.8-0.2
	S119.2,19,117.9,20z"/>
<path class="st13" d="M39,13.5c-2.4,1.9-4.8,4.1-5.5,7.1c-0.6,2.5,0.1,5.1,0.8,7.5c0,0,0,0,0,0.1c0.5,1.7,3.1,1.4,3.1-0.4
	c0-1.3,0-2.8,0.7-4.5c0.7-1.8,1.9-3.8,3.8-4.1c3.2-0.7,5.1-1.2,6.7-2.2c1.9-1.2,1.7-4.5-0.6-5.8c-1.4-0.8-3.2-0.8-4.8-0.2
	S40.3,12.5,39,13.5z"/>
<path class="st13" d="M75.8,118.3c2.7,1.3,5.8,2.6,8.8,1.9c2.5-0.5,4.5-2.3,6.5-4c0,0,0,0,0,0c1.3-1.2-0.1-3.4-1.7-2.6
	c-1.2,0.5-2.5,1.2-4.4,1.4c-2,0.1-4.2-0.1-5.4-1.7c-2.1-2.6-3.3-4.1-4.8-5.1c-1.9-1.2-4.8,0.4-5,3.1c-0.1,1.6,0.7,3.2,1.9,4.4
	C72.9,116.8,74.4,117.6,75.8,118.3z"/>
<path class="st13" d="M211.4,43.2c-0.4-3-1-6.3-3.2-8.4c-1.8-1.8-4.4-2.5-6.9-3.2c0,0,0,0-0.1,0c-1.7-0.5-2.8,1.9-1.3,2.9
	c1.1,0.7,2.4,1.4,3.5,2.9c1.2,1.6,2.2,3.6,1.6,5.4c-1,3.1-1.6,5-1.6,6.9c0,2.3,3,3.8,5.3,2.5c1.4-0.8,2.3-2.4,2.7-4
	C211.7,46.5,211.6,44.8,211.4,43.2z"/>
<ellipse transform="matrix(0.7531 -0.6579 0.6579 0.7531 -24.2274 102.6754)" class="st11" cx="124.7" cy="83.6" rx="17.7" ry="17.9"/>
<path class="st13" d="M116.1,73.7c-2.4,1.9-4.8,4.1-5.5,7.1c-0.6,2.5,0.1,5.1,0.8,7.5c0,0,0,0,0,0.1c0.5,1.7,3.1,1.4,3.1-0.4
	c0-1.3,0-2.8,0.7-4.5c0.7-1.8,1.9-3.8,3.8-4.1c3.2-0.7,5.1-1.2,6.7-2.2c1.9-1.2,1.7-4.5-0.6-5.8c-1.4-0.8-3.2-0.8-4.8-0.2
	S117.4,72.6,116.1,73.7z"/>
<rect x="132.7" y="231.5" class="st10" width="19.6" height="58.7"/>
<rect x="91.9" y="231.5" class="st10" width="19.2" height="58.7"/>
<rect x="132.7" y="120.4" class="st10" width="19.6" height="58.7"/>
<rect x="91.9" y="120.4" class="st10" width="19.2" height="58.7"/>
<ellipse class="st10" cx="149.2" cy="203.5" rx="10.9" ry="11.7"/>
</svg>
