<?xml version="1.0" encoding="utf-8"?>
<!-- Generator: Adobe Illustrator 19.1.0, SVG Export Plug-In . SVG Version: 6.00 Build 0)  -->
<svg version="1.1" xmlns="http://www.w3.org/2000/svg" xmlns:xlink="http://www.w3.org/1999/xlink" x="0px" y="0px"
	 viewBox="0 0 457.8 456.2" style="enable-background:new 0 0 457.8 456.2;" xml:space="preserve">
<style type="text/css">
	.st0{fill:#DBE691;stroke:#FFFFFF;stroke-miterlimit:10;}
	.st1{clip-path:url(#SVGID_2_);fill:#FBE1C1;}
	.st2{clip-path:url(#SVGID_2_);fill:#333333;}
	.st3{clip-path:url(#SVGID_2_);}
	.st4{fill:#333333;}
	.st5{fill:#EFAE9E;}
	.st6{fill:#847052;}
	.st7{clip-path:url(#SVGID_2_);fill:none;stroke:#000000;stroke-miterlimit:10;}
	.st8{clip-path:url(#SVGID_2_);fill:#847052;stroke:#333333;stroke-width:0.25;stroke-miterlimit:10;}
	.st9{clip-path:url(#SVGID_2_);fill:#797678;}
	.st10{clip-path:url(#SVGID_2_);fill:none;stroke:#F4F4F4;stroke-width:0.365;stroke-miterlimit:10;}
	.st11{clip-path:url(#SVGID_2_);fill:#F4F4F4;}
	.st12{clip-path:url(#SVGID_2_);fill:#EAEAEA;stroke:#333333;stroke-width:0.25;stroke-miterlimit:10;}
	.st13{clip-path:url(#SVGID_2_);fill:#FFFFFF;stroke:#000000;stroke-miterlimit:10;}
</style>
<g id="Layer_3">
	<circle class="st0" cx="229.6" cy="228.6" r="225"/>
	<g>
		<defs>
			<circle id="SVGID_1_" cx="229.6" cy="228.6" r="225"/>
		</defs>
		<clipPath id="SVGID_2_">
			<use xlink:href="#SVGID_1_"  style="overflow:visible;"/>
		</clipPath>
		<path class="st1" d="M161.5,186.7c-0.9,4.3-3.2,8.5-6.9,10.9c-1.6,1-3.4,1.7-5,2.7c-2.4,1.6-4.2,4-6.3,5.9
			c-2.4,2.2-5.3,3.8-8.1,5.2c-4.9,2.6-10.6,3.6-15.8,5.5c0-0.1,0-0.2,0-0.4c-0.2,0-0.4,0.1-0.6,0.1c0,0,0,0-0.1,0
			c-5.9,1.1-12-0.5-17.8,1c0.2,0.3,0.4,0.6,0.5,0.9c-6.7,0.5-13.6-0.2-19.7-2.9c-6.4-2.9-12-8.3-13.8-15.1c-3.7-2-4.6-6.5-5.1-10.6
			c-1.3-10.8-2.6-21.6-2.4-32.5c0.1-3.9,0.3-7.8,1.8-11.4c1.4-3.6,4.2-6.8,7.9-8c1.9-0.6,2.3-3.7,3.3-5.2c1.4-2.2,3.6-2.9,6-3.7
			c6.2-2.1,12.9-2.4,19.4-2.4c13.1,0,26.2,1.1,39.2,3.4c5.3,0.9,10.7,2.1,15.3,5c5.3,3.4,7.7,8.4,7.7,14.5c0,7.8,0.8,15.8,1.2,23.6
			C162.2,177.9,162.4,182.4,161.5,186.7z"/>
		<path class="st1" d="M112.7,217.2c6.1,0.6,12.4,0.4,18.1-1.8c2.8-1.1,5.4-2,7.8-3.7c5.5-3.9,11.5-8.3,13.2-14.9"/>
		
			<ellipse transform="matrix(0.9914 -0.1309 0.1309 0.9914 -21.5404 12.6735)" class="st2" cx="85.6" cy="170.1" rx="11.7" ry="11.5"/>
		<g class="st3">
			<path class="st4" d="M77.7,176.8c0,0-0.2,0-0.5,0c-0.3,0-0.9,0-1.5-0.1c-0.3,0-0.6-0.1-1-0.2c-0.4-0.1-0.7-0.3-1.1-0.4
				c-0.3-0.2-0.7-0.3-1.1-0.6c-0.4-0.2-0.7-0.5-1-0.7c-1.3-1-2.3-2.3-3-3.3c-0.7-1-1.1-1.7-1.1-1.7s0.4,0.7,1.2,1.6
				c0.7,0.9,1.8,2.1,3.1,3c0.3,0.2,0.7,0.4,1,0.6c0.3,0.2,0.7,0.3,1,0.5c0.3,0.1,0.7,0.2,1,0.3c0.3,0.1,0.6,0.1,0.9,0.1
				c0.3,0,0.5,0,0.8,0c0.2,0,0.4,0,0.6,0c0.3,0,0.5-0.1,0.5-0.1L77.7,176.8z"/>
		</g>
		<g class="st3">
			<path class="st4" d="M77.2,174.4c0,0-0.2,0-0.5,0c-0.3,0-0.9-0.1-1.5-0.3c-0.3-0.1-0.6-0.2-1-0.3c-0.3-0.1-0.7-0.3-1-0.5
				c-0.3-0.2-0.7-0.4-1-0.7c-0.3-0.2-0.6-0.5-0.9-0.8c-1.2-1.2-2-2.5-2.6-3.6c-0.6-1.1-0.9-1.8-0.9-1.8s0.4,0.7,1,1.7
				c0.6,1,1.6,2.3,2.8,3.3c0.3,0.2,0.6,0.5,0.9,0.7c0.3,0.2,0.6,0.4,1,0.6c0.3,0.1,0.6,0.3,1,0.4c0.3,0.1,0.6,0.2,0.9,0.2
				c0.3,0.1,0.5,0.1,0.7,0.1c0.2,0,0.4,0,0.6,0c0.3,0,0.5,0,0.5,0L77.2,174.4z"/>
		</g>
		<g class="st3">
			<path class="st4" d="M77,171.6c0,0-0.2,0-0.5-0.1c-0.3,0-0.9-0.2-1.5-0.4c-0.3-0.1-0.6-0.2-0.9-0.4c-0.3-0.1-0.6-0.4-1-0.6
				c-0.3-0.2-0.6-0.5-0.9-0.7c-0.3-0.3-0.6-0.6-0.9-0.9c-1.1-1.2-1.9-2.7-2.4-3.8c-0.5-1.1-0.8-1.9-0.8-1.9s0.3,0.7,0.9,1.8
				c0.6,1,1.5,2.4,2.6,3.5c0.3,0.3,0.6,0.5,0.9,0.8c0.3,0.2,0.6,0.4,0.9,0.6c0.3,0.2,0.6,0.3,0.9,0.4c0.3,0.1,0.6,0.2,0.9,0.3
				c0.3,0.1,0.5,0.1,0.7,0.2c0.2,0,0.4,0.1,0.6,0.1c0.3,0,0.5,0,0.5,0L77,171.6z"/>
		</g>
		<g class="st3">
			<path class="st4" d="M78,171.1c0,0-0.2-0.1-0.5-0.2c-0.2,0-0.4-0.2-0.7-0.3c-0.3-0.1-0.5-0.3-0.8-0.5c-0.6-0.4-1.1-0.9-1.7-1.5
				c-0.5-0.6-1-1.3-1.5-2c-0.9-1.4-1.7-2.9-2.2-4c-0.6-1.1-0.9-1.9-0.9-1.9s0.4,0.7,1.1,1.8c0.6,1.1,1.5,2.5,2.5,3.8
				c0.5,0.6,1,1.3,1.6,1.8c0.6,0.5,1.1,0.9,1.6,1.2c0.3,0.1,0.5,0.3,0.7,0.3c0.2,0.1,0.4,0.2,0.6,0.2c0.4,0.1,0.6,0.1,0.6,0.1
				L78,171.1z"/>
		</g>
		<g class="st3">
			<path class="st4" d="M81.1,169.8c0,0-0.2-0.1-0.5-0.2c-0.2,0-0.4-0.2-0.7-0.3c-0.3-0.1-0.5-0.3-0.8-0.5c-0.6-0.4-1.1-0.9-1.7-1.5
				c-0.5-0.6-1-1.3-1.5-2c-0.9-1.4-1.7-2.9-2.2-4c-0.6-1.1-0.9-1.9-0.9-1.9s0.4,0.7,1.1,1.8c0.6,1.1,1.5,2.5,2.5,3.8
				c0.5,0.6,1,1.3,1.6,1.8c0.6,0.5,1.1,0.9,1.6,1.2c0.3,0.1,0.5,0.3,0.7,0.3c0.2,0.1,0.4,0.2,0.6,0.2c0.4,0.1,0.6,0.1,0.6,0.1
				L81.1,169.8z"/>
		</g>
		<g class="st3">
			<path class="st4" d="M84.1,168.4c0,0-0.2-0.1-0.5-0.2c-0.2,0-0.4-0.2-0.7-0.3c-0.3-0.1-0.5-0.3-0.8-0.5c-0.6-0.4-1.1-0.9-1.7-1.5
				c-0.5-0.6-1-1.3-1.5-2c-0.9-1.4-1.7-2.9-2.2-4c-0.6-1.1-0.9-1.9-0.9-1.9s0.4,0.7,1.1,1.8c0.6,1.1,1.5,2.5,2.5,3.8
				c0.5,0.6,1,1.3,1.6,1.8c0.6,0.5,1.1,0.9,1.6,1.2c0.3,0.1,0.5,0.3,0.7,0.3c0.2,0.1,0.4,0.2,0.6,0.2c0.4,0.1,0.6,0.1,0.6,0.1
				L84.1,168.4z"/>
		</g>
		
			<ellipse transform="matrix(-0.9914 0.1309 -0.1309 -0.9914 274.2093 313.7342)" class="st2" cx="126.8" cy="165.9" rx="11.7" ry="11.5"/>
		<g class="st3">
			<path class="st5" d="M102.5,205.8c0,0,0.3-0.1,0.9-0.3c0.6-0.1,1.4-0.4,2.3-0.6c0.9-0.2,2-0.5,3.1-0.9c0.5-0.2,1.1-0.4,1.6-0.7
				c0.5-0.3,1.1-0.5,1.5-0.9c0.2-0.1,0.5-0.4,0.7-0.5c0.2-0.2,0.4-0.4,0.7-0.6c0.4-0.4,0.9-0.8,1.2-1.3c0.7-0.9,1.4-1.8,1.9-2.6
				c0.6-0.8,1-1.5,1.3-2c0.3-0.5,0.5-0.7,0.5-0.7s0,0.3-0.2,0.9c-0.1,0.6-0.3,1.4-0.7,2.3c-0.3,0.9-0.8,2-1.6,3.1
				c-0.4,0.5-0.8,1.1-1.3,1.6c-0.2,0.2-0.5,0.5-0.8,0.7c-0.3,0.3-0.5,0.4-0.8,0.6c-0.6,0.4-1.2,0.7-1.9,1c-0.6,0.3-1.3,0.4-1.9,0.6
				c-1.3,0.3-2.5,0.3-3.5,0.3c-1,0-1.8-0.1-2.4-0.2C102.8,205.8,102.5,205.8,102.5,205.8z"/>
		</g>
		<g class="st3">
			<path class="st6" d="M71,154.3c0,0,0.1-0.2,0.4-0.6c0.3-0.4,0.7-1,1.3-1.6c0.3-0.3,0.6-0.6,1-0.9c0.4-0.3,0.8-0.6,1.3-0.9
				c0.9-0.5,2-1,3.1-1.4c1.1-0.4,2.2-0.6,3.2-0.8c1.1-0.1,2-0.2,2.9-0.2c1.7,0,2.8,0.2,2.8,0.2l0,0.1c0,0-0.3,0.1-0.8,0.2
				c-0.5,0.1-1.2,0.2-2,0.3c-0.8,0.1-1.8,0.2-2.8,0.4c-1,0.1-2.1,0.3-3.2,0.5c-1.1,0.3-2.1,0.6-3,1.1c-0.4,0.2-0.9,0.5-1.3,0.7
				c-0.4,0.3-0.8,0.5-1.1,0.8c-0.6,0.5-1.1,1-1.4,1.4C71.2,154.1,71.1,154.3,71,154.3L71,154.3z"/>
		</g>
		<g class="st3">
			<path class="st6" d="M138.2,150.8c0,0-0.2-0.2-0.6-0.4c-0.4-0.3-1-0.6-1.7-1c-0.4-0.2-0.8-0.3-1.2-0.5c-0.4-0.1-0.9-0.3-1.4-0.4
				c-1-0.2-2.1-0.3-3.2-0.3c-1.1,0-2.2,0.2-3.2,0.3c-1,0.1-2,0.2-2.8,0.3c-0.8,0.1-1.5,0.2-2,0.2c-0.5,0-0.8,0-0.8,0l0-0.1
				c0,0,1-0.5,2.7-0.9c0.8-0.2,1.8-0.4,2.8-0.6c1.1-0.1,2.2-0.1,3.3-0.1c1.1,0.1,2.3,0.2,3.3,0.5c0.5,0.1,1,0.3,1.5,0.5
				c0.5,0.2,0.9,0.4,1.2,0.6c0.7,0.4,1.3,0.8,1.7,1.2C138.1,150.5,138.3,150.7,138.2,150.8L138.2,150.8z"/>
		</g>
		<path class="st2" d="M89.8,331.9c3.8,0.3,7.5-0.7,11.3-0.4c3.2,0.2,7.1,0.1,10.4,0.7c-0.2,19.6-1.9,39.1-2.8,58.6
			c-0.5,9.6,0.1,19.4-0.5,29c-0.2,3-0.4,11.9-2.8,13.6c-1.6,1.2-2.9,1.2-4.7,0.5c-0.9-0.3-1.4-1.1-1.5-2.1
			c-1.7-23.2-5.7-47.7-7.3-70.9c-0.8-10.9-3.1-23-1.6-33.8c1.7-11.6,3.1-23.2,4.2-34.9c12.6,1.6,25.9,3.2,37.4-2.1"/>
		<path class="st2" d="M136.3,331.9c-3.8,0.3-7.5-0.7-11.3-0.4c-3.2,0.2-7.1-1.7-10.4-1.2c0.2,19.6,1.9,41,2.8,60.5
			c0.5,9.6-0.1,19.4,0.5,29c0.2,3,0.4,11.9,2.8,13.6c1.6,1.2,2.9,1.2,4.7,0.5c0.9-0.3,1.4-1.1,1.5-2.1c1.7-23.2,5.7-47.7,7.3-70.9"
			/>
		<path class="st7" d="M100.8,228.7"/>
		<path class="st1" d="M118.7,216.8C118.7,216.8,118.6,216.8,118.7,216.8c-0.1-0.3-0.1-0.6-0.1-0.8L118.7,216.8z"/>
		<path class="st1" d="M57.7,182.2c-2.1-0.1-5.3,2.1-5.7,4.1c-0.5,2,0,4.1,0.5,6.1c0.5,2,1,4.1,2.2,5.9c2.4,3.9,7.7,5.7,12.1,4.1
			c0.6-0.2,1.3-0.4,2-0.5"/>
		<path class="st8" d="M160.3,106.4c6,1.8,10.6,7.3,12.3,13.3c1.5,5.4,1.3,5.4,1.5,10.8c0,0.6,0,1.8,0,2.3c0,0.4-0.1,2.6-0.2,3.5
			c-0.4,5.2-0.7,8.4-1,13.6c-0.2,2.7-0.4,5.3-0.6,8c-0.3,3.5-0.3,1.9-0.7,4.9c-0.1,0.5-0.5,2.2-0.6,3.1c-0.1,0.5-0.4,1.8-0.4,1.9
			c-0.2,1.1-0.7,2.7-1.3,3.8c-1.7,3.4-1.7,3.4-3.3,5.8c-1.8,2.8-2.6,3.4-5.2,5.5c-0.6,0.5-1.1,1.5-2.3,2.3c-0.6-4-0.8-8.1-0.2-12.1
			c0.5-3.3,1.6-6.5,2-9.9c0.8-6.6-1.2-13.2-4.4-19c-2.6-4.6-6.2-9.2-6-14.5"/>
		<path class="st1" d="M119.6,225.7C119.5,225.7,119.5,225.7,119.6,225.7C119.5,225.6,119.5,225.6,119.6,225.7
			C119.5,225.6,119.5,225.7,119.6,225.7z"/>
		<path class="st1" d="M163,330.9c0,0-1.5-2.1-1.5-2.1c-1.6-3.3-2.5-5.8-3.6-8.7c-8.4-23-16.3-49-23.9-73.9
			c-0.6-1.9-2.4-3.4-4.4-4.2l0,49.6c-12.4,7.1-33.7,2-33.7,2l-4.4-49c-1.4,0.5-2.7,1.5-3,2.9c-7.6,24.8-9.2,52.4-17.6,75.4
			c-1.1,2.9-2,5.3-3.6,8.7c0,0-1.5,2.1-1.5,2.1c-2.8,3.6-4.7,0.5-3.3-3.8c5.2-16.7,7.3-33.8,9.8-51.1c2.5-17.2,4.3-34.7,17.4-47.3
			c1-0.9,2.5-1.4,3.8-1.6c1.3-0.2,2.4-0.6,3.7-0.6c1,0,2.6-0.2,3.6-0.7c0.3-0.1,0.6-0.4,0.8-0.6c0.3-0.3,0.6-0.5,1-0.8c0,0,0,0,0,0
			c0-0.1,0-0.1,0-0.2c0-3-0.4-6.4-1.3-8.3c-0.2-0.4-0.3-0.7-0.5-0.9c5.8-1.5,11.9,0,17.8-1c0,0,0,0,0.1,0c0.2,0,0.4-0.1,0.6-0.1
			c0,0.1,0,0.2,0,0.4c0,1.1-0.1,2.4,0,3.8v0.1c0,0.4,0.1,0.9,0.1,1.3v0c0.2,1.3,0.6,2.7,1.3,4.4c0.1,0.1,0.2,0.2,0.3,0.2
			c0.2,0.2,0.5,0.4,0.8,0.6c1,0.5,2.3,0.4,3.3,0.3c1.3,0,2.7,0,4,0.2c1.3,0.2,2.5,0.9,3.5,1.8c13,12.5,15.1,30.5,17.7,47.8
			c2.6,17.3,10.9,32.9,16.1,49.5C167.7,331.4,165.8,334.5,163,330.9z"/>
		<path class="st1" d="M150.7,199c7.1,0,14.2-3.5,18.4-9.3c1.8-2.4,3.1-5.4,2.3-8.3c-0.2-0.8-0.6-1.6-1.3-2.1
			c-1-0.8-2.4-0.9-3.6-0.5c-1.2,0.4-2.2,1.2-3.2,2c-2.5,2.2-4.8,4.7-6.6,7.5"/>
		<circle class="st2" cx="156.7" cy="194.6" r="2"/>
		<circle class="st2" cx="63" cy="199.3" r="2"/>
		<g class="st3">
			<path class="st4" d="M135.1,170.8c0,0,0.2,0,0.5,0.1c0.2,0,0.4,0,0.6,0c0.2,0,0.5,0,0.8,0c0.3,0,0.6-0.1,0.9-0.1
				c0.3,0,0.6-0.2,1-0.3c0.3-0.1,0.7-0.3,1-0.5c0.3-0.2,0.7-0.4,1-0.6c1.3-0.9,2.4-2.1,3.1-3c0.8-0.9,1.2-1.6,1.2-1.6
				s-0.4,0.7-1.1,1.7c-0.7,1-1.7,2.3-3,3.3c-0.3,0.2-0.6,0.5-1,0.7c-0.3,0.2-0.7,0.4-1.1,0.6c-0.4,0.1-0.7,0.3-1.1,0.4
				c-0.3,0.1-0.7,0.2-1,0.2c-0.6,0.1-1.2,0.1-1.5,0.1c-0.3,0-0.5,0-0.5,0L135.1,170.8z"/>
		</g>
		<g class="st3">
			<path class="st4" d="M135.4,168.4c0,0,0.2,0,0.5,0c0.2,0,0.4,0,0.6,0c0.2,0,0.5,0,0.7-0.1c0.3,0,0.6-0.1,0.9-0.2
				c0.3-0.1,0.6-0.2,1-0.4c0.3-0.2,0.6-0.3,1-0.6c0.3-0.2,0.6-0.5,0.9-0.7c1.2-1,2.2-2.3,2.8-3.3c0.6-1,1-1.7,1-1.7
				s-0.3,0.7-0.9,1.8c-0.6,1.1-1.4,2.4-2.6,3.6c-0.3,0.3-0.6,0.6-0.9,0.8c-0.3,0.3-0.7,0.5-1,0.7c-0.3,0.2-0.7,0.4-1,0.5
				c-0.3,0.1-0.7,0.3-1,0.3c-0.6,0.2-1.2,0.3-1.5,0.3c-0.3,0-0.5,0-0.5,0L135.4,168.4z"/>
		</g>
		<g class="st3">
			<path class="st4" d="M135.6,165.6c0,0,0.2,0,0.5,0c0.2,0,0.4,0,0.6-0.1c0.2,0,0.5-0.1,0.7-0.2c0.3-0.1,0.6-0.2,0.9-0.3
				c0.3-0.1,0.6-0.3,0.9-0.4c0.3-0.2,0.6-0.4,0.9-0.6c0.3-0.2,0.6-0.5,0.9-0.8c1.1-1.1,2-2.4,2.6-3.5c0.6-1,0.9-1.8,0.9-1.8
				s-0.3,0.8-0.8,1.9c-0.5,1.1-1.3,2.5-2.4,3.8c-0.3,0.3-0.6,0.6-0.9,0.9c-0.3,0.3-0.6,0.5-0.9,0.7c-0.3,0.2-0.6,0.4-1,0.6
				c-0.3,0.2-0.6,0.3-0.9,0.4c-0.6,0.2-1.2,0.3-1.5,0.4c-0.3,0-0.5,0.1-0.5,0.1L135.6,165.6z"/>
		</g>
		<g class="st3">
			<path class="st4" d="M134.4,165.2c0,0,0.2,0,0.6-0.1c0.2,0,0.4-0.1,0.6-0.2c0.2-0.1,0.4-0.2,0.7-0.3c0.5-0.3,1.1-0.7,1.6-1.2
				c0.6-0.5,1.1-1.1,1.6-1.8c1-1.3,1.9-2.7,2.5-3.8c0.6-1.1,1.1-1.8,1.1-1.8s-0.4,0.7-0.9,1.9c-0.6,1.1-1.3,2.6-2.2,4
				c-0.5,0.7-1,1.4-1.5,2c-0.5,0.6-1.1,1.1-1.7,1.5c-0.3,0.2-0.5,0.3-0.8,0.5c-0.3,0.1-0.5,0.2-0.7,0.3c-0.3,0.1-0.5,0.2-0.5,0.2
				L134.4,165.2z"/>
		</g>
		<g class="st3">
			<path class="st4" d="M131.3,163.8c0,0,0.2,0,0.6-0.1c0.2,0,0.4-0.1,0.6-0.2c0.2-0.1,0.4-0.2,0.7-0.3c0.5-0.3,1.1-0.7,1.6-1.2
				c0.6-0.5,1.1-1.1,1.6-1.8c1-1.3,1.9-2.7,2.5-3.8c0.6-1.1,1.1-1.8,1.1-1.8s-0.4,0.7-0.9,1.9c-0.6,1.1-1.3,2.6-2.2,4
				c-0.5,0.7-1,1.4-1.5,2c-0.5,0.6-1.1,1.1-1.7,1.5c-0.3,0.2-0.5,0.3-0.8,0.5c-0.3,0.1-0.5,0.2-0.7,0.3c-0.3,0.1-0.5,0.2-0.5,0.2
				L131.3,163.8z"/>
		</g>
		<g class="st3">
			<path class="st4" d="M128.3,162.4c0,0,0.2,0,0.6-0.1c0.2,0,0.4-0.1,0.6-0.2c0.2-0.1,0.4-0.2,0.7-0.3c0.5-0.3,1.1-0.7,1.6-1.2
				c0.6-0.5,1.1-1.1,1.6-1.8c1-1.3,1.9-2.7,2.5-3.8c0.6-1.1,1.1-1.8,1.1-1.8s-0.4,0.7-0.9,1.9c-0.6,1.1-1.3,2.6-2.2,4
				c-0.5,0.7-1,1.4-1.5,2c-0.5,0.6-1.1,1.1-1.7,1.5c-0.3,0.2-0.5,0.3-0.8,0.5c-0.3,0.1-0.5,0.2-0.7,0.3c-0.3,0.1-0.5,0.2-0.5,0.2
				L128.3,162.4z"/>
		</g>
		<path class="st7" d="M101.1,229.9"/>
		<path class="st1" d="M119.6,225.7C119.5,225.7,119.5,225.7,119.6,225.7C119.5,225.6,119.5,225.6,119.6,225.7
			C119.5,225.6,119.5,225.7,119.6,225.7z"/>
		<path class="st1" d="M119.6,225.7C119.5,225.7,119.5,225.7,119.6,225.7C119.5,225.6,119.5,225.6,119.6,225.7
			C119.5,225.6,119.5,225.7,119.6,225.7z"/>
		<path class="st9" d="M122.3,227.7c9.4-1.9,13.4,2.8,18.5,8.9c8.3,10,11.5,23.2,14.4,36c3.6,15.7,7.2,31.3,10.7,47
			c-2.9,0.4-5.9,0.8-8.8,1.1c-6.4-11-10.5-23.2-14.5-35.3c-3.7-11.1-7.4-22.2-11.2-33.3c-1.5,14.3-2.2,28.2,2.9,41.7
			c4.4,11.6,5.8,22.5,7.7,34.8c0.2,1.1,0.3,2.3-0.5,3.1c-0.6,0.5-1.4,0.7-2.2,0.7c-15.6,1.2-24.5,2.5-40.1,3.7
			c-5.9,0.5-6.1,0.9-12,0.9c-0.8,0-1.6,0-2.2-0.5c-0.8-0.7-0.9-1.9-0.8-3c0.8-12.4,3.4-24.6,6.7-36.6c3.8-13.9,2.9-28.3,0.1-42.4
			c-2.7,11.4-5.4,22.8-8,34.1c-2.9,12.4-5.9,24.9-11.2,36.4c-3-0.1-5.9-0.2-8.9-0.3c2.1-15.9,4.2-31.8,6.4-47.7
			c1.7-12.9,3.6-26.4,11-37.1c4.5-6.6,12-12.1,19.9-10.8c1,1.8,3,3.2,4.9,3.8s4,0.7,6,0.7c2.3,0,4.6-0.1,6.8-0.7
			c2.2-0.7,3.6-3,4.6-5.1"/>
		<path class="st10" d="M101.7,257.2c-0.4,0-0.7,0-1.1,0.1c-0.4,0.1-0.8,0.3-1.2,0.5c-0.6,0.3-1.2,0.5-1.8,0.8
			c1.4,0.9,2.1,2.7,3.6,3.4c0.8,0.4,1.8,0.5,2.7,0.3c0.9-0.1,1.8-0.5,2.7-0.7c0-0.9-0.6-1.7-1.1-2.5c-0.4-0.5-0.8-1.1-1.3-1.4
			C103.5,257.2,102.6,257.2,101.7,257.2z"/>
		<path class="st10" d="M99.5,257.7c-0.2,0-0.5,0.1-0.7,0c-0.1,0-0.1-0.1-0.2-0.1c-0.1-0.1-0.3-0.2-0.4-0.4"/>
		<path class="st10" d="M100.6,257.3c-0.1,0-0.4,0-0.5,0c-0.2,0-0.3-0.1-0.5-0.2c-0.1-0.1-0.3-0.2-0.3-0.4"/>
		<path class="st10" d="M98.4,258.2c-0.2,0-0.7,0.1-0.9,0.1c-0.2,0-0.5-0.1-0.7-0.3"/>
		
			<ellipse transform="matrix(0.9991 -4.275864e-02 4.275864e-02 0.9991 -11.0156 4.636)" class="st10" cx="102.9" cy="259.8" rx="2.4" ry="2.5"/>
		<path class="st11" d="M103.2,258.9c0-0.3,0-0.3,0-0.6c0-0.2,0-0.5,0-0.7c0,0,0-0.1,0-0.1c0,0-0.1,0-0.1-0.1c-0.1,0-0.3,0-0.4,0
			l-0.1,0c0.1,0.2,0,0.5-0.1,0.7c-0.2,0.9-0.2,1.8-0.2,2.7c0,0.4,0,0.9,0.3,1.3c0,0.1,0.1,0.1,0.1,0.2c0.1,0.1,0.2,0.1,0.4,0.1
			c0.1,0,0.1,0,0.2,0c0.1,0,0.1-0.1,0.1-0.2c0,0,0-0.1,0-0.1c-0.1-0.2-0.1-0.3-0.1-0.5C103.3,260.6,103.2,259.8,103.2,258.9"/>
		<path class="st10" d="M122.2,257.2c0.4,0,0.7-0.1,1.1,0c0.4,0.1,0.8,0.2,1.2,0.4c0.6,0.2,1.2,0.4,1.8,0.6c-1.4,1-1.9,2.9-3.3,3.7
			c-0.8,0.5-1.7,0.6-2.7,0.5c-0.9-0.1-1.8-0.3-2.7-0.5c-0.1-0.9,0.4-1.8,0.9-2.6c0.3-0.6,0.7-1.1,1.2-1.5
			C120.4,257.3,121.3,257.3,122.2,257.2z"/>
		<path class="st10" d="M124.5,257.6c0.2,0,0.5,0.1,0.7,0c0.1,0,0.1-0.1,0.2-0.1c0.1-0.1,0.2-0.3,0.4-0.4"/>
		<path class="st10" d="M123.3,257.2c0.1,0,0.4-0.1,0.5-0.1c0.2-0.1,0.3-0.1,0.4-0.2s0.2-0.3,0.3-0.4"/>
		<path class="st10" d="M125.6,258c0.2,0,0.7,0.1,0.9,0c0.2,0,0.5-0.1,0.6-0.3"/>
		
			<ellipse transform="matrix(-0.9991 4.275864e-02 -4.275864e-02 -0.9991 253.5349 514.4318)" class="st10" cx="121.3" cy="259.9" rx="2.4" ry="2.5"/>
		<path class="st11" d="M120.9,259.1c0-0.3,0-0.3-0.1-0.6c0-0.2,0-0.5-0.1-0.7c0,0,0-0.1,0-0.1c0,0,0.1-0.1,0.1-0.1
			c0.1,0,0.3-0.1,0.4-0.1l0.1,0c0,0.2,0,0.5,0.1,0.7c0.3,0.8,0.3,1.7,0.4,2.6c0,0.4,0,0.9-0.1,1.3c0,0.1-0.1,0.1-0.1,0.2
			c-0.1,0.1-0.2,0.1-0.3,0.1c-0.1,0-0.1,0-0.2,0c-0.1,0-0.1-0.1-0.1-0.1c0,0,0-0.1,0-0.1c0.1-0.2,0-0.4,0-0.5
			C120.9,260.7,120.9,259.9,120.9,259.1"/>
		<path class="st10" d="M100.5,265.9c-0.7-0.6-1.7-0.8-2.6-1.1c-0.7-0.2-1.3-0.4-2-0.5"/>
		<path class="st10" d="M100.2,267.4c-0.4,0-0.8-0.3-1.3-0.3c-0.3-0.1-0.6,0-1,0.1c-0.7,0.2-1.4,0.4-2,0.7"/>
		<path class="st10" d="M100.9,269.2c-0.9-0.1-1.7,0.3-2.5,0.8c-0.8,0.5-1.5,1.2-2.1,2"/>
		<path class="st10" d="M122.9,266.2c0.6-0.3,1.1-0.7,1.7-1c0.2-0.1,0.5-0.3,0.8-0.4c0.3-0.1,0.6-0.1,0.9-0.1c0.7,0,1.4-0.1,2.1-0.1
			"/>
		<path class="st10" d="M123.4,267.9c0.6-0.1,1.1-0.2,1.7-0.2c1.2,0,2.4,0.3,3.5,0.6"/>
		<path class="st10" d="M123.3,269.7c0.6,0.1,1.1,0.2,1.7,0.4c0.2,0.1,0.4,0.1,0.5,0.2c0.2,0.1,0.3,0.4,0.5,0.5
			c0.6,0.6,1.5,0.9,1.9,1.7"/>
		<path class="st10" d="M113.6,264.3c0.3,0,0.6,0,0.8,0.1c0.3,0.1,0.5,0.3,0.5,0.6c0,0.3-0.2,0.6-0.5,0.9c-0.2,0.2-0.4,0.4-0.6,0.6
			c-0.2,0.2-0.5,0.5-0.9,0.5c-0.3,0-0.5-0.3-0.7-0.5c-0.3-0.3-0.5-0.7-0.8-1.1c-0.1-0.2-0.2-0.4-0.2-0.6c0.1-0.3,0.4-0.3,0.7-0.3
			C112.6,264.3,113.1,264.3,113.6,264.3z"/>
		<path class="st10" d="M115.8,271.9c-0.1-0.2-0.2-0.3-0.3-0.4c-0.4-0.4-0.8-0.7-1.2-1c-1.1-0.8-2.5,0.8-3,1.8"/>
		<line class="st10" x1="113.3" y1="266.8" x2="113.4" y2="270.2"/>
		<path class="st11" d="M71.7,325.4l-8.9-0.3c0,0-1.9-2.5,0.7-5.1l10.1,1.2C73.6,321.2,73.6,323.6,71.7,325.4z"/>
		<path class="st11" d="M156.8,320.8l9-0.7c0,0,1.8-2.6-0.9-5.1l-10.2,1.6C154.8,316.6,154.9,319,156.8,320.8z"/>
		<path class="st11" d="M127.6,227.4c0,0-4.7,13.8-14.7,11.4c-0.4-0.1-0.8-1.3-1.1-1.5c-0.3,0.3-0.8,1.5-1.4,1.6
			c-10,2.5-15.2-9.7-15.2-9.7c1.7-0.5,4.9-0.2,4.9-0.2c3.9,5.7,11.6,4.5,11.6,4.5s6.8-0.1,10.7-5.8
			C122.3,227.6,125.9,226.9,127.6,227.4z"/>
		<path class="st12" d="M169,114.6c0.1-1.9-0.2-3.7-1-5.5c-2.8-6.6-9.2-10.3-15.6-13.4c-6.3-3.1-13-5.3-19.9-6.5
			c-0.5-0.1-1-0.2-1.5-0.3c-6-1.1-13.5-1-23.2-0.5c-3.1,0.2-8.1,1-11.1,1.9C76.4,96.5,13.7,122.7,67,206.1c-0.3-9.1,0-18.4,0.9-27.5
			c0.5-5.3,1-10.6,1.9-15.8c0.7-4.4,1.3-10.4,3.4-14.3c2-3.8,6.6-4.5,10-6.9c4.1-2.9,8.6-5.2,13.5-6.3c1.4-0.3,2.9-0.4,4.3-0.5
			c7.6-0.1,15.2,0.5,22.8,1.2c7.4,0.7,15,1.5,22,4c3.3,1.2,6.3,4,9.4,5c3.2,1,4.5-4.5,5.5-7.1c2.6-7,6.7-14.7,8.1-22.1
			C168.9,115.5,169,115,169,114.6z"/>
		<g class="st3">
			<path class="st4" d="M168.2,118c0,0-0.2-0.3-0.6-0.9c-0.4-0.6-0.9-1.4-1.7-2.4c-1.5-2-3.9-4.7-7.2-7.4c-3.3-2.7-7.7-5.4-12.7-7.4
				c-5-2.1-10.6-3.5-16.3-4.3c-2.9-0.4-5.7-0.6-8.5-0.7c-2.8-0.1-5.6,0.1-8.3,0.2c-2.7,0.2-5.3,0.5-7.7,0.9
				c-2.4,0.4-4.7,0.8-6.8,1.3c-2.1,0.5-4,0.9-5.7,1.4c-1.7,0.5-3.2,0.9-4.4,1.2c-2.4,0.7-3.8,1.2-3.8,1.2s1.4-0.4,3.8-1.2
				c1.2-0.4,2.7-0.8,4.4-1.2c1.7-0.4,3.6-0.9,5.7-1.4c2.1-0.5,4.4-0.9,6.8-1.3c2.4-0.4,5-0.7,7.7-0.9c2.7-0.2,5.5-0.3,8.3-0.3
				c2.8,0.1,5.7,0.2,8.6,0.6c5.7,0.7,11.3,2.2,16.3,4.3c5,2,9.4,4.7,12.7,7.4c3.4,2.7,5.8,5.4,7.3,7.5c0.8,1,1.3,1.8,1.7,2.4
				c0.4,0.6,0.6,0.9,0.6,0.9L168.2,118z"/>
		</g>
		<g class="st3">
			<path class="st4" d="M166.6,123.3c0,0-0.2-0.3-0.6-0.9c-0.4-0.6-1-1.4-1.8-2.3c-1.6-2-4-4.6-7.5-7.3c-3.4-2.6-7.8-5.2-12.9-7.2
				c-5-2-10.7-3.4-16.4-4c-2.9-0.3-5.8-0.4-8.6-0.4c-2.8,0.1-5.6,0.2-8.3,0.5c-2.7,0.3-5.3,0.7-7.7,1.2c-2.4,0.5-4.7,1-6.8,1.5
				c-2.1,0.5-4,1.1-5.7,1.6c-1.7,0.5-3.1,1-4.3,1.4c-2.4,0.8-3.8,1.3-3.8,1.3s1.4-0.5,3.8-1.3c1.2-0.4,2.7-0.9,4.3-1.4
				c1.7-0.5,3.6-1.1,5.7-1.6c2.1-0.5,4.4-1.1,6.8-1.5c2.4-0.5,5-0.9,7.7-1.2c2.7-0.3,5.5-0.5,8.3-0.6c2.8,0,5.7,0.1,8.6,0.4
				c5.8,0.6,11.4,1.9,16.5,3.9c5.1,2,9.5,4.5,12.9,7.2c3.5,2.6,5.9,5.3,7.5,7.3c0.8,1,1.4,1.8,1.8,2.3c0.4,0.6,0.6,0.9,0.6,0.9
				L166.6,123.3z"/>
		</g>
		<g class="st3">
			<path class="st4" d="M164.5,128.3c0,0-0.2-0.3-0.6-0.8c-0.4-0.5-1-1.4-1.8-2.3c-0.4-0.5-0.8-1-1.4-1.6c-0.5-0.6-1.1-1.1-1.7-1.8
				c-0.6-0.6-1.3-1.2-2.1-1.9c-0.8-0.6-1.6-1.3-2.4-2c-1.7-1.3-3.7-2.6-5.9-3.8c-2.2-1.2-4.5-2.3-7.1-3.4c-2.5-1-5.2-1.8-8-2.5
				c-2.8-0.6-5.6-1.1-8.5-1.4c-2.9-0.3-5.8-0.4-8.6-0.3c-2.9,0.1-5.7,0.3-8.4,0.6c-2.7,0.3-5.3,0.7-7.7,1.3c-2.4,0.5-4.7,1-6.8,1.6
				c-2.1,0.6-4,1.1-5.7,1.6c-1.7,0.5-3.1,1-4.3,1.4c-2.4,0.8-3.8,1.3-3.8,1.3s1.4-0.5,3.8-1.3c1.2-0.4,2.7-0.9,4.3-1.4
				c1.7-0.5,3.6-1.1,5.7-1.7c2.1-0.5,4.4-1.1,6.8-1.6c2.4-0.5,5-0.9,7.7-1.3c2.7-0.3,5.5-0.5,8.4-0.6c2.9,0,5.8,0,8.6,0.3
				c2.9,0.3,5.8,0.8,8.5,1.4c2.8,0.7,5.5,1.5,8,2.5c2.5,1,4.9,2.1,7.1,3.3c2.2,1.2,4.1,2.5,5.9,3.8c0.9,0.7,1.7,1.3,2.4,2
				c0.7,0.7,1.4,1.3,2.1,1.9c0.6,0.6,1.2,1.2,1.7,1.8c0.5,0.6,1,1.1,1.4,1.6c0.8,1,1.4,1.8,1.8,2.3c0.4,0.5,0.6,0.8,0.6,0.8
				L164.5,128.3z"/>
		</g>
		<g class="st3">
			<path class="st4" d="M162,134.1c0,0-0.2-0.3-0.6-0.9c-0.4-0.6-1-1.3-1.8-2.3c-1.6-1.9-4.1-4.6-7.5-7.2c-3.4-2.6-7.9-5.2-12.9-7.1
				c-5.1-2-10.7-3.3-16.5-3.9c-2.9-0.3-5.8-0.4-8.6-0.3c-2.8,0.1-5.6,0.3-8.3,0.6c-2.7,0.3-5.3,0.7-7.7,1.3c-2.4,0.5-4.7,1-6.8,1.6
				c-2.1,0.6-4,1.1-5.7,1.6c-1.7,0.5-3.1,1-4.3,1.4c-2.4,0.8-3.8,1.3-3.8,1.3s1.4-0.5,3.7-1.3c1.2-0.4,2.7-0.9,4.3-1.4
				c1.7-0.5,3.6-1.1,5.7-1.7c2.1-0.5,4.4-1.1,6.8-1.6c2.4-0.5,5-0.9,7.7-1.3c2.7-0.3,5.5-0.5,8.3-0.6c2.8,0,5.8,0,8.6,0.3
				c5.8,0.5,11.5,1.9,16.5,3.8c5.1,1.9,9.5,4.5,13,7.1c3.5,2.6,6,5.3,7.6,7.2c0.8,1,1.4,1.8,1.8,2.3c0.4,0.6,0.6,0.9,0.6,0.9
				L162,134.1z"/>
		</g>
		<g class="st3">
			<path class="st4" d="M160.4,138.6c0,0-0.2-0.3-0.6-0.8c-0.4-0.5-1-1.4-1.8-2.3c-0.4-0.5-0.8-1-1.4-1.6c-0.5-0.6-1.1-1.1-1.7-1.8
				c-0.6-0.6-1.3-1.2-2.1-1.9c-0.8-0.6-1.6-1.3-2.4-2c-1.7-1.3-3.7-2.6-5.9-3.8c-2.2-1.2-4.5-2.3-7.1-3.4c-2.5-1-5.2-1.8-8-2.5
				c-2.8-0.6-5.6-1.1-8.5-1.4c-2.9-0.3-5.8-0.4-8.6-0.3c-2.9,0.1-5.7,0.3-8.4,0.6c-2.7,0.3-5.3,0.7-7.7,1.3c-2.4,0.5-4.7,1-6.8,1.6
				c-2.1,0.6-4,1.1-5.7,1.6c-1.7,0.5-3.1,1-4.3,1.4c-2.4,0.8-3.8,1.3-3.8,1.3s1.4-0.5,3.8-1.3c1.2-0.4,2.7-0.9,4.3-1.4
				c1.7-0.5,3.6-1.1,5.7-1.7c2.1-0.5,4.4-1.1,6.8-1.6c2.4-0.5,5-0.9,7.7-1.3c2.7-0.3,5.5-0.5,8.4-0.6c2.9,0,5.8,0,8.6,0.3
				c2.9,0.3,5.8,0.8,8.5,1.4c2.8,0.7,5.5,1.5,8,2.5c2.5,1,4.9,2.1,7.1,3.3c2.2,1.2,4.1,2.5,5.9,3.8c0.9,0.7,1.7,1.3,2.4,2
				c0.7,0.7,1.4,1.3,2.1,1.9c0.6,0.6,1.2,1.2,1.7,1.8c0.5,0.6,1,1.1,1.4,1.6c0.8,1,1.4,1.8,1.8,2.3c0.4,0.5,0.6,0.8,0.6,0.8
				L160.4,138.6z"/>
		</g>
		<path class="st13" d="M444,202.4c-0.7-3.5-1.6-14.5-17.5-17.7c-3.8-0.8-7.7-0.8-11.5-0.2c-8.8,1.4-29.6,5.7-41.7,17.6l23.6-5.5
			c0,0,11.9-10.6,26.4-8.3c0.4,0.1,0.7,0.1,1.1,0.2c3.1,0.3,21.3,3.7,10.9,34.3c0,0-13.2,35.2-41.8,45.5c0,0-14.5,5.7-17.6-14.4
			c-0.3-2.1-0.2-4.2,0.2-6.2c1.2-5.8,3.4-19.3-1.1-20.7c0,0-8.1-3.1-16.8,0.3c-3.7,1.4-6.9,4-9.4,7.1c-5,6.6-20.6,26.4-21.6,22
			c0,0-2.4-4.5,0-13.3l8.4-20.8l-12.3,2.2c0,0-5.3,14.2-14.6,18.5c-0.8,0.4-1.8,0.2-2.4-0.5c-1.2-1.4-2.6-4.9-0.8-13
			c0,0,0.9-6.7,0.3-8.2l-10.5,2.9c0,0-8.8,30.8-20.4,36.1c-0.1,0-0.2,0.1-0.3,0.1c-0.1,0-0.2,0.1-0.3,0.1c0,0,0,0,0,0
			c-3.4,1.2-7.1-0.1-8.5-9.8c-0.3-2.1-0.2-4.2,0.2-6.2c1.2-5.8,3.4-19.3-1.1-20.7c0,0-8.1-3.1-16.8,0.3c-3.7,1.4-6.9,4-9.4,7.1
			c-5,6.6-17.6,32.4-18.6,28c0,0-10.1-39.7-8.8-56.3c0,0,0.3-24.4,16.2-46.9c1.9-2.6,4.1-5,6.8-6.8c4.9-3.4,12.1-5.8,14.6,6.6
			c1,5.3,0.7,10.7-1,15.8c-4.1,12.6-14.4,39.9-25.5,36c0.4,0.2,7.2,3.8,15.5,2.6c0,0,9.4-4.7,17.6-26c0.4-1.1,0.8-2.1,1.2-3.2
			c2.7-6.5,13.8-36.9-8.7-40.7c-1.8-0.3-3.6-0.2-5.4,0.1c-2.9,0.6-8.2,1.8-13.3,3.3c-7.9,2.4-14.6,7.7-18.8,14.8
			c-4.7,8.1-10.5,21.2-12.1,39c-0.9,10.2-0.2,20.5,1.8,30.5c2.5,12.1,7.6,37.5,6.9,40.5c0,0-26.7,21.1-30.9,39.9
			c-0.3,1.1-0.6,2.2-0.9,3.3c-1,3.7-2.7,12,0.2,18.4c1.4,3.1,4.6,5.1,8,5.1c2.9,0,6.5,0.1,10-0.2c4.2-0.4,7.8-1.2,10.9-3.7
			c4.2-3.5,9.5-8.8,10.9-14.2c0.4-1.6,1-3.2,1.5-4.8c2.8-8,8.9-28.9,3.7-45.3l0,0c2.5-2.1,6-6.3,12.3-14.5c1.6-2.1,2.9-4.4,4.6-6.5
			c5.1-6.4,13.3-19.3,17.6-18.9c0.2,0,0.5,0,0.7,0c1.1-0.1,4.6,0.5,2.6,13.4c-0.6,3.8-0.6,7.7,0.2,11.5c1.2,5.9,4.3,12.5,14,13.4
			c1.3,0.1,2.6,0.1,4.1,0c3.8-0.4,8.1-2,11.5-6.7c0.9-1.2,1.5-2.6,2.1-3.9c1.4-3.6,6.3-15.5,9.1-10c0.8,1.5,3.2,2.5,5.1,3
			c0,0,0.1,0,0.1,0c4.1,1,7.3,0,10.9-2.2c0.4-0.3,0.9-0.5,1.4-0.7l0.1,0c0.5-0.4,1.3,0.4,1.2,1.1c-0.5,4.6-1.1,16.9,6.1,18.2
			c0.4,0.1,0.8,0.2,1.2,0.3c1.8,0.5,8.3,1.3,15.3-9.8c1.4-2.2,2.9-4.4,4.6-6.5c5.1-6.4,15.3-18.2,19.6-17.8c0.2,0,0.5,0,0.7,0
			c1.1-0.1,4.6,0.5,2.6,13.4c-0.6,3.8-0.6,7.7,0.2,11.5c1.3,6.7,5.2,14.9,15.9,17c0,0,15.5,3.4,33-12.7c5.9-5.4,9.8-12.3,14.5-18.8
			c5.9-8.1,12.4-23.2,12.3-33.3C444.2,207,444.1,203,444,202.4z M210.8,313.1c-5.7,13.9-12.3,17.1-16.4,17.7
			c-2.3,0.3-4.5-0.7-5.8-2.6c-14.9-21.9,25.7-56.5,25.7-56.5c0.9,2,1.2,8.5,1.4,14.3C215.9,295.3,214.3,304.6,210.8,313.1z"/>
		<path class="st13" d="M447.9,202.4c-0.7-3.5-1.6-14.5-17.5-17.7c-3.8-0.8-7.7-0.8-11.5-0.2c-8.8,1.4-33.6,5.7-45.7,17.6l27.6-5.5
			c0,0,11.9-10.6,26.4-8.3c0.4,0.1,0.7,0.1,1.1,0.2c3.1,0.3,21.3,3.7,10.9,34.3c0,0-13.2,35.2-41.8,45.5c0,0-14.5,5.7-17.6-14.4
			c-0.3-2.1-0.2-4.2,0.2-6.2c1.2-5.8,3.4-19.3-1.1-20.7c0,0-8.1-3.1-16.8,0.3c-3.7,1.4-6.9,4-9.4,7.1c-5,6.6-20.6,26.4-21.6,22
			c0,0-2.4-4.5,0-13.3l4.5-20.8l-12.3,2.2c0,0-1.4,14.2-10.6,18.5c-0.8,0.4-1.8,0.2-2.4-0.5c-0.8-0.9-1.3-2.7-1.6-6.1
			c-0.5-5-1.6-9.8-2.7-14.9l0,0l-10.5,2.9c0,0-4.9,30.8-16.4,36.1c-0.1,0-0.2,0.1-0.3,0.1c-0.1,0-0.2,0.1-0.3,0.1c0,0,0,0,0,0
			c-3.4,1.2-7.1-0.1-8.5-9.8c-0.3-2.1-0.2-4.2,0.2-6.2c1.2-5.8,3.4-19.3-1.1-20.7c0,0-8.1-3.1-16.8,0.3c-3.7,1.4-6.9,4-9.4,7.1
			c-5,6.6-17.6,32.4-18.6,28c0,0-10.1-39.7-8.8-56.3c0,0,0.3-24.4,16.2-46.9c1.9-2.6,4.1-5,6.8-6.8c4.9-3.4,12.1-5.8,14.6,6.6
			c1,5.3,0.7,10.7-1,15.8c-4.1,12.6-18.3,39.9-29.5,36c0.4,0.2,11.2,3.8,19.5,2.6c0,0,9.4-4.7,17.6-26c0.4-1.1,0.8-2.1,1.2-3.2
			c2.7-6.5,13.8-36.9-8.7-40.7c-1.8-0.3-3.6-0.2-5.4,0.1c-2.9,0.6-8.2,1.8-13.3,3.3c-7.9,2.4-14.7,7.7-18.8,14.8
			c-4.7,8.1-10.5,21.2-12.1,39c-0.9,10.2-0.2,20.5,1.8,30.5c2.5,12.1,7.6,37.5,6.9,40.5c0,0-26.7,21.1-30.9,39.9
			c-0.3,1.1-0.6,2.2-0.9,3.3c-1,3.7-2.7,12,0.2,18.4c1.4,3.1,4.6,5.1,8,5.1c2.9,0,6.5,0.1,10-0.2c4.2-0.4,7.8-1.2,10.9-3.7
			c4.2-3.5,9.5-8.8,10.9-14.2c0.4-1.6,1-3.2,1.5-4.8c2.8-8,8.9-28.9,3.7-45.3l0,0c2.5-2.1,6-6.3,12.3-14.5c1.6-2.1,2.9-4.4,4.6-6.5
			c5.1-6.4,13.3-19.3,17.6-18.9c0.2,0,0.5,0,0.7,0c1.1-0.1,4.6,0.5,2.6,13.4c-0.6,3.8-0.6,7.7,0.2,11.5c1.2,5.9,4.3,12.5,14,13.4
			c1.3,0.1,2.6,0.1,4.1,0c3.8-0.4,8.1-2,11.5-6.7c0.9-1.2,1.5-2.6,2.1-3.9c1.4-3.6,6.3-15.5,9.1-10c0.8,1.5,3.2,2.5,5.1,3
			c0,0,0.1,0,0.1,0c4,1,7.1,0,10.6-2.1c0.4-0.3,1.2-0.7,1.6-0.9l0.1,0c0.5-0.4,1.3,0.4,1.2,1.1c-0.5,4.6-1.1,16.9,6.1,18.2
			c0.4,0.1,0.8,0.2,1.2,0.3c1.8,0.5,8.3,1.3,15.3-9.8c1.4-2.2,2.9-4.4,4.6-6.5c5.1-6.4,15.3-18.2,19.6-17.8c0.2,0,0.5,0,0.7,0
			c1.1-0.1,4.6,0.5,2.6,13.4c-0.6,3.8-0.6,7.7,0.2,11.5c1.3,6.7,5.2,14.9,15.9,17c0,0,15.5,3.4,33-12.7c5.9-5.4,9.8-12.3,14.5-18.8
			c5.9-8.1,12.4-23.2,12.3-33.3C448.2,207,448,203,447.9,202.4z M214.8,313.1c-5.7,13.9-12.3,17.1-16.4,17.7
			c-2.3,0.3-4.5-0.7-5.8-2.6c-14.9-21.9,25.7-56.5,25.7-56.5c0.9,2,1.2,8.5,1.4,14.3C219.9,295.3,218.3,304.6,214.8,313.1z"/>
		<g class="st3">
			<g>
				<path class="st4" d="M295.7,295.3c-0.9-4.5,3.4-11.5,7.9-7.3c4,3.7,2.4,13.8,2.4,18.8c0,3.7,0,7.5,0,11.2c0,0.8,0.3,2.2,0,3
					c-0.2,0.6-0.1,0.2-0.9,0.1c-11.5-1.5-10.2-19.1,1-19.5c-1,0-2,0-2.9,0c1,0,1.9,0.2,2.8,0.5c1,0.2,2.1-0.2,3,0
					c-2.2-0.5-4.8-0.8-7.1-0.5c-5.2,0.7-8.4,6.5-8.1,11.4c0.4,5.4,5,7.9,9.8,8.2c1,0.1,4.2,0.6,5,0c0.9-0.7,0.4-4.2,0.4-5.4
					c0-4.6,0-9.1,0-13.7c0-5.1,1.3-14.5-5.6-15.5c-5.9-0.9-12,2.1-10.7,8.8C292.7,295.5,295.6,295.1,295.7,295.3L295.7,295.3z"/>
			</g>
		</g>
		<g class="st3">
			<g>
				<path class="st4" d="M310.1,312.4c0.2,6,2.8,9.3,8.6,9c7.4-0.4,10.1-9.2,6.5-15.2c-2.7-4.6-9.2-2.6-11.7-7.6c-0.7-1.5-1-3.3-1-5
					c0.1-2.8,2.1-6.9,5.1-7c4.2-0.1,5.2,6.1,5.3,8.9c0,0.1,3,0,3,0c-0.2-6.1-2.8-9.2-8.6-9c-5.9,0.3-9,4.5-7.5,10.1
					c0.4,1.6,1.2,3.1,2.5,4.3c2.1,1.9,4.8,1.4,7.2,2.7c3.7,1.9,4.4,6.7,4,10.5c-0.3,2.6-2.6,7.1-5.1,7.2c-4.2,0.2-5.2-6.2-5.3-8.9
					C313.1,312.3,310.1,312.4,310.1,312.4L310.1,312.4z"/>
			</g>
		</g>
		<g class="st3">
			<g>
				<path class="st4" d="M327.8,297.4c4,0,8,0,12,0c0.1,0,1.5,0,1.5,0c-0.4-4.9-1.8-10.7-7.4-10.9c-7.1-0.3-7.4,8.5-8,14
					c-0.7,6.3-1.5,20.3,7.3,20.8c7.9,0.4,8-8.9,8.1-14.9c0,0-3,0-3,0c-0.1,4.6,0.1,13.7-5.9,14.8c1,0,2,0,2.9,0
					c-7.4-0.4-7-13.5-6.7-18.6c0.3-4.6,0.5-14.5,5.8-16.2c-1,0-2,0-2.9,0c5.2,0.1,6.5,6.7,6.8,10.9c0.5,0,1,0,1.5,0
					C335.8,297.4,331.8,297.4,327.8,297.4C326.1,297.4,326.1,297.4,327.8,297.4L327.8,297.4z"/>
			</g>
		</g>
		<g class="st3">
			<g>
				<path class="st4" d="M289.7,312.9c0.2,3.3-1.5,6.7-4.8,7.8c-0.3,0.1-0.6,0.2-0.9,0.2c-1.1,0.1-0.8,0.2,0.7,0.2
					c0,0-0.6-0.1-0.7-0.1c-0.7-0.3-1.3-0.4-1.9-0.9c-2.3-1.6-2.8-4.6-2.9-7.2c0,0-3,0-3,0c0.1,3.1,0.9,6.6,4.1,7.9
					c1.3,0.5,2.6,0.4,4,0.4c4.9-0.1,8.7-3,8.4-8.2C292.7,312.9,289.7,313,289.7,312.9L289.7,312.9z"/>
			</g>
		</g>
		<g class="st3">
			<g>
				<path class="st4" d="M292.6,294.7c1.4-6.9-7.1-10.3-12.6-7.7c-4.4,2.1-3.7,8.1-3.7,12.2c0,4.6,0,9.2,0,13.8c0,0,3,0,3,0
					c0-6.6-0.9-13.8,0.2-20.4c0.6-3.8,3.4-7.3,7.2-5.2c2.6,1.4,3.5,4.5,3,7.3C289.6,294.5,292.5,294.9,292.6,294.7L292.6,294.7z"/>
			</g>
		</g>
		<line class="st7" x1="340.6" y1="297.1" x2="327.8" y2="297.1"/>
	</g>
</g>
<g id="Layer_2">
</g>
</svg>
