<?xml version="1.0" encoding="utf-8"?>
<!-- Generator: Adobe Illustrator 19.1.0, SVG Export Plug-In . SVG Version: 6.00 Build 0)  -->
<svg version="1.1" id="Layer_1" xmlns="http://www.w3.org/2000/svg" xmlns:xlink="http://www.w3.org/1999/xlink" x="0px" y="0px"
	 viewBox="-166 78.8 457.8 456.2" style="enable-background:new -166 78.8 457.8 456.2;" xml:space="preserve">
<style type="text/css">
	.st0{clip-path:url(#SVGID_4_);}
	.st1{fill:#FBE1C1;}
	.st2{fill:#333333;}
	.st3{fill:#EFAE9E;}
	.st4{fill:#847052;}
	.st5{fill:#847052;stroke:#333333;stroke-width:0.25;stroke-miterlimit:10;}
	.st6{fill:#797678;}
	.st7{fill:none;stroke:#F4F4F4;stroke-width:0.365;stroke-miterlimit:10;}
	.st8{fill:#F4F4F4;}
	.st9{fill:#EAEAEA;stroke:#333333;stroke-width:0.25;stroke-miterlimit:10;}
</style>
<g id="Layer_2">
</g>
<g>
	<defs>
		<circle id="SVGID_1_" cx="63.5" cy="307.3" r="222.6"/>
	</defs>
	<use xlink:href="#SVGID_1_"  style="overflow:visible;fill:#DBE690;"/>
	<clipPath id="SVGID_2_">
		<use xlink:href="#SVGID_1_"  style="overflow:visible;"/>
	</clipPath>
</g>
<g>
	<defs>
		<circle id="SVGID_3_" cx="63.5" cy="307.3" r="222.6"/>
	</defs>
	<clipPath id="SVGID_4_">
		<use xlink:href="#SVGID_3_"  style="overflow:visible;"/>
	</clipPath>
	<g class="st0">
		<path class="st1" d="M61.4,304.9c0.2,0.2-19.6,1.8-19.3,2.2c-9.7,0.7-19.8-0.4-28.6-4.3c-9.4-4.3-17.6-12.2-20.2-22.1
			c-5.4-2.9-6.7-9.5-7.5-15.5c-1.9-15.8-3.8-31.7-3.5-47.7c0.1-5.7,0.4-11.4,2.6-16.7c2.1-5.3,6.2-10,11.6-11.7
			c2.8-0.9,3.4-5.4,4.8-7.6c2.1-3.2,5.3-4.3,8.8-5.4c9.1-3.1,18.9-3.5,28.5-3.5c19.2,0,38.4,1.6,57.5,5c7.8,1.3,15.7,3.1,22.4,7.3
			c7.8,5,11.3,12.3,11.3,21.3c0,11.4,1.2,23.2,1.8,34.6c0,6.9,0.3,13.5-1,19.8c-1.3,6.3-4.7,12.5-10.1,16c-2.3,1.5-5,2.5-7.3,4
			c-3.5,2.3-6.2,5.9-9.2,8.7c-3.5,3.2-7.8,5.6-11.9,7.6c-7.2,3.8-15.5,5.3-23.2,8.1v-0.6c-0.3,0-0.6,0.1-0.9,0.1c0,0,0,0-0.1,0
			c-8.7,1.6-17.5-0.1-26,2.1c0,0.1,0-0.5,0-0.4C41.6,306,61.5,304.8,61.4,304.9z"/>
		<path class="st1" d="M132.7,471.9l-2.2-3.1c-2.3-4.8-3.7-8.5-5.3-12.8c-12.3-33.7-23.9-71.9-35.1-108.4c-0.9-2.8-3.5-5-6.5-6.2
			v72.7c-18.2,10.4-49.4,2.9-49.4,2.9l-6.5-71.9c-2.1,0.7-4,2.2-4.4,4.3C12.3,386,9.9,426.4-2.4,460.2c-1.6,4.3-2.9,7.8-5.3,12.8
			l-2.2,3.1c-4.1,5.3-6.9,0.7-4.8-5.6C-7.1,446-4,420.9-0.3,395.5c3.7-25.2,6.3-50.9,25.5-69.4c1.5-1.3,3.7-2.1,5.6-2.3
			s3.5-0.9,5.4-0.9c1.5,0,3.8-0.3,5.3-1c0.4-0.1,0.9-0.6,1.2-0.9c0.4-0.4,0.9-0.7,1.5-1.2c0-0.1,0-0.1,0-0.3c0-4.4-0.6-9.4-1.9-12.2
			c0-0.1-0.1-0.2-0.1-0.3c0.1,0,0.2,0,0.3,0c-0.1-0.4-0.4-0.7-0.6-1.1c8.4-2.1,17.3,0.1,25.8-1.4c0,0,0,0,0.1,0
			c0.3,0,0.6-0.1,0.9-0.1v0.6c0,1.6-0.1,3.5,0,5.6v0.1c0,0.6,0.1,1.3,0.1,1.9c0.3,1.9,0.9,4,1.9,6.5c0.1,0.1,0.3,0.3,0.4,0.3
			c0.3,0.3,0.7,0.6,1.2,0.9c1.5,0.7,3.4,0.6,4.8,0.4c1.9,0,4,0,5.9,0.3c1.9,0.3,3.7,1.3,5.1,2.6c19.1,18.3,22.1,44.7,26,70.1
			c3.8,25.4,16,48.3,23.6,72.6C139.6,472.6,136.8,477.2,132.7,471.9z"/>
		<path class="st1" d="M42.3,307.1c-0.1,0-0.2,0-0.3,0c-0.2-0.5-0.4-0.8-0.6-1c0.1,0,0.2,0,0.3-0.1C42,306.3,42.2,306.7,42.3,307.1z
			"/>
		
			<ellipse transform="matrix(-0.1309 -0.9914 0.9914 -0.1309 -212.4099 285.9775)" class="st2" cx="19.1" cy="236.1" rx="16.9" ry="17.2"/>
		<g>
			<path class="st2" d="M7.6,245.9c0,0-0.3,0-0.7,0c-0.4,0-1.3,0-2.2-0.1c-0.4,0-0.9-0.1-1.5-0.3c-0.6-0.1-1-0.4-1.6-0.6
				c-0.4-0.3-1-0.4-1.6-0.9c-0.6-0.3-1-0.7-1.5-1c-1.9-1.5-3.4-3.4-4.4-4.8s-1.6-2.5-1.6-2.5s0.6,1,1.8,2.3c1,1.3,2.6,3.1,4.5,4.4
				c0.4,0.3,1,0.6,1.5,0.9c0.4,0.3,1,0.4,1.5,0.7c0.4,0.1,1,0.3,1.5,0.4c0.4,0.1,0.9,0.1,1.3,0.1c0.4,0,0.7,0,1.2,0
				c0.3,0,0.6,0,0.9,0c0.4,0,0.7-0.1,0.7-0.1L7.6,245.9z"/>
		</g>
		<g>
			<path class="st2" d="M6.8,242.4c0,0-0.3,0-0.7,0c-0.4,0-1.3-0.1-2.2-0.4c-0.4-0.1-0.9-0.3-1.5-0.4c-0.4-0.1-1-0.4-1.5-0.7
				c-0.4-0.3-1-0.6-1.5-1c-0.4-0.3-0.9-0.7-1.3-1.2c-1.8-1.8-2.9-3.7-3.8-5.3s-1.3-2.6-1.3-2.6s0.6,1,1.5,2.5s2.3,3.4,4.1,4.8
				c0.4,0.3,0.9,0.7,1.3,1s0.9,0.6,1.5,0.9c0.4,0.1,0.9,0.4,1.5,0.6c0.4,0.1,0.9,0.3,1.3,0.3c0.4,0.1,0.7,0.1,1,0.1
				c0.3,0,0.6,0,0.9,0c0.4,0,0.7,0,0.7,0V242.4z"/>
		</g>
		<g>
			<path class="st2" d="M6.5,238.3c0,0-0.3,0-0.7-0.1c-0.4,0-1.3-0.3-2.2-0.6c-0.4-0.1-0.9-0.3-1.3-0.6c-0.4-0.1-0.9-0.6-1.5-0.9
				c-0.4-0.3-0.9-0.7-1.3-1c-0.4-0.4-0.9-0.9-1.3-1.3c-1.6-1.8-2.8-4-3.5-5.6s-1.2-2.8-1.2-2.8s0.4,1,1.3,2.6
				c0.9,1.5,2.2,3.5,3.8,5.1c0.4,0.4,0.9,0.7,1.3,1.2c0.4,0.3,0.9,0.6,1.3,0.9c0.4,0.3,0.9,0.4,1.3,0.6c0.4,0.1,0.9,0.3,1.3,0.4
				c0.4,0.1,0.7,0.1,1,0.3c0.3,0,0.6,0.1,0.9,0.1c0.4,0,0.7,0,0.7,0L6.5,238.3z"/>
		</g>
		<g>
			<path class="st2" d="M8,237.6c0,0-0.3-0.1-0.7-0.3c-0.3,0-0.6-0.3-1-0.4c-0.4-0.1-0.7-0.4-1.2-0.7c-0.9-0.6-1.6-1.3-2.5-2.2
				C1.9,233,1.1,232,0.4,231c-1.3-2.1-2.5-4.3-3.2-5.9c-0.9-1.6-1.3-2.8-1.3-2.8s0.6,1,1.6,2.6c0.9,1.6,2.2,3.7,3.7,5.6
				c0.7,0.9,1.5,1.9,2.3,2.6s1.6,1.3,2.3,1.8c0.4,0.1,0.7,0.4,1,0.4c0.3,0.1,0.6,0.3,0.9,0.3c0.6,0.1,0.9,0.1,0.9,0.1L8,237.6z"/>
		</g>
		<g>
			<path class="st2" d="M12.6,235.6c0,0-0.3-0.1-0.7-0.3c-0.3,0-0.6-0.3-1-0.4c-0.4-0.1-0.7-0.4-1.2-0.7c-0.9-0.6-1.6-1.3-2.5-2.2
				c-0.7-0.9-1.5-1.9-2.2-2.9c-1.3-2.1-2.5-4.3-3.2-5.9c-0.9-1.6-1.3-2.8-1.3-2.8s0.6,1,1.6,2.6c0.9,1.6,2.2,3.7,3.7,5.6
				c0.7,0.9,1.5,1.9,2.3,2.6s1.6,1.3,2.3,1.8c0.4,0.1,0.7,0.4,1,0.4c0.3,0.1,0.6,0.3,0.9,0.3c0.6,0.1,0.9,0.1,0.9,0.1L12.6,235.6z"
				/>
		</g>
		<g>
			<path class="st2" d="M17,233.6c0,0-0.3-0.1-0.7-0.3c-0.3,0-0.6-0.3-1-0.4c-0.4-0.1-0.7-0.4-1.2-0.7c-0.9-0.6-1.6-1.3-2.5-2.2
				c-0.7-0.9-1.5-1.9-2.2-2.9c-1.3-2.1-2.5-4.3-3.2-5.9c-0.9-1.6-1.3-2.8-1.3-2.8s0.6,1,1.6,2.6c0.9,1.6,2.2,3.7,3.7,5.6
				c0.7,0.9,1.5,1.9,2.3,2.6s1.6,1.3,2.3,1.8c0.4,0.1,0.7,0.4,1,0.4c0.3,0.1,0.6,0.3,0.9,0.3c0.6,0.1,0.9,0.1,0.9,0.1L17,233.6z"/>
		</g>
		
			<ellipse transform="matrix(0.1309 0.9914 -0.9914 0.1309 297.0331 120.8992)" class="st2" cx="79.6" cy="229.9" rx="16.9" ry="17.2"/>
		<g>
			<path class="st3" d="M43.9,288.4c0,0,0.4-0.1,1.3-0.4c0.9-0.1,2.1-0.6,3.4-0.9s2.9-0.7,4.5-1.3c0.7-0.3,1.6-0.6,2.3-1
				c0.7-0.4,1.6-0.7,2.2-1.3c0.3-0.1,0.7-0.6,1-0.7c0.3-0.3,0.6-0.6,1-0.9c0.6-0.6,1.3-1.2,1.8-1.9c1-1.3,2.1-2.6,2.8-3.8
				c0.9-1.2,1.5-2.2,1.9-2.9s0.7-1,0.7-1s0,0.4-0.3,1.3c-0.1,0.9-0.4,2.1-1,3.4c-0.4,1.3-1.2,2.9-2.3,4.5c-0.6,0.7-1.2,1.6-1.9,2.3
				c-0.3,0.3-0.7,0.7-1.2,1c-0.4,0.4-0.7,0.6-1.2,0.9c-0.9,0.6-1.8,1-2.8,1.5c-0.9,0.4-1.9,0.6-2.8,0.9c-1.9,0.4-3.7,0.4-5.1,0.4
				c-1.5,0-2.6-0.1-3.5-0.3C44.4,288.4,43.9,288.4,43.9,288.4z"/>
		</g>
		<g>
			<path class="st4" d="M-2.3,212.9c0,0,0.1-0.3,0.6-0.9c0.4-0.6,1-1.5,1.9-2.3c0.4-0.4,0.9-0.9,1.5-1.3c0.6-0.4,1.2-0.9,1.9-1.3
				c1.3-0.7,2.9-1.5,4.5-2.1s3.2-0.9,4.7-1.2c1.6-0.1,2.9-0.3,4.3-0.3c2.5,0,4.1,0.3,4.1,0.3v0.1c0,0-0.4,0.1-1.2,0.3
				c-0.7,0.1-1.8,0.3-2.9,0.4s-2.6,0.3-4.1,0.6c-1.5,0.1-3.1,0.4-4.7,0.7c-1.6,0.4-3.1,0.9-4.4,1.6c-0.6,0.3-1.3,0.7-1.9,1
				c-0.6,0.4-1.2,0.7-1.6,1.2c-0.9,0.7-1.6,1.5-2.1,2.1C-2,212.6-2.1,212.9-2.3,212.9L-2.3,212.9z"/>
		</g>
		<g>
			<path class="st4" d="M96.3,207.8c0,0-0.3-0.3-0.9-0.6c-0.6-0.4-1.5-0.9-2.5-1.5c-0.6-0.3-1.2-0.4-1.8-0.7
				c-0.6-0.1-1.3-0.4-2.1-0.6c-1.5-0.3-3.1-0.4-4.7-0.4c-1.6,0-3.2,0.3-4.7,0.4s-2.9,0.3-4.1,0.4s-2.2,0.3-2.9,0.3s-1.2,0-1.2,0V205
				c0,0,1.5-0.7,4-1.3c1.2-0.3,2.6-0.6,4.1-0.9c1.6-0.1,3.2-0.1,4.8-0.1c1.6,0.1,3.4,0.3,4.8,0.7c0.7,0.1,1.5,0.4,2.2,0.7
				c0.7,0.3,1.3,0.6,1.8,0.9c1,0.6,1.9,1.2,2.5,1.8C96.2,207.3,96.5,207.6,96.3,207.8L96.3,207.8z"/>
		</g>
		<path class="st2" d="M25.3,473.4c5.6,0.4,11-1,16.6-0.6c4.7,0.3,10.4,0.1,15.3,1c-0.3,28.7-2.8,57.3-4.1,85.9
			c-0.7,14.1,0.1,28.5-0.7,42.5c-0.3,4.4-0.6,17.5-4.1,19.9c-2.3,1.8-4.3,1.8-6.9,0.7c-1.3-0.4-2.1-1.6-2.2-3.1
			c-2.5-34-8.4-70-10.7-104c-1.2-16-4.5-33.7-2.3-49.6c2.5-17,4.5-34,6.2-51.2c18.5,2.3,38,4.7,54.9-3.1"/>
		<path class="st2" d="M93.5,473.4c-5.6,0.4-11-1-16.6-0.6c-4.7,0.3-10.4-2.5-15.3-1.8c0.3,28.7,2.8,60.1,4.1,88.7
			c0.7,14.1-0.1,28.5,0.7,42.5c0.3,4.4,0.6,17.5,4.1,19.9c2.3,1.8,4.3,1.8,6.9,0.7c1.3-0.4,2.1-1.6,2.2-3.1c2.5-34,8.4-70,10.7-104"
			/>
		<path class="st1" d="M-21.8,253.8c-3.1-0.1-7.8,3.1-8.4,6c-0.7,2.9,0,6,0.7,8.9c0.7,2.9,1.5,6,3.2,8.7c3.5,5.7,11.3,8.4,17.7,6
			c0.9-0.3,1.9-0.6,2.9-0.7"/>
		<path class="st5" d="M128.7,142.7c8.8,2.6,15.5,10.7,18,19.5c2.2,7.9,1.9,7.9,2.2,15.8c0,0.9,0,2.6,0,3.4c0,0.6-0.1,3.8-0.3,5.1
			c-0.6,7.6-1,12.3-1.5,19.9c-0.3,4-0.6,7.8-0.9,11.7c-0.4,5.1-0.4,2.8-1,7.2c-0.1,0.7-0.7,3.2-0.9,4.5c-0.1,0.7-0.6,2.6-0.6,2.8
			c-0.3,1.6-1,4-1.9,5.6c-2.5,5-2.5,5-4.8,8.5c-2.6,4.1-3.8,5-7.6,8.1c-0.9,0.7-1.6,2.2-3.4,3.4c-0.9-5.9-1.2-11.9-0.3-17.7
			c0.7-4.8,2.3-9.5,2.9-14.5c1.2-9.7-1.8-19.4-6.5-27.9c-3.8-6.7-9.1-13.5-8.8-21.3"/>
		<path class="st1" d="M42.3,307.1c-0.1,0-0.2,0-0.3,0c-0.2-0.5-0.4-0.8-0.6-1c0.1,0,0.2,0,0.3-0.1C42,306.3,42.2,306.7,42.3,307.1z
			"/>
		<path class="st1" d="M114.6,278.5c10.4,0,20.8-5.1,27-13.6c2.6-3.5,4.5-7.9,3.4-12.2c-0.3-1.2-0.9-2.3-1.9-3.1
			c-1.5-1.2-3.5-1.3-5.3-0.7c-1.8,0.6-3.2,1.8-4.7,2.9c-3.7,3.2-7,6.9-9.7,11"/>
		<circle class="st2" cx="123.4" cy="272" r="2.9"/>
		<circle class="st2" cx="-14" cy="278.9" r="2.9"/>
		<g>
			<path class="st2" d="M91.8,237.1c0,0,0.3,0,0.7,0.1c0.3,0,0.6,0,0.9,0c0.3,0,0.7,0,1.2,0s0.9-0.1,1.3-0.1c0.4,0,0.9-0.3,1.5-0.4
				c0.4-0.1,1-0.4,1.5-0.7s1-0.6,1.5-0.9c1.9-1.3,3.5-3.1,4.5-4.4c1.2-1.3,1.8-2.3,1.8-2.3s-0.6,1-1.6,2.5c-1,1.5-2.5,3.4-4.4,4.8
				c-0.4,0.3-0.9,0.7-1.5,1c-0.4,0.3-1,0.6-1.6,0.9c-0.6,0.1-1,0.4-1.6,0.6c-0.4,0.1-1,0.3-1.5,0.3c-0.9,0.1-1.8,0.1-2.2,0.1
				c-0.4,0-0.7,0-0.7,0L91.8,237.1z"/>
		</g>
		<g>
			<path class="st2" d="M92.2,233.6c0,0,0.3,0,0.7,0c0.3,0,0.6,0,0.9,0c0.3,0,0.7,0,1-0.1c0.4,0,0.9-0.1,1.3-0.3
				c0.4-0.1,0.9-0.3,1.5-0.6c0.4-0.3,0.9-0.4,1.5-0.9c0.4-0.3,0.9-0.7,1.3-1c1.8-1.5,3.2-3.4,4.1-4.8c0.9-1.5,1.5-2.5,1.5-2.5
				s-0.4,1-1.3,2.6c-0.9,1.6-2.1,3.5-3.8,5.3c-0.4,0.4-0.9,0.9-1.3,1.2c-0.4,0.4-1,0.7-1.5,1s-1,0.6-1.5,0.7s-1,0.4-1.5,0.4
				c-0.9,0.3-1.8,0.4-2.2,0.4c-0.4,0-0.7,0-0.7,0V233.6z"/>
		</g>
		<g>
			<path class="st2" d="M92.5,229.5c0,0,0.3,0,0.7,0c0.3,0,0.6,0,0.9-0.1c0.3,0,0.7-0.1,1-0.3c0.4-0.1,0.9-0.3,1.3-0.4
				c0.4-0.1,0.9-0.4,1.3-0.6c0.4-0.3,0.9-0.6,1.3-0.9c0.4-0.3,0.9-0.7,1.3-1.2c1.6-1.6,2.9-3.5,3.8-5.1c0.9-1.5,1.3-2.6,1.3-2.6
				s-0.4,1.2-1.2,2.8c-0.7,1.6-1.9,3.7-3.5,5.6c-0.4,0.4-0.9,0.9-1.3,1.3c-0.4,0.4-0.9,0.7-1.3,1c-0.4,0.3-0.9,0.6-1.5,0.9
				c-0.4,0.3-0.9,0.4-1.3,0.6c-0.9,0.3-1.8,0.4-2.2,0.6c-0.4,0-0.7,0.1-0.7,0.1V229.5z"/>
		</g>
		<g>
			<path class="st2" d="M90.7,228.9c0,0,0.3,0,0.9-0.1c0.3,0,0.6-0.1,0.9-0.3c0.3-0.1,0.6-0.3,1-0.4c0.7-0.4,1.6-1,2.3-1.8
				c0.9-0.7,1.6-1.6,2.3-2.6c1.5-1.9,2.8-4,3.7-5.6c0.9-1.6,1.6-2.6,1.6-2.6s-0.6,1-1.3,2.8c-0.9,1.6-1.9,3.8-3.2,5.9
				c-0.7,1-1.5,2.1-2.2,2.9s-1.6,1.6-2.5,2.2c-0.4,0.3-0.7,0.4-1.2,0.7c-0.4,0.1-0.7,0.3-1,0.4c-0.4,0.1-0.7,0.3-0.7,0.3L90.7,228.9
				z"/>
		</g>
		<g>
			<path class="st2" d="M86.2,226.8c0,0,0.3,0,0.9-0.1c0.3,0,0.6-0.1,0.9-0.3c0.3-0.1,0.6-0.3,1-0.4c0.7-0.4,1.6-1,2.3-1.8
				c0.9-0.7,1.6-1.6,2.3-2.6c1.5-1.9,2.8-4,3.7-5.6c0.9-1.6,1.6-2.6,1.6-2.6s-0.6,1-1.3,2.8c-0.9,1.6-1.9,3.8-3.2,5.9
				c-0.7,1-1.5,2.1-2.2,2.9s-1.6,1.6-2.5,2.2c-0.4,0.3-0.7,0.4-1.2,0.7c-0.4,0.1-0.7,0.3-1,0.4c-0.4,0.1-0.7,0.3-0.7,0.3L86.2,226.8
				z"/>
		</g>
		<g>
			<path class="st2" d="M81.8,224.8c0,0,0.3,0,0.9-0.1c0.3,0,0.6-0.1,0.9-0.3c0.3-0.1,0.6-0.3,1-0.4c0.7-0.4,1.6-1,2.3-1.8
				c0.9-0.7,1.6-1.6,2.3-2.6c1.5-1.9,2.8-4,3.7-5.6c0.9-1.6,1.6-2.6,1.6-2.6s-0.6,1-1.3,2.8c-0.9,1.6-1.9,3.8-3.2,5.9
				c-0.7,1-1.5,2.1-2.2,2.9c-0.7,0.9-1.6,1.6-2.5,2.2c-0.4,0.3-0.7,0.4-1.2,0.7c-0.4,0.1-0.7,0.3-1,0.4c-0.4,0.1-0.7,0.3-0.7,0.3
				L81.8,224.8z"/>
		</g>
		<path class="st6" d="M73,320.6c13.8-2.8,19.7,4.1,27.1,13.1c12.2,14.7,16.9,34,21.1,52.8c5.3,23,10.6,45.9,15.7,68.9
			c-4.3,0.6-8.7,1.2-12.9,1.6c-9.4-16.1-15.4-34-21.3-51.8c-5.4-16.3-10.9-32.6-16.4-48.8c-2.2,21-3.2,41.4,4.3,61.2
			c6.5,17,8.5,33,11.3,51c0.3,1.6,0.4,3.4-0.7,4.5c-0.9,0.7-2.1,1-3.2,1c-22.9,1.8-35.9,3.7-58.8,5.4c-8.7,0.7-8.9,1.3-17.6,1.3
			c-1.2,0-2.3,0-3.2-0.7c-1.2-1-1.3-2.8-1.2-4.4c1.2-18.2,5-36.1,9.8-53.7c5.6-20.4,4.3-41.5,0.1-62.2c-4,16.7-7.9,33.4-11.7,50
			c-4.3,18.2-8.7,36.5-16.4,53.4c-4.4-0.1-8.7-0.3-13.1-0.4c3.1-23.3,6.2-46.6,9.4-70c2.5-18.9,5.3-38.7,16.1-54.4
			c6.6-9.7,17.6-17.7,29.2-15.8c1.5,2.6,4.4,4.7,7.2,5.6c2.8,0.9,5.9,1,8.8,1c3.4,0,6.7-0.1,10-1c3.2-1,5.3-4.4,6.7-7.5"/>
		<path class="st7" d="M42.8,363.8c-0.6,0-1,0-1.6,0.1c-0.6,0.1-1.2,0.4-1.8,0.7c-0.9,0.4-1.8,0.7-2.6,1.2c2.1,1.3,3.1,4,5.3,5
			c1.2,0.6,2.6,0.7,4,0.4c1.3-0.1,2.6-0.7,4-1c0-1.3-0.9-2.5-1.6-3.7c-0.6-0.7-1.2-1.6-1.9-2.1C45.4,363.8,44.1,363.8,42.8,363.8z"
			/>
		<path class="st7" d="M39.5,364.6c-0.3,0-0.7,0.1-1,0c-0.1,0-0.1-0.1-0.3-0.1c-0.1-0.1-0.4-0.3-0.6-0.6"/>
		<path class="st7" d="M41.2,364c-0.1,0-0.6,0-0.7,0c-0.3,0-0.4-0.1-0.7-0.3c-0.1-0.1-0.4-0.3-0.4-0.6"/>
		<path class="st7" d="M37.9,365.3c-0.3,0-1,0.1-1.3,0.1c-0.3,0-0.7-0.1-1-0.4"/>
		
			<ellipse transform="matrix(-4.275802e-02 -0.9991 0.9991 -4.275802e-02 -320.869 427.8558)" class="st7" cx="44.5" cy="367.6" rx="3.7" ry="3.5"/>
		<path class="st8" d="M45,366.3c0-0.4,0-0.4,0-0.9c0-0.3,0-0.7,0-1v-0.1c0,0-0.1,0-0.1-0.1c-0.1,0-0.4,0-0.6,0h-0.1
			c0.1,0.3,0,0.7-0.1,1c-0.3,1.3-0.3,2.6-0.3,4c0,0.6,0,1.3,0.4,1.9c0,0.1,0.1,0.1,0.1,0.3c0.1,0.1,0.3,0.1,0.6,0.1
			c0.1,0,0.1,0,0.3,0s0.1-0.1,0.1-0.3V371c-0.1-0.3-0.1-0.4-0.1-0.7C45.1,368.8,45,367.6,45,366.3"/>
		<path class="st7" d="M72.8,363.8c0.6,0,1-0.1,1.6,0c0.6,0.1,1.2,0.3,1.8,0.6c0.9,0.3,1.8,0.6,2.6,0.9c-2.1,1.5-2.8,4.3-4.8,5.4
			c-1.2,0.7-2.5,0.9-4,0.7c-1.3-0.1-2.6-0.4-4-0.7c-0.1-1.3,0.6-2.6,1.3-3.8c0.4-0.9,1-1.6,1.8-2.2C70.2,364,71.5,364,72.8,363.8z"
			/>
		<path class="st7" d="M76.2,364.4c0.3,0,0.7,0.1,1,0c0.1,0,0.1-0.1,0.3-0.1c0.1-0.1,0.3-0.4,0.6-0.6"/>
		<path class="st7" d="M74.5,363.8c0.1,0,0.6-0.1,0.7-0.1c0.3-0.1,0.4-0.1,0.6-0.3s0.3-0.4,0.4-0.6"/>
		<path class="st7" d="M77.8,365c0.3,0,1,0.1,1.3,0c0.3,0,0.7-0.1,0.9-0.4"/>
		
			<ellipse transform="matrix(4.275802e-02 0.9991 -0.9991 4.275802e-02 435.8907 280.7817)" class="st7" cx="71.4" cy="367.9" rx="3.7" ry="3.5"/>
		<path class="st8" d="M70.9,366.6c0-0.4,0-0.4-0.1-0.9c0-0.3,0-0.7-0.1-1v-0.1l0.1-0.1c0.1,0,0.4-0.1,0.6-0.1h0.1
			c0,0.3,0,0.7,0.1,1c0.4,1.2,0.4,2.5,0.6,3.8c0,0.6,0,1.3-0.1,1.9c0,0.1-0.1,0.1-0.1,0.3c-0.1,0.1-0.3,0.1-0.4,0.1
			c-0.1,0-0.1,0-0.3,0s-0.1-0.1-0.1-0.1v-0.1c0.1-0.3,0-0.6,0-0.7C70.9,369,70.9,367.8,70.9,366.6"/>
		<path class="st7" d="M41,376.6c-1-0.9-2.5-1.2-3.8-1.6c-1-0.3-1.9-0.6-2.9-0.7"/>
		<path class="st7" d="M40.6,378.8c-0.6,0-1.2-0.4-1.9-0.4c-0.4-0.1-0.9,0-1.5,0.1c-1,0.3-2.1,0.6-2.9,1"/>
		<path class="st7" d="M41.6,381.4c-1.3-0.1-2.5,0.4-3.7,1.2s-2.2,1.8-3.1,2.9"/>
		<path class="st7" d="M73.9,377c0.9-0.4,1.6-1,2.5-1.5c0.3-0.1,0.7-0.4,1.2-0.6s0.9-0.1,1.3-0.1c1,0,2.1-0.1,3.1-0.1"/>
		<path class="st7" d="M74.6,379.5c0.9-0.1,1.6-0.3,2.5-0.3c1.8,0,3.5,0.4,5.1,0.9"/>
		<path class="st7" d="M74.5,382.2c0.9,0.1,1.6,0.3,2.5,0.6c0.3,0.1,0.6,0.1,0.7,0.3c0.3,0.1,0.4,0.6,0.7,0.7
			c0.9,0.9,2.2,1.3,2.8,2.5"/>
		<path class="st7" d="M60.2,374.2c0.4,0,0.9,0,1.2,0.1c0.4,0.1,0.7,0.4,0.7,0.9c0,0.4-0.3,0.9-0.7,1.3c-0.3,0.3-0.6,0.6-0.9,0.9
			c-0.3,0.3-0.7,0.7-1.3,0.7c-0.4,0-0.7-0.4-1-0.7c-0.4-0.4-0.7-1-1.2-1.6c-0.1-0.3-0.3-0.6-0.3-0.9c0.1-0.4,0.6-0.4,1-0.4
			C58.8,374.2,59.5,374.2,60.2,374.2z"/>
		<path class="st7" d="M63.5,385.4c-0.1-0.3-0.3-0.4-0.4-0.6c-0.6-0.6-1.2-1-1.8-1.5c-1.6-1.2-3.7,1.2-4.4,2.6"/>
		<line class="st7" x1="59.8" y1="377.9" x2="59.9" y2="382.9"/>
		<path class="st8" d="M-1.2,463.8l-13.1-0.4c0,0-2.8-3.7,1-7.5l14.8,1.8C1.6,457.7,1.6,461.2-1.2,463.8z"/>
		<path class="st8" d="M123.6,457.1l13.2-1c0,0,2.6-3.8-1.3-7.5l-15,2.3C120.7,450.9,120.8,454.5,123.6,457.1z"/>
		<path class="st8" d="M80.8,320.1c0,0-6.9,20.2-21.6,16.7c-0.6-0.1-1.2-1.9-1.6-2.2c-0.4,0.4-1.2,2.2-2.1,2.3
			c-14.7,3.7-22.3-14.2-22.3-14.2c2.5-0.7,7.2-0.3,7.2-0.3c5.7,8.4,17,6.4,17,6.4s10,0.1,15.7-8.3C73,320.4,78.3,319.4,80.8,320.1z"
			/>
		<path class="st9" d="M141.5,154.7c0.1-2.8-0.3-5.4-1.5-8.1c-4.1-9.7-13.5-15.1-22.9-19.7c-9.2-4.5-19.1-7.8-29.2-9.5
			c-0.7-0.1-1.5-0.3-2.2-0.4c-8.8-1.6-19.8-1.5-34-0.7c-4.5,0.3-11.9,1.5-16.3,2.8C5.7,128.1-86.3,166.6-8.1,288.9
			c-0.4-13.3,0-27,1.3-40.3c0.7-7.8,1.5-15.5,2.8-23.2c1-6.5,1.9-15.3,5-21c2.9-5.6,9.7-6.6,14.7-10.1c6-4.3,12.6-7.6,19.8-9.2
			c2.1-0.4,4.3-0.6,6.3-0.7c11.1-0.1,22.3,0.7,33.4,1.8c10.9,1,22,2.2,32.3,5.9c4.8,1.8,9.2,5.9,13.8,7.3c4.7,1.5,6.6-6.6,8.1-10.4
			c3.8-10.3,9.8-21.6,11.9-32.4C141.3,156,141.5,155.3,141.5,154.7z"/>
		<g>
			<path class="st2" d="M140.3,159.7c0,0-0.3-0.4-0.9-1.3c-0.6-0.9-1.3-2.1-2.5-3.5c-2.2-2.9-5.7-6.9-10.6-10.9s-11.3-7.9-18.6-10.9
				c-7.3-3.1-15.5-5.1-23.9-6.3c-4.3-0.6-8.4-0.9-12.5-1c-4.1-0.1-8.2,0.1-12.2,0.3c-4,0.3-7.8,0.7-11.3,1.3
				c-3.5,0.6-6.9,1.2-10,1.9c-3.1,0.7-5.9,1.3-8.4,2.1s-4.7,1.3-6.5,1.8c-3.5,1-5.6,1.8-5.6,1.8s2.1-0.6,5.6-1.8
				c1.8-0.6,4-1.2,6.5-1.8c2.5-0.6,5.3-1.3,8.4-2.1s6.5-1.3,10-1.9s7.3-1,11.3-1.3c4-0.3,8.1-0.4,12.2-0.4c4.1,0.1,8.4,0.3,12.6,0.9
				c8.4,1,16.6,3.2,23.9,6.3c7.3,2.9,13.8,6.9,18.6,10.9c5,4,8.5,7.9,10.7,11c1.2,1.5,1.9,2.6,2.5,3.5c0.6,0.9,0.9,1.3,0.9,1.3
				L140.3,159.7z"/>
		</g>
		<g>
			<path class="st2" d="M138,167.4c0,0-0.3-0.4-0.9-1.3c-0.6-0.9-1.5-2.1-2.6-3.4c-2.3-2.9-5.9-6.7-11-10.7
				c-5-3.8-11.4-7.6-18.9-10.6c-7.3-2.9-15.7-5-24.1-5.9c-4.3-0.4-8.5-0.6-12.6-0.6c-4.1,0.1-8.2,0.3-12.2,0.7
				c-4,0.4-7.8,1-11.3,1.8c-3.5,0.7-6.9,1.5-10,2.2c-3.1,0.7-5.9,1.6-8.4,2.3s-4.5,1.5-6.3,2.1c-3.5,1.2-5.6,1.9-5.6,1.9
				s2.1-0.7,5.6-1.9c1.8-0.6,4-1.3,6.3-2.1c2.5-0.7,5.3-1.6,8.4-2.3c3.1-0.7,6.5-1.6,10-2.2c3.5-0.7,7.3-1.3,11.3-1.8
				c4-0.4,8.1-0.7,12.2-0.9c4.1,0,8.4,0.1,12.6,0.6c8.5,0.9,16.7,2.8,24.2,5.7c7.5,2.9,13.9,6.6,18.9,10.6c5.1,3.8,8.7,7.8,11,10.7
				c1.2,1.5,2.1,2.6,2.6,3.4c0.6,0.9,0.9,1.3,0.9,1.3L138,167.4z"/>
		</g>
		<g>
			<path class="st2" d="M134.9,174.8c0,0-0.3-0.4-0.9-1.2c-0.6-0.7-1.5-2.1-2.6-3.4c-0.6-0.7-1.2-1.5-2.1-2.3
				c-0.7-0.9-1.6-1.6-2.5-2.6c-0.9-0.9-1.9-1.8-3.1-2.8c-1.2-0.9-2.3-1.9-3.5-2.9c-2.5-1.9-5.4-3.8-8.7-5.6c-3.2-1.8-6.6-3.4-10.4-5
				c-3.7-1.5-7.6-2.6-11.7-3.7c-4.1-0.9-8.2-1.6-12.5-2.1c-4.3-0.4-8.5-0.6-12.6-0.4c-4.3,0.1-8.4,0.4-12.3,0.9
				c-4,0.4-7.8,1-11.3,1.9c-3.5,0.7-6.9,1.5-10,2.3c-3.1,0.9-5.9,1.6-8.4,2.3c-2.5,0.7-4.5,1.5-6.3,2.1c-3.5,1.2-5.6,1.9-5.6,1.9
				s2.1-0.7,5.6-1.9c1.8-0.6,4-1.3,6.3-2.1c2.5-0.7,5.3-1.6,8.4-2.5c3.1-0.7,6.5-1.6,10-2.3c3.5-0.7,7.3-1.3,11.3-1.9
				c4-0.4,8.1-0.7,12.3-0.9c4.3,0,8.5,0,12.6,0.4c4.3,0.4,8.5,1.2,12.5,2.1c4.1,1,8.1,2.2,11.7,3.7c3.7,1.5,7.2,3.1,10.4,4.8
				c3.2,1.8,6,3.7,8.7,5.6c1.3,1,2.5,1.9,3.5,2.9s2.1,1.9,3.1,2.8c0.9,0.9,1.8,1.8,2.5,2.6c0.7,0.9,1.5,1.6,2.1,2.3
				c1.2,1.5,2.1,2.6,2.6,3.4c0.6,0.7,0.9,1.2,0.9,1.2V174.8z"/>
		</g>
		<g>
			<path class="st2" d="M131.2,183.3c0,0-0.3-0.4-0.9-1.3c-0.6-0.9-1.5-1.9-2.6-3.4c-2.3-2.8-6-6.7-11-10.6
				c-5-3.8-11.6-7.6-18.9-10.4c-7.5-2.9-15.7-4.8-24.2-5.7c-4.3-0.4-8.5-0.6-12.6-0.4c-4.1,0.1-8.2,0.4-12.2,0.9
				c-4,0.4-7.8,1-11.3,1.9c-3.5,0.7-6.9,1.5-10,2.3c-3.1,0.9-5.9,1.6-8.4,2.3s-4.5,1.5-6.3,2.1c-3.5,1.2-5.6,1.9-5.6,1.9
				s2.1-0.7,5.4-1.9c1.8-0.6,4-1.3,6.3-2.1c2.5-0.7,5.3-1.6,8.4-2.5c3.1-0.7,6.5-1.6,10-2.3s7.3-1.3,11.3-1.9
				c4-0.4,8.1-0.7,12.2-0.9c4.1,0,8.5,0,12.6,0.4c8.5,0.7,16.9,2.8,24.2,5.6c7.5,2.8,13.9,6.6,19.1,10.4c5.1,3.8,8.8,7.8,11.1,10.6
				c1.2,1.5,2.1,2.6,2.6,3.4c0.6,0.9,0.9,1.3,0.9,1.3L131.2,183.3z"/>
		</g>
		<g>
			<path class="st2" d="M128.9,189.9c0,0-0.3-0.4-0.9-1.2c-0.6-0.7-1.5-2.1-2.6-3.4c-0.6-0.7-1.2-1.5-2.1-2.3
				c-0.7-0.9-1.6-1.6-2.5-2.6c-0.9-0.9-1.9-1.8-3.1-2.8c-1.2-0.9-2.3-1.9-3.5-2.9c-2.5-1.9-5.4-3.8-8.7-5.6c-3.2-1.8-6.6-3.4-10.4-5
				c-3.7-1.5-7.6-2.6-11.7-3.7c-4.1-0.9-8.2-1.6-12.5-2.1c-4.3-0.4-8.5-0.6-12.6-0.4c-4.3,0.1-8.4,0.4-12.3,0.9
				c-4,0.4-7.8,1-11.3,1.9c-3.5,0.7-6.9,1.5-10,2.3c-3.1,0.9-5.9,1.6-8.4,2.3s-4.5,1.5-6.3,2.1c-3.5,1.2-5.6,1.9-5.6,1.9
				s2.1-0.7,5.6-1.9c1.8-0.6,4-1.3,6.3-2.1c2.5-0.7,5.3-1.6,8.4-2.5c3.1-0.7,6.5-1.6,10-2.3s7.3-1.3,11.3-1.9
				c4-0.4,8.1-0.7,12.3-0.9c4.3,0,8.5,0,12.6,0.4c4.3,0.4,8.5,1.2,12.5,2.1c4.1,1,8.1,2.2,11.7,3.7s7.2,3.1,10.4,4.8
				c3.2,1.8,6,3.7,8.7,5.6c1.3,1,2.5,1.9,3.5,2.9c1,1,2.1,1.9,3.1,2.8c0.9,0.9,1.8,1.8,2.5,2.6c0.7,0.9,1.5,1.6,2.1,2.3
				c1.2,1.5,2.1,2.6,2.6,3.4c0.6,0.7,0.9,1.2,0.9,1.2V189.9z"/>
		</g>
		<g>
			<g>
				<path class="st8" d="M123.4,512.8c-1.4,0-1.7-0.1-0.9-0.2c0.1,0,0.1,0,0.2,0.1C122.8,512.7,123.4,512.8,123.4,512.8z"/>
			</g>
		</g>
		<g id="Layer_2_1_">
		</g>
	</g>
</g>
</svg>
