<?xml version="1.0" encoding="utf-8"?>
<!-- Generator: Adobe Illustrator 19.2.0, SVG Export Plug-In . SVG Version: 6.00 Build 0)  -->
<svg version="1.1" xmlns="http://www.w3.org/2000/svg" xmlns:xlink="http://www.w3.org/1999/xlink" x="0px" y="0px"
	 viewBox="0 0 616.3 550.8" style="enable-background:new 0 0 616.3 550.8;" xml:space="preserve">
<style type="text/css">
	.st0{fill:#A9A8A8;}
	.st1{fill:#DBE691;}
	.st2{fill:#F4F4F4;}
</style>
<g id="Layer_1">
	<rect x="-0.1" y="-0.1" class="st0" width="616.5" height="551"/>
</g>
<g id="Layer_2">
	<rect x="200.2" y="67.5" class="st1" width="207.7" height="73.4"/>
	<path class="st2" d="M299.1,342v175.4c-33.4-83.3-131-173.2-131-173.2c32.1-32.1,54.3-189.7,54.3-189.7h-0.8h0.8h163.1
		c0,0,22.2,157.6,54.3,189.7c0,0-97.6,89.9-131,173.2V342"/>
	<path class="st0" d="M299.9,342c-7.9,0-13-8.2-13-16.4c0-9.2,7.5-16.7,16.7-16.7c9.2,0,16.7,7.5,16.7,16.7
		c0,8.2-4.7,16.4-12.4,16.4"/>
</g>
</svg>
