<svg xmlns="http://www.w3.org/2000/svg" viewBox="-347.6 292.6 41.8 27.5" enable-background="new -347.6 292.6 41.8 27.5"><style type="text/css">.st0{fill:#F4F4F4;}</style><path class="st0" d="M-346.5 318.4v-24.8c.2-.1.4-.2.6-.2 4.6.1 9.3-.1 13.9.2 3.9.3 6.2 3.7 5.2 8.1-.3 1.2-1.6 2.2-2.3 3.2 2.1.5 3.1 2.3 3.3 4.6.3 2.9-.1 5.7-2.9 7.4-1.1.7-2.5 1.3-3.8 1.3-4.5.3-9.4.2-14 .2zm5.6-4.5c2.6 0 5 .1 7.5 0 1.5-.1 2.3-1.3 2.3-3.1 0-1.9-.9-3.3-2.4-3.4-2.4-.1-4.9 0-7.4 0v6.5zm0-10.5h7c1.7 0 1.9-1.3 1.9-2.6.1-1.3-.1-2.7-1.7-2.8-2.4-.2-4.8-.1-7.2-.1v5.5zM-306.5 310.8h-12.7c-.3 2.1.7 3.5 2.7 4.1 2.9.9 4.9-.2 5.9-2.9l3.9.1c.1 1.4-.9 3.4-1.8 4.6-.8.9-1.7 1.7-2.9 2-3 1-6 .7-9-.8-3.9-2-5.4-7.1-3.6-11.9 2-5.6 9.1-8 14-4.6 3.1 2 3.8 5.4 3.5 9.4zm-12.7-3.6h7.8c0-2.2-1.3-3.6-3.4-3.8-2.2-.1-4.2 1.4-4.4 3.8zM-310.2 295v2.8h-10.2v-2.8h10.2z"/></svg>