<?xml version="1.0" encoding="utf-8"?>
<!-- Generator: Adobe Illustrator 19.1.0, SVG Export Plug-In . SVG Version: 6.00 Build 0)  -->
<svg version="1.1" id="Layer_1" xmlns="http://www.w3.org/2000/svg" xmlns:xlink="http://www.w3.org/1999/xlink" x="0px" y="0px"
	 viewBox="-271 362.9 68.1 68.1" style="enable-background:new -271 362.9 68.1 68.1;" xml:space="preserve">
<style type="text/css">
	.st0{fill:#DBE690;}
	.st1{fill:#FFFFFF;}
</style>
<circle class="st0" cx="-236.9" cy="396.9" r="34"/>
<g>
	<path class="st1" d="M-256.5,408.4c0-8.4,0-16.6,0-24.8c0.2-0.1,0.4-0.2,0.6-0.2c4.6,0.1,9.3-0.1,13.9,0.2c3.9,0.3,6.2,3.7,5.2,8.1
		c-0.3,1.2-1.6,2.2-2.3,3.2c2.1,0.5,3.1,2.3,3.3,4.6c0.3,2.9-0.1,5.7-2.9,7.4c-1.1,0.7-2.5,1.3-3.8,1.3
		C-247,408.5-251.8,408.4-256.5,408.4z M-250.8,403.9c2.6,0,5,0.1,7.5,0c1.5-0.1,2.3-1.3,2.3-3.1c0-1.9-0.9-3.3-2.4-3.4
		c-2.4-0.1-4.9,0-7.4,0C-250.8,399.6-250.8,401.6-250.8,403.9z M-250.8,393.4c2.4,0,4.7,0,7,0c1.7,0,1.9-1.3,1.9-2.6
		c0.1-1.3-0.1-2.7-1.7-2.8c-2.4-0.2-4.8-0.1-7.2-0.1C-250.8,389.8-250.8,391.5-250.8,393.4z"/>
	<path class="st1" d="M-216.4,400.8h-12.7c-0.3,2.1,0.7,3.5,2.7,4.1c2.9,0.9,4.9-0.2,5.9-2.9c2,0.1,1.9,0,3.9,0.1
		c0.1,1.4-0.9,3.4-1.8,4.6c-0.8,0.9-1.7,1.7-2.9,2c-3,1-6,0.7-9-0.8c-3.9-2-5.4-7.1-3.6-11.9c2-5.6,9.1-8,14-4.6
		C-216.8,393.4-216.2,396.8-216.4,400.8z M-229.2,397.2c2.7,0,5.3,0,7.8,0c0-2.2-1.3-3.6-3.4-3.8
		C-227,393.3-228.9,394.8-229.2,397.2z"/>
	<path class="st1" d="M-220.2,385c0,1,0,1.9,0,2.8c-3.4,0-6.8,0-10.2,0c0-0.9,0-1.8,0-2.8C-227,385-223.8,385-220.2,385z"/>
</g>
</svg>
