<?xml version="1.0" encoding="utf-8"?>
<!-- Generator: Adobe Illustrator 19.1.0, SVG Export Plug-In . SVG Version: 6.00 Build 0)  -->
<svg version="1.1" id="Layer_1" xmlns="http://www.w3.org/2000/svg" xmlns:xlink="http://www.w3.org/1999/xlink" x="0px" y="0px"
	 viewBox="-271 362.9 68.1 68.1" style="enable-background:new -271 362.9 68.1 68.1;" xml:space="preserve">
<style type="text/css">
	.st0{fill:#DBE690;}
	.st1{fill:#FFFFFF;}
	.st2{fill:#333333;}
</style>
<circle class="st0" cx="-236.9" cy="396.9" r="34"/>
<g>
	<path class="st1" d="M-236.5,400l18.4-11.7c-0.2-0.6-0.7-1.1-1.4-1.1h-34.9c-0.5,0-0.9,0.2-1.2,0.5L-236.5,400z"/>
	<path class="st1" d="M-236.4,400.1l-19.2-12.4v18.9c0,0.8,0.7,1.5,1.5,1.5h34.5c0.8,0,1.5-0.7,1.5-1.5v-18.3L-236.4,400.1z"/>
</g>
<g>
	<path class="st2" d="M-255.6,387.7c1.7,0.9,3.3,1.9,4.9,2.8l4.9,2.9c3.2,1.9,6.4,3.9,9.6,5.9l-0.5,0c3.1-1.9,6.1-3.8,9.2-5.6
		c3.1-1.8,6.2-3.7,9.4-5.4c-2.9,2.1-5.9,4.1-9,6.1c-3,2-6,3.9-9.1,5.8l-0.3,0.2l-0.3-0.2c-3.2-2-6.4-4-9.5-6.1l-4.7-3.1
		C-252.5,389.9-254.1,388.8-255.6,387.7z"/>
</g>
</svg>
