<svg xmlns="http://www.w3.org/2000/svg" viewBox="-374 293.6 41.8 27.4" enable-background="new -374 293.6 41.8 27.4"><style type="text/css">.st0{fill:#F4F4F4;} .st1{fill:#C9C9C9;}</style><path class="st0" d="M-352.8 309.6l18.4-11.7c-.2-.6-.7-1.1-1.4-1.1h-34.9c-.5 0-.9.2-1.2.5l19.1 12.3zM-352.6 309.8l-19.2-12.4v18.9c0 .8.7 1.5 1.5 1.5h34.5c.8 0 1.5-.7 1.5-1.5v-18.3l-18.3 11.8z"/><path class="st1" d="M-371.9 297.5c1.7.9 3.3 1.9 4.9 2.8l4.9 2.9c3.2 1.9 6.4 3.9 9.6 5.9h-.5c3.1-1.9 6.1-3.8 9.2-5.6 3.1-1.8 6.2-3.7 9.4-5.4-2.9 2.1-5.9 4.1-9 6.1-3 2-6 3.9-9.1 5.8l-.3.2-.3-.2c-3.2-2-6.4-4-9.5-6.1l-4.7-3.1c-1.5-1.2-3.1-2.3-4.6-3.3z"/></svg>