<?xml version="1.0" encoding="utf-8"?>
<!-- Generator: Adobe Illustrator 19.1.0, SVG Export Plug-In . SVG Version: 6.00 Build 0)  -->
<svg version="1.1" id="Layer_1" xmlns="http://www.w3.org/2000/svg" xmlns:xlink="http://www.w3.org/1999/xlink" x="0px" y="0px"
	 viewBox="-347.8 293.9 41.8 27.4" style="enable-background:new -347.8 293.9 41.8 27.4;" xml:space="preserve">
<style type="text/css">
	.st0{fill:#F4F4F4;}
	.st1{fill:#C9C9C9;}
</style>
<g>
	<path class="st0" d="M-326.6,309.9l18.4-11.7c-0.2-0.6-0.7-1.1-1.4-1.1h-34.9c-0.5,0-0.9,0.2-1.2,0.5L-326.6,309.9z"/>
	<path class="st0" d="M-326.5,310.1l-19.2-12.4v18.9c0,0.8,0.7,1.5,1.5,1.5h34.5c0.8,0,1.5-0.7,1.5-1.5v-18.3L-326.5,310.1z"/>
</g>
<g>
	<path class="st1" d="M-345.7,297.8c1.7,0.9,3.3,1.9,4.9,2.8l4.9,2.9c3.2,1.9,6.4,3.9,9.6,5.9h-0.5c3.1-1.9,6.1-3.8,9.2-5.6
		c3.1-1.8,6.2-3.7,9.4-5.4c-2.9,2.1-5.9,4.1-9,6.1c-3,2-6,3.9-9.1,5.8l-0.3,0.2l-0.3-0.2c-3.2-2-6.4-4-9.5-6.1l-4.7-3.1
		C-342.6,299.9-344.2,298.8-345.7,297.8z"/>
</g>
</svg>
