<?xml version="1.0" encoding="utf-8"?>
<!-- Generator: Adobe Illustrator 19.1.0, SVG Export Plug-In . SVG Version: 6.00 Build 0)  -->
<svg version="1.1" id="Layer_1" xmlns="http://www.w3.org/2000/svg" xmlns:xlink="http://www.w3.org/1999/xlink" x="0px" y="0px"
	 viewBox="0 0 792 612" style="enable-background:new 0 0 792 612;" xml:space="preserve">
<style type="text/css">
	.st0{clip-path:url(#SVGID_2_);}
	.st1{fill:#C7C7C7;}
	.st2{fill:#D3D3D3;}
	.st3{fill:#BEBEBE;}
	.st4{clip-path:url(#SVGID_2_);fill:#D3D3D3;}
	.st5{opacity:0.19;fill:#FFFFFF;}
	.st6{fill:#C0C0C0;}
	.st7{fill:#C6C6C6;}
	.st8{fill:#0E0E0E;}
	.st9{fill:#717171;}
	.st10{fill:none;stroke:#000000;stroke-miterlimit:10;}
	.st11{fill:#090909;}
	.st12{fill:#333333;}
	.st13{fill:#DBE691;}
</style>
<g>
	<defs>
		<rect id="SVGID_1_" y="0" width="791.2" height="612"/>
	</defs>
	<clipPath id="SVGID_2_">
		<use xlink:href="#SVGID_1_"  style="overflow:visible;"/>
	</clipPath>
	<g class="st0">
		<path class="st1" d="M-16.1,577.6c4.9-10.9,11.9-17.9,24.6-17.2c10.1,0.5,21.7,5.3,29.9,11.2c8.6,6.2,16.7,13.6,26.7,17.5
			c6.7,2.6,14.2,1.2,20.3,3.4c-6.7,8-21.9,7.3-31.3,6.7c-10-0.6-17.8-6.6-25.8-12.2c-7-4.9-12.6-10.7-21.3-9.4
			C0.3,578.6-17.6,589.5-16.1,577.6"/>
	</g>
	<g class="st0">
		<path class="st1" d="M151.5,577.2c5.6-2.3,14.3-1.8,20.5-2.7c5.9-0.9,11.7-2.7,17.2-5.2c15.3-6.9,12.7,2,28.1-0.4
			c-1.2,7.6-0.1,19.8-6.4,24.4c-4.3,3.1-9.5,5.2-13.7,8.3c-5.7,4.2-9.9,8.7-16.3,11.8c-8.4,4-32,9.2-24.1-8.3
			c2.2-4.9,8.6-7.1,6.5-12.8c-1-2.8-4.5-4.2-6.1-6.6c-1.8-2.7-1.6-5.6-4.4-7.8"/>
	</g>
	<g class="st0">
		<path class="st2" d="M39.4,572.8c10.9,0,20.7,0.7,31.6-1.7c15.7-3.4,33.2-9,49.4-6c12,2.3,23.1,9.4,34.7,13.2
			c5.3,1.7,10.8,4.1,16.3,4.9c4.8,0.7,11.9-1,16.2,0.7c-1.6,11.6-36.6,15.6-45.1,14.3c-9.6-1.5-15.9-8.1-23.8-12.7
			c-5.6-3.3-12.5-3.3-18.8-2.8c-10.8,0.9-18.9,9-29.4,10c-13.5,1.3-22.2-11.8-31-19.4"/>
	</g>
	<g class="st0">
		<path class="st2" d="M-16.1,604.3c7.3-0.9,15.8,7,22.9,11.3c8.9,5.4,14.5,14.3,25.1,16.8c19.2,4.6,35.6-4.1,53.6-8.5
			c24.1-5.9,47.6,12.3,72.4,8.4c13.4-2.1,32.2-8.8,40.2-20.7c2.7-4.1,10.1-18.9,0.3-21.2c-9.2,35-57.7,15.5-78.2,7.9
			c-19.8-7.4-35.4,0.2-54,6.8c-21,7.5-31.8-10.5-49.1-17.1c-5.1-2-10.1-2.7-15.5-2.9c-5.1-0.2-17.6-5.3-17.7-0.1
			c-0.1,5.5,0,10.8,0,18.8"/>
	</g>
	<g class="st0">
		<path class="st3" d="M-16.2,580.4c10-6,6.1-4.7,16-6.7c12.3-2.4,20.7,3.1,29.1,11.5c7.9,7.9,19,12.7,30.4,11.6
			c12.7-1.2,23.6-10.1,35.5-14.2c6.6-2.3,15.5-4.5,22.6-2.9c5.7,1.3,10.2,6.1,15.1,8.9c7.2,4.2,14.7,6.9,23,8
			c7.3,0.9,25.7-9.6,32-12.7c-2.8,9.5-10.2,27.3-36,29.4c-12.6,1-21.5-5.6-31.8-10.6c-10.6-5.1-21.9-3.9-31.8,1.9
			c-10.8,6.3-22.9,14.8-36.1,13.8c-9.6-0.7-17.3-9.7-24.2-15.4c-7.9-6.6-15-11.6-25.4-13.7c-8.7-1.8-10-1.9-18.4-1"/>
	</g>
	<path class="st4" d="M214.5,579.8c-8.4,2.3-6.5,0.5-15.4,2c-2.9,0.5-5.8,1-8.7,1.5c-0.7,0.1-2.5,0.2-2.9,0.8
		c-0.3,0.6-0.4,1.1-0.8,1.9c-4.2,10.8-11.6,20.5-22.4,24.7c6.5,1.3,13.4,2.3,19.6,0c6.7-2.6,14.6-5.2,16.5-12.1
		c5.9,0.4,14.2,0.9,14.4-5.1C215,589.3,214.1,585.8,214.5,579.8z"/>
	<g class="st0">
		<path class="st1" d="M203.3,587.2c4.9-10.9,13.5-22.8,26.2-22.2c10.1,0.5,21.7,5.3,29.9,11.2c8.6,6.2,16.7,13.6,26.7,17.5
			c6.7,2.6,14.2,1.2,20.3,3.4c-6.7,8-21.9,7.3-31.3,6.7c-10-0.6-17.8-6.6-25.8-12.2c-7-4.9-12.5-9-21.3-9.4
			C221.9,582,209,583.7,203.3,587.2"/>
	</g>
	<g class="st0">
		<path class="st1" d="M368.5,579.7c6.6-2.4,16.8-2,24-2.9c6.9-0.9,13.6-2.8,20.1-5.5c17.9-7.4,12.2,0.9,30.1-1.7
			c-1.4,8.1,2.6,22.2-4.8,27.1c-5,3.3-11.1,5.5-16.1,8.8c-6.6,4.5-11.6,9.3-19.1,12.6c-9.8,4.3-37.5,9.8-28.2-8.9
			c2.6-5.3,10.1-7.5,7.6-13.6c-1.2-3-5.3-4.5-7.2-7.1c-2.1-2.9-1.8-6-5.1-8.3"/>
	</g>
	<g class="st0">
		<path class="st2" d="M261,577.4c10.9,0,21.4,0.7,32.4-1.7c15.7-3.4,33.2-9,49.4-6c12,2.3,23.1,9.4,34.7,13.2
			c5.3,1.7,10.8,4.1,16.3,4.9c4.8,0.7,10.5-1,14.8,0.7c-1.6,11.6-35.2,15.6-43.8,14.3c-9.6-1.5-15.9-8.1-23.8-12.7
			c-5.6-3.3-12.5-3.3-18.8-2.8c-10.8,0.9-18.9,9-29.4,10c-13.5,1.3-22.2-11.8-31-19.4"/>
	</g>
	<g class="st0">
		<path class="st2" d="M197,623.5c2.7-12,23.8-7.6,30.9-3.3c8.9,5.4,14.5,14.3,25.1,16.8c19.2,4.6,35.6-4.1,53.6-8.5
			c24.1-5.9,47.6,12.3,72.4,8.4c13.4-2.1,32.2-8.8,40.2-20.7c2.7-4.1,10.1-18.9,0.3-21.2c-9.2,35-57.7,15.5-78.2,7.9
			c-19.8-7.4-35.4,0.2-54,6.8c-21,7.5-31.8-10.5-49.1-17.1c-5.1-2-10.1-2.7-15.5-2.9c-5.1-0.2-15-1.8-19.6,0.7
			c-8.3,4.5-5,21.3-5,29.3"/>
	</g>
	<g class="st0">
		<path class="st3" d="M196.3,595.4c5.6-8.7,14.6-15.1,24.6-17c12.3-2.4,20.7,3.1,29.1,11.5c7.9,7.9,19,12.7,30.4,11.6
			c12.7-1.2,23.6-10.1,35.5-14.2c6.6-2.3,15.5-4.5,22.6-2.9c5.7,1.3,10.2,6.1,15.1,8.9c7.2,4.2,14.7,6.9,23,8
			c7.3,0.9,25.7-9.6,32-12.7c-2.8,9.5-10.2,27.3-36,29.4c-12.6,1-21.5-5.6-31.8-10.6c-10.6-5.1-21.9-3.9-31.8,1.9
			c-10.8,6.3-22.9,14.8-36.1,13.8c-9.6-0.7-17.3-9.7-24.2-15.4c-7.9-6.6-15-11.6-25.4-13.7C214.5,592.2,204.4,591.5,196.3,595.4"/>
	</g>
	<path class="st4" d="M435.6,584.4c-8.4,2.3-6.5,0.5-15.4,2c-2.9,0.5-5.8,1-8.7,1.5c-0.7,0.1-2.5,0.2-2.9,0.8
		c-0.3,0.6-0.4,1.1-0.8,1.9c-4.2,10.8-11.6,20.5-22.4,24.7c6.5,1.3,13.4,2.3,19.6,0c6.7-2.6,14.6-5.2,16.5-12.1
		c5.9,0.4,14.2,0.9,14.4-5.1C436,594,435.1,590.4,435.6,584.4z"/>
	<g class="st0">
		<path class="st1" d="M423.7,589c4.9-10.9,13.2-21.6,25.9-21c10.1,0.5,21.7,5.3,29.9,11.2c8.6,6.2,16.7,13.6,26.7,17.5
			c6.7,2.6,14.2,1.2,20.3,3.4c-6.7,8-21.9,7.3-31.3,6.7c-10-0.6-17.8-6.6-25.8-12.2c-7-4.9-12.5-9-21.3-9.4
			C442,585,429.3,585.5,423.7,589"/>
	</g>
	<g class="st0">
		<path class="st1" d="M592.7,584.9c5.6-2.3,14.3-1.8,20.5-2.7c5.9-0.9,9.5-2,15.5-1.3c15.8,1.7,12.1,5.1,27.4,2.7
			c-1.2,7.6,2.2,12.8-4.1,17.4c-4.3,3.1-9.5,5.2-13.7,8.3c-5.7,4.2-9.9,8.7-16.3,11.8c-8.4,4-32,9.2-24.1-8.3
			c2.2-4.9,8.6-7.1,6.5-12.8c-1-2.8-4.5-4.2-6.1-6.6c-1.8-2.7-1.6-5.6-4.4-7.8"/>
	</g>
	<g class="st0">
		<path class="st2" d="M480.2,580.4c10.9,0,22.3,0.7,33.2-1.7c15.7-3.4,33.2-9,49.4-6c12,2.3,23.1,9.4,34.7,13.2
			c5.3,1.7,10.8,4.1,16.3,4.9c4.8,0.7,10.5-1,14.8,0.7c-1.6,11.6-35.2,15.6-43.8,14.3c-9.6-1.5-15.9-8.1-23.8-12.7
			c-5.6-3.3-12.5-3.3-18.8-2.8c-10.8,0.9-18.9,9-29.4,10c-13.5,1.3-22.2-11.8-31-19.4"/>
	</g>
	<g class="st0">
		<path class="st2" d="M417,626.5c2.7-12,23.8-7.6,30.9-3.3c8.9,5.4,14.5,14.3,25.1,16.8c19.2,4.6,35.6-4.1,53.6-8.5
			c24.1-5.9,47.6,12.3,72.4,8.4c13.4-2.1,32.2-8.8,40.2-20.7c2.7-4.1,10.1-18.9,0.3-21.2c-9.2,35-57.7,15.5-78.2,7.9
			c-19.8-7.4-35.4,0.2-54,6.8c-21,7.5-31.8-10.5-49.1-17.1c-5.1-2-10.1-2.7-15.5-2.9c-5.1-0.2-15-1.8-19.6,0.7
			c-8.3,4.5-5,21.3-5,29.3"/>
	</g>
	<g class="st0">
		<path class="st3" d="M416,597.3c5.6-8.7,15-14,25-15.9c12.3-2.4,20.7,3.1,29.1,11.5c7.9,7.9,19,12.7,30.4,11.6
			c12.7-1.2,23.6-10.1,35.5-14.2c6.6-2.3,15.5-4.5,22.6-2.9c5.7,1.3,10.2,6.1,15.1,8.9c7.2,4.2,14.7,6.9,23,8
			c7.3,0.9,25.7-9.6,32-12.7c-2.8,9.5-10.2,27.3-36,29.4c-12.6,1-21.5-5.6-31.8-10.6c-10.6-5.1-21.9-3.9-31.8,1.9
			c-10.8,6.3-22.9,14.8-36.1,13.8c-9.6-0.7-17.3-9.7-24.2-15.4c-7.9-6.6-15-11.6-25.4-13.7C434.5,595.2,424.1,593.4,416,597.3"/>
	</g>
	<path class="st4" d="M655.6,587.4c-8.4,2.3-6.5,0.5-15.4,2c-2.9,0.5-5.8,1-8.7,1.5c-0.7,0.1-2.5,0.2-2.9,0.8
		c-0.3,0.6-0.4,1.1-0.8,1.9c-4.2,10.8-11.6,20.5-22.4,24.7c6.5,1.3,13.4,2.3,19.6,0c6.7-2.6,14.6-5.2,16.5-12.1
		c5.9,0.4,14.2,0.9,14.4-5.1C656.1,597,655.2,593.4,655.6,587.4z"/>
	<g class="st0">
		<path class="st1" d="M641.8,593.5c4.9-10.9,12.7-12.2,25.4-11.6c10.1,0.5,22.2-4,30.4,1.9c8.6,6.2,16.7,13.6,26.7,17.5
			c6.7,2.6,14.2,1.2,20.3,3.4c-6.7,8-21.9,7.3-31.3,6.7c-10-0.6-17.8-6.6-25.8-12.2c-7-4.9-12.5-9-21.3-9.4
			C660.1,589.6,647.5,590,641.8,593.5"/>
	</g>
	<g class="st0">
		<path class="st2" d="M699.9,585.1c10.9,0,20.7,0.7,31.6-1.7c15.7-3.4,33.2-9,49.4-6c12,2.3,15.5,6.5,27,10.3c5.3,1.7-0.1-3,0,2.6
			c0,2,0.2,1.9,0,3.4c-0.2,11.3,3.6,18.2-4.9,16.9c-9.6-1.5-15.9-8.1-23.8-12.7c-5.6-3.3-12.5-3.3-18.8-2.8
			c-10.8,0.9-18.9,9-29.4,10c-13.5,1.3-22.2-11.8-31-19.4"/>
	</g>
	<g class="st0">
		<path class="st2" d="M635.1,631.2c2.7-12,23.8-7.6,30.9-3.3c8.9,5.4,14.5,14.3,25.1,16.8c19.2,4.6,35.6-4.1,53.6-8.5
			c24.1-5.9,47.6,12.3,72.4,8.4c13.4-2.1,32.2-8.8,40.2-20.7c2.7-4.1,10.1-18.9,0.3-21.2c-9.2,35-57.7,15.5-78.2,7.9
			c-19.8-7.4-35.4,0.2-54,6.8c-21,7.5-31.8-10.5-49.1-17.1c-5.1-2-10.1-2.7-15.5-2.9c-5.1-0.2-15-1.8-19.6,0.7
			c-8.3,4.5-5,21.3-5,29.3"/>
	</g>
	<g class="st0">
		<path class="st3" d="M634,601.9c5.6-8.7,15-14,25-15.9c12.3-2.4,20.7,3.1,29.1,11.5c7.9,7.9,19,12.7,30.4,11.6
			c12.7-1.2,23.6-10.1,35.5-14.2c6.6-2.3,15.5-4.5,22.6-2.9c5.7,1.3,10.2,6.1,15.1,8.9c7.2,4.2,14.7,6.9,23,8
			c7.3,0.9,25.7-9.6,32-12.7c-2.8,9.5-10.2,27.3-36,29.4c-12.6,1-21.5-5.6-31.8-10.6c-10.6-5.1-21.9-3.9-31.8,1.9
			c-10.8,6.3-22.9,14.8-36.1,13.8c-9.6-0.7-17.3-9.7-24.2-15.4c-7.9-6.6-15-11.6-25.4-13.7C652.6,599.8,642.2,598,634,601.9"/>
	</g>
	<path class="st4" d="M873.7,592.1c-8.4,2.3-6.5,0.5-15.4,2c-2.9,0.5-5.8,1-8.7,1.5c-0.7,0.1-2.5,0.2-2.9,0.8
		c-0.3,0.6-0.4,1.1-0.8,1.9c-4.2,10.8-11.6,20.5-22.4,24.7c6.5,1.3,13.4,2.3,19.6,0c6.7-2.6,14.6-5.2,16.5-12.1
		c5.9,0.4,14.2,0.9,14.4-5.1C874.2,601.6,873.3,598,873.7,592.1z"/>
	<g class="st0">
		<path class="st1" d="M-16.1,534.8c4.9-10.9,11.9-17.9,24.6-17.2c10.1,0.5,21.7,5.3,29.9,11.2c8.6,6.2,16.7,13.6,26.7,17.5
			c6.7,2.6,14.2,1.2,20.3,3.4c-6.7,8-21.9,7.3-31.3,6.7c-10-0.6-17.8-6.6-25.8-12.2c-7-4.9-12.6-10.7-21.3-9.4
			C0.3,535.8-17.6,546.7-16.1,534.8"/>
	</g>
	<g class="st0">
		<path class="st1" d="M151.5,534.4c5.6-2.3,14.3-1.8,20.5-2.7c5.9-0.9,11.7-2.7,17.2-5.2c15.3-6.9,12.7,2,28.1-0.4
			c-1.2,7.6-0.1,19.8-6.4,24.4c-4.3,3.1-9.5,5.2-13.7,8.3c-5.7,4.2-9.9,8.7-16.3,11.8c-8.4,4-32,9.2-24.1-8.3
			c2.2-4.9,8.6-7.1,6.5-12.8c-1-2.8-4.5-4.2-6.1-6.6c-1.8-2.7-1.6-5.6-4.4-7.8"/>
	</g>
	<g class="st0">
		<path class="st2" d="M39.4,530c10.9,0,20.7,0.7,31.6-1.7c15.7-3.4,33.2-9,49.4-6c12,2.3,23.1,9.4,34.7,13.2
			c5.3,1.7,10.8,4.1,16.3,4.9c4.8,0.7,11.9-1,16.2,0.7c-1.6,11.6-36.6,15.6-45.1,14.3c-9.6-1.5-15.9-8.1-23.8-12.7
			c-5.6-3.3-12.5-3.3-18.8-2.8c-10.8,0.9-18.9,9-29.4,10c-13.5,1.3-22.2-11.8-31-19.4"/>
	</g>
	<g class="st0">
		<path class="st2" d="M-16.1,561.5c7.3-0.9,15.8,7,22.9,11.3c8.9,5.4,14.5,14.3,25.1,16.8c19.2,4.6,35.6-4.1,53.6-8.5
			c24.1-5.9,47.6,12.3,72.4,8.4c13.4-2.1,32.2-8.8,40.2-20.7c2.7-4.1,10.1-18.9,0.3-21.2c-9.2,35-57.7,15.5-78.2,7.9
			c-19.8-7.4-35.4,0.2-54,6.8c-21,7.5-31.8-10.5-49.1-17.1c-5.1-2-10.1-2.7-15.5-2.9c-5.1-0.2-17.6-5.3-17.7-0.1
			c-0.1,5.5,0,10.8,0,18.8"/>
	</g>
	<g class="st0">
		<path class="st3" d="M-16.2,537.6c10-6,6.1-4.7,16-6.7c12.3-2.4,20.7,3.1,29.1,11.5c7.9,7.9,19,12.7,30.4,11.6
			c12.7-1.2,23.6-10.1,35.5-14.2c6.6-2.3,15.5-4.5,22.6-2.9c5.7,1.3,10.2,6.1,15.1,8.9c7.2,4.2,14.7,6.9,23,8
			c7.3,0.9,25.7-9.6,32-12.7c-2.8,9.5-10.2,27.3-36,29.4c-12.6,1-21.5-5.6-31.8-10.6c-10.6-5.1-21.9-3.9-31.8,1.9
			c-10.8,6.3-22.9,14.8-36.1,13.8c-9.6-0.7-17.3-9.7-24.2-15.4c-7.9-6.6-15-11.6-25.4-13.7c-8.7-1.8-10-1.9-18.4-1"/>
	</g>
	<path class="st4" d="M214.5,537c-8.4,2.3-6.5,0.5-15.4,2c-2.9,0.5-5.8,1-8.7,1.5c-0.7,0.1-2.5,0.2-2.9,0.8
		c-0.3,0.6-0.4,1.1-0.8,1.9c-4.2,10.8-11.6,20.5-22.4,24.7c6.5,1.3,13.4,2.3,19.6,0c6.7-2.6,14.6-5.2,16.5-12.1
		c5.9,0.4,14.2,0.9,14.4-5.1C215,546.5,214.1,543,214.5,537z"/>
	<g class="st0">
		<path class="st1" d="M203.3,544.4c4.9-10.9,13.5-22.8,26.2-22.2c10.1,0.5,21.7,5.3,29.9,11.2c8.6,6.2,16.7,13.6,26.7,17.5
			c6.7,2.6,14.2,1.2,20.3,3.4c-6.7,8-21.9,7.3-31.3,6.7c-10-0.6-17.8-6.6-25.8-12.2c-7-4.9-12.5-9-21.3-9.4
			C221.9,539.2,209,540.9,203.3,544.4"/>
	</g>
	<g class="st0">
		<path class="st1" d="M368.5,536.9c6.6-2.4,16.8-2,24-2.9c6.9-0.9,13.6-2.8,20.1-5.5c17.9-7.4,12.2,0.9,30.1-1.7
			c-1.4,8.1,2.6,22.2-4.8,27.1c-5,3.3-11.1,5.5-16.1,8.8c-6.6,4.5-11.6,9.3-19.1,12.6c-9.8,4.3-37.5,9.8-28.2-8.9
			c2.6-5.3,10.1-7.5,7.6-13.6c-1.2-3-5.3-4.5-7.2-7.1c-2.1-2.9-1.8-6-5.1-8.3"/>
	</g>
	<g class="st0">
		<path class="st2" d="M261,534.6c10.9,0,21.4,0.7,32.4-1.7c15.7-3.4,33.2-9,49.4-6c12,2.3,23.1,9.4,34.7,13.2
			c5.3,1.7,10.8,4.1,16.3,4.9c4.8,0.7,10.5-1,14.8,0.7c-1.6,11.6-35.2,15.6-43.8,14.3c-9.6-1.5-15.9-8.1-23.8-12.7
			c-5.6-3.3-12.5-3.3-18.8-2.8c-10.8,0.9-18.9,9-29.4,10c-13.5,1.3-22.2-11.8-31-19.4"/>
	</g>
	<g class="st0">
		<path class="st2" d="M197,580.7c2.7-12,23.8-7.6,30.9-3.3c8.9,5.4,14.5,14.3,25.1,16.8c19.2,4.6,35.6-4.1,53.6-8.5
			c24.1-5.9,47.6,12.3,72.4,8.4c13.4-2.1,32.2-8.8,40.2-20.7c2.7-4.1,10.1-18.9,0.3-21.2c-9.2,35-57.7,15.5-78.2,7.9
			c-19.8-7.4-35.4,0.2-54,6.8c-21,7.5-31.8-10.5-49.1-17.1c-5.1-2-10.1-2.7-15.5-2.9c-5.1-0.2-15-1.8-19.6,0.7
			c-8.3,4.5-5,21.3-5,29.3"/>
	</g>
	<g class="st0">
		<path class="st3" d="M196.3,552.6c5.6-8.7,14.6-15.1,24.6-17c12.3-2.4,20.7,3.1,29.1,11.5c7.9,7.9,19,12.7,30.4,11.6
			c12.7-1.2,23.6-10.1,35.5-14.2c6.6-2.3,15.5-4.5,22.6-2.9c5.7,1.3,10.2,6.1,15.1,8.9c7.2,4.2,14.7,6.9,23,8
			c7.3,0.9,25.7-9.6,32-12.7c-2.8,9.5-10.2,27.3-36,29.4c-12.6,1-21.5-5.6-31.8-10.6c-10.6-5.1-21.9-3.9-31.8,1.9
			c-10.8,6.3-22.9,14.8-36.1,13.8c-9.6-0.7-17.3-9.7-24.2-15.4c-7.9-6.6-15-11.6-25.4-13.7C214.5,549.4,204.4,548.7,196.3,552.6"/>
	</g>
	<path class="st4" d="M435.6,541.6c-8.4,2.3-6.5,0.5-15.4,2c-2.9,0.5-5.8,1-8.7,1.5c-0.7,0.1-2.5,0.2-2.9,0.8
		c-0.3,0.6-0.4,1.1-0.8,1.9c-4.2,10.8-11.6,20.5-22.4,24.7c6.5,1.3,13.4,2.3,19.6,0c6.7-2.6,14.6-5.2,16.5-12.1
		c5.9,0.4,14.2,0.9,14.4-5.1C436,551.2,435.1,547.6,435.6,541.6z"/>
	<g class="st0">
		<path class="st1" d="M423.7,546.2c4.9-10.9,13.2-21.6,25.9-21c10.1,0.5,21.7,5.3,29.9,11.2c8.6,6.2,16.7,13.6,26.7,17.5
			c6.7,2.6,14.2,1.2,20.3,3.4c-6.7,8-21.9,7.3-31.3,6.7c-10-0.6-17.8-6.6-25.8-12.2c-7-4.9-12.5-9-21.3-9.4
			C442,542.1,429.3,542.7,423.7,546.2"/>
	</g>
	<g class="st0">
		<path class="st1" d="M592.7,542.1c5.6-2.3,14.3-1.8,20.5-2.7c5.9-0.9,9.5-2,15.5-1.3c15.8,1.7,12.1,5.1,27.4,2.7
			c-1.2,7.6,2.2,12.8-4.1,17.4c-4.3,3.1-9.5,5.2-13.7,8.3c-5.7,4.2-9.9,8.7-16.3,11.8c-8.4,4-32,9.2-24.1-8.3
			c2.2-4.9,8.6-7.1,6.5-12.8c-1-2.8-4.5-4.2-6.1-6.6c-1.8-2.7-1.6-5.6-4.4-7.8"/>
	</g>
	<g class="st0">
		<path class="st2" d="M480.2,537.6c10.9,0,22.3,0.7,33.2-1.7c15.7-3.4,33.2-9,49.4-6c12,2.3,23.1,9.4,34.7,13.2
			c5.3,1.7,10.8,4.1,16.3,4.9c4.8,0.7,10.5-1,14.8,0.7c-1.6,11.6-35.2,15.6-43.8,14.3c-9.6-1.5-15.9-8.1-23.8-12.7
			c-5.6-3.3-12.5-3.3-18.8-2.8c-10.8,0.9-18.9,9-29.4,10c-13.5,1.3-22.2-11.8-31-19.4"/>
	</g>
	<g class="st0">
		<path class="st2" d="M417,583.7c2.7-12,23.8-7.6,30.9-3.3c8.9,5.4,14.5,14.3,25.1,16.8c19.2,4.6,35.6-4.1,53.6-8.5
			c24.1-5.9,47.6,12.3,72.4,8.4c13.4-2.1,32.2-8.8,40.2-20.7c2.7-4.1,10.1-18.9,0.3-21.2c-9.2,35-57.7,15.5-78.2,7.9
			c-19.8-7.4-35.4,0.2-54,6.8c-21,7.5-31.8-10.5-49.1-17.1c-5.1-2-10.1-2.7-15.5-2.9c-5.1-0.2-15-1.8-19.6,0.7
			c-8.3,4.5-5,21.3-5,29.3"/>
	</g>
	<g class="st0">
		<path class="st3" d="M416,554.5c5.6-8.7,15-14,25-15.9c12.3-2.4,20.7,3.1,29.1,11.5c7.9,7.9,19,12.7,30.4,11.6
			c12.7-1.2,23.6-10.1,35.5-14.2c6.6-2.3,15.5-4.5,22.6-2.9c5.7,1.3,10.2,6.1,15.1,8.9c7.2,4.2,14.7,6.9,23,8
			c7.3,0.9,25.7-9.6,32-12.7c-2.8,9.5-10.2,27.3-36,29.4c-12.6,1-21.5-5.6-31.8-10.6c-10.6-5.1-21.9-3.9-31.8,1.9
			c-10.8,6.3-22.9,14.8-36.1,13.8c-9.6-0.7-17.3-9.7-24.2-15.4c-7.9-6.6-15-11.6-25.4-13.7C434.5,552.4,424.1,550.6,416,554.5"/>
	</g>
	<path class="st4" d="M655.6,544.6c-8.4,2.3-6.5,0.5-15.4,2c-2.9,0.5-5.8,1-8.7,1.5c-0.7,0.1-2.5,0.2-2.9,0.8
		c-0.3,0.6-0.4,1.1-0.8,1.9c-4.2,10.8-11.6,20.5-22.4,24.7c6.5,1.3,13.4,2.3,19.6,0c6.7-2.6,14.6-5.2,16.5-12.1
		c5.9,0.4,14.2,0.9,14.4-5.1C656.1,554.2,655.2,550.6,655.6,544.6z"/>
	<g class="st0">
		<path class="st1" d="M641.8,550.7c4.9-10.9,12.7-12.2,25.4-11.6c10.1,0.5,22.2-4,30.4,1.9c8.6,6.2,16.7,13.6,26.7,17.5
			c6.7,2.6,14.2,1.2,20.3,3.4c-6.7,8-21.9,7.3-31.3,6.7c-10-0.6-17.8-6.6-25.8-12.2c-7-4.9-12.5-9-21.3-9.4
			C660.1,546.8,647.5,547.2,641.8,550.7"/>
	</g>
	<g class="st0">
		<path class="st2" d="M699.9,542.2c10.9,0,20.7,0.7,31.6-1.7c15.7-3.4,33.2-9,49.4-6c12,2.3,15.5,6.5,27,10.3c5.3,1.7-0.1-3,0,2.6
			c0,2,0.2,1.9,0,3.4c-0.2,11.3,3.6,18.2-4.9,16.9c-9.6-1.5-15.9-8.1-23.8-12.7c-5.6-3.3-12.5-3.3-18.8-2.8
			c-10.8,0.9-18.9,9-29.4,10c-13.5,1.3-22.2-11.8-31-19.4"/>
	</g>
	<g class="st0">
		<path class="st2" d="M635.1,588.4c2.7-12,23.8-7.6,30.9-3.3c8.9,5.4,14.5,14.3,25.1,16.8c19.2,4.6,35.6-4.1,53.6-8.5
			c24.1-5.9,47.6,12.3,72.4,8.4c13.4-2.1,32.2-8.8,40.2-20.7c2.7-4.1,10.1-18.9,0.3-21.2c-9.2,35-57.7,15.5-78.2,7.9
			c-19.8-7.4-35.4,0.2-54,6.8c-21,7.5-31.8-10.5-49.1-17.1c-5.1-2-10.1-2.7-15.5-2.9c-5.1-0.2-15-1.8-19.6,0.7
			c-8.3,4.5-5,21.3-5,29.3"/>
	</g>
	<g class="st0">
		<path class="st3" d="M634,559.1c5.6-8.7,15-14,25-15.9c12.3-2.4,20.7,3.1,29.1,11.5c7.9,7.9,19,12.7,30.4,11.6
			c12.7-1.2,23.6-10.1,35.5-14.2c6.6-2.3,15.5-4.5,22.6-2.9c5.7,1.3,10.2,6.1,15.1,8.9c7.2,4.2,14.7,6.9,23,8
			c7.3,0.9,25.7-9.6,32-12.7c-2.8,9.5-10.2,27.3-36,29.4c-12.6,1-21.5-5.6-31.8-10.6c-10.6-5.1-21.9-3.9-31.8,1.9
			c-10.8,6.3-22.9,14.8-36.1,13.8c-9.6-0.7-17.3-9.7-24.2-15.4c-7.9-6.6-15-11.6-25.4-13.7C652.6,557,642.2,555.2,634,559.1"/>
	</g>
	<path class="st4" d="M873.7,549.3c-8.4,2.3-6.5,0.5-15.4,2c-2.9,0.5-5.8,1-8.7,1.5c-0.7,0.1-2.5,0.2-2.9,0.8
		c-0.3,0.6-0.4,1.1-0.8,1.9c-4.2,10.8-11.6,20.5-22.4,24.7c6.5,1.3,13.4,2.3,19.6,0c6.7-2.6,14.6-5.2,16.5-12.1
		c5.9,0.4,14.2,0.9,14.4-5.1C874.2,558.8,873.3,555.2,873.7,549.3z"/>
	<g class="st0">
		<path class="st1" d="M-16.1,513.4c4.9-10.9,11.9-17.9,24.6-17.2c10.1,0.5,21.7,5.3,29.9,11.2c8.6,6.2,16.7,13.6,26.7,17.5
			c6.7,2.6,14.2,1.2,20.3,3.4c-6.7,8-21.9,7.3-31.3,6.7c-10-0.6-17.8-6.6-25.8-12.2c-7-4.9-12.6-10.7-21.3-9.4
			C0.3,514.4-17.6,525.3-16.1,513.4"/>
	</g>
	<g class="st0">
		<path class="st1" d="M151.5,513c5.6-2.3,14.3-1.8,20.5-2.7c5.9-0.9,11.7-2.7,17.2-5.2c15.3-6.9,12.7,2,28.1-0.4
			c-1.2,7.6-0.1,19.8-6.4,24.4c-4.3,3.1-9.5,5.2-13.7,8.3c-5.7,4.2-9.9,8.7-16.3,11.8c-8.4,4-32,9.2-24.1-8.3
			c2.2-4.9,8.6-7.1,6.5-12.8c-1-2.8-4.5-4.2-6.1-6.6c-1.8-2.7-1.6-5.6-4.4-7.8"/>
	</g>
	<g class="st0">
		<path class="st2" d="M39.4,508.6c10.9,0,20.7,0.7,31.6-1.7c15.7-3.4,33.2-9,49.4-6c12,2.3,23.1,9.4,34.7,13.2
			c5.3,1.7,10.8,4.1,16.3,4.9c4.8,0.7,11.9-1,16.2,0.7c-1.6,11.6-36.6,15.6-45.1,14.3c-9.6-1.5-15.9-8.1-23.8-12.7
			c-5.6-3.3-12.5-3.3-18.8-2.8c-10.8,0.9-18.9,9-29.4,10c-13.5,1.3-22.2-11.8-31-19.4"/>
	</g>
	<g class="st0">
		<path class="st3" d="M-16.2,516.2c10-6,6.1-4.7,16-6.7c12.3-2.4,20.7,3.1,29.1,11.5c7.9,7.9,19,12.7,30.4,11.6
			c12.7-1.2,23.6-10.1,35.5-14.2c6.6-2.3,15.5-4.5,22.6-2.9c5.7,1.3,10.2,6.1,15.1,8.9c7.2,4.2,14.7,6.9,23,8
			c7.3,0.9,25.7-9.6,32-12.7c-2.8,9.5-10.2,27.3-36,29.4c-12.6,1-21.5-5.6-31.8-10.6c-10.6-5.1-21.9-3.9-31.8,1.9
			c-10.8,6.3-22.9,14.8-36.1,13.8c-9.6-0.7-17.3-9.7-24.2-15.4c-7.9-6.6-15-11.6-25.4-13.7c-8.7-1.8-10-1.9-18.4-1"/>
	</g>
	<path class="st4" d="M214.5,515.6c-8.4,2.3-6.5,0.5-15.4,2c-2.9,0.5-5.8,1-8.7,1.5c-0.7,0.1-2.5,0.2-2.9,0.8
		c-0.3,0.6-0.4,1.1-0.8,1.9c-4.2,10.8-11.6,20.5-22.4,24.7c6.5,1.3,13.4,2.3,19.6,0c6.7-2.6,14.6-5.2,16.5-12.1
		c5.9,0.4,14.2,0.9,14.4-5.1C215,525.1,214.1,521.6,214.5,515.6z"/>
	<g class="st0">
		<path class="st1" d="M203.3,523c4.9-10.9,13.5-22.8,26.2-22.2c10.1,0.5,21.7,5.3,29.9,11.2c8.6,6.2,16.7,13.6,26.7,17.5
			c6.7,2.6,14.2,1.2,20.3,3.4c-6.7,8-21.9,7.3-31.3,6.7c-10-0.6-17.8-6.6-25.8-12.2c-7-4.9-12.5-9-21.3-9.4
			C221.9,517.8,209,519.5,203.3,523"/>
	</g>
	<g class="st0">
		<path class="st1" d="M368.5,515.5c6.6-2.4,16.8-2,24-2.9c6.9-0.9,13.6-2.8,20.1-5.5c17.9-7.4,12.2,0.9,30.1-1.7
			c-1.4,8.1,2.6,22.2-4.8,27.1c-5,3.3-11.1,5.5-16.1,8.8c-6.6,4.5-11.6,9.3-19.1,12.6c-9.8,4.3-37.5,9.8-28.2-8.9
			c2.6-5.3,10.1-7.5,7.6-13.6c-1.2-3-5.3-4.5-7.2-7.1c-2.1-2.9-1.8-6-5.1-8.3"/>
	</g>
	<g class="st0">
		<path class="st2" d="M261,513.2c10.9,0,21.4,0.7,32.4-1.7c15.7-3.4,33.2-9,49.4-6c12,2.3,23.1,9.4,34.7,13.2
			c5.3,1.7,10.8,4.1,16.3,4.9c4.8,0.7,10.5-1,14.8,0.7c-1.6,11.6-35.2,15.6-43.8,14.3c-9.6-1.5-15.9-8.1-23.8-12.7
			c-5.6-3.3-12.5-3.3-18.8-2.8c-10.8,0.9-18.9,9-29.4,10c-13.5,1.3-22.2-11.8-31-19.4"/>
	</g>
	<g class="st0">
		<path class="st3" d="M196.3,531.2c5.6-8.7,14.6-15.1,24.6-17c12.3-2.4,20.7,3.1,29.1,11.5c7.9,7.9,19,12.7,30.4,11.6
			c12.7-1.2,23.6-10.1,35.5-14.2c6.6-2.3,15.5-4.5,22.6-2.9c5.7,1.3,10.2,6.1,15.1,8.9c7.2,4.2,14.7,6.9,23,8
			c7.3,0.9,25.7-9.6,32-12.7c-2.8,9.5-10.2,27.3-36,29.4c-12.6,1-21.5-5.6-31.8-10.6c-10.6-5.1-21.9-3.9-31.8,1.9
			c-10.8,6.3-22.9,14.8-36.1,13.8c-9.6-0.7-17.3-9.7-24.2-15.4c-7.9-6.6-15-11.6-25.4-13.7C214.5,528,204.4,527.3,196.3,531.2"/>
	</g>
	<path class="st4" d="M435.6,520.2c-8.4,2.3-6.5,0.5-15.4,2c-2.9,0.5-5.8,1-8.7,1.5c-0.7,0.1-2.5,0.2-2.9,0.8
		c-0.3,0.6-0.4,1.1-0.8,1.9c-4.2,10.8-11.6,20.5-22.4,24.7c6.5,1.3,13.4,2.3,19.6,0c6.7-2.6,14.6-5.2,16.5-12.1
		c5.9,0.4,14.2,0.9,14.4-5.1C436,529.8,435.1,526.2,435.6,520.2z"/>
	<g class="st0">
		<path class="st1" d="M423.7,524.8c4.9-10.9,13.2-21.6,25.9-21c10.1,0.5,21.7,5.3,29.9,11.2c8.6,6.2,16.7,13.6,26.7,17.5
			c6.7,2.6,14.2,1.2,20.3,3.4c-6.7,8-21.9,7.3-31.3,6.7c-10-0.6-17.8-6.6-25.8-12.2c-7-4.9-12.5-9-21.3-9.4
			C442,520.7,429.3,521.3,423.7,524.8"/>
	</g>
	<g class="st0">
		<path class="st1" d="M592.7,520.7c5.6-2.3,14.3-1.8,20.5-2.7c5.9-0.9,9.5-2,15.5-1.3c15.8,1.7,12.1,5.1,27.4,2.7
			c-1.2,7.6,2.2,12.8-4.1,17.4c-4.3,3.1-9.5,5.2-13.7,8.3c-5.7,4.2-9.9,8.7-16.3,11.8c-8.4,4-32,9.2-24.1-8.3
			c2.2-4.9,8.6-7.1,6.5-12.8c-1-2.8-4.5-4.2-6.1-6.6c-1.8-2.7-1.6-5.6-4.4-7.8"/>
	</g>
	<g class="st0">
		<path class="st2" d="M480.2,516.2c10.9,0,22.3,0.7,33.2-1.7c15.7-3.4,33.2-9,49.4-6c12,2.3,23.1,9.4,34.7,13.2
			c5.3,1.7,10.8,4.1,16.3,4.9c4.8,0.7,10.5-1,14.8,0.7c-1.6,11.6-35.2,15.6-43.8,14.3c-9.6-1.5-15.9-8.1-23.8-12.7
			c-5.6-3.3-12.5-3.3-18.8-2.8c-10.8,0.9-18.9,9-29.4,10c-13.5,1.3-22.2-11.8-31-19.4"/>
	</g>
	<g class="st0">
		<path class="st2" d="M417,562.3c2.7-12,23.8-7.6,30.9-3.3c8.9,5.4,14.5,14.3,25.1,16.8c19.2,4.6,35.6-4.1,53.6-8.5
			c24.1-5.9,47.6,12.3,72.4,8.4c13.4-2.1,32.2-8.8,40.2-20.7c2.7-4.1,10.1-18.9,0.3-21.2c-9.2,35-57.7,15.5-78.2,7.9
			c-19.8-7.4-35.4,0.2-54,6.8c-21,7.5-31.8-10.5-49.1-17.1c-5.1-2-10.1-2.7-15.5-2.9c-5.1-0.2-15-1.8-19.6,0.7
			c-8.3,4.5-5,21.3-5,29.3"/>
	</g>
	<g class="st0">
		<path class="st1" d="M641.8,529.3c4.9-10.9,12.7-12.2,25.4-11.6c10.1,0.5,22.2-4,30.4,1.9c8.6,6.2,16.7,13.6,26.7,17.5
			c6.7,2.6,14.2,1.2,20.3,3.4c-6.7,8-21.9,7.3-31.3,6.7c-10-0.6-17.8-6.6-25.8-12.2c-7-4.9-12.5-9-21.3-9.4
			C660.1,525.4,647.5,525.8,641.8,529.3"/>
	</g>
	<g class="st0">
		<path class="st2" d="M699.9,520.8c10.9,0,20.7,0.7,31.6-1.7c15.7-3.4,33.2-9,49.4-6c12,2.3,15.5,6.5,27,10.3c5.3,1.7-0.1-3,0,2.6
			c0,2,0.2,1.9,0,3.4c-0.2,11.3,3.6,18.2-4.9,16.9c-9.6-1.5-15.9-8.1-23.8-12.7c-5.6-3.3-12.5-3.3-18.8-2.8
			c-10.8,0.9-18.9,9-29.4,10c-13.5,1.3-22.2-11.8-31-19.4"/>
	</g>
	<path class="st4" d="M873.7,527.9c-8.4,2.3-6.5,0.5-15.4,2c-2.9,0.5-5.8,1-8.7,1.5c-0.7,0.1-2.5,0.2-2.9,0.8
		c-0.3,0.6-0.4,1.1-0.8,1.9c-4.2,10.8-11.6,20.5-22.4,24.7c6.5,1.3,13.4,2.3,19.6,0c6.7-2.6,14.6-5.2,16.5-12.1
		c5.9,0.4,14.2,0.9,14.4-5.1C874.2,537.4,873.3,533.8,873.7,527.9z"/>
	<g class="st0">
		<path class="st1" d="M-16.1,470.6c4.9-10.9,11.9-17.9,24.6-17.2c10.1,0.5,21.7,5.3,29.9,11.2c8.6,6.2,16.7,13.6,26.7,17.5
			c6.7,2.6,14.2,1.2,20.3,3.4c-6.7,8-21.9,7.3-31.3,6.7c-10-0.6-17.8-6.6-25.8-12.2c-7-4.9-12.6-10.7-21.3-9.4
			C0.3,471.6-17.6,482.5-16.1,470.6"/>
	</g>
	<g class="st0">
		<path class="st1" d="M151.5,470.2c5.6-2.3,14.3-1.8,20.5-2.7c5.9-0.9,11.7-2.7,17.2-5.2c15.3-6.9,12.7,2,28.1-0.4
			c-1.2,7.6-0.1,19.8-6.4,24.4c-4.3,3.1-9.5,5.2-13.7,8.3c-5.7,4.2-9.9,8.7-16.3,11.8c-8.4,4-32,9.2-24.1-8.3
			c2.2-4.9,8.6-7.1,6.5-12.8c-1-2.8-4.5-4.2-6.1-6.6c-1.8-2.7-1.6-5.6-4.4-7.8"/>
	</g>
	<g class="st0">
		<path class="st2" d="M39.4,465.8c10.9,0,20.7,0.7,31.6-1.7c15.7-3.4,33.2-9,49.4-6c12,2.3,23.1,9.4,34.7,13.2
			c5.3,1.7,10.8,4.1,16.3,4.9c4.8,0.7,11.9-1,16.2,0.7c-1.6,11.6-36.6,15.6-45.1,14.3c-9.6-1.5-15.9-8.1-23.8-12.7
			c-5.6-3.3-12.5-3.3-18.8-2.8c-10.8,0.9-18.9,9-29.4,10c-13.5,1.3-22.2-11.8-31-19.4"/>
	</g>
	<g class="st0">
		<path class="st2" d="M-16.1,497.3c7.3-0.9,15.8,7,22.9,11.3c8.9,5.4,14.5,14.3,25.1,16.8c19.2,4.6,35.6-4.1,53.6-8.5
			c24.1-5.9,47.6,12.3,72.4,8.4c13.4-2.1,32.2-8.8,40.2-20.7c2.7-4.1,10.1-18.9,0.3-21.2c-9.2,35-57.7,15.5-78.2,7.9
			c-19.8-7.4-35.4,0.2-54,6.8c-21,7.5-31.8-10.5-49.1-17.1c-5.1-2-10.1-2.7-15.5-2.9c-5.1-0.2-17.6-5.3-17.7-0.1
			c-0.1,5.5,0,10.8,0,18.8"/>
	</g>
	<g class="st0">
		<path class="st3" d="M-16.2,473.4c10-6,6.1-4.7,16-6.7c12.3-2.4,20.7,3.1,29.1,11.5c7.9,7.9,19,12.7,30.4,11.6
			c12.7-1.2,23.6-10.1,35.5-14.2c6.6-2.3,15.5-4.5,22.6-2.9c5.7,1.3,10.2,6.1,15.1,8.9c7.2,4.2,14.7,6.9,23,8
			c7.3,0.9,25.7-9.6,32-12.7c-2.8,9.5-10.2,27.3-36,29.4c-12.6,1-21.5-5.6-31.8-10.6c-10.6-5.1-21.9-3.9-31.8,1.9
			c-10.8,6.3-22.9,14.8-36.1,13.8c-9.6-0.7-17.3-9.7-24.2-15.4c-7.9-6.6-15-11.6-25.4-13.7c-8.7-1.8-10-1.9-18.4-1"/>
	</g>
	<path class="st4" d="M214.5,472.8c-8.4,2.3-6.5,0.5-15.4,2c-2.9,0.5-5.8,1-8.7,1.5c-0.7,0.1-2.5,0.2-2.9,0.8
		c-0.3,0.6-0.4,1.1-0.8,1.9c-4.2,10.8-11.6,20.5-22.4,24.7c6.5,1.3,13.4,2.3,19.6,0c6.7-2.6,14.6-5.2,16.5-12.1
		c5.9,0.4,14.2,0.9,14.4-5.1C215,482.3,214.1,478.8,214.5,472.8z"/>
	<g class="st0">
		<path class="st1" d="M203.3,480.2c4.9-10.9,13.5-22.8,26.2-22.2c10.1,0.5,21.7,5.3,29.9,11.2c8.6,6.2,16.7,13.6,26.7,17.5
			c6.7,2.6,14.2,1.2,20.3,3.4c-6.7,8-21.9,7.3-31.3,6.7c-10-0.6-17.8-6.6-25.8-12.2c-7-4.9-12.5-9-21.3-9.4
			C221.9,474.9,209,476.7,203.3,480.2"/>
	</g>
	<g class="st0">
		<path class="st1" d="M368.5,472.7c6.6-2.4,16.8-2,24-2.9c6.9-0.9,13.6-2.8,20.1-5.5c17.9-7.4,12.2,0.9,30.1-1.7
			c-1.4,8.1,2.6,22.2-4.8,27.1c-5,3.3-11.1,5.5-16.1,8.8c-6.6,4.5-11.6,9.3-19.1,12.6c-9.8,4.3-37.5,9.8-28.2-8.9
			c2.6-5.3,10.1-7.5,7.6-13.6c-1.2-3-5.3-4.5-7.2-7.1c-2.1-2.9-1.8-6-5.1-8.3"/>
	</g>
	<g class="st0">
		<path class="st2" d="M261,470.4c10.9,0,21.4,0.7,32.4-1.7c15.7-3.4,33.2-9,49.4-6c12,2.3,23.1,9.4,34.7,13.2
			c5.3,1.7,10.8,4.1,16.3,4.9c4.8,0.7,10.5-1,14.8,0.7c-1.6,11.6-35.2,15.6-43.8,14.3c-9.6-1.5-15.9-8.1-23.8-12.7
			c-5.6-3.3-12.5-3.3-18.8-2.8c-10.8,0.9-18.9,9-29.4,10c-13.5,1.3-22.2-11.8-31-19.4"/>
	</g>
	<g class="st0">
		<path class="st2" d="M197,516.5c2.7-12,23.8-7.6,30.9-3.3c8.9,5.4,14.5,14.3,25.1,16.8c19.2,4.6,35.6-4.1,53.6-8.5
			c24.1-5.9,47.6,12.3,72.4,8.4c13.4-2.1,32.2-8.8,40.2-20.7c2.7-4.1,10.1-18.9,0.3-21.2c-9.2,35-57.7,15.5-78.2,7.9
			c-19.8-7.4-35.4,0.2-54,6.8c-21,7.5-31.8-10.5-49.1-17.1c-5.1-2-10.1-2.7-15.5-2.9c-5.1-0.2-15-1.8-19.6,0.7
			c-8.3,4.5-5,21.3-5,29.3"/>
	</g>
	<g class="st0">
		<path class="st3" d="M196.3,488.4c5.6-8.7,14.6-15.1,24.6-17c12.3-2.4,20.7,3.1,29.1,11.5c7.9,7.9,19,12.7,30.4,11.6
			c12.7-1.2,23.6-10.1,35.5-14.2c6.6-2.3,15.5-4.5,22.6-2.9c5.7,1.3,10.2,6.1,15.1,8.9c7.2,4.2,14.7,6.9,23,8
			c7.3,0.9,25.7-9.6,32-12.7c-2.8,9.5-10.2,27.3-36,29.4c-12.6,1-21.5-5.6-31.8-10.6c-10.6-5.1-21.9-3.9-31.8,1.9
			c-10.8,6.3-22.9,14.8-36.1,13.8c-9.6-0.7-17.3-9.7-24.2-15.4c-7.9-6.6-15-11.6-25.4-13.7C214.5,485.2,204.4,484.5,196.3,488.4"/>
	</g>
	<path class="st4" d="M435.6,477.4c-8.4,2.3-6.5,0.5-15.4,2c-2.9,0.5-5.8,1-8.7,1.5c-0.7,0.1-2.5,0.2-2.9,0.8
		c-0.3,0.6-0.4,1.1-0.8,1.9c-4.2,10.8-11.6,20.5-22.4,24.7c6.5,1.3,13.4,2.3,19.6,0c6.7-2.6,14.6-5.2,16.5-12.1
		c5.9,0.4,14.2,0.9,14.4-5.1C436,487,435.1,483.4,435.6,477.4z"/>
	<g class="st0">
		<path class="st1" d="M423.7,482c4.9-10.9,13.2-21.6,25.9-21c10.1,0.5,21.7,5.3,29.9,11.2c8.6,6.2,16.7,13.6,26.7,17.5
			c6.7,2.6,14.2,1.2,20.3,3.4c-6.7,8-21.9,7.3-31.3,6.7c-10-0.6-17.8-6.6-25.8-12.2c-7-4.9-12.5-9-21.3-9.4
			C442,477.9,429.3,478.5,423.7,482"/>
	</g>
	<g class="st0">
		<path class="st1" d="M592.7,477.9c5.6-2.3,14.3-1.8,20.5-2.7c5.9-0.9,9.5-2,15.5-1.3c15.8,1.7,12.1,5.1,27.4,2.7
			c-1.2,7.6,2.2,12.8-4.1,17.4c-4.3,3.1-9.5,5.2-13.7,8.3c-5.7,4.2-9.9,8.7-16.3,11.8c-8.4,4-32,9.2-24.1-8.3
			c2.2-4.9,8.6-7.1,6.5-12.8c-1-2.8-4.5-4.2-6.1-6.6c-1.8-2.7-1.6-5.6-4.4-7.8"/>
	</g>
	<g class="st0">
		<path class="st2" d="M480.2,473.4c10.9,0,22.3,0.7,33.2-1.7c15.7-3.4,33.2-9,49.4-6c12,2.3,23.1,9.4,34.7,13.2
			c5.3,1.7,10.8,4.1,16.3,4.9c4.8,0.7,10.5-1,14.8,0.7c-1.6,11.6-35.2,15.6-43.8,14.3c-9.6-1.5-15.9-8.1-23.8-12.7
			c-5.6-3.3-12.5-3.3-18.8-2.8c-10.8,0.9-18.9,9-29.4,10c-13.5,1.3-22.2-11.8-31-19.4"/>
	</g>
	<g class="st0">
		<path class="st2" d="M417,519.5c2.7-12,23.8-7.6,30.9-3.3c8.9,5.4,14.5,14.3,25.1,16.8c19.2,4.6,35.6-4.1,53.6-8.5
			c24.1-5.9,47.6,12.3,72.4,8.4c13.4-2.1,32.2-8.8,40.2-20.7c2.7-4.1,10.1-18.9,0.3-21.2c-9.2,35-57.7,15.5-78.2,7.9
			c-19.8-7.4-35.4,0.2-54,6.8c-21,7.5-31.8-10.5-49.1-17.1c-5.1-2-10.1-2.7-15.5-2.9c-5.1-0.2-15-1.8-19.6,0.7
			c-8.3,4.5-5,21.3-5,29.3"/>
	</g>
	<g class="st0">
		<path class="st3" d="M416,490.3c5.6-8.7,15-14,25-15.9c12.3-2.4,20.7,3.1,29.1,11.5c7.9,7.9,19,12.7,30.4,11.6
			c12.7-1.2,23.6-10.1,35.5-14.2c6.6-2.3,15.5-4.5,22.6-2.9c5.7,1.3,10.2,6.1,15.1,8.9c7.2,4.2,14.7,6.9,23,8
			c7.3,0.9,25.7-9.6,32-12.7c-2.8,9.5-10.2,27.3-36,29.4c-12.6,1-21.5-5.6-31.8-10.6c-10.6-5.1-21.9-3.9-31.8,1.9
			c-10.8,6.3-22.9,14.8-36.1,13.8c-9.6-0.7-17.3-9.7-24.2-15.4c-7.9-6.6-15-11.6-25.4-13.7C434.5,488.2,424.1,486.4,416,490.3"/>
	</g>
	<path class="st4" d="M655.6,480.4c-8.4,2.3-6.5,0.5-15.4,2c-2.9,0.5-5.8,1-8.7,1.5c-0.7,0.1-2.5,0.2-2.9,0.8
		c-0.3,0.6-0.4,1.1-0.8,1.9c-4.2,10.8-11.6,20.5-22.4,24.7c6.5,1.3,13.4,2.3,19.6,0c6.7-2.6,14.6-5.2,16.5-12.1
		c5.9,0.4,14.2,0.9,14.4-5.1C656.1,490,655.2,486.4,655.6,480.4z"/>
	<g class="st0">
		<path class="st1" d="M641.8,486.5c4.9-10.9,12.7-12.2,25.4-11.6c10.1,0.5,22.2-4,30.4,1.9c8.6,6.2,16.7,13.6,26.7,17.5
			c6.7,2.6,14.2,1.2,20.3,3.4c-6.7,8-21.9,7.3-31.3,6.7c-10-0.6-17.8-6.6-25.8-12.2c-7-4.9-12.5-9-21.3-9.4
			C660.1,482.6,647.5,483,641.8,486.5"/>
	</g>
	<g class="st0">
		<path class="st2" d="M699.9,478c10.9,0,20.7,0.7,31.6-1.7c15.7-3.4,33.2-9,49.4-6c12,2.3,15.5,6.5,27,10.3c5.3,1.7-0.1-3,0,2.6
			c0,2,0.2,1.9,0,3.4c-0.2,11.3,3.6,18.2-4.9,16.9c-9.6-1.5-15.9-8.1-23.8-12.7c-5.6-3.3-12.5-3.3-18.8-2.8
			c-10.8,0.9-18.9,9-29.4,10c-13.5,1.3-22.2-11.8-31-19.4"/>
	</g>
	<g class="st0">
		<path class="st2" d="M635.1,524.2c2.7-12,23.8-7.6,30.9-3.3c8.9,5.4,14.5,14.3,25.1,16.8c19.2,4.6,35.6-4.1,53.6-8.5
			c24.1-5.9,47.6,12.3,72.4,8.4c13.4-2.1,32.2-8.8,40.2-20.7c2.7-4.1,10.1-18.9,0.3-21.2c-9.2,35-57.7,15.5-78.2,7.9
			c-19.8-7.4-35.4,0.2-54,6.8c-21,7.5-31.8-10.5-49.1-17.1c-5.1-2-10.1-2.7-15.5-2.9c-5.1-0.2-15-1.8-19.6,0.7
			c-8.3,4.5-5,21.3-5,29.3"/>
	</g>
	<g class="st0">
		<path class="st3" d="M634,494.9c5.6-8.7,15-14,25-15.9c12.3-2.4,20.7,3.1,29.1,11.5c7.9,7.9,19,12.7,30.4,11.6
			c12.7-1.2,23.6-10.1,35.5-14.2c6.6-2.3,15.5-4.5,22.6-2.9c5.7,1.3,10.2,6.1,15.1,8.9c7.2,4.2,14.7,6.9,23,8
			c7.3,0.9,25.7-9.6,32-12.7c-2.8,9.5-10.2,27.3-36,29.4c-12.6,1-21.5-5.6-31.8-10.6c-10.6-5.1-21.9-3.9-31.8,1.9
			c-10.8,6.3-22.9,14.8-36.1,13.8c-9.6-0.7-17.3-9.7-24.2-15.4c-7.9-6.6-15-11.6-25.4-13.7C652.6,492.8,642.2,491,634,494.9"/>
	</g>
	<path class="st4" d="M873.7,485.1c-8.4,2.3-6.5,0.5-15.4,2c-2.9,0.5-5.8,1-8.7,1.5c-0.7,0.1-2.5,0.2-2.9,0.8
		c-0.3,0.6-0.4,1.1-0.8,1.9c-4.2,10.8-11.6,20.5-22.4,24.7c6.5,1.3,13.4,2.3,19.6,0c6.7-2.6,14.6-5.2,16.5-12.1
		c5.9,0.4,14.2,0.9,14.4-5.1C874.2,494.6,873.3,491,873.7,485.1z"/>
	<path class="st4" d="M652,587.5c-9.8,1.9-20.1,1.1-29.6-2.2c-2-0.7-4.4-2-4.5-4.1c-0.1-1.3,0.7-2.4,1.5-3.3
		c4.6-5.1,12-6.2,18.9-6.4c5.5-0.2,11.3,0.1,15.9,3.1c2.1,1.4,4,3.9,3.2,6.3c-0.7,1.9-2.8,2.8-4.7,3.4c-3.1,1.1-6.3,2.2-9.4,3.4"/>
	<path class="st4" d="M652,524.8c-9.8,1.9-20.1,1.1-29.6-2.2c-2-0.7-4.4-2-4.5-4.1c-0.1-1.3,0.7-2.4,1.5-3.3
		c4.6-5.1,12-6.2,18.9-6.4c5.5-0.2,11.3,0.1,15.9,3.1c2.1,1.4,4,3.9,3.2,6.3c-0.7,1.9-2.8,2.8-4.7,3.4c-3.1,1.1-6.3,2.2-9.4,3.4"/>
	<g class="st0">
		<path class="st3" d="M416,533.1c5.6-8.7,15-14,25-15.9c12.3-2.4,20.7,3.1,29.1,11.5c7.9,7.9,19,12.7,30.4,11.6
			c12.7-1.2,23.6-10.1,35.5-14.2c6.6-2.3,15.5-4.5,22.6-2.9c5.7,1.3,10.2,6.1,15.1,8.9c7.2,4.2,14.7,6.9,23,8
			c7.3,0.9,25.7-9.6,32-12.7c-2.8,9.5-10.2,27.3-36,29.4c-12.6,1-21.5-5.6-31.8-10.6c-10.6-5.1-21.9-3.9-31.8,1.9
			c-10.8,6.3-22.9,14.8-36.1,13.8c-9.6-0.7-17.3-9.7-24.2-15.4c-7.9-6.6-15-11.6-25.4-13.7C434.5,531,424.1,529.2,416,533.1"/>
	</g>
	<path class="st4" d="M655.6,523.2c-8.4,2.3-6.5,0.5-15.4,2c-2.9,0.5-5.8,1-8.7,1.5c-0.7,0.1-2.5,0.2-2.9,0.8
		c-0.3,0.6-0.4,1.1-0.8,1.9c-4.2,10.8-11.6,20.5-22.4,24.7c6.5,1.3,13.4,2.3,19.6,0c6.7-2.6,14.6-5.2,16.5-12.1
		c5.9,0.4,14.2,0.9,14.4-5.1C656.1,532.8,655.2,529.2,655.6,523.2z"/>
	<g class="st0">
		<path class="st2" d="M635.1,567c2.7-12,23.8-7.6,30.9-3.3c8.9,5.4,14.5,14.3,25.1,16.8c19.2,4.6,35.6-4.1,53.6-8.5
			c24.1-5.9,47.6,12.3,72.4,8.4c13.4-2.1,32.2-8.8,40.2-20.7c2.7-4.1,10.1-18.9,0.3-21.2c-9.2,35-57.7,15.5-78.2,7.9
			c-19.8-7.4-35.4,0.2-54,6.8c-21,7.5-31.8-10.5-49.1-17.1c-5.1-2-10.1-2.7-15.5-2.9c-5.1-0.2-15-1.8-19.6,0.7
			c-8.3,4.5-5,21.3-5,29.3"/>
	</g>
	<g class="st0">
		<path class="st2" d="M878.2,449c2.7-12,23.8-7.6,30.9-3.3c8.9,5.4,14.5,14.3,25.1,16.8c19.2,4.6,35.6-4.1,53.6-8.5
			c24.1-5.9,47.6,12.3,72.4,8.4c13.4-2.1,32.2-8.8,40.2-20.7c2.7-4.1,10.1-18.9,0.3-21.2c-9.2,35-57.7,15.5-78.2,7.9
			c-19.8-7.4-35.4,0.2-54,6.8c-21,7.5-31.8-10.5-49.1-17.1c-5.1-2-10.1-2.7-15.5-2.9c-5.1-0.2-15-1.8-19.6,0.7
			c-8.3,4.5-5,21.3-5,29.3"/>
	</g>
	<g class="st0">
		<path class="st3" d="M634,537.7c5.6-8.7,15-14,25-15.9c12.3-2.4,20.7,3.1,29.1,11.5c7.9,7.9,19,12.7,30.4,11.6
			c12.7-1.2,23.6-10.1,35.5-14.2c6.6-2.3,15.5-4.5,22.6-2.9c5.7,1.3,10.2,6.1,15.1,8.9c7.2,4.2,14.7,6.9,23,8
			c7.3,0.9,25.7-9.6,32-12.7c-2.8,9.5-10.2,27.3-36,29.4c-12.6,1-21.5-5.6-31.8-10.6c-10.6-5.1-21.9-3.9-31.8,1.9
			c-10.8,6.3-22.9,14.8-36.1,13.8c-9.6-0.7-17.3-9.7-24.2-15.4c-7.9-6.6-15-11.6-25.4-13.7C652.6,535.6,642.2,533.8,634,537.7"/>
	</g>
	<g class="st0">
		<path class="st2" d="M-16.1,540.1c7.3-0.9,15.8,7,22.9,11.3c8.9,5.4,14.5,14.3,25.1,16.8c19.2,4.6,35.6-4.1,53.6-8.5
			c24.1-5.9,47.6,12.3,72.4,8.4c13.4-2.1,32.2-8.8,40.2-20.7c2.7-4.1,10.1-18.9,0.3-21.2c-9.2,35-57.7,15.5-78.2,7.9
			c-19.8-7.4-35.4,0.2-54,6.8c-21,7.5-31.8-10.5-49.1-17.1c-5.1-2-10.1-2.7-15.5-2.9c-5.1-0.2-17.6-5.3-17.7-0.1
			c-0.1,5.5,0,10.8,0,18.8"/>
	</g>
	<g class="st0">
		<path class="st2" d="M197,559.3c2.7-12,23.8-7.6,30.9-3.3c8.9,5.4,14.5,14.3,25.1,16.8c19.2,4.6,35.6-4.1,53.6-8.5
			c24.1-5.9,47.6,12.3,72.4,8.4c13.4-2.1,32.2-8.8,40.2-20.7c2.7-4.1,10.1-18.9,0.3-21.2c-9.2,35-57.7,15.5-78.2,7.9
			c-19.8-7.4-35.4,0.2-54,6.8c-21,7.5-31.8-10.5-49.1-17.1c-5.1-2-10.1-2.7-15.5-2.9c-5.1-0.2-15-1.8-19.6,0.7
			c-8.3,4.5-5,21.3-5,29.3"/>
	</g>
</g>
<path d="M583.4,538.6c0,0-18.1-56,102.5-81.4c0,0-56.8,61.2-30.1,81.4H583.4z"/>
<path class="st5" d="M588.2,532c-1.3-4,0.3-8.4,2-12.2c2.4-5.4,5.1-10.6,8.6-15.3c8.7-11.8,21.6-19.9,35.1-25.5
	c13.5-5.6,31.1-13.1,45.1-17.4c-22.6,16.9-51.6,35.3-67.5,59.1c-2.5,3.7-6.4,6.4-10.3,8.7c-3.9,2.3-8.5,3.6-12.9,2.6"/>
<g>
	<path class="st2" d="M540.8,552.6c2.4-10.6,21.1-6.7,27.3-2.9c7.9,4.7,12.8,12.6,22.2,14.8c17,4,31.5-3.6,47.4-7.5
		c21.3-5.2,42.1,10.8,64,7.4c11.8-1.8,28.5-7.7,35.5-18.3c2.4-3.6,8.9-16.6,0.2-18.7c-8.1,30.8-51,13.7-69.1,6.9
		c-17.5-6.5-31.3,0.2-47.7,6c-18.6,6.6-28.1-9.2-43.3-15.1c-4.5-1.7-8.9-2.4-13.7-2.6c-4.5-0.1-13.3-1.6-17.3,0.6
		c-7.4,4-4.4,18.8-4.4,25.8"/>
</g>
<g>
	<path class="st3" d="M539.9,526.9c4.9-7.7,13.3-12.3,22.1-14c10.9-2.1,18.2,2.7,25.7,10.1c7,6.9,16.8,11.2,26.9,10.2
		c11.3-1.1,20.9-8.9,31.4-12.5c5.8-2,13.7-3.9,19.9-2.5c5,1.1,9,5.3,13.4,7.9c6.4,3.7,13,6.1,20.3,7c6.4,0.8,22.7-8.5,28.3-11.2
		c-2.4,8.3-9,24.1-31.8,25.9c-11.1,0.9-19-5-28.1-9.4c-9.4-4.5-19.4-3.4-28.1,1.7c-9.5,5.6-20.2,13.1-31.9,12.2
		c-8.5-0.6-15.3-8.5-21.4-13.6c-7-5.8-13.3-10.2-22.4-12.1C556.3,525,547,523.5,539.9,526.9"/>
</g>
<g>
	<ellipse class="st6" cx="120.9" cy="417.4" rx="33.8" ry="30.1"/>
	
		<ellipse transform="matrix(0.9963 8.587866e-02 -8.587866e-02 0.9963 36.8161 -17.1525)" class="st6" cx="217.8" cy="419.3" rx="33.8" ry="30.1"/>
	<path class="st7" d="M136.3,444c4.3,3.9,10.4,11.9-4.7,16.8c-0.7,0.2-1.4,0.4-2.1,0.5c-4.3,0.6-19.6,2.1-32.2-2.5
		c-2.1-0.8-3.8-2.2-4.7-4c-1.8-3.6-3.3-9.7,5-13c0.4-0.1,0.7-0.3,1.1-0.4c3.2-0.8,18.4-4.4,31.3-0.9
		C132.5,441.3,134.6,442.5,136.3,444z"/>
	<path class="st8" d="M131.6,460.5c0,0,24.3,64.2,2.8,65c0,0-60.1,8.5-50.3-17.5l13.2-50.1C97.3,458.1,109.3,465.7,131.6,460.5z"/>
	<path d="M135.8,429.9c-1.4,1.9-3,3.7-4,5.9c-0.9,2.2-1,5,0.6,6.7c1.6,1.8,4.4,1.9,6.8,1.7c5.3-0.3,10.8-1.4,14.9-4.9
		c4.8-4.1,6.4-10.7,7.4-16.9c2-12.4,2.2-26-4.3-36.8c1,4,1.3,8.2,1,12.3c-3.4-0.6-6.3-2.9-9.1-5c-10.1-7.5-22.2-12.4-34.8-13.2
		c-12.5-0.7-25.5-0.5-35.2,7.5c6.3-1.1,12.7,2.1,19,3c-6.2,0-13.5-1.4-19,1.5c10.4,2,13.5,9.5,19.7,12.7c3.6,1.9,7.2,3.8,11.1,4.7
		c3.7,0.8,7.5,0.8,11.3,1c5.2,0.2,10.3,0.9,15.4,2.1c1.1,0.3,2.4,0.6,3.1,1.5c0.9,1.1,1,2.7,0.8,4.1
		C140.1,422.1,138.4,426.3,135.8,429.9z"/>
	<path d="M135.2,467.6c10.5,28.8,37.5,27.1,37.5,27.1c-41.1,17.7-49.9-21.8-49.9-21.8l-1.2-4.4l9.9-7.9L135.2,467.6z"/>
	<path class="st9" d="M195.9,469c-10.5,28.8-37.5,27.1-37.5,27.1c41.1,17.7,49.9-21.8,49.9-21.8l1.2-4.4l-9.9-7.9L195.9,469z"/>
	<path class="st7" d="M103.4,462.2c-10.9,2.4-16.5,15.8-27.4,18.5c-2.3-4.6-4.2-9.3-5.9-14.1c3.2,1.2,6.9,0.2,9.9-1.4s5.6-4,8.4-6
		c6.3-4.4,13.9-6.9,21.6-7.1c3.3-0.1,8.5-0.3,11.4,1.3c4.2,2.2,1,3.6-1.2,6.8c-7,10.3-8.8,24.5-19.4,32.1c-0.5,0.4-1,0.7-1.6,0.8
		c-0.5,0-1-0.1-1.5-0.3c-2.6-0.8-5.1-1.7-7.7-2.5c5.8-5.6,9.9-12.9,11.7-20.7c0.4-1.6,0.6-3.2,1.2-4.7c1.6-4,5.2-6.9,9.2-8.4
		c3.8-1.4,7.9-1.7,12-1.6L103.4,462.2z"/>
	<path class="st9" d="M204.9,454.5c0,0-29.9,67.9-6.6,76c0,0,16.2,4.6,30.1,1.8c11.2-2.3,18.8-12.8,17.9-24.1
		c-1.1-13.7-4.3-40.1-13.1-51.2L204.9,454.5z"/>
	<g>
		<path class="st8" d="M237.5,449.8c4,4.3,9.3,12.7-6.2,16.3c-0.7,0.2-1.4,0.2-2.1,0.3c-4.3,0.2-19.7,0.4-31.8-5.2
			c-2.1-1-3.6-2.5-4.3-4.4c-1.5-3.7-2.5-9.9,6.1-12.5c0.4-0.1,0.8-0.2,1.2-0.3c3.3-0.6,18.7-2.8,31.3,1.8
			C233.9,446.7,235.9,448.1,237.5,449.8z"/>
		<path class="st8" d="M203.2,465c-11.1,1.5-17.8,14.4-28.9,16.1c-1.9-4.8-3.4-9.6-4.6-14.6c3.1,1.4,6.8,0.8,10-0.6
			c3.1-1.4,5.9-3.5,8.9-5.3c6.7-3.9,14.5-5.7,22.1-5.2c3.3,0.2,8.4,0.4,11.3,2.2c4,2.6,0.7,3.7-1.8,6.7
			c-7.8,9.6-10.9,23.7-22.1,30.3c-0.5,0.3-1.1,0.6-1.7,0.6c-0.5,0-1-0.2-1.5-0.4c-2.5-1.1-4.9-2.1-7.4-3.2
			c6.2-5.1,10.9-12,13.4-19.7c0.5-1.5,0.9-3.1,1.6-4.6c1.9-3.8,5.7-6.4,9.8-7.5c3.9-1.1,8.1-1,12.1-0.5L203.2,465z"/>
	</g>
	<path d="M252.8,426.5c0.1-4.2-0.2-8.5-0.8-12.7c-0.4-2.8-1.1-5.6-2.4-8.1c-4.1-7.9-13.8-10.9-22.5-13c-7.8-1.8-15.7-3.6-23.6-3.1
		s-16.1,3.5-21.2,9.6c-1.2,1.4-2.2,3.1-2.4,5c-0.3,4,3.4,7.2,7.3,8.4c6.9,2.2,14.3,0.1,21.4-1.1c7-1.2,14.5-1.6,21,1.3
		c6.5,2.9,11.7,9.8,10.6,16.8c-0.3,1.6-0.7,3.7,0.6,4.7c0.6,0.4,1.3,0.5,2,0.6c3.3,0.3,7.2-0.4,9-3.2
		C252.6,430.1,252.7,428.3,252.8,426.5z"/>
	
		<ellipse transform="matrix(0.9963 8.587866e-02 -8.587866e-02 0.9963 33.9183 -18.1164)" cx="227.5" cy="385.2" rx="22.3" ry="14.4"/>
	<path class="st7" d="M206.7,389.6c0.2-0.5,1-0.8,1.7-0.9c3.8-0.6,7.8,0.7,11.5,1.9c3.1,1,6.2,1.8,9.4,2.4c3.1,0.5,6.5,0.7,9.3,1.8
		c1.6,0.6,3.1,2.1,2,3.1c-0.8,0.7-2.4,0.5-3.6,0.3c-7.8-1.6-15.6-3.2-23.3-4.7c-2.5-0.5-5.2-1.1-6.6-2.8
		C206.8,390.3,206.6,390,206.7,389.6z"/>
</g>
<g>
	<line class="st10" x1="405.1" y1="423.7" x2="436" y2="423.7"/>
	<line class="st10" x1="406.7" y1="415.3" x2="436" y2="415.3"/>
	<line class="st10" x1="413" y1="406.6" x2="436" y2="406.6"/>
	<line class="st10" x1="416.5" y1="398.7" x2="436" y2="398.7"/>
	<path class="st11" d="M48,504.3L78,546.1h257.7c0,0,55.8-40.7,70.3-105.2c0,0,10-42.3,33.4-39v-25.1c0,0-20,2.8-25.6,17.8
		c0,0-9.8,49.6-71.7,78.5c0,0-98.7,49-150.5,49C191.6,522.2,98.9,531.6,48,504.3z"/>
</g>
<g>
	<path class="st2" d="M47.1,565.9c2.4-10.6,21.1-6.7,27.3-2.9c7.9,4.7,12.8,12.6,22.2,14.8c17,4,31.5-3.6,47.4-7.5
		c21.3-5.2,42.1,10.8,64,7.4c11.8-1.8,28.5-7.7,35.5-18.3c2.4-3.6,8.9-16.6,0.2-18.7c-8.1,30.8-51,13.7-69.1,6.9
		c-17.5-6.5-31.3,0.2-47.7,6c-18.6,6.6-28.1-9.2-43.3-15.1c-4.5-1.7-8.9-2.4-13.7-2.6c-4.5-0.1-13.3-1.6-17.3,0.6
		c-7.4,4-4.4,18.8-4.4,25.8"/>
</g>
<g>
	<path class="st3" d="M46.2,540.2c4.9-7.7,13.3-12.3,22.1-14c10.9-2.1,18.2,2.7,25.7,10.1c7,6.9,16.8,11.2,26.9,10.2
		c11.3-1.1,20.9-8.9,31.4-12.5c5.8-2,13.7-3.9,19.9-2.5c5,1.1,9,5.3,13.4,7.9c6.4,3.7,13,6.1,20.3,7c6.4,0.8,22.7-8.5,28.3-11.2
		c-2.4,8.3-9,24.1-31.8,25.9c-11.1,0.9-19-5-28.1-9.4c-9.4-4.5-19.4-3.4-28.1,1.7c-9.5,5.6-20.2,13.1-31.9,12.2
		c-8.5-0.6-15.3-8.5-21.4-13.6c-7-5.8-13.3-10.2-22.4-12.1C62.6,538.3,53.4,536.7,46.2,540.2"/>
</g>
<g>
	<path class="st2" d="M247.3,565.9c2.4-10.6,21.1-6.7,27.3-2.9c7.9,4.7,12.8,12.6,22.2,14.8c17,4,31.5-3.6,47.4-7.5
		c21.3-5.2,42.1,10.8,64,7.4c11.8-1.8,28.5-7.7,35.5-18.3c2.4-3.6,8.9-16.6,0.2-18.7c-8.1,30.8-51,13.7-69.1,6.9
		c-17.5-6.5-31.3,0.2-47.7,6c-18.6,6.6-28.1-9.2-43.3-15.1c-4.5-1.7-8.9-2.4-13.7-2.6c-4.5-0.1-13.3-1.6-17.3,0.6
		c-7.4,4-4.4,18.8-4.4,25.8"/>
</g>
<g>
	<path class="st3" d="M246.3,540.2c4.9-7.7,13.3-12.3,22.1-14c10.9-2.1,18.2,2.7,25.7,10.1c7,6.9,16.8,11.2,26.9,10.2
		c11.3-1.1,20.9-8.9,31.4-12.5c5.8-2,13.7-3.9,19.9-2.5c5,1.1,9,5.3,13.4,7.9c6.4,3.7,13,6.1,20.3,7c6.4,0.8,22.7-8.5,28.3-11.2
		c-2.4,8.3-9,24.1-31.8,25.9c-11.1,0.9-19-5-28.1-9.4c-9.4-4.5-19.4-3.4-28.1,1.7c-9.5,5.6-20.2,13.1-31.9,12.2
		c-8.5-0.6-15.3-8.5-21.4-13.6c-7-5.8-13.3-10.2-22.4-12.1C262.7,538.3,253.5,536.7,246.3,540.2"/>
</g>
<g>
	<g>
		<path class="st12" d="M276.2,168.9c-2.4-46.3-0.6-92.8,5.3-138.8c-3.3,0.4-6.6,0.9-9.9,1.3c6.1,27.1,14.1,53.7,24.1,79.7
			c4.9,12.8,10.3,25.3,16.2,37.7c5.2,10.8,11.1,21.5,21,28.7c1.2,0.8,9.2-0.1,9.9-1.3c5.9-10.6,4.8-23.2,4.4-34.9
			c-0.5-13.5-1.3-27-2.5-40.5c-2.5-27-6.6-53.8-12.2-80.2c-0.2-1-10,0.8-9.9,1.3c5.6,26.5,9.7,53.3,12.2,80.2
			c1.2,13.2,2.1,26.3,2.5,39.6c0.4,12,1.6,25-4.4,35.9c3.3-0.4,6.6-0.9,9.9-1.3c-9.7-7-15.5-17.4-20.6-28
			c-6-12.6-11.5-25.4-16.6-38.4c-10-25.9-18-52.5-24.1-79.7c-0.2-0.7-9.8,0.3-9.9,1.3c-6,46-7.7,92.5-5.3,138.8
			C266.3,170.7,276.3,170,276.2,168.9L276.2,168.9z"/>
	</g>
</g>
<g>
	<g>
		<path class="st12" d="M473.1,219.2c-7.7-18.5,13.8-33.1,30.2-32.7c16.5,0.5,34.2,18.1,31.4,35.3c-1.4,8.3-9.1,15-14.6,20.9
			c-5.6,6.1-11.3,12.3-15.5,19.5c-7.3,12.3-10.1,28.7-0.6,40.6c1.7,2.1,10.6,1.2,9.7,0.1c-9.6-12.1-6.1-29,1.7-41.1
			c4.4-6.8,9.9-12.7,15.3-18.6c4.7-5.1,10.5-10.5,13-17.1c5-13.3-5.8-28.5-16.6-35.4c-12.1-7.7-28.2-9.3-41.9-5.3
			c-14.4,4.2-28.5,17.6-21.9,33.7C464.3,221.4,473.9,221.2,473.1,219.2L473.1,219.2z"/>
	</g>
</g>
<g>
	<path class="st12" d="M514.7,334.3c-0.2,0.9-0.8,1.6-1.6,1.9c-3.5-2.5-4.3-7.9-1.6-11.2c2.7-3.3,8.3-3.6,11.2-0.6s2.4,8.7-1.1,11.1
		s-9.1,0.5-10.5-3.5"/>
</g>
<g>
	<g>
		<path class="st12" d="M345.9,135.6c12.7,10.1,33.6,8.6,45.1-2.8c5.4-5.3,9.7-14,8-21.7c-1.7-8.4-10.6-10.4-18-9.6
			c-36,3.9-43,67.7-6.3,76.3c20.3,4.7,36-9.9,47.5-24.5c1-1.3-3.4-1.2-3.7-1.2c-1.8,0.1-4.7,0.5-5.9,2c-4.9,6.2-9.9,12.4-16.4,16.9
			c-7.2,5-14.2,5-21.6,0.1c-14.4-9.6-16.5-28.5-12.2-44c1.9-7,5.3-14.1,10.9-18.9c3.5-3,7.3-4.7,11.5-2.1c3.6,2.3,4.8,6.3,4.6,10.3
			c-0.3,7.4-4.4,14.7-10.4,19.1c-7.7,5.6-16.8,3.2-23.8-2.4C353.2,131.5,344.8,134.7,345.9,135.6L345.9,135.6z"/>
	</g>
</g>
<g>
	<g>
		<path class="st12" d="M417.4,132.4c13.3,10.6,33.2,10.8,44.4-2.8c4.9-5.9,8.2-14.8,5.8-22.5c-2.4-7.8-11.2-12.1-19-11.7
			c-17.8,0.9-26.5,20.7-28.2,36c-1.9,17.9,6.2,36,23.6,42.8c20.1,8,35.7-7.7,47.1-22.2c2.4-3.1-6.2-8.1-8.8-4.7
			c-8.4,10.7-22.4,27.3-37.9,20.4c-16.5-7.3-17.2-29.8-12.3-44.5c2.3-6.8,6.1-13.7,12.2-17.7c2.8-1.9,6.8-3.6,10.3-2.9
			c5.2,1,4.9,7,4,11.1c-3.4,15.9-22.7,25.3-36.1,14.7C418.4,125.2,412.2,128.3,417.4,132.4L417.4,132.4z"/>
	</g>
</g>
<g>
	<g>
		<path class="st12" d="M529.2,24.6c-0.2,34.9-0.5,69.7-0.7,104.6c-0.1,8.5,0.2,17.1-0.2,25.7c-0.2,3.8-1.7,6.4-5.2,8.2
			c-5.2,2.6-9.9-0.3-13.4-4.3c-10.4-11.8-12-28.9-7.9-43.5c2.3-8.1,5.8-16.5,10.3-23.7c2.1-3.3,4.9-7,8.6-8.6c2.4-1,4.4-1.1,5.7,1.4
			c1,1.9,1.1,3.7,0.7,5.8c-0.4,1.7,9.4,3.8,9.8,2.1c1.7-8-6.4-12.1-13-13.3c-8.4-1.5-15.4,1.6-20.3,8.6c-5.6,7.9-9.7,18-12,27.4
			c-2.5,9.7-2.3,19.8,1,29.3c2.8,8,7.9,15.7,15.6,19.6c6.5,3.4,15.8,5.3,22.8,2.5c10-3.9,7.1-16.3,7.1-25
			c0.1-11.6,0.2-23.2,0.2-34.9c0.2-26.6,0.4-53.1,0.5-79.7C538.9,24.5,529.2,23.4,529.2,24.6L529.2,24.6z"/>
	</g>
</g>
<g>
	<g>
		<path class="st12" d="M277.5,180.6c3.5,13.7,1.8,28.5,1.8,42.5c0,14,0.4,28,1.2,42c1.5,27.1,2.3,56.1,12.9,81.5
			c0.8,1.9,4.3,10.4,6.8,10.3c2.5-0.1-0.5-6.3-0.9-7.4c-4.8-11.5-5.4-24.8-6.7-37c-1.3-13.6-2.3-27.2-2.9-40.8
			c-0.6-13.6-0.9-27.1-0.7-40.7c0.1-13.2,0.8-26.2-2.6-39.1c-1.1-4.4-3.5-9.1-6.4-12.6C277.9,176.8,276.5,177,277.5,180.6
			L277.5,180.6z"/>
	</g>
</g>
<g>
	<g>
		<path class="st12" d="M319.2,182.7c4.1,27.8,3.2,55.9,3.4,83.9c0.2,27,0.4,56.3,10.7,81.7c0.8,1.9,3.4,3,5.1,3.6
			c0.5,0.2,4.7,1.2,4-0.4c-10.4-25.4-10.6-54.7-10.7-81.7c-0.2-28,0.7-56.1-3.4-83.9C328,183.3,318.9,180.6,319.2,182.7L319.2,182.7
			z"/>
	</g>
</g>
<g>
	<g>
		<path class="st12" d="M288.3,272.4c17.2-0.5,34.9,0.8,50.8-7.1c2.1-1-0.6-2.5-1.5-2.9c-2-0.8-4.9-0.9-6.9,0.1
			c-13.8,6.9-29.7,5.4-44.6,5.8c-1.3,0-4.2,0.2-3.7,2.1C282.7,272.2,287.1,272.4,288.3,272.4L288.3,272.4z"/>
	</g>
</g>
<g>
	<g>
		<path class="st12" d="M340.6,302.4c10.2,9.2,25.8,5.9,33.6-4.6c4.1-5.5,6.3-11.7,4.6-18.5c-1.7-6.5-6.1-13.1-12.9-14.9
			c-7.4-1.9-10.7,1.6-13.6,7.9c-3.5,7.7-5.8,16-6.8,24.4c-1.6,14.3-0.6,32.9,10.4,43.5c9.6,9.3,29.3,12.1,36.6-1.4
			c0.9-1.7-8.3-4.6-9.9-1.7c-2.8,5.2-9.2,8.5-14.6,5.2c-5.2-3.1-8.4-8.7-10.3-14.3c-3.9-11.5-3.7-24.8-1.3-36.6
			c1.2-5.7,2.9-11.3,5.3-16.7c0.6-1.3,1.2-2.7,1.9-4c1.4-2.4,0.1-2.6,1.9,0.2c1.5,2.3,2.8,4.9,3.5,7.6c1.5,6-0.6,11.7-4.2,16.4
			c-3.1,4.1-10.3,11.5-15.4,6.8c-1.6-1.5-4.5-2.1-6.6-1.9C341.8,300.2,338.9,300.9,340.6,302.4L340.6,302.4z"/>
	</g>
</g>
<g>
	<g>
		<path class="st12" d="M391,190.3c2.5,25.4-0.3,51.2,1.1,76.7c1.4,25.7,4.8,51.3,10.2,76.4c0.8,3.7,10.7,2.8,10-0.6
			c-5.4-25.2-8.8-50.7-10.2-76.4c-1.3-25.5,1.4-51.3-1.1-76.7C400.6,186,390.7,186.7,391,190.3L391,190.3z"/>
	</g>
</g>
<g>
	<g>
		<path class="st12" d="M446.2,346.2c-6.4-17.4-10.6-35.4-12.9-53.8c-1.1-8.7-1.7-17.5-1.9-26.2c-0.2-8.2-1.1-18.3,4.2-25.2
			c6.7-8.7,16.1-3.5,20.2,4.5c3.6,7.1,6,15,6.8,22.9c0.8,7.9,0.1,16-2.9,23.4c-1.3,3.1-3.5,7.8-6.8,9.4c-3.7,1.8-8.1-1.2-8.5-5.1
			c-0.4-4.7-9.8-1.5-9.5,2.5c0.6,6.5,6.5,10.4,12.8,10.3c7.5-0.1,13.9-5.2,17.8-11.3c9.3-14.7,8-33.8,2.2-49.6
			c-2.7-7.3-6.5-15.2-14.4-17.7c-7.3-2.4-15.5-0.2-21.3,4.6c-14.1,11.5-10.5,33.8-9.2,49.8c1.9,22.4,6.5,44.6,14.3,65.8
			C438.6,354.3,447.7,350.3,446.2,346.2L446.2,346.2z"/>
	</g>
</g>
<g>
	<g>
		<path class="st13" d="M280.9,168.9c-2.4-46.3-0.6-92.8,5.3-138.8c-3.3,0.4-6.6,0.9-9.9,1.3c6.1,27.1,14.1,53.7,24.1,79.7
			c4.9,12.8,10.3,25.3,16.2,37.7c5.2,10.8,11.1,21.5,21,28.7c1.2,0.8,9.2-0.1,9.9-1.3c5.9-10.6,4.8-23.2,4.4-34.9
			c-0.5-13.5-1.3-27-2.5-40.5c-2.5-27-6.6-53.8-12.2-80.2c-0.2-1-10,0.8-9.9,1.3c5.6,26.5,9.7,53.3,12.2,80.2
			c1.2,13.2,2.1,26.3,2.5,39.6c0.4,12,1.6,25-4.4,35.9c3.3-0.4,6.6-0.9,9.9-1.3c-9.7-7-15.5-17.4-20.6-28
			c-6-12.6-11.5-25.4-16.6-38.4c-10-25.9-18-52.5-24.1-79.7c-0.2-0.7-9.8,0.3-9.9,1.3c-6,46-7.7,92.5-5.3,138.8
			C271,170.7,281,170,280.9,168.9L280.9,168.9z"/>
	</g>
</g>
<g>
	<g>
		<path class="st13" d="M477.8,219.2c-7.7-18.5,13.8-33.1,30.2-32.7c16.5,0.5,34.2,18.1,31.4,35.3c-1.4,8.3-9.1,15-14.6,20.9
			c-5.6,6.1-11.3,12.3-15.5,19.5c-7.3,12.3-10.1,28.7-0.6,40.6c1.7,2.1,10.6,1.2,9.7,0.1c-9.6-12.1-6.1-29,1.7-41.1
			c4.4-6.8,9.9-12.7,15.3-18.6c4.7-5.1,10.5-10.5,13-17.1c5-13.3-5.8-28.5-16.6-35.4c-12.1-7.7-28.2-9.3-41.9-5.3
			c-14.4,4.2-28.5,17.6-21.9,33.7C469,221.4,478.6,221.2,477.8,219.2L477.8,219.2z"/>
	</g>
</g>
<g>
	<path class="st13" d="M519.4,334.3c-0.2,0.9-0.8,1.6-1.6,1.9c-3.5-2.5-4.3-7.9-1.6-11.2c2.7-3.3,8.3-3.6,11.2-0.6s2.4,8.7-1.1,11.1
		c-3.5,2.3-9.1,0.5-10.5-3.5"/>
</g>
<g>
	<g>
		<path class="st13" d="M350.6,135.6c12.7,10.1,33.6,8.6,45.1-2.8c5.4-5.3,9.7-14,8-21.7c-1.7-8.4-10.6-10.4-18-9.6
			c-36,3.9-43,67.7-6.3,76.3c20.3,4.7,36-9.9,47.5-24.5c1-1.3-3.4-1.2-3.7-1.2c-1.8,0.1-4.7,0.5-5.9,2c-4.9,6.2-9.9,12.4-16.4,16.9
			c-7.2,5-14.2,5-21.6,0.1c-14.4-9.6-16.5-28.5-12.2-44c1.9-7,5.3-14.1,10.9-18.9c3.5-3,7.3-4.7,11.5-2.1c3.6,2.3,4.8,6.3,4.6,10.3
			c-0.3,7.4-4.4,14.7-10.4,19.1c-7.7,5.6-16.8,3.2-23.8-2.4C357.9,131.5,349.5,134.7,350.6,135.6L350.6,135.6z"/>
	</g>
</g>
<g>
	<g>
		<path class="st13" d="M422.1,132.4c13.3,10.6,33.2,10.8,44.4-2.8c4.9-5.9,8.2-14.8,5.8-22.5c-2.4-7.8-11.2-12.1-19-11.7
			c-17.8,0.9-26.5,20.7-28.2,36c-1.9,17.9,6.2,36,23.6,42.8c20.1,8,35.7-7.7,47.1-22.2c2.4-3.1-6.2-8.1-8.8-4.7
			c-8.4,10.7-22.4,27.3-37.9,20.4c-16.5-7.3-17.2-29.8-12.3-44.5c2.3-6.8,6.1-13.7,12.2-17.7c2.8-1.9,6.8-3.6,10.3-2.9
			c5.2,1,4.9,7,4,11.1c-3.4,15.9-22.7,25.3-36.1,14.7C423.1,125.2,416.9,128.3,422.1,132.4L422.1,132.4z"/>
	</g>
</g>
<g>
	<g>
		<path class="st13" d="M535,24.6c-0.2,34.9-0.5,69.7-0.7,104.6c-0.1,8.5,0.2,17.1-0.2,25.7c-0.2,3.8-1.7,6.4-5.2,8.2
			c-5.2,2.6-9.9-0.3-13.4-4.3c-10.4-11.8-12-28.9-7.9-43.5c2.3-8.1,5.8-16.5,10.3-23.7c2.1-3.3,4.9-7,8.6-8.6c2.4-1,4.4-1.1,5.7,1.4
			c1,1.9,1.1,3.7,0.7,5.8c-0.4,1.7,9.4,3.8,9.8,2.1c1.7-8-6.4-12.1-13-13.3c-8.4-1.5-15.4,1.6-20.3,8.6c-5.6,7.9-9.7,18-12,27.4
			c-2.5,9.7-2.3,19.8,1,29.3c2.8,8,7.9,15.7,15.6,19.6c6.5,3.4,15.8,5.3,22.8,2.5c10-3.9,7.1-16.3,7.1-25
			c0.1-11.6,0.2-23.2,0.2-34.9c0.2-26.6,0.4-53.1,0.5-79.7C544.8,24.5,535,23.4,535,24.6L535,24.6z"/>
	</g>
</g>
<g>
	<g>
		<path class="st13" d="M281,179.2c3.5,13.5,1.7,28,1.7,41.8c0,14.1,0.4,28.2,1.2,42.3c1.5,27.7,2.5,57,13.4,82.9
			c1.2,2.9,2.8,5.9,4.6,8.5c0.5,0.7,2.7,4.3,4,4.4c3.2,0.4-0.8-8.4-1.1-9.2c-4.6-10.9-5-23.9-6.2-35.6c-1.3-13.6-2.3-27.2-2.9-40.8
			c-0.6-13.5-0.8-27-0.7-40.4c0.1-13.4,0.7-26.7-2.7-39.8c-1.4-5.5-4.4-11.3-8-15.8C281.6,174.3,279.9,174.7,281,179.2L281,179.2z"
			/>
	</g>
</g>
<g>
	<g>
		<path class="st13" d="M323.9,182.7c4.1,27.8,3.2,55.9,3.4,83.9c0.2,27,0.4,56.3,10.7,81.7c0.8,1.9,3.4,3,5.1,3.6
			c0.5,0.2,4.7,1.2,4-0.4c-10.4-25.4-10.6-54.7-10.7-81.7c-0.2-28,0.7-56.1-3.4-83.9C332.7,183.3,323.6,180.6,323.9,182.7
			L323.9,182.7z"/>
	</g>
</g>
<g>
	<g>
		<path class="st13" d="M293,272.9c17.2-0.5,34.9,0.8,50.8-7.1c2.1-1-0.6-2.5-1.5-2.9c-2-0.8-4.9-0.9-6.9,0.1
			c-13.8,6.9-29.7,5.4-44.6,5.8c-1.3,0-4.2,0.2-3.7,2.1C287.4,272.7,291.8,273,293,272.9L293,272.9z"/>
	</g>
</g>
<g>
	<g>
		<path class="st13" d="M345.8,302.4c10.2,9.2,25.8,5.9,33.6-4.6c4.1-5.5,6.3-11.7,4.6-18.5c-1.7-6.5-6.1-13.1-12.9-14.9
			c-7.4-1.9-10.7,1.6-13.6,7.9c-3.5,7.7-5.8,16-6.8,24.4c-1.6,14.3-0.6,32.9,10.4,43.5c9.6,9.3,29.3,12.1,36.6-1.4
			c0.9-1.7-8.3-4.6-9.9-1.7c-2.8,5.2-9.2,8.5-14.6,5.2c-5.2-3.1-8.4-8.7-10.3-14.3c-3.9-11.5-3.7-24.8-1.3-36.6
			c1.2-5.7,2.9-11.3,5.3-16.7c0.6-1.3,1.2-2.7,1.9-4c1.4-2.4,0.1-2.6,1.9,0.2c1.5,2.3,2.8,4.9,3.5,7.6c1.5,6-0.6,11.7-4.2,16.4
			c-3.1,4.1-10.3,11.5-15.4,6.8c-1.6-1.5-4.5-2.1-6.6-1.9C347,300.2,344.1,300.9,345.8,302.4L345.8,302.4z"/>
	</g>
</g>
<g>
	<g>
		<path class="st13" d="M396.3,190.3c2.5,25.4-0.3,51.2,1.1,76.7c1.4,25.7,4.8,51.3,10.2,76.4c0.8,3.7,10.7,2.8,10-0.6
			c-5.4-25.2-8.8-50.7-10.2-76.4c-1.3-25.5,1.4-51.3-1.1-76.7C405.9,186,396,186.7,396.3,190.3L396.3,190.3z"/>
	</g>
</g>
<g>
	<g>
		<path class="st13" d="M450.9,346.2c-6.4-17.4-10.6-35.4-12.9-53.8c-1.1-8.7-1.7-17.5-1.9-26.2c-0.2-8.2-1.1-18.3,4.2-25.2
			c6.7-8.7,16.1-3.5,20.2,4.5c3.6,7.1,6,15,6.8,22.9c0.8,7.9,0.1,16-2.9,23.4c-1.3,3.1-3.5,7.8-6.8,9.4c-3.7,1.8-8.1-1.2-8.5-5.1
			c-0.4-4.7-9.8-1.5-9.5,2.5c0.6,6.5,6.5,10.4,12.8,10.3c7.5-0.1,13.9-5.2,17.8-11.3c9.3-14.7,8-33.8,2.2-49.6
			c-2.7-7.3-6.5-15.2-14.4-17.7c-7.3-2.4-15.5-0.2-21.3,4.6c-14.1,11.5-10.5,33.8-9.2,49.8c1.9,22.4,6.5,44.6,14.3,65.8
			C443.3,354.3,452.4,350.3,450.9,346.2L450.9,346.2z"/>
	</g>
</g>
</svg>
