<svg xmlns="http://www.w3.org/2000/svg" viewBox="-346.8 291.1 41.8 27.4" enable-background="new -346.8 291.1 41.8 27.4"><style type="text/css">.st0{fill:#F4F4F4;}</style><path class="st0" d="M-325.1 317.3h-5.3v-16.9h5v1.8c.3-.2.8-.6 1.2-.9 2-1.6 5.6-1.8 7.7-.3 1.5 1 2.1 2.5 2.2 4.1.2 2.9.2 5.8.2 8.7v3.5h-5.3v-8.5c0-.6-.1-1.3-.2-1.9-.2-1.3-1-2.1-2.2-2.2-1.5-.2-2.7.4-3.2 1.6-.2.7-.4 1.6-.4 2.4.3 2.8.3 5.7.3 8.6zM-333.8 317.3h-5.2v-16.9h5.2v16.9zM-339.4 295c0-1.7 1.4-3.1 3.1-3.1s3.1 1.5 3.1 3.1-1.5 3.1-3.1 3.1c-1.7 0-3.1-1.4-3.1-3.1z"/></svg>