<?xml version="1.0" encoding="utf-8"?>
<!-- Generator: Adobe Illustrator 19.1.0, SVG Export Plug-In . SVG Version: 6.00 Build 0)  -->
<svg version="1.1" id="Layer_1" xmlns="http://www.w3.org/2000/svg" xmlns:xlink="http://www.w3.org/1999/xlink" x="0px" y="0px"
	 viewBox="-271 362.9 68.1 68.1" style="enable-background:new -271 362.9 68.1 68.1;" xml:space="preserve">
<style type="text/css">
	.st0{fill:#DBE690;}
	.st1{fill:#FFFFFF;}
</style>
<circle class="st0" cx="-236.9" cy="396.9" r="34"/>
<g>
	<path class="st1" d="M-233.9,410.4c-2.2,0-4.3,0-6.5,0c0-7,0-13.9,0-20.9c2.1,0,4.1,0,6.2,0c0,0.8,0,1.6,0,2.2
		c0.4-0.3,1-0.7,1.5-1.1c2.5-2,6.9-2.2,9.5-0.4c1.8,1.2,2.6,3.1,2.7,5.1c0.2,3.6,0.2,7.2,0.3,10.8c0,1.4,0,2.9,0,4.3
		c-2.2,0-4.3,0-6.6,0c0-0.4,0-0.9,0-1.3c0-3.1,0-6.2,0-9.2c0-0.8-0.1-1.6-0.2-2.4c-0.2-1.6-1.2-2.6-2.7-2.7c-1.9-0.2-3.3,0.5-3.9,2
		c-0.3,0.9-0.5,2-0.5,3C-233.9,403.2-233.9,406.8-233.9,410.4z"/>
	<path class="st1" d="M-244.6,410.4c-2.1,0-4.2,0-6.4,0c0-7,0-13.9,0-20.9c2.1,0,4.2,0,6.4,0C-244.6,396.4-244.6,403.3-244.6,410.4z
		"/>
	<path class="st1" d="M-251.6,382.8c0-2.1,1.7-3.8,3.8-3.8s3.8,1.8,3.8,3.8s-1.8,3.8-3.8,3.8C-249.9,386.6-251.6,384.9-251.6,382.8z
		"/>
</g>
</svg>
