<?xml version="1.0" encoding="utf-8"?>
<!-- Generator: Adobe Illustrator 19.1.0, SVG Export Plug-In . SVG Version: 6.00 Build 0)  -->
<svg version="1.1" id="Layer_1" xmlns="http://www.w3.org/2000/svg" xmlns:xlink="http://www.w3.org/1999/xlink" x="0px" y="0px"
	 viewBox="-346.8 291.1 41.8 27.4" style="enable-background:new -346.8 291.1 41.8 27.4;" xml:space="preserve">
<style type="text/css">
	.st0{fill:#F4F4F4;}
</style>
<g>
	<path class="st0" d="M-325.1,317.3c-1.8,0-3.5,0-5.3,0c0-5.7,0-11.2,0-16.9c1.7,0,3.3,0,5,0c0,0.6,0,1.3,0,1.8
		c0.3-0.2,0.8-0.6,1.2-0.9c2-1.6,5.6-1.8,7.7-0.3c1.5,1,2.1,2.5,2.2,4.1c0.2,2.9,0.2,5.8,0.2,8.7c0,1.1,0,2.3,0,3.5
		c-1.8,0-3.5,0-5.3,0c0-0.3,0-0.7,0-1.1c0-2.5,0-5,0-7.4c0-0.6-0.1-1.3-0.2-1.9c-0.2-1.3-1-2.1-2.2-2.2c-1.5-0.2-2.7,0.4-3.2,1.6
		c-0.2,0.7-0.4,1.6-0.4,2.4C-325.1,311.5-325.1,314.4-325.1,317.3z"/>
	<path class="st0" d="M-333.8,317.3c-1.7,0-3.4,0-5.2,0c0-5.7,0-11.2,0-16.9c1.7,0,3.4,0,5.2,0C-333.8,306-333.8,311.6-333.8,317.3z
		"/>
	<path class="st0" d="M-339.4,295c0-1.7,1.4-3.1,3.1-3.1s3.1,1.5,3.1,3.1s-1.5,3.1-3.1,3.1C-338,298.1-339.4,296.7-339.4,295z"/>
</g>
</svg>
