<?xml version="1.0" encoding="utf-8"?>
<!-- Generator: Adobe Illustrator 19.1.0, SVG Export Plug-In . SVG Version: 6.00 Build 0)  -->
<svg version="1.1" id="Layer_2" xmlns="http://www.w3.org/2000/svg" xmlns:xlink="http://www.w3.org/1999/xlink" x="0px" y="0px"
	 viewBox="123.6 241.8 264.1 265.2" style="enable-background:new 123.6 241.8 264.1 265.2;" xml:space="preserve">
<style type="text/css">
	.st0{clip-path:url(#SVGID_2_);fill:#DBE690;}
	.st1{clip-path:url(#SVGID_2_);fill:none;stroke:#F4F4F4;stroke-miterlimit:10;}
	.st2{clip-path:url(#SVGID_2_);enable-background:new    ;}
	.st3{font-family:'Lato-Hairline';}
	.st4{font-size:11.1986px;}
	.st5{font-size:15.5266px;}
	.st6{font-size:12.2466px;}
	.st7{font-size:9.8158px;}
	.st8{font-size:9.0157px;}
	.st9{clip-path:url(#SVGID_2_);fill:#C9C9C9;}
	.st10{fill:none;stroke:#DBE690;stroke-miterlimit:10;}
</style>
<g>
	<defs>
		<circle id="SVGID_1_" cx="255.4" cy="374.5" r="129.6"/>
	</defs>
	<clipPath id="SVGID_2_">
		<use xlink:href="#SVGID_1_"  style="overflow:visible;"/>
	</clipPath>
	<path class="st0" d="M12,271.9l-21.4,20.2c-4.2,3.9-6.5,9.4-6.5,15.1l0,0c0,4.9,1.7,9.6,4.9,13.3l185.7,221.4
		c6.8,8.2,15.8,14.3,25.9,17.7l0,0c15.5,5.2,32.4,3.7,46.7-4.2l247.5-137.1c10.2-5.7,18.4-14.3,23.5-24.8l0,0
		c6.5-13.4,7.5-28.9,2.7-43.1l-41.5-121.8c0,0-15.1,8.7-34.8,2.3c0,0-26-6.7-38.8,7.8c-1,1.2-2.3,2.2-3.6,3l-32.1,19.4
		c-1.5,0.9-3.2,1.4-5,1.4h-15.9c-2.2,0-4.4,0.6-6.4,1.7l-37.1,21.4c-1.1,0.6-2.4,1-3.7,1h-8.9c-3.4,0-6.8,0.3-10.1,1
		c-8.7,1.8-23.4,6.7-25.2,18.4c-0.3,2.1-1.8,3.8-3.9,4.4l-9.2,2.8c-1.9,0.6-3.5,2.1-4.2,4c-2.1,5.5-8,16.5-22.3,17
		c0,0-20.7-0.6-42.3-41.7c0,0-5.4-11.1-14.8-13c-2-0.4-3.9-0.9-5.8-1.8L132.3,266c-2.1-1.1-4.4-1.6-6.8-1.5l-24.4,0.8
		c-0.9,0-2.4,0-3.3-0.1c-3.5-0.3-15.6,0.1-21.2,19.4c-0.8,2.7-2.8,4.8-5.5,5.5l-10,2.8c-1.1,0.3-2.3,0.4-3.5,0.4l-19.4-1.4
		c-3.4-0.2-6.6-1.6-9.1-4L12,271.9z"/>
	<path class="st1" d="M444.7,230.9l27.3,85.5c0,0,28.7,52.4,28.3,62.4L432,406.3c0,0,1.9-10.8-23.7-63.9l63.3-26.9"/>
	<line class="st1" x1="381.9" y1="254" x2="415.9" y2="339.1"/>
	<polyline class="st1" points="408.3,342.4 353.5,363.4 321.1,276.8 	"/>
	<polyline class="st1" points="353.5,363.4 379.2,426.3 430.7,397.8 	"/>
	<polyline class="st1" points="379.2,426.3 298.1,473 322.3,513.8 	"/>
	<path class="st1" d="M298.1,473l-15.7-24.2c0,0-4.6-5.7,3.3-14.4c0,0,2.2-3.1-0.3-6.1c-0.9-1-1.3-2.4-1.4-3.7l-0.4-4.2
		c-0.1-1.2-0.7-2.4-1.6-3.2c-1.9-1.6-5.2-4.4-7.5-5.4c-1.3-0.5-2.3-1.5-2.7-2.8v-0.1c-0.9-3.3,0.6-6.8,3.5-8.6l74.3-47"/>
	<polyline class="st1" points="272.7,402.8 260.1,392.5 261.6,347.8 255,336.3 229.3,351.1 220.9,334 	"/>
	<path class="st1" d="M261.3,358c0,0,9.4,3,10.2-7.1c0.1-1.3,0.7-2.4,1.6-3.3c2.4-2.4,8.2-7,20.5-12.4c1.6-0.7,2.6-2.2,2.6-4v-15.3
		c0-1-0.9-1.8-1.8-1.6c-2.6,0.3-7.3,0.2-10.4-4.2c-1-1.4-0.7-3.4,0.6-4.5l8.4-7.3l-6.6-11.1"/>
	<path class="st1" d="M260.1,392.5v7.5l5.6,3.2L225,425.1l3.3,6.4l-54.2,48l43.4,50c0,0-15.2,29.2-14,30.8"/>
	<polyline class="st1" points="217.5,529.7 280.4,479.7 281.3,473 289.2,459.3 	"/>
	<line class="st1" x1="275" y1="484" x2="304.1" y2="523.9"/>
	<polyline class="st1" points="225.1,425.2 206.6,379.6 200.4,385 189.3,371.9 129.7,426.3 174.2,479.7 	"/>
	<polyline class="st1" points="208.2,383.6 216,378.7 211.1,366.5 202,370.3 186.4,330.3 204.6,328.3 	"/>
	<polyline class="st1" points="174.2,289.4 139.3,323.8 186.4,374.5 	"/>
	<polyline class="st1" points="129.7,426.3 34.5,315 59,293.4 	"/>
	<line class="st1" x1="495.4" y1="363.4" x2="520.9" y2="350.4"/>
	<polyline class="st1" points="393.5,247 396,258.5 412.6,250.8 407.1,237.5 	"/>
	<g class="st2">
		<text transform="matrix(1 0 0 1 241.9164 330.6694)" class="st3 st4">OTTAWA</text>
	</g>
	<g class="st2">
		<text transform="matrix(1 0 0 1 209.6513 363.4222)" class="st3 st4">NEPEAN</text>
	</g>
	<g class="st2">
		<text transform="matrix(1 0 0 1 143.787 431.4535)" class="st3 st4">GOULBOURN</text>
	</g>
	<g class="st2">
		<text transform="matrix(1 0 0 1 147.4868 326.5063)" class="st3 st4">KANATA</text>
	</g>
	<g class="st2">
		<text transform="matrix(1 0 0 1 209.6513 470.8403)" class="st3 st5">RIDEAU</text>
	</g>
	<g class="st2">
		<text transform="matrix(1 0 0 1 294.1498 421.1987)" class="st3 st6">OSGOODE</text>
	</g>
	<g class="st2">
		<text transform="matrix(1 0 0 1 366.5151 386.5336)" class="st3 st6">RUSSELL</text>
	</g>
	<g class="st2">
		<text transform="matrix(1 0 0 1 275.9369 354.642)" class="st3 st7">GLOUCESTER</text>
	</g>
	<g class="st2">
		<text transform="matrix(1 0 0 1 341.1576 319.9262)" class="st3 st8">CUMBERLAND</text>
	</g>
	<path class="st9" d="M280,284.7c0,7.8-6.4,14.2-14.2,14.2c-4.9,0-9.2-2.5-11.7-6.2c-1.5-2.3-2.5-5-2.5-8c0-7.8,6.4-14.2,14.2-14.2
		S280,276.9,280,284.7z"/>
	<polygon class="st9" points="265.6,316.3 278.5,287.6 253,287.6 	"/>
	<circle class="st0" cx="265.8" cy="284.7" r="6.7"/>
</g>
<ellipse class="st10" cx="255.4" cy="374.6" rx="129.6" ry="129.7"/>
</svg>
