<?xml version="1.0" encoding="utf-8"?>
<!-- Generator: Adobe Illustrator 19.2.0, SVG Export Plug-In . SVG Version: 6.00 Build 0)  -->
<svg version="1.1" xmlns="http://www.w3.org/2000/svg" xmlns:xlink="http://www.w3.org/1999/xlink" x="0px" y="0px"
	 viewBox="0 0 550.8 551" style="enable-background:new 0 0 550.8 551;" xml:space="preserve">
<style type="text/css">
	.st0{fill:#DBDFE4;}
	.st1{fill:#D6D7D9;}
	.st2{fill:#DBE690;}
	.st3{fill:#BEC0C2;}
	.st4{fill:#F9FAFA;}
	.st5{fill:#D1D2D4;}
	.st6{fill:#747578;}
	.st7{fill:none;stroke:#F9FAFA;stroke-miterlimit:10;}
</style>
<g id="Layer_2">
	<rect class="st0" width="550.8" height="550.8"/>
</g>
<g id="Layer_1">
</g>
<g id="Layer_3">
	<path d="M126.2,116H87.9c-6.6,0-12-5.4-12-12v0c0-6.6,5.4-12,12-12h38.3c6.6,0,12,5.4,12,12v0C138.1,110.6,132.8,116,126.2,116z"/>
	<path class="st1" d="M475.6,432.7H68.2c-19,0-34.3-15.4-34.3-34.3v-260c0-19,15.4-34.3,34.3-34.3h407.3c19,0,34.3,15.4,34.3,34.3
		v260C509.9,417.3,494.5,432.7,475.6,432.7z"/>
	<rect x="33.9" y="159.3" width="476" height="231.3"/>
	<rect x="103.2" y="128" width="59.3" height="22"/>
	<rect x="245.2" y="114" class="st2" width="80.7" height="25"/>
	<rect x="405.9" y="115" width="65.3" height="36"/>
	<circle class="st2" cx="149.7" cy="219.5" r="14.8"/>
	<rect x="405.9" y="268.3" class="st3" width="16" height="34.3"/>
	<ellipse class="st4" cx="279.3" cy="290.9" rx="129.6" ry="127"/>
	<ellipse class="st5" cx="277.2" cy="291.7" rx="110" ry="107.7"/>
	<path class="st6" d="M277.2,184v215.3c0,0,79.1,1.2,103.9-70c10.9-31.4,6.8-65-9.9-93.6C356.2,210,327.3,184,277.2,184z"/>
	<circle class="st7" cx="281.2" cy="292" r="64.7"/>
	<circle cx="281.3" cy="290.6" r="42.3"/>
</g>
</svg>
