<?xml version="1.0" encoding="utf-8"?>
<!-- Generator: Adobe Illustrator 19.1.0, SVG Export Plug-In . SVG Version: 6.00 Build 0)  -->
<svg version="1.1" id="Layer_1" xmlns="http://www.w3.org/2000/svg" xmlns:xlink="http://www.w3.org/1999/xlink" x="0px" y="0px"
	 viewBox="0 0 397.4 396" style="enable-background:new 0 0 397.4 396;" xml:space="preserve">
<style type="text/css">
	.st0{fill:#DCDEE2;}
	.st1{fill:#DBE690;}
	.st2{fill:#333333;}
	.st3{fill:#F4F4F4;}
	.st4{fill:none;stroke:#333333;stroke-miterlimit:10;}
</style>
<rect x="13.1" y="12.4" class="st0" width="371.3" height="371"/>
<ellipse class="st1" cx="209.8" cy="193.1" rx="130.8" ry="131.8"/>
<g>
	<g>
		<path class="st2" d="M244.2,102.9c-26.2,29.1-48,80.4-51.6,119.4c2.3,0.4,4.7,0.7,7,1.1c5.6-22.4,21.8-40.6,29.9-62.2
			c2.8-7.5,4.7-15.3,6.5-23.1C238.8,126.3,241.5,114.6,244.2,102.9"/>
		<path class="st3" d="M197.1,220.2c4.1,3.4,5.3,9.4,4.3,14.6c-1,5.2-3.7,10-6.3,14.6c-5.8,10.7-11,21.7-15.5,33l-0.2-0.1
			c2.2-12,3.6-24.1,4.3-36.2c0.3-5.3,0.4-10.8,2.4-15.8s6.1-9.5,11.4-10.2"/>
		<path class="st4" d="M197.3,220.1c-1,3.2-1.9,6.4-2.9,9.6c-1.1,3.7-2.4,8-3.4,11.8"/>
		<circle class="st2" cx="190.9" cy="241.8" r="1.7"/>
	</g>
	<g>
		<path class="st2" d="M184.3,266.8c0,0-0.4,1-0.8,2.4c-0.5,1.5-1,3.4-1.6,5.4c-0.5,2-1.1,4-1.5,5.4c-0.5,1.5-0.8,2.4-0.8,2.4
			s0.3-1,0.7-2.5c0.4-1.5,0.8-3.5,1.2-5.5c0.4-2,0.8-4,1.2-5.5c0.4-1.5,0.7-2.5,0.7-2.5L184.3,266.8z"/>
	</g>
</g>
</svg>
