<?xml version="1.0" encoding="utf-8"?>
<!-- Generator: Adobe Illustrator 19.1.0, SVG Export Plug-In . SVG Version: 6.00 Build 0)  -->
<svg version="1.1" id="Layer_2" xmlns="http://www.w3.org/2000/svg" xmlns:xlink="http://www.w3.org/1999/xlink" x="0px" y="0px"
	 viewBox="0 0 560.7 347.7" style="enable-background:new 0 0 560.7 347.7;" xml:space="preserve">
<style type="text/css">
	.st0{fill:#DBE690;}
	.st1{fill:none;stroke:#F4F4F4;stroke-miterlimit:10;}
	.st2{font-family:'Lato-Hairline';}
	.st3{font-size:11.1986px;}
	.st4{font-size:15.5266px;}
	.st5{font-size:12.2466px;}
	.st6{font-size:9.8158px;}
	.st7{font-size:9.0157px;}
	.st8{fill:#C9C9C9;}
</style>
<path class="st0" d="M37,48.6L15.6,68.8c-4.2,3.9-6.5,9.4-6.5,15.1v0c0,4.9,1.7,9.6,4.9,13.3l185.7,221.4
	c6.8,8.2,15.8,14.3,25.9,17.7h0c15.5,5.2,32.4,3.7,46.7-4.2l247.5-137.1c10.2-5.7,18.4-14.3,23.5-24.8v0c6.5-13.4,7.5-28.9,2.7-43.1
	L504.5,5.3c0,0-15.1,8.7-34.8,2.3c0,0-26-6.7-38.8,7.8c-1,1.2-2.3,2.2-3.6,3l-32.1,19.4c-1.5,0.9-3.2,1.4-5,1.4h-15.9
	c-2.2,0-4.4,0.6-6.4,1.7l-37.1,21.4c-1.1,0.6-2.4,1-3.7,1h-8.9c-3.4,0-6.8,0.3-10.1,1c-8.7,1.8-23.4,6.7-25.2,18.4
	c-0.3,2.1-1.8,3.8-3.9,4.4l-9.2,2.8c-1.9,0.6-3.5,2.1-4.2,4c-2.1,5.5-8,16.5-22.3,17c0,0-20.7-0.6-42.3-41.7c0,0-5.4-11.1-14.8-13
	c-2-0.4-3.9-0.9-5.8-1.8l-23.1-11.7c-2.1-1.1-4.4-1.6-6.8-1.5l-24.4,0.8c-0.9,0-2.4,0-3.3-0.1c-3.5-0.3-15.6,0.1-21.2,19.4
	c-0.8,2.7-2.8,4.8-5.5,5.5l-10,2.8c-1.1,0.3-2.3,0.4-3.5,0.4l-19.4-1.4c-3.4-0.2-6.6-1.6-9.1-4L37,48.6z"/>
<path class="st1" d="M469.7,7.6l27.3,85.5c0,0,28.7,52.4,28.3,62.4L457,183c0,0,1.9-10.8-23.7-63.9l63.3-26.9"/>
<line class="st1" x1="406.9" y1="30.7" x2="440.9" y2="115.8"/>
<polyline class="st1" points="433.3,119.1 378.5,140.1 346.1,53.5 "/>
<polyline class="st1" points="378.5,140.1 404.2,203 455.7,174.5 "/>
<polyline class="st1" points="404.2,203 323.1,249.7 347.3,290.5 "/>
<path class="st1" d="M323.1,249.7l-15.7-24.2c0,0-4.6-5.7,3.3-14.4c0,0,2.2-3.1-0.3-6.1c-0.9-1-1.3-2.4-1.4-3.7l-0.4-4.2
	c-0.1-1.2-0.7-2.4-1.6-3.2c-1.9-1.6-5.2-4.4-7.5-5.4c-1.3-0.5-2.3-1.5-2.7-2.8c0,0,0-0.1,0-0.1c-0.9-3.3,0.6-6.8,3.5-8.6l74.3-47"/>
<polyline class="st1" points="297.7,179.5 285.1,169.2 286.6,124.5 280,113 254.3,127.8 245.9,110.7 "/>
<path class="st1" d="M286.3,134.7c0,0,9.4,3,10.2-7.1c0.1-1.3,0.7-2.4,1.6-3.3c2.4-2.4,8.2-7,20.5-12.4c1.6-0.7,2.6-2.2,2.6-4V92.6
	c0-1-0.9-1.8-1.8-1.6c-2.6,0.3-7.3,0.2-10.4-4.2c-1-1.4-0.7-3.4,0.6-4.5l8.4-7.3l-6.6-11.1"/>
<path class="st1" d="M285.1,169.2v7.5l5.6,3.2l-40.7,21.9l3.3,6.4l-54.2,48l43.4,50c0,0-15.2,29.2-14,30.8"/>
<polyline class="st1" points="242.5,306.4 305.4,256.4 306.3,249.7 314.2,236 "/>
<line class="st1" x1="300" y1="260.7" x2="329.1" y2="300.6"/>
<polyline class="st1" points="250.1,201.9 231.6,156.3 225.4,161.7 214.3,148.6 154.7,203 199.2,256.4 "/>
<polyline class="st1" points="233.2,160.3 241,155.4 236.1,143.2 227,147 211.4,107 229.6,105 "/>
<polyline class="st1" points="199.2,66.1 164.3,100.5 211.4,151.2 "/>
<polyline class="st1" points="154.7,203 59.5,91.7 84,70.1 "/>
<line class="st1" x1="59.5" y1="91.7" x2="30.7" y2="117.1"/>
<line class="st1" x1="520.4" y1="140.1" x2="545.9" y2="127.1"/>
<polyline class="st1" points="418.5,23.7 421,35.2 437.6,27.5 432.1,14.2 "/>
<text transform="matrix(1 0 0 1 266.9164 107.3694)" class="st2 st3">OTTAWA</text>
<text transform="matrix(1 0 0 1 234.6513 140.1222)" class="st2 st3">NEPEAN</text>
<text transform="matrix(1 0 0 1 168.787 208.1535)" class="st2 st3">GOULBOURN</text>
<text transform="matrix(1 0 0 1 172.4868 103.2063)" class="st2 st3">KANATA</text>
<text transform="matrix(1 0 0 1 234.6513 247.5403)" class="st2 st4">RIDEAU</text>
<text transform="matrix(1 0 0 1 319.1498 197.8987)" class="st2 st5">OSGOODE</text>
<text transform="matrix(1 0 0 1 391.5151 163.2336)" class="st2 st5">RUSSELL</text>
<text transform="matrix(1 0 0 1 300.9369 131.342)" class="st2 st6">GLOUCESTER</text>
<text transform="matrix(1 0 0 1 366.1576 96.6262)" class="st2 st7">CUMBERLAND</text>
<path class="st8" d="M305,61.4c0,7.8-6.4,14.2-14.2,14.2c-4.9,0-9.2-2.5-11.7-6.2c-1.5-2.3-2.5-5-2.5-8c0-7.8,6.4-14.2,14.2-14.2
	S305,53.6,305,61.4z"/>
<polygon class="st8" points="290.6,93 303.5,64.3 278,64.3 "/>
<circle class="st0" cx="290.8" cy="61.4" r="6.7"/>
</svg>
