<?xml version="1.0" encoding="utf-8"?>
<!-- Generator: Adobe Illustrator 19.1.0, SVG Export Plug-In . SVG Version: 6.00 Build 0)  -->
<svg version="1.1" id="Layer_1" xmlns="http://www.w3.org/2000/svg" xmlns:xlink="http://www.w3.org/1999/xlink" x="0px" y="0px"
	 viewBox="0 0 1224 792" style="enable-background:new 0 0 1224 792;" xml:space="preserve">
<style type="text/css">
	.st0{fill:#F4F4F4;}
</style>
<g>
	<g>
		<path d="M655.5,83.8c-0.2-12.2-5.1-22.5-15.6-29.1c-11.6-7.3-25.3-7.4-37.7-2C576,64.2,556.4,94.8,554,122.8
			c-1.2,13.5,0.8,27.9,8.2,39.4c7.4,11.6,19.9,18.3,33.2,20.6c14,2.5,28.7,1,42.5-2.1c13.2-2.9,23-10.2,28.3-22.8
			c5.3-12.8,5.4-28,1.7-41.2c-4.8-17.3-16.1-31.7-27.5-45.3c-0.9-1.1-1.3,3.2-1.4,3.5c-0.1,1.6-0.4,4.8,0.8,6.2
			c15.2,18,35.4,42.5,25.6,67.5c-4.3,10.9-12.8,18.3-24.1,21.3c-11.2,3-23.2,4.4-34.8,4c-11.3-0.4-23-2.9-32.3-9.5
			c-10.3-7.3-16.9-19.2-18-31.7c-1.1-13,4.7-26.4,11.4-37.2c6.4-10.3,14.5-19.8,24.4-26.9c10.6-7.5,24-12,36.9-8.7
			c10.3,2.6,24.3,11.9,24.5,23.9c0,0.6,0,5.2,1.1,5C655.6,88.6,655.5,84.5,655.5,83.8L655.5,83.8z"/>
	</g>
</g>
<g>
	<g>
		<path class="st0" d="M657.8,83.8c-0.2-12.2-5.1-22.5-15.6-29.1c-11.6-7.3-25.3-7.4-37.7-2c-26.2,11.5-45.7,42.1-48.2,70.1
			c-1.2,13.5,0.8,27.9,8.2,39.4c7.4,11.6,19.9,18.3,33.2,20.6c14,2.5,28.7,1,42.5-2.1c13.2-2.9,23-10.2,28.3-22.8
			c5.3-12.8,5.4-28,1.7-41.2c-4.8-17.3-16.1-31.7-27.5-45.3c-0.9-1.1-1.3,3.2-1.4,3.5c-0.1,1.6-0.4,4.8,0.8,6.2
			c15.2,18,35.4,42.5,25.6,67.5c-4.3,10.9-12.8,18.3-24.1,21.3c-11.2,3-23.2,4.4-34.8,4c-11.3-0.4-23-2.9-32.3-9.5
			c-10.3-7.3-16.9-19.2-18-31.7c-1.1-13,4.7-26.4,11.4-37.2c6.4-10.3,14.5-19.8,24.4-26.9c10.6-7.5,24-12,36.9-8.7
			c10.3,2.6,24.3,11.9,24.5,23.9c0,0.6,0,5.2,1.1,5C657.9,88.6,657.8,84.5,657.8,83.8L657.8,83.8z"/>
	</g>
</g>
<g>
	<g>
		<g>
			<path d="M279.2,127.8c-0.4-4.2,0.2,2.3,0.2,2.5c0.1,1.3,0.2,2.6,0.4,3.9c0.3,3.3,0.6,6.6,0.9,9.9c0.6,6.6,1.1,13.2,1.7,19.8
				c1.1,13.2,2.1,26.3,3.1,39.5c2,26.7,3.7,53.4,5.2,80.1c1.5,26.4,2.7,52.8,3.7,79.2c0.2,6.3,0.5,12.5,0.7,18.8
				c0.1,3.3,0.2,6.6,0.3,9.9c0.1,4.4,0,0.8,0,0c0.1,2.3,0.1,4.6,0.2,6.9c0.4,13.5,0.7,27.1,0.9,40.6c0.5,29.7,0.8,59.5,0.7,89.2
				c3.1-3.8,6.1-7.6,9.2-11.4c-0.9-6.5-1.6-12.9-2.3-19.4c-0.1-0.6-0.4-4-0.1-0.5c-0.1-1.3-0.2-2.6-0.3-3.9
				c-0.3-3.9-0.6-7.8-0.8-11.7c-0.2-2.9-0.3-5.9-0.4-8.8c-0.1-1.6-0.2-3.3-0.2-4.9c0.1,4.5,0,1,0,0.1c-0.1-6.8-0.2-13.7,0-20.5
				c0-1.2,0.1-5.6,0-0.9c0-1.3,0.1-2.6,0.1-3.9c0.1-3.3,0.3-6.5,0.5-9.8c0.2-2.9,0.4-5.9,0.6-8.8c0.1-1.6,0.3-3.3,0.4-4.9
				c0.5-6.4-0.4,3.7,0.1-1.6c0.5-4.6,1-9.1,1.6-13.7c0.4-2.5,0.8-5.1,1.1-7.6c-0.6,3.5,0,0.1,0.1-0.8c0.3-1.5,0.6-3,0.9-4.6
				c3.7-18.7,8.8-36.3,18.3-53.9c4.5-8.3,9.8-16.2,16-23.4c6.4-7.4,14-15.5,22.7-20.2c21.2-11.3,33.8,13.2,39.8,29.5
				c1.7,4.5,2.9,8.5,3.9,12.3c0.7,2.7,1.3,5.4,1.9,8.1c0.2,1.1,0.4,2.2,0.7,3.3c0.2,1.1,0.4,2.2,0.6,3.3c-0.3-1.5-0.3-1.7-0.1-0.4
				c0.7,5.2,1.7,10.5,2,15.8c-0.3-4.3-0.1-1.2,0-0.3c0.1,1.4,0.2,2.8,0.3,4.2c0.2,3.1,0.4,6.2,0.6,9.3c0.1,2.8,0.3,5.7,0.4,8.5
				c0,0.4,0.1,3.4,0.1,3.4c-0.1,0-0.1-4.8,0,0c0.1,5.7,0.2,11.4,0.3,17.2c0.2,12.6,0.5,25.2,1.1,37.7c1.3,24.4,3.8,49.5,11.3,72.9
				c5.8,18.1,19.4,36.7,40.9,31.6c20.5-4.8,35.3-23.7,46.7-40c25.9-36.9,41.3-80.5,46.5-125.1c1.5-13,2.3-26.1,2.3-39.2
				c0-14.1,0.1-29.5-3.2-43.2c-1.6-6.8-7.6-25-17.7-17.1c-4,3.1-5,9.5-6.3,14.1c-1.9,6.4-3.6,12.8-5.2,19.3
				c-12.1,51.2-13.2,104.7-10.5,157c0.7,13.8,1.3,27.8,4.6,41.2c2.4,9.8,6.1,21.9,14.7,28.1c7.7,5.6,16.8,4.9,25.5,2.2
				c9.2-2.8,18.2-7.1,26.4-12.1c34.3-20.7,55.7-55.9,73.4-90.7c4.3-8.5,8.4-17.1,12.5-25.7c1.7-3.7,2-9.5,2.3-13.4
				c0.4-5.6,0.3-11.7-0.5-17.3c-0.5-3.4-2.8-16.4-6.8-8.1c-15.7,33.5-32.7,67.9-59.8,93.8c-13.2,12.6-28.8,22.5-46.1,28.2
				c-7.4,2.4-17.2,4.5-24.3-0.2c-3.3-2.2-5.9-5.8-7.6-9.3c-1.1-2.2-1.9-4.5-2.6-6.8c-0.8-2.7,0.5,2.9-0.5-2.1
				c-0.1-0.7-0.9-5.4-0.4-2.1c-0.1-1.1-0.4-2.3-0.4-3.3c0,4.3,0.1,1.2,0.1,0.2c-0.2-3-0.4-6.1-0.6-9.1c-0.3-5.8-0.6-11.6-0.8-17.4
				c0-1.3-0.2-5.5,0-0.4c0-1.2-0.1-2.5-0.1-3.7c-0.1-2.5-0.1-4.9-0.1-7.4c-0.1-6.1-0.1-12.3,0.1-18.4c0-1.2,0-2.5,0.1-3.7
				c-0.3,5.1,0,0.8,0-0.5c0.1-2.8,0.2-5.5,0.4-8.3c0.2-2.8,0.3-5.5,0.5-8.3c0.1-1.5,0.2-3.1,0.4-4.6c0.1-0.9,0.6-6.3,0.2-2
				c0.6-5.5,1.2-10.9,1.9-16.4c0.3-2.4,0.7-4.8,1.1-7.2c0.9-5.8-0.3,1.6,0.3-1.8c0.3-1.8,0.6-3.6,1-5.4c2-10.4,4.4-20.8,7.6-30.9
				c0.9-3,2.8-6.6,7-4.1c1.2,0.7,2.2,2.5,2.8,3.8c0.5,1,0.2,2.6,0.7,1.5c0.3-0.6-0.6-7-0.3-2.3c0.2,2.2,0.3,4.4,0.4,6.6
				c0,0.3,0.3,5.8,0.1,1.9c-0.2-3.8,0,1.6,0,1.9c0,2.2,0,4.4,0,6.6c0,5.5,0.2-3.7,0-0.2c-0.1,1.6-0.1,3.3-0.2,4.9
				c-0.1,1.4-0.2,2.7-0.3,4.1c-0.1,0.9-0.2,4,0.1-0.5c-0.1,2.4-0.5,4.9-0.8,7.3c-0.3,2.4-0.7,4.9-1,7.3c-0.5,3.5-0.2,1,0,0.3
				c-0.3,1.6-0.6,3.2-0.9,4.8c-7.5,38.1-25.3,76.8-51.8,106.9c-11.6,13.2-30.7,28-49.1,19.4c-7.9-3.7-12.9-11.8-15.9-19.7
				c-0.3-0.9-0.7-1.8-1-2.8c0.1,0.4-1.3-4.2-0.8-2.4c0.5,1.8-0.9-3.4-0.7-2.7c-0.3-1.1-0.5-2.2-0.8-3.3c-0.6-2.5-1.1-5-1.6-7.5
				c-0.1-0.8-0.8-4.4-0.3-1.3c-0.3-1.7-0.5-3.4-0.8-5c-0.3-2.2-0.6-4.5-0.9-6.7c-0.1-1.1-0.2-2.3-0.4-3.4c-0.7-5.5,0.2,2.8-0.1-0.6
				c-0.4-5.4-0.8-10.8-1.1-16.2c-0.1-2.9-0.2-5.7-0.4-8.6c-0.1-1.6-0.9-3.5,0,0.8c-0.2-1-0.1-2.4-0.1-3.4
				c-0.1-5.7-0.2-11.5-0.3-17.2c-0.4-23.6-0.9-47.3-4.1-70.7c-3.6-26.5-20.2-110.8-62.9-79.9c-31.7,23-47.7,62.6-55.9,99.7
				c-10.7,48.1-11.9,99-8.4,148c1,13.2,2.3,26.3,4.1,39.4c0.3,2.2,1.5,13.5,5.6,10.3c1.3-1,1.8-4.3,2.2-5.8
				c1.2-5.1,1.4-10.7,1.4-15.9c0.3-109.7-3.5-219.4-11.4-328.9c-2.3-31.5-4.9-62.9-7.9-94.3c-0.3-2.8-3.2-16.7-6.8-8.1
				C277.3,106.1,278.4,118.2,279.2,127.8L279.2,127.8z"/>
		</g>
	</g>
	<g>
		<g>
			<path d="M679.3,290.8c-9.7,42.8-11.6,87.2-6.8,130.8c3.7,33.7,10.7,76.1,41.7,95.8c13.4,8.5,28.9,11.4,43.9,5.4
				c13.7-5.4,25.5-15.9,34-27.8c16.8-23.7,23.5-53.6,27.7-81.9c5.1-33.9,5.7-68.5,4.8-102.7c-1.2,7.2-2.4,14.5-3.6,21.7
				c0.1-0.2,0.3-0.3,0.4-0.5c-0.9,0-1.8,0-2.6,0c0.2,0.1,0.3,0.2,0.5,0.3c-0.7-1.9-1.5-3.9-2.2-5.8c4.1,15.2,7.8,30.5,11.1,46
				c1.8,8.2,3.5,16.5,5,24.7c0.7,3.8,1.4,7.6,2.1,11.3c0.2,0.9,1,5.8,0.5,2.8c0.4,2.5,0.8,4.9,1.2,7.4c2.7,16.6,4.8,33.2,6.5,49.9
				c0.1,1.1,0.2,2.2,0.3,3.4c0.1,0.7,0.4,4.2,0.1,1.5c-0.2-2.5,0,0.3,0.1,0.7c0.1,1.1,0.2,2.2,0.3,3.4c0.4,4.5,0.7,9,1,13.5
				c0.3,3.9,0.5,7.9,0.7,11.8c0.2,4.3-0.3,9.3,0.6,13.5c0-0.1-0.1-4.4-0.1-1.8c0,1.1,0.1,2.2,0.1,3.4c0,2,0.1,3.9,0.1,5.9
				c0.1,4.5,0.1,8.9,0,13.4c0,3.8-0.6,8-0.2,11.7c-0.6-4.7,0.1-2.5,0-1c0,1.1-0.1,2.2-0.1,3.3c-0.1,2.2-0.2,4.4-0.3,6.6
				c-0.2,4.1-0.5,8.3-0.8,12.4c-0.1,1.9-0.3,3.8-0.5,5.7c-0.1,1.1-0.1,2.2-0.3,3.3c0.2-1.6,0.3-2.8,0-0.5c-0.8,8.1-1.8,16.2-3,24.2
				c-0.3,2.1-0.7,4.3-1,6.4c-0.1,0.6-0.6,3.4,0,0.2c-0.1,0.8-0.3,1.6-0.4,2.4c-0.8,4.2-1.6,8.4-2.4,12.5c-1.6,7.7-3.5,15.4-5.6,23
				c-0.7,2.6-1.6,5.5-2.7,9.2c-1.2,3.7-2.4,7.4-3.7,11c-2.6,7.5-5.5,15-8.8,22.2c-6.6,14.3-16.4,27.5-30.8,34.6
				c-13.7,6.8-28.7,8.2-40.9-2c-11.8-9.8-19.2-24.5-22.6-38.4c-0.5-2.2-1-4.4-1.5-6.6c0-0.1-0.5-2.9-0.2-1.1c0.3,2-0.2-1.5-0.3-2
				c-0.3-2-0.5-4-0.8-6c-0.5-3.9,0-0.5,0,0.2c-0.1-1.4-0.2-2.9-0.3-4.3c0-0.9-0.1-1.7-0.1-2.6c-0.2-4.2-0.1,0.2,0,0.8
				c-0.2-1.9-0.1-4,0-6c0-1.1,0-2.3,0-3.4c0-2.6,0,1.7-0.1,1.8c0.7-1.4,0.3-5.8,0.4-7.4c0.1-2.4-0.1,1.5-0.2,1.6
				c0.1,0,0.3-2.6,0.4-3c0.1-0.7,0.6-3.3,0,0c0.2-0.8,0.3-1.5,0.4-2.3c0.9-4.4,1.2-5.4,2.7-9.7c2.5-6.9,5.7-13.3,10-19.3
				c9.9-14,23.7-22.9,39.8-28.5c34.9-12.2,72.7-14,109.1-19.3c33.2-4.9,65.6-12.6,94.2-30.9c25.5-16.3,45.5-39.8,53.3-69.4
				c2.4-9.1,3.6-18.7,4-28.1c0.3-5.8,0.3-11.6-0.5-17.3c-0.3-1.9-0.9-8.8-3-10.3c-4.9-3.7-6,14.4-6.1,15.7c0,0.3,0.1,2.4-0.2,2.9
				c1-1.8,0.5-3.5,0.1-1.1c-0.1,0.8-0.5,3.4,0.1-0.4c-0.2,0.9-0.3,1.8-0.5,2.8c-0.2,0.9-0.4,1.8-0.6,2.7c0,0-0.6,2.2-0.2,0.9
				c0.4-1.5-0.4,1.3-0.5,1.6c-0.4,1.1-0.8,2.2-1.2,3.3c-2.5,6.6-5.9,12.8-10,18.6c-8.9,12.6-20.4,23.3-33.1,32
				c-29.5,20.2-64.7,27.7-99.5,32.6c-19.4,2.7-38.8,4.8-58.2,7.8c-19,3-38.6,6.7-56.3,14.5c-15.7,7-28.8,18-37.5,33
				c-10,17.2-14.5,36.6-16,56.3c-1.7,21.6-1.3,44,2.1,65.5c3,19,7.9,38.8,19.4,54.6c9.5,13.1,23.3,23.3,40.1,20.1
				c16.1-3,30.4-13.5,39.6-26.8c9.9-14.3,16.1-31.2,21.5-47.6c5.5-16.6,9.8-33.5,13.1-50.7c7.3-37.7,10.3-76.2,10.5-114.6
				c0.3-74.1-9.9-148.4-27.6-220.3c-1-4-2-8.1-3.1-12.1c-0.9-3.5-1.7-11.7-4.6-13.6c-0.9-1.1-1.8-1.1-2.6,0c-4.5,5.4-4,16.2-4,22.8
				c0,3.1,0.1,6.2,0.2,9.3c0.1,6.2,0.1,12.4,0.1,18.5c0,3-0.1,6-0.1,9c0,0.7,0,1.4-0.1,2.1c0,0.2,0.2-5,0.1-2.5
				c-0.1,1.9-0.1,3.8-0.2,5.7c-0.3,6.7-0.8,13.5-1.3,20.2c-0.2,2.3,0.2-1.7,0.2-1.8c0,1-0.2,2-0.3,2.9c-0.1,1.4-0.3,2.9-0.5,4.3
				c-0.4,3.4-0.8,6.7-1.3,10.1c-0.2,1.7-0.5,3.3-0.8,5c-0.3,2,0.1-0.8,0.2-1c-0.2,0.9-0.3,1.9-0.5,2.8c-0.6,3.3-1.3,6.5-2,9.7
				c-0.7,3.2-1.5,6.3-2.4,9.5c-0.7,2.5,0.2-0.7-0.5,1.8c-0.5,1.7-1.1,3.5-1.6,5.2c-1.9,5.8-4.2,11.5-6.9,17
				c-10.7,22.2-33.6,44.8-60.2,41.9c-31.6-3.4-47.5-34.7-52.9-62c-0.2-0.9-0.3-1.7-0.5-2.6c-0.6-3.1,0,0.6-0.3-1.5
				c-0.3-2.2-0.7-4.4-1-6.6c-0.3-2.5-0.7-5-1-7.5c-0.1-1.3-0.3-2.5-0.4-3.8c-0.2-1.7-0.2-2.4,0-0.3c-0.4-5-1-10.1-0.9-15.1
				c0,0.3,0.1,3.9,0,1.2c0-1.3,0-2.5-0.1-3.8c0-2.5,0-5.1,0-7.6c0-0.9,0-1.9,0.1-2.8c-0.2,3.2,0,1.6,0.1-0.6
				c0.1-2.2,0.2-4.4,0.4-6.6c0.1-1.3,0.2-2.5,0.3-3.8c0.1-1.7,0.2-2.4,0-0.3c0.2-2.5,0.5-5,0.8-7.5s0.6-5,1-7.5
				c0.1-0.9,0.3-1.9,0.4-2.8c0.1-0.4,0.7-4.2,0.3-2c0.9-5,1.9-9.9,3-14.9c2.3-10.1,2.3-21.8,0-31.8c-0.4-1.6-1.2-6.6-3.5-6.6
				C680.5,284.2,679.6,289.7,679.3,290.8L679.3,290.8z"/>
		</g>
	</g>
</g>
<g>
	<g>
		<g>
			<path class="st0" d="M288,127.8c-0.4-4.2,0.2,2.3,0.2,2.5c0.1,1.3,0.2,2.6,0.4,3.9c0.3,3.3,0.6,6.6,0.9,9.9
				c0.6,6.6,1.1,13.2,1.7,19.8c1.1,13.2,2.1,26.3,3.1,39.5c2,26.7,3.7,53.4,5.2,80.1c1.5,26.4,2.7,52.8,3.7,79.2
				c0.2,6.3,0.5,12.5,0.7,18.8c0.1,3.3,0.2,6.6,0.3,9.9c0.1,4.4,0,0.8,0,0c0.1,2.3,0.1,4.6,0.2,6.9c0.4,13.5,0.7,27.1,0.9,40.6
				c0.5,29.7,0.8,59.5,0.7,89.2c3.1-3.8,6.1-7.6,9.2-11.4c-0.9-6.5-1.6-12.9-2.3-19.4c-0.1-0.6-0.4-4-0.1-0.5
				c-0.1-1.3-0.2-2.6-0.3-3.9c-0.3-3.9-0.6-7.8-0.8-11.7c-0.2-2.9-0.3-5.9-0.4-8.8c-0.1-1.6-0.2-3.3-0.2-4.9c0.1,4.5,0,1,0,0.1
				c-0.1-6.8-0.2-13.7,0-20.5c0-1.2,0.1-5.6,0-0.9c0-1.3,0.1-2.6,0.1-3.9c0.1-3.3,0.3-6.5,0.5-9.8c0.2-2.9,0.4-5.9,0.6-8.8
				c0.1-1.6,0.3-3.3,0.4-4.9c0.5-6.4-0.4,3.7,0.1-1.6c0.5-4.6,1-9.1,1.6-13.7c0.4-2.5,0.8-5.1,1.1-7.6c-0.6,3.5,0,0.1,0.1-0.8
				c0.3-1.5,0.6-3,0.9-4.6c3.7-18.7,8.8-36.3,18.3-53.9c4.5-8.3,9.8-16.2,16-23.4c6.4-7.4,14-15.5,22.7-20.2
				c21.2-11.3,33.8,13.2,39.8,29.5c1.7,4.5,2.9,8.5,3.9,12.3c0.7,2.7,1.3,5.4,1.9,8.1c0.2,1.1,0.4,2.2,0.7,3.3
				c0.2,1.1,0.4,2.2,0.6,3.3c-0.3-1.5-0.3-1.7-0.1-0.4c0.7,5.2,1.7,10.5,2,15.8c-0.3-4.3-0.1-1.2,0-0.3c0.1,1.4,0.2,2.8,0.3,4.2
				c0.2,3.1,0.4,6.2,0.6,9.3c0.1,2.8,0.3,5.7,0.4,8.5c0,0.4,0.1,3.4,0.1,3.4c-0.1,0-0.1-4.8,0,0c0.1,5.7,0.2,11.4,0.3,17.2
				c0.2,12.6,0.5,25.2,1.1,37.7c1.3,24.4,3.8,49.5,11.3,72.9c5.8,18.1,19.4,36.7,40.9,31.6c20.5-4.8,35.3-23.7,46.7-40
				c25.9-36.9,41.3-80.5,46.5-125.1c1.5-13,2.3-26.1,2.3-39.2c0-14.1,0.1-29.5-3.2-43.2c-1.6-6.8-7.6-25-17.7-17.1
				c-4,3.1-5,9.5-6.3,14.1c-1.9,6.4-3.6,12.8-5.2,19.3c-12.1,51.2-13.2,104.7-10.5,157c0.7,13.8,1.3,27.8,4.6,41.2
				c2.4,9.8,6.1,21.9,14.7,28.1c7.7,5.6,16.8,4.9,25.5,2.2c9.2-2.8,18.2-7.1,26.4-12.1c34.3-20.7,55.7-55.9,73.4-90.7
				c4.3-8.5,8.4-17.1,12.5-25.7c1.7-3.7,2-9.5,2.3-13.4c0.4-5.6,0.3-11.7-0.5-17.3c-0.5-3.4-2.8-16.4-6.8-8.1
				c-15.7,33.5-32.7,67.9-59.8,93.8c-13.2,12.6-28.8,22.5-46.1,28.2c-7.4,2.4-17.2,4.5-24.3-0.2c-3.3-2.2-5.9-5.8-7.6-9.3
				c-1.1-2.2-1.9-4.5-2.6-6.8c-0.8-2.7,0.5,2.9-0.5-2.1c-0.1-0.7-0.9-5.4-0.4-2.1c-0.1-1.1-0.4-2.3-0.4-3.3c0,4.3,0.1,1.2,0.1,0.2
				c-0.2-3-0.4-6.1-0.6-9.1c-0.3-5.8-0.6-11.6-0.8-17.4c0-1.3-0.2-5.5,0-0.4c0-1.2-0.1-2.5-0.1-3.7c-0.1-2.5-0.1-4.9-0.1-7.4
				c-0.1-6.1-0.1-12.3,0.1-18.4c0-1.2,0-2.5,0.1-3.7c-0.3,5.1,0,0.8,0-0.5c0.1-2.8,0.2-5.5,0.4-8.3c0.2-2.8,0.3-5.5,0.5-8.3
				c0.1-1.5,0.2-3.1,0.4-4.6c0.1-0.9,0.6-6.3,0.2-2c0.6-5.5,1.2-10.9,1.9-16.4c0.3-2.4,0.7-4.8,1.1-7.2c0.9-5.8-0.3,1.6,0.3-1.8
				c0.3-1.8,0.6-3.6,1-5.4c2-10.4,4.4-20.8,7.6-30.9c0.9-3,2.8-6.6,7-4.1c1.2,0.7,2.2,2.5,2.8,3.8c0.5,1,0.2,2.6,0.7,1.5
				c0.3-0.6-0.6-7-0.3-2.3c0.2,2.2,0.3,4.4,0.4,6.6c0,0.3,0.3,5.8,0.1,1.9c-0.2-3.8,0,1.6,0,1.9c0,2.2,0,4.4,0,6.6
				c0,5.5,0.2-3.7,0-0.2c-0.1,1.6-0.1,3.3-0.2,4.9c-0.1,1.4-0.2,2.7-0.3,4.1c-0.1,0.9-0.2,4,0.1-0.5c-0.1,2.4-0.5,4.9-0.8,7.3
				c-0.3,2.4-0.7,4.9-1,7.3c-0.5,3.5-0.2,1,0,0.3c-0.3,1.6-0.6,3.2-0.9,4.8c-7.5,38.1-25.3,76.8-51.8,106.9
				c-11.6,13.2-30.7,28-49.1,19.4c-7.9-3.7-12.9-11.8-15.9-19.7c-0.3-0.9-0.7-1.8-1-2.8c0.1,0.4-1.3-4.2-0.8-2.4
				c0.5,1.8-0.9-3.4-0.7-2.7c-0.3-1.1-0.5-2.2-0.8-3.3c-0.6-2.5-1.1-5-1.6-7.5c-0.1-0.8-0.8-4.4-0.3-1.3c-0.3-1.7-0.5-3.4-0.8-5
				c-0.3-2.2-0.6-4.5-0.9-6.7c-0.1-1.1-0.2-2.3-0.4-3.4c-0.7-5.5,0.2,2.8-0.1-0.6c-0.4-5.4-0.8-10.8-1.1-16.2
				c-0.1-2.9-0.2-5.7-0.4-8.6c-0.1-1.6-0.9-3.5,0,0.8c-0.2-1-0.1-2.4-0.1-3.4c-0.1-5.7-0.2-11.5-0.3-17.2
				c-0.4-23.6-0.9-47.3-4.1-70.7c-3.6-26.5-20.2-110.8-62.9-79.9c-31.7,23-47.7,62.6-55.9,99.7c-10.7,48.1-11.9,99-8.4,148
				c1,13.2,2.3,26.3,4.1,39.4c0.3,2.2,1.5,13.5,5.6,10.3c1.3-1,1.8-4.3,2.2-5.8c1.2-5.1,1.4-10.7,1.4-15.9
				c0.3-109.7-3.5-219.4-11.4-328.9c-2.3-31.5-4.9-62.9-7.9-94.3c-0.3-2.8-3.2-16.7-6.8-8.1C286,106.1,287.1,118.2,288,127.8
				L288,127.8z"/>
		</g>
	</g>
	<g>
		<g>
			<path class="st0" d="M688.1,290.8c-9.7,42.8-11.6,87.2-6.8,130.8c3.7,33.7,10.7,76.1,41.7,95.8c13.4,8.5,28.9,11.4,43.9,5.4
				c13.7-5.4,25.5-15.9,34-27.8c16.8-23.7,23.5-53.6,27.7-81.9c5.1-33.9,5.7-68.5,4.8-102.7c-1.2,7.2-2.4,14.5-3.6,21.7
				c0.1-0.2,0.3-0.3,0.4-0.5c-0.9,0-1.8,0-2.6,0c0.2,0.1,0.3,0.2,0.5,0.3c-0.7-1.9-1.5-3.9-2.2-5.8c4.1,15.2,7.8,30.5,11.1,46
				c1.8,8.2,3.5,16.5,5,24.7c0.7,3.8,1.4,7.6,2.1,11.3c0.2,0.9,1,5.8,0.5,2.8c0.4,2.5,0.8,4.9,1.2,7.4c2.7,16.6,4.8,33.2,6.5,49.9
				c0.1,1.1,0.2,2.2,0.3,3.4c0.1,0.7,0.4,4.2,0.1,1.5c-0.2-2.5,0,0.3,0.1,0.7c0.1,1.1,0.2,2.2,0.3,3.4c0.4,4.5,0.7,9,1,13.5
				c0.3,3.9,0.5,7.9,0.7,11.8c0.2,4.3-0.3,9.3,0.6,13.5c0-0.1-0.1-4.4-0.1-1.8c0,1.1,0.1,2.2,0.1,3.4c0,2,0.1,3.9,0.1,5.9
				c0.1,4.5,0.1,8.9,0,13.4c0,3.8-0.6,8-0.2,11.7c-0.6-4.7,0.1-2.5,0-1c0,1.1-0.1,2.2-0.1,3.3c-0.1,2.2-0.2,4.4-0.3,6.6
				c-0.2,4.1-0.5,8.3-0.8,12.4c-0.1,1.9-0.3,3.8-0.5,5.7c-0.1,1.1-0.1,2.2-0.3,3.3c0.2-1.6,0.3-2.8,0-0.5c-0.8,8.1-1.8,16.2-3,24.2
				c-0.3,2.1-0.7,4.3-1,6.4c-0.1,0.6-0.6,3.4,0,0.2c-0.1,0.8-0.3,1.6-0.4,2.4c-0.8,4.2-1.6,8.4-2.4,12.5c-1.6,7.7-3.5,15.4-5.6,23
				c-0.7,2.6-1.6,5.5-2.7,9.2c-1.2,3.7-2.4,7.4-3.7,11c-2.6,7.5-5.5,15-8.8,22.2c-6.6,14.3-16.4,27.5-30.8,34.6
				c-13.7,6.8-28.7,8.2-40.9-2c-11.8-9.8-19.2-24.5-22.6-38.4c-0.5-2.2-1-4.4-1.5-6.6c0-0.1-0.5-2.9-0.2-1.1c0.3,2-0.2-1.5-0.3-2
				c-0.3-2-0.5-4-0.8-6c-0.5-3.9,0-0.5,0,0.2c-0.1-1.4-0.2-2.9-0.3-4.3c0-0.9-0.1-1.7-0.1-2.6c-0.2-4.2-0.1,0.2,0,0.8
				c-0.2-1.9-0.1-4,0-6c0-1.1,0-2.3,0-3.4c0-2.6,0,1.7-0.1,1.8c0.7-1.4,0.3-5.8,0.4-7.4c0.1-2.4-0.1,1.5-0.2,1.6
				c0.1,0,0.3-2.6,0.4-3c0.1-0.7,0.6-3.3,0,0c0.2-0.8,0.3-1.5,0.4-2.3c0.9-4.4,1.2-5.4,2.7-9.7c2.5-6.9,5.7-13.3,10-19.3
				c9.9-14,23.7-22.9,39.8-28.5c34.9-12.2,72.7-14,109.1-19.3c33.2-4.9,65.6-12.6,94.2-30.9c25.5-16.3,45.5-39.8,53.3-69.4
				c2.4-9.1,3.6-18.7,4-28.1c0.3-5.8,0.3-11.6-0.5-17.3c-0.3-1.9-0.9-8.8-3-10.3c-4.9-3.7-6,14.4-6.1,15.7c0,0.3,0.1,2.4-0.2,2.9
				c1-1.8,0.5-3.5,0.1-1.1c-0.1,0.8-0.5,3.4,0.1-0.4c-0.2,0.9-0.3,1.8-0.5,2.8c-0.2,0.9-0.4,1.8-0.6,2.7c0,0-0.6,2.2-0.2,0.9
				c0.4-1.5-0.4,1.3-0.5,1.6c-0.4,1.1-0.8,2.2-1.2,3.3c-2.5,6.6-5.9,12.8-10,18.6c-8.9,12.6-20.4,23.3-33.1,32
				c-29.5,20.2-64.7,27.7-99.5,32.6c-19.4,2.7-38.8,4.8-58.2,7.8c-19,3-38.6,6.7-56.3,14.5c-15.7,7-28.8,18-37.5,33
				c-10,17.2-14.5,36.6-16,56.3c-1.7,21.6-1.3,44,2.1,65.5c3,19,7.9,38.8,19.4,54.6c9.5,13.1,23.3,23.3,40.1,20.1
				c16.1-3,30.4-13.5,39.6-26.8c9.9-14.3,16.1-31.2,21.5-47.6c5.5-16.6,9.8-33.5,13.1-50.7c7.3-37.7,10.3-76.2,10.5-114.6
				c0.3-74.1-9.9-148.4-27.6-220.3c-1-4-2-8.1-3.1-12.1c-0.9-3.5-1.7-11.7-4.6-13.6c-0.9-1.1-1.8-1.1-2.6,0c-4.5,5.4-4,16.2-4,22.8
				c0,3.1,0.1,6.2,0.2,9.3c0.1,6.2,0.1,12.4,0.1,18.5c0,3-0.1,6-0.1,9c0,0.7,0,1.4-0.1,2.1c0,0.2,0.2-5,0.1-2.5
				c-0.1,1.9-0.1,3.8-0.2,5.7c-0.3,6.7-0.8,13.5-1.3,20.2c-0.2,2.3,0.2-1.7,0.2-1.8c0,1-0.2,2-0.3,2.9c-0.1,1.4-0.3,2.9-0.5,4.3
				c-0.4,3.4-0.8,6.7-1.3,10.1c-0.2,1.7-0.5,3.3-0.8,5c-0.3,2,0.1-0.8,0.2-1c-0.2,0.9-0.3,1.9-0.5,2.8c-0.6,3.3-1.3,6.5-2,9.7
				c-0.7,3.2-1.5,6.3-2.4,9.5c-0.7,2.5,0.2-0.7-0.5,1.8c-0.5,1.7-1.1,3.5-1.6,5.2c-1.9,5.8-4.2,11.5-6.9,17
				c-10.7,22.2-33.6,44.8-60.2,41.9c-31.6-3.4-47.5-34.7-52.9-62c-0.2-0.9-0.3-1.7-0.5-2.6c-0.6-3.1,0,0.6-0.3-1.5
				c-0.3-2.2-0.7-4.4-1-6.6c-0.3-2.5-0.7-5-1-7.5c-0.1-1.3-0.3-2.5-0.4-3.8c-0.2-1.7-0.2-2.4,0-0.3c-0.4-5-1-10.1-0.9-15.1
				c0,0.3,0.1,3.9,0,1.2c0-1.3,0-2.5-0.1-3.8c0-2.5,0-5.1,0-7.6c0-0.9,0-1.9,0.1-2.8c-0.2,3.2,0,1.6,0.1-0.6
				c0.1-2.2,0.2-4.4,0.4-6.6c0.1-1.3,0.2-2.5,0.3-3.8c0.1-1.7,0.2-2.4,0-0.3c0.2-2.5,0.5-5,0.8-7.5s0.6-5,1-7.5
				c0.1-0.9,0.3-1.9,0.4-2.8c0.1-0.4,0.7-4.2,0.3-2c0.9-5,1.9-9.9,3-14.9c2.3-10.1,2.3-21.8,0-31.8c-0.4-1.6-1.2-6.6-3.5-6.6
				C689.3,284.2,688.4,289.7,688.1,290.8L688.1,290.8z"/>
		</g>
	</g>
</g>
</svg>
