<?xml version="1.0" encoding="utf-8"?>
<!-- Generator: Adobe Illustrator 19.1.0, SVG Export Plug-In . SVG Version: 6.00 Build 0)  -->
<svg version="1.1" id="Layer_1" xmlns="http://www.w3.org/2000/svg" xmlns:xlink="http://www.w3.org/1999/xlink" x="0px" y="0px"
	 viewBox="0 0 397.5 396" style="enable-background:new 0 0 397.5 396;" xml:space="preserve">
<style type="text/css">
	.st0{fill:#DCDEE2;}
	.st1{fill:#6FC6C0;}
	.st2{fill:#C9C9C9;}
	.st3{fill:#333333;}
	.st4{fill:#9CACB6;}
	.st5{fill:#F4F4F4;}
	.st6{fill:none;stroke:#F4F4F4;stroke-width:3;stroke-miterlimit:10;}
	.st7{opacity:0.8;fill:#336667;}
	.st8{fill:#DBE690;}
	.st9{fill:#F0AE9E;}
</style>
<rect x="14" y="12.6" class="st0" width="371.8" height="371.8"/>
<ellipse class="st1" cx="199.6" cy="193.6" rx="130.8" ry="131.8"/>
<g>
	<path class="st2" d="M124.9,148.4v85.9c0,0-0.3,10,8.3,10c8.6,0,135,0,135,0s9.4-0.3,9.4-9.8s0-77.1,0-77.1s1.1-18.3-8.8-18.3
		s-132.8,0-132.8,0S124.9,138.4,124.9,148.4z"/>
	<rect x="124.9" y="156.8" class="st3" width="152.8" height="74"/>
	<rect x="242.3" y="192.3" class="st4" width="7" height="10.1"/>
	<ellipse class="st5" cx="203.2" cy="198.8" rx="41.6" ry="40.5"/>
	<ellipse class="st1" cx="203" cy="199.2" rx="35.4" ry="34.7"/>
	<circle class="st6" cx="203.9" cy="198.8" r="20.8"/>
	<path class="st7" d="M203.2,164.4v69.8c0,0,37.8-0.9,34.8-39.9C237.9,194.2,234.5,166.5,203.2,164.4z"/>
	<rect x="147.1" y="146.9" class="st3" width="18.9" height="7"/>
	<rect x="244.8" y="142.6" class="st3" width="20.2" height="11.3"/>
	<rect x="192.9" y="142.4" class="st8" width="25.4" height="7.8"/>
	<circle class="st9" cx="161.6" cy="175.7" r="4.7"/>
	<circle class="st3" cx="203.9" cy="198.8" r="13.2"/>
	<path class="st3" d="M137.6,139h20.7c0,0-1.2-4.1-4.1-4.1s-11.9,0-11.9,0S137.6,135.4,137.6,139z"/>
</g>
</svg>
