<?xml version="1.0" encoding="utf-8"?>
<!-- Generator: Adobe Illustrator 19.1.0, SVG Export Plug-In . SVG Version: 6.00 Build 0)  -->
<svg version="1.1" id="Layer_1" xmlns="http://www.w3.org/2000/svg" xmlns:xlink="http://www.w3.org/1999/xlink" x="0px" y="0px"
	 viewBox="0 0 444.3 318.1" style="enable-background:new 0 0 444.3 318.1;" xml:space="preserve">
<style type="text/css">
	.st0{fill:#F4F4F4;stroke:#333333;stroke-miterlimit:10;}
	.st1{fill:#333333;}
	.st2{fill:none;stroke:#000000;stroke-miterlimit:10;}
</style>
<path class="st0" d="M428.6,104.9c-1.1-5.3-2.5-22.4-27.1-27.4c-5.8-1.2-11.9-1.2-17.7-0.3c-13.6,2.1-45.8,8.8-64.5,27.2l36.5-8.4
	c0,0,18.4-16.4,40.7-12.8c0.6,0.1,1.1,0.2,1.7,0.2c4.8,0.5,33,5.6,16.9,52.9c0,0-20.4,54.4-64.6,70.2c0,0-22.4,8.8-27.1-22.2
	c-0.5-3.2-0.4-6.4,0.3-9.6c1.8-9,5.2-29.7-1.7-31.9c0,0-12.6-4.7-26,0.5c-5.7,2.2-10.7,6.1-14.5,11c-7.8,10.1-31.9,40.7-33.3,34
	c0,0-3.7-6.9,0-20.6l13-32.2l-19,3.4c0,0-8.2,21.9-22.5,28.6c-1.3,0.6-2.7,0.3-3.6-0.8c-1.9-2.2-4-7.5-1.2-20c0,0,1.4-10.3,0.5-12.6
	l-16.2,4.4c0,0-13.6,47.6-31.4,55.8c-0.1,0.1-0.3,0.1-0.4,0.2c-0.1,0.1-0.3,0.1-0.4,0.2c0,0,0,0,0,0c-5.2,1.9-10.9-0.1-13.2-15.2
	c-0.5-3.2-0.4-6.4,0.3-9.6c1.8-9,5.2-29.7-1.7-31.9c0,0-12.6-4.7-26,0.5c-5.7,2.2-10.7,6.1-14.5,11c-7.8,10.1-27.2,50-28.7,43.3
	c0,0-15.5-61.2-13.5-86.9c0,0,0.5-37.7,25-72.4c2.9-4.1,6.4-7.7,10.5-10.5c7.6-5.2,18.8-8.9,22.6,10.2c1.6,8.1,1,16.5-1.5,24.4
	c-6.3,19.4-22.2,61.7-39.4,55.6c0.6,0.3,11.2,5.8,24,4.1c0,0,14.6-7.2,27.1-40.2c0.6-1.6,1.3-3.3,1.9-4.9
	c4.1-10.1,21.3-57-13.4-62.8c-2.8-0.5-5.6-0.4-8.3,0.2c-4.5,1-12.7,2.8-20.5,5.1c-12.2,3.7-22.6,11.9-29.1,22.9
	C61.1,50,52.1,70.3,49.7,97.7c-1.4,15.7-0.4,31.6,2.9,47.1c3.9,18.8,11.8,58,10.6,62.6c0,0-41.3,32.6-47.8,61.5
	c-0.4,1.7-0.9,3.4-1.3,5.2c-1.6,5.7-4.2,18.5,0.3,28.5c2.2,4.8,7.1,7.9,12.4,7.9c4.5,0,10.1,0.2,15.4-0.3c6.5-0.6,12.1-1.8,16.8-5.8
	c6.5-5.5,14.6-13.6,16.8-21.9c0.7-2.5,1.5-5,2.4-7.4c4.3-12.3,13.7-44.6,5.7-70l0,0c3.9-3.3,9.2-9.8,19-22.4c2.5-3.2,4.5-6.8,7.1-10
	c7.9-9.8,20.5-29.8,27.2-29.3c0.4,0,0.7,0,1.1,0c1.8-0.2,7.1,0.8,4,20.6c-0.9,5.9-0.9,11.9,0.3,17.7c1.8,9.1,6.6,19.3,21.6,20.7
	c1.9,0.2,8.4,0.2,10.7,0.1c5.9-0.6,8.2-3.1,13.3-10.4c1.3-1.9,2.4-3.9,3.2-6.1c2.2-5.5,9.8-23.9,14.1-15.4c1.2,2.3,4.9,3.9,7.9,4.6
	c0.1,0,0.1,0,0.2,0.1c6.3,1.5,11.2,0,16.8-3.4c0.7-0.4,1.4-0.8,2.1-1.1l0.2-0.1c0.8-0.6,1.9,0.6,1.8,1.6c-0.8,7.1-1.5,24.9,9.5,28.1
	c0.7,0.2,1.2,0.4,1.8,0.4c14,1.1,12.8,1.9,23.7-15.1c2.2-3.4,4.5-6.8,7.1-10c7.9-9.8,23.6-28,30.2-27.5c0.4,0,0.7,0,1.1,0
	c1.8-0.2,7.1,0.8,4,20.6c-0.9,5.9-0.9,11.9,0.3,17.7c2.1,10.3,8,23,24.5,26.2c0,0,24,5.2,50.9-19.5c9-8.3,15.1-19.1,22.4-29
	c9.1-12.5,19.2-35.8,19-51.4C429,111.9,428.8,105.8,428.6,104.9z M68.5,275.8c-8.7,21.4-19,26.5-25.4,27.3c-3.5,0.4-6.9-1.1-8.9-4
	c-23-33.8,39.7-87.2,39.7-87.2c1.4,3.1,1.9,13.1,2.2,22.1C76.4,248.3,73.9,262.6,68.5,275.8z"/>
<path class="st0" d="M434.7,104.9c-1.1-5.3-2.5-22.4-27.1-27.4c-5.8-1.2-12.8-1.8-18.7-0.9c-13.6,2.1-41.8,4.1-69.6,27.8l42.6-8.4
	c0,0,18.4-16.4,40.7-12.8c0.6,0.1,1.1,0.2,1.7,0.2c4.8,0.5,33,5.6,16.9,52.9c0,0-20.4,54.4-64.6,70.2c0,0-22.4,8.8-27.1-22.2
	c-0.5-3.2-0.4-6.4,0.3-9.6c1.8-9,5.2-29.7-1.7-31.9c0,0-12.6-4.7-26,0.5c-5.7,2.2-10.7,6.1-14.5,11c-7.8,10.1-31.9,40.7-33.3,34
	c0,0-3.7-6.9,0-20.6l6.9-32.2l-19,3.4c0,0-2.1,21.9-16.4,28.6c-1.3,0.6-2.7,0.3-3.6-0.8c-1.2-1.4-2.1-4.2-2.5-9.5
	c-0.7-7.7-2.5-15.1-4.2-23.1l0-0.1l-16.2,4.4c0,0-7.5,47.6-25.3,55.8c-0.1,0.1-0.3,0.1-0.4,0.2c-0.1,0.1-0.3,0.1-0.4,0.2
	c0,0,0,0,0,0c-5.2,1.9-10.9-0.1-13.2-15.2c-0.5-3.2-0.4-6.4,0.3-9.6c1.8-9,5.2-29.7-1.7-31.9c0,0-12.6-4.7-26,0.5
	c-5.7,2.2-10.7,6.1-14.5,11c-7.8,10.1-27.2,50-28.7,43.3c0,0-15.5-61.2-13.5-86.9c0,0,0.5-37.7,25-72.4c2.9-4.1,6.4-7.7,10.5-10.5
	c7.6-5.2,18.8-8.9,22.6,10.2c1.6,8.1,1,16.5-1.5,24.4c-6.3,19.4-28.3,61.7-45.5,55.6c0.6,0.3,17.3,5.8,30.1,4.1
	c0,0,14.6-7.2,27.1-40.2c0.6-1.6,1.3-3.3,1.9-4.9c4.1-10.1,21.3-57-13.4-62.8c-2.8-0.5-5.6-0.4-8.3,0.2c-4.5,1-12.7,2.8-20.5,5.1
	c-12.2,3.7-22.6,11.9-29.1,22.9C67.2,50,58.2,70.3,55.8,97.7c-1.4,15.7-0.4,31.6,2.9,47.1c3.9,18.8,11.8,58,10.6,62.6
	c0,0-41.3,32.6-47.8,61.5c-0.4,1.7-0.9,3.4-1.3,5.2c-1.6,5.7-4.2,18.5,0.3,28.5c2.2,4.8,7.1,7.9,12.4,7.9c4.5,0,10.1,0.2,15.4-0.3
	c6.5-0.6,12.1-1.8,16.8-5.8c6.5-5.5,13.8-13.6,16.8-21.9c0.9-2.4,1.5-5,2.4-7.4c4.3-12.3,13.7-44.6,5.7-70l0,0
	c3.9-3.3,9.2-9.8,19-22.4c2.5-3.2,4.5-6.8,7.1-10c7.9-9.8,20.5-29.8,27.2-29.3c0.4,0,0.7,0,1.1,0c1.8-0.2,7.1,0.8,4,20.6
	c-0.9,5.9-0.9,11.9,0.3,17.7c1.8,9.1,6.6,19.3,21.6,20.7c1.9,0.2,4,0.2,6.3,0.1c5.9-0.6,12.6-3.1,17.7-10.4c1.3-1.9,2.4-3.9,3.2-6.1
	c2.2-5.5,9.8-23.9,14.1-15.4c1.2,2.3,4.9,3.9,7.9,4.6c0.1,0,0.1,0,0.2,0.1c6.2,1.5,11,0.1,16.4-3.2c0.7-0.4,1.8-1,2.5-1.3l0.2-0.1
	c0.8-0.6,1.9,0.6,1.8,1.6c-0.8,7.1-1.7,26.1,9.5,28.1c0.6,0.1,1.2,0.2,1.8,0.4c2.8,0.8,12.8,1.9,23.7-15.1c2.2-3.4,4.5-6.8,7.1-10
	c7.9-9.8,23.6-28,30.2-27.5c0.4,0,0.7,0,1.1,0c1.8-0.2,7.1,0.8,4,20.6c-0.9,5.9-0.9,11.9,0.3,17.7c2.1,10.3,8,23,24.5,26.2
	c0,0,24,5.2,50.9-19.5c9-8.3,15.1-19.1,22.4-29c9.1-12.5,19.2-35.8,19-51.4C435,111.9,434.8,105.8,434.7,104.9z M74.6,275.8
	c-8.7,21.4-19,26.5-25.4,27.3c-3.5,0.4-6.9-1.1-8.9-4c-23-33.8,39.7-87.2,39.7-87.2c1.4,3.1,1.9,13.1,2.2,22.1
	C82.5,248.3,80,262.6,74.6,275.8z"/>
<g>
	<g>
		<path class="st1" d="M198.7,248.3c-1.2-6.2,2.7-14.2,9.5-13.5c7.9,0.7,8,11.2,8,17.1c0,9.2,0,18.5,0,27.7c0,2.2,0.8,6.3,0,8.4
			c-0.1,0.4-1.8,0.4-0.6,0.3c-2.3,0.3-5.3-0.7-7.4-1.6c-13.1-5.8-8.2-27.4,5.4-28.7c-0.5,0-1,0-1.5,0c0.4,0,0.9,0,1.3,0
			c-0.5,0-1,0-1.5,0c1.5,0.1,2.8,0.4,4.3,0.8c0.9,0.2,2.1-0.2,3,0c-4.1-1.1-9.5-1.5-13.4,0.5c-6.6,3.4-10.1,13.6-7.5,20.4
			c2.3,6,8.5,8.3,14.4,8.7c1.1,0.1,5.7,0.7,6.5-0.1c0.3-0.3,0-2.5,0-3c0-2.6,0-5.2,0-7.8c0-6.5,0-13.1,0-19.6
			c0-7.5,1.8-21.6-8.3-23.1c-8.8-1.3-17.1,3.9-15.2,13.6C195.7,248.5,198.7,248.1,198.7,248.3L198.7,248.3z"/>
	</g>
</g>
<g>
	<g>
		<path class="st1" d="M222.7,274.6c0.2,7.1,2.8,13.9,10.6,13.9c7.7,0,12.7-4.6,13.2-12.4c0.3-4.6-0.5-10.3-4.1-13.6
			c-4.6-4.1-11.3-2.2-15.1-7.7c-2.7-3.9-3.3-10.3-1.3-14.6c1.7-3.5,6.3-6.2,9.6-5.3c5.7,1.7,6.9,8.4,7,13.5c0,0,3,0,3,0
			c-0.2-7.1-2.8-13.9-10.6-13.9c-7.8,0-13.6,3.7-13.1,12.1c0.4,7.2,4.4,11.7,11.6,13.2c9.6,1.9,12.4,14,8.7,22.2
			c-1.7,3.6-6,7.1-9.4,6.1c-5.7-1.7-6.9-8.4-7-13.5C225.7,274.6,222.7,274.6,222.7,274.6L222.7,274.6z"/>
	</g>
</g>
<g>
	<g>
		<path class="st1" d="M249.2,251.6c6.2,0,12.4,0,18.5,0c0.1,0,1.5,0,1.5,0c-0.4-6.4-2.4-16.4-10.2-16.9c-3.5-0.2-6.7,0.7-8.4,4.3
			c-2.3,5-2.9,11.9-3.5,17.3c-0.8,7.4-0.8,15,1.1,22.2c1.3,4.9,3.2,9.8,8.9,10.1c11.9,0.8,12-14.3,12.1-22.9c0,0-3,0-3,0
			c-0.1,6.6,0.1,22.7-9.7,22.9c0.9,0,1.9,0,2.8,0c-10.7-1.5-10.1-20.9-9.6-28.7c0.3-5,1.1-10,2.2-14.9c1-4.6,2-9.5,7.5-10.2
			c-1,0-2,0-3,0c7.5,0.7,9.4,10.8,9.8,16.9c0.5,0,1,0,1.5,0C261.5,251.5,255.4,251.5,249.2,251.6
			C247.5,251.5,247.4,251.6,249.2,251.6L249.2,251.6z"/>
	</g>
</g>
<g>
	<g>
		<path class="st1" d="M191.2,275.5c0.3,5.1-2.3,10.4-7.4,12.1c-2,0.7-3.5,0.8-5.9-0.9c-3.6-2.5-4.4-7.1-4.5-11.2c0,0-3,0-3,0
			c0.2,7.5,3.6,12.8,11.2,12.7c7.5-0.1,13-5,12.6-12.7C194.2,275.5,191.2,275.6,191.2,275.5L191.2,275.5z"/>
	</g>
</g>
<g>
	<g>
		<path class="st1" d="M194,247.3c1.3-6.3-2.5-11.6-8.8-12.5c-3.5-0.5-7.9-0.6-10.8,1.8c-5.3,4.4-3.9,13.4-3.9,19.6
			c0,6.5,0,12.9,0,19.4c0,0,3,0,3,0c0-5.2,0-10.4,0-15.6c0-5.4-0.7-11.5,0.4-16.9c1.3-6.5,6.6-10.1,12.5-7.1c4.1,2.1,5.6,7,4.7,11.3
			C191,247.2,193.9,247.6,194,247.3L194,247.3z"/>
	</g>
</g>
<line class="st2" x1="269" y1="251" x2="249.2" y2="251"/>
</svg>
