<?xml version="1.0" encoding="utf-8"?>
<!-- Generator: Adobe Illustrator 19.1.0, SVG Export Plug-In . SVG Version: 6.00 Build 0)  -->
<svg version="1.1" id="Layer_1" xmlns="http://www.w3.org/2000/svg" xmlns:xlink="http://www.w3.org/1999/xlink" x="0px" y="0px"
	 viewBox="0 0 444.3 318.1" style="enable-background:new 0 0 444.3 318.1;" xml:space="preserve">
<style type="text/css">
	.st0{fill:#DBE691;}
	.st1{fill:#333333;}
	.st2{fill:none;stroke:#333333;stroke-miterlimit:10;}
</style>
<path class="st0" d="M430.9,103c-1.1-5.4-2.5-22.8-27.5-27.9c-5.9-1.2-12.1-1.2-18-0.3c-13.9,2.1-46.6,9-65.6,27.7l37.1-8.6
	c0,0,18.7-16.7,41.4-13c0.6,0.1,1.2,0.2,1.7,0.2c4.9,0.5,33.5,5.7,17.2,53.9c0,0-20.7,55.3-65.7,71.4c0,0-22.8,9-27.6-22.6
	c-0.5-3.2-0.4-6.5,0.3-9.8c1.8-9.1,5.3-30.2-1.8-32.5c0,0-12.8-4.8-26.4,0.5c-5.8,2.3-10.9,6.2-14.7,11.2
	c-7.9,10.3-32.4,41.5-33.9,34.6c0,0-3.8-7,0-21l13.2-32.7l-19.3,3.4c0,0-8.4,22.3-22.9,29.1c-1.3,0.6-2.8,0.3-3.7-0.8
	c-1.9-2.2-4-7.7-1.2-20.3c0,0,1.4-10.5,0.5-12.8l-16.4,4.5c0,0-13.8,48.4-32,56.7c-0.1,0.1-0.3,0.1-0.4,0.2
	c-0.1,0.1-0.3,0.1-0.4,0.2c0,0,0,0,0,0c-5.3,1.9-11.1-0.1-13.4-15.4c-0.5-3.2-0.4-6.5,0.3-9.8c1.8-9.1,5.3-30.2-1.8-32.5
	c0,0-12.8-4.8-26.4,0.5c-5.8,2.3-10.9,6.2-14.7,11.2c-7.9,10.3-27.7,50.9-29.2,44c0,0-15.8-62.3-13.8-88.4c0,0,0.5-38.3,25.5-73.7
	c2.9-4.1,6.5-7.8,10.7-10.7c7.7-5.3,19.1-9.1,23,10.4c1.6,8.3,1,16.8-1.6,24.8c-6.4,19.8-22.6,62.7-40.1,56.6
	c0.6,0.3,11.4,5.9,24.4,4.1c0,0,14.8-7.3,27.6-40.9c0.6-1.7,1.3-3.3,2-5c4.2-10.3,21.6-58-13.7-63.9c-2.8-0.5-5.7-0.4-8.5,0.2
	c-4.6,1-12.9,2.8-20.9,5.2c-12.4,3.7-23,12.1-29.6,23.3c-7.4,12.7-16.5,33.3-19,61.2c-1.4,16-0.4,32.1,2.9,47.9
	c4,19.1,12,59,10.8,63.6c0,0-42,33.1-48.6,62.6c-0.4,1.8-0.9,3.5-1.4,5.3c-1.6,5.8-4.3,18.8,0.3,29c2.2,4.9,7.2,8,12.6,8
	c4.6,0,10.2,0.2,15.7-0.3c6.6-0.6,12.3-1.8,17.1-5.9c6.6-5.6,14.9-13.9,17.1-22.3c0.7-2.6,1.5-5.1,2.4-7.6
	c4.3-12.5,14-45.4,5.8-71.2l0,0c4-3.3,9.4-9.9,19.4-22.8c2.5-3.3,4.6-6.9,7.2-10.2c8.1-10,20.9-30.3,27.6-29.8c0.4,0,0.7,0,1.1,0
	c1.8-0.2,7.3,0.8,4.1,21c-0.9,6-0.9,12.1,0.3,18c1.9,9.3,6.7,19.7,22,21c2,0.2,4.1,0.2,6.4,0.1c6-0.6,12.8-3.2,18-10.6
	c1.4-1.9,2.4-4,3.3-6.2c2.2-5.6,10-24.3,14.3-15.7c1.2,2.3,5,4,8,4.7c0.1,0,0.2,0,0.2,0.1c6.4,1.5,11.4,0,17.1-3.5
	c0.7-0.4,1.4-0.8,2.2-1.1l0.2-0.1c0.8-0.6,2,0.7,1.9,1.7c-0.8,7.2-1.8,26.5,9.7,28.6c0.6,0.1,1.2,0.2,1.8,0.4
	c2.9,0.8,13,2,24.1-15.4c2.2-3.5,4.6-6.9,7.2-10.1c8.1-10,24-28.5,30.7-28c0.4,0,0.7,0,1.1,0c1.8-0.2,7.3,0.8,4.1,21
	c-0.9,6-0.9,12.1,0.3,18c2.1,10.5,8.2,23.4,25,26.7c0,0,24.4,5.3,51.8-19.9c9.2-8.4,15.4-19.4,22.7-29.5
	c9.3-12.8,19.5-36.4,19.4-52.3C431.3,110.2,431.1,104,430.9,103z M64.6,277c-8.9,21.8-19.3,26.9-25.8,27.7c-3.6,0.4-7-1.2-9-4.1
	c-23.4-34.4,40.3-88.7,40.3-88.7c1.4,3.2,2,13.3,2.2,22.5C72.6,248.9,70.1,263.5,64.6,277z"/>
<path class="st1" d="M437.1,103c-1.1-5.4-2.5-22.8-27.5-27.9c-5.9-1.2-12.1-1.2-18-0.3c-13.9,2.1-46.6,9-65.6,27.7l37.1-8.6
	c0,0,18.7-16.7,41.4-13c0.6,0.1,1.2,0.2,1.7,0.2c4.9,0.5,33.5,5.7,17.2,53.9c0,0-20.7,55.3-65.7,71.4c0,0-22.8,9-27.6-22.6
	c-0.5-3.2-0.4-6.5,0.3-9.8c1.8-9.1,5.3-30.2-1.8-32.5c0,0-12.8-4.8-26.4,0.5c-5.8,2.3-10.9,6.2-14.7,11.2
	c-7.9,10.3-32.4,41.5-33.9,34.6c0,0-3.8-7,0-21l13.2-32.7l-19.3,3.4c0,0-8.4,22.3-22.9,29.1c-1.3,0.6-2.8,0.3-3.7-0.8
	c-1.9-2.2-4-7.7-1.2-20.3c0,0,1.4-10.5,0.5-12.8l-16.4,4.5c0,0-13.8,48.4-32,56.7c-0.1,0.1-0.3,0.1-0.4,0.2
	c-0.1,0.1-0.3,0.1-0.4,0.2c0,0,0,0,0,0c-5.3,1.9-11.1-0.1-13.4-15.4c-0.5-3.2-0.4-6.5,0.3-9.8c1.8-9.1,5.3-30.2-1.8-32.5
	c0,0-12.8-4.8-26.4,0.5c-5.8,2.3-10.9,6.2-14.7,11.2c-7.9,10.3-27.7,50.9-29.2,44c0,0-15.8-62.3-13.8-88.4c0,0,0.5-38.3,25.5-73.7
	c2.9-4.1,6.5-7.8,10.7-10.7c7.7-5.3,19.1-9.1,23,10.4c1.6,8.3,1,16.8-1.6,24.8c-6.4,19.8-22.6,62.7-40.1,56.6
	c0.6,0.3,11.4,5.9,24.4,4.1c0,0,14.8-7.3,27.6-40.9c0.6-1.7,1.3-3.3,2-5c4.2-10.3,21.6-58-13.7-63.9c-2.8-0.5-5.7-0.4-8.5,0.2
	c-4.6,1-12.9,2.8-20.9,5.2c-12.4,3.7-23,12.1-29.6,23.3c-7.4,12.7-16.5,33.3-19,61.2c-1.4,16-0.4,32.1,2.9,47.9
	c4,19.1,12,59,10.8,63.6c0,0-42,33.1-48.6,62.6c-0.4,1.8-0.9,3.5-1.4,5.3c-1.6,5.8-4.3,18.8,0.3,29c2.2,4.9,7.2,8,12.6,8
	c4.6,0,10.2,0.2,15.7-0.3c6.6-0.6,12.3-1.8,17.1-5.9c6.6-5.6,14.9-13.9,17.1-22.3c0.7-2.6,1.5-5.1,2.4-7.6
	c4.3-12.5,14-45.4,5.8-71.2l0,0c4-3.3,9.4-9.9,19.4-22.8c2.5-3.3,4.6-6.9,7.2-10.2c8.1-10,20.9-30.3,27.6-29.8c0.4,0,0.7,0,1.1,0
	c1.8-0.2,7.3,0.8,4.1,21c-0.9,6-0.9,12.1,0.3,18c1.9,9.3,6.7,19.7,22,21c2,0.2,4.1,0.2,6.4,0.1c6-0.6,12.8-3.2,18-10.6
	c1.4-1.9,2.4-4,3.3-6.2c2.2-5.6,10-24.3,14.3-15.7c1.2,2.3,5,4,8,4.7c0.1,0,0.2,0,0.2,0.1c6.4,1.5,11.4,0,17.1-3.5
	c0.7-0.4,1.4-0.8,2.2-1.1l0.2-0.1c0.8-0.6,2,0.7,1.9,1.7c-0.8,7.2-1.8,26.5,9.7,28.6c0.6,0.1,1.2,0.2,1.8,0.4
	c2.9,0.8,13,2,24.1-15.4c2.2-3.5,4.6-6.9,7.2-10.1c8.1-10,24-28.5,30.7-28c0.4,0,0.7,0,1.1,0c1.8-0.2,7.3,0.8,4.1,21
	c-0.9,6-0.9,12.1,0.3,18c2.1,10.5,8.2,23.4,25,26.7c0,0,24.4,5.3,51.8-19.9c9.2-8.4,15.4-19.4,22.7-29.5
	c9.3-12.8,19.5-36.4,19.4-52.3C437.5,110.2,437.3,104,437.1,103z M70.8,277c-8.9,21.8-19.3,26.9-25.8,27.7c-3.6,0.4-7-1.2-9-4.1
	c-23.4-34.4,40.3-88.7,40.3-88.7c1.4,3.2,2,13.3,2.2,22.5C78.8,248.9,76.3,263.5,70.8,277z"/>
<g>
	<g>
		<path class="st1" d="M201.3,237.2c-1.3-6.3,2.9-14.3,9.7-13.8c7.9,0.6,8.2,11.1,8.2,17c0,9.3,0,18.7,0,28c0,2.4,0.9,6.8,0,9.1
			c-0.2,0.5-1.6,0.5-0.7,0.3c-2.3,0.3-5.4-0.7-7.5-1.6c-13.4-5.9-8.3-28.2,5.7-29.2c-0.9,0-1.9,0-2.8,0c1.9,0,3.4,0.3,5.3,0.8
			c0.9,0.2,2.1-0.2,3,0c-4.1-1.1-9.8-1.5-13.7,0.6c-6.5,3.5-10,13.3-7.7,20.1c2.2,6.5,8.6,9.1,14.9,9.4c1.1,0.1,5.8,0.7,6.5-0.1
			c0.3-0.3,0-3,0-3.5c0-2.7,0-5.4,0-8.1c0-6.5,0-13.1,0-19.6c0-7.6,1.8-21.8-8.5-23.2c-9-1.2-17.3,4-15.4,13.8
			C198.3,237.4,201.2,237.1,201.3,237.2L201.3,237.2z"/>
	</g>
</g>
<g>
	<g>
		<path class="st1" d="M225.7,264.1c0.2,7,2.7,14.1,10.6,14.1c7.9,0,13.1-4.5,13.5-12.5c0.3-4.8-0.4-10.7-4.2-14
			c-4.8-4.2-11.8-2.2-15.6-8.2c-2.6-4-3.2-10.6-0.9-14.8c1.8-3.4,6.4-6,9.8-5c5.7,1.8,6.9,8.6,7.1,13.7c0,0,3,0,3,0
			c-0.2-7.1-2.7-14.1-10.6-14.1c-7.8-0.1-13.9,3.6-13.6,12c0.3,7.9,4.8,12.2,12.5,13.8c9.5,2,11.9,15,8,22.8
			c-1.8,3.6-6.1,6.9-9.5,5.9c-5.7-1.8-6.9-8.6-7.1-13.7C228.7,264,225.7,264.1,225.7,264.1L225.7,264.1z"/>
	</g>
</g>
<g>
	<g>
		<path class="st1" d="M252.6,240.6c6.3,0,12.6,0,18.9,0c0.1,0,1.5,0,1.5,0c-0.5-6.5-2.5-16.7-10.4-17.2
			c-10.7-0.7-11.2,14-12.1,21.9c-0.9,8.7-2.4,32.1,10.2,32.9c12.1,0.8,12.2-14.6,12.3-23.3c0,0-3,0-3,0c-0.1,6.7,0.1,23.1-9.8,23.3
			c0.9,0,1.9,0,2.8,0c-10.9-1.5-10.3-21.3-9.8-29.2c0.3-5.1,1.1-10.2,2.2-15.2c1-4.6,2.1-9.7,7.6-10.4c-1,0-2,0-3,0
			c7.6,0.7,9.5,11,10,17.2c0.5,0,1,0,1.5,0C265.2,240.6,258.9,240.6,252.6,240.6C251,240.6,250.9,240.6,252.6,240.6L252.6,240.6z"/>
	</g>
</g>
<g>
	<g>
		<path class="st1" d="M193.7,265c0.3,5.2-2.4,10.6-7.5,12.3c-2.1,0.7-3.6,0.8-6.1-0.9c-3.7-2.6-4.5-7.2-4.6-11.4c0,0-3,0-3,0
			c0.2,7.6,3.6,13,11.4,12.9c7.6-0.1,13.2-5.1,12.8-13C196.7,264.9,193.7,265,193.7,265L193.7,265z"/>
	</g>
</g>
<g>
	<g>
		<path class="st1" d="M196.4,236.3c1.4-6.5-2.5-11.9-9.1-12.8c-3.6-0.5-7.9-0.6-10.8,1.8c-5.3,4.4-4,13.4-4,19.6
			c0,6.7,0,13.4,0,20.1c0,0,3,0,3,0c0-5.3,0-10.5,0-15.8c0-5.5-0.7-11.7,0.4-17.2c1.3-6.5,6.6-10.2,12.6-7.3
			c4.3,2.1,5.9,7.1,4.9,11.6C193.5,236.1,196.4,236.5,196.4,236.3L196.4,236.3z"/>
	</g>
</g>
<line class="st2" x1="272.7" y1="240.1" x2="252.6" y2="240.1"/>
</svg>
