<?xml version="1.0" encoding="utf-8"?>
<!-- Generator: Adobe Illustrator 19.1.0, SVG Export Plug-In . SVG Version: 6.00 Build 0)  -->
<svg version="1.1" id="Layer_1" xmlns="http://www.w3.org/2000/svg" xmlns:xlink="http://www.w3.org/1999/xlink" x="0px" y="0px"
	 viewBox="-327.4 0.5 792 612" style="enable-background:new -327.4 0.5 792 612;" xml:space="preserve">
<style type="text/css">
	.st0{fill:#DBDFD5;}
	.st1{fill:#2C2C6F;}
	.st2{font-family:'MyriadPro-Bold';}
	.st3{font-size:59.5602px;}
	.st4{font-family:'MyriadPro-LightIt';}
	.st5{font-size:10.8291px;}
	.st6{fill:none;stroke:#231F1F;stroke-miterlimit:10;}
	.st7{fill:none;}
	.st8{font-family:'MyriadPro-Semibold';}
	.st9{font-size:15.075px;}
	.st10{font-family:'MyriadPro-Light';}
	.st11{font-size:9.648px;}
	.st12{font-size:12.0601px;}
	.st13{fill:none;stroke:#000000;stroke-width:5;stroke-miterlimit:10;}
	.st14{fill:none;stroke:#000000;stroke-width:2;stroke-miterlimit:10;}
	.st15{fill:none;stroke:#000000;stroke-miterlimit:10;}
	.st16{fill:none;stroke:#000000;stroke-width:3;stroke-miterlimit:10;}
	.st17{font-family:'MyriadPro-Regular';}
	.st18{fill:#EB2227;}
	.st19{fill:#CAE7F7;}
	.st20{fill:#241E20;}
	.st21{fill:#B28E46;}
	.st22{fill:#26170E;}
	.st23{fill:none;stroke:#26170E;stroke-miterlimit:10;}
	.st24{font-size:10.2961px;}
	.st25{font-size:6.4975px;}
	.st26{font-size:9.2821px;}
	.st27{font-size:7.7351px;}
	.st28{fill:#221E1F;}
</style>
<g id="Background">
	<rect x="-327.4" y="0.5" class="st0" width="792" height="612"/>
</g>
<g id="Layer_5">
	<path class="st1" d="M249.3,0.5c0,0,6.9,22.6,26.8,23.1c0,0,35,0.1,35.4,24.7c0,0,0.6,47.8-7.2,61.6c-0.8,1.3-2,4.3-2.7,5.4
		c-2.6,4.7-12.7,19.9-48.8,18.4l-104.6-0.6c0,0-30.2,6.8-29.5-24.9c0-1.7,0-3.4-0.2-5c-1.6-12.4-7.2-67.1,20.2-74.2
		c0,0,14.9-7.8,79.5-1.1C218.3,28,256,29.8,249.3,0.5z"/>
	<text transform="matrix(1 0 0 1 144.0908 84.4292)" class="st0 st2 st3">300g</text>
	<text transform="matrix(1 0 0 1 138.5224 109.1817)" class="st0 st4 st5">No artificial flavour or colour added</text>
	<text transform="matrix(1 0 0 1 132.1806 121.5567)" class="st0 st4 st5">Sans arôme artificiel ni colorant ajouté</text>
</g>
<g id="Nutrition_Facts">
	<g>
		<rect x="-125.3" y="37.1" class="st6" width="212.8" height="246.6"/>
		<g>
			<rect x="-125.3" y="40.1" class="st7" width="234.5" height="246.6"/>
			<text transform="matrix(1 0 0 1 -125.3271 50.8877)" class="st8 st9">Nutrition Facts</text>
			<text transform="matrix(1 0 0 1 -125.3271 62.4917)" class="st10 st11">Serving Size 2 cookies (34 g)</text>
			<text transform="matrix(1 0 0 1 -125.3271 91.4204)" class="st8 st12">Calories</text>
			<text transform="matrix(1 0 0 1 -83.5581 91.4204)" class="st10 st12"> 160</text>
			<text transform="matrix(1 0 0 1 -125.3271 105.8848)" class="st8 st12">Fat</text>
			<text transform="matrix(1 0 0 1 -108.8511 105.8848)" class="st10 st12"> 7g</text>
			<text transform="matrix(1 0 0 1 -125.3271 120.3496)" class="st10 st12">Saturated + Trans 4g</text>
			<text transform="matrix(1 0 0 1 -125.3271 149.2784)" class="st8 st12">Cholesterol </text>
			<text transform="matrix(1 0 0 1 -63.0601 149.2784)" class="st10 st12">0 mg</text>
			<text transform="matrix(1 0 0 1 -125.3271 163.7441)" class="st8 st12">Sodium </text>
			<text transform="matrix(1 0 0 1 -82.5522 163.7441)" class="st10 st12">120mg</text>
			<text transform="matrix(1 0 0 1 -125.3271 178.2085)" class="st8 st12">Carbohydrate</text>
			<text transform="matrix(1 0 0 1 -53.1592 178.2085)" class="st10 st12"> 23g</text>
			<text transform="matrix(1 0 0 1 -125.3271 192.7495)" class="st10 st12">   Fiber 1g</text>
			<text transform="matrix(1 0 0 1 -125.3271 207.2153)" class="st10 st12">   Sugars 11g</text>
			<text transform="matrix(1 0 0 1 -125.3271 221.6787)" class="st8 st12">Protein</text>
			<text transform="matrix(1 0 0 1 -87.0381 221.6787)" class="st10 st12"> 2g</text>
			<text transform="matrix(1 0 0 1 -125.3271 236.144)" class="st10 st12">Vitamin A </text>
			<text transform="matrix(1 0 0 1 -125.3271 250.6074)" class="st10 st12">Vitamin C </text>
			<text transform="matrix(1 0 0 1 -125.3271 265.0732)" class="st10 st12">Calcium</text>
			<text transform="matrix(1 0 0 1 -125.3271 279.5386)" class="st10 st12">Iron</text>
			<line class="st13" x1="-125.3" y1="71.7" x2="88.1" y2="71.7"/>
			<line class="st14" x1="-125.3" y1="94" x2="88.1" y2="94"/>
			<line class="st15" x1="-125.3" y1="110.3" x2="88.1" y2="110.3"/>
			<line class="st15" x1="-125.3" y1="130.9" x2="88.1" y2="130.9"/>
			<line class="st15" x1="-125.3" y1="238.8" x2="88.1" y2="238.8"/>
			<line class="st15" x1="-125.3" y1="255.1" x2="88.1" y2="255.1"/>
			<line class="st15" x1="-125.3" y1="268.9" x2="88.1" y2="268.9"/>
			<line class="st15" x1="-125.3" y1="152.5" x2="88.1" y2="152.5"/>
			<line class="st15" x1="-125.3" y1="167.5" x2="88.1" y2="167.5"/>
			<line class="st15" x1="-125.3" y1="181.4" x2="88.1" y2="181.4"/>
			<line class="st15" x1="-117.5" y1="197.1" x2="87.5" y2="197.1"/>
			<line class="st15" x1="-117.5" y1="211.6" x2="87.5" y2="211.6"/>
			<line class="st16" x1="-125.3" y1="226.1" x2="88.1" y2="226.1"/>
			<rect x="60.9" y="98.3" class="st7" width="26.6" height="98.9"/>
			<text transform="matrix(1 0 0 1 65.5327 106.8101)" class="st17 st12">11%</text>
			<text transform="matrix(1 0 0 1 65.5327 124.2915)" class="st17 st12">21%</text>
			<text transform="matrix(1 0 0 1 71.7207 164.669)" class="st17 st12">5%</text>
			<text transform="matrix(1 0 0 1 71.7207 179.1333)" class="st17 st12">8%</text>
			<text transform="matrix(1 0 0 1 71.7207 193.6748)" class="st17 st12">4%</text>
			<rect x="60.9" y="227.9" class="st7" width="26.6" height="60.8"/>
			<text transform="matrix(1 0 0 1 71.7197 236.4556)" class="st17 st12">0%</text>
			<text transform="matrix(1 0 0 1 71.7197 250.92)" class="st17 st12">0%</text>
			<text transform="matrix(1 0 0 1 71.7197 265.3853)" class="st17 st12">2%</text>
			<text transform="matrix(1 0 0 1 71.7197 279.8496)" class="st17 st12">2%</text>
		</g>
	</g>
</g>
<g id="Double_Decker">
	<g>
		<path class="st18" d="M-32,574.7l0.8-129.1c0,0,5-35.5,32.7-35.5h268.3c0,0,25-3.4,26.6,31.1l5,89.3c0,0,3.4-0.5,6.6,10.5v33.8
			L-32,574.7L-32,574.7z"/>
		<path class="st19" d="M-23.5,456.9h51.2v-34.5C27.7,422.3-25.7,412.8-23.5,456.9z"/>
		<path class="st19" d="M91.3,458.8H47.1c-5.1,0-9.3-4.2-9.3-9.3v-18.8c0-5.1,4.2-9.3,9.3-9.3h44.1c5.1,0,9.3,4.2,9.3,9.3v18.8
			C100.6,454.6,96.4,458.8,91.3,458.8z"/>
		<path class="st19" d="M162.3,457.8h-44c-5.1,0-9.3-4.2-9.3-9.3v-18.8c0-5.1,4.2-9.3,9.3-9.3h44.1c5.1,0,9.3,4.2,9.3,9.3v18.8
			C171.6,453.6,167.4,457.8,162.3,457.8z"/>
		<path class="st19" d="M232.8,457.8h-44c-5.1,0-9.3-4.2-9.3-9.3v-18.8c0-5.1,4.2-9.3,9.3-9.3h44.1c5.1,0,9.3,4.2,9.3,9.3v18.8
			C242.1,453.6,237.9,457.8,232.8,457.8z"/>
		<path class="st19" d="M91.6,530.7H47.4c-5.1,0-9.3-4.2-9.3-9.3v-18.8c0-5.1,4.2-9.3,9.3-9.3h44.1c5.1,0,9.3,4.2,9.3,9.3v18.8
			C100.9,526.5,96.7,530.7,91.6,530.7z"/>
		<path class="st19" d="M162.7,529.6h-44.1c-5.1,0-9.3-4.2-9.3-9.3v-18.8c0-5.1,4.2-9.3,9.3-9.3h44.1c5.1,0,9.3,4.2,9.3,9.3v18.8
			C172,525.5,167.8,529.6,162.7,529.6z"/>
		<path class="st19" d="M233.2,530.7H189c-5.1,0-9.3-4.2-9.3-9.3v-18.8c0-5.1,4.2-9.3,9.3-9.3h44.1c5.1,0,9.3,4.2,9.3,9.3v18.8
			C242.5,526.5,238.3,530.7,233.2,530.7z"/>
		<path class="st19" d="M249.8,485.1v48.6h43.4v-24.3c0,0-0.7-25.6-18.3-24.3H249.8L249.8,485.1z"/>
		<path class="st19" d="M249.8,424.5v21c0,0-1.1,12.2,8.8,12.3c10,0.2,10,0.2,10,0.2l23.1-0.2C291.7,457.8,295.6,425.8,249.8,424.5z
			"/>
		<rect x="46.7" y="462.7" class="st20" width="195.3" height="24.9"/>
		<circle class="st20" cx="59.3" cy="575.6" r="26.5"/>
		<circle class="st20" cx="275" cy="575.6" r="26.5"/>
	</g>
	<g>
		<circle class="st21" cx="59.3" cy="575.6" r="25.7"/>
		<circle class="st22" cx="52.6" cy="557.2" r="0.8"/>
		<circle class="st22" cx="43.5" cy="561.5" r="0.8"/>
		<circle class="st22" cx="61.8" cy="556.2" r="0.8"/>
		<circle class="st22" cx="70.4" cy="560.1" r="0.8"/>
		<circle class="st22" cx="65.4" cy="568.7" r="0.8"/>
		<circle class="st22" cx="51" cy="569.9" r="0.8"/>
		<circle class="st22" cx="41.2" cy="570.6" r="0.8"/>
		<circle class="st22" cx="41.9" cy="581.1" r="0.8"/>
		<circle class="st22" cx="51.7" cy="579.9" r="0.8"/>
		<circle class="st22" cx="47" cy="589.4" r="0.8"/>
		<circle class="st22" cx="55" cy="593.1" r="0.8"/>
		<circle class="st22" cx="59.3" cy="586.9" r="0.8"/>
		<circle class="st22" cx="64.5" cy="592.6" r="0.8"/>
		<circle class="st22" cx="72.7" cy="587.5" r="0.8"/>
		<circle class="st22" cx="66" cy="578.8" r="0.8"/>
		<circle class="st22" cx="76.9" cy="579.8" r="0.8"/>
		<circle class="st22" cx="75.7" cy="568" r="0.8"/>
		<path class="st23" d="M52.9,571.5c0,0-3.4-1.1-3.4,2.5c0,0,0.2,3,3.4,1.7"/>
		<line class="st23" x1="50.2" y1="577.7" x2="52.7" y2="577.7"/>
		<text transform="matrix(1 0 0 1 41.1528 577.957)" class="st22 st17 st24">M  VITIES</text>
		<g>
			<g>
				<path class="st22" d="M59.2,561.9c0,0,0.5-2.7,5.7-3.3C64.9,558.7,62.3,562.7,59.2,561.9z"/>
				<path class="st22" d="M54.6,561.7c0,0,0.5-2.7,5.7-3.3C60.3,558.5,57.8,562.6,54.6,561.7z"/>
				<path class="st22" d="M50.2,562c0,0,0.3-2.8,5.5-3.7C55.7,558.3,53.6,562.6,50.2,562z"/>
				<path class="st22" d="M59.1,562.4c0,0,0.2,2.8,5.2,4C64.2,566.4,62.3,562,59.1,562.4z"/>
				<path class="st22" d="M54.6,562.3c0,0,0.4,2.8,5.6,3.5C60.1,565.8,57.8,561.6,54.6,562.3z"/>
				<path class="st22" d="M50.4,562.5c0,0,0.5,2.8,5.6,3.4C56.1,565.8,53.7,561.7,50.4,562.5z"/>
			</g>
		</g>
		<path class="st22" d="M62.4,562.4c0,0,2.8-2.7,9.1,0.8C71.5,563.3,65.4,566,62.4,562.4z"/>
		<path class="st22" d="M49.6,562.3c0,0,0.3,1.9-2.7,3.4C46.8,565.6,47.3,562.3,49.6,562.3z"/>
	</g>
	<g>
		<circle class="st21" cx="275" cy="575.3" r="25.7"/>
		<circle class="st22" cx="268.3" cy="556.9" r="0.8"/>
		<circle class="st22" cx="259.3" cy="561.2" r="0.8"/>
		<circle class="st22" cx="277.5" cy="555.9" r="0.8"/>
		<circle class="st22" cx="286.1" cy="559.8" r="0.8"/>
		<circle class="st22" cx="281.1" cy="568.5" r="0.8"/>
		<circle class="st22" cx="266.7" cy="569.6" r="0.8"/>
		<circle class="st22" cx="256.9" cy="570.3" r="0.8"/>
		<circle class="st22" cx="257.7" cy="580.9" r="0.8"/>
		<circle class="st22" cx="267.4" cy="579.7" r="0.8"/>
		<circle class="st22" cx="262.7" cy="589.1" r="0.8"/>
		<circle class="st22" cx="270.8" cy="592.9" r="0.8"/>
		<circle class="st22" cx="275" cy="586.5" r="0.8"/>
		<circle class="st22" cx="280.3" cy="592.3" r="0.8"/>
		<circle class="st22" cx="288.3" cy="587.2" r="0.8"/>
		<circle class="st22" cx="281.7" cy="578.5" r="0.8"/>
		<circle class="st22" cx="292.5" cy="579.5" r="0.8"/>
		<circle class="st22" cx="291.4" cy="567.6" r="0.8"/>
		<path class="st23" d="M268.6,571.2c0,0-3.4-1.1-3.4,2.5c0,0,0.2,3,3.4,1.7"/>
		<line class="st23" x1="266" y1="577.4" x2="268.5" y2="577.4"/>
		<text transform="matrix(1 0 0 1 256.8681 577.6709)" class="st22 st17 st24">M  VITIES</text>
		<g>
			<g>
				<path class="st22" d="M274.9,561.6c0,0,0.5-2.7,5.7-3.3C280.6,558.3,278.1,562.5,274.9,561.6z"/>
				<path class="st22" d="M270.3,561.4c0,0,0.5-2.7,5.7-3.3C276,558.2,273.5,562.3,270.3,561.4z"/>
				<path class="st22" d="M266,561.7c0,0,0.3-2.8,5.5-3.7C271.5,558.1,269.2,562.3,266,561.7z"/>
				<path class="st22" d="M274.7,562.1c0,0,0.2,2.8,5.2,4C280,566.2,278,561.7,274.7,562.1z"/>
				<path class="st22" d="M270.3,562c0,0,0.4,2.8,5.6,3.5C275.9,565.5,273.5,561.3,270.3,562z"/>
				<path class="st22" d="M266.1,562.3c0,0,0.5,2.8,5.6,3.4C271.8,565.5,269.3,561.4,266.1,562.3z"/>
			</g>
		</g>
		<path class="st22" d="M278.2,562.1c0,0,2.8-2.7,9.1,0.8C287.2,562.9,281.1,565.7,278.2,562.1z"/>
		<path class="st22" d="M265.3,562c0,0,0.3,1.9-2.7,3.4C262.5,565.3,263.1,562.1,265.3,562z"/>
	</g>
	<rect x="110.4" y="147.7" class="st7" width="200.6" height="136.1"/>
	<text transform="matrix(1 0 0 1 110.4355 154.2842)" class="st17 st25">ingredient</text>
	<text transform="matrix(1 0 0 1 143.7353 154.2842)" class="st17 st26"> </text>
	<text transform="matrix(1 0 0 1 145.7021 154.2842)" class="st17 st25">wheat</text>
	<text transform="matrix(1 0 0 1 165.8379 154.2842)" class="st17 st26"> </text>
	<text transform="matrix(1 0 0 1 167.8057 154.2842)" class="st17 st25">flour</text>
	<text transform="matrix(1 0 0 1 186.2139 154.2842)" class="st17 st26"> (32%), </text>
	<text transform="matrix(1 0 0 1 214.2178 154.2842)" class="st17 st25">caramel</text>
	<text transform="matrix(1 0 0 1 240.9219 154.2842)" class="st17 st26"> (24%) [</text>
	<text transform="matrix(1 0 0 1 269.6387 154.2842)" class="st17 st25">glucose</text>
	<text transform="matrix(1 0 0 1 295.7529 154.2842)" class="st17 st26"> </text>
	<text transform="matrix(1 0 0 1 110.4355 165.4219)" class="st17 st25">syrup</text>
	<text transform="matrix(1 0 0 1 128.3096 165.4219)" class="st17 st26">, </text>
	<text transform="matrix(1 0 0 1 132.2002 165.4219)" class="st17 st25">sweetended</text>
	<text transform="matrix(1 0 0 1 169.8457 165.4219)" class="st17 st26"> </text>
	<text transform="matrix(1 0 0 1 171.8125 165.4219)" class="st17 st25">condensed</text>
	<text transform="matrix(1 0 0 1 206.8613 165.4219)" class="st17 st26"> </text>
	<text transform="matrix(1 0 0 1 208.8281 165.4219)" class="st17 st25">skim</text>
	<text transform="matrix(1 0 0 1 222.3291 165.4219)" class="st17 st26"> </text>
	<text transform="matrix(1 0 0 1 224.2969 165.4219)" class="st17 st25">milk</text>
	<text transform="matrix(1 0 0 1 237.6631 165.4219)" class="st17 st26"> (</text>
	<text transform="matrix(1 0 0 1 242.2656 165.4219)" class="st17 st25">concentrated</text>
	<text transform="matrix(1 0 0 1 287.4805 165.4219)" class="st17 st26"> </text>
	<text transform="matrix(1 0 0 1 289.4492 165.4219)" class="st17 st25">skim</text>
	<text transform="matrix(1 0 0 1 302.9521 165.4219)" class="st17 st26"> </text>
	<text transform="matrix(1 0 0 1 110.4355 176.5601)" class="st17 st25">milk</text>
	<text transform="matrix(1 0 0 1 123.8008 176.5601)" class="st17 st26"> </text>
	<text transform="matrix(1 0 0 1 125.7686 176.5601)" class="st17 st25">abd</text>
	<text transform="matrix(1 0 0 1 137.5938 176.5601)" class="st17 st26"> </text>
	<text transform="matrix(1 0 0 1 139.5615 176.5601)" class="st17 st25">sugar</text>
	<text transform="matrix(1 0 0 1 158.6387 176.5601)" class="st17 st26">), </text>
	<text transform="matrix(1 0 0 1 165.1631 176.5601)" class="st17 st25">palm</text>
	<text transform="matrix(1 0 0 1 180.8867 176.5601)" class="st17 st26"> </text>
	<text transform="matrix(1 0 0 1 182.8545 176.5601)" class="st17 st25">oil</text>
	<text transform="matrix(1 0 0 1 191.9512 176.5601)" class="st17 st26">, </text>
	<text transform="matrix(1 0 0 1 195.8408 176.5601)" class="st17 st25">glycerine</text>
	<text transform="matrix(1 0 0 1 226.1045 176.5601)" class="st17 st26">, </text>
	<text transform="matrix(1 0 0 1 229.9951 176.5601)" class="st17 st25">salt</text>
	<text transform="matrix(1 0 0 1 243.4697 176.5601)" class="st17 st26">, </text>
	<text transform="matrix(1 0 0 1 247.3604 176.5601)" class="st17 st25">natural</text>
	<text transform="matrix(1 0 0 1 273.582 176.5601)" class="st17 st26"> </text>
	<text transform="matrix(1 0 0 1 275.5508 176.5601)" class="st17 st25">flavour</text>
	<text transform="matrix(1 0 0 1 301.5586 176.5601)" class="st17 st26">, </text>
	<text transform="matrix(1 0 0 1 110.4355 187.6992)" class="st17 st25">mono</text>
	<text transform="matrix(1 0 0 1 128.8887 187.7002)" class="st17 st26">-</text>
	<text transform="matrix(1 0 0 1 131.7383 187.6992)" class="st17 st25">and</text>
	<text transform="matrix(1 0 0 1 144.3164 187.7002)" class="st17 st26"> </text>
	<text transform="matrix(1 0 0 1 146.2851 187.6992)" class="st17 st25">diglycerides</text>
	<text transform="matrix(1 0 0 1 185.6855 187.7002)" class="st17 st26"> (</text>
	<text transform="matrix(1 0 0 1 190.2881 187.6992)" class="st17 st25">emulsifier</text>
	<text transform="matrix(1 0 0 1 222.1455 187.7002)" class="st17 st26">)], </text>
	<text transform="matrix(1 0 0 1 231.3066 187.6992)" class="st17 st25">milk</text>
	<text transform="matrix(1 0 0 1 244.6719 187.7002)" class="st17 st26"> </text>
	<text transform="matrix(1 0 0 1 246.6396 187.6992)" class="st17 st25">chocolate</text>
	<text transform="matrix(1 0 0 1 280.8359 187.7002)" class="st17 st26"> </text>
	<text transform="matrix(1 0 0 1 110.4355 198.8379)" class="st17 st25">flavoured</text>
	<text transform="matrix(1 0 0 1 143.9697 198.8379)" class="st17 st26"> </text>
	<text transform="matrix(1 0 0 1 145.9365 198.8379)" class="st17 st25">coating</text>
	<text transform="matrix(1 0 0 1 171.4131 198.8379)" class="st17 st26"> (18%) [</text>
	<text transform="matrix(1 0 0 1 200.1308 198.8379)" class="st17 st25">sugar</text>
	<text transform="matrix(1 0 0 1 219.207 198.8379)" class="st17 st26">, </text>
	<text transform="matrix(1 0 0 1 223.0967 198.8379)" class="st17 st25">cocoa</text>
	<text transform="matrix(1 0 0 1 243.5635 198.8379)" class="st17 st26"> </text>
	<text transform="matrix(1 0 0 1 245.5303 198.8379)" class="st17 st25">butter</text>
	<text transform="matrix(1 0 0 1 266.4072 198.8379)" class="st17 st26">, </text>
	<text transform="matrix(1 0 0 1 270.2969 198.8379)" class="st17 st25">cocoa</text>
	<text transform="matrix(1 0 0 1 290.7637 198.8379)" class="st17 st26"> </text>
	<text transform="matrix(1 0 0 1 292.7314 198.8379)" class="st17 st25">mass</text>
	<text transform="matrix(1 0 0 1 308.3379 198.8379)" class="st17 st26">, </text>
	<text transform="matrix(1 0 0 1 110.4355 209.977)" class="st17 st25">skim</text>
	<text transform="matrix(1 0 0 1 123.9375 209.977)" class="st17 st26"> </text>
	<text transform="matrix(1 0 0 1 125.9062 209.977)" class="st17 st25">milk</text>
	<text transform="matrix(1 0 0 1 139.2715 209.977)" class="st17 st26"> </text>
	<text transform="matrix(1 0 0 1 141.2383 209.977)" class="st17 st25">powder</text>
	<text transform="matrix(1 0 0 1 165.6885 209.977)" class="st17 st26">, </text>
	<text transform="matrix(1 0 0 1 169.5771 209.977)" class="st17 st25">whey</text>
	<text transform="matrix(1 0 0 1 186.0215 209.977)" class="st17 st26"> </text>
	<text transform="matrix(1 0 0 1 187.9902 209.977)" class="st17 st25">powder</text>
	<text transform="matrix(1 0 0 1 212.4394 209.977)" class="st17 st26">, </text>
	<text transform="matrix(1 0 0 1 216.3291 209.977)" class="st17 st25">butter</text>
	<text transform="matrix(1 0 0 1 237.2051 209.977)" class="st17 st26"> </text>
	<text transform="matrix(1 0 0 1 239.1729 209.977)" class="st17 st25">oil</text>
	<text transform="matrix(1 0 0 1 248.2685 209.977)" class="st17 st26">,</text>
	<text transform="matrix(1 0 0 1 250.1904 209.977)" class="st17 st25">vegetable</text>
	<text transform="matrix(1 0 0 1 281.3965 209.977)" class="st17 st26"> </text>
	<text transform="matrix(1 0 0 1 283.3662 209.977)" class="st17 st25">oil</text>
	<text transform="matrix(1 0 0 1 292.4619 209.977)" class="st17 st26"> </text>
	<text transform="matrix(1 0 0 1 110.4355 221.1148)" class="st17 st26">(</text>
	<text transform="matrix(1 0 0 1 113.0723 221.1148)" class="st17 st25">shea</text>
	<text transform="matrix(1 0 0 1 127.6846 221.1148)" class="st17 st26">, </text>
	<text transform="matrix(1 0 0 1 131.5723 221.1148)" class="st17 st25">illipe</text>
	<text transform="matrix(1 0 0 1 147.4668 221.1148)" class="st17 st26">, </text>
	<text transform="matrix(1 0 0 1 151.3555 221.1148)" class="st17 st25">sal</text>
	<text transform="matrix(1 0 0 1 161.6016 221.1148)" class="st17 st26">, </text>
	<text transform="matrix(1 0 0 1 165.4912 221.1148)" class="st17 st25">mango</text>
	<text transform="matrix(1 0 0 1 187.6406 221.1148)" class="st17 st26"> </text>
	<text transform="matrix(1 0 0 1 189.6084 221.1148)" class="st17 st25">kernal</text>
	<text transform="matrix(1 0 0 1 211.1416 221.1148)" class="st17 st26"> </text>
	<text transform="matrix(1 0 0 1 213.1084 221.1148)" class="st17 st25">and</text>
	<text transform="matrix(1 0 0 1 225.6865 221.1148)" class="st17 st26"> </text>
	<text transform="matrix(1 0 0 1 227.6543 221.1148)" class="st17 st25">kokum</text>
	<text transform="matrix(1 0 0 1 248.6025 221.1148)" class="st17 st26">) </text>
	<text transform="matrix(1 0 0 1 253.2061 221.1148)" class="st17 st25">and</text>
	<text transform="matrix(1 0 0 1 265.7841 221.1148)" class="st17 st26"> </text>
	<text transform="matrix(1 0 0 1 267.7529 221.1148)" class="st17 st25">palm</text>
	<text transform="matrix(1 0 0 1 283.4766 221.1148)" class="st17 st26"> </text>
	<text transform="matrix(1 0 0 1 285.4434 221.1148)" class="st17 st25">oil</text>
	<text transform="matrix(1 0 0 1 294.541 221.1148)" class="st17 st26">, </text>
	<text transform="matrix(1 0 0 1 110.4355 232.2529)" class="st17 st25">soya</text>
	<text transform="matrix(1 0 0 1 125.6074 232.2539)" class="st17 st26"> </text>
	<text transform="matrix(1 0 0 1 127.5742 232.2529)" class="st17 st25">lecithin</text>
	<text transform="matrix(1 0 0 1 152.4541 232.2539)" class="st17 st26"> </text>
	<text transform="matrix(1 0 0 1 154.4219 232.2529)" class="st17 st25">and</text>
	<text transform="matrix(1 0 0 1 167.001 232.2539)" class="st17 st26"> </text>
	<text transform="matrix(1 0 0 1 168.9697 232.2529)" class="st17 st25">polyglycerol</text>
	<text transform="matrix(1 0 0 1 212.2676 232.2539)" class="st17 st26"> </text>
	<text transform="matrix(1 0 0 1 214.2363 232.2529)" class="st17 st25">polyricinoleate</text>
	<text transform="matrix(1 0 0 1 264.54 232.2539)" class="st17 st26"> (</text>
	<text transform="matrix(1 0 0 1 269.1426 232.2529)" class="st17 st25">emulsifiers</text>
	<text transform="matrix(1 0 0 1 304.2031 232.2539)" class="st17 st26">), </text>
	<text transform="matrix(1 0 0 1 110.4355 243.3926)" class="st17 st25">natural</text>
	<text transform="matrix(1 0 0 1 136.6592 243.3926)" class="st17 st26"> </text>
	<text transform="matrix(1 0 0 1 138.6269 243.3926)" class="st17 st25">vanilla</text>
	<text transform="matrix(1 0 0 1 162.168 243.3926)" class="st17 st26"> </text>
	<text transform="matrix(1 0 0 1 164.1338 243.3926)" class="st17 st25">flavour</text>
	<text transform="matrix(1 0 0 1 190.1426 243.3926)" class="st17 st26">], </text>
	<text transform="matrix(1 0 0 1 196.668 243.3926)" class="st17 st25">palm</text>
	<text transform="matrix(1 0 0 1 212.3926 243.3926)" class="st17 st26"> </text>
	<text transform="matrix(1 0 0 1 214.3594 243.3926)" class="st17 st25">oil</text>
	<text transform="matrix(1 0 0 1 223.457 243.3926)" class="st17 st26">, </text>
	<text transform="matrix(1 0 0 1 227.3457 243.3926)" class="st17 st25">sugar</text>
	<text transform="matrix(1 0 0 1 246.4219 243.3926)" class="st17 st26">, </text>
	<text transform="matrix(1 0 0 1 250.3105 243.3926)" class="st17 st25">whole</text>
	<text transform="matrix(1 0 0 1 270.7841 243.3926)" class="st17 st26"> </text>
	<text transform="matrix(1 0 0 1 272.752 243.3926)" class="st17 st25">wheat</text>
	<text transform="matrix(1 0 0 1 292.8877 243.3926)" class="st17 st26"> </text>
	<text transform="matrix(1 0 0 1 110.4355 254.5307)" class="st17 st25">flour</text>
	<text transform="matrix(1 0 0 1 128.8428 254.5307)" class="st17 st26"> (7%) </text>
	<text transform="matrix(1 0 0 1 150.1621 254.5307)" class="st17 st25">glucose</text>
	<text transform="matrix(1 0 0 1 176.2773 254.5307)" class="st17 st26">-</text>
	<text transform="matrix(1 0 0 1 179.125 254.5307)" class="st17 st25">fructose</text>
	<text transform="matrix(1 0 0 1 207.8642 254.5307)" class="st17 st26">, </text>
	<text transform="matrix(1 0 0 1 211.752 254.5307)" class="st17 st25">sodium</text>
	<text transform="matrix(1 0 0 1 234.7412 254.5307)" class="st17 st26"> </text>
	<text transform="matrix(1 0 0 1 236.708 254.5307)" class="st17 st25">bicarbonate</text>
	<text transform="matrix(1 0 0 1 275.7002 254.5307)" class="st17 st26"> </text>
	<text transform="matrix(1 0 0 1 277.667 254.5307)" class="st17 st25">and</text>
	<text transform="matrix(1 0 0 1 290.2471 254.5307)" class="st17 st26"> </text>
	<text transform="matrix(1 0 0 1 110.4355 265.669)" class="st17 st25">tartaric</text>
	<text transform="matrix(1 0 0 1 137.1602 265.669)" class="st17 st26"> </text>
	<text transform="matrix(1 0 0 1 139.1279 265.669)" class="st17 st25">acid</text>
	<text transform="matrix(1 0 0 1 152.7529 265.669)" class="st17 st26"> </text>
	<text transform="matrix(1 0 0 1 154.7207 265.669)" class="st17 st25">and</text>
	<text transform="matrix(1 0 0 1 167.2988 265.669)" class="st17 st26"> </text>
	<text transform="matrix(1 0 0 1 169.2666 265.669)" class="st17 st25">malic</text>
	<text transform="matrix(1 0 0 1 186.8564 265.669)" class="st17 st26"> </text>
	<text transform="matrix(1 0 0 1 188.8242 265.669)" class="st17 st25">acid</text>
	<text transform="matrix(1 0 0 1 202.4492 265.669)" class="st17 st26"> </text>
	<text transform="matrix(1 0 0 1 204.417 265.669)" class="st17 st25">and</text>
	<text transform="matrix(1 0 0 1 216.9941 265.669)" class="st17 st26"> </text>
	<text transform="matrix(1 0 0 1 218.9629 265.669)" class="st17 st25">ammonium</text>
	<text transform="matrix(1 0 0 1 253.1201 265.669)" class="st17 st26"> </text>
	<text transform="matrix(1 0 0 1 255.0869 265.669)" class="st17 st25">bicarbonate</text>
	<text transform="matrix(1 0 0 1 294.0781 265.669)" class="st17 st26"> </text>
	<text transform="matrix(1 0 0 1 110.4355 276.8076)" class="st17 st26">(</text>
	<text transform="matrix(1 0 0 1 113.0723 276.8076)" class="st17 st25">raising</text>
	<text transform="matrix(1 0 0 1 135.3262 276.8076)" class="st17 st26"> </text>
	<text transform="matrix(1 0 0 1 137.2939 276.8076)" class="st17 st25">agents</text>
	<text transform="matrix(1 0 0 1 159.3721 276.8076)" class="st17 st26">), </text>
	<text transform="matrix(1 0 0 1 165.8974 276.8076)" class="st17 st25">salt</text>
	<text transform="matrix(1 0 0 1 179.3721 276.8076)" class="st17 st26"> </text>
	<text transform="matrix(1 0 0 1 181.3408 276.8076)" class="st17 st25">contains</text>
	<text transform="matrix(1 0 0 1 210.0976 276.8076)" class="st17 st26">: </text>
	<text transform="matrix(1 0 0 1 213.9873 276.8076)" class="st17 st25">wheat</text>
	<text transform="matrix(1 0 0 1 234.1221 276.8076)" class="st17 st26">, </text>
	<text transform="matrix(1 0 0 1 238.0117 276.8076)" class="st17 st25">milk</text>
	<text transform="matrix(1 0 0 1 251.376 276.8076)" class="st17 st26"> </text>
	<text transform="matrix(1 0 0 1 253.3447 276.8076)" class="st17 st25">and</text>
	<text transform="matrix(1 0 0 1 265.9238 276.8076)" class="st17 st26"> </text>
	<text transform="matrix(1 0 0 1 267.8906 276.8076)" class="st17 st25">soya</text>
	<rect x="-125.3" y="294" class="st7" width="436.4" height="79.5"/>
	<text transform="matrix(1 0 0 1 -125.3271 300.6602)" class="st17 st25">ingrédients</text>
	<text transform="matrix(1 0 0 1 -88.8252 300.6602)" class="st17 st26"> </text>
	<text transform="matrix(1 0 0 1 -86.8574 300.6602)" class="st17 st25">de</text>
	<text transform="matrix(1 0 0 1 -79.3335 300.6602)" class="st17 st26"> </text>
	<text transform="matrix(1 0 0 1 -77.3657 300.6602)" class="st17 st25">blé</text>
	<text transform="matrix(1 0 0 1 -67.5801 300.6602)" class="st17 st26"> </text>
	<text transform="matrix(1 0 0 1 -65.6133 300.6602)" class="st17 st25">ingrédient</text>
	<text transform="matrix(1 0 0 1 -32.313 300.6602)" class="st17 st26"> (32% ) , </text>
	<text transform="matrix(1 0 0 1 -0.374 300.6602)" class="st17 st25">caramel</text>
	<text transform="matrix(1 0 0 1 26.3301 300.6602)" class="st17 st26"> ( 24 % ) [</text>
	<text transform="matrix(1 0 0 1 60.9512 300.6602)" class="st17 st25">sirop</text>
	<text transform="matrix(1 0 0 1 77.1367 300.6602)" class="st17 st26"> </text>
	<text transform="matrix(1 0 0 1 79.1055 300.6602)" class="st17 st25">de</text>
	<text transform="matrix(1 0 0 1 86.6279 300.6602)" class="st17 st26"> </text>
	<text transform="matrix(1 0 0 1 88.5967 300.6602)" class="st17 st25">glucose</text>
	<text transform="matrix(1 0 0 1 114.71 300.6602)" class="st17 st26"> , </text>
	<text transform="matrix(1 0 0 1 120.5674 300.6602)" class="st17 st25">lait</text>
	<text transform="matrix(1 0 0 1 132.3916 300.6602)" class="st17 st26"> </text>
	<text transform="matrix(1 0 0 1 134.3604 300.6602)" class="st17 st25">écrémé</text>
	<text transform="matrix(1 0 0 1 156.4394 300.6602)" class="st17 st26"> </text>
	<text transform="matrix(1 0 0 1 158.4072 300.6602)" class="st17 st25">condencé</text>
	<text transform="matrix(1 0 0 1 189.6924 300.6602)" class="st17 st26"> </text>
	<text transform="matrix(1 0 0 1 191.6592 300.6602)" class="st17 st25">sucré</text>
	<text transform="matrix(1 0 0 1 209.5283 300.6602)" class="st17 st26"> (</text>
	<text transform="matrix(1 0 0 1 214.1328 300.6602)" class="st17 st25">lait</text>
	<text transform="matrix(1 0 0 1 225.958 300.6602)" class="st17 st26"> </text>
	<text transform="matrix(1 0 0 1 227.9248 300.6602)" class="st17 st25">écrémé</text>
	<text transform="matrix(1 0 0 1 250.0049 300.6602)" class="st17 st26"> </text>
	<text transform="matrix(1 0 0 1 251.9726 300.6602)" class="st17 st25">concentré</text>
	<text transform="matrix(1 0 0 1 285.6553 300.6602)" class="st17 st26"> </text>
	<text transform="matrix(1 0 0 1 287.623 300.6602)" class="st17 st25">et</text>
	<text transform="matrix(1 0 0 1 294.0498 300.6602)" class="st17 st26"> </text>
	<text transform="matrix(1 0 0 1 -125.3271 311.7979)" class="st17 st25">sucre</text>
	<text transform="matrix(1 0 0 1 -107.459 311.7969)" class="st17 st26"> ) , </text>
	<text transform="matrix(1 0 0 1 -96.9985 311.7979)" class="st17 st25">huile</text>
	<text transform="matrix(1 0 0 1 -80.7422 311.7969)" class="st17 st26"> </text>
	<text transform="matrix(1 0 0 1 -78.7749 311.7979)" class="st17 st25">de</text>
	<text transform="matrix(1 0 0 1 -71.2505 311.7969)" class="st17 st26"> </text>
	<text transform="matrix(1 0 0 1 -69.2832 311.7979)" class="st17 st25">palme</text>
	<text transform="matrix(1 0 0 1 -50.3628 311.7969)" class="st17 st26"> , </text>
	<text transform="matrix(1 0 0 1 -44.5068 311.7979)" class="st17 st25">glycérine</text>
	<text transform="matrix(1 0 0 1 -14.2407 311.7969)" class="st17 st26"> , </text>
	<text transform="matrix(1 0 0 1 -8.3838 311.7979)" class="st17 st25">sel</text>
	<text transform="matrix(1 0 0 1 1.0825 311.7969)" class="st17 st26"> , </text>
	<text transform="matrix(1 0 0 1 6.9395 311.7979)" class="st17 st25">arôme</text>
	<text transform="matrix(1 0 0 1 27.3086 311.7969)" class="st17 st26"> </text>
	<text transform="matrix(1 0 0 1 29.2764 311.7979)" class="st17 st25">naturel</text>
	<text transform="matrix(1 0 0 1 54.7202 311.7969)" class="st17 st26"> , </text>
	<text transform="matrix(1 0 0 1 60.5771 311.7979)" class="st17 st25">mono</text>
	<text transform="matrix(1 0 0 1 79.0303 311.7969)" class="st17 st26"> </text>
	<text transform="matrix(1 0 0 1 80.998 311.7979)" class="st17 st25">et</text>
	<text transform="matrix(1 0 0 1 87.4248 311.7969)" class="st17 st26"> </text>
	<text transform="matrix(1 0 0 1 89.3916 311.7979)" class="st17 st25">diglycérides</text>
	<text transform="matrix(1 0 0 1 128.7949 311.7969)" class="st17 st26"> ( </text>
	<text transform="matrix(1 0 0 1 135.3652 311.7979)" class="st17 st25">émulsifiant</text>
	<text transform="matrix(1 0 0 1 172.0117 311.7969)" class="st17 st26"> ) ] , </text>
	<text transform="matrix(1 0 0 1 187.0762 311.7979)" class="st17 st25">le</text>
	<text transform="matrix(1 0 0 1 193.3398 311.7969)" class="st17 st26"> </text>
	<text transform="matrix(1 0 0 1 195.3066 311.7979)" class="st17 st25">chocolat</text>
	<text transform="matrix(1 0 0 1 226.3076 311.7969)" class="st17 st26"> </text>
	<text transform="matrix(1 0 0 1 228.2734 311.7979)" class="st17 st25">au</text>
	<text transform="matrix(1 0 0 1 236.4541 311.7969)" class="st17 st26"> </text>
	<text transform="matrix(1 0 0 1 238.4209 311.7979)" class="st17 st25">lait</text>
	<text transform="matrix(1 0 0 1 250.2471 311.7969)" class="st17 st26"> </text>
	<text transform="matrix(1 0 0 1 252.2148 311.7979)" class="st17 st25">revêtement</text>
	<text transform="matrix(1 0 0 1 288.0811 311.7969)" class="st17 st26"> </text>
	<text transform="matrix(1 0 0 1 -125.3271 322.9365)" class="st17 st25">aromatisé</text>
	<text transform="matrix(1 0 0 1 -92.9956 322.9365)" class="st17 st26"> (18% ) [ </text>
	<text transform="matrix(1 0 0 1 -60.3423 322.9365)" class="st17 st25">sucre</text>
	<text transform="matrix(1 0 0 1 -42.4741 322.9365)" class="st17 st26"> , </text>
	<text transform="matrix(1 0 0 1 -36.6177 322.9365)" class="st17 st25">beurre</text>
	<text transform="matrix(1 0 0 1 -15.5078 322.9365)" class="st17 st26"> </text>
	<text transform="matrix(1 0 0 1 -13.5396 322.9365)" class="st17 st25">de</text>
	<text transform="matrix(1 0 0 1 -6.0161 322.9365)" class="st17 st26"> </text>
	<text transform="matrix(1 0 0 1 -4.0488 322.9365)" class="st17 st25">cacao</text>
	<text transform="matrix(1 0 0 1 15.9194 322.9365)" class="st17 st26"> , </text>
	<text transform="matrix(1 0 0 1 21.7754 322.9365)" class="st17 st25">pâte</text>
	<text transform="matrix(1 0 0 1 35.6343 322.9365)" class="st17 st26"> </text>
	<text transform="matrix(1 0 0 1 37.6016 322.9365)" class="st17 st25">de</text>
	<text transform="matrix(1 0 0 1 45.126 322.9365)" class="st17 st26"> </text>
	<text transform="matrix(1 0 0 1 47.0933 322.9365)" class="st17 st25">cacao</text>
	<text transform="matrix(1 0 0 1 67.0596 322.9365)" class="st17 st26"> , </text>
	<text transform="matrix(1 0 0 1 72.917 322.9365)" class="st17 st25">lait</text>
	<text transform="matrix(1 0 0 1 84.7422 322.9365)" class="st17 st26"> </text>
	<text transform="matrix(1 0 0 1 86.71 322.9365)" class="st17 st25">écrémé</text>
	<text transform="matrix(1 0 0 1 108.79 322.9365)" class="st17 st26"> </text>
	<text transform="matrix(1 0 0 1 110.7558 322.9365)" class="st17 st25">en</text>
	<text transform="matrix(1 0 0 1 118.2295 322.9365)" class="st17 st26"> </text>
	<text transform="matrix(1 0 0 1 120.1963 322.9365)" class="st17 st25">poudre</text>
	<text transform="matrix(1 0 0 1 143.3525 322.9365)" class="st17 st26"> , </text>
	<text transform="matrix(1 0 0 1 149.21 322.9365)" class="st17 st25">lactosérum</text>
	<text transform="matrix(1 0 0 1 187.0508 322.9365)" class="st17 st26"> </text>
	<text transform="matrix(1 0 0 1 189.0195 322.9365)" class="st17 st25">en</text>
	<text transform="matrix(1 0 0 1 196.4912 322.9365)" class="st17 st26"> </text>
	<text transform="matrix(1 0 0 1 198.459 322.9365)" class="st17 st25">poudre</text>
	<text transform="matrix(1 0 0 1 221.6162 322.9365)" class="st17 st26">, </text>
	<text transform="matrix(1 0 0 1 225.5039 322.9365)" class="st17 st25">huile</text>
	<text transform="matrix(1 0 0 1 241.7617 322.9365)" class="st17 st26"> </text>
	<text transform="matrix(1 0 0 1 243.7295 322.9365)" class="st17 st25">de</text>
	<text transform="matrix(1 0 0 1 251.2529 322.9365)" class="st17 st26"> </text>
	<text transform="matrix(1 0 0 1 253.2217 322.9365)" class="st17 st25">beurre</text>
	<text transform="matrix(1 0 0 1 274.331 322.9365)" class="st17 st26">, </text>
	<text transform="matrix(1 0 0 1 278.2207 322.9365)" class="st17 st25">de</text>
	<text transform="matrix(1 0 0 1 285.7441 322.9365)" class="st17 st26"> </text>
	<text transform="matrix(1 0 0 1 287.7119 322.9365)" class="st17 st25">l</text>
	<text transform="matrix(1 0 0 1 290.7793 322.9365)" class="st17 st26">&apos;</text>
	<text transform="matrix(1 0 0 1 292.5244 322.9365)" class="st17 st25">huile</text>
	<text transform="matrix(1 0 0 1 308.7812 322.9365)" class="st17 st26"> </text>
	<text transform="matrix(1 0 0 1 -125.3271 334.0762)" class="st17 st25">végétale</text>
	<text transform="matrix(1 0 0 1 -97.6411 334.0762)" class="st17 st26"> ( </text>
	<text transform="matrix(1 0 0 1 -91.0703 334.0762)" class="st17 st25">karité</text>
	<text transform="matrix(1 0 0 1 -72.0977 334.0762)" class="st17 st26"> , </text>
	<text transform="matrix(1 0 0 1 -66.2407 334.0762)" class="st17 st25">illipe</text>
	<text transform="matrix(1 0 0 1 -50.3477 334.0762)" class="st17 st26"> , </text>
	<text transform="matrix(1 0 0 1 -44.4907 334.0762)" class="st17 st25">sal</text>
	<text transform="matrix(1 0 0 1 -34.2446 334.0762)" class="st17 st26"> , </text>
	<text transform="matrix(1 0 0 1 -28.3882 334.0762)" class="st17 st25">mangue</text>
	<text transform="matrix(1 0 0 1 -3.3145 334.0762)" class="st17 st26"> </text>
	<text transform="matrix(1 0 0 1 -1.3457 334.0762)" class="st17 st25">kernal</text>
	<text transform="matrix(1 0 0 1 20.187 334.0762)" class="st17 st26"> </text>
	<text transform="matrix(1 0 0 1 22.1533 334.0762)" class="st17 st25">et</text>
	<text transform="matrix(1 0 0 1 28.5801 334.0762)" class="st17 st26"> </text>
	<text transform="matrix(1 0 0 1 30.5464 334.0762)" class="st17 st25">kokum</text>
	<text transform="matrix(1 0 0 1 51.4941 334.0762)" class="st17 st26"> ) </text>
	<text transform="matrix(1 0 0 1 58.0654 334.0762)" class="st17 st25">et</text>
	<text transform="matrix(1 0 0 1 64.4922 334.0762)" class="st17 st26"> </text>
	<text transform="matrix(1 0 0 1 66.4609 334.0762)" class="st17 st25">huile</text>
	<text transform="matrix(1 0 0 1 82.7168 334.0762)" class="st17 st26"> </text>
	<text transform="matrix(1 0 0 1 84.6836 334.0762)" class="st17 st25">de</text>
	<text transform="matrix(1 0 0 1 92.208 334.0762)" class="st17 st26"> </text>
	<text transform="matrix(1 0 0 1 94.1758 334.0762)" class="st17 st25">palme</text>
	<text transform="matrix(1 0 0 1 113.0957 334.0762)" class="st17 st26"> , </text>
	<text transform="matrix(1 0 0 1 118.9531 334.0762)" class="st17 st25">lécithine</text>
	<text transform="matrix(1 0 0 1 147.0283 334.0762)" class="st17 st26"> </text>
	<text transform="matrix(1 0 0 1 148.9971 334.0762)" class="st17 st25">de</text>
	<text transform="matrix(1 0 0 1 156.5215 334.0762)" class="st17 st26"> </text>
	<text transform="matrix(1 0 0 1 158.4893 334.0762)" class="st17 st25">soja</text>
	<text transform="matrix(1 0 0 1 172.5488 334.0762)" class="st17 st26"> </text>
	<text transform="matrix(1 0 0 1 174.5176 334.0762)" class="st17 st25">et</text>
	<text transform="matrix(1 0 0 1 180.9433 334.0762)" class="st17 st26"> </text>
	<text transform="matrix(1 0 0 1 182.9111 334.0762)" class="st17 st25">polyricinoléate</text>
	<text transform="matrix(1 0 0 1 233.2148 334.0762)" class="st17 st26"> </text>
	<text transform="matrix(1 0 0 1 235.1816 334.0762)" class="st17 st25">de</text>
	<text transform="matrix(1 0 0 1 242.707 334.0762)" class="st17 st26"> </text>
	<text transform="matrix(1 0 0 1 244.6738 334.0762)" class="st17 st25">polyglycérol</text>
	<text transform="matrix(1 0 0 1 287.9717 334.0762)" class="st17 st26"> </text>
	<text transform="matrix(1 0 0 1 -125.3271 345.2129)" class="st17 st26">(</text>
	<text transform="matrix(1 0 0 1 -122.6919 345.2129)" class="st17 st25">émulsifiants</text>
	<text transform="matrix(1 0 0 1 -82.8418 345.2129)" class="st17 st26"> ) , </text>
	<text transform="matrix(1 0 0 1 -72.3809 345.2129)" class="st17 st25">arôme</text>
	<text transform="matrix(1 0 0 1 -52.0127 345.2129)" class="st17 st26"> </text>
	<text transform="matrix(1 0 0 1 -50.0454 345.2129)" class="st17 st25">naturel</text>
	<text transform="matrix(1 0 0 1 -24.6006 345.2129)" class="st17 st26"> </text>
	<text transform="matrix(1 0 0 1 -22.6328 345.2129)" class="st17 st25">de</text>
	<text transform="matrix(1 0 0 1 -15.1089 345.2129)" class="st17 st26"> </text>
	<text transform="matrix(1 0 0 1 -13.1421 345.2129)" class="st17 st25">vanille</text>
	<text transform="matrix(1 0 0 1 9.6186 345.2129)" class="st17 st26"> ] , </text>
	<text transform="matrix(1 0 0 1 20.0791 345.2129)" class="st17 st25">l</text>
	<text transform="matrix(1 0 0 1 23.147 345.2129)" class="st17 st26">&apos;</text>
	<text transform="matrix(1 0 0 1 24.8921 345.2129)" class="st17 st25">huile</text>
	<text transform="matrix(1 0 0 1 41.1475 345.2129)" class="st17 st26"> </text>
	<text transform="matrix(1 0 0 1 43.1152 345.2129)" class="st17 st25">de</text>
	<text transform="matrix(1 0 0 1 50.6396 345.2129)" class="st17 st26"> </text>
	<text transform="matrix(1 0 0 1 52.6069 345.2129)" class="st17 st25">palme</text>
	<text transform="matrix(1 0 0 1 71.5273 345.2129)" class="st17 st26"> , </text>
	<text transform="matrix(1 0 0 1 77.3838 345.2129)" class="st17 st25">le</text>
	<text transform="matrix(1 0 0 1 83.6484 345.2129)" class="st17 st26"> </text>
	<text transform="matrix(1 0 0 1 85.6152 345.2129)" class="st17 st25">sucre</text>
	<text transform="matrix(1 0 0 1 103.4844 345.2129)" class="st17 st26"> , </text>
	<text transform="matrix(1 0 0 1 109.3398 345.2129)" class="st17 st25">la</text>
	<text transform="matrix(1 0 0 1 116.3848 345.2129)" class="st17 st26"> </text>
	<text transform="matrix(1 0 0 1 118.3516 345.2129)" class="st17 st25">farine</text>
	<text transform="matrix(1 0 0 1 138.0137 345.2129)" class="st17 st26"> </text>
	<text transform="matrix(1 0 0 1 139.9814 345.2129)" class="st17 st25">de</text>
	<text transform="matrix(1 0 0 1 147.5059 345.2129)" class="st17 st26"> </text>
	<text transform="matrix(1 0 0 1 149.4746 345.2129)" class="st17 st25">blé</text>
	<text transform="matrix(1 0 0 1 159.2588 345.2129)" class="st17 st26"> </text>
	<text transform="matrix(1 0 0 1 161.2256 345.2129)" class="st17 st25">entier</text>
	<text transform="matrix(1 0 0 1 180.1728 345.2129)" class="st17 st26"> (7% ), </text>
	<text transform="matrix(1 0 0 1 205.3838 345.2129)" class="st17 st25">de</text>
	<text transform="matrix(1 0 0 1 212.9082 345.2129)" class="st17 st26"> </text>
	<text transform="matrix(1 0 0 1 214.875 345.2129)" class="st17 st25">glucose</text>
	<text transform="matrix(1 0 0 1 240.9892 345.2129)" class="st17 st26">-</text>
	<text transform="matrix(1 0 0 1 243.8389 345.2129)" class="st17 st25">fructose</text>
	<text transform="matrix(1 0 0 1 272.5762 345.2129)" class="st17 st26"> , </text>
	<text transform="matrix(1 0 0 1 278.4336 345.2129)" class="st17 st25">le</text>
	<text transform="matrix(1 0 0 1 284.6972 345.2129)" class="st17 st26"> </text>
	<text transform="matrix(1 0 0 1 -125.3271 356.3525)" class="st17 st25">bicarbonate</text>
	<text transform="matrix(1 0 0 1 -86.3369 356.3525)" class="st17 st26"> </text>
	<text transform="matrix(1 0 0 1 -84.3682 356.3525)" class="st17 st25">de</text>
	<text transform="matrix(1 0 0 1 -76.8438 356.3525)" class="st17 st26"> </text>
	<text transform="matrix(1 0 0 1 -74.8765 356.3525)" class="st17 st25">sodium</text>
	<text transform="matrix(1 0 0 1 -51.8892 356.3525)" class="st17 st26"> </text>
	<text transform="matrix(1 0 0 1 -49.9214 356.3525)" class="st17 st25">et</text>
	<text transform="matrix(1 0 0 1 -43.4951 356.3525)" class="st17 st26"> </text>
	<text transform="matrix(1 0 0 1 -41.5273 356.3525)" class="st17 st25">de</text>
	<text transform="matrix(1 0 0 1 -34.0044 356.3525)" class="st17 st26"> </text>
	<text transform="matrix(1 0 0 1 -32.0356 356.3525)" class="st17 st25">l</text>
	<text transform="matrix(1 0 0 1 -28.9688 356.3525)" class="st17 st26">&apos;</text>
	<text transform="matrix(1 0 0 1 -27.2246 356.3525)" class="st17 st25">acide</text>
	<text transform="matrix(1 0 0 1 -10.4014 356.3525)" class="st17 st26"> </text>
	<text transform="matrix(1 0 0 1 -8.4351 356.3525)" class="st17 st25">tartrique</text>
	<text transform="matrix(1 0 0 1 22.4219 356.3525)" class="st17 st26"> </text>
	<text transform="matrix(1 0 0 1 24.3892 356.3525)" class="st17 st25">et</text>
	<text transform="matrix(1 0 0 1 30.8159 356.3525)" class="st17 st26"> </text>
	<text transform="matrix(1 0 0 1 32.7827 356.3525)" class="st17 st25">l</text>
	<text transform="matrix(1 0 0 1 35.8506 356.3525)" class="st17 st26">&apos;</text>
	<text transform="matrix(1 0 0 1 37.5957 356.3525)" class="st17 st25">acide</text>
	<text transform="matrix(1 0 0 1 54.417 356.3525)" class="st17 st26"> </text>
	<text transform="matrix(1 0 0 1 56.3853 356.3525)" class="st17 st25">et</text>
	<text transform="matrix(1 0 0 1 62.8101 356.3525)" class="st17 st26"> </text>
	<text transform="matrix(1 0 0 1 64.7783 356.3525)" class="st17 st25">le</text>
	<text transform="matrix(1 0 0 1 71.043 356.3525)" class="st17 st26"> </text>
	<text transform="matrix(1 0 0 1 73.0098 356.3525)" class="st17 st25">bicarbonate</text>
	<text transform="matrix(1 0 0 1 112 356.3525)" class="st17 st26"> </text>
	<text transform="matrix(1 0 0 1 113.9678 356.3525)" class="st17 st25">d</text>
	<text transform="matrix(1 0 0 1 118.2949 356.3525)" class="st17 st26">&apos;</text>
	<text transform="matrix(1 0 0 1 120.04 356.3525)" class="st17 st25">ammonium</text>
	<text transform="matrix(1 0 0 1 154.1992 356.3525)" class="st17 st26"> </text>
	<text transform="matrix(1 0 0 1 156.166 356.3525)" class="st17 st25">malique</text>
	<text transform="matrix(1 0 0 1 181.8642 356.3525)" class="st17 st26"> ( </text>
	<text transform="matrix(1 0 0 1 188.4355 356.3525)" class="st17 st25">agents</text>
	<text transform="matrix(1 0 0 1 210.5137 356.3525)" class="st17 st26"> </text>
	<text transform="matrix(1 0 0 1 212.4824 356.3525)" class="st17 st25">levants</text>
	<text transform="matrix(1 0 0 1 237.0566 356.3525)" class="st17 st26"> ) , </text>
	<text transform="matrix(1 0 0 1 247.5166 356.3525)" class="st17 st25">le</text>
	<text transform="matrix(1 0 0 1 253.7803 356.3525)" class="st17 st26"> </text>
	<text transform="matrix(1 0 0 1 255.7471 356.3525)" class="st17 st25">sel</text>
	<text transform="matrix(1 0 0 1 265.2158 356.3525)" class="st17 st26"> </text>
	<text transform="matrix(1 0 0 1 267.1826 356.3525)" class="st17 st25">contient</text>
	<text transform="matrix(1 0 0 1 295.1875 356.3525)" class="st17 st26"> : </text>
	<text transform="matrix(1 0 0 1 301.043 356.3525)" class="st17 st25">le</text>
	<text transform="matrix(1 0 0 1 307.3076 356.3525)" class="st17 st26"> </text>
	<text transform="matrix(1 0 0 1 -125.3271 367.4902)" class="st17 st25">blé</text>
	<text transform="matrix(1 0 0 1 -115.542 367.4912)" class="st17 st26">, </text>
	<text transform="matrix(1 0 0 1 -111.6528 367.4902)" class="st17 st25">le</text>
	<text transform="matrix(1 0 0 1 -105.3887 367.4912)" class="st17 st26"> </text>
	<text transform="matrix(1 0 0 1 -103.4224 367.4902)" class="st17 st25">lait</text>
	<text transform="matrix(1 0 0 1 -91.5957 367.4912)" class="st17 st26"> </text>
	<text transform="matrix(1 0 0 1 -89.6284 367.4902)" class="st17 st25">et</text>
	<text transform="matrix(1 0 0 1 -83.2026 367.4912)" class="st17 st26"> </text>
	<text transform="matrix(1 0 0 1 -81.2354 367.4902)" class="st17 st25">le</text>
	<text transform="matrix(1 0 0 1 -74.9712 367.4912)" class="st17 st26"> </text>
	<text transform="matrix(1 0 0 1 -73.0039 367.4902)" class="st17 st25">soja</text>
	<rect x="-125.3" y="380.7" class="st7" width="436.4" height="20.5"/>
	<text transform="matrix(1 0 0 1 -125.3271 387.2901)" class="st2 st25">store</text>
	<text transform="matrix(1 0 0 1 -106.2769 387.2901)" class="st2 st26"> </text>
	<text transform="matrix(1 0 0 1 -104.4019 387.2901)" class="st2 st25">in</text>
	<text transform="matrix(1 0 0 1 -98.0674 387.2901)" class="st2 st26"> </text>
	<text transform="matrix(1 0 0 1 -96.1924 387.2901)" class="st2 st25">a</text>
	<text transform="matrix(1 0 0 1 -91.9302 387.2901)" class="st2 st26"> </text>
	<text transform="matrix(1 0 0 1 -90.0552 387.2901)" class="st2 st25">cool</text>
	<text transform="matrix(1 0 0 1 -73.5513 387.2901)" class="st2 st26"> </text>
	<text transform="matrix(1 0 0 1 -71.6758 387.2901)" class="st2 st25">dry</text>
	<text transform="matrix(1 0 0 1 -59.3833 387.2901)" class="st2 st26"> </text>
	<text transform="matrix(1 0 0 1 -57.5083 387.2901)" class="st2 st25">place</text>
	<text transform="matrix(1 0 0 1 -38.8154 387.2901)" class="st2 st26"> </text>
	<text transform="matrix(1 0 0 1 -36.9409 387.2901)" class="st2 st25">away</text>
	<text transform="matrix(1 0 0 1 -18.7285 387.2901)" class="st2 st26"> </text>
	<text transform="matrix(1 0 0 1 -16.854 387.2901)" class="st2 st25">from</text>
	<text transform="matrix(1 0 0 1 0.5791 387.2901)" class="st2 st26"> </text>
	<text transform="matrix(1 0 0 1 2.4526 387.2901)" class="st2 st25">strong</text>
	<text transform="matrix(1 0 0 1 26.9487 387.2901)" class="st2 st26"> </text>
	<text transform="matrix(1 0 0 1 28.8232 387.2901)" class="st2 st25">light</text>
	<text transform="matrix(1 0 0 1 46.4629 387.2901)" class="st2 st26">/</text>
	<text transform="matrix(1 0 0 1 49.5356 387.2901)" class="st2 st25">gardez</text>
	<text transform="matrix(1 0 0 1 73.8223 387.2901)" class="st2 st26"> </text>
	<text transform="matrix(1 0 0 1 75.6982 387.2901)" class="st2 st25">dans</text>
	<text transform="matrix(1 0 0 1 92.4746 387.2901)" class="st2 st26"> </text>
	<text transform="matrix(1 0 0 1 94.3477 387.2901)" class="st2 st25">un</text>
	<text transform="matrix(1 0 0 1 103.2637 387.2901)" class="st2 st26"> </text>
	<text transform="matrix(1 0 0 1 105.1377 387.2901)" class="st2 st25">endroit</text>
	<text transform="matrix(1 0 0 1 131.5371 387.2901)" class="st2 st26"> </text>
	<text transform="matrix(1 0 0 1 133.4111 387.2901)" class="st2 st25">frais</text>
	<text transform="matrix(1 0 0 1 150.3115 387.2901)" class="st2 st26"> </text>
	<text transform="matrix(1 0 0 1 152.1875 387.2901)" class="st2 st25">et</text>
	<text transform="matrix(1 0 0 1 159.2168 387.2901)" class="st2 st26"> </text>
	<text transform="matrix(1 0 0 1 161.0918 387.2901)" class="st2 st25">sec</text>
	<text transform="matrix(1 0 0 1 171.9365 387.2901)" class="st2 st26"> </text>
	<text transform="matrix(1 0 0 1 173.8115 387.2901)" class="st2 st25">loin</text>
	<text transform="matrix(1 0 0 1 188.124 387.2901)" class="st2 st26"> </text>
	<text transform="matrix(1 0 0 1 189.998 387.2901)" class="st2 st25">de</text>
	<text transform="matrix(1 0 0 1 197.9912 387.2901)" class="st2 st26"> </text>
	<text transform="matrix(1 0 0 1 199.8662 387.2901)" class="st2 st25">la</text>
	<text transform="matrix(1 0 0 1 207.4473 387.2901)" class="st2 st26"> </text>
	<text transform="matrix(1 0 0 1 209.3232 387.2901)" class="st2 st25">lumière</text>
	<text transform="matrix(1 0 0 1 235.2139 387.2901)" class="st2 st26"> </text>
	<text transform="matrix(1 0 0 1 237.0889 387.2901)" class="st2 st25">forte</text>
	<text transform="matrix(1 0 0 1 256.0556 387.2901)" class="st2 st26">. </text>
	<text transform="matrix(1 0 0 1 -125.3271 398.4297)" class="st2 st25">best</text>
	<text transform="matrix(1 0 0 1 -110.8633 398.4297)" class="st2 st26"> </text>
	<text transform="matrix(1 0 0 1 -108.9888 398.4297)" class="st2 st25">before</text>
	<text transform="matrix(1 0 0 1 -86.1899 398.4297)" class="st2 st26">, </text>
	<text transform="matrix(1 0 0 1 -81.9019 398.4297)" class="st2 st25">refer</text>
	<text transform="matrix(1 0 0 1 -63.8325 398.4297)" class="st2 st26"> </text>
	<text transform="matrix(1 0 0 1 -61.9585 398.4297)" class="st2 st25">to</text>
	<text transform="matrix(1 0 0 1 -53.7378 398.4297)" class="st2 st26"> </text>
	<text transform="matrix(1 0 0 1 -51.8643 398.4297)" class="st2 st25">pack</text>
	<text transform="matrix(1 0 0 1 -35.9712 398.4297)" class="st2 st26">/</text>
	<text transform="matrix(1 0 0 1 -32.8989 398.4297)" class="st2 st25">meilleur</text>
	<text transform="matrix(1 0 0 1 -3.6865 398.4297)" class="st2 st26"> </text>
	<text transform="matrix(1 0 0 1 -1.8115 398.4297)" class="st2 st25">avant</text>
	<text transform="matrix(1 0 0 1 18.8887 398.4297)" class="st2 st26"> , </text>
	<text transform="matrix(1 0 0 1 25.0518 398.4297)" class="st2 st25">voir</text>
	<text transform="matrix(1 0 0 1 39.5483 398.4297)" class="st2 st26"> </text>
	<text transform="matrix(1 0 0 1 41.4219 398.4297)" class="st2 st25">paquet</text>
	<rect x="-125.3" y="420.4" class="st7" width="89.9" height="154.3"/>
	<text transform="matrix(1 0 0 1 -125.3271 427.0196)" class="st8 st25">made</text>
	<text transform="matrix(1 0 0 1 -108.0371 427.0196)" class="st8 st26"> </text>
	<text transform="matrix(1 0 0 1 -106.1162 427.0196)" class="st8 st25">in</text>
	<text transform="matrix(1 0 0 1 -100.0078 427.0196)" class="st8 st26"> </text>
	<text transform="matrix(1 0 0 1 -98.0874 427.0196)" class="st8 st25">the</text>
	<text transform="matrix(1 0 0 1 -86.9634 427.0196)" class="st8 st26"> </text>
	<text transform="matrix(1 0 0 1 -85.0415 427.0196)" class="st8 st25">uk</text>
	<text transform="matrix(1 0 0 1 -76.9336 427.0196)" class="st8 st26"> </text>
	<text transform="matrix(1 0 0 1 -75.0122 427.0196)" class="st8 st25">by</text>
	<text transform="matrix(1 0 0 1 -67.5337 427.0196)" class="st8 st26">/ </text>
	<text transform="matrix(1 0 0 1 -62.4834 427.0196)" class="st8 st25">produit</text>
	<text transform="matrix(1 0 0 1 -36.6895 427.0196)" class="st8 st26"> </text>
	<text transform="matrix(1 0 0 1 -125.3271 438.1592)" class="st8 st25">en</text>
	<text transform="matrix(1 0 0 1 -117.5884 438.1592)" class="st8 st26"> </text>
	<text transform="matrix(1 0 0 1 -115.668 438.1592)" class="st8 st25">gb</text>
	<text transform="matrix(1 0 0 1 -107.5977 438.1592)" class="st8 st26"> </text>
	<text transform="matrix(1 0 0 1 -105.6772 438.1592)" class="st8 st25">par</text>
	<text transform="matrix(1 0 0 1 -94.2148 438.1592)" class="st8 st26">/ </text>
	<text transform="matrix(1 0 0 1 -89.1665 438.1592)" class="st8 st25">mcvitie</text>
	<text transform="matrix(1 0 0 1 -65.8789 438.1592)" class="st8 st26">’</text>
	<text transform="matrix(1 0 0 1 -63.6885 438.1592)" class="st8 st25">s</text>
	<text transform="matrix(1 0 0 1 -60.3164 438.1592)" class="st8 st26"> </text>
	<text transform="matrix(1 0 0 1 -58.3945 438.1592)" class="st8 st25">p</text>
	<text transform="matrix(1 0 0 1 -54.7637 438.1592)" class="st8 st26">.</text>
	<text transform="matrix(1 0 0 1 -52.5728 438.1592)" class="st8 st25">o</text>
	<text transform="matrix(1 0 0 1 -47.999 438.1592)" class="st8 st26">. </text>
	<text transform="matrix(1 0 0 1 -125.3271 449.2979)" class="st8 st25">box</text>
	<text transform="matrix(1 0 0 1 -113.1504 449.2979)" class="st8 st26"> </text>
	<text transform="matrix(1 0 0 1 -111.2285 449.2979)" class="st8 st27">7249</text>
	<text transform="matrix(1 0 0 1 -94.646 449.2979)" class="st8 st26">, </text>
	<text transform="matrix(1 0 0 1 -125.3271 460.4356)" class="st8 st25">ashby</text>
	<text transform="matrix(1 0 0 1 -105.9785 460.4356)" class="st8 st26">-</text>
	<text transform="matrix(1 0 0 1 -103.0542 460.4356)" class="st8 st25">de</text>
	<text transform="matrix(1 0 0 1 -95.2705 460.4356)" class="st8 st26">-</text>
	<text transform="matrix(1 0 0 1 -92.3462 460.4356)" class="st8 st25">la</text>
	<text transform="matrix(1 0 0 1 -85.0107 460.4356)" class="st8 st26">-</text>
	<text transform="matrix(1 0 0 1 -82.0884 460.4356)" class="st8 st25">zouch</text>
	<text transform="matrix(1 0 0 1 -61.3218 460.4356)" class="st8 st26">, </text>
	<text transform="matrix(1 0 0 1 -57.2104 460.4356)" class="st8 st25">le</text>
	<text transform="matrix(1 0 0 1 -50.6611 460.4356)" class="st8 st27">65 </text>
	<text transform="matrix(1 0 0 1 -125.3271 471.5752)" class="st8 st27">2</text>
	<text transform="matrix(1 0 0 1 -121.1821 471.5752)" class="st8 st25">zh</text>
	<text transform="matrix(1 0 0 1 -113.1372 471.5752)" class="st8 st26">, </text>
	<text transform="matrix(1 0 0 1 -109.0259 471.5752)" class="st8 st25">great</text>
	<text transform="matrix(1 0 0 1 -90.1113 471.5752)" class="st8 st26"> </text>
	<text transform="matrix(1 0 0 1 -88.1895 471.5752)" class="st8 st25">britain</text>
	<text transform="matrix(1 0 0 1 -65.3848 471.5752)" class="st8 st26">. </text>
	<text transform="matrix(1 0 0 1 -125.3271 480.8555)" class="st2 st27">www.mcvities.com</text>
	<text transform="matrix(1 0 0 1 -125.3271 491.9951)" class="st17 st26">®</text>
	<text transform="matrix(1 0 0 1 -121.4375 491.9951)" class="st17 st25">registered</text>
	<text transform="matrix(1 0 0 1 -88.3462 491.9951)" class="st17 st26"> </text>
	<text transform="matrix(1 0 0 1 -86.3784 491.9951)" class="st17 st25">trademark</text>
	<text transform="matrix(1 0 0 1 -51.937 491.9951)" class="st17 st26"> </text>
	<text transform="matrix(1 0 0 1 -49.9692 491.9951)" class="st17 st25">of</text>
	<text transform="matrix(1 0 0 1 -42.3276 491.9951)" class="st17 st26"> </text>
	<text transform="matrix(1 0 0 1 -125.3271 503.1338)" class="st17 st25">united</text>
	<text transform="matrix(1 0 0 1 -104.543 503.1338)" class="st17 st26"> </text>
	<text transform="matrix(1 0 0 1 -102.5742 503.1338)" class="st17 st25">bisquits</text>
	<text transform="matrix(1 0 0 1 -77.6313 503.1338)" class="st17 st26"> (</text>
	<text transform="matrix(1 0 0 1 -73.0264 503.1338)" class="st17 st25">uk</text>
	<text transform="matrix(1 0 0 1 -65.3008 503.1338)" class="st17 st26">) </text>
	<text transform="matrix(1 0 0 1 -60.6973 503.1338)" class="st17 st25">limited</text>
	<text transform="matrix(1 0 0 1 -38.5469 503.1338)" class="st17 st26"> </text>
	<text transform="matrix(1 0 0 1 -125.3271 514.2715)" class="st17 st26">®</text>
	<text transform="matrix(1 0 0 1 -121.4375 514.2715)" class="st17 st25">marque</text>
	<text transform="matrix(1 0 0 1 -96.8647 514.2715)" class="st17 st26"> </text>
	<text transform="matrix(1 0 0 1 -94.8975 514.2715)" class="st17 st25">déposée</text>
	<text transform="matrix(1 0 0 1 -69.8428 514.2715)" class="st17 st26"> </text>
	<text transform="matrix(1 0 0 1 -67.876 514.2715)" class="st17 st25">d</text>
	<text transform="matrix(1 0 0 1 -63.5479 514.2715)" class="st17 st26">’</text>
	<text transform="matrix(1 0 0 1 -61.6274 514.2715)" class="st17 st25">united</text>
	<text transform="matrix(1 0 0 1 -40.8418 514.2715)" class="st17 st26"> </text>
	<text transform="matrix(1 0 0 1 -125.3271 525.4121)" class="st17 st25">bisquits</text>
	<text transform="matrix(1 0 0 1 -100.3833 525.4111)" class="st17 st26"> (</text>
	<text transform="matrix(1 0 0 1 -95.7793 525.4121)" class="st17 st25">uk</text>
	<text transform="matrix(1 0 0 1 -88.0537 525.4111)" class="st17 st26">) </text>
	<text transform="matrix(1 0 0 1 -83.4502 525.4121)" class="st17 st25">limited</text>
	<rect x="-327.4" y="602.1" class="st28" width="792" height="10.4"/>
</g>
</svg>
