<svg xmlns="http://www.w3.org/2000/svg" viewBox="-327.4 0.5 792 612" enable-background="new -327.4 0.5 792 612"><style type="text/css">.st0{fill:#DBDFD5;} .st1{fill:#2C2C6F;} .st2{font-family:&apos;MyriadPro-Bold&apos;;} .st3{font-size:59.5602px;} .st4{font-family:&apos;MyriadPro-LightIt&apos;;} .st5{font-size:10.8291px;} .st6{fill:none;stroke:#231F1F;stroke-miterlimit:10;} .st7{fill:none;} .st8{font-family:&apos;MyriadPro-Semibold&apos;;} .st9{font-size:15.075px;} .st10{font-family:&apos;MyriadPro-Light&apos;;} .st11{font-size:9.648px;} .st12{font-size:12.0601px;} .st13{fill:none;stroke:#000000;stroke-width:5;stroke-miterlimit:10;} .st14{fill:none;stroke:#000000;stroke-width:2;stroke-miterlimit:10;} .st15{fill:none;stroke:#000000;stroke-miterlimit:10;} .st16{fill:none;stroke:#000000;stroke-width:3;stroke-miterlimit:10;} .st17{font-family:&apos;MyriadPro-Regular&apos;;} .st18{fill:#EB2227;} .st19{fill:#CAE7F7;} .st20{fill:#241E20;} .st21{fill:#B28E46;} .st22{fill:#26170E;} .st23{fill:none;stroke:#26170E;stroke-miterlimit:10;} .st24{font-size:10.2961px;} .st25{font-size:6.4975px;} .st26{font-size:9.2821px;} .st27{font-size:7.7351px;} .st28{fill:#221E1F;}</style><path class="st0" d="M-327.4.5h792v612h-792z" id="Background"/><g id="Layer_5"><path class="st1" d="M249.3.5s6.9 22.6 26.8 23.1c0 0 35 .1 35.4 24.7 0 0 .6 47.8-7.2 61.6-.8 1.3-2 4.3-2.7 5.4-2.6 4.7-12.7 19.9-48.8 18.4l-104.6-.6s-30.2 6.8-29.5-24.9c0-1.7 0-3.4-.2-5-1.6-12.4-7.2-67.1 20.2-74.2 0 0 14.9-7.8 79.5-1.1.1.1 37.8 1.9 31.1-27.4z"/><text transform="translate(144.091 84.429)" class="st0 st2 st3">300g</text><text transform="translate(138.522 109.182)" class="st0 st4 st5">No artificial flavour or colour added</text><text transform="translate(132.181 121.557)" class="st0 st4 st5">Sans arôme artificiel ni colorant ajouté</text></g><g id="Nutrition_Facts"><path class="st6" d="M-125.3 37.1h212.8v246.6h-212.8z"/><path class="st7" d="M-125.3 40.1h234.5v246.6h-234.5z"/><text transform="translate(-125.327 50.888)" class="st8 st9">Nutrition Facts</text><text transform="translate(-125.327 62.492)" class="st10 st11">Serving Size 2 cookies (34 g)</text><text transform="translate(-125.327 91.42)" class="st8 st12">Calories</text><text transform="translate(-83.558 91.42)" class="st10 st12">160</text><text transform="translate(-125.327 105.885)" class="st8 st12">Fat</text><text transform="translate(-108.851 105.885)" class="st10 st12">7g</text><text transform="translate(-125.327 120.35)" class="st10 st12">Saturated + Trans 4g</text><text transform="translate(-125.327 149.278)" class="st8 st12">Cholesterol</text><text transform="translate(-63.06 149.278)" class="st10 st12">0 mg</text><text transform="translate(-125.327 163.744)" class="st8 st12">Sodium</text><text transform="translate(-82.552 163.744)" class="st10 st12">120mg</text><text transform="translate(-125.327 178.208)" class="st8 st12">Carbohydrate</text><text transform="translate(-53.159 178.208)" class="st10 st12">23g</text><text transform="translate(-125.327 192.75)" class="st10 st12">Fiber 1g</text><text transform="translate(-125.327 207.215)" class="st10 st12">Sugars 11g</text><text transform="translate(-125.327 221.679)" class="st8 st12">Protein</text><text transform="translate(-87.038 221.679)" class="st10 st12">2g</text><text transform="translate(-125.327 236.144)" class="st10 st12">Vitamin A</text><text transform="translate(-125.327 250.607)" class="st10 st12">Vitamin C</text><text transform="translate(-125.327 265.073)" class="st10 st12">Calcium</text><text transform="translate(-125.327 279.539)" class="st10 st12">Iron</text><path class="st13" d="M-125.3 71.7h213.4"/><path class="st14" d="M-125.3 94h213.4"/><path class="st15" d="M-125.3 110.3h213.4M-125.3 130.9h213.4M-125.3 238.8h213.4M-125.3 255.1h213.4M-125.3 268.9h213.4M-125.3 152.5h213.4M-125.3 167.5h213.4M-125.3 181.4h213.4M-117.5 197.1h205M-117.5 211.6h205"/><path class="st16" d="M-125.3 226.1h213.4"/><path class="st7" d="M60.9 98.3h26.6v98.9h-26.6z"/><text transform="translate(65.533 106.81)" class="st17 st12">11%</text><text transform="translate(65.533 124.291)" class="st17 st12">21%</text><text transform="translate(71.721 164.669)" class="st17 st12">5%</text><text transform="translate(71.721 179.133)" class="st17 st12">8%</text><text transform="translate(71.721 193.675)" class="st17 st12">4%</text><path class="st7" d="M60.9 227.9h26.6v60.8h-26.6z"/><text transform="translate(71.72 236.456)" class="st17 st12">0%</text><text transform="translate(71.72 250.92)" class="st17 st12">0%</text><text transform="translate(71.72 265.385)" class="st17 st12">2%</text><text transform="translate(71.72 279.85)" class="st17 st12">2%</text></g><g id="Double_Decker"><path class="st18" d="M-32 574.7l.8-129.1s5-35.5 32.7-35.5h268.3s25-3.4 26.6 31.1l5 89.3s3.4-.5 6.6 10.5v33.8l-340-.1z"/><path class="st19" d="M-23.5 456.9h51.2v-34.5c0-.1-53.4-9.6-51.2 34.5zM91.3 458.8h-44.2c-5.1 0-9.3-4.2-9.3-9.3v-18.8c0-5.1 4.2-9.3 9.3-9.3h44.1c5.1 0 9.3 4.2 9.3 9.3v18.8c.1 5.1-4.1 9.3-9.2 9.3zM162.3 457.8h-44c-5.1 0-9.3-4.2-9.3-9.3v-18.8c0-5.1 4.2-9.3 9.3-9.3h44.1c5.1 0 9.3 4.2 9.3 9.3v18.8c-.1 5.1-4.3 9.3-9.4 9.3zM232.8 457.8h-44c-5.1 0-9.3-4.2-9.3-9.3v-18.8c0-5.1 4.2-9.3 9.3-9.3h44.1c5.1 0 9.3 4.2 9.3 9.3v18.8c-.1 5.1-4.3 9.3-9.4 9.3zM91.6 530.7h-44.2c-5.1 0-9.3-4.2-9.3-9.3v-18.8c0-5.1 4.2-9.3 9.3-9.3h44.1c5.1 0 9.3 4.2 9.3 9.3v18.8c.1 5.1-4.1 9.3-9.2 9.3zM162.7 529.6h-44.1c-5.1 0-9.3-4.2-9.3-9.3v-18.8c0-5.1 4.2-9.3 9.3-9.3h44.1c5.1 0 9.3 4.2 9.3 9.3v18.8c0 5.2-4.2 9.3-9.3 9.3zM233.2 530.7h-44.2c-5.1 0-9.3-4.2-9.3-9.3v-18.8c0-5.1 4.2-9.3 9.3-9.3h44.1c5.1 0 9.3 4.2 9.3 9.3v18.8c.1 5.1-4.1 9.3-9.2 9.3zM249.8 485.1v48.6h43.4v-24.3s-.7-25.6-18.3-24.3h-25.1zM249.8 424.5v21s-1.1 12.2 8.8 12.3l10 .2 23.1-.2s3.9-32-41.9-33.3z"/><path class="st20" d="M46.7 462.7h195.3v24.9h-195.3z"/><circle class="st20" cx="59.3" cy="575.6" r="26.5"/><circle class="st20" cx="275" cy="575.6" r="26.5"/><circle class="st21" cx="59.3" cy="575.6" r="25.7"/><circle class="st22" cx="52.6" cy="557.2" r=".8"/><circle class="st22" cx="43.5" cy="561.5" r=".8"/><circle class="st22" cx="61.8" cy="556.2" r=".8"/><circle class="st22" cx="70.4" cy="560.1" r=".8"/><circle class="st22" cx="65.4" cy="568.7" r=".8"/><circle class="st22" cx="51" cy="569.9" r=".8"/><circle class="st22" cx="41.2" cy="570.6" r=".8"/><circle class="st22" cx="41.9" cy="581.1" r=".8"/><circle class="st22" cx="51.7" cy="579.9" r=".8"/><circle class="st22" cx="47" cy="589.4" r=".8"/><circle class="st22" cx="55" cy="593.1" r=".8"/><circle class="st22" cx="59.3" cy="586.9" r=".8"/><circle class="st22" cx="64.5" cy="592.6" r=".8"/><circle class="st22" cx="72.7" cy="587.5" r=".8"/><circle class="st22" cx="66" cy="578.8" r=".8"/><circle class="st22" cx="76.9" cy="579.8" r=".8"/><circle class="st22" cx="75.7" cy="568" r=".8"/><path class="st23" d="M52.9 571.5s-3.4-1.1-3.4 2.5c0 0 .2 3 3.4 1.7M50.2 577.7h2.5"/><text transform="translate(41.153 577.957)" class="st22 st17 st24">M VITIES</text><path class="st22" d="M59.2 561.9s.5-2.7 5.7-3.3c0 .1-2.6 4.1-5.7 3.3zM54.6 561.7s.5-2.7 5.7-3.3c0 .1-2.5 4.2-5.7 3.3zM50.2 562s.3-2.8 5.5-3.7c0 0-2.1 4.3-5.5 3.7zM59.1 562.4s.2 2.8 5.2 4c-.1 0-2-4.4-5.2-4zM54.6 562.3s.4 2.8 5.6 3.5c-.1 0-2.4-4.2-5.6-3.5zM50.4 562.5s.5 2.8 5.6 3.4c.1-.1-2.3-4.2-5.6-3.4zM62.4 562.4s2.8-2.7 9.1.8c0 .1-6.1 2.8-9.1-.8zM49.6 562.3s.3 1.9-2.7 3.4c-.1-.1.4-3.4 2.7-3.4z"/><circle class="st21" cx="275" cy="575.3" r="25.7"/><circle class="st22" cx="268.3" cy="556.9" r=".8"/><circle class="st22" cx="259.3" cy="561.2" r=".8"/><circle class="st22" cx="277.5" cy="555.9" r=".8"/><circle class="st22" cx="286.1" cy="559.8" r=".8"/><circle class="st22" cx="281.1" cy="568.5" r=".8"/><circle class="st22" cx="266.7" cy="569.6" r=".8"/><circle class="st22" cx="256.9" cy="570.3" r=".8"/><circle class="st22" cx="257.7" cy="580.9" r=".8"/><circle class="st22" cx="267.4" cy="579.7" r=".8"/><circle class="st22" cx="262.7" cy="589.1" r=".8"/><circle class="st22" cx="270.8" cy="592.9" r=".8"/><circle class="st22" cx="275" cy="586.5" r=".8"/><circle class="st22" cx="280.3" cy="592.3" r=".8"/><circle class="st22" cx="288.3" cy="587.2" r=".8"/><circle class="st22" cx="281.7" cy="578.5" r=".8"/><circle class="st22" cx="292.5" cy="579.5" r=".8"/><circle class="st22" cx="291.4" cy="567.6" r=".8"/><path class="st23" d="M268.6 571.2s-3.4-1.1-3.4 2.5c0 0 .2 3 3.4 1.7M266 577.4h2.5"/><text transform="translate(256.868 577.671)" class="st22 st17 st24">M VITIES</text><path class="st22" d="M274.9 561.6s.5-2.7 5.7-3.3c0 0-2.5 4.2-5.7 3.3zM270.3 561.4s.5-2.7 5.7-3.3c0 .1-2.5 4.2-5.7 3.3zM266 561.7s.3-2.8 5.5-3.7c0 .1-2.3 4.3-5.5 3.7zM274.7 562.1s.2 2.8 5.2 4c.1.1-1.9-4.4-5.2-4zM270.3 562s.4 2.8 5.6 3.5c0 0-2.4-4.2-5.6-3.5zM266.1 562.3s.5 2.8 5.6 3.4c.1-.2-2.4-4.3-5.6-3.4zM278.2 562.1s2.8-2.7 9.1.8c-.1 0-6.2 2.8-9.1-.8zM265.3 562s.3 1.9-2.7 3.4c-.1-.1.5-3.3 2.7-3.4z"/><path class="st7" d="M110.4 147.7h200.6v136.1h-200.6z"/><text transform="translate(110.436 154.284)" class="st17 st25">ingredient</text><text transform="translate(145.702 154.284)" class="st17 st25">wheat</text><text transform="translate(167.806 154.284)" class="st17 st25">flour</text><text transform="translate(186.214 154.284)" class="st17 st26">(32%),</text><text transform="translate(214.218 154.284)" class="st17 st25">caramel</text><text transform="translate(240.922 154.284)" class="st17 st26">(24%) [</text><text transform="translate(269.639 154.284)" class="st17 st25">glucose</text><text transform="translate(110.436 165.422)" class="st17 st25">syrup</text><text transform="translate(128.31 165.422)" class="st17 st26">,</text><text transform="translate(132.2 165.422)" class="st17 st25">sweetended</text><text transform="translate(171.813 165.422)" class="st17 st25">condensed</text><text transform="translate(208.828 165.422)" class="st17 st25">skim</text><text transform="translate(224.297 165.422)" class="st17 st25">milk</text><text transform="translate(237.663 165.422)" class="st17 st26">(</text><text transform="translate(242.266 165.422)" class="st17 st25">concentrated</text><text transform="translate(289.449 165.422)" class="st17 st25">skim</text><text transform="translate(110.436 176.56)" class="st17 st25">milk</text><text transform="translate(125.769 176.56)" class="st17 st25">abd</text><text transform="translate(139.561 176.56)" class="st17 st25">sugar</text><text transform="translate(158.639 176.56)" class="st17 st26">),</text><text transform="translate(165.163 176.56)" class="st17 st25">palm</text><text transform="translate(182.855 176.56)" class="st17 st25">oil</text><text transform="translate(191.951 176.56)" class="st17 st26">,</text><text transform="translate(195.841 176.56)" class="st17 st25">glycerine</text><text transform="translate(226.105 176.56)" class="st17 st26">,</text><text transform="translate(229.995 176.56)" class="st17 st25">salt</text><text transform="translate(243.47 176.56)" class="st17 st26">,</text><text transform="translate(247.36 176.56)" class="st17 st25">natural</text><text transform="translate(275.551 176.56)" class="st17 st25">flavour</text><text transform="translate(301.559 176.56)" class="st17 st26">,</text><text transform="translate(110.436 187.699)" class="st17 st25">mono</text><text transform="translate(128.889 187.7)" class="st17 st26">-</text><text transform="translate(131.738 187.699)" class="st17 st25">and</text><text transform="translate(146.285 187.699)" class="st17 st25">diglycerides</text><text transform="translate(185.685 187.7)" class="st17 st26">(</text><text transform="translate(190.288 187.699)" class="st17 st25">emulsifier</text><text transform="translate(222.145 187.7)" class="st17 st26">)],</text><text transform="translate(231.307 187.699)" class="st17 st25">milk</text><text transform="translate(246.64 187.699)" class="st17 st25">chocolate</text><text transform="translate(110.436 198.838)" class="st17 st25">flavoured</text><text transform="translate(145.936 198.838)" class="st17 st25">coating</text><text transform="translate(171.413 198.838)" class="st17 st26">(18%) [</text><text transform="translate(200.131 198.838)" class="st17 st25">sugar</text><text transform="translate(219.207 198.838)" class="st17 st26">,</text><text transform="translate(223.097 198.838)" class="st17 st25">cocoa</text><text transform="translate(245.53 198.838)" class="st17 st25">butter</text><text transform="translate(266.407 198.838)" class="st17 st26">,</text><text transform="translate(270.297 198.838)" class="st17 st25">cocoa</text><text transform="translate(292.731 198.838)" class="st17 st25">mass</text><text transform="translate(308.338 198.838)" class="st17 st26">,</text><text transform="translate(110.436 209.977)" class="st17 st25">skim</text><text transform="translate(125.906 209.977)" class="st17 st25">milk</text><text transform="translate(141.238 209.977)" class="st17 st25">powder</text><text transform="translate(165.689 209.977)" class="st17 st26">,</text><text transform="translate(169.577 209.977)" class="st17 st25">whey</text><text transform="translate(187.99 209.977)" class="st17 st25">powder</text><text transform="translate(212.439 209.977)" class="st17 st26">,</text><text transform="translate(216.329 209.977)" class="st17 st25">butter</text><text transform="translate(239.173 209.977)" class="st17 st25">oil</text><text transform="translate(248.268 209.977)" class="st17 st26">,</text><text transform="translate(250.19 209.977)" class="st17 st25">vegetable</text><text transform="translate(283.366 209.977)" class="st17 st25">oil</text><text transform="translate(110.436 221.115)" class="st17 st26">(</text><text transform="translate(113.072 221.115)" class="st17 st25">shea</text><text transform="translate(127.685 221.115)" class="st17 st26">,</text><text transform="translate(131.572 221.115)" class="st17 st25">illipe</text><text transform="translate(147.467 221.115)" class="st17 st26">,</text><text transform="translate(151.356 221.115)" class="st17 st25">sal</text><text transform="translate(161.602 221.115)" class="st17 st26">,</text><text transform="translate(165.491 221.115)" class="st17 st25">mango</text><text transform="translate(189.608 221.115)" class="st17 st25">kernal</text><text transform="translate(213.108 221.115)" class="st17 st25">and</text><text transform="translate(227.654 221.115)" class="st17 st25">kokum</text><text transform="translate(248.602 221.115)" class="st17 st26">)</text><text transform="translate(253.206 221.115)" class="st17 st25">and</text><text transform="translate(267.753 221.115)" class="st17 st25">palm</text><text transform="translate(285.443 221.115)" class="st17 st25">oil</text><text transform="translate(294.541 221.115)" class="st17 st26">,</text><text transform="translate(110.436 232.253)" class="st17 st25">soya</text><text transform="translate(127.574 232.253)" class="st17 st25">lecithin</text><text transform="translate(154.422 232.253)" class="st17 st25">and</text><text transform="translate(168.97 232.253)" class="st17 st25">polyglycerol</text><text transform="translate(214.236 232.253)" class="st17 st25">polyricinoleate</text><text transform="translate(264.54 232.254)" class="st17 st26">(</text><text transform="translate(269.143 232.253)" class="st17 st25">emulsifiers</text><text transform="translate(304.203 232.254)" class="st17 st26">),</text><text transform="translate(110.436 243.393)" class="st17 st25">natural</text><text transform="translate(138.627 243.393)" class="st17 st25">vanilla</text><text transform="translate(164.134 243.393)" class="st17 st25">flavour</text><text transform="translate(190.143 243.393)" class="st17 st26">],</text><text transform="translate(196.668 243.393)" class="st17 st25">palm</text><text transform="translate(214.359 243.393)" class="st17 st25">oil</text><text transform="translate(223.457 243.393)" class="st17 st26">,</text><text transform="translate(227.346 243.393)" class="st17 st25">sugar</text><text transform="translate(246.422 243.393)" class="st17 st26">,</text><text transform="translate(250.31 243.393)" class="st17 st25">whole</text><text transform="translate(272.752 243.393)" class="st17 st25">wheat</text><text transform="translate(110.436 254.531)" class="st17 st25">flour</text><text transform="translate(128.843 254.531)" class="st17 st26">(7%)</text><text transform="translate(150.162 254.531)" class="st17 st25">glucose</text><text transform="translate(176.277 254.531)" class="st17 st26">-</text><text transform="translate(179.125 254.531)" class="st17 st25">fructose</text><text transform="translate(207.864 254.531)" class="st17 st26">,</text><text transform="translate(211.752 254.531)" class="st17 st25">sodium</text><text transform="translate(236.708 254.531)" class="st17 st25">bicarbonate</text><text transform="translate(277.667 254.531)" class="st17 st25">and</text><text transform="translate(110.436 265.669)" class="st17 st25">tartaric</text><text transform="translate(139.128 265.669)" class="st17 st25">acid</text><text transform="translate(154.721 265.669)" class="st17 st25">and</text><text transform="translate(169.267 265.669)" class="st17 st25">malic</text><text transform="translate(188.824 265.669)" class="st17 st25">acid</text><text transform="translate(204.417 265.669)" class="st17 st25">and</text><text transform="translate(218.963 265.669)" class="st17 st25">ammonium</text><text transform="translate(255.087 265.669)" class="st17 st25">bicarbonate</text><text transform="translate(110.436 276.808)" class="st17 st26">(</text><text transform="translate(113.072 276.808)" class="st17 st25">raising</text><text transform="translate(137.294 276.808)" class="st17 st25">agents</text><text transform="translate(159.372 276.808)" class="st17 st26">),</text><text transform="translate(165.897 276.808)" class="st17 st25">salt</text><text transform="translate(181.341 276.808)" class="st17 st25">contains</text><text transform="translate(210.098 276.808)" class="st17 st26">:</text><text transform="translate(213.987 276.808)" class="st17 st25">wheat</text><text transform="translate(234.122 276.808)" class="st17 st26">,</text><text transform="translate(238.012 276.808)" class="st17 st25">milk</text><text transform="translate(253.345 276.808)" class="st17 st25">and</text><text transform="translate(267.891 276.808)" class="st17 st25">soya</text><path class="st7" d="M-125.3 294h436.4v79.5h-436.4z"/><text transform="translate(-125.327 300.66)" class="st17 st25">ingrédients</text><text transform="translate(-86.857 300.66)" class="st17 st25">de</text><text transform="translate(-77.366 300.66)" class="st17 st25">blé</text><text transform="translate(-65.613 300.66)" class="st17 st25">ingrédient</text><text transform="translate(-32.313 300.66)" class="st17 st26">(32% ) ,</text><text transform="translate(-.374 300.66)" class="st17 st25">caramel</text><text transform="translate(26.33 300.66)" class="st17 st26">( 24 % ) [</text><text transform="translate(60.951 300.66)" class="st17 st25">sirop</text><text transform="translate(79.106 300.66)" class="st17 st25">de</text><text transform="translate(88.597 300.66)" class="st17 st25">glucose</text><text transform="translate(114.71 300.66)" class="st17 st26">,</text><text transform="translate(120.567 300.66)" class="st17 st25">lait</text><text transform="translate(134.36 300.66)" class="st17 st25">écrémé</text><text transform="translate(158.407 300.66)" class="st17 st25">condencé</text><text transform="translate(191.659 300.66)" class="st17 st25">sucré</text><text transform="translate(209.528 300.66)" class="st17 st26">(</text><text transform="translate(214.133 300.66)" class="st17 st25">lait</text><text transform="translate(227.925 300.66)" class="st17 st25">écrémé</text><text transform="translate(251.973 300.66)" class="st17 st25">concentré</text><text transform="translate(287.623 300.66)" class="st17 st25">et</text><text transform="translate(-125.327 311.798)" class="st17 st25">sucre</text><text transform="translate(-107.459 311.797)" class="st17 st26">) ,</text><text transform="translate(-96.999 311.798)" class="st17 st25">huile</text><text transform="translate(-78.775 311.798)" class="st17 st25">de</text><text transform="translate(-69.283 311.798)" class="st17 st25">palme</text><text transform="translate(-50.363 311.797)" class="st17 st26">,</text><text transform="translate(-44.507 311.798)" class="st17 st25">glycérine</text><text transform="translate(-14.241 311.797)" class="st17 st26">,</text><text transform="translate(-8.384 311.798)" class="st17 st25">sel</text><text transform="translate(1.083 311.797)" class="st17 st26">,</text><text transform="translate(6.939 311.798)" class="st17 st25">arôme</text><text transform="translate(29.276 311.798)" class="st17 st25">naturel</text><text transform="translate(54.72 311.797)" class="st17 st26">,</text><text transform="translate(60.577 311.798)" class="st17 st25">mono</text><text transform="translate(80.998 311.798)" class="st17 st25">et</text><text transform="translate(89.392 311.798)" class="st17 st25">diglycérides</text><text transform="translate(128.795 311.797)" class="st17 st26">(</text><text transform="translate(135.365 311.798)" class="st17 st25">émulsifiant</text><text transform="translate(172.012 311.797)" class="st17 st26">) ] ,</text><text transform="translate(187.076 311.798)" class="st17 st25">le</text><text transform="translate(195.307 311.798)" class="st17 st25">chocolat</text><text transform="translate(228.273 311.798)" class="st17 st25">au</text><text transform="translate(238.421 311.798)" class="st17 st25">lait</text><text transform="translate(252.215 311.798)" class="st17 st25">revêtement</text><text transform="translate(-125.327 322.937)" class="st17 st25">aromatisé</text><text transform="translate(-92.996 322.937)" class="st17 st26">(18% ) [</text><text transform="translate(-60.342 322.937)" class="st17 st25">sucre</text><text transform="translate(-42.474 322.937)" class="st17 st26">,</text><text transform="translate(-36.618 322.937)" class="st17 st25">beurre</text><text transform="translate(-13.54 322.937)" class="st17 st25">de</text><text transform="translate(-4.049 322.937)" class="st17 st25">cacao</text><text transform="translate(15.919 322.937)" class="st17 st26">,</text><text transform="translate(21.775 322.937)" class="st17 st25">pâte</text><text transform="translate(37.602 322.937)" class="st17 st25">de</text><text transform="translate(47.093 322.937)" class="st17 st25">cacao</text><text transform="translate(67.06 322.937)" class="st17 st26">,</text><text transform="translate(72.917 322.937)" class="st17 st25">lait</text><text transform="translate(86.71 322.937)" class="st17 st25">écrémé</text><text transform="translate(110.756 322.937)" class="st17 st25">en</text><text transform="translate(120.196 322.937)" class="st17 st25">poudre</text><text transform="translate(143.352 322.937)" class="st17 st26">,</text><text transform="translate(149.21 322.937)" class="st17 st25">lactosérum</text><text transform="translate(189.019 322.937)" class="st17 st25">en</text><text transform="translate(198.459 322.937)" class="st17 st25">poudre</text><text transform="translate(221.616 322.937)" class="st17 st26">,</text><text transform="translate(225.504 322.937)" class="st17 st25">huile</text><text transform="translate(243.73 322.937)" class="st17 st25">de</text><text transform="translate(253.222 322.937)" class="st17 st25">beurre</text><text transform="translate(274.331 322.937)" class="st17 st26">,</text><text transform="translate(278.221 322.937)" class="st17 st25">de</text><text transform="translate(287.712 322.937)" class="st17 st25">l</text><text transform="translate(290.779 322.937)" class="st17 st26">&apos;</text><text transform="translate(292.524 322.937)" class="st17 st25">huile</text><text transform="translate(-125.327 334.076)" class="st17 st25">végétale</text><text transform="translate(-97.641 334.076)" class="st17 st26">(</text><text transform="translate(-91.07 334.076)" class="st17 st25">karité</text><text transform="translate(-72.098 334.076)" class="st17 st26">,</text><text transform="translate(-66.241 334.076)" class="st17 st25">illipe</text><text transform="translate(-50.348 334.076)" class="st17 st26">,</text><text transform="translate(-44.491 334.076)" class="st17 st25">sal</text><text transform="translate(-34.245 334.076)" class="st17 st26">,</text><text transform="translate(-28.388 334.076)" class="st17 st25">mangue</text><text transform="translate(-1.346 334.076)" class="st17 st25">kernal</text><text transform="translate(22.153 334.076)" class="st17 st25">et</text><text transform="translate(30.546 334.076)" class="st17 st25">kokum</text><text transform="translate(51.494 334.076)" class="st17 st26">)</text><text transform="translate(58.065 334.076)" class="st17 st25">et</text><text transform="translate(66.461 334.076)" class="st17 st25">huile</text><text transform="translate(84.684 334.076)" class="st17 st25">de</text><text transform="translate(94.176 334.076)" class="st17 st25">palme</text><text transform="translate(113.096 334.076)" class="st17 st26">,</text><text transform="translate(118.953 334.076)" class="st17 st25">lécithine</text><text transform="translate(148.997 334.076)" class="st17 st25">de</text><text transform="translate(158.489 334.076)" class="st17 st25">soja</text><text transform="translate(174.518 334.076)" class="st17 st25">et</text><text transform="translate(182.911 334.076)" class="st17 st25">polyricinoléate</text><text transform="translate(235.182 334.076)" class="st17 st25">de</text><text transform="translate(244.674 334.076)" class="st17 st25">polyglycérol</text><text transform="translate(-125.327 345.213)" class="st17 st26">(</text><text transform="translate(-122.692 345.213)" class="st17 st25">émulsifiants</text><text transform="translate(-82.842 345.213)" class="st17 st26">) ,</text><text transform="translate(-72.381 345.213)" class="st17 st25">arôme</text><text transform="translate(-50.045 345.213)" class="st17 st25">naturel</text><text transform="translate(-22.633 345.213)" class="st17 st25">de</text><text transform="translate(-13.142 345.213)" class="st17 st25">vanille</text><text transform="translate(9.619 345.213)" class="st17 st26">] ,</text><text transform="translate(20.079 345.213)" class="st17 st25">l</text><text transform="translate(23.147 345.213)" class="st17 st26">&apos;</text><text transform="translate(24.892 345.213)" class="st17 st25">huile</text><text transform="translate(43.115 345.213)" class="st17 st25">de</text><text transform="translate(52.607 345.213)" class="st17 st25">palme</text><text transform="translate(71.527 345.213)" class="st17 st26">,</text><text transform="translate(77.384 345.213)" class="st17 st25">le</text><text transform="translate(85.615 345.213)" class="st17 st25">sucre</text><text transform="translate(103.484 345.213)" class="st17 st26">,</text><text transform="translate(109.34 345.213)" class="st17 st25">la</text><text transform="translate(118.352 345.213)" class="st17 st25">farine</text><text transform="translate(139.981 345.213)" class="st17 st25">de</text><text transform="translate(149.475 345.213)" class="st17 st25">blé</text><text transform="translate(161.226 345.213)" class="st17 st25">entier</text><text transform="translate(180.173 345.213)" class="st17 st26">(7% ),</text><text transform="translate(205.384 345.213)" class="st17 st25">de</text><text transform="translate(214.875 345.213)" class="st17 st25">glucose</text><text transform="translate(240.989 345.213)" class="st17 st26">-</text><text transform="translate(243.839 345.213)" class="st17 st25">fructose</text><text transform="translate(272.576 345.213)" class="st17 st26">,</text><text transform="translate(278.434 345.213)" class="st17 st25">le</text><text transform="translate(-125.327 356.353)" class="st17 st25">bicarbonate</text><text transform="translate(-84.368 356.353)" class="st17 st25">de</text><text transform="translate(-74.876 356.353)" class="st17 st25">sodium</text><text transform="translate(-49.921 356.353)" class="st17 st25">et</text><text transform="translate(-41.527 356.353)" class="st17 st25">de</text><text transform="translate(-32.036 356.353)" class="st17 st25">l</text><text transform="translate(-28.969 356.353)" class="st17 st26">&apos;</text><text transform="translate(-27.225 356.353)" class="st17 st25">acide</text><text transform="translate(-8.435 356.353)" class="st17 st25">tartrique</text><text transform="translate(24.389 356.353)" class="st17 st25">et</text><text transform="translate(32.783 356.353)" class="st17 st25">l</text><text transform="translate(35.851 356.353)" class="st17 st26">&apos;</text><text transform="translate(37.596 356.353)" class="st17 st25">acide</text><text transform="translate(56.385 356.353)" class="st17 st25">et</text><text transform="translate(64.778 356.353)" class="st17 st25">le</text><text transform="translate(73.01 356.353)" class="st17 st25">bicarbonate</text><text transform="translate(113.968 356.353)" class="st17 st25">d</text><text transform="translate(118.295 356.353)" class="st17 st26">&apos;</text><text transform="translate(120.04 356.353)" class="st17 st25">ammonium</text><text transform="translate(156.166 356.353)" class="st17 st25">malique</text><text transform="translate(181.864 356.353)" class="st17 st26">(</text><text transform="translate(188.435 356.353)" class="st17 st25">agents</text><text transform="translate(212.482 356.353)" class="st17 st25">levants</text><text transform="translate(237.057 356.353)" class="st17 st26">) ,</text><text transform="translate(247.517 356.353)" class="st17 st25">le</text><text transform="translate(255.747 356.353)" class="st17 st25">sel</text><text transform="translate(267.183 356.353)" class="st17 st25">contient</text><text transform="translate(295.188 356.353)" class="st17 st26">:</text><text transform="translate(301.043 356.353)" class="st17 st25">le</text><text transform="translate(-125.327 367.49)" class="st17 st25">blé</text><text transform="translate(-115.542 367.491)" class="st17 st26">,</text><text transform="translate(-111.653 367.49)" class="st17 st25">le</text><text transform="translate(-103.422 367.49)" class="st17 st25">lait</text><text transform="translate(-89.628 367.49)" class="st17 st25">et</text><text transform="translate(-81.235 367.49)" class="st17 st25">le</text><text transform="translate(-73.004 367.49)" class="st17 st25">soja</text><path class="st7" d="M-125.3 380.7h436.4v20.5h-436.4z"/><text transform="translate(-125.327 387.29)" class="st2 st25">store</text><text transform="translate(-104.402 387.29)" class="st2 st25">in</text><text transform="translate(-96.192 387.29)" class="st2 st25">a</text><text transform="translate(-90.055 387.29)" class="st2 st25">cool</text><text transform="translate(-71.676 387.29)" class="st2 st25">dry</text><text transform="translate(-57.508 387.29)" class="st2 st25">place</text><text transform="translate(-36.941 387.29)" class="st2 st25">away</text><text transform="translate(-16.854 387.29)" class="st2 st25">from</text><text transform="translate(2.453 387.29)" class="st2 st25">strong</text><text transform="translate(28.823 387.29)" class="st2 st25">light</text><text transform="translate(46.463 387.29)" class="st2 st26">/</text><text transform="translate(49.536 387.29)" class="st2 st25">gardez</text><text transform="translate(75.698 387.29)" class="st2 st25">dans</text><text transform="translate(94.348 387.29)" class="st2 st25">un</text><text transform="translate(105.138 387.29)" class="st2 st25">endroit</text><text transform="translate(133.411 387.29)" class="st2 st25">frais</text><text transform="translate(152.188 387.29)" class="st2 st25">et</text><text transform="translate(161.092 387.29)" class="st2 st25">sec</text><text transform="translate(173.811 387.29)" class="st2 st25">loin</text><text transform="translate(189.998 387.29)" class="st2 st25">de</text><text transform="translate(199.866 387.29)" class="st2 st25">la</text><text transform="translate(209.323 387.29)" class="st2 st25">lumière</text><text transform="translate(237.089 387.29)" class="st2 st25">forte</text><text transform="translate(256.056 387.29)" class="st2 st26">.</text><text transform="translate(-125.327 398.43)" class="st2 st25">best</text><text transform="translate(-108.989 398.43)" class="st2 st25">before</text><text transform="translate(-86.19 398.43)" class="st2 st26">,</text><text transform="translate(-81.902 398.43)" class="st2 st25">refer</text><text transform="translate(-61.959 398.43)" class="st2 st25">to</text><text transform="translate(-51.864 398.43)" class="st2 st25">pack</text><text transform="translate(-35.971 398.43)" class="st2 st26">/</text><text transform="translate(-32.899 398.43)" class="st2 st25">meilleur</text><text transform="translate(-1.812 398.43)" class="st2 st25">avant</text><text transform="translate(18.889 398.43)" class="st2 st26">,</text><text transform="translate(25.052 398.43)" class="st2 st25">voir</text><text transform="translate(41.422 398.43)" class="st2 st25">paquet</text><path class="st7" d="M-125.3 420.4h89.9v154.3h-89.9z"/><text transform="translate(-125.327 427.02)" class="st8 st25">made</text><text transform="translate(-106.116 427.02)" class="st8 st25">in</text><text transform="translate(-98.087 427.02)" class="st8 st25">the</text><text transform="translate(-85.041 427.02)" class="st8 st25">uk</text><text transform="translate(-75.012 427.02)" class="st8 st25">by</text><text transform="translate(-67.534 427.02)" class="st8 st26">/</text><text transform="translate(-62.483 427.02)" class="st8 st25">produit</text><text transform="translate(-125.327 438.159)" class="st8 st25">en</text><text transform="translate(-115.668 438.159)" class="st8 st25">gb</text><text transform="translate(-105.677 438.159)" class="st8 st25">par</text><text transform="translate(-94.215 438.159)" class="st8 st26">/</text><text transform="translate(-89.166 438.159)" class="st8 st25">mcvitie</text><text transform="translate(-65.879 438.159)" class="st8 st26">’</text><text transform="translate(-63.688 438.159)" class="st8 st25">s</text><text transform="translate(-58.395 438.159)" class="st8 st25">p</text><text transform="translate(-54.764 438.159)" class="st8 st26">.</text><text transform="translate(-52.573 438.159)" class="st8 st25">o</text><text transform="translate(-47.999 438.159)" class="st8 st26">.</text><text transform="translate(-125.327 449.298)" class="st8 st25">box</text><text transform="translate(-111.228 449.298)" class="st8 st27">7249</text><text transform="translate(-94.646 449.298)" class="st8 st26">,</text><text transform="translate(-125.327 460.436)" class="st8 st25">ashby</text><text transform="translate(-105.978 460.436)" class="st8 st26">-</text><text transform="translate(-103.054 460.436)" class="st8 st25">de</text><text transform="translate(-95.27 460.436)" class="st8 st26">-</text><text transform="translate(-92.346 460.436)" class="st8 st25">la</text><text transform="translate(-85.011 460.436)" class="st8 st26">-</text><text transform="translate(-82.088 460.436)" class="st8 st25">zouch</text><text transform="translate(-61.322 460.436)" class="st8 st26">,</text><text transform="translate(-57.21 460.436)" class="st8 st25">le</text><text transform="translate(-50.661 460.436)" class="st8 st27">65</text><text transform="translate(-125.327 471.575)" class="st8 st27">2</text><text transform="translate(-121.182 471.575)" class="st8 st25">zh</text><text transform="translate(-113.137 471.575)" class="st8 st26">,</text><text transform="translate(-109.026 471.575)" class="st8 st25">great</text><text transform="translate(-88.189 471.575)" class="st8 st25">britain</text><text transform="translate(-65.385 471.575)" class="st8 st26">.</text><text transform="translate(-125.327 480.856)" class="st2 st27">www.mcvities.com</text><text transform="translate(-125.327 491.995)" class="st17 st26">®</text><text transform="translate(-121.438 491.995)" class="st17 st25">registered</text><text transform="translate(-86.378 491.995)" class="st17 st25">trademark</text><text transform="translate(-49.969 491.995)" class="st17 st25">of</text><text transform="translate(-125.327 503.134)" class="st17 st25">united</text><text transform="translate(-102.574 503.134)" class="st17 st25">bisquits</text><text transform="translate(-77.631 503.134)" class="st17 st26">(</text><text transform="translate(-73.026 503.134)" class="st17 st25">uk</text><text transform="translate(-65.301 503.134)" class="st17 st26">)</text><text transform="translate(-60.697 503.134)" class="st17 st25">limited</text><text transform="translate(-125.327 514.271)" class="st17 st26">®</text><text transform="translate(-121.438 514.271)" class="st17 st25">marque</text><text transform="translate(-94.897 514.271)" class="st17 st25">déposée</text><text transform="translate(-67.876 514.271)" class="st17 st25">d</text><text transform="translate(-63.548 514.271)" class="st17 st26">’</text><text transform="translate(-61.627 514.271)" class="st17 st25">united</text><text transform="translate(-125.327 525.412)" class="st17 st25">bisquits</text><text transform="translate(-100.383 525.411)" class="st17 st26">(</text><text transform="translate(-95.779 525.412)" class="st17 st25">uk</text><text transform="translate(-88.054 525.411)" class="st17 st26">)</text><text transform="translate(-83.45 525.412)" class="st17 st25">limited</text><path class="st28" d="M-327.4 602.1h792v10.4h-792z"/></g></svg>