<?xml version="1.0" encoding="utf-8"?>
<!-- Generator: Adobe Illustrator 19.1.0, SVG Export Plug-In . SVG Version: 6.00 Build 0)  -->
<svg version="1.1" id="Layer_1" xmlns="http://www.w3.org/2000/svg" xmlns:xlink="http://www.w3.org/1999/xlink" x="0px" y="0px"
	 viewBox="1.8 192 463.3 599" style="enable-background:new 1.8 192 463.3 599;" xml:space="preserve">
<style type="text/css">
	.st0{fill:#DBDFD5;}
	.st1{fill:#2C2C6F;}
	.st2{font-family:'MyriadPro-Bold';}
	.st3{font-size:58.295px;}
	.st4{font-family:'MyriadPro-LightIt';}
	.st5{font-size:10.5991px;}
	.st6{fill:none;stroke:#231F1F;stroke-miterlimit:10;}
	.st7{fill:none;}
	.st8{font-family:'MyriadPro-Semibold';}
	.st9{font-size:14.7548px;}
	.st10{font-family:'MyriadPro-Light';}
	.st11{font-size:9.4431px;}
	.st12{font-size:11.8039px;}
	.st13{fill:none;stroke:#000000;stroke-width:5;stroke-miterlimit:10;}
	.st14{fill:none;stroke:#000000;stroke-width:2;stroke-miterlimit:10;}
	.st15{fill:none;stroke:#000000;stroke-miterlimit:10;}
	.st16{fill:none;stroke:#000000;stroke-width:3;stroke-miterlimit:10;}
	.st17{font-family:'MyriadPro-Regular';}
	.st18{fill:#EB2227;}
	.st19{fill:#CAE7F7;}
	.st20{fill:#241E20;}
	.st21{fill:#231F1F;}
	.st22{fill:#B28E46;}
	.st23{fill:#26170E;}
	.st24{fill:none;stroke:#26170E;stroke-miterlimit:10;}
	.st25{font-size:10.0774px;}
	.st26{font-size:6.3595px;}
	.st27{font-size:9.0849px;}
	.st28{font-size:7.5708px;}
</style>
<g id="Background">
	<rect x="1.8" y="192" class="st0" width="463.3" height="599"/>
</g>
<g id="Layer_5">
	<path class="st1" d="M387.3,192c0,0,6.8,22.1,26.2,22.6c0,0,34.3,0.1,34.6,24.2c0,0,0.6,46.8-7,60.3c-0.8,1.3-2,4.2-2.6,5.3
		c-2.5,4.6-12.4,19.5-47.8,18l-102.4-0.6c0,0-29.6,6.7-28.9-24.4c0-1.7,0-3.3-0.2-4.9c-1.6-12.1-7-65.7,19.8-72.6
		c0,0,14.6-7.6,77.8-1.1C356.9,218.9,393.8,220.7,387.3,192z"/>
	<text transform="matrix(1 0 0 1 284.3105 274.1465)" class="st0 st2 st3">300g</text>
	<text transform="matrix(1 0 0 1 278.8604 298.373)" class="st0 st4 st5">No artificial flavour or colour added</text>
	<text transform="matrix(1 0 0 1 272.6534 310.4854)" class="st0 st4 st5">Sans arôme artificiel ni colorant ajouté</text>
</g>
<g id="Nutrition_Facts">
	<g>
		<rect x="20.6" y="227.8" class="st6" width="208.3" height="241.4"/>
		<g>
			<rect x="20.6" y="230.8" class="st7" width="229.5" height="241.4"/>
			<text transform="matrix(1 0 0 1 20.6152 241.3174)" class="st8 st9">Nutrition Facts</text>
			<text transform="matrix(1 0 0 1 20.6152 252.6748)" class="st10 st11">Serving Size 2 cookies (34 g)</text>
			<text transform="matrix(1 0 0 1 20.6152 280.9893)" class="st8 st12">Calories</text>
			<text transform="matrix(1 0 0 1 61.4971 280.9893)" class="st10 st12"> 160</text>
			<text transform="matrix(1 0 0 1 20.6152 295.1465)" class="st8 st12">Fat</text>
			<text transform="matrix(1 0 0 1 36.7412 295.1465)" class="st10 st12"> 7g</text>
			<text transform="matrix(1 0 0 1 20.6152 309.3037)" class="st10 st12">Saturated + Trans 4g</text>
			<text transform="matrix(1 0 0 1 20.6152 337.6182)" class="st8 st12">Cholesterol </text>
			<text transform="matrix(1 0 0 1 81.5596 337.6182)" class="st10 st12">0 mg</text>
			<text transform="matrix(1 0 0 1 20.6152 351.7764)" class="st8 st12">Sodium </text>
			<text transform="matrix(1 0 0 1 62.4814 351.7764)" class="st10 st12">120mg</text>
			<text transform="matrix(1 0 0 1 20.6152 365.9336)" class="st8 st12">Carbohydrate</text>
			<text transform="matrix(1 0 0 1 91.25 365.9336)" class="st10 st12"> 23g</text>
			<text transform="matrix(1 0 0 1 20.6152 380.166)" class="st10 st12">   Fiber 1g</text>
			<text transform="matrix(1 0 0 1 20.6152 394.3242)" class="st10 st12">   Sugars 11g</text>
			<text transform="matrix(1 0 0 1 20.6152 408.4805)" class="st8 st12">Protein</text>
			<text transform="matrix(1 0 0 1 58.0908 408.4805)" class="st10 st12"> 2g</text>
			<text transform="matrix(1 0 0 1 20.6152 422.6387)" class="st10 st12">Vitamin A </text>
			<text transform="matrix(1 0 0 1 20.6152 436.7949)" class="st10 st12">Vitamin C </text>
			<text transform="matrix(1 0 0 1 20.6152 450.9531)" class="st10 st12">Calcium</text>
			<text transform="matrix(1 0 0 1 20.6152 465.1113)" class="st10 st12">Iron</text>
			<line class="st13" x1="20.6" y1="261.7" x2="229.5" y2="261.7"/>
			<line class="st14" x1="20.6" y1="283.5" x2="229.5" y2="283.5"/>
			<line class="st15" x1="20.6" y1="299.5" x2="229.5" y2="299.5"/>
			<line class="st15" x1="20.6" y1="319.6" x2="229.5" y2="319.6"/>
			<line class="st15" x1="20.6" y1="425.2" x2="229.5" y2="425.2"/>
			<line class="st15" x1="20.6" y1="441.2" x2="229.5" y2="441.2"/>
			<line class="st15" x1="20.6" y1="454.7" x2="229.5" y2="454.7"/>
			<line class="st15" x1="20.6" y1="340.8" x2="229.5" y2="340.8"/>
			<line class="st15" x1="20.6" y1="355.5" x2="229.5" y2="355.5"/>
			<line class="st15" x1="20.6" y1="369.1" x2="229.5" y2="369.1"/>
			<line class="st15" x1="28.3" y1="384.4" x2="228.9" y2="384.4"/>
			<line class="st15" x1="28.3" y1="398.6" x2="228.9" y2="398.6"/>
			<line class="st16" x1="20.6" y1="412.8" x2="229.5" y2="412.8"/>
			<rect x="202.9" y="287.7" class="st7" width="26" height="96.8"/>
			<text transform="matrix(1 0 0 1 207.4209 296.0518)" class="st17 st12">11%</text>
			<text transform="matrix(1 0 0 1 207.4209 313.1621)" class="st17 st12">21%</text>
			<text transform="matrix(1 0 0 1 213.4775 352.6816)" class="st17 st12">5%</text>
			<text transform="matrix(1 0 0 1 213.4775 366.8389)" class="st17 st12">8%</text>
			<text transform="matrix(1 0 0 1 213.4775 381.0713)" class="st17 st12">4%</text>
			<rect x="202.9" y="414.6" class="st7" width="26" height="59.5"/>
			<text transform="matrix(1 0 0 1 213.4765 422.9434)" class="st17 st12">0%</text>
			<text transform="matrix(1 0 0 1 213.4765 437.1006)" class="st17 st12">0%</text>
			<text transform="matrix(1 0 0 1 213.4765 451.2588)" class="st17 st12">2%</text>
			<text transform="matrix(1 0 0 1 213.4765 465.416)" class="st17 st12">2%</text>
		</g>
	</g>
</g>
<g id="Double_Decker">
	<g>
		<path class="st18" d="M112,754l0.8-126.4c0,0,4.9-34.7,32-34.7h262.6c0,0,24.5-3.3,26,30.4l4.9,87.4c0,0,3.3-0.5,6.5,10.3v33.1
			L112,754L112,754z"/>
		<path class="st19" d="M120.3,638.7h50.1v-33.8C170.4,604.8,118.1,595.5,120.3,638.7z"/>
		<path class="st19" d="M232.6,640.6h-43.2c-5,0-9.1-4.1-9.1-9.1v-18.4c0-5,4.1-9.1,9.1-9.1h43.2c5,0,9.1,4.1,9.1,9.1v18.4
			C241.7,636.5,237.6,640.6,232.6,640.6z"/>
		<path class="st19" d="M302.1,639.6H259c-5,0-9.1-4.1-9.1-9.1v-18.4c0-5,4.1-9.1,9.1-9.1h43.2c5,0,9.1,4.1,9.1,9.1v18.4
			C311.2,635.5,307.1,639.6,302.1,639.6z"/>
		<path class="st19" d="M371.1,639.6H328c-5,0-9.1-4.1-9.1-9.1v-18.4c0-5,4.1-9.1,9.1-9.1h43.2c5,0,9.1,4.1,9.1,9.1v18.4
			C380.2,635.5,376.1,639.6,371.1,639.6z"/>
		<path class="st19" d="M232.9,710.9h-43.2c-5,0-9.1-4.1-9.1-9.1v-18.4c0-5,4.1-9.1,9.1-9.1h43.2c5,0,9.1,4.1,9.1,9.1v18.4
			C242,706.8,237.9,710.9,232.9,710.9z"/>
		<path class="st19" d="M302.5,709.9h-43.2c-5,0-9.1-4.1-9.1-9.1v-18.4c0-5,4.1-9.1,9.1-9.1h43.2c5,0,9.1,4.1,9.1,9.1v18.4
			C311.6,705.8,307.5,709.9,302.5,709.9z"/>
		<path class="st19" d="M371.5,710.9h-43.2c-5,0-9.1-4.1-9.1-9.1v-18.4c0-5,4.1-9.1,9.1-9.1h43.2c5,0,9.1,4.1,9.1,9.1v18.4
			C380.6,706.8,376.5,710.9,371.5,710.9z"/>
		<path class="st19" d="M387.8,666.3v47.6h42.5v-23.8c0,0-0.7-25.1-17.9-23.8L387.8,666.3L387.8,666.3z"/>
		<path class="st19" d="M387.8,607v20.6c0,0-1.1,11.9,8.6,12c9.8,0.2,9.8,0.2,9.8,0.2l22.6-0.2C428.8,639.6,432.6,608.3,387.8,607z"
			/>
		<rect x="189" y="644.4" class="st20" width="191.2" height="24.4"/>
		<circle class="st20" cx="201.3" cy="754.9" r="25.9"/>
		<circle class="st20" cx="412.4" cy="754.9" r="25.9"/>
	</g>
	<rect x="1.8" y="766.3" class="st21" width="463.3" height="24.7"/>
	<g>
		<circle class="st22" cx="201.3" cy="754.9" r="25.2"/>
		<circle class="st23" cx="194.8" cy="736.9" r="0.8"/>
		<circle class="st23" cx="185.9" cy="741.1" r="0.8"/>
		<circle class="st23" cx="203.8" cy="735.9" r="0.8"/>
		<circle class="st23" cx="212.2" cy="739.7" r="0.8"/>
		<circle class="st23" cx="207.3" cy="748.1" r="0.8"/>
		<circle class="st23" cx="193.2" cy="749.3" r="0.8"/>
		<circle class="st23" cx="183.6" cy="750" r="0.8"/>
		<circle class="st23" cx="184.3" cy="760.3" r="0.8"/>
		<circle class="st23" cx="193.9" cy="759.1" r="0.8"/>
		<circle class="st23" cx="189.3" cy="768.4" r="0.8"/>
		<circle class="st23" cx="197.1" cy="772" r="0.8"/>
		<circle class="st23" cx="201.3" cy="765.9" r="0.8"/>
		<circle class="st23" cx="206.4" cy="771.5" r="0.8"/>
		<circle class="st23" cx="214.4" cy="766.5" r="0.8"/>
		<circle class="st23" cx="207.9" cy="758" r="0.8"/>
		<circle class="st23" cx="218.5" cy="759" r="0.8"/>
		<circle class="st23" cx="217.4" cy="747.4" r="0.8"/>
		<path class="st24" d="M195.1,750.9c0,0-3.3-1.1-3.3,2.4c0,0,0.2,2.9,3.3,1.7"/>
		<line class="st24" x1="192.4" y1="756.9" x2="194.9" y2="756.9"/>
		<text transform="matrix(1 0 0 1 183.5586 757.1904)" class="st23 st17 st25">M  VITIES</text>
		<g>
			<g>
				<path class="st23" d="M201.2,741.5c0,0,0.5-2.6,5.6-3.2C206.8,738.3,204.3,742.3,201.2,741.5z"/>
				<path class="st23" d="M196.7,741.3c0,0,0.5-2.6,5.6-3.2C202.3,738.1,199.9,742.2,196.7,741.3z"/>
				<path class="st23" d="M192.4,741.6c0,0,0.3-2.7,5.4-3.6C197.8,738,195.7,742.2,192.4,741.6z"/>
				<path class="st23" d="M201.1,742c0,0,0.2,2.7,5.1,3.9C206.1,745.9,204.3,741.6,201.1,742z"/>
				<path class="st23" d="M196.7,741.9c0,0,0.4,2.7,5.5,3.4C202.1,745.3,199.9,741.2,196.7,741.9z"/>
				<path class="st23" d="M192.6,742.1c0,0,0.5,2.7,5.5,3.3C198.2,745.3,195.8,741.3,192.6,742.1z"/>
			</g>
		</g>
		<path class="st23" d="M204.4,742c0,0,2.7-2.6,8.9,0.8C213.3,742.8,207.3,745.5,204.4,742z"/>
		<path class="st23" d="M191.8,741.9c0,0,0.3,1.9-2.6,3.3C189.1,745.1,189.6,741.9,191.8,741.9z"/>
	</g>
	<g>
		<circle class="st22" cx="412.4" cy="754.6" r="25.2"/>
		<circle class="st23" cx="405.9" cy="736.6" r="0.8"/>
		<circle class="st23" cx="397.1" cy="740.8" r="0.8"/>
		<circle class="st23" cx="414.9" cy="735.6" r="0.8"/>
		<circle class="st23" cx="423.3" cy="739.4" r="0.8"/>
		<circle class="st23" cx="418.4" cy="747.9" r="0.8"/>
		<circle class="st23" cx="404.3" cy="749" r="0.8"/>
		<circle class="st23" cx="394.7" cy="749.7" r="0.8"/>
		<circle class="st23" cx="395.5" cy="760.1" r="0.8"/>
		<circle class="st23" cx="405" cy="758.9" r="0.8"/>
		<circle class="st23" cx="400.4" cy="768.1" r="0.8"/>
		<circle class="st23" cx="408.3" cy="771.8" r="0.8"/>
		<circle class="st23" cx="412.4" cy="765.6" r="0.8"/>
		<circle class="st23" cx="417.6" cy="771.2" r="0.8"/>
		<circle class="st23" cx="425.5" cy="766.2" r="0.8"/>
		<circle class="st23" cx="419" cy="757.7" r="0.8"/>
		<circle class="st23" cx="429.6" cy="758.7" r="0.8"/>
		<circle class="st23" cx="428.5" cy="747.1" r="0.8"/>
		<path class="st24" d="M406.2,750.6c0,0-3.3-1.1-3.3,2.4c0,0,0.2,2.9,3.3,1.7"/>
		<line class="st24" x1="403.6" y1="756.6" x2="406.1" y2="756.6"/>
		<text transform="matrix(1 0 0 1 394.6924 756.9111)" class="st23 st17 st25">M  VITIES</text>
		<g>
			<g>
				<path class="st23" d="M412.3,741.2c0,0,0.5-2.6,5.6-3.2C417.9,738,415.5,742.1,412.3,741.2z"/>
				<path class="st23" d="M407.8,741c0,0,0.5-2.6,5.6-3.2C413.4,737.9,411,741.9,407.8,741z"/>
				<path class="st23" d="M403.6,741.3c0,0,0.3-2.7,5.4-3.6C409,737.8,406.8,741.9,403.6,741.3z"/>
				<path class="st23" d="M412.1,741.7c0,0,0.2,2.7,5.1,3.9C417.3,745.7,415.4,741.3,412.1,741.7z"/>
				<path class="st23" d="M407.8,741.6c0,0,0.4,2.7,5.5,3.4C413.3,745,411,740.9,407.8,741.6z"/>
				<path class="st23" d="M403.7,741.9c0,0,0.5,2.7,5.5,3.3C409.3,745,406.9,741,403.7,741.9z"/>
			</g>
		</g>
		<path class="st23" d="M415.6,741.7c0,0,2.7-2.6,8.9,0.8C424.4,742.5,418.4,745.2,415.6,741.7z"/>
		<path class="st23" d="M402.9,741.6c0,0,0.3,1.9-2.6,3.3C400.2,744.8,400.8,741.7,402.9,741.6z"/>
	</g>
	<rect x="251.3" y="336.1" class="st7" width="196.3" height="133.2"/>
	<text transform="matrix(1 0 0 1 251.3701 342.5176)" class="st17 st26">ingredient</text>
	<text transform="matrix(1 0 0 1 283.9619 342.5176)" class="st17 st27"> </text>
	<text transform="matrix(1 0 0 1 285.8877 342.5176)" class="st17 st26">wheat</text>
	<text transform="matrix(1 0 0 1 305.5957 342.5176)" class="st17 st27"> </text>
	<text transform="matrix(1 0 0 1 307.5215 342.5176)" class="st17 st26">flour</text>
	<text transform="matrix(1 0 0 1 325.5381 342.5176)" class="st17 st27"> (32%), </text>
	<text transform="matrix(1 0 0 1 352.9473 342.5176)" class="st17 st26">caramel</text>
	<text transform="matrix(1 0 0 1 379.084 342.5176)" class="st17 st27"> (24%) [</text>
	<text transform="matrix(1 0 0 1 407.1914 342.5176)" class="st17 st26">glucose</text>
	<text transform="matrix(1 0 0 1 432.751 342.5176)" class="st17 st27"> </text>
	<text transform="matrix(1 0 0 1 251.3701 353.4189)" class="st17 st26">syrup</text>
	<text transform="matrix(1 0 0 1 268.8642 353.4189)" class="st17 st27">, </text>
	<text transform="matrix(1 0 0 1 272.6719 353.4189)" class="st17 st26">sweetended</text>
	<text transform="matrix(1 0 0 1 309.5176 353.4189)" class="st17 st27"> </text>
	<text transform="matrix(1 0 0 1 311.4434 353.4189)" class="st17 st26">condensed</text>
	<text transform="matrix(1 0 0 1 345.7471 353.4189)" class="st17 st27"> </text>
	<text transform="matrix(1 0 0 1 347.6719 353.4189)" class="st17 st26">skim</text>
	<text transform="matrix(1 0 0 1 360.8867 353.4189)" class="st17 st27"> </text>
	<text transform="matrix(1 0 0 1 362.8125 353.4189)" class="st17 st26">milk</text>
	<text transform="matrix(1 0 0 1 375.8946 353.4189)" class="st17 st27"> (</text>
	<text transform="matrix(1 0 0 1 380.3994 353.4189)" class="st17 st26">concentrated</text>
	<text transform="matrix(1 0 0 1 424.6543 353.4189)" class="st17 st27"> </text>
	<text transform="matrix(1 0 0 1 426.5811 353.4189)" class="st17 st26">skim</text>
	<text transform="matrix(1 0 0 1 439.7969 353.4189)" class="st17 st27"> </text>
	<text transform="matrix(1 0 0 1 251.3701 364.3203)" class="st17 st26">milk</text>
	<text transform="matrix(1 0 0 1 264.4512 364.3203)" class="st17 st27"> </text>
	<text transform="matrix(1 0 0 1 266.377 364.3203)" class="st17 st26">abd</text>
	<text transform="matrix(1 0 0 1 277.9512 364.3203)" class="st17 st27"> </text>
	<text transform="matrix(1 0 0 1 279.877 364.3203)" class="st17 st26">sugar</text>
	<text transform="matrix(1 0 0 1 298.5489 364.3203)" class="st17 st27">), </text>
	<text transform="matrix(1 0 0 1 304.9346 364.3203)" class="st17 st26">palm</text>
	<text transform="matrix(1 0 0 1 320.3242 364.3203)" class="st17 st27"> </text>
	<text transform="matrix(1 0 0 1 322.25 364.3203)" class="st17 st26">oil</text>
	<text transform="matrix(1 0 0 1 331.1534 364.3203)" class="st17 st27">, </text>
	<text transform="matrix(1 0 0 1 334.9609 364.3203)" class="st17 st26">glycerine</text>
	<text transform="matrix(1 0 0 1 364.5821 364.3203)" class="st17 st27">, </text>
	<text transform="matrix(1 0 0 1 368.3896 364.3203)" class="st17 st26">salt</text>
	<text transform="matrix(1 0 0 1 381.5781 364.3203)" class="st17 st27">, </text>
	<text transform="matrix(1 0 0 1 385.3857 364.3203)" class="st17 st26">natural</text>
	<text transform="matrix(1 0 0 1 411.0508 364.3203)" class="st17 st27"> </text>
	<text transform="matrix(1 0 0 1 412.9775 364.3203)" class="st17 st26">flavour</text>
	<text transform="matrix(1 0 0 1 438.4326 364.3203)" class="st17 st27">, </text>
	<text transform="matrix(1 0 0 1 251.3701 375.2227)" class="st17 st26">mono</text>
	<text transform="matrix(1 0 0 1 269.4307 375.2236)" class="st17 st27">-</text>
	<text transform="matrix(1 0 0 1 272.2197 375.2227)" class="st17 st26">and</text>
	<text transform="matrix(1 0 0 1 284.5312 375.2236)" class="st17 st27"> </text>
	<text transform="matrix(1 0 0 1 286.458 375.2227)" class="st17 st26">diglycerides</text>
	<text transform="matrix(1 0 0 1 325.0215 375.2236)" class="st17 st27"> (</text>
	<text transform="matrix(1 0 0 1 329.5264 375.2227)" class="st17 st26">emulsifier</text>
	<text transform="matrix(1 0 0 1 360.7071 375.2236)" class="st17 st27">)], </text>
	<text transform="matrix(1 0 0 1 369.6738 375.2227)" class="st17 st26">milk</text>
	<text transform="matrix(1 0 0 1 382.7549 375.2236)" class="st17 st27"> </text>
	<text transform="matrix(1 0 0 1 384.6807 375.2227)" class="st17 st26">chocolate</text>
	<text transform="matrix(1 0 0 1 418.1504 375.2236)" class="st17 st27"> </text>
	<text transform="matrix(1 0 0 1 251.3701 386.125)" class="st17 st26">flavoured</text>
	<text transform="matrix(1 0 0 1 284.1914 386.125)" class="st17 st27"> </text>
	<text transform="matrix(1 0 0 1 286.1162 386.125)" class="st17 st26">coating</text>
	<text transform="matrix(1 0 0 1 311.0518 386.125)" class="st17 st27"> (18%) [</text>
	<text transform="matrix(1 0 0 1 339.1602 386.125)" class="st17 st26">sugar</text>
	<text transform="matrix(1 0 0 1 357.8311 386.125)" class="st17 st27">, </text>
	<text transform="matrix(1 0 0 1 361.6377 386.125)" class="st17 st26">cocoa</text>
	<text transform="matrix(1 0 0 1 381.67 386.125)" class="st17 st27"> </text>
	<text transform="matrix(1 0 0 1 383.5947 386.125)" class="st17 st26">butter</text>
	<text transform="matrix(1 0 0 1 404.0283 386.125)" class="st17 st27">, </text>
	<text transform="matrix(1 0 0 1 407.835 386.125)" class="st17 st26">cocoa</text>
	<text transform="matrix(1 0 0 1 427.8672 386.125)" class="st17 st27"> </text>
	<text transform="matrix(1 0 0 1 429.793 386.125)" class="st17 st26">mass</text>
	<text transform="matrix(1 0 0 1 445.0684 386.125)" class="st17 st27">, </text>
	<text transform="matrix(1 0 0 1 251.3701 397.0273)" class="st17 st26">skim</text>
	<text transform="matrix(1 0 0 1 264.585 397.0273)" class="st17 st27"> </text>
	<text transform="matrix(1 0 0 1 266.5117 397.0273)" class="st17 st26">milk</text>
	<text transform="matrix(1 0 0 1 279.5928 397.0273)" class="st17 st27"> </text>
	<text transform="matrix(1 0 0 1 281.5186 397.0273)" class="st17 st26">powder</text>
	<text transform="matrix(1 0 0 1 305.4492 397.0273)" class="st17 st27">, </text>
	<text transform="matrix(1 0 0 1 309.2549 397.0273)" class="st17 st26">whey</text>
	<text transform="matrix(1 0 0 1 325.3506 397.0273)" class="st17 st27"> </text>
	<text transform="matrix(1 0 0 1 327.2773 397.0273)" class="st17 st26">powder</text>
	<text transform="matrix(1 0 0 1 351.207 397.0273)" class="st17 st27">, </text>
	<text transform="matrix(1 0 0 1 355.0137 397.0273)" class="st17 st26">butter</text>
	<text transform="matrix(1 0 0 1 375.4463 397.0273)" class="st17 st27"> </text>
	<text transform="matrix(1 0 0 1 377.3721 397.0273)" class="st17 st26">oil</text>
	<text transform="matrix(1 0 0 1 386.2754 397.0273)" class="st17 st27">,</text>
	<text transform="matrix(1 0 0 1 388.1562 397.0273)" class="st17 st26">vegetable</text>
	<text transform="matrix(1 0 0 1 418.6992 397.0273)" class="st17 st27"> </text>
	<text transform="matrix(1 0 0 1 420.627 397.0273)" class="st17 st26">oil</text>
	<text transform="matrix(1 0 0 1 429.5293 397.0273)" class="st17 st27"> </text>
	<text transform="matrix(1 0 0 1 251.3701 407.9287)" class="st17 st27">(</text>
	<text transform="matrix(1 0 0 1 253.9502 407.9287)" class="st17 st26">shea</text>
	<text transform="matrix(1 0 0 1 268.252 407.9287)" class="st17 st27">, </text>
	<text transform="matrix(1 0 0 1 272.0576 407.9287)" class="st17 st26">illipe</text>
	<text transform="matrix(1 0 0 1 287.6143 407.9287)" class="st17 st27">, </text>
	<text transform="matrix(1 0 0 1 291.4209 407.9287)" class="st17 st26">sal</text>
	<text transform="matrix(1 0 0 1 301.4492 407.9287)" class="st17 st27">, </text>
	<text transform="matrix(1 0 0 1 305.2559 407.9287)" class="st17 st26">mango</text>
	<text transform="matrix(1 0 0 1 326.9346 407.9287)" class="st17 st27"> </text>
	<text transform="matrix(1 0 0 1 328.8613 407.9287)" class="st17 st26">kernal</text>
	<text transform="matrix(1 0 0 1 349.9366 407.9287)" class="st17 st27"> </text>
	<text transform="matrix(1 0 0 1 351.8613 407.9287)" class="st17 st26">and</text>
	<text transform="matrix(1 0 0 1 364.1729 407.9287)" class="st17 st27"> </text>
	<text transform="matrix(1 0 0 1 366.0986 407.9287)" class="st17 st26">kokum</text>
	<text transform="matrix(1 0 0 1 386.6016 407.9287)" class="st17 st27">) </text>
	<text transform="matrix(1 0 0 1 391.1074 407.9287)" class="st17 st26">and</text>
	<text transform="matrix(1 0 0 1 403.419 407.9287)" class="st17 st27"> </text>
	<text transform="matrix(1 0 0 1 405.3457 407.9287)" class="st17 st26">palm</text>
	<text transform="matrix(1 0 0 1 420.7354 407.9287)" class="st17 st27"> </text>
	<text transform="matrix(1 0 0 1 422.6602 407.9287)" class="st17 st26">oil</text>
	<text transform="matrix(1 0 0 1 431.5645 407.9287)" class="st17 st27">, </text>
	<text transform="matrix(1 0 0 1 251.3701 418.8301)" class="st17 st26">soya</text>
	<text transform="matrix(1 0 0 1 266.2197 418.8311)" class="st17 st27"> </text>
	<text transform="matrix(1 0 0 1 268.1445 418.8301)" class="st17 st26">lecithin</text>
	<text transform="matrix(1 0 0 1 292.4961 418.8311)" class="st17 st27"> </text>
	<text transform="matrix(1 0 0 1 294.4219 418.8301)" class="st17 st26">and</text>
	<text transform="matrix(1 0 0 1 306.7334 418.8311)" class="st17 st27"> </text>
	<text transform="matrix(1 0 0 1 308.6602 418.8301)" class="st17 st26">polyglycerol</text>
	<text transform="matrix(1 0 0 1 351.0391 418.8311)" class="st17 st27"> </text>
	<text transform="matrix(1 0 0 1 352.9658 418.8301)" class="st17 st26">polyricinoleate</text>
	<text transform="matrix(1 0 0 1 402.2012 418.8311)" class="st17 st27"> (</text>
	<text transform="matrix(1 0 0 1 406.7061 418.8301)" class="st17 st26">emulsifiers</text>
	<text transform="matrix(1 0 0 1 441.0215 418.8311)" class="st17 st27">), </text>
	<text transform="matrix(1 0 0 1 251.3701 429.7334)" class="st17 st26">natural</text>
	<text transform="matrix(1 0 0 1 277.0361 429.7334)" class="st17 st27"> </text>
	<text transform="matrix(1 0 0 1 278.9619 429.7334)" class="st17 st26">vanilla</text>
	<text transform="matrix(1 0 0 1 302.003 429.7334)" class="st17 st27"> </text>
	<text transform="matrix(1 0 0 1 303.9277 429.7334)" class="st17 st26">flavour</text>
	<text transform="matrix(1 0 0 1 329.3838 429.7334)" class="st17 st27">], </text>
	<text transform="matrix(1 0 0 1 335.7705 429.7334)" class="st17 st26">palm</text>
	<text transform="matrix(1 0 0 1 351.1612 429.7334)" class="st17 st27"> </text>
	<text transform="matrix(1 0 0 1 353.0859 429.7334)" class="st17 st26">oil</text>
	<text transform="matrix(1 0 0 1 361.9903 429.7334)" class="st17 st27">, </text>
	<text transform="matrix(1 0 0 1 365.7969 429.7334)" class="st17 st26">sugar</text>
	<text transform="matrix(1 0 0 1 384.4678 429.7334)" class="st17 st27">, </text>
	<text transform="matrix(1 0 0 1 388.2734 429.7334)" class="st17 st26">whole</text>
	<text transform="matrix(1 0 0 1 408.3125 429.7334)" class="st17 st27"> </text>
	<text transform="matrix(1 0 0 1 410.2383 429.7334)" class="st17 st26">wheat</text>
	<text transform="matrix(1 0 0 1 429.9463 429.7334)" class="st17 st27"> </text>
	<text transform="matrix(1 0 0 1 251.3701 440.6348)" class="st17 st26">flour</text>
	<text transform="matrix(1 0 0 1 269.3857 440.6348)" class="st17 st27"> (7%) </text>
	<text transform="matrix(1 0 0 1 290.2529 440.6348)" class="st17 st26">glucose</text>
	<text transform="matrix(1 0 0 1 315.8125 440.6348)" class="st17 st27">-</text>
	<text transform="matrix(1 0 0 1 318.6006 440.6348)" class="st17 st26">fructose</text>
	<text transform="matrix(1 0 0 1 346.7285 440.6348)" class="st17 st27">, </text>
	<text transform="matrix(1 0 0 1 350.5342 440.6348)" class="st17 st26">sodium</text>
	<text transform="matrix(1 0 0 1 373.0352 440.6348)" class="st17 st27"> </text>
	<text transform="matrix(1 0 0 1 374.96 440.6348)" class="st17 st26">bicarbonate</text>
	<text transform="matrix(1 0 0 1 413.1241 440.6348)" class="st17 st27"> </text>
	<text transform="matrix(1 0 0 1 415.0488 440.6348)" class="st17 st26">and</text>
	<text transform="matrix(1 0 0 1 427.3614 440.6348)" class="st17 st27"> </text>
	<text transform="matrix(1 0 0 1 251.3701 451.5361)" class="st17 st26">tartaric</text>
	<text transform="matrix(1 0 0 1 277.5264 451.5361)" class="st17 st27"> </text>
	<text transform="matrix(1 0 0 1 279.4531 451.5361)" class="st17 st26">acid</text>
	<text transform="matrix(1 0 0 1 292.7881 451.5361)" class="st17 st27"> </text>
	<text transform="matrix(1 0 0 1 294.7139 451.5361)" class="st17 st26">and</text>
	<text transform="matrix(1 0 0 1 307.0254 451.5361)" class="st17 st27"> </text>
	<text transform="matrix(1 0 0 1 308.9512 451.5361)" class="st17 st26">malic</text>
	<text transform="matrix(1 0 0 1 326.167 451.5361)" class="st17 st27"> </text>
	<text transform="matrix(1 0 0 1 328.0928 451.5361)" class="st17 st26">acid</text>
	<text transform="matrix(1 0 0 1 341.4287 451.5361)" class="st17 st27"> </text>
	<text transform="matrix(1 0 0 1 343.3545 451.5361)" class="st17 st26">and</text>
	<text transform="matrix(1 0 0 1 355.665 451.5361)" class="st17 st27"> </text>
	<text transform="matrix(1 0 0 1 357.5918 451.5361)" class="st17 st26">ammonium</text>
	<text transform="matrix(1 0 0 1 391.0235 451.5361)" class="st17 st27"> </text>
	<text transform="matrix(1 0 0 1 392.9482 451.5361)" class="st17 st26">bicarbonate</text>
	<text transform="matrix(1 0 0 1 431.1113 451.5361)" class="st17 st27"> </text>
	<text transform="matrix(1 0 0 1 251.3701 462.4385)" class="st17 st27">(</text>
	<text transform="matrix(1 0 0 1 253.9502 462.4385)" class="st17 st26">raising</text>
	<text transform="matrix(1 0 0 1 275.7315 462.4385)" class="st17 st27"> </text>
	<text transform="matrix(1 0 0 1 277.6572 462.4385)" class="st17 st26">agents</text>
	<text transform="matrix(1 0 0 1 299.2666 462.4385)" class="st17 st27">), </text>
	<text transform="matrix(1 0 0 1 305.6533 462.4385)" class="st17 st26">salt</text>
	<text transform="matrix(1 0 0 1 318.8418 462.4385)" class="st17 st27"> </text>
	<text transform="matrix(1 0 0 1 320.7686 462.4385)" class="st17 st26">contains</text>
	<text transform="matrix(1 0 0 1 348.9151 462.4385)" class="st17 st27">: </text>
	<text transform="matrix(1 0 0 1 352.7217 462.4385)" class="st17 st26">wheat</text>
	<text transform="matrix(1 0 0 1 372.4287 462.4385)" class="st17 st27">, </text>
	<text transform="matrix(1 0 0 1 376.2363 462.4385)" class="st17 st26">milk</text>
	<text transform="matrix(1 0 0 1 389.3164 462.4385)" class="st17 st27"> </text>
	<text transform="matrix(1 0 0 1 391.2432 462.4385)" class="st17 st26">and</text>
	<text transform="matrix(1 0 0 1 403.5557 462.4385)" class="st17 st27"> </text>
	<text transform="matrix(1 0 0 1 405.4805 462.4385)" class="st17 st26">soya</text>
	<rect x="20.6" y="479.3" class="st7" width="427.1" height="77.8"/>
	<text transform="matrix(1 0 0 1 20.6152 485.7842)" class="st17 st26">ingrédients</text>
	<text transform="matrix(1 0 0 1 56.3418 485.7842)" class="st17 st27"> </text>
	<text transform="matrix(1 0 0 1 58.2676 485.7842)" class="st17 st26">de</text>
	<text transform="matrix(1 0 0 1 65.6319 485.7842)" class="st17 st27"> </text>
	<text transform="matrix(1 0 0 1 67.5576 485.7842)" class="st17 st26">blé</text>
	<text transform="matrix(1 0 0 1 77.1357 485.7842)" class="st17 st27"> </text>
	<text transform="matrix(1 0 0 1 79.0605 485.7842)" class="st17 st26">ingrédient</text>
	<text transform="matrix(1 0 0 1 111.6533 485.7842)" class="st17 st27"> (32% ) , </text>
	<text transform="matrix(1 0 0 1 142.914 485.7842)" class="st17 st26">caramel</text>
	<text transform="matrix(1 0 0 1 169.0508 485.7842)" class="st17 st27"> ( 24 % ) [</text>
	<text transform="matrix(1 0 0 1 202.9365 485.7842)" class="st17 st26">sirop</text>
	<text transform="matrix(1 0 0 1 218.7783 485.7842)" class="st17 st27"> </text>
	<text transform="matrix(1 0 0 1 220.7051 485.7842)" class="st17 st26">de</text>
	<text transform="matrix(1 0 0 1 228.0683 485.7842)" class="st17 st27"> </text>
	<text transform="matrix(1 0 0 1 229.9951 485.7842)" class="st17 st26">glucose</text>
	<text transform="matrix(1 0 0 1 255.5537 485.7842)" class="st17 st27"> , </text>
	<text transform="matrix(1 0 0 1 261.2861 485.7842)" class="st17 st26">lait</text>
	<text transform="matrix(1 0 0 1 272.8593 485.7842)" class="st17 st27"> </text>
	<text transform="matrix(1 0 0 1 274.7861 485.7842)" class="st17 st26">écrémé</text>
	<text transform="matrix(1 0 0 1 296.3965 485.7842)" class="st17 st27"> </text>
	<text transform="matrix(1 0 0 1 298.3223 485.7842)" class="st17 st26">condencé</text>
	<text transform="matrix(1 0 0 1 328.9434 485.7842)" class="st17 st27"> </text>
	<text transform="matrix(1 0 0 1 330.8682 485.7842)" class="st17 st26">sucré</text>
	<text transform="matrix(1 0 0 1 348.3574 485.7842)" class="st17 st27"> (</text>
	<text transform="matrix(1 0 0 1 352.8643 485.7842)" class="st17 st26">lait</text>
	<text transform="matrix(1 0 0 1 364.4385 485.7842)" class="st17 st27"> </text>
	<text transform="matrix(1 0 0 1 366.3633 485.7842)" class="st17 st26">écrémé</text>
	<text transform="matrix(1 0 0 1 387.9746 485.7842)" class="st17 st27"> </text>
	<text transform="matrix(1 0 0 1 389.9004 485.7842)" class="st17 st26">concentré</text>
	<text transform="matrix(1 0 0 1 422.8672 485.7842)" class="st17 st27"> </text>
	<text transform="matrix(1 0 0 1 424.7939 485.7842)" class="st17 st26">et</text>
	<text transform="matrix(1 0 0 1 431.084 485.7842)" class="st17 st27"> </text>
	<text transform="matrix(1 0 0 1 20.6152 496.6855)" class="st17 st26">sucre</text>
	<text transform="matrix(1 0 0 1 38.1035 496.6846)" class="st17 st27"> ) , </text>
	<text transform="matrix(1 0 0 1 48.3418 496.6855)" class="st17 st26">huile</text>
	<text transform="matrix(1 0 0 1 64.2529 496.6846)" class="st17 st27"> </text>
	<text transform="matrix(1 0 0 1 66.1787 496.6855)" class="st17 st26">de</text>
	<text transform="matrix(1 0 0 1 73.543 496.6846)" class="st17 st27"> </text>
	<text transform="matrix(1 0 0 1 75.4687 496.6855)" class="st17 st26">palme</text>
	<text transform="matrix(1 0 0 1 93.9873 496.6846)" class="st17 st27"> , </text>
	<text transform="matrix(1 0 0 1 99.7187 496.6855)" class="st17 st26">glycérine</text>
	<text transform="matrix(1 0 0 1 129.3418 496.6846)" class="st17 st27"> , </text>
	<text transform="matrix(1 0 0 1 135.0742 496.6855)" class="st17 st26">sel</text>
	<text transform="matrix(1 0 0 1 144.3398 496.6846)" class="st17 st27"> , </text>
	<text transform="matrix(1 0 0 1 150.0723 496.6855)" class="st17 st26">arôme</text>
	<text transform="matrix(1 0 0 1 170.0088 496.6846)" class="st17 st27"> </text>
	<text transform="matrix(1 0 0 1 171.9346 496.6855)" class="st17 st26">naturel</text>
	<text transform="matrix(1 0 0 1 196.8379 496.6846)" class="st17 st27"> , </text>
	<text transform="matrix(1 0 0 1 202.5703 496.6855)" class="st17 st26">mono</text>
	<text transform="matrix(1 0 0 1 220.6318 496.6846)" class="st17 st27"> </text>
	<text transform="matrix(1 0 0 1 222.5576 496.6855)" class="st17 st26">et</text>
	<text transform="matrix(1 0 0 1 228.8476 496.6846)" class="st17 st27"> </text>
	<text transform="matrix(1 0 0 1 230.7724 496.6855)" class="st17 st26">diglycérides</text>
	<text transform="matrix(1 0 0 1 269.3389 496.6846)" class="st17 st27"> ( </text>
	<text transform="matrix(1 0 0 1 275.7695 496.6855)" class="st17 st26">émulsifiant</text>
	<text transform="matrix(1 0 0 1 311.6377 496.6846)" class="st17 st27"> ) ] , </text>
	<text transform="matrix(1 0 0 1 326.3828 496.6855)" class="st17 st26">le</text>
	<text transform="matrix(1 0 0 1 332.5127 496.6846)" class="st17 st27"> </text>
	<text transform="matrix(1 0 0 1 334.4385 496.6855)" class="st17 st26">chocolat</text>
	<text transform="matrix(1 0 0 1 364.7803 496.6846)" class="st17 st27"> </text>
	<text transform="matrix(1 0 0 1 366.7051 496.6855)" class="st17 st26">au</text>
	<text transform="matrix(1 0 0 1 374.7119 496.6846)" class="st17 st27"> </text>
	<text transform="matrix(1 0 0 1 376.6367 496.6855)" class="st17 st26">lait</text>
	<text transform="matrix(1 0 0 1 388.2119 496.6846)" class="st17 st27"> </text>
	<text transform="matrix(1 0 0 1 390.1377 496.6855)" class="st17 st26">revêtement</text>
	<text transform="matrix(1 0 0 1 425.2422 496.6846)" class="st17 st27"> </text>
	<text transform="matrix(1 0 0 1 20.6152 507.5879)" class="st17 st26">aromatisé</text>
	<text transform="matrix(1 0 0 1 52.2598 507.5879)" class="st17 st27"> (18% ) [ </text>
	<text transform="matrix(1 0 0 1 84.2197 507.5879)" class="st17 st26">sucre</text>
	<text transform="matrix(1 0 0 1 101.708 507.5879)" class="st17 st27"> , </text>
	<text transform="matrix(1 0 0 1 107.4404 507.5879)" class="st17 st26">beurre</text>
	<text transform="matrix(1 0 0 1 128.1016 507.5879)" class="st17 st27"> </text>
	<text transform="matrix(1 0 0 1 130.0283 507.5879)" class="st17 st26">de</text>
	<text transform="matrix(1 0 0 1 137.3916 507.5879)" class="st17 st27"> </text>
	<text transform="matrix(1 0 0 1 139.3174 507.5879)" class="st17 st26">cacao</text>
	<text transform="matrix(1 0 0 1 158.8613 507.5879)" class="st17 st27"> , </text>
	<text transform="matrix(1 0 0 1 164.5928 507.5879)" class="st17 st26">pâte</text>
	<text transform="matrix(1 0 0 1 178.1572 507.5879)" class="st17 st27"> </text>
	<text transform="matrix(1 0 0 1 180.083 507.5879)" class="st17 st26">de</text>
	<text transform="matrix(1 0 0 1 187.4473 507.5879)" class="st17 st27"> </text>
	<text transform="matrix(1 0 0 1 189.373 507.5879)" class="st17 st26">cacao</text>
	<text transform="matrix(1 0 0 1 208.915 507.5879)" class="st17 st27"> , </text>
	<text transform="matrix(1 0 0 1 214.6484 507.5879)" class="st17 st26">lait</text>
	<text transform="matrix(1 0 0 1 226.2226 507.5879)" class="st17 st27"> </text>
	<text transform="matrix(1 0 0 1 228.1484 507.5879)" class="st17 st26">écrémé</text>
	<text transform="matrix(1 0 0 1 249.7588 507.5879)" class="st17 st27"> </text>
	<text transform="matrix(1 0 0 1 251.6836 507.5879)" class="st17 st26">en</text>
	<text transform="matrix(1 0 0 1 258.998 507.5879)" class="st17 st27"> </text>
	<text transform="matrix(1 0 0 1 260.9229 507.5879)" class="st17 st26">poudre</text>
	<text transform="matrix(1 0 0 1 283.5879 507.5879)" class="st17 st27"> , </text>
	<text transform="matrix(1 0 0 1 289.3203 507.5879)" class="st17 st26">lactosérum</text>
	<text transform="matrix(1 0 0 1 326.3574 507.5879)" class="st17 st27"> </text>
	<text transform="matrix(1 0 0 1 328.2842 507.5879)" class="st17 st26">en</text>
	<text transform="matrix(1 0 0 1 335.5976 507.5879)" class="st17 st27"> </text>
	<text transform="matrix(1 0 0 1 337.5234 507.5879)" class="st17 st26">poudre</text>
	<text transform="matrix(1 0 0 1 360.1885 507.5879)" class="st17 st27">, </text>
	<text transform="matrix(1 0 0 1 363.9941 507.5879)" class="st17 st26">huile</text>
	<text transform="matrix(1 0 0 1 379.9062 507.5879)" class="st17 st27"> </text>
	<text transform="matrix(1 0 0 1 381.832 507.5879)" class="st17 st26">de</text>
	<text transform="matrix(1 0 0 1 389.1963 507.5879)" class="st17 st27"> </text>
	<text transform="matrix(1 0 0 1 391.123 507.5879)" class="st17 st26">beurre</text>
	<text transform="matrix(1 0 0 1 411.7842 507.5879)" class="st17 st27">, </text>
	<text transform="matrix(1 0 0 1 415.5908 507.5879)" class="st17 st26">de</text>
	<text transform="matrix(1 0 0 1 422.955 507.5879)" class="st17 st27"> </text>
	<text transform="matrix(1 0 0 1 424.8809 507.5879)" class="st17 st26">l</text>
	<text transform="matrix(1 0 0 1 427.8828 507.5879)" class="st17 st27">&apos;</text>
	<text transform="matrix(1 0 0 1 429.5908 507.5879)" class="st17 st26">huile</text>
	<text transform="matrix(1 0 0 1 445.502 507.5879)" class="st17 st27"> </text>
	<text transform="matrix(1 0 0 1 20.6152 518.4902)" class="st17 st26">végétale</text>
	<text transform="matrix(1 0 0 1 47.7129 518.4902)" class="st17 st27"> ( </text>
	<text transform="matrix(1 0 0 1 54.1445 518.4902)" class="st17 st26">karité</text>
	<text transform="matrix(1 0 0 1 72.7139 518.4902)" class="st17 st27"> , </text>
	<text transform="matrix(1 0 0 1 78.4463 518.4902)" class="st17 st26">illipe</text>
	<text transform="matrix(1 0 0 1 94.002 518.4902)" class="st17 st27"> , </text>
	<text transform="matrix(1 0 0 1 99.7344 518.4902)" class="st17 st26">sal</text>
	<text transform="matrix(1 0 0 1 109.7627 518.4902)" class="st17 st27"> , </text>
	<text transform="matrix(1 0 0 1 115.4951 518.4902)" class="st17 st26">mangue</text>
	<text transform="matrix(1 0 0 1 140.0361 518.4902)" class="st17 st27"> </text>
	<text transform="matrix(1 0 0 1 141.9629 518.4902)" class="st17 st26">kernal</text>
	<text transform="matrix(1 0 0 1 163.0381 518.4902)" class="st17 st27"> </text>
	<text transform="matrix(1 0 0 1 164.9629 518.4902)" class="st17 st26">et</text>
	<text transform="matrix(1 0 0 1 171.2529 518.4902)" class="st17 st27"> </text>
	<text transform="matrix(1 0 0 1 173.1777 518.4902)" class="st17 st26">kokum</text>
	<text transform="matrix(1 0 0 1 193.6806 518.4902)" class="st17 st27"> ) </text>
	<text transform="matrix(1 0 0 1 200.1123 518.4902)" class="st17 st26">et</text>
	<text transform="matrix(1 0 0 1 206.4023 518.4902)" class="st17 st27"> </text>
	<text transform="matrix(1 0 0 1 208.3291 518.4902)" class="st17 st26">huile</text>
	<text transform="matrix(1 0 0 1 224.2402 518.4902)" class="st17 st27"> </text>
	<text transform="matrix(1 0 0 1 226.165 518.4902)" class="st17 st26">de</text>
	<text transform="matrix(1 0 0 1 233.5293 518.4902)" class="st17 st27"> </text>
	<text transform="matrix(1 0 0 1 235.4551 518.4902)" class="st17 st26">palme</text>
	<text transform="matrix(1 0 0 1 253.9736 518.4902)" class="st17 st27"> , </text>
	<text transform="matrix(1 0 0 1 259.7061 518.4902)" class="st17 st26">lécithine</text>
	<text transform="matrix(1 0 0 1 287.1856 518.4902)" class="st17 st27"> </text>
	<text transform="matrix(1 0 0 1 289.1123 518.4902)" class="st17 st26">de</text>
	<text transform="matrix(1 0 0 1 296.4766 518.4902)" class="st17 st27"> </text>
	<text transform="matrix(1 0 0 1 298.4023 518.4902)" class="st17 st26">soja</text>
	<text transform="matrix(1 0 0 1 312.1641 518.4902)" class="st17 st27"> </text>
	<text transform="matrix(1 0 0 1 314.0908 518.4902)" class="st17 st26">et</text>
	<text transform="matrix(1 0 0 1 320.3799 518.4902)" class="st17 st27"> </text>
	<text transform="matrix(1 0 0 1 322.3057 518.4902)" class="st17 st26">polyricinoléate</text>
	<text transform="matrix(1 0 0 1 371.541 518.4902)" class="st17 st27"> </text>
	<text transform="matrix(1 0 0 1 373.4658 518.4902)" class="st17 st26">de</text>
	<text transform="matrix(1 0 0 1 380.8321 518.4902)" class="st17 st27"> </text>
	<text transform="matrix(1 0 0 1 382.7568 518.4902)" class="st17 st26">polyglycérol</text>
	<text transform="matrix(1 0 0 1 425.1348 518.4902)" class="st17 st27"> </text>
	<text transform="matrix(1 0 0 1 20.6152 529.3906)" class="st17 st27">(</text>
	<text transform="matrix(1 0 0 1 23.1943 529.3906)" class="st17 st26">émulsifiants</text>
	<text transform="matrix(1 0 0 1 62.1982 529.3906)" class="st17 st27"> ) , </text>
	<text transform="matrix(1 0 0 1 72.4365 529.3906)" class="st17 st26">arôme</text>
	<text transform="matrix(1 0 0 1 92.3721 529.3906)" class="st17 st27"> </text>
	<text transform="matrix(1 0 0 1 94.2978 529.3906)" class="st17 st26">naturel</text>
	<text transform="matrix(1 0 0 1 119.2022 529.3906)" class="st17 st27"> </text>
	<text transform="matrix(1 0 0 1 121.1279 529.3906)" class="st17 st26">de</text>
	<text transform="matrix(1 0 0 1 128.4922 529.3906)" class="st17 st27"> </text>
	<text transform="matrix(1 0 0 1 130.417 529.3906)" class="st17 st26">vanille</text>
	<text transform="matrix(1 0 0 1 152.6943 529.3906)" class="st17 st27"> ] , </text>
	<text transform="matrix(1 0 0 1 162.9326 529.3906)" class="st17 st26">l</text>
	<text transform="matrix(1 0 0 1 165.9355 529.3906)" class="st17 st27">&apos;</text>
	<text transform="matrix(1 0 0 1 167.6435 529.3906)" class="st17 st26">huile</text>
	<text transform="matrix(1 0 0 1 183.5537 529.3906)" class="st17 st27"> </text>
	<text transform="matrix(1 0 0 1 185.4795 529.3906)" class="st17 st26">de</text>
	<text transform="matrix(1 0 0 1 192.8438 529.3906)" class="st17 st27"> </text>
	<text transform="matrix(1 0 0 1 194.7695 529.3906)" class="st17 st26">palme</text>
	<text transform="matrix(1 0 0 1 213.2881 529.3906)" class="st17 st27"> , </text>
	<text transform="matrix(1 0 0 1 219.0205 529.3906)" class="st17 st26">le</text>
	<text transform="matrix(1 0 0 1 225.1514 529.3906)" class="st17 st27"> </text>
	<text transform="matrix(1 0 0 1 227.0771 529.3906)" class="st17 st26">sucre</text>
	<text transform="matrix(1 0 0 1 244.5664 529.3906)" class="st17 st27"> , </text>
	<text transform="matrix(1 0 0 1 250.2978 529.3906)" class="st17 st26">la</text>
	<text transform="matrix(1 0 0 1 257.1924 529.3906)" class="st17 st27"> </text>
	<text transform="matrix(1 0 0 1 259.1172 529.3906)" class="st17 st26">farine</text>
	<text transform="matrix(1 0 0 1 278.3623 529.3906)" class="st17 st27"> </text>
	<text transform="matrix(1 0 0 1 280.2881 529.3906)" class="st17 st26">de</text>
	<text transform="matrix(1 0 0 1 287.6523 529.3906)" class="st17 st27"> </text>
	<text transform="matrix(1 0 0 1 289.5791 529.3906)" class="st17 st26">blé</text>
	<text transform="matrix(1 0 0 1 299.1563 529.3906)" class="st17 st27"> </text>
	<text transform="matrix(1 0 0 1 301.0811 529.3906)" class="st17 st26">entier</text>
	<text transform="matrix(1 0 0 1 319.626 529.3906)" class="st17 st27"> (7% ), </text>
	<text transform="matrix(1 0 0 1 344.3008 529.3906)" class="st17 st26">de</text>
	<text transform="matrix(1 0 0 1 351.666 529.3906)" class="st17 st27"> </text>
	<text transform="matrix(1 0 0 1 353.5908 529.3906)" class="st17 st26">glucose</text>
	<text transform="matrix(1 0 0 1 379.1504 529.3906)" class="st17 st27">-</text>
	<text transform="matrix(1 0 0 1 381.9395 529.3906)" class="st17 st26">fructose</text>
	<text transform="matrix(1 0 0 1 410.0664 529.3906)" class="st17 st27"> , </text>
	<text transform="matrix(1 0 0 1 415.7988 529.3906)" class="st17 st26">le</text>
	<text transform="matrix(1 0 0 1 421.9297 529.3906)" class="st17 st27"> </text>
	<text transform="matrix(1 0 0 1 20.6152 540.2939)" class="st17 st26">bicarbonate</text>
	<text transform="matrix(1 0 0 1 58.7773 540.2939)" class="st17 st27"> </text>
	<text transform="matrix(1 0 0 1 60.7041 540.2939)" class="st17 st26">de</text>
	<text transform="matrix(1 0 0 1 68.0684 540.2939)" class="st17 st27"> </text>
	<text transform="matrix(1 0 0 1 69.9941 540.2939)" class="st17 st26">sodium</text>
	<text transform="matrix(1 0 0 1 92.4932 540.2939)" class="st17 st27"> </text>
	<text transform="matrix(1 0 0 1 94.4189 540.2939)" class="st17 st26">et</text>
	<text transform="matrix(1 0 0 1 100.709 540.2939)" class="st17 st27"> </text>
	<text transform="matrix(1 0 0 1 102.6348 540.2939)" class="st17 st26">de</text>
	<text transform="matrix(1 0 0 1 109.9981 540.2939)" class="st17 st27"> </text>
	<text transform="matrix(1 0 0 1 111.9248 540.2939)" class="st17 st26">l</text>
	<text transform="matrix(1 0 0 1 114.9268 540.2939)" class="st17 st27">&apos;</text>
	<text transform="matrix(1 0 0 1 116.6338 540.2939)" class="st17 st26">acide</text>
	<text transform="matrix(1 0 0 1 133.0996 540.2939)" class="st17 st27"> </text>
	<text transform="matrix(1 0 0 1 135.0244 540.2939)" class="st17 st26">tartrique</text>
	<text transform="matrix(1 0 0 1 165.2256 540.2939)" class="st17 st27"> </text>
	<text transform="matrix(1 0 0 1 167.1514 540.2939)" class="st17 st26">et</text>
	<text transform="matrix(1 0 0 1 173.4414 540.2939)" class="st17 st27"> </text>
	<text transform="matrix(1 0 0 1 175.3662 540.2939)" class="st17 st26">l</text>
	<text transform="matrix(1 0 0 1 178.3692 540.2939)" class="st17 st27">&apos;</text>
	<text transform="matrix(1 0 0 1 180.0771 540.2939)" class="st17 st26">acide</text>
	<text transform="matrix(1 0 0 1 196.541 540.2939)" class="st17 st27"> </text>
	<text transform="matrix(1 0 0 1 198.4678 540.2939)" class="st17 st26">et</text>
	<text transform="matrix(1 0 0 1 204.7558 540.2939)" class="st17 st27"> </text>
	<text transform="matrix(1 0 0 1 206.6826 540.2939)" class="st17 st26">le</text>
	<text transform="matrix(1 0 0 1 212.8135 540.2939)" class="st17 st27"> </text>
	<text transform="matrix(1 0 0 1 214.7392 540.2939)" class="st17 st26">bicarbonate</text>
	<text transform="matrix(1 0 0 1 252.9014 540.2939)" class="st17 st27"> </text>
	<text transform="matrix(1 0 0 1 254.8271 540.2939)" class="st17 st26">d</text>
	<text transform="matrix(1 0 0 1 259.0625 540.2939)" class="st17 st27">&apos;</text>
	<text transform="matrix(1 0 0 1 260.7705 540.2939)" class="st17 st26">ammonium</text>
	<text transform="matrix(1 0 0 1 294.2041 540.2939)" class="st17 st27"> </text>
	<text transform="matrix(1 0 0 1 296.1289 540.2939)" class="st17 st26">malique</text>
	<text transform="matrix(1 0 0 1 321.2813 540.2939)" class="st17 st27"> ( </text>
	<text transform="matrix(1 0 0 1 327.7129 540.2939)" class="st17 st26">agents</text>
	<text transform="matrix(1 0 0 1 349.3223 540.2939)" class="st17 st27"> </text>
	<text transform="matrix(1 0 0 1 351.249 540.2939)" class="st17 st26">levants</text>
	<text transform="matrix(1 0 0 1 375.3008 540.2939)" class="st17 st27"> ) , </text>
	<text transform="matrix(1 0 0 1 385.5391 540.2939)" class="st17 st26">le</text>
	<text transform="matrix(1 0 0 1 391.6699 540.2939)" class="st17 st27"> </text>
	<text transform="matrix(1 0 0 1 393.5947 540.2939)" class="st17 st26">sel</text>
	<text transform="matrix(1 0 0 1 402.8623 540.2939)" class="st17 st27"> </text>
	<text transform="matrix(1 0 0 1 404.7871 540.2939)" class="st17 st26">contient</text>
	<text transform="matrix(1 0 0 1 432.1973 540.2939)" class="st17 st27"> : </text>
	<text transform="matrix(1 0 0 1 437.9287 540.2939)" class="st17 st26">le</text>
	<text transform="matrix(1 0 0 1 444.0596 540.2939)" class="st17 st27"> </text>
	<text transform="matrix(1 0 0 1 20.6152 551.1943)" class="st17 st26">blé</text>
	<text transform="matrix(1 0 0 1 30.1924 551.1953)" class="st17 st27">, </text>
	<text transform="matrix(1 0 0 1 33.999 551.1943)" class="st17 st26">le</text>
	<text transform="matrix(1 0 0 1 40.1299 551.1953)" class="st17 st27"> </text>
	<text transform="matrix(1 0 0 1 42.0547 551.1943)" class="st17 st26">lait</text>
	<text transform="matrix(1 0 0 1 53.6299 551.1953)" class="st17 st27"> </text>
	<text transform="matrix(1 0 0 1 55.5557 551.1943)" class="st17 st26">et</text>
	<text transform="matrix(1 0 0 1 61.8447 551.1953)" class="st17 st27"> </text>
	<text transform="matrix(1 0 0 1 63.7705 551.1943)" class="st17 st26">le</text>
	<text transform="matrix(1 0 0 1 69.9014 551.1953)" class="st17 st27"> </text>
	<text transform="matrix(1 0 0 1 71.8271 551.1943)" class="st17 st26">soja</text>
	<rect x="20.6" y="564.1" class="st7" width="427.1" height="20.1"/>
	<text transform="matrix(1 0 0 1 20.6152 570.5742)" class="st2 st26">store</text>
	<text transform="matrix(1 0 0 1 39.2607 570.5742)" class="st2 st27"> </text>
	<text transform="matrix(1 0 0 1 41.0957 570.5742)" class="st2 st26">in</text>
	<text transform="matrix(1 0 0 1 47.2959 570.5742)" class="st2 st27"> </text>
	<text transform="matrix(1 0 0 1 49.1309 570.5742)" class="st2 st26">a</text>
	<text transform="matrix(1 0 0 1 53.3027 570.5742)" class="st2 st27"> </text>
	<text transform="matrix(1 0 0 1 55.1377 570.5742)" class="st2 st26">cool</text>
	<text transform="matrix(1 0 0 1 71.291 570.5742)" class="st2 st27"> </text>
	<text transform="matrix(1 0 0 1 73.1269 570.5742)" class="st2 st26">dry</text>
	<text transform="matrix(1 0 0 1 85.1582 570.5742)" class="st2 st27"> </text>
	<text transform="matrix(1 0 0 1 86.9932 570.5742)" class="st2 st26">place</text>
	<text transform="matrix(1 0 0 1 105.2891 570.5742)" class="st2 st27"> </text>
	<text transform="matrix(1 0 0 1 107.124 570.5742)" class="st2 st26">away</text>
	<text transform="matrix(1 0 0 1 124.9492 570.5742)" class="st2 st27"> </text>
	<text transform="matrix(1 0 0 1 126.7842 570.5742)" class="st2 st26">from</text>
	<text transform="matrix(1 0 0 1 143.8467 570.5742)" class="st2 st27"> </text>
	<text transform="matrix(1 0 0 1 145.6806 570.5742)" class="st2 st26">strong</text>
	<text transform="matrix(1 0 0 1 169.6563 570.5742)" class="st2 st27"> </text>
	<text transform="matrix(1 0 0 1 171.4912 570.5742)" class="st2 st26">light</text>
	<text transform="matrix(1 0 0 1 188.7559 570.5742)" class="st2 st27">/</text>
	<text transform="matrix(1 0 0 1 191.7637 570.5742)" class="st2 st26">gardez</text>
	<text transform="matrix(1 0 0 1 215.5342 570.5742)" class="st2 st27"> </text>
	<text transform="matrix(1 0 0 1 217.3701 570.5742)" class="st2 st26">dans</text>
	<text transform="matrix(1 0 0 1 233.7901 570.5742)" class="st2 st27"> </text>
	<text transform="matrix(1 0 0 1 235.624 570.5742)" class="st2 st26">un</text>
	<text transform="matrix(1 0 0 1 244.3506 570.5742)" class="st2 st27"> </text>
	<text transform="matrix(1 0 0 1 246.1846 570.5742)" class="st2 st26">endroit</text>
	<text transform="matrix(1 0 0 1 272.0234 570.5742)" class="st2 st27"> </text>
	<text transform="matrix(1 0 0 1 273.8574 570.5742)" class="st2 st26">frais</text>
	<text transform="matrix(1 0 0 1 290.3985 570.5742)" class="st2 st27"> </text>
	<text transform="matrix(1 0 0 1 292.2344 570.5742)" class="st2 st26">et</text>
	<text transform="matrix(1 0 0 1 299.1152 570.5742)" class="st2 st27"> </text>
	<text transform="matrix(1 0 0 1 300.9502 570.5742)" class="st2 st26">sec</text>
	<text transform="matrix(1 0 0 1 311.5645 570.5742)" class="st2 st27"> </text>
	<text transform="matrix(1 0 0 1 313.3994 570.5742)" class="st2 st26">loin</text>
	<text transform="matrix(1 0 0 1 327.4082 570.5742)" class="st2 st27"> </text>
	<text transform="matrix(1 0 0 1 329.2422 570.5742)" class="st2 st26">de</text>
	<text transform="matrix(1 0 0 1 337.0655 570.5742)" class="st2 st27"> </text>
	<text transform="matrix(1 0 0 1 338.9004 570.5742)" class="st2 st26">la</text>
	<text transform="matrix(1 0 0 1 346.3213 570.5742)" class="st2 st27"> </text>
	<text transform="matrix(1 0 0 1 348.1572 570.5742)" class="st2 st26">lumière</text>
	<text transform="matrix(1 0 0 1 373.498 570.5742)" class="st2 st27"> </text>
	<text transform="matrix(1 0 0 1 375.333 570.5742)" class="st2 st26">forte</text>
	<text transform="matrix(1 0 0 1 393.8965 570.5742)" class="st2 st27">. </text>
	<text transform="matrix(1 0 0 1 20.6152 581.4766)" class="st2 st26">best</text>
	<text transform="matrix(1 0 0 1 34.7715 581.4766)" class="st2 st27"> </text>
	<text transform="matrix(1 0 0 1 36.6064 581.4766)" class="st2 st26">before</text>
	<text transform="matrix(1 0 0 1 58.9209 581.4766)" class="st2 st27">, </text>
	<text transform="matrix(1 0 0 1 63.1182 581.4766)" class="st2 st26">refer</text>
	<text transform="matrix(1 0 0 1 80.8037 581.4766)" class="st2 st27"> </text>
	<text transform="matrix(1 0 0 1 82.6377 581.4766)" class="st2 st26">to</text>
	<text transform="matrix(1 0 0 1 90.6836 581.4766)" class="st2 st27"> </text>
	<text transform="matrix(1 0 0 1 92.5176 581.4766)" class="st2 st26">pack</text>
	<text transform="matrix(1 0 0 1 108.0732 581.4766)" class="st2 st27">/</text>
	<text transform="matrix(1 0 0 1 111.0801 581.4766)" class="st2 st26">meilleur</text>
	<text transform="matrix(1 0 0 1 139.6719 581.4766)" class="st2 st27"> </text>
	<text transform="matrix(1 0 0 1 141.5068 581.4766)" class="st2 st26">avant</text>
	<text transform="matrix(1 0 0 1 161.7676 581.4766)" class="st2 st27"> , </text>
	<text transform="matrix(1 0 0 1 167.7998 581.4766)" class="st2 st26">voir</text>
	<text transform="matrix(1 0 0 1 181.9883 581.4766)" class="st2 st27"> </text>
	<text transform="matrix(1 0 0 1 183.8223 581.4766)" class="st2 st26">paquet</text>
	<rect x="20.6" y="603" class="st7" width="88" height="151"/>
	<text transform="matrix(1 0 0 1 20.6152 609.46)" class="st8 st26">made</text>
	<text transform="matrix(1 0 0 1 37.5381 609.46)" class="st8 st27"> </text>
	<text transform="matrix(1 0 0 1 39.418 609.46)" class="st8 st26">in</text>
	<text transform="matrix(1 0 0 1 45.3965 609.46)" class="st8 st27"> </text>
	<text transform="matrix(1 0 0 1 47.2764 609.46)" class="st8 st26">the</text>
	<text transform="matrix(1 0 0 1 58.1641 609.46)" class="st8 st27"> </text>
	<text transform="matrix(1 0 0 1 60.0449 609.46)" class="st8 st26">uk</text>
	<text transform="matrix(1 0 0 1 67.9805 609.46)" class="st8 st27"> </text>
	<text transform="matrix(1 0 0 1 69.8613 609.46)" class="st8 st26">by</text>
	<text transform="matrix(1 0 0 1 77.1807 609.46)" class="st8 st27">/ </text>
	<text transform="matrix(1 0 0 1 82.124 609.46)" class="st8 st26">produit</text>
	<text transform="matrix(1 0 0 1 107.3701 609.46)" class="st8 st27"> </text>
	<text transform="matrix(1 0 0 1 20.6152 620.3623)" class="st8 st26">en</text>
	<text transform="matrix(1 0 0 1 28.1895 620.3623)" class="st8 st27"> </text>
	<text transform="matrix(1 0 0 1 30.0693 620.3623)" class="st8 st26">gb</text>
	<text transform="matrix(1 0 0 1 37.9678 620.3623)" class="st8 st27"> </text>
	<text transform="matrix(1 0 0 1 39.8476 620.3623)" class="st8 st26">par</text>
	<text transform="matrix(1 0 0 1 51.0664 620.3623)" class="st8 st27">/ </text>
	<text transform="matrix(1 0 0 1 56.0078 620.3623)" class="st8 st26">mcvitie</text>
	<text transform="matrix(1 0 0 1 78.8008 620.3623)" class="st8 st27">’</text>
	<text transform="matrix(1 0 0 1 80.9443 620.3623)" class="st8 st26">s</text>
	<text transform="matrix(1 0 0 1 84.2451 620.3623)" class="st8 st27"> </text>
	<text transform="matrix(1 0 0 1 86.126 620.3623)" class="st8 st26">p</text>
	<text transform="matrix(1 0 0 1 89.6797 620.3623)" class="st8 st27">.</text>
	<text transform="matrix(1 0 0 1 91.8242 620.3623)" class="st8 st26">o</text>
	<text transform="matrix(1 0 0 1 96.3008 620.3623)" class="st8 st27">. </text>
	<text transform="matrix(1 0 0 1 20.6152 631.2646)" class="st8 st26">box</text>
	<text transform="matrix(1 0 0 1 32.5332 631.2646)" class="st8 st27"> </text>
	<text transform="matrix(1 0 0 1 34.4141 631.2646)" class="st8 st28">7249</text>
	<text transform="matrix(1 0 0 1 50.6445 631.2646)" class="st8 st27">, </text>
	<text transform="matrix(1 0 0 1 20.6152 642.166)" class="st8 st26">ashby</text>
	<text transform="matrix(1 0 0 1 39.5527 642.166)" class="st8 st27">-</text>
	<text transform="matrix(1 0 0 1 42.415 642.166)" class="st8 st26">de</text>
	<text transform="matrix(1 0 0 1 50.0332 642.166)" class="st8 st27">-</text>
	<text transform="matrix(1 0 0 1 52.8955 642.166)" class="st8 st26">la</text>
	<text transform="matrix(1 0 0 1 60.0752 642.166)" class="st8 st27">-</text>
	<text transform="matrix(1 0 0 1 62.9355 642.166)" class="st8 st26">zouch</text>
	<text transform="matrix(1 0 0 1 83.2608 642.166)" class="st8 st27">, </text>
	<text transform="matrix(1 0 0 1 87.2851 642.166)" class="st8 st26">le</text>
	<text transform="matrix(1 0 0 1 93.6953 642.166)" class="st8 st28">65 </text>
	<text transform="matrix(1 0 0 1 20.6152 653.0684)" class="st8 st28">2</text>
	<text transform="matrix(1 0 0 1 24.6719 653.0684)" class="st8 st26">zh</text>
	<text transform="matrix(1 0 0 1 32.5459 653.0684)" class="st8 st27">, </text>
	<text transform="matrix(1 0 0 1 36.5703 653.0684)" class="st8 st26">great</text>
	<text transform="matrix(1 0 0 1 55.083 653.0684)" class="st8 st27"> </text>
	<text transform="matrix(1 0 0 1 56.9639 653.0684)" class="st8 st26">britain</text>
	<text transform="matrix(1 0 0 1 79.2842 653.0684)" class="st8 st27">. </text>
	<text transform="matrix(1 0 0 1 20.6152 662.1523)" class="st2 st28">www.mcvities.com</text>
	<text transform="matrix(1 0 0 1 20.6152 673.0547)" class="st17 st27">®</text>
	<text transform="matrix(1 0 0 1 24.4219 673.0547)" class="st17 st26">registered</text>
	<text transform="matrix(1 0 0 1 56.8106 673.0547)" class="st17 st27"> </text>
	<text transform="matrix(1 0 0 1 58.7363 673.0547)" class="st17 st26">trademark</text>
	<text transform="matrix(1 0 0 1 92.4463 673.0547)" class="st17 st27"> </text>
	<text transform="matrix(1 0 0 1 94.3721 673.0547)" class="st17 st26">of</text>
	<text transform="matrix(1 0 0 1 101.8516 673.0547)" class="st17 st27"> </text>
	<text transform="matrix(1 0 0 1 20.6152 683.957)" class="st17 st26">united</text>
	<text transform="matrix(1 0 0 1 40.958 683.957)" class="st17 st27"> </text>
	<text transform="matrix(1 0 0 1 42.8848 683.957)" class="st17 st26">bisquits</text>
	<text transform="matrix(1 0 0 1 67.2979 683.957)" class="st17 st27"> (</text>
	<text transform="matrix(1 0 0 1 71.8047 683.957)" class="st17 st26">uk</text>
	<text transform="matrix(1 0 0 1 79.3662 683.957)" class="st17 st27">) </text>
	<text transform="matrix(1 0 0 1 83.8721 683.957)" class="st17 st26">limited</text>
	<text transform="matrix(1 0 0 1 105.5518 683.957)" class="st17 st27"> </text>
	<text transform="matrix(1 0 0 1 20.6152 694.8584)" class="st17 st27">®</text>
	<text transform="matrix(1 0 0 1 24.4219 694.8584)" class="st17 st26">marque</text>
	<text transform="matrix(1 0 0 1 48.4727 694.8584)" class="st17 st27"> </text>
	<text transform="matrix(1 0 0 1 50.3984 694.8584)" class="st17 st26">déposée</text>
	<text transform="matrix(1 0 0 1 74.9209 694.8584)" class="st17 st27"> </text>
	<text transform="matrix(1 0 0 1 76.8457 694.8584)" class="st17 st26">d</text>
	<text transform="matrix(1 0 0 1 81.082 694.8584)" class="st17 st27">’</text>
	<text transform="matrix(1 0 0 1 82.9619 694.8584)" class="st17 st26">united</text>
	<text transform="matrix(1 0 0 1 103.3057 694.8584)" class="st17 st27"> </text>
	<text transform="matrix(1 0 0 1 20.6152 705.7617)" class="st17 st26">bisquits</text>
	<text transform="matrix(1 0 0 1 45.0293 705.7607)" class="st17 st27"> (</text>
	<text transform="matrix(1 0 0 1 49.5351 705.7617)" class="st17 st26">uk</text>
	<text transform="matrix(1 0 0 1 57.0967 705.7607)" class="st17 st27">) </text>
	<text transform="matrix(1 0 0 1 61.6025 705.7617)" class="st17 st26">limited</text>
</g>
</svg>
