<?xml version="1.0" encoding="utf-8"?>
<!-- Generator: Adobe Illustrator 19.1.0, SVG Export Plug-In . SVG Version: 6.00 Build 0)  -->
<svg version="1.1" id="Layer_1" xmlns="http://www.w3.org/2000/svg" xmlns:xlink="http://www.w3.org/1999/xlink" x="0px" y="0px"
	 viewBox="-331 0.5 792 612" style="enable-background:new -331 0.5 792 612;" xml:space="preserve">
<style type="text/css">
	.st0{fill:#DBDFD5;}
	.st1{fill:#97BC5C;}
	.st2{fill:none;stroke:#FFFFFF;stroke-width:5;stroke-miterlimit:10;}
	.st3{font-family:'Raleway-Medium';}
	.st4{font-size:37.8245px;}
	.st5{font-family:'Raleway-Light';}
	.st6{font-size:10.0351px;}
	.st7{fill:#4C4A49;}
	.st8{fill:#DD2428;}
	.st9{fill:#FFFFFF;}
	.st10{fill:#273C93;}
	.st11{font-family:'MyriadPro-Bold';}
	.st12{font-size:19.0053px;}
	.st13{fill:#FFF100;stroke:#FCB813;stroke-width:0.4889;stroke-miterlimit:2.6131;}
	.st14{fill:#2E3191;stroke:#231F20;stroke-width:0.4889;stroke-miterlimit:2.6131;}
	.st15{fill:#FFCA05;stroke:#231F20;stroke-width:0.4889;stroke-miterlimit:2.6131;}
	.st16{fill:#221E1F;}
	.st17{fill:#D4383B;}
	.st18{fill:#CB2730;}
	.st19{fill:#A22F33;}
	.st20{fill:#647275;stroke:#A22F33;stroke-width:3;stroke-miterlimit:10;}
	.st21{fill:#B3B6B7;}
	.st22{fill:none;stroke:#A22F33;stroke-width:4;stroke-miterlimit:10;}
	.st23{fill:#3E4D53;}
	.st24{fill:#B28E46;}
	.st25{fill:#251407;}
	.st26{fill:none;stroke:#251407;stroke-width:0.75;stroke-miterlimit:10;}
	.st27{font-family:'MyriadPro-Regular';}
	.st28{font-size:6.843px;}
	.st29{fill:#272220;}
	.st30{fill:#F7F6F1;stroke:#272220;stroke-width:3;stroke-miterlimit:10;}
	.st31{fill:#F7F6F1;}
	.st32{fill:none;stroke:#F7F6F1;stroke-width:5;stroke-miterlimit:10;}
	.st33{fill:#86BAAD;}
	.st34{font-family:'Raleway-ExtraLight';}
	.st35{font-size:20.7207px;}
	.st36{fill:none;stroke:#251407;stroke-width:2;stroke-miterlimit:10;}
	.st37{font-size:13.8086px;}
	.st38{display:none;}
	.st39{display:inline;}
	.st40{fill:none;stroke:#120F0D;stroke-width:2;stroke-miterlimit:10;}
	.st41{fill:#F0D4B2;}
	.st42{opacity:0.5;clip-path:url(#SVGID_2_);fill:#F0D4B2;stroke:#120F0D;stroke-miterlimit:10;enable-background:new    ;}
	.st43{opacity:0.65;clip-path:url(#SVGID_4_);fill:#F0D4B2;stroke:#E32A26;stroke-miterlimit:10;enable-background:new    ;}
	.st44{opacity:0.65;clip-path:url(#SVGID_7_);fill:#F0D4B2;stroke:#E32A26;stroke-miterlimit:10;enable-background:new    ;}
	.st45{opacity:0.65;clip-path:url(#SVGID_9_);fill:#F0D4B2;stroke:#E32A26;stroke-miterlimit:10;enable-background:new    ;}
	.st46{opacity:0.65;clip-path:url(#SVGID_11_);fill:#F0D4B2;stroke:#E32A26;stroke-miterlimit:10;enable-background:new    ;}
	
		.st47{opacity:0.5;clip-path:url(#SVGID_13_);fill:none;stroke:#120F0D;stroke-width:2;stroke-miterlimit:10;enable-background:new    ;}
	
		.st48{opacity:0.5;clip-path:url(#SVGID_15_);fill:none;stroke:#120F0D;stroke-width:2;stroke-miterlimit:10;enable-background:new    ;}
	
		.st49{opacity:0.5;clip-path:url(#SVGID_17_);fill:none;stroke:#120F0D;stroke-width:2;stroke-miterlimit:10;enable-background:new    ;}
	
		.st50{opacity:0.5;clip-path:url(#SVGID_19_);fill:none;stroke:#FFFFFF;stroke-width:2;stroke-miterlimit:10;enable-background:new    ;}
	
		.st51{opacity:0.5;clip-path:url(#SVGID_21_);fill:none;stroke:#FFFFFF;stroke-width:2;stroke-miterlimit:10;enable-background:new    ;}
	
		.st52{opacity:0.5;clip-path:url(#SVGID_23_);fill:none;stroke:#120F0D;stroke-width:2;stroke-miterlimit:10;enable-background:new    ;}
	
		.st53{opacity:0.5;clip-path:url(#SVGID_25_);fill:none;stroke:#120F0D;stroke-width:2;stroke-miterlimit:10;enable-background:new    ;}
	
		.st54{opacity:0.5;clip-path:url(#SVGID_27_);fill:none;stroke:#120F0D;stroke-width:2;stroke-miterlimit:10;enable-background:new    ;}
	
		.st55{opacity:0.5;clip-path:url(#SVGID_29_);fill:none;stroke:#120F0D;stroke-width:2;stroke-miterlimit:10;enable-background:new    ;}
	
		.st56{opacity:0.5;clip-path:url(#SVGID_31_);fill:none;stroke:#120F0D;stroke-width:2;stroke-miterlimit:10;enable-background:new    ;}
	
		.st57{opacity:0.5;clip-path:url(#SVGID_33_);fill:none;stroke:#120F0D;stroke-width:2;stroke-miterlimit:10;enable-background:new    ;}
	
		.st58{opacity:0.5;clip-path:url(#SVGID_35_);fill:none;stroke:#120F0D;stroke-width:2;stroke-miterlimit:10;enable-background:new    ;}
	
		.st59{opacity:0.5;clip-path:url(#SVGID_37_);fill:none;stroke:#120F0D;stroke-width:2;stroke-miterlimit:10;enable-background:new    ;}
	
		.st60{opacity:0.5;clip-path:url(#SVGID_39_);fill:none;stroke:#120F0D;stroke-width:2;stroke-miterlimit:10;enable-background:new    ;}
	
		.st61{opacity:0.5;clip-path:url(#SVGID_41_);fill:none;stroke:#FFFFFF;stroke-width:2;stroke-miterlimit:10;enable-background:new    ;}
	
		.st62{opacity:0.5;clip-path:url(#SVGID_43_);fill:none;stroke:#FFFFFF;stroke-width:2;stroke-miterlimit:10;enable-background:new    ;}
	.st63{fill:#DDA747;}
	.st64{fill:#EA9B97;}
	.st65{opacity:0.8;fill:#FFFFFF;enable-background:new    ;}
	.st66{fill:none;}
	.st67{fill:#F5D1B6;}
	.st68{fill:#F5D1B6;stroke:#F4CAAE;stroke-miterlimit:10;}
	.st69{fill:#5C2214;}
	.st70{fill:#FFFFFF;stroke:#CECECD;stroke-miterlimit:10;}
	.st71{fill:none;stroke:#231F20;stroke-width:0.365;stroke-miterlimit:10;}
	.st72{fill:#231F20;}
	.st73{fill:#0E113C;}
	.st74{fill:none;stroke:#5C2214;stroke-width:0.5;stroke-miterlimit:10;}
	.st75{fill:#F59698;}
	.st76{fill:#2D2D2D;}
	.st77{fill:none;stroke:#FFFFFF;stroke-width:0.25;stroke-miterlimit:10;}
	.st78{fill:#CECECD;}
	.st79{font-size:5.9694px;}
	.st80{fill:none;stroke:#251407;stroke-width:0.25;stroke-miterlimit:10;}
	.st81{font-size:1.8689px;}
</style>
<path class="st0" d="M460.6,576.3l0.4-238.5c0-1.7-2.1,0.5,0,0V0.5h-792v610.1h792L460.6,576.3C458.7,575.8,460.6,578.1,460.6,576.3
	z"/>
<path class="st1" d="M-284.6,585.9c19.3-1.7,37.5,6.7,57.2,6.4c18.1-0.4,33.3-8.2,50.6-11.5c4-0.7,8.4-1.3,12.4-0.4
	c3.8,0.9,6.4,2.8,9.6,4.3c13.6,6.9,33.1,6.5,50.6,6.7c34.3,0.6,67.1,7,100.8,11.3c7,4,5,9.6-2.6,13.1s-17.9,4-27.5,4.4
	c-96.7,3.8-193.5,2.6-290.4,1.5c-3.4,0-7.2-0.2-9.8-1.6c-2.2-1.3-2.8-3.2-3.2-5.2c-1.2-5.9-1.4-11.9-0.4-17.9
	C-318.3,598.2-303,587.5-284.6,585.9z"/>
<g>
	<rect x="-67.8" y="119.4" class="st2" width="269" height="73.8"/>
	<text transform="matrix(1 0 0 1 -25.1421 160.2827)" class="st3 st4">Digestives</text>
	<text transform="matrix(1 0 0 1 -61.5762 178.8095)" class="st5 st6">Caramel Biscuits with Milk Chocolate Flavoured Coating</text>
</g>
<g>
	<path class="st7" d="M-237.9,592.4L-237.9,592.4c-6.1,0-11.2-5-11.2-11.2V278.9c0-6.1,5-11.2,11.2-11.2l0,0c6.1,0,11.2,5,11.2,11.2
		v302.3C-226.7,587.4-231.8,592.4-237.9,592.4z"/>
	<circle class="st8" cx="-238.6" cy="219.4" r="59.1"/>
	<circle class="st9" cx="-239.1" cy="219.4" r="40.2"/>
	<rect x="-313.5" y="210.3" class="st10" width="148.7" height="23.4"/>
	<text transform="matrix(1 0 0 1 -279.2529 228.1075)" class="st9 st11 st12">MCVITIES</text>
</g>
<g>
	<path class="st13" d="M-98.1,58.1c8.7-13,16.6-25.3,25.4-37.4c2.5-3.4,7.5-4.8,9.9-4.8c0.2,0,2.4,0,261,0c5.7,0,6.7,0,10.3,3.1
		c1.8,1.5,27.9,37.7,27.9,37.7s-25.4,37.6-25.9,38.2c-2.4,2.7-5.7,4-9.6,4c-88.7,0-263.1,0-263.1,0s-6.4-0.5-9.7-4.3L-98.1,58.1
		L-98.1,58.1z"/>
	<path class="st14" d="M226.2,57.6l-20.3-28.4c-1.9-2.7-6.3-4.2-8.9-4.2c-154.8,0-97.6,0-255.7,0c-1.2,0-6.3,0.8-9,4.2L-87.2,58
		c7.1,9.9,13.8,19.3,20.7,28.7c2,2.9,5.7,4,8.6,4c2.9,0,253.5,0,256.6-0.1c2.5,0,6-1.1,8.4-4.9L226.2,57.6L226.2,57.6z"/>
	<path class="st15" d="M-62.5,87.9c-2.7-1.5-0.8-6.6-0.8-6.6s2.7-3.3,6.1-4.2c6.1-1.4,16.2-1.4,18.7-5.4c1,1.5,1,7.5-5,7.9
		C-50.5,81.2-58,84.5-62.5,87.9L-62.5,87.9z"/>
	<path class="st15" d="M-53.5,75.2c0,0-8.5-9,5.4-12.5c6.2-1.5,6.4,0.2,14.4-5.4c0.5,2.5-0.4,7.2-4.2,8.6
		C-50.8,69.6-53.5,75.2-53.5,75.2L-53.5,75.2z"/>
	<path class="st15" d="M-47.5,55.3c0,0-3.2-4.6,4-8.1c12.5-2.8,15.2-5.1,15.2-5.1s1.4,5.4-4.2,7.7c-8.5,1.7-13.9,7.9-13.9,7.9
		L-47.5,55.3L-47.5,55.3z"/>
	<path class="st15" d="M-48.4,48.1c0,0-12.4-15.4,13.2-20.1c1.4,6.3-3.5,13.7-5.4,15.6C-43.8,47.6-48.4,48.1-48.4,48.1L-48.4,48.1z"
		/>
	<path class="st15" d="M-51.1,30.6c-15.1,12.6-6.2,38.3-6.2,38.3l9.2-7.9c0,0,3.6-2,2-8.6C-48,46.2-51.1,49-51.1,30.6L-51.1,30.6z"
		/>
	<path class="st15" d="M-65.2,79.7c3,0.7,7-2,7-2s4.9-1.9,3.5-10.2C-60,55-59.1,42.7-59.1,42.7s-12.7,11.8-10.1,23.5
		C-66.7,78.4-67,75.4-65.2,79.7L-65.2,79.7z"/>
	<path class="st9" d="M183.1,67.7l-0.5,6.4c4,2,14.1,6.2,21-2.7c6.1-9.9,0.7-13.8,0.4-14c-2.7-3.7-9.2-4.4-10.4-6.6
		c-1.1-2.2,0-6.4,3.3-6.7c6.7-0.7,9.4,4.4,9.4,4.4l0.4-0.4v-7.4c0,0-2.4,0.4-7-0.7c-3-0.4-9.7-0.7-13.1,8.4c-1.4,8.3,3,9.9,3,9.9
		l8.4,5.1c0,0,2.7,4-0.8,6.4C192.2,74,185.9,69.7,183.1,67.7L183.1,67.7z"/>
	<path class="st9" d="M183.7,46.7c4.6-5,1.4-6.7,0.9-7.5c-0.5-0.8-3.9,0-3.9,0c-4.6,3.9,0.4,5.9,0.8,5.6c0.7,1.1-1.7,3.3-1.7,3.3
		S181.1,49.2,183.7,46.7L183.7,46.7z"/>
	<path class="st9" d="M130.6,74.2l-0.5,1.5h11.5l0.2-0.7c0,0-1.2-1.1-1.4-1.7c-0.4-0.7,4-28.7,4.3-29.8c-0.2-1.2,2-2.5,2-2.5v-1.2
		h-11.1l-0.3,0.8c0,0,1,0.7,1.2,2.7c0.2,2.5-3.5,28-3.6,29C132.6,73.5,131.4,73.9,130.6,74.2L130.6,74.2z"/>
	<path class="st9" d="M154.5,40.1c12.2,0.4,21.4-0.7,21.4-0.7L175,47h-0.5c0,0,0.2-2.2-3.9-2.2c-3.9,0-6.1-0.2-7,0.4
		c-0.5,0.8-1.2,4.4-1.5,8.3c1.9,3.3,9.6-0.7,9.6-0.7l-1.5,8.6c0,0-0.2-1.9-3.5-1.9c-3.3,0-2.4-0.4-4.3,0c-2,2-2.5,9.8-2.5,9.8
		s-0.2,1.5,0.8,1.4c12.9,1.2,13.7-2.7,13.7-2.7s0.2,8.6-5.7,7.9c-5.7-0.8-19.6,0-19.6,0v-1.1c0,0,2.8-0.5,3-4.9
		c0.7-0.2,2.8-23.3,3.3-26c0.7-2.8-1-3.2-1-3.2S154.3,40.6,154.5,40.1L154.5,40.1z"/>
	<path class="st9" d="M131.2,40.1l-1.9,0.3c-2.9,0.3-18.1,0.9-26.9-0.1c0,0.2-1.7,6.7-1.7,6.7l0.5,0.2c3.9-3.3,10.1-2.7,10.1-2.7
		l0.7,1.2c0,0-2.5,24.8-4,27.1c-1.4,2.2-2.5,2-2.5,2v0.7h12.4l0.2-0.7c0,0-1.2,0.2-1.4-3c-0.4-3.3,2.5-24.7,3.3-26.1
		c0.7-1.4,0.2-1.2,1.2-1.5c0.8-0.4,1.4-0.7,4.3-0.2c3.2,0.4,4.2,3.7,4.2,3.7L131.2,40.1L131.2,40.1z"/>
	<path class="st9" d="M82.6,74.5L82.1,76h11.1l0.4-0.7c0,0-1.5-1.2-1.5-1.7c0-0.5,4-28.8,4.6-30c-0.2-1.2,1.9-2.2,1.9-2.2l0.2-1.2
		H87.7l-0.5,0.8c0,0,1.2,0.5,1.4,2.7c0.3,2.5-3.6,27.8-3.8,29C84.4,73.3,83.3,74,82.6,74.5L82.6,74.5z"/>
	<path class="st9" d="M85.2,40.4L85,40.3h-9.3l0.2,1.7l-0.5,2.7c0,0-10.1,21.6-10.2,20.1c-1.2,0-4.9-17.3-4.9-20.1
		c0-2.7,2.4-3.9,2.4-3.9l-0.2-0.5H49c0,0,0,0.8,0.5,1.4c1,0.7,2.2,2.8,3.3,7.2c1.9,7.2,5,19,5,19s2.2,8.7,7,8.4
		C68.3,69.9,79,46.2,79,46.2s3.4-4.3,5.3-4.6L85.2,40.4L85.2,40.4z"/>
	<path class="st9" d="M46.4,68.7c1.2,6.6-6.4,5.8-6.4,5.8s-5.7-0.4-8.1-0.7c-2.5-0.4-5,1.1-5,1.1s1-6.4,8.5-4.7
		C42.8,71.9,46.6,69.1,46.4,68.7L46.4,68.7z"/>
	<path class="st9" d="M-29.4,75.4c0,0,0.7,0.5,3-2.7c2.2-3.2,7.8-23.6,8.7-27.8c0.8-4.2-1.7-4-1.7-4l0.5-0.8L-7.9,40
		c0,0,1.4,0.8,4.6,23.6c0.7,3.3,16-23.3,16-23.3H22l-0.4,0.9L20,42.9c0,0-2.5,28.5-1.5,31c1.1,2.7,1.4,1.5,1.4,1.5l-0.2,1.1
		L7.6,76.7l0.3-1.2c0,0,1.1-0.2,1.7-1.5c0.7-1.4,2.2-19.7,1.7-20.3c-0.5-0.7-15.1,22.9-16,23.1c-0.7,0-3.6,0.5-5.4-8.4
		c-1.7-8.7-2.8-16.2-3.5-16.5c-0.5-0.2-7,21.9-7,21.9s0.4,0.5,1.4,1.6c1.1,1.1,0.2,0.8,0.2,0.8H-29L-29.4,75.4L-29.4,75.4z"/>
	<path class="st9" d="M45.7,47.3c-0.2-0.2-1.5-6.1-1.5-6.1S30.8,36.5,26,49.6c-4.9,12.8,10.2,19.5,16.2,15.6
		c5.9-3.9,3.9-4.7,4.2-5.6c0.5-0.7-0.7-0.5-0.7-0.5s-2,1.9-4.6,2.5c-2.7,0.4-5.4,1.2-8.2-2.5c-2.8-3.9-2-9.6,0.4-12.3
		C35.7,44.3,40,42.2,45.7,47.3L45.7,47.3z"/>
</g>
<g>
	<rect x="-3.4" y="602.7" class="st16" width="464.3" height="9.9"/>
	<rect x="0.9" y="320.5" class="st17" width="124.2" height="6.5"/>
	<rect x="1.8" y="327.1" class="st18" width="122.5" height="275.6"/>
	<path class="st18" d="M5.7,320.5v-17.8c0,0,16.5-21.3,56.1-19.9l14.3-0.1c0,0,14,1.1,24.7,5.4s16.6,9.2,20.4,13.6v18.9L5.7,320.5
		L5.7,320.5z"/>
	<path class="st19" d="M5.7,302.7l-2.4-2c0,0,8.7-12.5,25.2-17.5c0.8-0.2,1.7-0.5,2.5-0.8c7.4-3.1,53.1-20.1,93.2,17.6l-3,1.7
		C121.3,301.6,66.8,259.8,5.7,302.7z"/>
	<rect x="17.9" y="339.7" class="st20" width="91.4" height="235.5"/>
	<path class="st21" d="M80.6,573.8c8.7,0,18.7,0.2,27.3,0.2c0.8-29.1,0.4-57.8,1.2-86.8c0.2-9.5,0.5-19-1.4-28.3
		c-5.2-24-24.2-42-39.7-61.1c-3.5-4.3-6.7-8.7-8.9-13.8c-5.4-13.1-1.4-29.4,2.7-43c-6.6-0.3-14.3,0.3-21-0.1
		c-11.1,13.8-15.2,33.5-11.3,50.9c4,17.8,16,32.6,28.4,45.9c12.5,13.3,26,26,34.7,42c5.8,10.8,9.2,23.7,5.6,35.5
		c-3,10-10.6,18-15,27.6C78.6,552.5,77.6,563.5,80.6,573.8z"/>
	<g>
		<line class="st22" x1="47.4" y1="340.6" x2="47.4" y2="576.1"/>
		<line class="st22" x1="83.7" y1="340.3" x2="83.7" y2="576.1"/>
		<line class="st22" x1="17.9" y1="368.7" x2="109.3" y2="368.7"/>
		<line class="st22" x1="19.2" y1="428.9" x2="109.3" y2="428.9"/>
		<line class="st22" x1="18.4" y1="488.7" x2="109.3" y2="488.7"/>
		<line class="st22" x1="18.8" y1="549.4" x2="109.3" y2="549.4"/>
	</g>
	<path class="st23" d="M116.6,453.1h-0.5c-1.7,0-3.1-1.4-3.1-3.1v-11.9c0-1.7,1.4-3.1,3.1-3.1h0.5c1.7,0,3.1,1.4,3.1,3.1v11.9
		C119.6,451.8,118.3,453.1,116.6,453.1z"/>
	<circle class="st24" cx="64.2" cy="301.5" r="17.2"/>
	<circle class="st25" cx="59.8" cy="289.2" r="0.5"/>
	<circle class="st25" cx="53.8" cy="292.1" r="0.5"/>
	<circle class="st25" cx="65.8" cy="288.6" r="0.5"/>
	<circle class="st25" cx="71.6" cy="291.3" r="0.5"/>
	<circle class="st25" cx="68.2" cy="297" r="0.5"/>
	<circle class="st25" cx="58.7" cy="297.7" r="0.5"/>
	<circle class="st25" cx="52.1" cy="298.2" r="0.5"/>
	<circle class="st25" cx="52.7" cy="305.3" r="0.5"/>
	<circle class="st25" cx="59.1" cy="304.4" r="0.5"/>
	<circle class="st25" cx="56" cy="310.7" r="0.5"/>
	<circle class="st25" cx="61.3" cy="313.2" r="0.5"/>
	<circle class="st25" cx="64.2" cy="309.1" r="0.5"/>
	<circle class="st25" cx="67.7" cy="312.8" r="0.5"/>
	<circle class="st25" cx="73" cy="309.4" r="0.5"/>
	<circle class="st25" cx="68.6" cy="303.7" r="0.5"/>
	<circle class="st25" cx="75.9" cy="304.3" r="0.5"/>
	<circle class="st25" cx="75" cy="296.5" r="0.5"/>
	<path class="st26" d="M59.9,298.9c0,0-2.2-0.7-2.2,1.6c0,0,0.2,2,2.2,1.1"/>
	<line class="st26" x1="58.2" y1="302.9" x2="59.8" y2="302.9"/>
	<text transform="matrix(1 0 0 1 52.1148 303.0991)" class="st25 st27 st28">M  VITIES</text>
	<g>
		<g>
			<path class="st25" d="M64.1,292.4c0,0,0.4-1.8,3.8-2.1C67.9,290.3,66.3,293,64.1,292.4z"/>
			<path class="st25" d="M61,292.3c0,0,0.4-1.8,3.8-2.1C64.8,290.2,63.2,292.9,61,292.3z"/>
			<path class="st25" d="M58.2,292.5c0,0,0.2-1.8,3.6-2.4C61.8,290.1,60.4,293,58.2,292.5z"/>
			<path class="st25" d="M64,292.7c0,0,0.1,1.8,3.5,2.7C67.4,295.5,66.2,292.5,64,292.7z"/>
			<path class="st25" d="M61,292.7c0,0,0.3,1.8,3.7,2.4C64.7,295.1,63.2,292.2,61,292.7z"/>
			<path class="st25" d="M58.2,292.9c0,0,0.3,1.8,3.8,2.1C62,295.1,60.4,292.3,58.2,292.9z"/>
		</g>
	</g>
	<path class="st25" d="M66.3,292.7c0,0,1.8-1.7,6,0.5C72.3,293.3,68.2,295.2,66.3,292.7z"/>
	<path class="st25" d="M57.7,292.7c0,0,0.2,1.3-1.7,2.1C55.8,294.9,56.2,292.7,57.7,292.7z"/>
</g>
<g>
	<g>
		<path class="st29" d="M460.5,398c-46.4,1-68.6,8.1-68.6,8.1c-39.4,4.5-45.3,70.5-45.3,70.5c-30.4,16.4-26,57.9-26,57.9
			c-12.7,14.8-5.9,32.6-5.9,32.6h145.9V398H460.5z"/>
		<circle class="st30" cx="398.6" cy="572.8" r="31.7"/>
		<path class="st31" d="M391.1,420.1c-8.7,4.9-28.6,19.4-27.8,50.7c0.1,3.4,2.9,6.1,6.2,6.1h26c3.3,0,5.8-2.4,6.2-5.5
			c1.1-11.7,3.2-38.3-2.2-49C397.8,419.4,394,418.4,391.1,420.1z"/>
		<path class="st31" d="M460.5,419.2h-40.2c-3.6,0-6.4,2.9-6.4,6.4v44.9c0,3.6,2.9,6.4,6.4,6.4h40.2V419.2z"/>
		<line class="st32" x1="406.8" y1="485.6" x2="406.8" y2="567.2"/>
		<line class="st32" x1="415.5" y1="512.6" x2="430.3" y2="512.6"/>
		<path class="st31" d="M320.6,534.5c0,0,22.2-0.1,16.3,32.6h-22.2C314.7,567.2,307.3,549.2,320.6,534.5z"/>
	</g>
	<rect x="427.4" y="494.3" class="st33" width="33.1" height="23"/>
	<text transform="matrix(1 0 0 1 430.4399 513.5053)" class="st34 st35">TAX</text>
	<g>
		<circle class="st24" cx="398.6" cy="573.1" r="34.6"/>
		<circle class="st25" cx="389.7" cy="548.5" r="1.1"/>
		<circle class="st25" cx="377.7" cy="554.2" r="1.1"/>
		<circle class="st25" cx="402.1" cy="547.1" r="1.1"/>
		<circle class="st25" cx="413.7" cy="552.4" r="1.1"/>
		<circle class="st25" cx="406.9" cy="563.9" r="1.1"/>
		<circle class="st25" cx="387.6" cy="565.4" r="1.1"/>
		<circle class="st25" cx="374.4" cy="566.6" r="1.1"/>
		<circle class="st25" cx="375.5" cy="580.6" r="1.1"/>
		<circle class="st25" cx="388.5" cy="579" r="1.1"/>
		<circle class="st25" cx="382.3" cy="591.6" r="1.1"/>
		<circle class="st25" cx="393" cy="596.5" r="1.1"/>
		<circle class="st25" cx="398.6" cy="588.3" r="1.1"/>
		<circle class="st25" cx="405.8" cy="595.8" r="1.1"/>
		<circle class="st25" cx="416.6" cy="589.1" r="1.1"/>
		<circle class="st25" cx="407.7" cy="577.3" r="1.1"/>
		<circle class="st25" cx="422.3" cy="578.6" r="1.1"/>
		<circle class="st25" cx="420.8" cy="562.8" r="1.1"/>
		<path class="st36" d="M390.3,567.6c0,0-4.5-1.4-4.6,3.3c0,0,0.2,4,4.6,2.4"/>
		<line class="st36" x1="386.6" y1="575.9" x2="390" y2="575.9"/>
		<text transform="matrix(1 0 0 1 374.4048 576.2778)" class="st25 st27 st37">M  VITIES</text>
		<g>
			<g>
				<path class="st25" d="M398.5,554.7c0,0,0.7-3.7,7.7-4.3C406.2,550.4,402.9,555.9,398.5,554.7z"/>
				<path class="st25" d="M392.4,554.4c0,0,0.7-3.7,7.7-4.3C400.1,550.1,396.7,555.6,392.4,554.4z"/>
				<path class="st25" d="M386.6,554.9c0,0,0.5-3.7,7.4-4.9C393.9,550,391,555.8,386.6,554.9z"/>
				<path class="st25" d="M398.3,555.5c0,0,0.2,3.8,7.1,5.3C405.4,560.9,402.8,554.9,398.3,555.5z"/>
				<path class="st25" d="M392.4,555.3c0,0,0.5,3.7,7.5,4.6C399.9,560,396.8,554.3,392.4,555.3z"/>
				<path class="st25" d="M386.9,555.6c0,0,0.7,3.7,7.7,4.4C394.4,560,391.2,554.5,386.9,555.6z"/>
			</g>
		</g>
		<path class="st25" d="M402.9,555.4c0,0,3.8-3.6,12.2,1.1C415.1,556.7,406.9,560.2,402.9,555.4z"/>
		<path class="st25" d="M385.7,555.3c0,0,0.4,2.6-3.6,4.4C382,559.7,382.8,555.4,385.7,555.3z"/>
	</g>
</g>
<g id="Purse" class="st38">
	<g class="st39">
		<path class="st40" d="M-361.7,739.6c0,0,0-38,20.9-40.3c0,0,18.9-4.8,21.9,38.5"/>
		<g>
			<g>
				<path id="SVGID_5_" class="st41" d="M-362.8,735.3c0,0,21.8-10.1,44.8,0.7c0,0,17.3,33.5,5.2,50.6c0,0-1.4,2.1-5.1,1.6
					l-49.1,0.1c0,0-2.6,0.2-3-2.6c-0.4-2.7-9.8-17.5,4.8-46C-364.4,738.2-363.6,736.8-362.8,735.3z"/>
			</g>
			<g>
				<g>
					<defs>
						<path id="SVGID_1_" d="M-362.8,735.3c0,0,21.8-10.1,44.8,0.7c0,0,17.3,33.5,5.2,50.6c0,0-1.4,2.1-5.1,1.6l-49.1,0.1
							c0,0-2.6,0.2-3-2.6c-0.4-2.7-9.8-17.5,4.8-46C-364.4,738.2-363.6,736.8-362.8,735.3z"/>
					</defs>
					<clipPath id="SVGID_2_">
						<use xlink:href="#SVGID_1_"  style="overflow:visible;"/>
					</clipPath>
					<path class="st42" d="M-341.5,731c0,0,2.2,49,0.5,57.2"/>
				</g>
			</g>
			<g>
				<g>
					<defs>
						<path id="SVGID_3_" d="M-362.8,735.3c0,0,21.8-10.1,44.8,0.7c0,0,17.3,33.5,5.2,50.6c0,0-1.4,2.1-5.1,1.6l-49.1,0.1
							c0,0-2.6,0.2-3-2.6c-0.4-2.7-9.8-17.5,4.8-46C-364.4,738.2-363.6,736.8-362.8,735.3z"/>
					</defs>
					<clipPath id="SVGID_4_">
						<use xlink:href="#SVGID_3_"  style="overflow:visible;"/>
					</clipPath>
					<path class="st43" d="M-366.5,742.5c0,0,6.2-1.3,13.8,1.2c0,0,5.2,3,11.8,2.5c0,0,5.2,1.4,17-2.1c0,0,5.6-1.9,9.6,0.1"/>
				</g>
			</g>
			<g>
				<g>
					<defs>
						<path id="SVGID_6_" d="M-362.8,735.3c0,0,21.8-10.1,44.8,0.7c0,0,17.3,33.5,5.2,50.6c0,0-1.4,2.1-5.1,1.6l-49.1,0.1
							c0,0-2.6,0.2-3-2.6c-0.4-2.7-9.8-17.5,4.8-46C-364.4,738.2-363.6,736.8-362.8,735.3z"/>
					</defs>
					<clipPath id="SVGID_7_">
						<use xlink:href="#SVGID_6_"  style="overflow:visible;"/>
					</clipPath>
					<path class="st44" d="M-355.2,732.8c0,0-2.1,13.6-2,16c0,0-0.4,15.1-0.9,15.7c0,0-0.1,22.9-0.8,23.8"/>
				</g>
			</g>
			<g>
				<g>
					<defs>
						<path id="SVGID_8_" d="M-362.8,735.3c0,0,21.8-10.1,44.8,0.7c0,0,17.3,33.5,5.2,50.6c0,0-1.4,2.1-5.1,1.6l-49.1,0.1
							c0,0-2.6,0.2-3-2.6c-0.4-2.7-9.8-17.5,4.8-46C-364.4,738.2-363.6,736.8-362.8,735.3z"/>
					</defs>
					<clipPath id="SVGID_9_">
						<use xlink:href="#SVGID_8_"  style="overflow:visible;"/>
					</clipPath>
					<path class="st45" d="M-325.2,733.2c0,0,2.1,13.2,2,15.6c0,0,0.4,15.1,0.9,15.7c0,0,0.1,22.9,0.8,23.8"/>
				</g>
			</g>
			<g>
				<g>
					<defs>
						<path id="SVGID_10_" d="M-362.8,735.3c0,0,21.8-10.1,44.8,0.7c0,0,17.3,33.5,5.2,50.6c0,0-1.4,2.1-5.1,1.6l-49.1,0.1
							c0,0-2.6,0.2-3-2.6c-0.4-2.7-9.8-17.5,4.8-46C-364.4,738.2-363.6,736.8-362.8,735.3z"/>
					</defs>
					<clipPath id="SVGID_11_">
						<use xlink:href="#SVGID_10_"  style="overflow:visible;"/>
					</clipPath>
					<path class="st46" d="M-373.3,765.1c0,0,1.5,1.6,15.1,0c0,0,16.1,2,17.9,1.8c0,0,10.7-0.3,17.9-0.9c0,0,11.1-0.9,13.7,0.9"/>
				</g>
			</g>
			<g>
				<g>
					<defs>
						<path id="SVGID_12_" d="M-362.8,735.3c0,0,21.8-10.1,44.8,0.7c0,0,17.3,33.5,5.2,50.6c0,0-1.4,2.1-5.1,1.6l-49.1,0.1
							c0,0-2.6,0.2-3-2.6c-0.4-2.7-9.8-17.5,4.8-46C-364.4,738.2-363.6,736.8-362.8,735.3z"/>
					</defs>
					<clipPath id="SVGID_13_">
						<use xlink:href="#SVGID_12_"  style="overflow:visible;"/>
					</clipPath>
					<line class="st47" x1="-352.4" y1="731" x2="-353.6" y2="788.2"/>
				</g>
			</g>
			<g>
				<g>
					<defs>
						<path id="SVGID_14_" d="M-362.8,735.3c0,0,21.8-10.1,44.8,0.7c0,0,17.3,33.5,5.2,50.6c0,0-1.4,2.1-5.1,1.6l-49.1,0.1
							c0,0-2.6,0.2-3-2.6c-0.4-2.7-9.8-17.5,4.8-46C-364.4,738.2-363.6,736.8-362.8,735.3z"/>
					</defs>
					<clipPath id="SVGID_15_">
						<use xlink:href="#SVGID_14_"  style="overflow:visible;"/>
					</clipPath>
					<line class="st48" x1="-348.7" y1="731" x2="-349.9" y2="788.2"/>
				</g>
			</g>
			<g>
				<g>
					<defs>
						<path id="SVGID_16_" d="M-362.8,735.3c0,0,21.8-10.1,44.8,0.7c0,0,17.3,33.5,5.2,50.6c0,0-1.4,2.1-5.1,1.6l-49.1,0.1
							c0,0-2.6,0.2-3-2.6c-0.4-2.7-9.8-17.5,4.8-46C-364.4,738.2-363.6,736.8-362.8,735.3z"/>
					</defs>
					<clipPath id="SVGID_17_">
						<use xlink:href="#SVGID_16_"  style="overflow:visible;"/>
					</clipPath>
					<line class="st49" x1="-345.1" y1="731" x2="-346.3" y2="788.2"/>
				</g>
			</g>
			<g>
				<g>
					<defs>
						<path id="SVGID_18_" d="M-362.8,735.3c0,0,21.8-10.1,44.8,0.7c0,0,17.3,33.5,5.2,50.6c0,0-1.4,2.1-5.1,1.6l-49.1,0.1
							c0,0-2.6,0.2-3-2.6c-0.4-2.7-9.8-17.5,4.8-46C-364.4,738.2-363.6,736.8-362.8,735.3z"/>
					</defs>
					<clipPath id="SVGID_19_">
						<use xlink:href="#SVGID_18_"  style="overflow:visible;"/>
					</clipPath>
					<line class="st50" x1="-350.5" y1="731" x2="-351.8" y2="788.2"/>
				</g>
			</g>
			<g>
				<g>
					<defs>
						<path id="SVGID_20_" d="M-362.8,735.3c0,0,21.8-10.1,44.8,0.7c0,0,17.3,33.5,5.2,50.6c0,0-1.4,2.1-5.1,1.6l-49.1,0.1
							c0,0-2.6,0.2-3-2.6c-0.4-2.7-9.8-17.5,4.8-46C-364.4,738.2-363.6,736.8-362.8,735.3z"/>
					</defs>
					<clipPath id="SVGID_21_">
						<use xlink:href="#SVGID_20_"  style="overflow:visible;"/>
					</clipPath>
					<line class="st51" x1="-346.9" y1="731" x2="-348.2" y2="788.2"/>
				</g>
			</g>
			<g>
				<g>
					<defs>
						<path id="SVGID_22_" d="M-362.8,735.3c0,0,21.8-10.1,44.8,0.7c0,0,17.3,33.5,5.2,50.6c0,0-1.4,2.1-5.1,1.6l-49.1,0.1
							c0,0-2.6,0.2-3-2.6c-0.4-2.7-9.8-17.5,4.8-46C-364.4,738.2-363.6,736.8-362.8,735.3z"/>
					</defs>
					<clipPath id="SVGID_23_">
						<use xlink:href="#SVGID_22_"  style="overflow:visible;"/>
					</clipPath>
					<line class="st52" x1="-372.3" y1="757.7" x2="-308.4" y2="758.9"/>
				</g>
			</g>
			<g>
				<g>
					<defs>
						<path id="SVGID_24_" d="M-362.8,735.3c0,0,21.8-10.1,44.8,0.7c0,0,17.3,33.5,5.2,50.6c0,0-1.4,2.1-5.1,1.6l-49.1,0.1
							c0,0-2.6,0.2-3-2.6c-0.4-2.7-9.8-17.5,4.8-46C-364.4,738.2-363.6,736.8-362.8,735.3z"/>
					</defs>
					<clipPath id="SVGID_25_">
						<use xlink:href="#SVGID_24_"  style="overflow:visible;"/>
					</clipPath>
					<line class="st53" x1="-372.3" y1="754" x2="-308.4" y2="755.2"/>
				</g>
			</g>
			<g>
				<g>
					<defs>
						<path id="SVGID_26_" d="M-362.8,735.3c0,0,21.8-10.1,44.8,0.7c0,0,17.3,33.5,5.2,50.6c0,0-1.4,2.1-5.1,1.6l-49.1,0.1
							c0,0-2.6,0.2-3-2.6c-0.4-2.7-9.8-17.5,4.8-46C-364.4,738.2-363.6,736.8-362.8,735.3z"/>
					</defs>
					<clipPath id="SVGID_27_">
						<use xlink:href="#SVGID_26_"  style="overflow:visible;"/>
					</clipPath>
					<line class="st54" x1="-372.3" y1="750.3" x2="-308.4" y2="751.5"/>
				</g>
			</g>
			<g>
				<g>
					<defs>
						<path id="SVGID_28_" d="M-362.8,735.3c0,0,21.8-10.1,44.8,0.7c0,0,17.3,33.5,5.2,50.6c0,0-1.4,2.1-5.1,1.6l-49.1,0.1
							c0,0-2.6,0.2-3-2.6c-0.4-2.7-9.8-17.5,4.8-46C-364.4,738.2-363.6,736.8-362.8,735.3z"/>
					</defs>
					<clipPath id="SVGID_29_">
						<use xlink:href="#SVGID_28_"  style="overflow:visible;"/>
					</clipPath>
					<line class="st55" x1="-373.4" y1="780.5" x2="-307.2" y2="781.7"/>
				</g>
			</g>
			<g>
				<g>
					<defs>
						<path id="SVGID_30_" d="M-362.8,735.3c0,0,21.8-10.1,44.8,0.7c0,0,17.3,33.5,5.2,50.6c0,0-1.4,2.1-5.1,1.6l-49.1,0.1
							c0,0-2.6,0.2-3-2.6c-0.4-2.7-9.8-17.5,4.8-46C-364.4,738.2-363.6,736.8-362.8,735.3z"/>
					</defs>
					<clipPath id="SVGID_31_">
						<use xlink:href="#SVGID_30_"  style="overflow:visible;"/>
					</clipPath>
					<line class="st56" x1="-373.4" y1="776.8" x2="-307.2" y2="778"/>
				</g>
			</g>
			<g>
				<g>
					<defs>
						<path id="SVGID_32_" d="M-362.8,735.3c0,0,21.8-10.1,44.8,0.7c0,0,17.3,33.5,5.2,50.6c0,0-1.4,2.1-5.1,1.6l-49.1,0.1
							c0,0-2.6,0.2-3-2.6c-0.4-2.7-9.8-17.5,4.8-46C-364.4,738.2-363.6,736.8-362.8,735.3z"/>
					</defs>
					<clipPath id="SVGID_33_">
						<use xlink:href="#SVGID_32_"  style="overflow:visible;"/>
					</clipPath>
					<line class="st57" x1="-373.4" y1="773.2" x2="-307.2" y2="774.4"/>
				</g>
			</g>
			<g>
				<g>
					<defs>
						<path id="SVGID_34_" d="M-362.8,735.3c0,0,21.8-10.1,44.8,0.7c0,0,17.3,33.5,5.2,50.6c0,0-1.4,2.1-5.1,1.6l-49.1,0.1
							c0,0-2.6,0.2-3-2.6c-0.4-2.7-9.8-17.5,4.8-46C-364.4,738.2-363.6,736.8-362.8,735.3z"/>
					</defs>
					<clipPath id="SVGID_35_">
						<use xlink:href="#SVGID_34_"  style="overflow:visible;"/>
					</clipPath>
					<line class="st58" x1="-328.3" y1="731" x2="-327.1" y2="788.2"/>
				</g>
			</g>
			<g>
				<g>
					<defs>
						<path id="SVGID_36_" d="M-362.8,735.3c0,0,21.8-10.1,44.8,0.7c0,0,17.3,33.5,5.2,50.6c0,0-1.4,2.1-5.1,1.6l-49.1,0.1
							c0,0-2.6,0.2-3-2.6c-0.4-2.7-9.8-17.5,4.8-46C-364.4,738.2-363.6,736.8-362.8,735.3z"/>
					</defs>
					<clipPath id="SVGID_37_">
						<use xlink:href="#SVGID_36_"  style="overflow:visible;"/>
					</clipPath>
					<line class="st59" x1="-332" y1="731" x2="-330.8" y2="788.2"/>
				</g>
			</g>
			<g>
				<g>
					<defs>
						<path id="SVGID_38_" d="M-362.8,735.3c0,0,21.8-10.1,44.8,0.7c0,0,17.3,33.5,5.2,50.6c0,0-1.4,2.1-5.1,1.6l-49.1,0.1
							c0,0-2.6,0.2-3-2.6c-0.4-2.7-9.8-17.5,4.8-46C-364.4,738.2-363.6,736.8-362.8,735.3z"/>
					</defs>
					<clipPath id="SVGID_39_">
						<use xlink:href="#SVGID_38_"  style="overflow:visible;"/>
					</clipPath>
					<line class="st60" x1="-335.6" y1="731" x2="-334.4" y2="788.2"/>
				</g>
			</g>
			<g>
				<g>
					<defs>
						<path id="SVGID_40_" d="M-362.8,735.3c0,0,21.8-10.1,44.8,0.7c0,0,17.3,33.5,5.2,50.6c0,0-1.4,2.1-5.1,1.6l-49.1,0.1
							c0,0-2.6,0.2-3-2.6c-0.4-2.7-9.8-17.5,4.8-46C-364.4,738.2-363.6,736.8-362.8,735.3z"/>
					</defs>
					<clipPath id="SVGID_41_">
						<use xlink:href="#SVGID_40_"  style="overflow:visible;"/>
					</clipPath>
					<line class="st61" x1="-330.1" y1="731" x2="-328.8" y2="788.2"/>
				</g>
			</g>
			<g>
				<g>
					<defs>
						<path id="SVGID_42_" d="M-362.8,735.3c0,0,21.8-10.1,44.8,0.7c0,0,17.3,33.5,5.2,50.6c0,0-1.4,2.1-5.1,1.6l-49.1,0.1
							c0,0-2.6,0.2-3-2.6c-0.4-2.7-9.8-17.5,4.8-46C-364.4,738.2-363.6,736.8-362.8,735.3z"/>
					</defs>
					<clipPath id="SVGID_43_">
						<use xlink:href="#SVGID_42_"  style="overflow:visible;"/>
					</clipPath>
					<line class="st62" x1="-333.8" y1="731" x2="-332.5" y2="788.2"/>
				</g>
			</g>
		</g>
	</g>
</g>
<g>
	<path class="st63" d="M-213,540.5c-0.2-0.6-1-0.9-1.7-0.6c-0.5,0.2-1,0.5-1.3,0.9c-0.1,0.1-0.2,0-0.2-0.1c-0.1-0.7-0.9-1.3-1.7-1.5
		c-1-0.2-2-0.4-2.5-1.1c-0.2-0.5-0.6-1.3-1.1-1c0.1,0.7-0.1,1.8-0.9,1.7c-0.2,0-0.4-0.1-0.6-0.2c-1-1-0.6-3.2-3.2-3.2
		c-0.4,0-0.7,0.1-1.1,0.4c-1.7,1.1-1.8,3.1-1.7,4.9c-0.7-0.1-1.3-0.4-2-1c-0.2-0.2-0.6,0-0.5,0.2c0.1,0.4,0.2,0.9,0.6,1
		c-0.5,0.2-1.1,0.2-1.6,0c-0.1-0.1-0.2,0-0.2,0.2c0.1,0.6,1.5,1.1,1.1,1.7c-0.2,0.2-0.5,0.2-0.7,0.1c-0.7-0.2-1.3-0.4-2.1-0.6
		c-0.4,0.2-0.2,0.7,0.1,1.1c0.2,0.2,0.6,0.6,0.6,1c-0.1,0.7-1.2,0.6-1.8,0.4l0.6,2.7c-0.6,0-1.1-0.2-1.6-0.5
		c-0.6,0.2-0.4,1.2,0.1,1.7s1.1,1,1.1,1.6c-1.2-0.5-2.5-0.6-3.7-0.1c-0.4,1.3,0.9,1,1.3,1.5c0.5,0.5-0.1,1.2-0.6,1.6
		s-1.3,0.7-1.2,1.3c0.5,0.2,1,0.6,1,1.1c0,1.2-2.5,1-2.5,2.1c0,0.6,0.7,1.3,0.2,1.7c-0.5,0.4-1.3-0.5-1.6,1c0,0.1,0,0.2,0,0.2
		c0.4,0.9,1.3,1,2.1,1c-0.5,1-1.6,1.5-2.6,1.2c-0.1,0.5-0.1,1,0.1,1.5c-0.2,0.2-0.6,0.2-0.9,0.2c-0.1,1.2,0.2,2.5,0.9,3.3
		c-1-0.2-1.7,1.1-1.1,1.8c0.5,0.6,1.7,0.7,1.6,1.6c-0.6,0.1-1.3,0.2-1.8,0.4s-1,0.4-0.9,0.7c0.1,0.2,0.2,0.2,0.5,0.5
		c0.5,0.5,0.2,1.2-0.1,1.7c-0.4,0.6-0.9,1-1,1.6c-0.4,1.3,1.2,2.9,0.6,4.3c-0.2,0.2-0.4,0.6-0.4,0.9c0,0.4,0.2,0.6,0.4,1
		c0.5,1.2-1.2,2.8-0.2,3.8c-1,0.6-2,1.5-1.3,2.5c0.2,0.2,0.4,0.5,0.6,0.6c0.1,0.1,0.1,0.2,0.1,0.2c0.5,1.3-1,2-1.7,1.3
		c0.1,1.3,1,2.8,2.1,3.6c-0.5,0.5-2,1.1-1.8,0.2c-1,1.2-0.4,1.3,0,1.7c0.2,0.2,0.5,0.6,0.6,1c0.1,0.5,0.2,1,0.6,1.3
		c0.4,0.2,0.6,0.9,0.6,1.3c0.2,0.9,0.6,2,1.3,1.8c0.2,0,0.4-0.1,0.5-0.1c0.5,0,0.6,0.6,0.7,1c0.6,1.7,2.5,2.7,4.2,2.8
		c1.7,0.2,3.6-0.5,5.2-1.2c0.5-0.2,1-0.5,1.5-0.4c0.9,0.1,1.7,1,2.5,0.6c0.1,1.3,0.9,2.7,2.1,3.2c1.2,0.6,2.8,0.1,3.6-1.1
		c0.2-0.4,0.2-0.9,0.6-1.1c0.2-0.2,0.6-0.2,1-0.2c1.2,0,2.5-0.1,3.6-0.1c1,0,2,0,2.9-0.1c0.9,0,1.7,0,2.5,0.2c0.5,0.2,1,0.5,1.3,0.4
		c0.9-0.1,1.2-1.1,2-1.3c0.7-0.2,1.6,0.2,2.1,0.9c0.5,0.6,0.9,1.3,1.3,1.8c1.3,1.3,4.2,0.6,4.8-1.3c0.1-0.4,0.2-0.7,0.5-1
		c0.2-0.2,0.5-0.6,0.6-1l0,0c1-0.1,1.3,1.2,2.2,1.3c0.6,0,1.1-0.6,1.7-0.7c0.4,0,0.7,0.2,1,0.2c2.6,1.2,5.8,0.6,8.5-0.2
		c0.5-0.1,0.9-0.2,1.2-0.5c0.9-0.7,0.6-2.1,0.1-3.2c0.7-0.6,1-1.8,0.4-2.6c0.2,0,0.6,0,0.9-0.1c0.1-0.6-0.2-1.3-0.6-1.7
		c0.6-0.2,1.7-0.9,2.1-1.3c0.4-0.5,0.7-1.3,0.4-1.8c-0.2-0.2-0.5-0.5-0.7-0.7c-0.2-0.2-0.4-0.6-0.2-1c0.2-0.2,0.6-0.2,0.7-0.6
		c0.2-0.4-0.2-0.9-0.4-1.2c-0.6-1,0.1-2.8-1-3.3c1-0.6,1.2-2.2,0.2-2.9c-0.2-0.2-0.4-0.2-0.5-0.6c-0.1-0.2,0.1-0.6,0.2-0.9
		c0.4-1-0.4-2.1-1.3-2.2c-0.2-1.2,1.6-1.8,1.7-2.9c0-0.7-0.6-1.3-1-1.8c-0.5-0.6-0.9-1.3-0.4-2c-1-0.2-2.1-0.6-2.1-1.7
		c0-0.9,1-1.7,0.6-2.5c-0.7,0.1-1.6-0.4-2-1c-0.4-0.6-0.4-1.6,0.2-2.2c0.2-0.2,0.4-0.4,0.5-0.6c0.4-0.9-0.6-1.7-1.5-2.1l0.1-2
		c-0.9-0.2-1.3-1.3-1-2.1c-0.9,0.1-1.7-0.4-2.1-1.1c-0.4-0.7-0.2-1.8,0.6-2.2c-0.2-0.5-0.6-0.9-1-1.2c0.2-0.2,0.6-0.6,0.6-1
		c0-0.4-0.5-0.7-0.7-0.6l0.1-1.3l-1.1-0.1c-0.6-0.5-0.7-1.3-0.2-2c-0.6,0.2-1.2,0-1.6-0.5c-0.4-0.5-0.2-1.2,0-1.6
		c-0.6,0.2-1.3,0.1-1.5-0.5c-0.2-0.5-0.1-1-0.2-1.6c-0.1-0.6-0.6-1.1-1-1c0.2-0.6,0.6-1.3,0.9-2l-1.6-0.2l-0.2-1.8
		c-0.7,0-1.5,0.2-2.1,0.7c-0.4-2.1-1.6-4.2-3.2-5.6c-0.2-0.2-0.6-0.6-1-0.6c-1-0.2-1.7,0.6-2.1,1.3c-0.5,0.9-0.7,1.7-1.5,2.3
		c-0.2,0.1-0.2,0.2-0.5,0.2c-0.6,0-0.7-1-1.3-1C-212.4,538.4-212.3,540.8-213,540.5z"/>
	<circle cx="-224.3" cy="551.8" r="2.9"/>
	<circle cx="-209.2" cy="552.3" r="2.8"/>
	<path d="M-214.1,556.9c-1-0.9-3.1-2-5.2,0.1c-0.2,0.2-0.4,0.7-0.2,1.1c0.4,1,1.2,2.5,2.8,2.5c0,0,1.7,0.1,2.8-2.3
		C-213.6,557.7-213.7,557.2-214.1,556.9z"/>
	<path class="st64" d="M-227.2,538.6c0-0.2,0.1-0.6,0.2-0.9c0.1-0.2,0.4-0.5,0.6-0.5c0.4,0,0.6,0.4,1,0.6c0.2,0.2,0.2,0.5,0.4,0.6
		c0.2,0.5,0.5,1,0.6,1.3c0.2,0.4,0.2,0.7,0.2,1.1s-0.1,0.9-0.4,1c-0.7,0.6-1.8,0.4-2.5-0.4C-227.5,540.8-227.4,539.6-227.2,538.6z"
		/>
	<path class="st64" d="M-204.9,538.6c0-0.2-0.1-0.6-0.2-0.9c-0.2-0.2-0.4-0.5-0.6-0.5c-0.4,0-0.6,0.4-1,0.6
		c-0.2,0.2-0.2,0.5-0.4,0.6c-0.2,0.5-0.5,1-0.6,1.3c-0.2,0.4-0.2,0.7-0.2,1.1s0.1,0.9,0.4,1c0.7,0.6,1.8,0.4,2.5-0.4
		C-204.7,540.8-204.7,539.6-204.9,538.6z"/>
	<path class="st65" d="M-216.8,556.4c0.4,0,0.9,0.1,1.2,0.2c0.4,0.2,0.7,0.5,1,0.7c0,0.1,0.1,0.2,0.1,0.2c-0.1,0-0.2-0.1-0.2-0.2
		c-0.2-0.2-0.5-0.5-0.9-0.6c-0.4-0.1-0.6-0.1-1-0.1c-0.4,0-0.6,0-1,0c-0.2,0-0.6,0.1-1,0.2c0.1-0.2,0.5-0.6,0.7-0.6
		C-217.5,556.4-217.2,556.4-216.8,556.4z"/>
	<path class="st66" d="M-223.4,552.3c-0.1-0.9-0.1-1.7,0.2-2.5c-0.2,0.1-0.5,0.2-0.6,0.4c-0.1,0.2-0.2,0.2-0.2,0.5
		C-224,551.3-223.9,552.1-223.4,552.3C-223.4,552.4-223.4,552.4-223.4,552.3z"/>
	<g>
		<path class="st67" d="M-137.3,340.4c0,0-12.3,4.8-14.2-24.5c0,0-2.7,6.6-13.7,2.9c0,0,6.6,20-12.5,22c0,0,0,14,20.2,18
			S-137.3,340.4-137.3,340.4z"/>
		<path class="st68" d="M-153.4,325.1c0,0,9.3-6.1,9.6-15.6c0,0,9.8-29.9-12.4-37.1c0,0-23.7-4.8-20.6,27.4c0,0,1.8,17.5,12.3,24
			C-164.8,324-158.9,330.2-153.4,325.1z"/>
		<path class="st69" d="M-166.5,272.9c0,0-5.6-10.4,7.6-10.9c0,0,9.1,0.4,5,11.4"/>
		<path class="st33" d="M-167.7,273.9c0,0,8.8-9.3,13.9-1.2C-153.9,272.8-152.4,276.8-167.7,273.9z"/>
		<path class="st69" d="M-172.1,282.6c0,0-6.1,7.2-2.3,22.5c0,0,0.1-10.2,2.6-12.3c0,0-1.7,8.2,0.1,10.2c0,0,0.9-6.3,1.7-9
			c0,0,2.1-3.9,7.7-7.7c0,0-7.4,4.4-4.7,8.6c0,0-0.5-5.5,13.4-10.8c0,0,4,1,7,9.6l1.7-2.5c0,0,4.3,5.9,1.3,16
			c0,0,13.7-16.6-2.9-30.6c0,0-18.8-11.2-30.4,2.9c0,0-8.7,10.7-1.7,22.8l2.7-7.1"/>
		<path class="st67" d="M-187.4,444.8c0,0,22.2,123.1,12.9,162.7l5.4,0.4c0,0,10.2-51.7,5.3-75.2l0.5-74.4L-187.4,444.8z"/>
		<path class="st67" d="M-130.9,446.3c0,0-24,122.7-15.3,162.6l-5.4,0.2c0,0-9.4-51.8-4.2-75.3l0.6-74.4L-130.9,446.3z"/>
		<path class="st70" d="M-182.2,368.3c-1.3,12.6,4.4,28.1,5.8,40.6c18.3,2.3,16.8,3.9,34.6-1c0.6-0.2,2.5-2.5,2.8-2.8
			c0.4-0.4,1.2-1.8,1.3-2.3c1.1-4.8,2.1-9.2,2.5-14.2c0.2-3.8,1.6-13,2.5-17.4c0.1-0.4,0.6-0.5,0.7-0.1l2.8,5.6
			c1.3,1.6,3.8,1.1,5.8,0.4c3.3-1.3,6.6-2.8,9.7-4.8c1-0.6,1.2-1.8,0.6-2.8c-4.9-7.6-9.1-15.7-12.4-24.2c-1-2.5-2.8-4.3-5.2-5.5
			c-4.3-2.1-6.6-2.8-12.1-1.5c-1.6,0.4-3.3,0.6-4.9,1.5c-6.4,4-14.6,3.8-21.8,1.8c-2.7-0.7-5.4-1.7-8.1-1.6
			c-4.4,0.1-8.5,2.8-11.7,5.9c-3.7,3.7-9,8.1-8,13.1c1.2,6.1,4.9,11.5,10.1,15.1c1.1,0.7,2.6,0.2,3.2-1c0.7-1.8,1.5-3.7,2.2-5.6"/>
		<path class="st71" d="M-169.8,366.2c-0.4,0-0.9,0-1.2,0.1c-0.5,0.1-1,0.4-1.3,0.6c-0.6,0.4-1.3,0.6-2.1,1c1.7,1,2.5,3.1,4.2,3.9
			c1,0.5,2.1,0.5,3.1,0.2s2.1-0.6,2.9-0.9c0-1-0.6-2-1.3-2.8c-0.5-0.6-1-1.2-1.5-1.6C-167.7,366.2-168.8,366.2-169.8,366.2z"/>
		<path class="st71" d="M-172.3,366.9c-0.2,0-0.6,0.1-0.7,0c-0.1,0-0.2-0.1-0.2-0.2c-0.2-0.1-0.2-0.2-0.5-0.5"/>
		<path class="st71" d="M-171,366.3c-0.1,0-0.5,0-0.6,0c-0.2,0-0.4-0.1-0.6-0.2c-0.2-0.1-0.2-0.2-0.4-0.5"/>
		<path class="st71" d="M-173.5,367.4c-0.2,0.1-0.7,0.2-1,0.2c-0.2,0-0.6-0.1-0.7-0.2"/>
		<ellipse class="st71" cx="-168.3" cy="369.1" rx="2.8" ry="2.8"/>
		<path class="st72" d="M-168.1,368.1c0-0.4,0-0.4,0-0.6c0-0.2,0-0.6,0-0.9v-0.1l-0.1-0.1c-0.2,0-0.4-0.1-0.5,0h-0.1
			c0.1,0.2,0,0.6-0.1,0.7c-0.2,1-0.2,2.1-0.1,3.1c0,0.5,0.1,1,0.2,1.3c0,0.1,0.1,0.2,0.2,0.2c0.1,0.1,0.2,0.1,0.4,0.1s0.2,0,0.2,0
			s0.2-0.1,0.1-0.2c0-0.1,0-0.1,0-0.2c-0.1-0.2-0.1-0.4-0.1-0.6C-168,370.1-168,369.1-168.1,368.1"/>
		<path class="st71" d="M-146.5,365.8c0.4,0,0.9-0.1,1.2,0c0.5,0.1,1,0.2,1.3,0.5c0.6,0.2,1.3,0.5,2.1,0.6c-1.6,1.1-2.1,3.3-3.7,4.3
			c-0.9,0.6-2,0.7-2.9,0.6c-1-0.1-2.1-0.2-3.1-0.5c-0.1-1,0.5-2.1,1-2.9c0.4-0.6,0.7-1.3,1.3-1.7
			C-148.6,366.1-147.6,365.8-146.5,365.8z"/>
		<path class="st71" d="M-143.9,366.2c0.2,0,0.6,0.1,0.7-0.1c0.1,0,0.1-0.1,0.2-0.2c0.2-0.2,0.2-0.2,0.4-0.5"/>
		<path class="st71" d="M-145.3,365.8c0.1,0,0.4-0.1,0.6-0.1c0.2-0.1,0.4-0.2,0.5-0.2c0.2-0.1,0.2-0.2,0.2-0.5"/>
		<path class="st71" d="M-142.7,366.5c0.2,0,0.7,0.1,1,0c0.2-0.1,0.6-0.2,0.7-0.4"/>
		<ellipse class="st71" cx="-147.6" cy="369" rx="2.8" ry="2.8"/>
		<path class="st72" d="M-148,368c0-0.4-0.1-0.4-0.1-0.6c0-0.2-0.1-0.6-0.1-0.9v-0.1l0.1-0.1c0.2-0.1,0.2-0.1,0.5-0.1h0.1
			c0,0.2,0.1,0.6,0.2,0.7c0.4,1,0.5,2.1,0.5,3.1c0,0.5,0.1,1-0.1,1.5c0,0.1-0.1,0.2-0.1,0.2c-0.1,0.1-0.2,0.1-0.4,0.1s-0.2,0-0.2,0
			s-0.2-0.1-0.2-0.2s0-0.1,0-0.2c0.1-0.2,0.1-0.4,0-0.6C-148,370-148,368.9-148,368"/>
		<path class="st71" d="M-171,376.1c-0.9-0.6-2-1-2.9-1.2c-0.7-0.2-1.5-0.4-2.2-0.6"/>
		<path class="st71" d="M-171.3,378c-0.5,0.1-1-0.2-1.5-0.4c-0.4-0.1-0.7,0-1.1,0.2c-0.7,0.2-1.5,0.5-2.2,0.9"/>
		<path class="st71" d="M-170.5,380c-1-0.1-2,0.4-2.8,1c-1,0.6-1.7,1.3-2.3,2.3"/>
		<path class="st71" d="M-145.5,376c0.6-0.4,1.3-0.7,2-1.2c0.2-0.2,0.6-0.4,0.9-0.5c0.2-0.1,0.6-0.1,1-0.2c0.7-0.1,1.6-0.1,2.3-0.2"
			/>
		<path class="st71" d="M-144.9,378c0.6-0.2,1.3-0.2,2-0.2c1.3-0.1,2.7,0.2,3.9,0.6"/>
		<path class="st71" d="M-144.9,380.2c0.6,0.1,1.3,0.2,1.8,0.5c0.2,0.1,0.4,0.1,0.6,0.2c0.2,0.1,0.4,0.4,0.6,0.6
			c0.6,0.7,1.7,1,2.1,1.8"/>
		<path class="st71" d="M-156.2,374.2c0.2,0,0.6,0,1,0.1c0.2,0.1,0.6,0.4,0.6,0.6c0.1,0.4-0.2,0.7-0.6,1c-0.2,0.2-0.5,0.5-0.6,0.6
			c-0.2,0.2-0.6,0.6-1,0.6s-0.6-0.2-0.9-0.6c-0.2-0.4-0.6-0.7-1-1.2c-0.1-0.2-0.2-0.5-0.2-0.6c0.1-0.2,0.5-0.4,0.9-0.4
			C-157.3,374.2-156.7,374.2-156.2,374.2z"/>
		<path class="st71" d="M-153.5,382.7c-0.1-0.2-0.2-0.2-0.4-0.5c-0.5-0.5-1-0.9-1.3-1.2c-1.3-0.9-2.8,1-3.3,2.1"/>
		<line class="st71" x1="-156.4" y1="377" x2="-156.3" y2="380.9"/>
		<path class="st73" d="M-177.9,404.2l85.2,58.7c0,0-64.8,57.8-133.1,3.9C-225.9,466.7-208.6,424.8-177.9,404.2z"/>
		<path class="st73" d="M-177.9,404.2c0,0,26.4,9.3,39,0.7c0,0,33.6,24,46.1,57.9L-177.9,404.2z"/>
		<path class="st74" d="M-159.6,309.1c0,0,1.5,1.7,3.6,0.1"/>
		<g>
			<path class="st75" d="M-159,317.3c0,0,1.1,0.7,2.2-0.1c0,0,2.3,1.2,2.2,2c0,0-0.6,1.1-3.2,1.7
				C-157.8,320.9-160.8,319.7-159,317.3z"/>
			<path class="st75" d="M-156.7,317.5c0,0-1.1,0.6-2.1-0.2c-0.1-0.1-1.1,0.6-1.2,0.7c-0.5,0.4-1.1,0.4-1.7,0.2
				c0.6,1.5,2.6,2.3,4,2.7C-157.8,320.9-154.8,319.7-156.7,317.5z"/>
			<path class="st75" d="M-158.9,317.5c0,0,1.1,0.6,2.1-0.2c0.1-0.1,1.1,0.6,1.2,0.7c0.5,0.4,1.1,0.4,1.7,0.2
				c-0.6,1.5-2.6,2.3-4,2.7C-157.8,320.9-160.6,319.7-158.9,317.5z"/>
		</g>
		<g>
			<path class="st72" d="M-157.5,302c0,0,1.2,0.4,3.9-2.5c0.4-0.4,0.7-0.7,1.2-1c2.1-1.1,8.2-3.8,14.2-0.2c0,0,0.9,1.6-4.3,10.1
				c-0.4,0.6-1,1-1.5,1.1c-2.2,0.6-7.6,1.7-10.6-2.3c0,0-2.3-4.3-3.2-3.8C-157.8,303.5-159.7,302.2-157.5,302z"/>
			<path class="st72" d="M-158.1,302c0,0-1.2,0.2-3.8-2.6c-0.4-0.4-0.7-0.7-1.2-1c-2.1-1.2-8.1-4-14.2-0.6c0,0-1,1.5,3.9,10.2
				c0.2,0.6,0.9,1,1.5,1.2c2.2,0.7,7.6,2,10.7-2c0,0,2.5-4.2,3.6-3.7C-157.8,303.5-155.9,302-158.1,302z"/>
		</g>
		<path class="st76" d="M-154,302.2c0,0,3.6-4.4,13.7-3.2c0,0,0.6,7.4-6.3,9.3c0,0-5.2,1.6-7.6-3.6
			C-154.1,304.8-155.1,303.1-154,302.2z"/>
		<path class="st76" d="M-161.7,301.5c0,0-3.6-4.4-13.7-3.2c0,0-0.6,7.4,6.3,9.3c0,0,5.2,1.6,7.6-3.6
			C-161.6,304.2-160.6,302.5-161.7,301.5z"/>
		<line class="st77" x1="-149.4" y1="300.3" x2="-152.1" y2="304.9"/>
		<line class="st77" x1="-151" y1="300.8" x2="-153.6" y2="305.3"/>
		<line class="st77" x1="-171.8" y1="298.1" x2="-174.3" y2="302.7"/>
		<line class="st77" x1="-173" y1="298.1" x2="-175" y2="301.6"/>
		<path class="st33" d="M-148,264.9c0.4,0.2,0.6,0.6,0.7,1c0.5,0.9,0.9,1.7,0.6,2.6c-0.1,1-0.7,1.7-1.5,2.2
			c-0.7,0.5-1.7,0.9-2.5,1.2c-1.3,0.5-2.8,1-4.3,1.5c2.1-1.1,4.4-1.5,6.7-1.7c1.7-0.1,3.4-0.1,5.2,0.5c1.7,0.5,3.2,1.5,4,2.9
			c0.2,0.6,0.6,1.1,0.5,1.7s-0.5,1.2-1,1.3c-0.4,0.1-0.6,0-1-0.1c-4.8-1-9.2-2.7-13.5-4.9c0.6-2.8,1.5-5.9,3.7-7.7
			C-149.4,264.9-148.6,264.5-148,264.9z"/>
		<path class="st67" d="M-197.5,385.3c-0.2,1.3-0.6,2.5-0.7,3.8c-1,6-2.2,12-3.7,17.9c-3.1,11.9-7,23.4-10.8,35.1
			c-1.2,3.6-2.5,7.4-2.5,11.2c0,1.3,1.5,2.2,2.6,1.5c0.7-0.5,1.7-1,2.1-1.7c0.1-0.2,0.2-0.6,0.4-0.9c5-11.2,10.1-22.1,13.7-33.7
			c1-2.8,1.7-5.8,2.5-8.6c0.4-1.3,0.6-2.8,1-4.3c0.2-1.3,1-2.6,1.3-3.9c1.6-5.5,1.8-11.4,3.2-17.1c0.7-3.1,1.7-6,1.7-9.1
			c0-0.2,0.1-0.4,0-0.6c-0.1-0.2-0.6-0.5-0.7-0.6c-3.2-2.3-5.9-5.3-7.7-8.8c-0.2,2.1-0.4,3.9-0.6,6.1c-0.1,2.9-0.2,5.9-0.6,8.8
			C-196.9,382.1-197.2,383.7-197.5,385.3z"/>
	</g>
	<path class="st78" d="M-175,531.5h11.2c0,0,5.6,27.4-5.4,77.2l-5.4-0.4L-175,531.5z"/>
	<path class="st78" d="M-144.4,532.1h-11.4c0,0-6.7,28.6,4.3,77.2l5.4-0.4L-144.4,532.1z"/>
	<path class="st40" d="M-242.2,560.5c8.1,4.3,19.3,7,28.3,6.5c8.5-0.6,17.1-3.6,22.5-10.1c6.7-8.2,6.6-20.6,2.1-30.2
		c-4.5-9.7-12.6-17.1-21.1-23.4c-4-3.1-8.3-6-11.8-9.8s-6-8.6-6-13.7c0-3.9,1.5-7.7,3.2-11.2c2.7-5.2,6.1-10.1,10.3-14.2"/>
	<path class="st63" d="M-245.5,592.3c-1.7-1.2-2.5-3.2-2.9-5.3c-1-3.9-1.1-7.9-0.6-11.8c0.7,1.5,1.6,2.8,2.3,4.3
		c1.1,2.1,2.2,4,3.7,5.8"/>
	<g>
		<circle class="st24" cx="-156.3" cy="353.7" r="15"/>
		<circle class="st25" cx="-160.1" cy="343" r="0.5"/>
		<circle class="st25" cx="-165.4" cy="345.4" r="0.5"/>
		<circle class="st25" cx="-154.7" cy="342.4" r="0.5"/>
		<circle class="st25" cx="-149.8" cy="344.7" r="0.5"/>
		<circle class="st25" cx="-152.8" cy="349.7" r="0.5"/>
		<circle class="st25" cx="-161" cy="350.2" r="0.5"/>
		<circle class="st25" cx="-166.7" cy="350.8" r="0.5"/>
		<circle class="st25" cx="-166.2" cy="356.9" r="0.5"/>
		<circle class="st25" cx="-160.6" cy="356.2" r="0.5"/>
		<circle class="st25" cx="-163.3" cy="361.6" r="0.5"/>
		<circle class="st25" cx="-158.6" cy="363.8" r="0.5"/>
		<circle class="st25" cx="-156.3" cy="360.2" r="0.5"/>
		<circle class="st25" cx="-153.2" cy="363.5" r="0.5"/>
		<circle class="st25" cx="-148.5" cy="360.5" r="0.5"/>
		<circle class="st25" cx="-152.4" cy="355.5" r="0.5"/>
		<circle class="st25" cx="-146.1" cy="356" r="0.5"/>
		<circle class="st25" cx="-146.7" cy="349.1" r="0.5"/>
		<path class="st26" d="M-159.9,351.3c0,0-2-0.6-2,1.5c0,0,0.1,1.7,2,1"/>
		<line class="st26" x1="-161.5" y1="354.8" x2="-160" y2="354.8"/>
		<text transform="matrix(1 0 0 1 -166.7422 355.0235)" class="st25 st27 st79">M  VITIES</text>
		<g>
			<g>
				<path class="st25" d="M-156.3,345.7c0,0,0.2-1.6,3.3-1.8C-153,343.8-154.3,346.2-156.3,345.7z"/>
				<path class="st25" d="M-158.9,345.6c0,0,0.2-1.6,3.3-1.8C-155.6,343.7-157,346.2-158.9,345.6z"/>
				<path class="st25" d="M-161.5,345.7c0,0,0.2-1.6,3.2-2.1C-158.3,343.7-159.6,346.2-161.5,345.7z"/>
				<path class="st25" d="M-156.3,346.1c0,0,0.1,1.6,3.1,2.3C-153.4,348.4-154.5,345.7-156.3,346.1z"/>
				<path class="st25" d="M-158.9,346.1c0,0,0.2,1.6,3.2,2.1C-155.7,348-157,345.6-158.9,346.1z"/>
				<path class="st25" d="M-161.3,346.2c0,0,0.2,1.6,3.3,2C-158.1,348-159.5,345.6-161.3,346.2z"/>
			</g>
		</g>
		<path class="st25" d="M-154.3,346.1c0,0,1.6-1.6,5.3,0.5C-149.1,346.5-152.8,348-154.3,346.1z"/>
		<path class="st25" d="M-162,345.9c0,0,0.2,1.1-1.6,2C-163.4,347.9-163.1,346.1-162,345.9z"/>
	</g>
	<g>
		<circle class="st24" cx="-216.1" cy="572.6" r="4.8"/>
		<circle class="st25" cx="-217.3" cy="569.2" r="0.2"/>
		<circle class="st25" cx="-219" cy="570" r="0.2"/>
		<circle class="st25" cx="-215.6" cy="569" r="0.2"/>
		<circle class="st25" cx="-214.1" cy="569.6" r="0.2"/>
		<circle class="st25" cx="-215" cy="571.2" r="0.2"/>
		<circle class="st25" cx="-217.5" cy="571.5" r="0.2"/>
		<circle class="st25" cx="-219.4" cy="571.6" r="0.2"/>
		<circle class="st25" cx="-219.3" cy="573.5" r="0.2"/>
		<circle class="st25" cx="-217.5" cy="573.3" r="0.2"/>
		<circle class="st25" cx="-218.3" cy="575" r="0.2"/>
		<circle class="st25" cx="-216.9" cy="575.6" r="0.2"/>
		<circle class="st25" cx="-216.1" cy="574.5" r="0.2"/>
		<circle class="st25" cx="-215.2" cy="575.6" r="0.2"/>
		<circle class="st25" cx="-213.7" cy="574.6" r="0.2"/>
		<circle class="st25" cx="-214.8" cy="573" r="0.2"/>
		<circle class="st25" cx="-213" cy="573.3" r="0.2"/>
		<circle class="st25" cx="-213.1" cy="571.1" r="0.2"/>
		<path class="st80" d="M-217.3,571.8c0,0-0.6-0.2-0.6,0.5c0,0,0,0.6,0.6,0.2"/>
		<line class="st80" x1="-217.8" y1="572.9" x2="-217.3" y2="572.9"/>
		<text transform="matrix(1 0 0 1 -219.4189 572.9297)" class="st25 st27 st81">M  VITIES</text>
		<g>
			<g>
				<path class="st25" d="M-216.2,570c0,0,0.1-0.5,1-0.6C-215.1,569.5-215.6,570.2-216.2,570z"/>
				<path class="st25" d="M-216.9,570c0,0,0.1-0.5,1-0.6C-215.9,569.4-216.4,570.1-216.9,570z"/>
				<path class="st25" d="M-217.8,570c0,0,0.1-0.5,1-0.6C-216.8,569.4-217.2,570.1-217.8,570z"/>
				<path class="st25" d="M-216.2,570.1c0,0,0,0.5,1,0.7C-215.2,570.8-215.6,570-216.2,570.1z"/>
				<path class="st25" d="M-217,570.1c0,0,0.1,0.5,1,0.6C-216.1,570.7-216.4,570-217,570.1z"/>
				<path class="st25" d="M-217.8,570.1c0,0,0.1,0.5,1,0.6C-216.8,570.7-217.2,570-217.8,570.1z"/>
			</g>
		</g>
		<path class="st25" d="M-215.6,570.1c0,0,0.5-0.5,1.7,0.2C-213.9,570.4-215,570.7-215.6,570.1z"/>
		<path class="st25" d="M-217.9,570.1c0,0,0.1,0.4-0.5,0.6C-218.4,570.7-218.3,570.1-217.9,570.1z"/>
	</g>
	<path class="st67" d="M-122.4,411.2c-11.7-6-18.8-18.3-22.8-30.8c-2.1-6.5-3.7-13.4-8-18.8c-0.4-0.4-0.6-0.9-1.2-1
		c-1.1-0.5-2.5,0.4-2.9,1.5c-0.5,1.1-0.4,2.5-0.2,3.7c2,13.5,7.7,26.3,16.3,36.9c4.3,5.3,9.2,10.1,14.7,14c3.2,2.2,12,5.2,10.7-9.9
		c-0.2-3.3-0.1-6.6-0.1-9.9c0.1-7.5-0.6-14.7-1.5-22.1c-2.5,1.2-4.8,2.5-7.4,3.1c1.7,12.4,0.4,24.7,2,37.1c0.2,1.3,0.4,2.8,0.6,4.2"
		/>
</g>
</svg>
