<svg xmlns="http://www.w3.org/2000/svg" xmlns:xlink="http://www.w3.org/1999/xlink" viewBox="-331 0.5 792 612" enable-background="new -331 0.5 792 612"><style type="text/css">.st0{fill:#DBDFD5;} .st1{fill:#97BC5C;} .st2{fill:none;stroke:#FFFFFF;stroke-width:5;stroke-miterlimit:10;} .st3{font-family:&apos;Raleway-Medium&apos;;} .st4{font-size:37.8245px;} .st5{font-family:&apos;Raleway-Light&apos;;} .st6{font-size:10.0351px;} .st7{fill:#4C4A49;} .st8{fill:#DD2428;} .st9{fill:#FFFFFF;} .st10{fill:#273C93;} .st11{font-family:&apos;MyriadPro-Bold&apos;;} .st12{font-size:19.0053px;} .st13{fill:#FFF100;stroke:#FCB813;stroke-width:0.4889;stroke-miterlimit:2.6131;} .st14{fill:#2E3191;stroke:#231F20;stroke-width:0.4889;stroke-miterlimit:2.6131;} .st15{fill:#FFCA05;stroke:#231F20;stroke-width:0.4889;stroke-miterlimit:2.6131;} .st16{fill:#221E1F;} .st17{fill:#D4383B;} .st18{fill:#CB2730;} .st19{fill:#A22F33;} .st20{fill:#647275;stroke:#A22F33;stroke-width:3;stroke-miterlimit:10;} .st21{fill:#B3B6B7;} .st22{fill:none;stroke:#A22F33;stroke-width:4;stroke-miterlimit:10;} .st23{fill:#3E4D53;} .st24{fill:#B28E46;} .st25{fill:#251407;} .st26{fill:none;stroke:#251407;stroke-width:0.75;stroke-miterlimit:10;} .st27{font-family:&apos;MyriadPro-Regular&apos;;} .st28{font-size:6.843px;} .st29{fill:#272220;} .st30{fill:#F7F6F1;stroke:#272220;stroke-width:3;stroke-miterlimit:10;} .st31{fill:#F7F6F1;} .st32{fill:none;stroke:#F7F6F1;stroke-width:5;stroke-miterlimit:10;} .st33{fill:#86BAAD;} .st34{font-family:&apos;Raleway-ExtraLight&apos;;} .st35{font-size:20.7207px;} .st36{fill:none;stroke:#251407;stroke-width:2;stroke-miterlimit:10;} .st37{font-size:13.8086px;} .st38{display:none;} .st39{display:inline;} .st40{fill:none;stroke:#120F0D;stroke-width:2;stroke-miterlimit:10;} .st41{fill:#F0D4B2;} .st42{opacity:0.5;clip-path:url(#SVGID_2_);fill:#F0D4B2;stroke:#120F0D;stroke-miterlimit:10;enable-background:new ;} .st43{opacity:0.65;clip-path:url(#SVGID_4_);fill:#F0D4B2;stroke:#E32A26;stroke-miterlimit:10;enable-background:new ;} .st44{opacity:0.65;clip-path:url(#SVGID_7_);fill:#F0D4B2;stroke:#E32A26;stroke-miterlimit:10;enable-background:new ;} .st45{opacity:0.65;clip-path:url(#SVGID_9_);fill:#F0D4B2;stroke:#E32A26;stroke-miterlimit:10;enable-background:new ;} .st46{opacity:0.65;clip-path:url(#SVGID_11_);fill:#F0D4B2;stroke:#E32A26;stroke-miterlimit:10;enable-background:new ;} .st47{opacity:0.5;clip-path:url(#SVGID_13_);fill:none;stroke:#120F0D;stroke-width:2;stroke-miterlimit:10;enable-background:new ;} .st48{opacity:0.5;clip-path:url(#SVGID_15_);fill:none;stroke:#120F0D;stroke-width:2;stroke-miterlimit:10;enable-background:new ;} .st49{opacity:0.5;clip-path:url(#SVGID_17_);fill:none;stroke:#120F0D;stroke-width:2;stroke-miterlimit:10;enable-background:new ;} .st50{opacity:0.5;clip-path:url(#SVGID_19_);fill:none;stroke:#FFFFFF;stroke-width:2;stroke-miterlimit:10;enable-background:new ;} .st51{opacity:0.5;clip-path:url(#SVGID_21_);fill:none;stroke:#FFFFFF;stroke-width:2;stroke-miterlimit:10;enable-background:new ;} .st52{opacity:0.5;clip-path:url(#SVGID_23_);fill:none;stroke:#120F0D;stroke-width:2;stroke-miterlimit:10;enable-background:new ;} .st53{opacity:0.5;clip-path:url(#SVGID_25_);fill:none;stroke:#120F0D;stroke-width:2;stroke-miterlimit:10;enable-background:new ;} .st54{opacity:0.5;clip-path:url(#SVGID_27_);fill:none;stroke:#120F0D;stroke-width:2;stroke-miterlimit:10;enable-background:new ;} .st55{opacity:0.5;clip-path:url(#SVGID_29_);fill:none;stroke:#120F0D;stroke-width:2;stroke-miterlimit:10;enable-background:new ;} .st56{opacity:0.5;clip-path:url(#SVGID_31_);fill:none;stroke:#120F0D;stroke-width:2;stroke-miterlimit:10;enable-background:new ;} .st57{opacity:0.5;clip-path:url(#SVGID_33_);fill:none;stroke:#120F0D;stroke-width:2;stroke-miterlimit:10;enable-background:new ;} .st58{opacity:0.5;clip-path:url(#SVGID_35_);fill:none;stroke:#120F0D;stroke-width:2;stroke-miterlimit:10;enable-background:new ;} .st59{opacity:0.5;clip-path:url(#SVGID_37_);fill:none;stroke:#120F0D;stroke-width:2;stroke-miterlimit:10;enable-background:new ;} .st60{opacity:0.5;clip-path:url(#SVGID_39_);fill:none;stroke:#120F0D;stroke-width:2;stroke-miterlimit:10;enable-background:new ;} .st61{opacity:0.5;clip-path:url(#SVGID_41_);fill:none;stroke:#FFFFFF;stroke-width:2;stroke-miterlimit:10;enable-background:new ;} .st62{opacity:0.5;clip-path:url(#SVGID_43_);fill:none;stroke:#FFFFFF;stroke-width:2;stroke-miterlimit:10;enable-background:new ;} .st63{fill:#DDA747;} .st64{fill:#EA9B97;} .st65{opacity:0.8;fill:#FFFFFF;enable-background:new ;} .st66{fill:none;} .st67{fill:#F5D1B6;} .st68{fill:#F5D1B6;stroke:#F4CAAE;stroke-miterlimit:10;} .st69{fill:#5C2214;} .st70{fill:#FFFFFF;stroke:#CECECD;stroke-miterlimit:10;} .st71{fill:none;stroke:#231F20;stroke-width:0.365;stroke-miterlimit:10;} .st72{fill:#231F20;} .st73{fill:#0E113C;} .st74{fill:none;stroke:#5C2214;stroke-width:0.5;stroke-miterlimit:10;} .st75{fill:#F59698;} .st76{fill:#2D2D2D;} .st77{fill:none;stroke:#FFFFFF;stroke-width:0.25;stroke-miterlimit:10;} .st78{fill:#CECECD;} .st79{font-size:5.9694px;} .st80{fill:none;stroke:#251407;stroke-width:0.25;stroke-miterlimit:10;} .st81{font-size:1.8689px;}</style><path class="st0" d="M460.6 576.3l.4-238.5c0-1.7-2.1.5 0 0v-337.3h-792v610.1h792l-.4-34.3c-1.9-.5 0 1.8 0 0z"/><path class="st1" d="M-284.6 585.9c19.3-1.7 37.5 6.7 57.2 6.4 18.1-.4 33.3-8.2 50.6-11.5 4-.7 8.4-1.3 12.4-.4 3.8.9 6.4 2.8 9.6 4.3 13.6 6.9 33.1 6.5 50.6 6.7 34.3.6 67.1 7 100.8 11.3 7 4 5 9.6-2.6 13.1s-17.9 4-27.5 4.4c-96.7 3.8-193.5 2.6-290.4 1.5-3.4 0-7.2-.2-9.8-1.6-2.2-1.3-2.8-3.2-3.2-5.2-1.2-5.9-1.4-11.9-.4-17.9 19 1.2 34.3-9.5 52.7-11.1z"/><path class="st2" d="M-67.8 119.4h269v73.8h-269z"/><text transform="translate(-25.142 160.283)" class="st3 st4">Digestives</text><text transform="translate(-61.576 178.81)" class="st5 st6">Caramel Biscuits with Milk Chocolate Flavoured Coating</text><path class="st7" d="M-237.9 592.4c-6.1 0-11.2-5-11.2-11.2v-302.3c0-6.1 5-11.2 11.2-11.2 6.1 0 11.2 5 11.2 11.2v302.3c0 6.2-5.1 11.2-11.2 11.2z"/><circle class="st8" cx="-238.6" cy="219.4" r="59.1"/><circle class="st9" cx="-239.1" cy="219.4" r="40.2"/><path class="st10" d="M-313.5 210.3h148.7v23.4h-148.7z"/><text transform="translate(-279.253 228.107)" class="st9 st11 st12">MCVITIES</text><path class="st13" d="M-98.1 58.1c8.7-13 16.6-25.3 25.4-37.4 2.5-3.4 7.5-4.8 9.9-4.8h261c5.7 0 6.7 0 10.3 3.1 1.8 1.5 27.9 37.7 27.9 37.7s-25.4 37.6-25.9 38.2c-2.4 2.7-5.7 4-9.6 4h-263.1s-6.4-.5-9.7-4.3l-26.2-36.5z"/><path class="st14" d="M226.2 57.6l-20.3-28.4c-1.9-2.7-6.3-4.2-8.9-4.2h-255.7c-1.2 0-6.3.8-9 4.2l-19.5 28.8c7.1 9.9 13.8 19.3 20.7 28.7 2 2.9 5.7 4 8.6 4 2.9 0 253.5 0 256.6-.1 2.5 0 6-1.1 8.4-4.9l19.1-28.1z"/><path class="st15" d="M-62.5 87.9c-2.7-1.5-.8-6.6-.8-6.6s2.7-3.3 6.1-4.2c6.1-1.4 16.2-1.4 18.7-5.4 1 1.5 1 7.5-5 7.9-7 1.6-14.5 4.9-19 8.3zM-53.5 75.2s-8.5-9 5.4-12.5c6.2-1.5 6.4.2 14.4-5.4.5 2.5-.4 7.2-4.2 8.6-12.9 3.7-15.6 9.3-15.6 9.3zM-47.5 55.3s-3.2-4.6 4-8.1c12.5-2.8 15.2-5.1 15.2-5.1s1.4 5.4-4.2 7.7c-8.5 1.7-13.9 7.9-13.9 7.9l-1.1-2.4zM-48.4 48.1s-12.4-15.4 13.2-20.1c1.4 6.3-3.5 13.7-5.4 15.6-3.2 4-7.8 4.5-7.8 4.5zM-51.1 30.6c-15.1 12.6-6.2 38.3-6.2 38.3l9.2-7.9s3.6-2 2-8.6c-1.9-6.2-5-3.4-5-21.8zM-65.2 79.7c3 .7 7-2 7-2s4.9-1.9 3.5-10.2c-5.3-12.5-4.4-24.8-4.4-24.8s-12.7 11.8-10.1 23.5c2.5 12.2 2.2 9.2 4 13.5z"/><path class="st9" d="M183.1 67.7l-.5 6.4c4 2 14.1 6.2 21-2.7 6.1-9.9.7-13.8.4-14-2.7-3.7-9.2-4.4-10.4-6.6-1.1-2.2 0-6.4 3.3-6.7 6.7-.7 9.4 4.4 9.4 4.4l.4-.4v-7.4s-2.4.4-7-.7c-3-.4-9.7-.7-13.1 8.4-1.4 8.3 3 9.9 3 9.9l8.4 5.1s2.7 4-.8 6.4c-5 4.2-11.3-.1-14.1-2.1zM183.7 46.7c4.6-5 1.4-6.7.9-7.5-.5-.8-3.9 0-3.9 0-4.6 3.9.4 5.9.8 5.6.7 1.1-1.7 3.3-1.7 3.3s1.3 1.1 3.9-1.4zM130.6 74.2l-.5 1.5h11.5l.2-.7s-1.2-1.1-1.4-1.7c-.4-.7 4-28.7 4.3-29.8-.2-1.2 2-2.5 2-2.5v-1.2h-11.1l-.3.8s1 .7 1.2 2.7c.2 2.5-3.5 28-3.6 29-.3 1.2-1.5 1.6-2.3 1.9zM154.5 40.1c12.2.4 21.4-.7 21.4-.7l-.9 7.6h-.5s.2-2.2-3.9-2.2c-3.9 0-6.1-.2-7 .4-.5.8-1.2 4.4-1.5 8.3 1.9 3.3 9.6-.7 9.6-.7l-1.5 8.6s-.2-1.9-3.5-1.9-2.4-.4-4.3 0c-2 2-2.5 9.8-2.5 9.8s-.2 1.5.8 1.4c12.9 1.2 13.7-2.7 13.7-2.7s.2 8.6-5.7 7.9c-5.7-.8-19.6 0-19.6 0v-1.1s2.8-.5 3-4.9c.7-.2 2.8-23.3 3.3-26 .7-2.8-1-3.2-1-3.2s-.1-.1.1-.6zM131.2 40.1l-1.9.3c-2.9.3-18.1.9-26.9-.1 0 .2-1.7 6.7-1.7 6.7l.5.2c3.9-3.3 10.1-2.7 10.1-2.7l.7 1.2s-2.5 24.8-4 27.1c-1.4 2.2-2.5 2-2.5 2v.7h12.4l.2-.7s-1.2.2-1.4-3c-.4-3.3 2.5-24.7 3.3-26.1.7-1.4.2-1.2 1.2-1.5.8-.4 1.4-.7 4.3-.2 3.2.4 4.2 3.7 4.2 3.7l1.5-7.6zM82.6 74.5l-.5 1.5h11.1l.4-.7s-1.5-1.2-1.5-1.7 4-28.8 4.6-30c-.2-1.2 1.9-2.2 1.9-2.2l.2-1.2h-11.1l-.5.8s1.2.5 1.4 2.7c.3 2.5-3.6 27.8-3.8 29-.4.6-1.5 1.3-2.2 1.8zM85.2 40.4l-.2-.1h-9.3l.2 1.7-.5 2.7s-10.1 21.6-10.2 20.1c-1.2 0-4.9-17.3-4.9-20.1 0-2.7 2.4-3.9 2.4-3.9l-.2-.5h-13.5s0 .8.5 1.4c1 .7 2.2 2.8 3.3 7.2 1.9 7.2 5 19 5 19s2.2 8.7 7 8.4c3.5-6.4 14.2-30.1 14.2-30.1s3.4-4.3 5.3-4.6l.9-1.2zM46.4 68.7c1.2 6.6-6.4 5.8-6.4 5.8s-5.7-.4-8.1-.7c-2.5-.4-5 1.1-5 1.1s1-6.4 8.5-4.7c7.4 1.7 11.2-1.1 11-1.5zM-29.4 75.4s.7.5 3-2.7c2.2-3.2 7.8-23.6 8.7-27.8.8-4.2-1.7-4-1.7-4l.5-.8 11-.1s1.4.8 4.6 23.6c.7 3.3 16-23.3 16-23.3h9.3l-.4.9-1.6 1.7s-2.5 28.5-1.5 31c1.1 2.7 1.4 1.5 1.4 1.5l-.2 1.1-12.1.2.3-1.2s1.1-.2 1.7-1.5c.7-1.4 2.2-19.7 1.7-20.3-.5-.7-15.1 22.9-16 23.1-.7 0-3.6.5-5.4-8.4-1.7-8.7-2.8-16.2-3.5-16.5-.5-.2-7 21.9-7 21.9s.4.5 1.4 1.6c1.1 1.1.2.8.2.8h-10l-.4-.8zM45.7 47.3c-.2-.2-1.5-6.1-1.5-6.1s-13.4-4.7-18.2 8.4c-4.9 12.8 10.2 19.5 16.2 15.6 5.9-3.9 3.9-4.7 4.2-5.6.5-.7-.7-.5-.7-.5s-2 1.9-4.6 2.5c-2.7.4-5.4 1.2-8.2-2.5-2.8-3.9-2-9.6.4-12.3 2.4-2.5 6.7-4.6 12.4.5z"/><path class="st16" d="M-3.4 602.7h464.3v9.9h-464.3z"/><path class="st17" d="M.9 320.5h124.2v6.5h-124.2z"/><path class="st18" d="M1.8 327.1h122.5v275.6h-122.5zM5.7 320.5v-17.8s16.5-21.3 56.1-19.9l14.3-.1s14 1.1 24.7 5.4 16.6 9.2 20.4 13.6v18.9l-115.5-.1z"/><path class="st19" d="M5.7 302.7l-2.4-2s8.7-12.5 25.2-17.5c.8-.2 1.7-.5 2.5-.8 7.4-3.1 53.1-20.1 93.2 17.6l-3 1.7c.1-.1-54.4-41.9-115.5 1z"/><path class="st20" d="M17.9 339.7h91.4v235.5h-91.4z"/><path class="st21" d="M80.6 573.8c8.7 0 18.7.2 27.3.2.8-29.1.4-57.8 1.2-86.8.2-9.5.5-19-1.4-28.3-5.2-24-24.2-42-39.7-61.1-3.5-4.3-6.7-8.7-8.9-13.8-5.4-13.1-1.4-29.4 2.7-43-6.6-.3-14.3.3-21-.1-11.1 13.8-15.2 33.5-11.3 50.9 4 17.8 16 32.6 28.4 45.9 12.5 13.3 26 26 34.7 42 5.8 10.8 9.2 23.7 5.6 35.5-3 10-10.6 18-15 27.6-4.6 9.7-5.6 20.7-2.6 31z"/><path class="st22" d="M47.4 340.6v235.5M83.7 340.3v235.8M17.9 368.7h91.4M19.2 428.9h90.1M18.4 488.7h90.9M18.8 549.4h90.5"/><path class="st23" d="M116.6 453.1h-.5c-1.7 0-3.1-1.4-3.1-3.1v-11.9c0-1.7 1.4-3.1 3.1-3.1h.5c1.7 0 3.1 1.4 3.1 3.1v11.9c-.1 1.8-1.4 3.1-3.1 3.1z"/><circle class="st24" cx="64.2" cy="301.5" r="17.2"/><circle class="st25" cx="59.8" cy="289.2" r=".5"/><circle class="st25" cx="53.8" cy="292.1" r=".5"/><circle class="st25" cx="65.8" cy="288.6" r=".5"/><circle class="st25" cx="71.6" cy="291.3" r=".5"/><circle class="st25" cx="68.2" cy="297" r=".5"/><circle class="st25" cx="58.7" cy="297.7" r=".5"/><circle class="st25" cx="52.1" cy="298.2" r=".5"/><circle class="st25" cx="52.7" cy="305.3" r=".5"/><circle class="st25" cx="59.1" cy="304.4" r=".5"/><circle class="st25" cx="56" cy="310.7" r=".5"/><circle class="st25" cx="61.3" cy="313.2" r=".5"/><circle class="st25" cx="64.2" cy="309.1" r=".5"/><circle class="st25" cx="67.7" cy="312.8" r=".5"/><circle class="st25" cx="73" cy="309.4" r=".5"/><circle class="st25" cx="68.6" cy="303.7" r=".5"/><circle class="st25" cx="75.9" cy="304.3" r=".5"/><circle class="st25" cx="75" cy="296.5" r=".5"/><path class="st26" d="M59.9 298.9s-2.2-.7-2.2 1.6c0 0 .2 2 2.2 1.1M58.2 302.9h1.6"/><text transform="translate(52.115 303.099)" class="st25 st27 st28">M VITIES</text><path class="st25" d="M64.1 292.4s.4-1.8 3.8-2.1c0 0-1.6 2.7-3.8 2.1zM61 292.3s.4-1.8 3.8-2.1c0 0-1.6 2.7-3.8 2.1zM58.2 292.5s.2-1.8 3.6-2.4c0 0-1.4 2.9-3.6 2.4zM64 292.7s.1 1.8 3.5 2.7c-.1.1-1.3-2.9-3.5-2.7zM61 292.7s.3 1.8 3.7 2.4c0 0-1.5-2.9-3.7-2.4zM58.2 292.9s.3 1.8 3.8 2.1c0 .1-1.6-2.7-3.8-2.1zM66.3 292.7s1.8-1.7 6 .5c0 .1-4.1 2-6-.5zM57.7 292.7s.2 1.3-1.7 2.1c-.2.1.2-2.1 1.7-2.1z"/><path class="st29" d="M460.5 398c-46.4 1-68.6 8.1-68.6 8.1-39.4 4.5-45.3 70.5-45.3 70.5-30.4 16.4-26 57.9-26 57.9-12.7 14.8-5.9 32.6-5.9 32.6h145.9v-169.1h-.1z"/><circle class="st30" cx="398.6" cy="572.8" r="31.7"/><path class="st31" d="M391.1 420.1c-8.7 4.9-28.6 19.4-27.8 50.7.1 3.4 2.9 6.1 6.2 6.1h26c3.3 0 5.8-2.4 6.2-5.5 1.1-11.7 3.2-38.3-2.2-49-1.7-3-5.5-4-8.4-2.3zM460.5 419.2h-40.2c-3.6 0-6.4 2.9-6.4 6.4v44.9c0 3.6 2.9 6.4 6.4 6.4h40.2v-57.7z"/><path class="st32" d="M406.8 485.6v81.6M415.5 512.6h14.8"/><path class="st31" d="M320.6 534.5s22.2-.1 16.3 32.6h-22.2c0 .1-7.4-17.9 5.9-32.6z"/><path class="st33" d="M427.4 494.3h33.1v23h-33.1z"/><text transform="translate(430.44 513.505)" class="st34 st35">TAX</text><circle class="st24" cx="398.6" cy="573.1" r="34.6"/><circle class="st25" cx="389.7" cy="548.5" r="1.1"/><circle class="st25" cx="377.7" cy="554.2" r="1.1"/><circle class="st25" cx="402.1" cy="547.1" r="1.1"/><circle class="st25" cx="413.7" cy="552.4" r="1.1"/><circle class="st25" cx="406.9" cy="563.9" r="1.1"/><circle class="st25" cx="387.6" cy="565.4" r="1.1"/><circle class="st25" cx="374.4" cy="566.6" r="1.1"/><circle class="st25" cx="375.5" cy="580.6" r="1.1"/><circle class="st25" cx="388.5" cy="579" r="1.1"/><circle class="st25" cx="382.3" cy="591.6" r="1.1"/><circle class="st25" cx="393" cy="596.5" r="1.1"/><circle class="st25" cx="398.6" cy="588.3" r="1.1"/><circle class="st25" cx="405.8" cy="595.8" r="1.1"/><circle class="st25" cx="416.6" cy="589.1" r="1.1"/><circle class="st25" cx="407.7" cy="577.3" r="1.1"/><circle class="st25" cx="422.3" cy="578.6" r="1.1"/><circle class="st25" cx="420.8" cy="562.8" r="1.1"/><path class="st36" d="M390.3 567.6s-4.5-1.4-4.6 3.3c0 0 .2 4 4.6 2.4M386.6 575.9h3.4"/><text transform="translate(374.405 576.278)" class="st25 st27 st37">M VITIES</text><path class="st25" d="M398.5 554.7s.7-3.7 7.7-4.3c0 0-3.3 5.5-7.7 4.3zM392.4 554.4s.7-3.7 7.7-4.3c0 0-3.4 5.5-7.7 4.3zM386.6 554.9s.5-3.7 7.4-4.9c-.1 0-3 5.8-7.4 4.9zM398.3 555.5s.2 3.8 7.1 5.3c0 .1-2.6-5.9-7.1-5.3zM392.4 555.3s.5 3.7 7.5 4.6c0 .1-3.1-5.6-7.5-4.6zM386.9 555.6s.7 3.7 7.7 4.4c-.2 0-3.4-5.5-7.7-4.4zM402.9 555.4s3.8-3.6 12.2 1.1c0 .2-8.2 3.7-12.2-1.1zM385.7 555.3s.4 2.6-3.6 4.4c-.1 0 .7-4.3 3.6-4.4z"/><g class="st39" id="Purse"><path class="st40" d="M-361.7 739.6s0-38 20.9-40.3c0 0 18.9-4.8 21.9 38.5"/><path id="SVGID_5_" class="st41" d="M-362.8 735.3s21.8-10.1 44.8.7c0 0 17.3 33.5 5.2 50.6 0 0-1.4 2.1-5.1 1.6l-49.1.1s-2.6.2-3-2.6c-.4-2.7-9.8-17.5 4.8-46l2.4-4.4z"/><defs><path id="SVGID_1_" d="M-362.8 735.3s21.8-10.1 44.8.7c0 0 17.3 33.5 5.2 50.6 0 0-1.4 2.1-5.1 1.6l-49.1.1s-2.6.2-3-2.6c-.4-2.7-9.8-17.5 4.8-46l2.4-4.4z"/></defs><clipPath id="SVGID_2_"><use xlink:href="#SVGID_1_" overflow="visible"/></clipPath><path class="st42" d="M-341.5 731s2.2 49 .5 57.2"/><defs><path id="SVGID_3_" d="M-362.8 735.3s21.8-10.1 44.8.7c0 0 17.3 33.5 5.2 50.6 0 0-1.4 2.1-5.1 1.6l-49.1.1s-2.6.2-3-2.6c-.4-2.7-9.8-17.5 4.8-46l2.4-4.4z"/></defs><clipPath id="SVGID_4_"><use xlink:href="#SVGID_3_" overflow="visible"/></clipPath><path class="st43" d="M-366.5 742.5s6.2-1.3 13.8 1.2c0 0 5.2 3 11.8 2.5 0 0 5.2 1.4 17-2.1 0 0 5.6-1.9 9.6.1"/><defs><path id="SVGID_6_" d="M-362.8 735.3s21.8-10.1 44.8.7c0 0 17.3 33.5 5.2 50.6 0 0-1.4 2.1-5.1 1.6l-49.1.1s-2.6.2-3-2.6c-.4-2.7-9.8-17.5 4.8-46l2.4-4.4z"/></defs><clipPath id="SVGID_7_"><use xlink:href="#SVGID_6_" overflow="visible"/></clipPath><path class="st44" d="M-355.2 732.8s-2.1 13.6-2 16c0 0-.4 15.1-.9 15.7 0 0-.1 22.9-.8 23.8"/><defs><path id="SVGID_8_" d="M-362.8 735.3s21.8-10.1 44.8.7c0 0 17.3 33.5 5.2 50.6 0 0-1.4 2.1-5.1 1.6l-49.1.1s-2.6.2-3-2.6c-.4-2.7-9.8-17.5 4.8-46l2.4-4.4z"/></defs><clipPath id="SVGID_9_"><use xlink:href="#SVGID_8_" overflow="visible"/></clipPath><path class="st45" d="M-325.2 733.2s2.1 13.2 2 15.6c0 0 .4 15.1.9 15.7 0 0 .1 22.9.8 23.8"/><defs><path id="SVGID_10_" d="M-362.8 735.3s21.8-10.1 44.8.7c0 0 17.3 33.5 5.2 50.6 0 0-1.4 2.1-5.1 1.6l-49.1.1s-2.6.2-3-2.6c-.4-2.7-9.8-17.5 4.8-46l2.4-4.4z"/></defs><clipPath id="SVGID_11_"><use xlink:href="#SVGID_10_" overflow="visible"/></clipPath><path class="st46" d="M-373.3 765.1s1.5 1.6 15.1 0c0 0 16.1 2 17.9 1.8 0 0 10.7-.3 17.9-.9 0 0 11.1-.9 13.7.9"/><defs><path id="SVGID_12_" d="M-362.8 735.3s21.8-10.1 44.8.7c0 0 17.3 33.5 5.2 50.6 0 0-1.4 2.1-5.1 1.6l-49.1.1s-2.6.2-3-2.6c-.4-2.7-9.8-17.5 4.8-46l2.4-4.4z"/></defs><clipPath id="SVGID_13_"><use xlink:href="#SVGID_12_" overflow="visible"/></clipPath><path class="st47" d="M-352.4 731l-1.2 57.2"/><defs><path id="SVGID_14_" d="M-362.8 735.3s21.8-10.1 44.8.7c0 0 17.3 33.5 5.2 50.6 0 0-1.4 2.1-5.1 1.6l-49.1.1s-2.6.2-3-2.6c-.4-2.7-9.8-17.5 4.8-46l2.4-4.4z"/></defs><clipPath id="SVGID_15_"><use xlink:href="#SVGID_14_" overflow="visible"/></clipPath><path class="st48" d="M-348.7 731l-1.2 57.2"/><defs><path id="SVGID_16_" d="M-362.8 735.3s21.8-10.1 44.8.7c0 0 17.3 33.5 5.2 50.6 0 0-1.4 2.1-5.1 1.6l-49.1.1s-2.6.2-3-2.6c-.4-2.7-9.8-17.5 4.8-46l2.4-4.4z"/></defs><clipPath id="SVGID_17_"><use xlink:href="#SVGID_16_" overflow="visible"/></clipPath><path class="st49" d="M-345.1 731l-1.2 57.2"/><defs><path id="SVGID_18_" d="M-362.8 735.3s21.8-10.1 44.8.7c0 0 17.3 33.5 5.2 50.6 0 0-1.4 2.1-5.1 1.6l-49.1.1s-2.6.2-3-2.6c-.4-2.7-9.8-17.5 4.8-46l2.4-4.4z"/></defs><clipPath id="SVGID_19_"><use xlink:href="#SVGID_18_" overflow="visible"/></clipPath><path class="st50" d="M-350.5 731l-1.3 57.2"/><defs><path id="SVGID_20_" d="M-362.8 735.3s21.8-10.1 44.8.7c0 0 17.3 33.5 5.2 50.6 0 0-1.4 2.1-5.1 1.6l-49.1.1s-2.6.2-3-2.6c-.4-2.7-9.8-17.5 4.8-46l2.4-4.4z"/></defs><clipPath id="SVGID_21_"><use xlink:href="#SVGID_20_" overflow="visible"/></clipPath><path class="st51" d="M-346.9 731l-1.3 57.2"/><defs><path id="SVGID_22_" d="M-362.8 735.3s21.8-10.1 44.8.7c0 0 17.3 33.5 5.2 50.6 0 0-1.4 2.1-5.1 1.6l-49.1.1s-2.6.2-3-2.6c-.4-2.7-9.8-17.5 4.8-46l2.4-4.4z"/></defs><clipPath id="SVGID_23_"><use xlink:href="#SVGID_22_" overflow="visible"/></clipPath><path class="st52" d="M-372.3 757.7l63.9 1.2"/><defs><path id="SVGID_24_" d="M-362.8 735.3s21.8-10.1 44.8.7c0 0 17.3 33.5 5.2 50.6 0 0-1.4 2.1-5.1 1.6l-49.1.1s-2.6.2-3-2.6c-.4-2.7-9.8-17.5 4.8-46l2.4-4.4z"/></defs><clipPath id="SVGID_25_"><use xlink:href="#SVGID_24_" overflow="visible"/></clipPath><path class="st53" d="M-372.3 754l63.9 1.2"/><defs><path id="SVGID_26_" d="M-362.8 735.3s21.8-10.1 44.8.7c0 0 17.3 33.5 5.2 50.6 0 0-1.4 2.1-5.1 1.6l-49.1.1s-2.6.2-3-2.6c-.4-2.7-9.8-17.5 4.8-46l2.4-4.4z"/></defs><clipPath id="SVGID_27_"><use xlink:href="#SVGID_26_" overflow="visible"/></clipPath><path class="st54" d="M-372.3 750.3l63.9 1.2"/><defs><path id="SVGID_28_" d="M-362.8 735.3s21.8-10.1 44.8.7c0 0 17.3 33.5 5.2 50.6 0 0-1.4 2.1-5.1 1.6l-49.1.1s-2.6.2-3-2.6c-.4-2.7-9.8-17.5 4.8-46l2.4-4.4z"/></defs><clipPath id="SVGID_29_"><use xlink:href="#SVGID_28_" overflow="visible"/></clipPath><path class="st55" d="M-373.4 780.5l66.2 1.2"/><defs><path id="SVGID_30_" d="M-362.8 735.3s21.8-10.1 44.8.7c0 0 17.3 33.5 5.2 50.6 0 0-1.4 2.1-5.1 1.6l-49.1.1s-2.6.2-3-2.6c-.4-2.7-9.8-17.5 4.8-46l2.4-4.4z"/></defs><clipPath id="SVGID_31_"><use xlink:href="#SVGID_30_" overflow="visible"/></clipPath><path class="st56" d="M-373.4 776.8l66.2 1.2"/><defs><path id="SVGID_32_" d="M-362.8 735.3s21.8-10.1 44.8.7c0 0 17.3 33.5 5.2 50.6 0 0-1.4 2.1-5.1 1.6l-49.1.1s-2.6.2-3-2.6c-.4-2.7-9.8-17.5 4.8-46l2.4-4.4z"/></defs><clipPath id="SVGID_33_"><use xlink:href="#SVGID_32_" overflow="visible"/></clipPath><path class="st57" d="M-373.4 773.2l66.2 1.2"/><defs><path id="SVGID_34_" d="M-362.8 735.3s21.8-10.1 44.8.7c0 0 17.3 33.5 5.2 50.6 0 0-1.4 2.1-5.1 1.6l-49.1.1s-2.6.2-3-2.6c-.4-2.7-9.8-17.5 4.8-46l2.4-4.4z"/></defs><clipPath id="SVGID_35_"><use xlink:href="#SVGID_34_" overflow="visible"/></clipPath><path class="st58" d="M-328.3 731l1.2 57.2"/><defs><path id="SVGID_36_" d="M-362.8 735.3s21.8-10.1 44.8.7c0 0 17.3 33.5 5.2 50.6 0 0-1.4 2.1-5.1 1.6l-49.1.1s-2.6.2-3-2.6c-.4-2.7-9.8-17.5 4.8-46l2.4-4.4z"/></defs><clipPath id="SVGID_37_"><use xlink:href="#SVGID_36_" overflow="visible"/></clipPath><path class="st59" d="M-332 731l1.2 57.2"/><defs><path id="SVGID_38_" d="M-362.8 735.3s21.8-10.1 44.8.7c0 0 17.3 33.5 5.2 50.6 0 0-1.4 2.1-5.1 1.6l-49.1.1s-2.6.2-3-2.6c-.4-2.7-9.8-17.5 4.8-46l2.4-4.4z"/></defs><clipPath id="SVGID_39_"><use xlink:href="#SVGID_38_" overflow="visible"/></clipPath><path class="st60" d="M-335.6 731l1.2 57.2"/><defs><path id="SVGID_40_" d="M-362.8 735.3s21.8-10.1 44.8.7c0 0 17.3 33.5 5.2 50.6 0 0-1.4 2.1-5.1 1.6l-49.1.1s-2.6.2-3-2.6c-.4-2.7-9.8-17.5 4.8-46l2.4-4.4z"/></defs><clipPath id="SVGID_41_"><use xlink:href="#SVGID_40_" overflow="visible"/></clipPath><path class="st61" d="M-330.1 731l1.3 57.2"/><defs><path id="SVGID_42_" d="M-362.8 735.3s21.8-10.1 44.8.7c0 0 17.3 33.5 5.2 50.6 0 0-1.4 2.1-5.1 1.6l-49.1.1s-2.6.2-3-2.6c-.4-2.7-9.8-17.5 4.8-46l2.4-4.4z"/></defs><clipPath id="SVGID_43_"><use xlink:href="#SVGID_42_" overflow="visible"/></clipPath><path class="st62" d="M-333.8 731l1.3 57.2"/></g><path class="st63" d="M-213 540.5c-.2-.6-1-.9-1.7-.6-.5.2-1 .5-1.3.9-.1.1-.2 0-.2-.1-.1-.7-.9-1.3-1.7-1.5-1-.2-2-.4-2.5-1.1-.2-.5-.6-1.3-1.1-1 .1.7-.1 1.8-.9 1.7-.2 0-.4-.1-.6-.2-1-1-.6-3.2-3.2-3.2-.4 0-.7.1-1.1.4-1.7 1.1-1.8 3.1-1.7 4.9-.7-.1-1.3-.4-2-1-.2-.2-.6 0-.5.2.1.4.2.9.6 1-.5.2-1.1.2-1.6 0-.1-.1-.2 0-.2.2.1.6 1.5 1.1 1.1 1.7-.2.2-.5.2-.7.1-.7-.2-1.3-.4-2.1-.6-.4.2-.2.7.1 1.1.2.2.6.6.6 1-.1.7-1.2.6-1.8.4l.6 2.7c-.6 0-1.1-.2-1.6-.5-.6.2-.4 1.2.1 1.7s1.1 1 1.1 1.6c-1.2-.5-2.5-.6-3.7-.1-.4 1.3.9 1 1.3 1.5.5.5-.1 1.2-.6 1.6s-1.3.7-1.2 1.3c.5.2 1 .6 1 1.1 0 1.2-2.5 1-2.5 2.1 0 .6.7 1.3.2 1.7-.5.4-1.3-.5-1.6 1v.2c.4.9 1.3 1 2.1 1-.5 1-1.6 1.5-2.6 1.2-.1.5-.1 1 .1 1.5-.2.2-.6.2-.9.2-.1 1.2.2 2.5.9 3.3-1-.2-1.7 1.1-1.1 1.8.5.6 1.7.7 1.6 1.6-.6.1-1.3.2-1.8.4s-1 .4-.9.7c.1.2.2.2.5.5.5.5.2 1.2-.1 1.7-.4.6-.9 1-1 1.6-.4 1.3 1.2 2.9.6 4.3-.2.2-.4.6-.4.9 0 .4.2.6.4 1 .5 1.2-1.2 2.8-.2 3.8-1 .6-2 1.5-1.3 2.5.2.2.4.5.6.6.1.1.1.2.1.2.5 1.3-1 2-1.7 1.3.1 1.3 1 2.8 2.1 3.6-.5.5-2 1.1-1.8.2-1 1.2-.4 1.3 0 1.7.2.2.5.6.6 1 .1.5.2 1 .6 1.3.4.2.6.9.6 1.3.2.9.6 2 1.3 1.8.2 0 .4-.1.5-.1.5 0 .6.6.7 1 .6 1.7 2.5 2.7 4.2 2.8 1.7.2 3.6-.5 5.2-1.2.5-.2 1-.5 1.5-.4.9.1 1.7 1 2.5.6.1 1.3.9 2.7 2.1 3.2 1.2.6 2.8.1 3.6-1.1.2-.4.2-.9.6-1.1.2-.2.6-.2 1-.2 1.2 0 2.5-.1 3.6-.1 1 0 2 0 2.9-.1.9 0 1.7 0 2.5.2.5.2 1 .5 1.3.4.9-.1 1.2-1.1 2-1.3.7-.2 1.6.2 2.1.9.5.6.9 1.3 1.3 1.8 1.3 1.3 4.2.6 4.8-1.3.1-.4.2-.7.5-1 .2-.2.5-.6.6-1 1-.1 1.3 1.2 2.2 1.3.6 0 1.1-.6 1.7-.7.4 0 .7.2 1 .2 2.6 1.2 5.8.6 8.5-.2.5-.1.9-.2 1.2-.5.9-.7.6-2.1.1-3.2.7-.6 1-1.8.4-2.6.2 0 .6 0 .9-.1.1-.6-.2-1.3-.6-1.7.6-.2 1.7-.9 2.1-1.3.4-.5.7-1.3.4-1.8l-.7-.7c-.2-.2-.4-.6-.2-1 .2-.2.6-.2.7-.6.2-.4-.2-.9-.4-1.2-.6-1 .1-2.8-1-3.3 1-.6 1.2-2.2.2-2.9-.2-.2-.4-.2-.5-.6-.1-.2.1-.6.2-.9.4-1-.4-2.1-1.3-2.2-.2-1.2 1.6-1.8 1.7-2.9 0-.7-.6-1.3-1-1.8-.5-.6-.9-1.3-.4-2-1-.2-2.1-.6-2.1-1.7 0-.9 1-1.7.6-2.5-.7.1-1.6-.4-2-1-.4-.6-.4-1.6.2-2.2.2-.2.4-.4.5-.6.4-.9-.6-1.7-1.5-2.1l.1-2c-.9-.2-1.3-1.3-1-2.1-.9.1-1.7-.4-2.1-1.1-.4-.7-.2-1.8.6-2.2-.2-.5-.6-.9-1-1.2.2-.2.6-.6.6-1s-.5-.7-.7-.6l.1-1.3-1.1-.1c-.6-.5-.7-1.3-.2-2-.6.2-1.2 0-1.6-.5-.4-.5-.2-1.2 0-1.6-.6.2-1.3.1-1.5-.5-.2-.5-.1-1-.2-1.6-.1-.6-.6-1.1-1-1 .2-.6.6-1.3.9-2l-1.6-.2-.2-1.8c-.7 0-1.5.2-2.1.7-.4-2.1-1.6-4.2-3.2-5.6-.2-.2-.6-.6-1-.6-1-.2-1.7.6-2.1 1.3-.5.9-.7 1.7-1.5 2.3-.2.1-.2.2-.5.2l-1.3-1c-1.1 1-1 3.4-1.7 3.1z"/><circle cx="-224.3" cy="551.8" r="2.9"/><circle cx="-209.2" cy="552.3" r="2.8"/><path d="M-214.1 556.9c-1-.9-3.1-2-5.2.1-.2.2-.4.7-.2 1.1.4 1 1.2 2.5 2.8 2.5 0 0 1.7.1 2.8-2.3.3-.6.2-1.1-.2-1.4z"/><path class="st64" d="M-227.2 538.6c0-.2.1-.6.2-.9.1-.2.4-.5.6-.5.4 0 .6.4 1 .6.2.2.2.5.4.6l.6 1.3c.2.4.2.7.2 1.1s-.1.9-.4 1c-.7.6-1.8.4-2.5-.4-.4-.6-.3-1.8-.1-2.8zM-204.9 538.6c0-.2-.1-.6-.2-.9-.2-.2-.4-.5-.6-.5-.4 0-.6.4-1 .6-.2.2-.2.5-.4.6l-.6 1.3c-.2.4-.2.7-.2 1.1s.1.9.4 1c.7.6 1.8.4 2.5-.4.3-.6.3-1.8.1-2.8z"/><path class="st65" d="M-216.8 556.4c.4 0 .9.1 1.2.2.4.2.7.5 1 .7 0 .1.1.2.1.2-.1 0-.2-.1-.2-.2-.2-.2-.5-.5-.9-.6-.4-.1-.6-.1-1-.1h-1c-.2 0-.6.1-1 .2.1-.2.5-.6.7-.6.4.2.7.2 1.1.2z"/><path class="st66" d="M-223.4 552.3c-.1-.9-.1-1.7.2-2.5-.2.1-.5.2-.6.4-.1.2-.2.2-.2.5 0 .6.1 1.4.6 1.6z"/><path class="st67" d="M-137.3 340.4s-12.3 4.8-14.2-24.5c0 0-2.7 6.6-13.7 2.9 0 0 6.6 20-12.5 22 0 0 0 14 20.2 18l20.2-18.4z"/><path class="st68" d="M-153.4 325.1s9.3-6.1 9.6-15.6c0 0 9.8-29.9-12.4-37.1 0 0-23.7-4.8-20.6 27.4 0 0 1.8 17.5 12.3 24-.3.2 5.6 6.4 11.1 1.3z"/><path class="st69" d="M-166.5 272.9s-5.6-10.4 7.6-10.9c0 0 9.1.4 5 11.4"/><path class="st33" d="M-167.7 273.9s8.8-9.3 13.9-1.2c-.1.1 1.4 4.1-13.9 1.2z"/><path class="st69" d="M-172.1 282.6s-6.1 7.2-2.3 22.5c0 0 .1-10.2 2.6-12.3 0 0-1.7 8.2.1 10.2 0 0 .9-6.3 1.7-9 0 0 2.1-3.9 7.7-7.7 0 0-7.4 4.4-4.7 8.6 0 0-.5-5.5 13.4-10.8 0 0 4 1 7 9.6l1.7-2.5s4.3 5.9 1.3 16c0 0 13.7-16.6-2.9-30.6 0 0-18.8-11.2-30.4 2.9 0 0-8.7 10.7-1.7 22.8l2.7-7.1"/><path class="st67" d="M-187.4 444.8s22.2 123.1 12.9 162.7l5.4.4s10.2-51.7 5.3-75.2l.5-74.4-24.1-13.5zM-130.9 446.3s-24 122.7-15.3 162.6l-5.4.2s-9.4-51.8-4.2-75.3l.6-74.4 24.3-13.1z"/><path class="st70" d="M-182.2 368.3c-1.3 12.6 4.4 28.1 5.8 40.6 18.3 2.3 16.8 3.9 34.6-1 .6-.2 2.5-2.5 2.8-2.8.4-.4 1.2-1.8 1.3-2.3 1.1-4.8 2.1-9.2 2.5-14.2.2-3.8 1.6-13 2.5-17.4.1-.4.6-.5.7-.1l2.8 5.6c1.3 1.6 3.8 1.1 5.8.4 3.3-1.3 6.6-2.8 9.7-4.8 1-.6 1.2-1.8.6-2.8-4.9-7.6-9.1-15.7-12.4-24.2-1-2.5-2.8-4.3-5.2-5.5-4.3-2.1-6.6-2.8-12.1-1.5-1.6.4-3.3.6-4.9 1.5-6.4 4-14.6 3.8-21.8 1.8-2.7-.7-5.4-1.7-8.1-1.6-4.4.1-8.5 2.8-11.7 5.9-3.7 3.7-9 8.1-8 13.1 1.2 6.1 4.9 11.5 10.1 15.1 1.1.7 2.6.2 3.2-1 .7-1.8 1.5-3.7 2.2-5.6"/><path class="st71" d="M-169.8 366.2c-.4 0-.9 0-1.2.1-.5.1-1 .4-1.3.6-.6.4-1.3.6-2.1 1 1.7 1 2.5 3.1 4.2 3.9 1 .5 2.1.5 3.1.2s2.1-.6 2.9-.9c0-1-.6-2-1.3-2.8-.5-.6-1-1.2-1.5-1.6-.7-.5-1.8-.5-2.8-.5zM-172.3 366.9c-.2 0-.6.1-.7 0-.1 0-.2-.1-.2-.2-.2-.1-.2-.2-.5-.5M-171 366.3h-.6c-.2 0-.4-.1-.6-.2-.2-.1-.2-.2-.4-.5M-173.5 367.4c-.2.1-.7.2-1 .2-.2 0-.6-.1-.7-.2"/><ellipse class="st71" cx="-168.3" cy="369.1" rx="2.8" ry="2.8"/><path class="st72" d="M-168.1 368.1v-1.6l-.1-.1c-.2 0-.4-.1-.5 0h-.1c.1.2 0 .6-.1.7-.2 1-.2 2.1-.1 3.1 0 .5.1 1 .2 1.3 0 .1.1.2.2.2.1.1.2.1.4.1h.2s.2-.1.1-.2v-.2c-.1-.2-.1-.4-.1-.6 0-.7 0-1.7-.1-2.7"/><path class="st71" d="M-146.5 365.8c.4 0 .9-.1 1.2 0 .5.1 1 .2 1.3.5.6.2 1.3.5 2.1.6-1.6 1.1-2.1 3.3-3.7 4.3-.9.6-2 .7-2.9.6-1-.1-2.1-.2-3.1-.5-.1-1 .5-2.1 1-2.9.4-.6.7-1.3 1.3-1.7.7-.6 1.7-.9 2.8-.9zM-143.9 366.2c.2 0 .6.1.7-.1.1 0 .1-.1.2-.2.2-.2.2-.2.4-.5M-145.3 365.8c.1 0 .4-.1.6-.1.2-.1.4-.2.5-.2.2-.1.2-.2.2-.5M-142.7 366.5c.2 0 .7.1 1 0 .2-.1.6-.2.7-.4"/><ellipse class="st71" cx="-147.6" cy="369" rx="2.8" ry="2.8"/><path class="st72" d="M-148 368c0-.4-.1-.4-.1-.6 0-.2-.1-.6-.1-.9v-.1l.1-.1c.2-.1.2-.1.5-.1h.1c0 .2.1.6.2.7.4 1 .5 2.1.5 3.1 0 .5.1 1-.1 1.5 0 .1-.1.2-.1.2-.1.1-.2.1-.4.1h-.2s-.2-.1-.2-.2v-.2c.1-.2.1-.4 0-.6-.2-.8-.2-1.9-.2-2.8"/><path class="st71" d="M-171 376.1c-.9-.6-2-1-2.9-1.2l-2.2-.6M-171.3 378c-.5.1-1-.2-1.5-.4-.4-.1-.7 0-1.1.2-.7.2-1.5.5-2.2.9M-170.5 380c-1-.1-2 .4-2.8 1-1 .6-1.7 1.3-2.3 2.3M-145.5 376c.6-.4 1.3-.7 2-1.2.2-.2.6-.4.9-.5.2-.1.6-.1 1-.2l2.3-.2M-144.9 378c.6-.2 1.3-.2 2-.2 1.3-.1 2.7.2 3.9.6M-144.9 380.2c.6.1 1.3.2 1.8.5l.6.2c.2.1.4.4.6.6.6.7 1.7 1 2.1 1.8"/><path class="st71" d="M-156.2 374.2c.2 0 .6 0 1 .1.2.1.6.4.6.6.1.4-.2.7-.6 1l-.6.6c-.2.2-.6.6-1 .6s-.6-.2-.9-.6c-.2-.4-.6-.7-1-1.2-.1-.2-.2-.5-.2-.6.1-.2.5-.4.9-.4.7-.1 1.3-.1 1.8-.1zM-153.5 382.7l-.4-.5c-.5-.5-1-.9-1.3-1.2-1.3-.9-2.8 1-3.3 2.1M-156.4 377l.1 3.9"/><path class="st73" d="M-177.9 404.2l85.2 58.7s-64.8 57.8-133.1 3.9c-.1-.1 17.2-42 47.9-62.6zM-177.9 404.2s26.4 9.3 39 .7c0 0 33.6 24 46.1 57.9l-85.1-58.6z"/><path class="st74" d="M-159.6 309.1s1.5 1.7 3.6.1"/><path class="st75" d="M-159 317.3s1.1.7 2.2-.1c0 0 2.3 1.2 2.2 2 0 0-.6 1.1-3.2 1.7 0 0-3-1.2-1.2-3.6zM-156.7 317.5s-1.1.6-2.1-.2c-.1-.1-1.1.6-1.2.7-.5.4-1.1.4-1.7.2.6 1.5 2.6 2.3 4 2.7-.1 0 2.9-1.2 1-3.4zM-158.9 317.5s1.1.6 2.1-.2c.1-.1 1.1.6 1.2.7.5.4 1.1.4 1.7.2-.6 1.5-2.6 2.3-4 2.7.1 0-2.7-1.2-1-3.4z"/><path class="st72" d="M-157.5 302s1.2.4 3.9-2.5c.4-.4.7-.7 1.2-1 2.1-1.1 8.2-3.8 14.2-.2 0 0 .9 1.6-4.3 10.1-.4.6-1 1-1.5 1.1-2.2.6-7.6 1.7-10.6-2.3 0 0-2.3-4.3-3.2-3.8 0 .1-1.9-1.2.3-1.4zM-158.1 302s-1.2.2-3.8-2.6c-.4-.4-.7-.7-1.2-1-2.1-1.2-8.1-4-14.2-.6 0 0-1 1.5 3.9 10.2.2.6.9 1 1.5 1.2 2.2.7 7.6 2 10.7-2 0 0 2.5-4.2 3.6-3.7-.2 0 1.7-1.5-.5-1.5z"/><path class="st76" d="M-154 302.2s3.6-4.4 13.7-3.2c0 0 .6 7.4-6.3 9.3 0 0-5.2 1.6-7.6-3.6.1.1-.9-1.6.2-2.5zM-161.7 301.5s-3.6-4.4-13.7-3.2c0 0-.6 7.4 6.3 9.3 0 0 5.2 1.6 7.6-3.6-.1.2.9-1.5-.2-2.5z"/><path class="st77" d="M-149.4 300.3l-2.7 4.6M-151 300.8l-2.6 4.5M-171.8 298.1l-2.5 4.6M-173 298.1l-2 3.5"/><path class="st33" d="M-148 264.9c.4.2.6.6.7 1 .5.9.9 1.7.6 2.6-.1 1-.7 1.7-1.5 2.2-.7.5-1.7.9-2.5 1.2-1.3.5-2.8 1-4.3 1.5 2.1-1.1 4.4-1.5 6.7-1.7 1.7-.1 3.4-.1 5.2.5 1.7.5 3.2 1.5 4 2.9.2.6.6 1.1.5 1.7s-.5 1.2-1 1.3c-.4.1-.6 0-1-.1-4.8-1-9.2-2.7-13.5-4.9.6-2.8 1.5-5.9 3.7-7.7 1-.5 1.8-.9 2.4-.5z"/><path class="st67" d="M-197.5 385.3c-.2 1.3-.6 2.5-.7 3.8-1 6-2.2 12-3.7 17.9-3.1 11.9-7 23.4-10.8 35.1-1.2 3.6-2.5 7.4-2.5 11.2 0 1.3 1.5 2.2 2.6 1.5.7-.5 1.7-1 2.1-1.7.1-.2.2-.6.4-.9 5-11.2 10.1-22.1 13.7-33.7 1-2.8 1.7-5.8 2.5-8.6.4-1.3.6-2.8 1-4.3.2-1.3 1-2.6 1.3-3.9 1.6-5.5 1.8-11.4 3.2-17.1.7-3.1 1.7-6 1.7-9.1 0-.2.1-.4 0-.6-.1-.2-.6-.5-.7-.6-3.2-2.3-5.9-5.3-7.7-8.8-.2 2.1-.4 3.9-.6 6.1-.1 2.9-.2 5.9-.6 8.8-.6 1.7-.9 3.3-1.2 4.9z"/><path class="st78" d="M-175 531.5h11.2s5.6 27.4-5.4 77.2l-5.4-.4-.4-76.8zM-144.4 532.1h-11.4s-6.7 28.6 4.3 77.2l5.4-.4 1.7-76.8z"/><path class="st40" d="M-242.2 560.5c8.1 4.3 19.3 7 28.3 6.5 8.5-.6 17.1-3.6 22.5-10.1 6.7-8.2 6.6-20.6 2.1-30.2-4.5-9.7-12.6-17.1-21.1-23.4-4-3.1-8.3-6-11.8-9.8s-6-8.6-6-13.7c0-3.9 1.5-7.7 3.2-11.2 2.7-5.2 6.1-10.1 10.3-14.2"/><path class="st63" d="M-245.5 592.3c-1.7-1.2-2.5-3.2-2.9-5.3-1-3.9-1.1-7.9-.6-11.8l2.3 4.3c1.1 2.1 2.2 4 3.7 5.8"/><circle class="st24" cx="-156.3" cy="353.7" r="15"/><circle class="st25" cx="-160.1" cy="343" r=".5"/><circle class="st25" cx="-165.4" cy="345.4" r=".5"/><circle class="st25" cx="-154.7" cy="342.4" r=".5"/><circle class="st25" cx="-149.8" cy="344.7" r=".5"/><circle class="st25" cx="-152.8" cy="349.7" r=".5"/><circle class="st25" cx="-161" cy="350.2" r=".5"/><circle class="st25" cx="-166.7" cy="350.8" r=".5"/><circle class="st25" cx="-166.2" cy="356.9" r=".5"/><circle class="st25" cx="-160.6" cy="356.2" r=".5"/><circle class="st25" cx="-163.3" cy="361.6" r=".5"/><circle class="st25" cx="-158.6" cy="363.8" r=".5"/><circle class="st25" cx="-156.3" cy="360.2" r=".5"/><circle class="st25" cx="-153.2" cy="363.5" r=".5"/><circle class="st25" cx="-148.5" cy="360.5" r=".5"/><circle class="st25" cx="-152.4" cy="355.5" r=".5"/><circle class="st25" cx="-146.1" cy="356" r=".5"/><circle class="st25" cx="-146.7" cy="349.1" r=".5"/><path class="st26" d="M-159.9 351.3s-2-.6-2 1.5c0 0 .1 1.7 2 1M-161.5 354.8h1.5"/><text transform="translate(-166.742 355.024)" class="st25 st27 st79">M VITIES</text><path class="st25" d="M-156.3 345.7s.2-1.6 3.3-1.8c0-.1-1.3 2.3-3.3 1.8zM-158.9 345.6s.2-1.6 3.3-1.8c0-.1-1.4 2.4-3.3 1.8zM-161.5 345.7s.2-1.6 3.2-2.1c0 .1-1.3 2.6-3.2 2.1zM-156.3 346.1s.1 1.6 3.1 2.3c-.2 0-1.3-2.7-3.1-2.3zM-158.9 346.1s.2 1.6 3.2 2.1c0-.2-1.3-2.6-3.2-2.1zM-161.3 346.2s.2 1.6 3.3 2c-.1-.2-1.5-2.6-3.3-2zM-154.3 346.1s1.6-1.6 5.3.5c-.1-.1-3.8 1.4-5.3-.5zM-162 345.9s.2 1.1-1.6 2c.2 0 .5-1.8 1.6-2z"/><circle class="st24" cx="-216.1" cy="572.6" r="4.8"/><circle class="st25" cx="-217.3" cy="569.2" r=".2"/><circle class="st25" cx="-219" cy="570" r=".2"/><circle class="st25" cx="-215.6" cy="569" r=".2"/><circle class="st25" cx="-214.1" cy="569.6" r=".2"/><circle class="st25" cx="-215" cy="571.2" r=".2"/><circle class="st25" cx="-217.5" cy="571.5" r=".2"/><circle class="st25" cx="-219.4" cy="571.6" r=".2"/><circle class="st25" cx="-219.3" cy="573.5" r=".2"/><circle class="st25" cx="-217.5" cy="573.3" r=".2"/><circle class="st25" cx="-218.3" cy="575" r=".2"/><circle class="st25" cx="-216.9" cy="575.6" r=".2"/><circle class="st25" cx="-216.1" cy="574.5" r=".2"/><circle class="st25" cx="-215.2" cy="575.6" r=".2"/><circle class="st25" cx="-213.7" cy="574.6" r=".2"/><circle class="st25" cx="-214.8" cy="573" r=".2"/><circle class="st25" cx="-213" cy="573.3" r=".2"/><circle class="st25" cx="-213.1" cy="571.1" r=".2"/><path class="st80" d="M-217.3 571.8s-.6-.2-.6.5c0 0 0 .6.6.2M-217.8 572.9h.5"/><text transform="translate(-219.419 572.93)" class="st25 st27 st81">M VITIES</text><path class="st25" d="M-216.2 570s.1-.5 1-.6c.1.1-.4.8-1 .6zM-216.9 570s.1-.5 1-.6c0 0-.5.7-1 .6zM-217.8 570s.1-.5 1-.6c0 0-.4.7-1 .6zM-216.2 570.1s0 .5 1 .7c0 0-.4-.8-1-.7zM-217 570.1s.1.5 1 .6c-.1 0-.4-.7-1-.6zM-217.8 570.1s.1.5 1 .6c0 0-.4-.7-1-.6zM-215.6 570.1s.5-.5 1.7.2c0 .1-1.1.4-1.7-.2zM-217.9 570.1s.1.4-.5.6c0 0 .1-.6.5-.6z"/><path class="st67" d="M-122.4 411.2c-11.7-6-18.8-18.3-22.8-30.8-2.1-6.5-3.7-13.4-8-18.8-.4-.4-.6-.9-1.2-1-1.1-.5-2.5.4-2.9 1.5-.5 1.1-.4 2.5-.2 3.7 2 13.5 7.7 26.3 16.3 36.9 4.3 5.3 9.2 10.1 14.7 14 3.2 2.2 12 5.2 10.7-9.9-.2-3.3-.1-6.6-.1-9.9.1-7.5-.6-14.7-1.5-22.1-2.5 1.2-4.8 2.5-7.4 3.1 1.7 12.4.4 24.7 2 37.1.2 1.3.4 2.8.6 4.2"/></svg>