<?xml version="1.0" encoding="utf-8"?>
<!-- Generator: Adobe Illustrator 19.1.0, SVG Export Plug-In . SVG Version: 6.00 Build 0)  -->
<svg version="1.1" id="Layer_1" xmlns="http://www.w3.org/2000/svg" xmlns:xlink="http://www.w3.org/1999/xlink" x="0px" y="0px"
	 viewBox="144 102 459.9 599" style="enable-background:new 144 102 459.9 599;" xml:space="preserve">
<style type="text/css">
	.st0{fill:#DBDFD5;}
	.st1{fill:#97BC5C;}
	.st2{fill:#221E1F;}
	.st3{fill:none;stroke:#FFFFFF;stroke-width:5;stroke-miterlimit:10;}
	.st4{font-family:'Raleway-Medium';}
	.st5{font-size:36.9939px;}
	.st6{font-family:'Raleway-Light';}
	.st7{font-size:9.8147px;}
	.st8{fill:#4C4A49;}
	.st9{fill:#DD2428;}
	.st10{fill:#FFFFFF;}
	.st11{fill:#273C93;}
	.st12{font-family:'MyriadPro-Bold';}
	.st13{font-size:15.4891px;}
	.st14{fill:#FFF100;stroke:#FCB813;stroke-width:0.4889;stroke-miterlimit:2.6131;}
	.st15{fill:#2E3191;stroke:#231F20;stroke-width:0.4889;stroke-miterlimit:2.6131;}
	.st16{fill:#FFCA05;stroke:#231F20;stroke-width:0.4889;stroke-miterlimit:2.6131;}
	.st17{fill:#D4383B;}
	.st18{fill:#CB2730;}
	.st19{fill:#A22F33;}
	.st20{fill:#647275;stroke:#A22F33;stroke-width:3;stroke-miterlimit:10;}
	.st21{fill:#B3B6B7;}
	.st22{fill:none;stroke:#A22F33;stroke-width:4;stroke-miterlimit:10;}
	.st23{fill:#3E4D53;}
	.st24{fill:#B28E46;}
	.st25{fill:#251407;}
	.st26{fill:none;stroke:#251407;stroke-width:0.75;stroke-miterlimit:10;}
	.st27{font-family:'MyriadPro-Regular';}
	.st28{font-size:6.6927px;}
	.st29{fill:none;stroke:#F7F6F1;stroke-width:5;stroke-miterlimit:10;}
	.st30{fill:#272220;}
	.st31{fill:#F7F6F1;stroke:#272220;stroke-width:3;stroke-miterlimit:10;}
	.st32{fill:#F7F6F1;}
	.st33{fill:#86BAAD;}
	.st34{font-family:'Raleway-ExtraLight';}
	.st35{font-size:20.2657px;}
	.st36{fill:none;stroke:#251407;stroke-width:2;stroke-miterlimit:10;}
	.st37{font-size:13.5054px;}
	.st38{display:none;}
	.st39{display:inline;}
	.st40{fill:none;stroke:#120F0D;stroke-width:2;stroke-miterlimit:10;}
	.st41{fill:#F0D4B2;}
	.st42{opacity:0.5;clip-path:url(#SVGID_2_);fill:#F0D4B2;stroke:#120F0D;stroke-miterlimit:10;enable-background:new    ;}
	.st43{opacity:0.65;clip-path:url(#SVGID_4_);fill:#F0D4B2;stroke:#E32A26;stroke-miterlimit:10;enable-background:new    ;}
	.st44{opacity:0.65;clip-path:url(#SVGID_7_);fill:#F0D4B2;stroke:#E32A26;stroke-miterlimit:10;enable-background:new    ;}
	.st45{opacity:0.65;clip-path:url(#SVGID_9_);fill:#F0D4B2;stroke:#E32A26;stroke-miterlimit:10;enable-background:new    ;}
	.st46{opacity:0.65;clip-path:url(#SVGID_11_);fill:#F0D4B2;stroke:#E32A26;stroke-miterlimit:10;enable-background:new    ;}
	
		.st47{opacity:0.5;clip-path:url(#SVGID_13_);fill:none;stroke:#120F0D;stroke-width:2;stroke-miterlimit:10;enable-background:new    ;}
	
		.st48{opacity:0.5;clip-path:url(#SVGID_15_);fill:none;stroke:#120F0D;stroke-width:2;stroke-miterlimit:10;enable-background:new    ;}
	
		.st49{opacity:0.5;clip-path:url(#SVGID_17_);fill:none;stroke:#120F0D;stroke-width:2;stroke-miterlimit:10;enable-background:new    ;}
	
		.st50{opacity:0.5;clip-path:url(#SVGID_19_);fill:none;stroke:#FFFFFF;stroke-width:2;stroke-miterlimit:10;enable-background:new    ;}
	
		.st51{opacity:0.5;clip-path:url(#SVGID_21_);fill:none;stroke:#FFFFFF;stroke-width:2;stroke-miterlimit:10;enable-background:new    ;}
	
		.st52{opacity:0.5;clip-path:url(#SVGID_23_);fill:none;stroke:#120F0D;stroke-width:2;stroke-miterlimit:10;enable-background:new    ;}
	
		.st53{opacity:0.5;clip-path:url(#SVGID_25_);fill:none;stroke:#120F0D;stroke-width:2;stroke-miterlimit:10;enable-background:new    ;}
	
		.st54{opacity:0.5;clip-path:url(#SVGID_27_);fill:none;stroke:#120F0D;stroke-width:2;stroke-miterlimit:10;enable-background:new    ;}
	
		.st55{opacity:0.5;clip-path:url(#SVGID_29_);fill:none;stroke:#120F0D;stroke-width:2;stroke-miterlimit:10;enable-background:new    ;}
	
		.st56{opacity:0.5;clip-path:url(#SVGID_31_);fill:none;stroke:#120F0D;stroke-width:2;stroke-miterlimit:10;enable-background:new    ;}
	
		.st57{opacity:0.5;clip-path:url(#SVGID_33_);fill:none;stroke:#120F0D;stroke-width:2;stroke-miterlimit:10;enable-background:new    ;}
	
		.st58{opacity:0.5;clip-path:url(#SVGID_35_);fill:none;stroke:#120F0D;stroke-width:2;stroke-miterlimit:10;enable-background:new    ;}
	
		.st59{opacity:0.5;clip-path:url(#SVGID_37_);fill:none;stroke:#120F0D;stroke-width:2;stroke-miterlimit:10;enable-background:new    ;}
	
		.st60{opacity:0.5;clip-path:url(#SVGID_39_);fill:none;stroke:#120F0D;stroke-width:2;stroke-miterlimit:10;enable-background:new    ;}
	
		.st61{opacity:0.5;clip-path:url(#SVGID_41_);fill:none;stroke:#FFFFFF;stroke-width:2;stroke-miterlimit:10;enable-background:new    ;}
	
		.st62{opacity:0.5;clip-path:url(#SVGID_43_);fill:none;stroke:#FFFFFF;stroke-width:2;stroke-miterlimit:10;enable-background:new    ;}
	.st63{fill:#DDA747;}
	.st64{fill:#EA9B97;}
	.st65{opacity:0.8;fill:#FFFFFF;enable-background:new    ;}
	.st66{fill:none;}
	.st67{fill:#F5D1B6;}
	.st68{fill:#F5D1B6;stroke:#F4CAAE;stroke-miterlimit:10;}
	.st69{fill:#5C2214;}
	.st70{fill:#FFFFFF;stroke:#CECECD;stroke-miterlimit:10;}
	.st71{fill:none;stroke:#231F20;stroke-width:0.365;stroke-miterlimit:10;}
	.st72{fill:#231F20;}
	.st73{fill:#0E113C;}
	.st74{fill:none;stroke:#5C2214;stroke-width:0.5;stroke-miterlimit:10;}
	.st75{fill:#F59698;}
	.st76{fill:#2D2D2D;}
	.st77{fill:none;stroke:#FFFFFF;stroke-width:0.25;stroke-miterlimit:10;}
	.st78{fill:#CECECD;}
	.st79{font-size:4.865px;}
	.st80{fill:none;stroke:#251407;stroke-width:0.25;stroke-miterlimit:10;}
	.st81{font-size:1.5231px;}
</style>
<path class="st0" d="M604.2,665.1V434.7c0-1.7,0.9-2.8,2.1-3.3V102H144.2v596.7h462v-30.3C605.1,667.9,604.2,666.9,604.2,665.1z"/>
<path class="st1" d="M168.1,680.6c9.6-1.4,18.7,5.5,28.5,5.2c9-0.3,16.6-6.7,25.2-9.4c2-0.6,4.2-1.1,6.2-0.3
	c1.9,0.7,3.2,2.3,4.8,3.5c6.8,5.6,16.5,5.3,25.2,5.5c17.1,0.5,34.1,3.9,50.9,7.4c3.5,3.3,1.8,9.6-2,12.5c-3.8,2.9-8.9,3.3-13.7,3.6
	c-48.2,3.1-96.4,2.1-144.7,1.2c-1.7,0-3.6-0.2-4.9-1.3c-1.1-1.1-1.4-2.6-1.6-4.2c-0.6-4.8-0.7-9.7-0.2-14.6
	C151.3,690.6,158.9,681.9,168.1,680.6z"/>
<path class="st2" d="M435.3,691l170.9-1.8c0.5,9.8-0.5,1.7,0,11.5c-64.2,1.7-106.7,0-170.9,0V691z"/>
<g>
	<rect x="243.3" y="218.3" class="st3" width="263.1" height="72.2"/>
	<text transform="matrix(1 0 0 1 285.0078 258.2739)" class="st4 st5">Digestives</text>
	<text transform="matrix(1 0 0 1 249.374 276.394)" class="st6 st7">Caramel Biscuits with Milk Chocolate Flavoured Coating</text>
</g>
<g>
	<path class="st8" d="M181.7,685.9L181.7,685.9c-5,0-9.1-4.1-9.1-9.1V430.4c0-5,4.1-9.1,9.1-9.1l0,0c5,0,9.1,4.1,9.1,9.1v246.4
		C190.8,681.8,186.7,685.9,181.7,685.9z"/>
	<circle class="st9" cx="181.1" cy="381.9" r="48.2"/>
	<circle class="st10" cx="180.7" cy="381.9" r="32.8"/>
	<rect x="120.1" y="374.5" class="st11" width="121.2" height="19.1"/>
	<text transform="matrix(1 0 0 1 148.002 388.9761)" class="st10 st12 st13">MCVITIES</text>
</g>
<g>
	<path class="st14" d="M213.7,158.3c8.5-12.7,16.2-24.7,24.8-36.6c2.4-3.3,7.3-4.7,9.7-4.7c0.2,0,2.3,0,255.3,0c5.6,0,6.6,0,10.1,3
		c1.8,1.5,27.3,36.9,27.3,36.9s-24.8,36.8-25.3,37.4c-2.3,2.6-5.6,3.9-9.4,3.9c-86.8,0-257.3,0-257.3,0s-6.3-0.5-9.5-4.2
		L213.7,158.3L213.7,158.3z"/>
	<path class="st15" d="M530.8,157.8L510.9,130c-1.9-2.6-6.2-4.1-8.7-4.1c-151.4,0-95.5,0-250.1,0c-1.2,0-6.2,0.8-8.8,4.1l-19,28.2
		c6.9,9.7,13.5,18.9,20.2,28.1c2,2.8,5.6,3.9,8.4,3.9c2.8,0,247.9,0,251-0.1c2.4,0,5.9-1.1,8.2-4.8L530.8,157.8L530.8,157.8z"/>
	<path class="st16" d="M248.5,187.5c-2.6-1.5-0.8-6.5-0.8-6.5s2.6-3.2,6-4.1c6-1.4,15.8-1.4,18.3-5.3c1,1.5,1,7.3-4.9,7.7
		C260.2,180.9,252.9,184.2,248.5,187.5L248.5,187.5z"/>
	<path class="st16" d="M257.3,175.1c0,0-8.3-8.8,5.3-12.2c6.1-1.5,6.3,0.2,14.1-5.3c0.5,2.4-0.4,7-4.1,8.4
		C259.9,169.6,257.3,175.1,257.3,175.1L257.3,175.1z"/>
	<path class="st16" d="M263.1,155.6c0,0-3.1-4.5,3.9-7.9c12.2-2.7,14.9-5,14.9-5s1.4,5.3-4.1,7.5c-8.3,1.7-13.6,7.7-13.6,7.7
		L263.1,155.6L263.1,155.6z"/>
	<path class="st16" d="M262.3,148.6c0,0-12.1-15.1,12.9-19.7c1.4,6.2-3.4,13.4-5.3,15.3C266.8,148.1,262.3,148.6,262.3,148.6
		L262.3,148.6z"/>
	<path class="st16" d="M259.6,131.4c-14.8,12.3-6.1,37.5-6.1,37.5l9-7.7c0,0,3.5-2,2-8.4C262.7,146.7,259.6,149.4,259.6,131.4
		L259.6,131.4z"/>
	<path class="st16" d="M245.8,179.5c2.9,0.7,6.8-2,6.8-2s4.8-1.9,3.4-10c-5.1-12.2-4.2-24.2-4.2-24.2s-12.4,11.5-9.9,23
		C244.4,178.2,244.1,175.3,245.8,179.5L245.8,179.5z"/>
	<path class="st10" d="M488.7,167.7l-0.5,6.3c3.9,2,13.8,6.1,20.5-2.6c6-9.7,0.7-13.5,0.4-13.7c-2.6-3.6-9-4.3-10.2-6.5
		c-1.1-2.2,0-6.3,3.2-6.6c6.6-0.7,9.2,4.3,9.2,4.3l0.4-0.4v-7.2c0,0-2.3,0.4-6.8-0.7c-2.9-0.4-9.5-0.7-12.8,8.2
		c-1.4,8.1,2.9,9.7,2.9,9.7l8.2,5c0,0,2.6,3.9-0.8,6.3C497.6,173.9,491.4,169.7,488.7,167.7L488.7,167.7z"/>
	<path class="st10" d="M489.3,147.2c4.5-4.9,1.4-6.6,0.9-7.3c-0.5-0.8-3.8,0-3.8,0c-4.5,3.8,0.4,5.8,0.8,5.5
		c0.7,1.1-1.7,3.2-1.7,3.2S486.7,149.6,489.3,147.2L489.3,147.2z"/>
	<path class="st10" d="M437.3,174.1l-0.5,1.5H448l0.2-0.7c0,0-1.2-1.1-1.4-1.7c-0.4-0.7,3.9-28.1,4.2-29.1c-0.2-1.2,2-2.4,2-2.4
		v-1.2h-10.9l-0.3,0.8c0,0,1,0.7,1.2,2.6c0.2,2.4-3.4,27.4-3.5,28.4C439.3,173.4,438.1,173.8,437.3,174.1L437.3,174.1z"/>
	<path class="st10" d="M460.7,140.7c11.9,0.4,20.9-0.7,20.9-0.7l-0.8,7.5h-0.5c0,0,0.2-2.2-3.8-2.2c-3.8,0-6-0.2-6.8,0.4
		c-0.5,0.8-1.2,4.3-1.5,8.1c1.9,3.2,9.4-0.7,9.4-0.7l-1.5,8.4c0,0-0.2-1.9-3.4-1.9s-2.3-0.4-4.2,0c-2,2-2.4,9.6-2.4,9.6
		s-0.2,1.5,0.8,1.4c12.6,1.2,13.4-2.6,13.4-2.6s0.2,8.4-5.6,7.7c-5.6-0.8-19.2,0-19.2,0v-1.1c0,0,2.7-0.5,2.9-4.8
		c0.7-0.2,2.7-22.8,3.2-25.4c0.7-2.7-1-3.1-1-3.1S460.5,141.2,460.7,140.7L460.7,140.7z"/>
	<path class="st10" d="M437.9,140.7L436,141c-2.8,0.3-17.7,0.9-26.3-0.1c0,0.2-1.7,6.6-1.7,6.6l0.5,0.2c3.8-3.2,9.9-2.6,9.9-2.6
		l0.7,1.2c0,0-2.4,24.3-3.9,26.5c-1.4,2.2-2.4,2-2.4,2v0.7h12.1l0.2-0.7c0,0-1.2,0.2-1.4-2.9c-0.4-3.2,2.4-24.2,3.2-25.5
		c0.7-1.4,0.2-1.2,1.2-1.5c0.8-0.4,1.4-0.7,4.2-0.2c3.1,0.4,4.1,3.6,4.1,3.6L437.9,140.7L437.9,140.7z"/>
	<path class="st10" d="M390.4,174.4l-0.5,1.4h10.9l0.4-0.7c0,0-1.5-1.2-1.5-1.7s3.9-28.2,4.5-29.3c-0.2-1.2,1.9-2.2,1.9-2.2l0.2-1.2
		h-10.9l-0.5,0.8c0,0,1.2,0.5,1.4,2.6c0.3,2.4-3.5,27.2-3.7,28.4C392.1,173.2,391.1,173.9,390.4,174.4L390.4,174.4z"/>
	<path class="st10" d="M392.9,141l-0.2-0.1h-9.1l0.2,1.7l-0.5,2.6c0,0-9.9,21.1-10,19.7c-1.2,0-4.8-16.9-4.8-19.7
		c0-2.6,2.3-3.8,2.3-3.8l-0.2-0.5h-13.1c0,0,0,0.8,0.5,1.4c1,0.7,2.2,2.7,3.2,7c1.9,7,4.9,18.6,4.9,18.6s2.2,8.5,6.8,8.2
		c3.5-6.2,14-29.4,14-29.4s3.3-4.2,5.2-4.5L392.9,141L392.9,141z"/>
	<path class="st10" d="M355,168.7c1.2,6.5-6.3,5.7-6.3,5.7s-5.6-0.4-7.9-0.7c-2.4-0.4-4.9,1.1-4.9,1.1s1-6.3,8.3-4.6
		C351.5,171.8,355.2,169.1,355,168.7L355,168.7z"/>
	<path class="st10" d="M280.8,175.3c0,0,0.7,0.5,2.9-2.6c2.2-3.1,7.6-23.1,8.5-27.2c0.8-4.1-1.7-3.9-1.7-3.9l0.5-0.8l10.9-0.2
		c0,0,1.4,0.8,4.5,23.1c0.7,3.2,15.6-22.8,15.6-22.8h9.1l-0.4,0.9l-1.5,1.7c0,0-2.4,27.9-1.5,30.3c1.1,2.6,1.4,1.5,1.4,1.5l-0.2,1.1
		l-11.9,0.1l0.3-1.2c0,0,1.1-0.2,1.7-1.5c0.7-1.4,2.2-19.3,1.7-19.9c-0.5-0.7-14.8,22.4-15.6,22.6c-0.7,0-3.5,0.5-5.3-8.2
		c-1.7-8.5-2.7-15.8-3.4-16.1c-0.5-0.2-6.8,21.4-6.8,21.4s0.4,0.5,1.4,1.6c1.1,1.1,0.2,0.8,0.2,0.8h-10L280.8,175.3L280.8,175.3z"/>
	<path class="st10" d="M354.3,147.8c-0.2-0.2-1.5-6-1.5-6s-13.1-4.6-17.8,8.2c-4.8,12.5,10,19.1,15.8,15.3c5.8-3.8,3.8-4.6,4.1-5.5
		c0.5-0.7-0.7-0.5-0.7-0.5s-2,1.9-4.5,2.4c-2.6,0.4-5.3,1.2-8-2.4c-2.7-3.8-2-9.4,0.4-12C344.5,144.8,348.7,142.8,354.3,147.8
		L354.3,147.8z"/>
</g>
<g>
	<rect x="306.3" y="691" class="st2" width="130" height="9.7"/>
	<rect x="310.5" y="415" class="st17" width="121.5" height="6.4"/>
	<rect x="311.4" y="421.4" class="st18" width="119.8" height="269.5"/>
	<path class="st18" d="M315.2,415v-17.4c0,0,16.1-20.8,54.9-19.5l14-0.1c0,0,13.7,1.1,24.2,5.3s16.2,9,20,13.3v18.5L315.2,415
		L315.2,415z"/>
	<path class="st19" d="M315.2,397.6l-2.3-2c0,0,8.5-12.2,24.6-17.1c0.8-0.2,1.7-0.5,2.4-0.8c7.2-3,51.9-19.7,91.2,17.2l-2.9,1.7
		C428.2,396.5,374.9,355.6,315.2,397.6z"/>
	<rect x="327.1" y="433.8" class="st20" width="89.4" height="230.3"/>
	<path class="st21" d="M388.4,662.7c8.5,0,18.3,0.2,26.7,0.2c0.8-28.5,0.4-56.5,1.2-84.9c0.2-9.3,0.5-18.6-1.4-27.7
		c-5.1-23.5-23.7-41.1-38.8-59.8c-3.4-4.2-6.6-8.5-8.7-13.5c-5.3-12.8-1.4-28.8,2.6-42.1c-6.5-0.3-14,0.3-20.5-0.1
		c-10.9,13.5-14.9,32.8-11.1,49.8c3.9,17.4,15.6,31.9,27.8,44.9s25.4,25.4,33.9,41.1c5.7,10.6,9,23.2,5.5,34.7
		c-2.9,9.8-10.4,17.6-14.7,27C386.5,641.9,385.5,652.6,388.4,662.7z"/>
	<g>
		<line class="st22" x1="356" y1="434.6" x2="356" y2="665"/>
		<line class="st22" x1="391.5" y1="434.3" x2="391.5" y2="665"/>
		<line class="st22" x1="327.1" y1="462.1" x2="416.5" y2="462.1"/>
		<line class="st22" x1="328.4" y1="521" x2="416.5" y2="521"/>
		<line class="st22" x1="327.6" y1="579.5" x2="416.5" y2="579.5"/>
		<line class="st22" x1="328" y1="638.8" x2="416.5" y2="638.8"/>
	</g>
	<path class="st23" d="M423.6,544.7h-0.5c-1.7,0-3-1.4-3-3v-11.6c0-1.7,1.4-3,3-3h0.5c1.7,0,3,1.4,3,3v11.6
		C426.6,543.4,425.3,544.7,423.6,544.7z"/>
	<circle class="st24" cx="372.4" cy="396.4" r="16.8"/>
	<circle class="st25" cx="368.1" cy="384.4" r="0.5"/>
	<circle class="st25" cx="362.2" cy="387.2" r="0.5"/>
	<circle class="st25" cx="374" cy="383.8" r="0.5"/>
	<circle class="st25" cx="379.6" cy="386.4" r="0.5"/>
	<circle class="st25" cx="376.3" cy="392" r="0.5"/>
	<circle class="st25" cx="367" cy="392.7" r="0.5"/>
	<circle class="st25" cx="360.6" cy="393.2" r="0.5"/>
	<circle class="st25" cx="361.1" cy="400.1" r="0.5"/>
	<circle class="st25" cx="367.4" cy="399.2" r="0.5"/>
	<circle class="st25" cx="364.4" cy="405.4" r="0.5"/>
	<circle class="st25" cx="369.6" cy="407.8" r="0.5"/>
	<circle class="st25" cx="372.4" cy="403.8" r="0.5"/>
	<circle class="st25" cx="375.8" cy="407.4" r="0.5"/>
	<circle class="st25" cx="381" cy="404.1" r="0.5"/>
	<circle class="st25" cx="376.7" cy="398.5" r="0.5"/>
	<circle class="st25" cx="383.8" cy="399.1" r="0.5"/>
	<circle class="st25" cx="383" cy="391.5" r="0.5"/>
	<path class="st26" d="M368.2,393.8c0,0-2.2-0.7-2.2,1.6c0,0,0.2,2,2.2,1.1"/>
	<line class="st26" x1="366.5" y1="397.8" x2="368.1" y2="397.8"/>
	<text transform="matrix(1 0 0 1 360.5684 397.9541)" class="st25 st27 st28">M  VITIES</text>
	<g>
		<g>
			<path class="st25" d="M372.3,387.5c0,0,0.4-1.8,3.7-2.1C376,385.4,374.4,388.1,372.3,387.5z"/>
			<path class="st25" d="M369.3,387.4c0,0,0.4-1.8,3.7-2.1C373,385.3,371.4,388,369.3,387.4z"/>
			<path class="st25" d="M366.5,387.6c0,0,0.2-1.8,3.5-2.3C370,385.2,368.7,388.1,366.5,387.6z"/>
			<path class="st25" d="M372.2,387.8c0,0,0.1,1.8,3.4,2.6C375.5,390.5,374.3,387.6,372.2,387.8z"/>
			<path class="st25" d="M369.3,387.8c0,0,0.3,1.8,3.6,2.3C372.9,390.1,371.4,387.3,369.3,387.8z"/>
			<path class="st25" d="M366.5,388c0,0,0.3,1.8,3.7,2.1C370.2,390.1,368.7,387.4,366.5,388z"/>
		</g>
	</g>
	<path class="st25" d="M374.4,387.8c0,0,1.8-1.7,5.9,0.5C380.3,388.4,376.3,390.2,374.4,387.8z"/>
	<path class="st25" d="M366,387.8c0,0,0.2,1.3-1.7,2.1C364.2,389.9,364.6,387.8,366,387.8z"/>
</g>
<path class="st29" d="M574.7,655.5c9.3-0.2,17.6-0.2,26.4,0"/>
<line class="st29" x1="466.4" y1="655.5" x2="509.1" y2="655.5"/>
<g>
	<g>
		<path class="st30" d="M605.9,498.7c-45.4,1-67.1,7.9-67.1,7.9c-38.5,4.4-44.3,69-44.3,69c-29.7,16-25.4,56.6-25.4,56.6
			c-12.4,14.5-5.8,31.9-5.8,31.9h142.7V498.7z"/>
		<circle class="st31" cx="545.4" cy="669.7" r="31"/>
		<path class="st32" d="M538,520.3c-8.5,4.8-28,19-27.2,49.6c0.1,3.3,2.8,6,6.1,6h25.4c3.2,0,5.7-2.3,6.1-5.4
			c1.1-11.4,3.1-37.5-2.2-47.9C544.6,519.7,540.9,518.7,538,520.3z"/>
		<path class="st32" d="M605.9,519.5h-39.3c-3.5,0-6.3,2.8-6.3,6.3v43.9c0,3.5,2.8,6.3,6.3,6.3h39.3V519.5z"/>
		<line class="st29" x1="553.4" y1="584.4" x2="553.4" y2="664.2"/>
		<line class="st29" x1="561.9" y1="610.8" x2="576.4" y2="610.8"/>
		<path class="st32" d="M469.1,632.2c0,0,21.7-0.1,15.9,31.9h-21.7C463.3,664.2,456.1,646.6,469.1,632.2z"/>
	</g>
	<rect x="573.5" y="592.9" class="st33" width="32.4" height="22.5"/>
	<text transform="matrix(1 0 0 1 576.5049 611.6904)" class="st34 st35">TAX</text>
	<g>
		<circle class="st24" cx="545.4" cy="670" r="33.8"/>
		<circle class="st25" cx="536.7" cy="645.9" r="1.1"/>
		<circle class="st25" cx="524.9" cy="651.5" r="1.1"/>
		<circle class="st25" cx="548.8" cy="644.5" r="1.1"/>
		<circle class="st25" cx="560.1" cy="649.7" r="1.1"/>
		<circle class="st25" cx="553.5" cy="661" r="1.1"/>
		<circle class="st25" cx="534.6" cy="662.4" r="1.1"/>
		<circle class="st25" cx="521.7" cy="663.6" r="1.1"/>
		<circle class="st25" cx="522.8" cy="677.3" r="1.1"/>
		<circle class="st25" cx="535.5" cy="675.7" r="1.1"/>
		<circle class="st25" cx="529.4" cy="688.1" r="1.1"/>
		<circle class="st25" cx="539.9" cy="692.9" r="1.1"/>
		<circle class="st25" cx="545.4" cy="684.8" r="1.1"/>
		<circle class="st25" cx="552.4" cy="692.2" r="1.1"/>
		<circle class="st25" cx="563" cy="685.6" r="1.1"/>
		<circle class="st25" cx="554.3" cy="674.1" r="1.1"/>
		<circle class="st25" cx="568.5" cy="675.4" r="1.1"/>
		<circle class="st25" cx="567.1" cy="659.9" r="1.1"/>
		<path class="st36" d="M537.2,664.6c0,0-4.4-1.4-4.5,3.2c0,0,0.2,3.9,4.5,2.3"/>
		<line class="st36" x1="533.6" y1="672.7" x2="537" y2="672.7"/>
		<text transform="matrix(1 0 0 1 521.7002 673.084)" class="st25 st27 st37">M  VITIES</text>
		<g>
			<g>
				<path class="st25" d="M545.3,652c0,0,0.7-3.6,7.5-4.2C552.8,647.8,549.6,653.2,545.3,652z"/>
				<path class="st25" d="M539.3,651.7c0,0,0.7-3.6,7.5-4.2C546.8,647.5,543.5,652.9,539.3,651.7z"/>
				<path class="st25" d="M533.6,652.2c0,0,0.5-3.6,7.2-4.8C540.8,647.4,537.9,653.1,533.6,652.2z"/>
				<path class="st25" d="M545.1,652.8c0,0,0.2,3.7,6.9,5.2C552,658,549.5,652.2,545.1,652.8z"/>
				<path class="st25" d="M539.3,652.6c0,0,0.5,3.6,7.3,4.5C546.6,657.2,543.6,651.6,539.3,652.6z"/>
				<path class="st25" d="M533.9,652.9c0,0,0.7,3.6,7.5,4.3C541.3,657.2,538.1,651.8,533.9,652.9z"/>
			</g>
		</g>
		<path class="st25" d="M549.6,652.7c0,0,3.7-3.5,11.9,1.1C561.5,653.9,553.5,657.4,549.6,652.7z"/>
		<path class="st25" d="M532.7,652.6c0,0,0.4,2.5-3.5,4.3C529.1,656.9,529.9,652.7,532.7,652.6z"/>
	</g>
</g>
<g id="Purse" class="st38">
	<g class="st39">
		<path class="st40" d="M-196.7,732.6c0,0,0-38,20.9-40.3c0,0,18.9-4.8,21.9,38.5"/>
		<g>
			<g>
				<path id="SVGID_5_" class="st41" d="M-197.8,728.3c0,0,21.8-10.1,44.8,0.7c0,0,17.3,33.5,5.2,50.6c0,0-1.4,2.1-5.1,1.6
					l-49.1,0.1c0,0-2.6,0.2-3-2.6c-0.4-2.7-9.8-17.5,4.8-46C-199.4,731.2-198.6,729.8-197.8,728.3z"/>
			</g>
			<g>
				<defs>
					<path id="SVGID_1_" d="M-197.8,728.3c0,0,21.8-10.1,44.8,0.7c0,0,17.3,33.5,5.2,50.6c0,0-1.4,2.1-5.1,1.6l-49.1,0.1
						c0,0-2.6,0.2-3-2.6c-0.4-2.7-9.8-17.5,4.8-46C-199.4,731.2-198.6,729.8-197.8,728.3z"/>
				</defs>
				<clipPath id="SVGID_2_">
					<use xlink:href="#SVGID_1_"  style="overflow:visible;"/>
				</clipPath>
				<path class="st42" d="M-176.5,724c0,0,2.2,49,0.5,57.2"/>
			</g>
			<g>
				<defs>
					<path id="SVGID_3_" d="M-197.8,728.3c0,0,21.8-10.1,44.8,0.7c0,0,17.3,33.5,5.2,50.6c0,0-1.4,2.1-5.1,1.6l-49.1,0.1
						c0,0-2.6,0.2-3-2.6c-0.4-2.7-9.8-17.5,4.8-46C-199.4,731.2-198.6,729.8-197.8,728.3z"/>
				</defs>
				<clipPath id="SVGID_4_">
					<use xlink:href="#SVGID_3_"  style="overflow:visible;"/>
				</clipPath>
				<path class="st43" d="M-201.5,735.5c0,0,6.2-1.3,13.8,1.2c0,0,5.2,3,11.8,2.5c0,0,5.2,1.4,17-2.1c0,0,5.6-1.9,9.6,0.1"/>
			</g>
			<g>
				<defs>
					<path id="SVGID_6_" d="M-197.8,728.3c0,0,21.8-10.1,44.8,0.7c0,0,17.3,33.5,5.2,50.6c0,0-1.4,2.1-5.1,1.6l-49.1,0.1
						c0,0-2.6,0.2-3-2.6c-0.4-2.7-9.8-17.5,4.8-46C-199.4,731.2-198.6,729.8-197.8,728.3z"/>
				</defs>
				<clipPath id="SVGID_7_">
					<use xlink:href="#SVGID_6_"  style="overflow:visible;"/>
				</clipPath>
				<path class="st44" d="M-190.2,725.8c0,0-2.1,13.6-2,16c0,0-0.4,15.1-0.9,15.7c0,0-0.1,22.9-0.8,23.8"/>
			</g>
			<g>
				<defs>
					<path id="SVGID_8_" d="M-197.8,728.3c0,0,21.8-10.1,44.8,0.7c0,0,17.3,33.5,5.2,50.6c0,0-1.4,2.1-5.1,1.6l-49.1,0.1
						c0,0-2.6,0.2-3-2.6c-0.4-2.7-9.8-17.5,4.8-46C-199.4,731.2-198.6,729.8-197.8,728.3z"/>
				</defs>
				<clipPath id="SVGID_9_">
					<use xlink:href="#SVGID_8_"  style="overflow:visible;"/>
				</clipPath>
				<path class="st45" d="M-160.2,726.2c0,0,2.1,13.2,2,15.6c0,0,0.4,15.1,0.9,15.7c0,0,0.1,22.9,0.8,23.8"/>
			</g>
			<g>
				<defs>
					<path id="SVGID_10_" d="M-197.8,728.3c0,0,21.8-10.1,44.8,0.7c0,0,17.3,33.5,5.2,50.6c0,0-1.4,2.1-5.1,1.6l-49.1,0.1
						c0,0-2.6,0.2-3-2.6c-0.4-2.7-9.8-17.5,4.8-46C-199.4,731.2-198.6,729.8-197.8,728.3z"/>
				</defs>
				<clipPath id="SVGID_11_">
					<use xlink:href="#SVGID_10_"  style="overflow:visible;"/>
				</clipPath>
				<path class="st46" d="M-208.3,758.1c0,0,1.5,1.6,15.1,0c0,0,16.1,2,17.9,1.8c0,0,10.7-0.3,17.9-0.9c0,0,11.1-0.9,13.7,0.9"/>
			</g>
			<g>
				<defs>
					<path id="SVGID_12_" d="M-197.8,728.3c0,0,21.8-10.1,44.8,0.7c0,0,17.3,33.5,5.2,50.6c0,0-1.4,2.1-5.1,1.6l-49.1,0.1
						c0,0-2.6,0.2-3-2.6c-0.4-2.7-9.8-17.5,4.8-46C-199.4,731.2-198.6,729.8-197.8,728.3z"/>
				</defs>
				<clipPath id="SVGID_13_">
					<use xlink:href="#SVGID_12_"  style="overflow:visible;"/>
				</clipPath>
				<line class="st47" x1="-187.4" y1="724" x2="-188.6" y2="781.2"/>
			</g>
			<g>
				<defs>
					<path id="SVGID_14_" d="M-197.8,728.3c0,0,21.8-10.1,44.8,0.7c0,0,17.3,33.5,5.2,50.6c0,0-1.4,2.1-5.1,1.6l-49.1,0.1
						c0,0-2.6,0.2-3-2.6c-0.4-2.7-9.8-17.5,4.8-46C-199.4,731.2-198.6,729.8-197.8,728.3z"/>
				</defs>
				<clipPath id="SVGID_15_">
					<use xlink:href="#SVGID_14_"  style="overflow:visible;"/>
				</clipPath>
				<line class="st48" x1="-183.7" y1="724" x2="-184.9" y2="781.2"/>
			</g>
			<g>
				<defs>
					<path id="SVGID_16_" d="M-197.8,728.3c0,0,21.8-10.1,44.8,0.7c0,0,17.3,33.5,5.2,50.6c0,0-1.4,2.1-5.1,1.6l-49.1,0.1
						c0,0-2.6,0.2-3-2.6c-0.4-2.7-9.8-17.5,4.8-46C-199.4,731.2-198.6,729.8-197.8,728.3z"/>
				</defs>
				<clipPath id="SVGID_17_">
					<use xlink:href="#SVGID_16_"  style="overflow:visible;"/>
				</clipPath>
				<line class="st49" x1="-180.1" y1="724" x2="-181.3" y2="781.2"/>
			</g>
			<g>
				<defs>
					<path id="SVGID_18_" d="M-197.8,728.3c0,0,21.8-10.1,44.8,0.7c0,0,17.3,33.5,5.2,50.6c0,0-1.4,2.1-5.1,1.6l-49.1,0.1
						c0,0-2.6,0.2-3-2.6c-0.4-2.7-9.8-17.5,4.8-46C-199.4,731.2-198.6,729.8-197.8,728.3z"/>
				</defs>
				<clipPath id="SVGID_19_">
					<use xlink:href="#SVGID_18_"  style="overflow:visible;"/>
				</clipPath>
				<line class="st50" x1="-185.5" y1="724" x2="-186.8" y2="781.2"/>
			</g>
			<g>
				<defs>
					<path id="SVGID_20_" d="M-197.8,728.3c0,0,21.8-10.1,44.8,0.7c0,0,17.3,33.5,5.2,50.6c0,0-1.4,2.1-5.1,1.6l-49.1,0.1
						c0,0-2.6,0.2-3-2.6c-0.4-2.7-9.8-17.5,4.8-46C-199.4,731.2-198.6,729.8-197.8,728.3z"/>
				</defs>
				<clipPath id="SVGID_21_">
					<use xlink:href="#SVGID_20_"  style="overflow:visible;"/>
				</clipPath>
				<line class="st51" x1="-181.9" y1="724" x2="-183.2" y2="781.2"/>
			</g>
			<g>
				<defs>
					<path id="SVGID_22_" d="M-197.8,728.3c0,0,21.8-10.1,44.8,0.7c0,0,17.3,33.5,5.2,50.6c0,0-1.4,2.1-5.1,1.6l-49.1,0.1
						c0,0-2.6,0.2-3-2.6c-0.4-2.7-9.8-17.5,4.8-46C-199.4,731.2-198.6,729.8-197.8,728.3z"/>
				</defs>
				<clipPath id="SVGID_23_">
					<use xlink:href="#SVGID_22_"  style="overflow:visible;"/>
				</clipPath>
				<line class="st52" x1="-207.3" y1="750.7" x2="-143.4" y2="751.9"/>
			</g>
			<g>
				<defs>
					<path id="SVGID_24_" d="M-197.8,728.3c0,0,21.8-10.1,44.8,0.7c0,0,17.3,33.5,5.2,50.6c0,0-1.4,2.1-5.1,1.6l-49.1,0.1
						c0,0-2.6,0.2-3-2.6c-0.4-2.7-9.8-17.5,4.8-46C-199.4,731.2-198.6,729.8-197.8,728.3z"/>
				</defs>
				<clipPath id="SVGID_25_">
					<use xlink:href="#SVGID_24_"  style="overflow:visible;"/>
				</clipPath>
				<line class="st53" x1="-207.3" y1="747" x2="-143.4" y2="748.2"/>
			</g>
			<g>
				<defs>
					<path id="SVGID_26_" d="M-197.8,728.3c0,0,21.8-10.1,44.8,0.7c0,0,17.3,33.5,5.2,50.6c0,0-1.4,2.1-5.1,1.6l-49.1,0.1
						c0,0-2.6,0.2-3-2.6c-0.4-2.7-9.8-17.5,4.8-46C-199.4,731.2-198.6,729.8-197.8,728.3z"/>
				</defs>
				<clipPath id="SVGID_27_">
					<use xlink:href="#SVGID_26_"  style="overflow:visible;"/>
				</clipPath>
				<line class="st54" x1="-207.3" y1="743.3" x2="-143.4" y2="744.5"/>
			</g>
			<g>
				<defs>
					<path id="SVGID_28_" d="M-197.8,728.3c0,0,21.8-10.1,44.8,0.7c0,0,17.3,33.5,5.2,50.6c0,0-1.4,2.1-5.1,1.6l-49.1,0.1
						c0,0-2.6,0.2-3-2.6c-0.4-2.7-9.8-17.5,4.8-46C-199.4,731.2-198.6,729.8-197.8,728.3z"/>
				</defs>
				<clipPath id="SVGID_29_">
					<use xlink:href="#SVGID_28_"  style="overflow:visible;"/>
				</clipPath>
				<line class="st55" x1="-208.4" y1="773.5" x2="-142.2" y2="774.7"/>
			</g>
			<g>
				<defs>
					<path id="SVGID_30_" d="M-197.8,728.3c0,0,21.8-10.1,44.8,0.7c0,0,17.3,33.5,5.2,50.6c0,0-1.4,2.1-5.1,1.6l-49.1,0.1
						c0,0-2.6,0.2-3-2.6c-0.4-2.7-9.8-17.5,4.8-46C-199.4,731.2-198.6,729.8-197.8,728.3z"/>
				</defs>
				<clipPath id="SVGID_31_">
					<use xlink:href="#SVGID_30_"  style="overflow:visible;"/>
				</clipPath>
				<line class="st56" x1="-208.4" y1="769.8" x2="-142.2" y2="771"/>
			</g>
			<g>
				<defs>
					<path id="SVGID_32_" d="M-197.8,728.3c0,0,21.8-10.1,44.8,0.7c0,0,17.3,33.5,5.2,50.6c0,0-1.4,2.1-5.1,1.6l-49.1,0.1
						c0,0-2.6,0.2-3-2.6c-0.4-2.7-9.8-17.5,4.8-46C-199.4,731.2-198.6,729.8-197.8,728.3z"/>
				</defs>
				<clipPath id="SVGID_33_">
					<use xlink:href="#SVGID_32_"  style="overflow:visible;"/>
				</clipPath>
				<line class="st57" x1="-208.4" y1="766.2" x2="-142.2" y2="767.4"/>
			</g>
			<g>
				<defs>
					<path id="SVGID_34_" d="M-197.8,728.3c0,0,21.8-10.1,44.8,0.7c0,0,17.3,33.5,5.2,50.6c0,0-1.4,2.1-5.1,1.6l-49.1,0.1
						c0,0-2.6,0.2-3-2.6c-0.4-2.7-9.8-17.5,4.8-46C-199.4,731.2-198.6,729.8-197.8,728.3z"/>
				</defs>
				<clipPath id="SVGID_35_">
					<use xlink:href="#SVGID_34_"  style="overflow:visible;"/>
				</clipPath>
				<line class="st58" x1="-163.3" y1="724" x2="-162.1" y2="781.2"/>
			</g>
			<g>
				<defs>
					<path id="SVGID_36_" d="M-197.8,728.3c0,0,21.8-10.1,44.8,0.7c0,0,17.3,33.5,5.2,50.6c0,0-1.4,2.1-5.1,1.6l-49.1,0.1
						c0,0-2.6,0.2-3-2.6c-0.4-2.7-9.8-17.5,4.8-46C-199.4,731.2-198.6,729.8-197.8,728.3z"/>
				</defs>
				<clipPath id="SVGID_37_">
					<use xlink:href="#SVGID_36_"  style="overflow:visible;"/>
				</clipPath>
				<line class="st59" x1="-167" y1="724" x2="-165.8" y2="781.2"/>
			</g>
			<g>
				<defs>
					<path id="SVGID_38_" d="M-197.8,728.3c0,0,21.8-10.1,44.8,0.7c0,0,17.3,33.5,5.2,50.6c0,0-1.4,2.1-5.1,1.6l-49.1,0.1
						c0,0-2.6,0.2-3-2.6c-0.4-2.7-9.8-17.5,4.8-46C-199.4,731.2-198.6,729.8-197.8,728.3z"/>
				</defs>
				<clipPath id="SVGID_39_">
					<use xlink:href="#SVGID_38_"  style="overflow:visible;"/>
				</clipPath>
				<line class="st60" x1="-170.6" y1="724" x2="-169.4" y2="781.2"/>
			</g>
			<g>
				<defs>
					<path id="SVGID_40_" d="M-197.8,728.3c0,0,21.8-10.1,44.8,0.7c0,0,17.3,33.5,5.2,50.6c0,0-1.4,2.1-5.1,1.6l-49.1,0.1
						c0,0-2.6,0.2-3-2.6c-0.4-2.7-9.8-17.5,4.8-46C-199.4,731.2-198.6,729.8-197.8,728.3z"/>
				</defs>
				<clipPath id="SVGID_41_">
					<use xlink:href="#SVGID_40_"  style="overflow:visible;"/>
				</clipPath>
				<line class="st61" x1="-165.1" y1="724" x2="-163.8" y2="781.2"/>
			</g>
			<g>
				<defs>
					<path id="SVGID_42_" d="M-197.8,728.3c0,0,21.8-10.1,44.8,0.7c0,0,17.3,33.5,5.2,50.6c0,0-1.4,2.1-5.1,1.6l-49.1,0.1
						c0,0-2.6,0.2-3-2.6c-0.4-2.7-9.8-17.5,4.8-46C-199.4,731.2-198.6,729.8-197.8,728.3z"/>
				</defs>
				<clipPath id="SVGID_43_">
					<use xlink:href="#SVGID_42_"  style="overflow:visible;"/>
				</clipPath>
				<line class="st62" x1="-168.8" y1="724" x2="-167.5" y2="781.2"/>
			</g>
		</g>
	</g>
</g>
<g>
	<path class="st63" d="M202,643.6c-0.2-0.5-0.8-0.7-1.4-0.5c-0.4,0.2-0.8,0.4-1.1,0.7c-0.1,0.1-0.2,0-0.2-0.1
		c-0.1-0.6-0.7-1.1-1.4-1.2c-0.8-0.2-1.6-0.3-2-0.9c-0.2-0.4-0.5-1.1-0.9-0.8c0.1,0.6-0.1,1.5-0.7,1.4c-0.2,0-0.3-0.1-0.5-0.2
		c-0.8-0.8-0.5-2.6-2.6-2.6c-0.3,0-0.6,0.1-0.9,0.3c-1.4,0.9-1.5,2.5-1.4,4c-0.6-0.1-1.1-0.3-1.6-0.8c-0.2-0.2-0.5,0-0.4,0.2
		c0.1,0.3,0.2,0.7,0.5,0.8c-0.4,0.2-0.9,0.2-1.3,0c-0.1-0.1-0.2,0-0.2,0.2c0.1,0.5,1.2,0.9,0.9,1.4c-0.2,0.2-0.4,0.2-0.6,0.1
		c-0.6-0.2-1.1-0.3-1.7-0.5c-0.3,0.2-0.2,0.6,0.1,0.9c0.2,0.2,0.5,0.5,0.5,0.8c-0.1,0.6-1,0.5-1.5,0.3l0.5,2.2
		c-0.5,0-0.9-0.2-1.3-0.4c-0.5,0.2-0.3,1,0.1,1.4s0.9,0.8,0.9,1.3c-1-0.4-2-0.5-3-0.1c-0.3,1.1,0.7,0.8,1.1,1.2
		c0.4,0.4-0.1,1-0.5,1.3s-1.1,0.6-1,1.1c0.4,0.2,0.8,0.5,0.8,0.9c0,1-2,0.8-2,1.7c0,0.5,0.6,1.1,0.2,1.4c-0.4,0.3-1.1-0.4-1.3,0.8
		c0,0.1,0,0.2,0,0.2c0.3,0.7,1.1,0.8,1.7,0.8c-0.4,0.8-1.3,1.2-2.1,1c-0.1,0.4-0.1,0.8,0.1,1.2c-0.2,0.2-0.5,0.2-0.7,0.2
		c-0.1,1,0.2,2,0.7,2.7c-0.8-0.2-1.4,0.9-0.9,1.5c0.4,0.5,1.4,0.6,1.3,1.3c-0.5,0.1-1.1,0.2-1.5,0.3c-0.4,0.1-0.8,0.3-0.7,0.6
		c0.1,0.2,0.2,0.2,0.4,0.4c0.4,0.4,0.2,1-0.1,1.4c-0.3,0.5-0.7,0.8-0.8,1.3c-0.3,1.1,1,2.4,0.5,3.5c-0.2,0.2-0.3,0.5-0.3,0.7
		c0,0.3,0.2,0.5,0.3,0.8c0.4,1-1,2.3-0.2,3.1c-0.8,0.5-1.6,1.2-1.1,2c0.2,0.2,0.3,0.4,0.5,0.5c0.1,0.1,0.1,0.2,0.1,0.2
		c0.4,1.1-0.8,1.6-1.4,1.1c0.1,1.1,0.8,2.3,1.7,2.9c-0.4,0.4-1.6,0.9-1.5,0.2c-0.8,1-0.3,1.1,0,1.4c0.2,0.2,0.4,0.5,0.5,0.8
		c0.1,0.4,0.2,0.8,0.5,1.1c0.3,0.2,0.5,0.7,0.5,1.1c0.2,0.7,0.5,1.6,1.1,1.5c0.2,0,0.3-0.1,0.4-0.1c0.4,0,0.5,0.5,0.6,0.8
		c0.5,1.4,2,2.2,3.4,2.3c1.4,0.2,2.9-0.4,4.2-1c0.4-0.2,0.8-0.4,1.2-0.3c0.7,0.1,1.4,0.8,2,0.5c0.1,1.1,0.7,2.2,1.7,2.6
		c1,0.5,2.3,0.1,2.9-0.9c0.2-0.3,0.2-0.7,0.5-0.9c0.2-0.2,0.5-0.2,0.8-0.2c1,0,2-0.1,2.9-0.1c0.8,0,1.6,0,2.4-0.1c0.7,0,1.4,0,2,0.2
		c0.4,0.2,0.8,0.4,1.1,0.3c0.7-0.1,1-0.9,1.6-1.1c0.6-0.2,1.3,0.2,1.7,0.7c0.4,0.5,0.7,1.1,1.1,1.5c1.1,1.1,3.4,0.5,3.9-1.1
		c0.1-0.3,0.2-0.6,0.4-0.8c0.2-0.2,0.4-0.5,0.5-0.8l0,0c0.8-0.1,1.1,1,1.8,1.1c0.5,0,0.9-0.5,1.4-0.6c0.3,0,0.6,0.2,0.8,0.2
		c2.1,1,4.7,0.5,6.9-0.2c0.4-0.1,0.7-0.2,1-0.4c0.7-0.6,0.5-1.7,0.1-2.6c0.6-0.5,0.8-1.5,0.3-2.1c0.2,0,0.5,0,0.7-0.1
		c0.1-0.5-0.2-1.1-0.5-1.4c0.5-0.2,1.4-0.7,1.7-1.1s0.6-1.1,0.3-1.5c-0.2-0.2-0.4-0.4-0.6-0.6c-0.2-0.2-0.3-0.5-0.2-0.8
		c0.2-0.2,0.5-0.2,0.6-0.5c0.2-0.3-0.2-0.7-0.3-1c-0.5-0.8,0.1-2.3-0.8-2.7c0.8-0.5,1-1.8,0.2-2.4c-0.2-0.2-0.3-0.2-0.4-0.5
		c-0.1-0.2,0.1-0.5,0.2-0.7c0.3-0.8-0.3-1.7-1.1-1.8c-0.2-1,1.3-1.5,1.4-2.4c0-0.6-0.5-1.1-0.8-1.5c-0.4-0.5-0.7-1.1-0.3-1.6
		c-0.8-0.2-1.7-0.5-1.7-1.4c0-0.7,0.8-1.4,0.5-2c-0.6,0.1-1.3-0.3-1.6-0.8c-0.3-0.5-0.3-1.3,0.2-1.8c0.2-0.2,0.3-0.3,0.4-0.5
		c0.3-0.7-0.5-1.4-1.2-1.7l0.1-1.6c-0.7-0.2-1.1-1.1-0.8-1.7c-0.7,0.1-1.4-0.3-1.7-0.9c-0.3-0.6-0.2-1.5,0.5-1.8
		c-0.2-0.4-0.5-0.7-0.8-1c0.2-0.2,0.5-0.5,0.5-0.8s-0.4-0.6-0.6-0.5l0.1-1.1l-0.9-0.1c-0.5-0.4-0.6-1.1-0.2-1.6
		c-0.5,0.2-1,0-1.3-0.4s-0.2-1,0-1.3c-0.5,0.2-1.1,0.1-1.2-0.4c-0.2-0.4-0.1-0.8-0.2-1.3c-0.1-0.5-0.5-0.9-0.8-0.8
		c0.2-0.5,0.5-1.1,0.7-1.6l-1.3-0.2l-0.2-1.5c-0.6,0-1.2,0.2-1.7,0.6c-0.3-1.7-1.3-3.4-2.6-4.6c-0.2-0.2-0.5-0.5-0.8-0.5
		c-0.8-0.2-1.4,0.5-1.7,1.1c-0.4,0.7-0.6,1.4-1.2,1.9c-0.2,0.1-0.2,0.2-0.4,0.2c-0.5,0-0.6-0.8-1.1-0.8
		C202.5,641.9,202.6,643.8,202,643.6z"/>
	<circle cx="192.8" cy="652.8" r="2.4"/>
	<circle cx="205.1" cy="653.2" r="2.3"/>
	<path d="M201.1,656.9c-0.8-0.7-2.5-1.6-4.2,0.1c-0.2,0.2-0.3,0.6-0.2,0.9c0.3,0.8,1,2,2.3,2c0,0,1.4,0.1,2.3-1.9
		C201.5,657.6,201.4,657.2,201.1,656.9z"/>
	<path class="st64" d="M190.4,642c0-0.2,0.1-0.5,0.2-0.7s0.3-0.4,0.5-0.4c0.3,0,0.5,0.3,0.8,0.5c0.2,0.2,0.2,0.4,0.3,0.5
		c0.2,0.4,0.4,0.8,0.5,1.1c0.2,0.3,0.2,0.6,0.2,0.9s-0.1,0.7-0.3,0.8c-0.6,0.5-1.5,0.3-2-0.3C190.2,643.8,190.3,642.8,190.4,642z"/>
	<path class="st64" d="M208.6,642c0-0.2-0.1-0.5-0.2-0.7c-0.2-0.2-0.3-0.4-0.5-0.4c-0.3,0-0.5,0.3-0.8,0.5c-0.2,0.2-0.2,0.4-0.3,0.5
		c-0.2,0.4-0.4,0.8-0.5,1.1c-0.2,0.3-0.2,0.6-0.2,0.9s0.1,0.7,0.3,0.8c0.6,0.5,1.5,0.3,2-0.3C208.8,643.8,208.8,642.8,208.6,642z"/>
	<path class="st65" d="M198.9,656.5c0.3,0,0.7,0.1,1,0.2c0.3,0.2,0.6,0.4,0.8,0.6c0,0.1,0.1,0.2,0.1,0.2c-0.1,0-0.2-0.1-0.2-0.2
		c-0.2-0.2-0.4-0.4-0.7-0.5c-0.3-0.1-0.5-0.1-0.8-0.1c-0.3,0-0.5,0-0.8,0c-0.2,0-0.5,0.1-0.8,0.2c0.1-0.2,0.4-0.5,0.6-0.5
		C198.3,656.5,198.6,656.5,198.9,656.5z"/>
	<path class="st66" d="M193.5,653.2c-0.1-0.7-0.1-1.4,0.2-2c-0.2,0.1-0.4,0.2-0.5,0.3c-0.1,0.2-0.2,0.2-0.2,0.4
		C193,652.4,193.1,653,193.5,653.2C193.5,653.3,193.5,653.3,193.5,653.2z"/>
	<g>
		<path class="st67" d="M263.7,480.5c0,0-10,3.9-11.6-20c0,0-2.2,5.4-11.2,2.4c0,0,5.4,16.3-10.2,17.9c0,0,0,11.4,16.5,14.7
			S263.7,480.5,263.7,480.5z"/>
		<path class="st68" d="M250.6,468c0,0,7.6-5,7.8-12.7c0,0,8-24.4-10.1-30.2c0,0-19.3-3.9-16.8,22.3c0,0,1.5,14.3,10,19.6
			C241.3,467.1,246.1,472.2,250.6,468z"/>
		<path class="st69" d="M239.9,425.5c0,0-4.6-8.5,6.2-8.9c0,0,7.4,0.3,4.1,9.3"/>
		<path class="st33" d="M238.9,426.3c0,0,7.2-7.6,11.3-1C250.2,425.4,251.4,428.7,238.9,426.3z"/>
		<path class="st69" d="M235.3,433.4c0,0-5,5.9-1.9,18.3c0,0,0.1-8.3,2.1-10c0,0-1.4,6.7,0.1,8.3c0,0,0.7-5.1,1.4-7.3
			c0,0,1.7-3.2,6.3-6.3c0,0-6,3.6-3.8,7c0,0-0.4-4.5,10.9-8.8c0,0,3.3,0.8,5.7,7.8l1.4-2c0,0,3.5,4.8,1.1,13c0,0,11.2-13.5-2.4-24.9
			c0,0-15.3-9.1-24.8,2.4c0,0-7.1,8.7-1.4,18.6l2.2-5.8"/>
		<path class="st67" d="M222.9,565.6c0,0,18.1,100.3,10.5,132.6l4.4,0.3c0,0,8.3-42.1,4.3-61.3l0.4-60.6L222.9,565.6z"/>
		<path class="st67" d="M268.9,566.8c0,0-19.6,100-12.5,132.5l-4.4,0.2c0,0-7.7-42.2-3.4-61.4l0.5-60.6L268.9,566.8z"/>
		<path class="st70" d="M227.1,503.2c-1.1,10.3,3.6,22.9,4.7,33.1c14.9,1.9,13.7,3.2,28.2-0.8c0.5-0.2,2-2,2.3-2.3
			c0.3-0.3,1-1.5,1.1-1.9c0.9-3.9,1.7-7.5,2-11.6c0.2-3.1,1.3-10.6,2-14.2c0.1-0.3,0.5-0.4,0.6-0.1l2.3,4.6c1.1,1.3,3.1,0.9,4.7,0.3
			c2.7-1.1,5.4-2.3,7.9-3.9c0.8-0.5,1-1.5,0.5-2.3c-4-6.2-7.4-12.8-10.1-19.7c-0.8-2-2.3-3.5-4.2-4.5c-3.5-1.7-5.4-2.3-9.9-1.2
			c-1.3,0.3-2.7,0.5-4,1.2c-5.2,3.3-11.9,3.1-17.8,1.5c-2.2-0.6-4.4-1.4-6.6-1.3c-3.6,0.1-6.9,2.3-9.5,4.8c-3,3-7.3,6.6-6.5,10.7
			c1,5,4,9.4,8.2,12.3c0.9,0.6,2.1,0.2,2.6-0.8c0.6-1.5,1.2-3,1.8-4.6"/>
		<path class="st71" d="M237.2,501.5c-0.3,0-0.7,0-1,0.1c-0.4,0.1-0.8,0.3-1.1,0.5c-0.5,0.3-1.1,0.5-1.7,0.8c1.4,0.8,2,2.5,3.4,3.2
			c0.8,0.4,1.7,0.4,2.5,0.2s1.7-0.5,2.4-0.7c0-0.8-0.5-1.6-1.1-2.3c-0.4-0.5-0.8-1-1.2-1.3C238.9,501.5,238,501.5,237.2,501.5z"/>
		<path class="st71" d="M235.2,502.1c-0.2,0-0.5,0.1-0.6,0c-0.1,0-0.2-0.1-0.2-0.2c-0.2-0.1-0.2-0.2-0.4-0.4"/>
		<path class="st71" d="M236.2,501.6c-0.1,0-0.4,0-0.5,0c-0.2,0-0.3-0.1-0.5-0.2c-0.2-0.1-0.2-0.2-0.3-0.4"/>
		<path class="st71" d="M234.2,502.5c-0.2,0.1-0.6,0.2-0.8,0.2c-0.2,0-0.5-0.1-0.6-0.2"/>
		
			<ellipse transform="matrix(-6.066753e-02 -0.9982 0.9982 -6.066753e-02 -250.2186 772.4586)" class="st71" cx="238.4" cy="504" rx="2.3" ry="2.3"/>
		<path class="st72" d="M238.6,503.1c0-0.3,0-0.3,0-0.5c0-0.2,0-0.5,0-0.7v-0.1l-0.1-0.1c-0.2,0-0.3-0.1-0.4,0h-0.1
			c0.1,0.2,0,0.5-0.1,0.6c-0.2,0.8-0.2,1.7-0.1,2.5c0,0.4,0.1,0.8,0.2,1.1c0,0.1,0.1,0.2,0.2,0.2c0.1,0.1,0.2,0.1,0.3,0.1
			c0.1,0,0.2,0,0.2,0s0.2-0.1,0.1-0.2c0-0.1,0-0.1,0-0.2c-0.1-0.2-0.1-0.3-0.1-0.5C238.7,504.7,238.7,503.9,238.6,503.1"/>
		<path class="st71" d="M256.2,501.2c0.3,0,0.7-0.1,1,0c0.4,0.1,0.8,0.2,1.1,0.4c0.5,0.2,1.1,0.4,1.7,0.5c-1.3,0.9-1.7,2.7-3,3.5
			c-0.7,0.5-1.6,0.6-2.4,0.5c-0.8-0.1-1.7-0.2-2.5-0.4c-0.1-0.8,0.4-1.7,0.8-2.4c0.3-0.5,0.6-1.1,1.1-1.4
			C254.5,501.4,255.3,501.2,256.2,501.2z"/>
		<path class="st71" d="M258.3,501.5c0.2,0,0.5,0.1,0.6-0.1c0.1,0,0.1-0.1,0.2-0.2c0.2-0.2,0.2-0.2,0.3-0.4"/>
		<path class="st71" d="M257.2,501.2c0.1,0,0.3-0.1,0.5-0.1c0.2-0.1,0.3-0.2,0.4-0.2c0.2-0.1,0.2-0.2,0.2-0.4"/>
		<path class="st71" d="M259.3,501.8c0.2,0,0.6,0.1,0.8,0c0.2-0.1,0.5-0.2,0.6-0.3"/>
		
			<ellipse transform="matrix(6.066753e-02 0.9982 -0.9982 6.066753e-02 742.6859 218.3596)" class="st71" cx="255.3" cy="503.8" rx="2.3" ry="2.3"/>
		<path class="st72" d="M255,503c0-0.3-0.1-0.3-0.1-0.5c0-0.2-0.1-0.5-0.1-0.7v-0.1l0.1-0.1c0.2-0.1,0.2-0.1,0.4-0.1h0.1
			c0,0.2,0.1,0.5,0.2,0.6c0.3,0.8,0.4,1.7,0.4,2.5c0,0.4,0.1,0.8-0.1,1.2c0,0.1-0.1,0.2-0.1,0.2c-0.1,0.1-0.2,0.1-0.3,0.1
			s-0.2,0-0.2,0s-0.2-0.1-0.2-0.2c0-0.1,0-0.1,0-0.2c0.1-0.2,0.1-0.3,0-0.5C255,504.6,255,503.7,255,503"/>
		<path class="st71" d="M236.2,509.6c-0.7-0.5-1.6-0.8-2.4-1c-0.6-0.2-1.2-0.3-1.8-0.5"/>
		<path class="st71" d="M236,511.1c-0.4,0.1-0.8-0.2-1.2-0.3c-0.3-0.1-0.6,0-0.9,0.2c-0.6,0.2-1.2,0.4-1.8,0.7"/>
		<path class="st71" d="M236.6,512.8c-0.8-0.1-1.6,0.3-2.3,0.8c-0.8,0.5-1.4,1.1-1.9,1.9"/>
		<path class="st71" d="M257,509.5c0.5-0.3,1.1-0.6,1.6-1c0.2-0.2,0.5-0.3,0.7-0.4s0.5-0.1,0.8-0.2c0.6-0.1,1.3-0.1,1.9-0.2"/>
		<path class="st71" d="M257.5,511.1c0.5-0.2,1.1-0.2,1.6-0.2c1.1-0.1,2.2,0.2,3.2,0.5"/>
		<path class="st71" d="M257.5,512.9c0.5,0.1,1.1,0.2,1.5,0.4c0.2,0.1,0.3,0.1,0.5,0.2s0.3,0.3,0.5,0.5c0.5,0.6,1.4,0.8,1.7,1.5"/>
		<path class="st71" d="M248.3,508c0.2,0,0.5,0,0.8,0.1c0.2,0.1,0.5,0.3,0.5,0.5c0.1,0.3-0.2,0.6-0.5,0.8c-0.2,0.2-0.4,0.4-0.5,0.5
			c-0.2,0.2-0.5,0.5-0.8,0.5s-0.5-0.2-0.7-0.5c-0.2-0.3-0.5-0.6-0.8-1c-0.1-0.2-0.2-0.4-0.2-0.5c0.1-0.2,0.4-0.3,0.7-0.3
			C247.4,508,247.9,508,248.3,508z"/>
		<path class="st71" d="M250.5,515c-0.1-0.2-0.2-0.2-0.3-0.4c-0.4-0.4-0.8-0.7-1.1-1c-1.1-0.7-2.3,0.8-2.7,1.7"/>
		<line class="st71" x1="248.1" y1="510.3" x2="248.2" y2="513.5"/>
		<path class="st73" d="M230.6,532.5l69.4,47.8c0,0-52.8,47.1-108.5,3.2C191.5,583.4,205.6,549.3,230.6,532.5z"/>
		<path class="st73" d="M230.6,532.5c0,0,21.5,7.6,31.8,0.6c0,0,27.4,19.6,37.6,47.2L230.6,532.5z"/>
		<path class="st74" d="M245.5,455c0,0,1.2,1.4,2.9,0.1"/>
		<g>
			<path class="st75" d="M246,461.7c0,0,0.9,0.6,1.8-0.1c0,0,1.9,1,1.8,1.6c0,0-0.5,0.9-2.6,1.4C247,464.6,244.5,463.6,246,461.7z"
				/>
			<path class="st75" d="M247.9,461.8c0,0-0.9,0.5-1.7-0.2c-0.1-0.1-0.9,0.5-1,0.6c-0.4,0.3-0.9,0.3-1.4,0.2
				c0.5,1.2,2.1,1.9,3.3,2.2C247,464.6,249.4,463.6,247.9,461.8z"/>
			<path class="st75" d="M246.1,461.8c0,0,0.9,0.5,1.7-0.2c0.1-0.1,0.9,0.5,1,0.6c0.4,0.3,0.9,0.3,1.4,0.2c-0.5,1.2-2.1,1.9-3.3,2.2
				C247,464.6,244.7,463.6,246.1,461.8z"/>
		</g>
		<g>
			<path class="st72" d="M247.2,449.2c0,0,1,0.3,3.2-2c0.3-0.3,0.6-0.6,1-0.8c1.7-0.9,6.7-3.1,11.6-0.2c0,0,0.7,1.3-3.5,8.2
				c-0.3,0.5-0.8,0.8-1.2,0.9c-1.8,0.5-6.2,1.4-8.6-1.9c0,0-1.9-3.5-2.6-3.1C247,450.4,245.4,449.4,247.2,449.2z"/>
			<path class="st72" d="M246.7,449.2c0,0-1,0.2-3.1-2.1c-0.3-0.3-0.6-0.6-1-0.8c-1.7-1-6.6-3.3-11.6-0.5c0,0-0.8,1.2,3.2,8.3
				c0.2,0.5,0.7,0.8,1.2,1c1.8,0.6,6.2,1.6,8.7-1.6c0,0,2-3.4,2.9-3C247,450.4,248.5,449.2,246.7,449.2z"/>
		</g>
		<path class="st76" d="M250.1,449.4c0,0,2.9-3.6,11.2-2.6c0,0,0.5,6-5.1,7.6c0,0-4.2,1.3-6.2-2.9
			C250,451.5,249.2,450.1,250.1,449.4z"/>
		<path class="st76" d="M243.8,448.8c0,0-2.9-3.6-11.2-2.6c0,0-0.5,6,5.1,7.6c0,0,4.2,1.3,6.2-2.9
			C243.9,451,244.7,449.6,243.8,448.8z"/>
		<line class="st77" x1="253.8" y1="447.8" x2="251.6" y2="451.6"/>
		<line class="st77" x1="252.5" y1="448.2" x2="250.4" y2="451.9"/>
		<line class="st77" x1="235.6" y1="446" x2="233.5" y2="449.8"/>
		<line class="st77" x1="234.6" y1="446" x2="233" y2="448.9"/>
		<path class="st33" d="M255,419c0.3,0.2,0.5,0.5,0.6,0.8c0.4,0.7,0.7,1.4,0.5,2.1c-0.1,0.8-0.6,1.4-1.2,1.8s-1.4,0.7-2,1
			c-1.1,0.4-2.3,0.8-3.5,1.2c1.7-0.9,3.6-1.2,5.5-1.4c1.4-0.1,2.8-0.1,4.2,0.4c1.4,0.4,2.6,1.2,3.3,2.4c0.2,0.5,0.5,0.9,0.4,1.4
			s-0.4,1-0.8,1.1c-0.3,0.1-0.5,0-0.8-0.1c-3.9-0.8-7.5-2.2-11-4c0.5-2.3,1.2-4.8,3-6.3C253.8,419,254.5,418.6,255,419z"/>
		<path class="st67" d="M214.6,517.1c-0.2,1.1-0.5,2-0.6,3.1c-0.8,4.9-1.8,9.8-3,14.6c-2.5,9.7-5.7,19.1-8.8,28.6c-1,2.9-2,6-2,9.1
			c0,1.1,1.2,1.8,2.1,1.2c0.6-0.4,1.4-0.8,1.7-1.4c0.1-0.2,0.2-0.5,0.3-0.7c4.1-9.1,8.2-18,11.2-27.5c0.8-2.3,1.4-4.7,2-7
			c0.3-1.1,0.5-2.3,0.8-3.5c0.2-1.1,0.8-2.1,1.1-3.2c1.3-4.5,1.5-9.3,2.6-13.9c0.6-2.5,1.4-4.9,1.4-7.4c0-0.2,0.1-0.3,0-0.5
			c-0.1-0.2-0.5-0.4-0.6-0.5c-2.6-1.9-4.8-4.3-6.3-7.2c-0.2,1.7-0.3,3.2-0.5,5c-0.1,2.4-0.2,4.8-0.5,7.2
			C215.1,514.5,214.9,515.8,214.6,517.1z"/>
	</g>
	<path class="st78" d="M233,636.2h9.1c0,0,4.6,22.3-4.4,62.9l-4.4-0.3L233,636.2z"/>
	<path class="st78" d="M257.9,636.7h-9.3c0,0-5.5,23.3,3.5,62.9l4.4-0.3L257.9,636.7z"/>
	<path class="st40" d="M178.2,659.9c6.6,3.5,15.7,5.7,23.1,5.3c6.9-0.5,13.9-2.9,18.3-8.2c5.5-6.7,5.4-16.8,1.7-24.6
		c-3.7-7.9-10.3-13.9-17.2-19.1c-3.3-2.5-6.8-4.9-9.6-8s-4.9-7-4.9-11.2c0-3.2,1.2-6.3,2.6-9.1c2.2-4.2,5-8.2,8.4-11.6"/>
	<path class="st63" d="M175.5,685.8c-1.4-1-2-2.6-2.4-4.3c-0.8-3.2-0.9-6.4-0.5-9.6c0.6,1.2,1.3,2.3,1.9,3.5c0.9,1.7,1.8,3.3,3,4.7"
		/>
	<g>
		<circle class="st24" cx="248.2" cy="491.3" r="12.2"/>
		<circle class="st25" cx="245.1" cy="482.6" r="0.4"/>
		<circle class="st25" cx="240.8" cy="484.6" r="0.4"/>
		<circle class="st25" cx="249.5" cy="482.1" r="0.4"/>
		<circle class="st25" cx="253.5" cy="484" r="0.4"/>
		<circle class="st25" cx="251.1" cy="488.1" r="0.4"/>
		<circle class="st25" cx="244.4" cy="488.5" r="0.4"/>
		<circle class="st25" cx="239.7" cy="489" r="0.4"/>
		<circle class="st25" cx="240.1" cy="493.9" r="0.4"/>
		<circle class="st25" cx="244.7" cy="493.4" r="0.4"/>
		<circle class="st25" cx="242.5" cy="497.8" r="0.4"/>
		<circle class="st25" cx="246.3" cy="499.6" r="0.4"/>
		<circle class="st25" cx="248.2" cy="496.6" r="0.4"/>
		<circle class="st25" cx="250.7" cy="499.3" r="0.4"/>
		<circle class="st25" cx="254.6" cy="496.9" r="0.4"/>
		<circle class="st25" cx="251.4" cy="492.8" r="0.4"/>
		<circle class="st25" cx="256.5" cy="493.2" r="0.4"/>
		<circle class="st25" cx="256" cy="487.6" r="0.4"/>
		<path class="st26" d="M245.3,489.4c0,0-1.6-0.5-1.6,1.2c0,0,0.1,1.4,1.6,0.8"/>
		<line class="st26" x1="244" y1="492.2" x2="245.2" y2="492.2"/>
		<text transform="matrix(1 0 0 1 239.6973 492.4111)" class="st25 st27 st79">M  VITIES</text>
		<g>
			<g>
				<path class="st25" d="M248.2,484.8c0,0,0.2-1.3,2.7-1.5C250.9,483.3,249.8,485.2,248.2,484.8z"/>
				<path class="st25" d="M246.1,484.7c0,0,0.2-1.3,2.7-1.5C248.8,483.2,247.6,485.2,246.1,484.7z"/>
				<path class="st25" d="M244,484.8c0,0,0.2-1.3,2.6-1.7C246.6,483.2,245.5,485.2,244,484.8z"/>
				<path class="st25" d="M248.2,485.1c0,0,0.1,1.3,2.5,1.9C250.6,487,249.7,484.8,248.2,485.1z"/>
				<path class="st25" d="M246.1,485.1c0,0,0.2,1.3,2.6,1.7C248.7,486.7,247.6,484.7,246.1,485.1z"/>
				<path class="st25" d="M244.1,485.2c0,0,0.2,1.3,2.7,1.6C246.7,486.7,245.6,484.7,244.1,485.2z"/>
			</g>
		</g>
		<path class="st25" d="M249.8,485.1c0,0,1.3-1.3,4.3,0.4C254.1,485.5,251.1,486.7,249.8,485.1z"/>
		<path class="st25" d="M243.6,485c0,0,0.2,0.9-1.3,1.6C242.4,486.6,242.7,485.1,243.6,485z"/>
	</g>
	<g>
		<circle class="st24" cx="199.5" cy="669.7" r="3.9"/>
		<circle class="st25" cx="198.5" cy="667" r="0.2"/>
		<circle class="st25" cx="197.1" cy="667.6" r="0.2"/>
		<circle class="st25" cx="199.9" cy="666.8" r="0.2"/>
		<circle class="st25" cx="201.1" cy="667.3" r="0.2"/>
		<circle class="st25" cx="200.4" cy="668.6" r="0.2"/>
		<circle class="st25" cx="198.3" cy="668.8" r="0.2"/>
		<circle class="st25" cx="196.8" cy="668.9" r="0.2"/>
		<circle class="st25" cx="196.9" cy="670.5" r="0.2"/>
		<circle class="st25" cx="198.3" cy="670.3" r="0.2"/>
		<circle class="st25" cx="197.7" cy="671.7" r="0.2"/>
		<circle class="st25" cx="198.8" cy="672.2" r="0.2"/>
		<circle class="st25" cx="199.5" cy="671.3" r="0.2"/>
		<circle class="st25" cx="200.2" cy="672.2" r="0.2"/>
		<circle class="st25" cx="201.4" cy="671.4" r="0.2"/>
		<circle class="st25" cx="200.5" cy="670.1" r="0.2"/>
		<circle class="st25" cx="202" cy="670.3" r="0.2"/>
		<circle class="st25" cx="201.9" cy="668.5" r="0.2"/>
		<path class="st80" d="M198.5,669.1c0,0-0.5-0.2-0.5,0.4c0,0,0,0.5,0.5,0.2"/>
		<line class="st80" x1="198.1" y1="670" x2="198.5" y2="670"/>
		<text transform="matrix(1 0 0 1 196.7666 670.002)" class="st25 st27 st81">M  VITIES</text>
		<g>
			<g>
				<path class="st25" d="M199.4,667.6c0,0,0.1-0.4,0.8-0.5C200.3,667.2,199.9,667.8,199.4,667.6z"/>
				<path class="st25" d="M198.8,667.6c0,0,0.1-0.4,0.8-0.5C199.6,667.1,199.2,667.7,198.8,667.6z"/>
				<path class="st25" d="M198.1,667.6c0,0,0.1-0.4,0.8-0.5C198.9,667.1,198.6,667.7,198.1,667.6z"/>
				<path class="st25" d="M199.4,667.7c0,0,0,0.4,0.8,0.6C200.2,668.3,199.9,667.6,199.4,667.7z"/>
				<path class="st25" d="M198.7,667.7c0,0,0.1,0.4,0.8,0.5C199.5,668.2,199.2,667.6,198.7,667.7z"/>
				<path class="st25" d="M198.1,667.7c0,0,0.1,0.4,0.8,0.5C198.9,668.2,198.6,667.6,198.1,667.7z"/>
			</g>
		</g>
		<path class="st25" d="M199.9,667.7c0,0,0.4-0.4,1.4,0.2C201.3,667.9,200.4,668.2,199.9,667.7z"/>
		<path class="st25" d="M198,667.7c0,0,0.1,0.3-0.4,0.5C197.6,668.2,197.7,667.7,198,667.7z"/>
	</g>
	<path class="st67" d="M275.8,538.2c-9.5-4.9-15.3-14.9-18.6-25.1c-1.7-5.3-3-10.9-6.5-15.3c-0.3-0.3-0.5-0.7-1-0.8
		c-0.9-0.4-2,0.3-2.4,1.2c-0.4,0.9-0.3,2-0.2,3c1.6,11,6.3,21.4,13.3,30.1c3.5,4.3,7.5,8.2,12,11.4c2.6,1.8,9.8,4.2,8.7-8.1
		c-0.2-2.7-0.1-5.4-0.1-8.1c0.1-6.1-0.5-12-1.2-18c-2,1-3.9,2-6,2.5c1.4,10.1,0.3,20.1,1.6,30.2c0.2,1.1,0.3,2.3,0.5,3.4"/>
</g>
</svg>
