<svg xmlns="http://www.w3.org/2000/svg" viewBox="-431 1 792 612" enable-background="new -431 1 792 612"><style type="text/css">.st0{fill:#A2DBDF;} .st1{fill:none;stroke:#464C5E;stroke-miterlimit:10;} .st2{fill:#464C5E;} .st3{fill:none;stroke:#464C5E;stroke-width:2;stroke-miterlimit:10;} .st4{fill:#27292C;} .st5{fill:#AA7C51;} .st6{fill:#AA7C51;stroke:#27292C;stroke-width:0.75;stroke-miterlimit:10;} .st7{fill:none;stroke:#27292C;stroke-width:0.75;stroke-miterlimit:10;} .st8{fill:none;stroke:#27292C;stroke-miterlimit:10;} .st9{fill:#FFFFFF;} .st10{fill:#482811;} .st11{fill:#7D9139;} .st12{fill:#ACD13C;} .st13{fill:#166131;} .st14{fill:#EE234D;} .st15{fill:#2B2A2B;} .st16{font-family:&apos;Baskerville&apos;;} .st17{font-size:41.2131px;} .st18{font-family:&apos;Baskerville-Italic&apos;;} .st19{fill:#010101;} .st20{fill:#FAB498;} .st21{fill:#CCC19C;} .st22{fill:#482A15;} .st23{fill:#3F4655;} .st24{fill:#A97D51;} .st25{fill:#E3C821;} .st26{fill:#4BC2C1;}</style><path class="st0" d="M-430.3 1h791.3v612h-791.3z" id="sky"/><g id="london_eye"><ellipse class="st1" cx="-492.3" cy="374.3" rx="155.3" ry="153.5"/><circle class="st2" cx="-490.8" cy="378.7" r="23.1"/><path class="st1" d="M-490.8 355.6v-134.4M-484.4 356.7l33.2-131M-484.4 361.9l75-117.2M-482.6 374.3l101.2-107.2M-472.1 371.3l116.9-69.1M-472.1 378.7l130.3-42.1M-475.8 378.7h138.9M-475.1 382.9l130.3 38.8M-534.1 226.4l43.3 129.2M-574 244l72.8 117.9M-605.4 269l104.2 92.9M-627.4 298.5l123.2 72.8M-642.4 334.7l138.2 36.6M-647.6 378.7h143.4M-640.1 421.7l132.9-43M-624.1 455.3l127-76.6M-597.9 486.3l100.8-103.4M-565.8 509.4l68.7-119.5M-528.1 524l33.6-128.8M-490.8 526.6v-141.1M-458.7 522.1l-26.8-133.6M-417.6 506.4l-65.7-114.2M-384.4 484.4l-98.2-95.2M-360.5 455.3l-115.3-68.3"/><path class="st2" d="M-419.5 590.1h-147.5c-3.7 0-6.7-3-6.7-6.7v-11.6c0-3.7 3-6.7 6.7-6.7h147.1c3.7 0 6.7 3 6.7 6.7v11.6c.5 3.7-2.5 6.7-6.3 6.7z"/><path class="st3" d="M-528.1 524v44.8M-458.7 524v44.8"/><path class="st2" d="M-528.9 226.4h-18.7c-3 0-5.6-2.6-5.6-5.6v-11.2c0-3 2.6-5.6 5.6-5.6h18.7c3 0 5.6 2.6 5.6 5.6v11.2c0 3.4-2.6 5.6-5.6 5.6zM-481.4 221.2h-18.7c-3 0-5.6-2.6-5.6-5.6v-11.2c0-3 2.6-5.6 5.6-5.6h18.7c3 0 5.6 2.6 5.6 5.6v11.2c0 3-2.6 5.6-5.6 5.6zM-436.6 226.4h-18.7c-3 0-5.6-2.6-5.6-5.6v-11.2c0-3 2.6-5.6 5.6-5.6h18.7c3 0 5.6 2.6 5.6 5.6v11.2c0 3.4-2.6 5.6-5.6 5.6zM-391.1 246.6h-18.7c-3 0-5.6-2.6-5.6-5.6v-11.2c0-3 2.6-5.6 5.6-5.6h18.7c3 0 5.6 2.6 5.6 5.6v11.2c0 3-2.6 5.6-5.6 5.6zM-361.2 270.5h-18.7c-3 0-5.6-2.6-5.6-5.6v-11.2c0-3 2.6-5.6 5.6-5.6h18.7c3 0 5.6 2.6 5.6 5.6v11.2c0 3.3-2.6 5.6-5.6 5.6zM-332.5 307.4h-18.7c-3 0-5.6-2.6-5.6-5.6v-11.2c0-3 2.6-5.6 5.6-5.6h18.7c3 0 5.6 2.6 5.6 5.6v11.2c0 3-2.6 5.6-5.6 5.6zM-318.6 342.9h-18.7c-3 0-5.6-2.6-5.6-5.6v-11.2c0-3 2.6-5.6 5.6-5.6h18.7c3 0 5.6 2.6 5.6 5.6v11.2c0 3-2.7 5.6-5.6 5.6zM-314.9 389.6h-18.7c-3 0-5.6-2.6-5.6-5.6v-11.2c0-3 2.6-5.6 5.6-5.6h18.7c3 0 5.6 2.6 5.6 5.6v11.2c-.4 3.3-2.6 5.6-5.6 5.6zM-322.8 436.6h-18.7c-3 0-5.6-2.6-5.6-5.6v-11.2c0-3 2.6-5.6 5.6-5.6h18.7c3 0 5.6 2.6 5.6 5.6v11.2c0 3.4-2.6 5.6-5.6 5.6zM-481.4 549.7h-18.7c-3 0-5.6-2.6-5.6-5.6v-11.2c0-3 2.6-5.6 5.6-5.6h18.7c3 0 5.6 2.6 5.6 5.6v11.2c0 3-2.6 5.6-5.6 5.6zM-437.4 542.7h-18.6c-3 0-5.6-2.6-5.6-5.6v-11.2c0-3 2.6-5.6 5.6-5.6h18.7c3 0 5.6 2.6 5.6 5.6v11.2c-.4 2.9-2.7 5.6-5.7 5.6zM-397.1 526.2h-18.7c-3 0-5.6-2.6-5.6-5.6v-11.2c0-3 2.6-5.6 5.6-5.6h18.7c3 0 5.6 2.6 5.6 5.6v11.2c0 3-2.6 5.6-5.6 5.6zM-366.1 501.2h-18.7c-3 0-5.6-2.6-5.6-5.6v-11.2c0-3 2.6-5.6 5.6-5.6h18.7c3 0 5.6 2.6 5.6 5.6v11.2c0 3.4-2.6 5.6-5.6 5.6zM-337.7 474.3h-18.7c-3 0-5.6-2.6-5.6-5.6v-11.2c0-3 2.6-5.6 5.6-5.6h18.7c3 0 5.6 2.6 5.6 5.6v11.2c0 3.4-2.6 5.6-5.6 5.6zM-564.3 529.6h-18.7c-3 0-5.6-2.6-5.6-5.6v-11.2c0-3 2.6-5.6 5.6-5.6h18.7c3 0 5.6 2.6 5.6 5.6v11.2c0 3-2.6 5.6-5.6 5.6zM-527.4 542.7h-18.6c-3 0-5.6-2.6-5.6-5.6v-11.2c0-3 2.6-5.6 5.6-5.6h18.7c3 0 5.6 2.6 5.6 5.6v11.2c-.1 2.9-2.3 5.6-5.7 5.6zM-599.8 504.2h-18.7c-3 0-5.6-2.6-5.6-5.6v-11.2c0-3 2.6-5.6 5.6-5.6h18.7c3 0 5.6 2.6 5.6 5.6v11.2c0 3-2.6 5.6-5.6 5.6zM-626.7 471.7h-18.7c-3 0-5.6-2.6-5.6-5.6v-11.2c0-3 2.6-5.6 5.6-5.6h18.7c3 0 5.6 2.6 5.6 5.6v11.2c-.3 3.4-2.6 5.6-5.6 5.6zM-643.5 436.6h-18.7c-3 0-5.6-2.6-5.6-5.6v-11.2c0-3 2.6-5.6 5.6-5.6h18.7c3 0 5.6 2.6 5.6 5.6v11.2c0 3.4-2.6 5.6-5.6 5.6zM-653.2 389.9h-18.7c-3 0-5.6-2.6-5.6-5.6v-11.2c0-3 2.6-5.6 5.6-5.6h18.7c3 0 5.6 2.6 5.6 5.6v11.2c0 3.4-2.6 5.6-5.6 5.6zM-645.3 341h-18.7c-3 0-5.6-2.6-5.6-5.6v-11.2c0-3 2.6-5.6 5.6-5.6h18.7c3 0 5.6 2.6 5.6 5.6v11.2c-.4 3.4-2.7 5.6-5.6 5.6zM-630.4 302.2h-18.7c-3 0-5.6-2.6-5.6-5.6v-11.2c0-3 2.6-5.6 5.6-5.6h18.7c3 0 5.6 2.6 5.6 5.6v11.2c-.4 3.4-2.6 5.6-5.6 5.6zM-606.5 273.1h-18.7c-3 0-5.6-2.6-5.6-5.6v-11.2c0-3 2.6-5.6 5.6-5.6h18.7c3 0 5.6 2.6 5.6 5.6v11.2c0 3.3-2.6 5.6-5.6 5.6zM-573.7 246.6h-18.7c-3 0-5.6-2.6-5.6-5.6v-11.2c0-3 2.6-5.6 5.6-5.6h18.7c3 0 5.6 2.6 5.6 5.6v11.2c0 3-2.6 5.6-5.6 5.6z"/></g><g id="big_ben"><path class="st2" d="M-233.3 52.8s-3.6 43.1-26.9 73.5h54.9c.1 0-22.8-30-28-73.5z"/><path class="st4" d="M-265.7 126.3h65.6v2.8h-65.6z"/><path class="st5" d="M-261.7 129.1h56.9v36.8h-56.9zM-285.1 238.2h105.9v107.1h-105.9zM-278.3 344.9h92.9v252.5h-92.9z"/><path class="st6" d="M-271.2 252.4h78.6v79.4h-78.6z"/><path class="st7" d="M-261.7 135.8h57.3M-253.4 165.8v-30M-242.4 165.8v-30M-231.3 166.6v-31.2M-221 166.6v-31.2M-211.2 166.6v-31.2"/><path class="st5" d="M-278.7 210.9h93.3v28.1h-93.3z"/><path class="st8" d="M-278.7 219.2h93.2M-278.7 346.1h93.2"/><path class="st7" d="M-265.7 598.2v-252.1M-252.3 598.2v-252.1M-238.8 598.2v-252.1M-225.4 598.2v-252.1M-211.5 598.2v-252.1M-198.5 598.2v-252.1M-266.1 238.6v-19.4M-252.6 238.6v-19.4M-239.6 238.6v-19.4M-225.8 238.6v-19.4M-212.3 238.6v-19.4M-198.9 238.6v-19.4"/><path class="st2" d="M-204.4 165.8l19.3 45.1h-93.6l17-45.1h57.3"/><circle class="st9" cx="-232.1" cy="291.9" r="37.1"/><path class="st4" d="M-234.1 292.3s-.8-.8-1.2-2.4c-.4-1.2-.8-3.2-.8-5.1 0-2 .4-3.6.8-5.1.4-1.2 1.2-2.4 1.2-2.4s.8.8 1.2 2.4c.4 1.2.8 3.2.8 5.1 0 2-.4 3.6-.8 5.1l-1.2 2.4zM-234.1 292.3s1.6 0 3.6.8c2 .4 4.7 1.6 7.1 3.2 2.4 1.2 4.7 3.2 5.9 4.3 1.6 1.6 2.4 2.8 2.4 2.8s-1.6 0-3.6-.8c-2-.4-4.7-1.6-7.1-3.2-2.4-1.2-4.7-3.2-5.9-4.3-1.6-1.2-2.4-2.8-2.4-2.8z"/><ellipse class="st4" cx="-233.7" cy="292.3" rx="3.2" ry="2.8"/></g><g id="tree"><path class="st10" d="M241.6 482.9h35.5v110.1h-35.5z"/><path class="st11" d="M263.8 489.9c29.2 9.2 123 31 103.4-77.2-.4-3-1.5-5.5-3-8.1-3.7-6.3-10-21.1 3-34 3-3 5.2-7 6.3-11.1 4.8-15.5 8.9-48.8-36.2-66.5-5.9-2.2-10.7-6.3-13.7-11.5-15.1-26.2-66.9-99.4-123.4-8.5-3 4.8-7.4 8.5-12.9 10.7-19.2 7.8-63.5 31.8-35.1 83.1 3.7 6.3 4.8 14 3 21.1-10 35.8-31 143.3 92.7 102.3 4.8-2.1 10.7-2.1 15.9-.3z"/></g><path class="st12" d="M-429.9 581c27.6-8.3 56.4-2.4 84.5 2 68.1 10.5 136.8 11.8 204.9 3.9 36.2-4.1 72.6-11.1 109-10.9 38.8.2 77.3 8.5 115.9 13.3 92 11.1 184.6 2 276.9-9.4v33.1h-792.3l1.1-32z"/><path class="st13" d="M183.9 594.9c7.4 2 31.8 6.5 26.8-16.1-.2-.7-.4-1.1-.9-1.7-.9-1.3-2.6-4.4.7-7.2.9-.7 1.3-1.5 1.5-2.4 1.3-3.3 2.4-10.2-9.4-13.9-1.5-.4-2.8-1.3-3.5-2.4-3.9-5.4-17.2-20.7-32-1.7-.9 1.1-2 1.7-3.3 2.2-5 1.5-16.5 6.5-9.1 17.4.9 1.3 1.3 2.8.7 4.4-2.6 7.4-8.1 30.1 24 21.3 1.7-.3 3.2-.1 4.5.1z"/><circle class="st14" cx="194.4" cy="550.3" r="2.2"/><circle class="st14" cx="201.8" cy="570.3" r="1.7"/><circle class="st14" cx="181.1" cy="559.6" r="1.7"/><circle class="st14" cx="165" cy="562.7" r="1.7"/><circle class="st14" cx="172.2" cy="578.8" r="1.7"/><circle class="st14" cx="189.6" cy="582.3" r="1.7"/><path class="st2" d="M276 526.3h85v11.1h-85zM276.3 538.8h85v11.1h-85zM271.9 563.6h89.1v9.7h-96.5v-2.6l7.4-7.1"/><path class="st2" d="M294.3 526.3h5v37.3h-5zM284.3 572.7s3.2.6 1.8 9.4c0 0 .6 12.8.9 16.2l.6 4.3h3.2l1.2-.9-.3-3.7s-1.5-14.5 3.2-19.6c0 0 3.2 1.4 5 9.4h2.9s1.5.3-2.4-14.8h-16.2v-.3z"/><text transform="translate(-137.136 170.358)" class="st15 st16 st17">The</text><text transform="translate(-58.088 170.358)" class="st15 st18 st17">adventure</text><text transform="translate(83.017 170.358)" class="st15 st16 st17">continues...</text><path class="st19" d="M204.9 565.5l4.4 38.8s2.3 3.1 3.6-1.3l6.5-35.7-14.5-1.8zM221.1 567.8l4.4 38.8s2.3 3.1 3.6-1.3l5-40.9-13 3.4z"/><ellipse transform="matrix(.083 -.997 .997 .083 -358.559 529.223)" class="st20" cx="108.2" cy="459.4" rx="26.3" ry="29.5"/><ellipse transform="matrix(.129 -.992 .992 .129 -267.512 627.694)" class="st20" cx="223.7" cy="466.2" rx="26.9" ry="30.2"/><path class="st21" d="M88.6 483.4c-4.2 3.1-9.9 9.6 2.9 14.9.5.3 1.3.5 1.8.5 3.6.8 16.7 3.1 28.2.3 1.8-.5 3.4-1.6 4.4-3.1 1.8-2.9 3.6-8.1-3.4-11.5-.3-.3-.5-.3-1-.5-2.6-1-15.6-5.2-27.1-3.1-2.4.4-4.2 1.4-5.8 2.5z"/><path class="st2" d="M91.5 498.2s-25.8 54-7 56.1c0 0 51.4 11.7 44.8-11.5l-7.8-44.3c-.3 0-11.2 5.7-30-.3z"/><path class="st22" d="M94.4 469c1 1.8 2.3 3.4 3.1 5.5s.5 4.4-1 5.7c-1.6 1.3-3.9 1.3-6 1-4.7-.5-9.4-2.1-12.5-5.2-3.9-3.9-4.7-9.6-5.2-15.1-.8-10.9 0-22.7 6.5-31.5-1 3.4-1.8 7-1.8 10.7 3.1-.3 5.7-2.1 8.1-3.6 9.4-5.7 20.1-9.1 31-8.9 10.9.3 22.2 1.3 30 9.1-5.5-1.3-11.2 1-16.7 1.3 5.5.5 11.7-.3 16.4 2.6-9.1 1-12.3 7.3-18 9.6-3.1 1.3-6.5 2.9-9.9 3.1-3.4.5-6.5.3-9.9 0-4.4-.3-9.1 0-13.6.8-1 .3-2.1.3-2.9 1s-1 2.3-1 3.4c0 3.5 1.3 7.4 3.4 10.5z"/><path class="st19" d="M84.2 554.3s13.3 24.8-10.7 33.9c0 0-11.5 1.8-20.3.5 0 0-2.1 3.6 5.2 5.7 0 0 28.2 10.9 43.5-8.1 0 0 7.6-5.2 7.6-17.2 0 0 18.5-4.4 35.2 24.5l5.2-1.8s4.4-15.4-25.3-37.5c0 .2-6.8 6.7-40.4 0zM48 607.5c2.6.3 5.2-1.6 6.8-3.9 1.3-2.3 1.8-5.2 2.3-7.8 0-.8.3-1.6 0-2.3-.3-.8-1-1.3-1.6-1.8-.8-.8-1.3-1.8-1.8-2.9-1.6 3.6-3.6 6.8-6 9.9-1 1.3-2.1 2.3-2.6 3.9s-.3 3.4 1 4.2c.3.4 1.1.4 1.9.7zM144.2 597.8c.8.8 1.8 1 3.1 1 1.8.3 3.6.5 5.5.8 1.8.3 3.9.5 5.7 0 1-.3 2.1-1 2.3-1.8.3-1 0-2.1-.5-2.9s-1.6-1.3-2.3-1.8c-2.3-1-5-1.8-7.6-1.8-.8 0-1.6 0-2.1.3-2.8.7-4.7 3.6-4.1 6.2z"/><path class="st23" d="M94.9 512.8c27.4 22.2 52.9 4.4 52.9 4.4-30 42-62 8.3-62 8.3l-3.6-3.6 5-13.8 7.7 4.7z"/><path class="st2" d="M121.2 498.5s33.1 7.8 41.7-5.5c0 0-4.4 22.4-38.1 25.8l-3.6-20.3z"/><path class="st21" d="M115.8 501.6c9.4 2.9 13.3 14.9 22.4 18 2.3-3.9 4.4-7.8 6-11.7-2.9.8-6-.3-8.6-1.8-2.6-1.6-4.4-3.9-6.8-5.7-5.2-4.2-11.5-7-18.2-7.8-2.9-.3-7.3-.8-9.9.3-3.6 1.6-1 3.1.5 6 5.2 9.4 6 21.9 14.6 29.2.5.3.8.8 1.3.8s.8 0 1.3-.3c2.3-.5 4.4-1 6.8-1.6-4.7-5.2-7.6-12-8.6-18.8-.3-1.3-.3-2.9-.8-4.2-1-3.6-3.9-6.3-7.3-7.8-3.1-1.6-6.8-2.1-10.4-2.3l17.7 7.7z"/><path class="st24" d="M210.9 497.2s-29.5 59.4-8.9 67.8c0 0 14.3 4.7 26.9 2.9 10.2-1.6 17.2-10.7 16.9-20.9-.5-12.3-2.3-36-9.6-46.1l-25.3-3.7zM199.4 530.5s-27.1-26.3-3.1-63.1c0 0-9.4 18.2 6.3 49l-3.2 14.1z"/><path class="st2" d="M240.1 494c3.4 3.9 7.8 11.7-6.3 14.3l-1.8.3c-3.9 0-17.5-.3-28.2-6-1.8-1-3.1-2.3-3.6-4.2-1.3-3.4-1.8-8.9 6-10.9.3 0 .8-.3 1-.3 2.9-.3 16.7-1.8 27.9 2.9 1.9 1.1 3.7 2.4 5 3.9zM208.8 506.3c-9.9.8-16.4 12.3-26.3 13.3-1.6-4.4-2.6-8.9-3.6-13.3 2.6 1.3 6 1 8.9 0 2.9-1 5.5-2.9 8.1-4.4 6-3.1 13-4.4 20.1-3.9 2.9.3 7.6.8 9.9 2.3 3.4 2.3.5 3.4-1.8 6-7.3 8.3-10.7 20.6-20.9 26.3-.5.3-1 .5-1.6.5-.5 0-.8-.3-1.3-.5l-6.5-3.1c5.7-4.4 10.2-10.4 12.8-16.9.5-1.3 1-2.9 1.6-3.9 1.8-3.4 5.5-5.5 9.1-6.3s7.3-.5 10.9 0l-19.4 3.9z"/><path class="st22" d="M254.7 474c.3-3.9.3-7.6-.3-11.5-.3-2.6-.8-5-1.8-7.3-3.4-7.3-12-10.2-19.6-12.5-6.8-1.8-13.8-3.9-21.1-3.6-7.3.3-14.6 2.3-19.3 7.8-1 1.3-2.1 2.6-2.3 4.4-.5 3.6 2.9 6.5 6.3 7.8 6 2.1 12.8.8 19.3-.3 6.3-.8 13-.8 18.8 1.8 5.7 2.9 10.2 9.1 8.9 15.4-.3 1.6-.8 3.1.3 4.2.5.5 1 .5 1.8.5 2.9.3 6.5 0 8.1-2.6.6-1 .9-2.6.9-4.1z"/><ellipse transform="matrix(.129 -.992 .992 .129 -228.963 611.664)" class="st22" cx="233.8" cy="436.2" rx="12.8" ry="19.8"/><path class="st24" d="M243.5 532.9s26.3-24.2 5-62.6c0 0 8.1 18.8-9.6 48.5l4.6 14.1z"/><path class="st21" d="M215.1 439.3c.3-.5.8-.8 1.6-.8 3.4-.3 7 1 10.2 2.1 2.6 1 5.5 1.8 8.3 2.6 2.9.5 5.7.8 8.3 2.1 1.3.5 2.6 2.1 1.6 2.9-.8.5-2.1.3-3.1 0l-20.6-5.2c-2.1-.5-4.7-1.3-5.7-2.6-.6-.6-.9-.8-.6-1.1z"/><path class="st25" d="M167.3 484.4c-3.1-.3-5.9 1.6-6.1 4.2-.2 2.6 2.2 4.9 5.3 5.1 3.1.3 5.9-1.6 6.1-4.2.2-2.5-2.2-4.8-5.3-5.1zm-.7 8.6c-2.2-.2-3.8-1.8-3.6-3.7.2-1.9 2-3.2 4.2-3.1 2.1.2 3.8 1.8 3.6 3.7-.2 1.9-2.1 3.3-4.2 3.1z"/><path class="st9" d="M162.9 481.5l7.3-4.7 5.7 6.3-4.7 3.4s-1.8-2.6-6.5-1.8l-1.8-3.2z"/><path class="st26" d="M152.3 473.2l5.7 15.6 17.2 4.7s-.3 16.2-18 3.1l-5-2.9.5-3.6s-8.1-.8-10.2-5c0 0-4.4-10.4 1-12.5l8.8.6z"/><g id="logo"><path d="M-78 592.8l.7 3.3h-.2c-.4-2-2.4-2.8-4.4-2.8-.2 0-.7 0-1.1.2v5.7h.7c1.5 0 2.6-.7 2.6-2h.2v4.6h-.2c-.2-1.1-.4-2.2-2.6-2.2h-.9v5.2c0 .9.4 1.3 1.7 1.3v.2h-5.7v-.2c1.3 0 1.7-.4 1.7-1.3v-10.2c0-.9-.4-1.3-1.7-1.3v-.3h9.1v-.2zM-66.9 592.8l.7 3.3h-.2c-.4-2-2.4-2.8-4.4-2.8-.2 0-.7 0-1.1.2v5.7h.7c1.5 0 2.6-.7 2.6-2h.2v4.6h-.2c-.2-1.1-.4-2.2-2.6-2.2h-.7v5.2c0 .9.4 1.3 1.7 1.3v.2h-5.7v-.2c1.3 0 1.7-.4 1.7-1.3v-10.2c0-.9-.4-1.3-1.7-1.3v-.3h8.9v-.2zM-89.8 592.8v.2c-.9 0-1.5.4-1.5 1.3v10.2c0 .9.7 1.3 1.5 1.3v.2h-5.2v-.2c.9 0 1.5-.4 1.5-1.3v-10.2c0-.9-.7-1.3-1.5-1.3v-.2h5.2zM-96.5 589.1l.7 4.1h-.2c-.9-2.2-2.2-3.5-5-3.5v14.4c0 1.5.9 2 1.7 2v.2h-6.3v-.2c.9 0 2-.4 2-2v-14.4c-2.8 0-4.1 1.3-5.2 3.5h-.2l.4-4.1h12.1zM-19.9 602c0 2.2 1.5 3.7 3.7 3.7.9 0 2-.4 2.8-1.3l-4.4-5.7c-1 .2-2.1 1.3-2.1 3.3zm6.1-8.5c0-1.7-.7-2.6-2.2-2.6s-2.4.9-2.4 2.4 2.2 3.9 2.2 3.9c1.8-1.1 2.4-2.2 2.4-3.7zm-2.2 3.9l3.7 4.6s.4-.7.4-1.5c0-.9-.4-1.1-1.1-1.3h4.1v.2c-.7.2-1.3.4-2 .9-.4.7-.7 1.1-1.1 2.4l1.7 2.2c.7.9 1.7 1.3 2.8 1.5v.2h-4.4v-.2l-1.3-1.5c-1.1 1.1-2.8 2-4.4 2-2.6 0-4.4-1.5-4.4-3.5 0-2.2 2.2-3.7 3.7-4.8 0 0-1.7-2-1.7-3.9 0-2.2 1.5-3.7 3.9-3.7 2 0 3.5 1.5 3.5 3.3.1 1.3-2.3 2.2-3.4 3.1zM11.3 588.7l.2 5.4h-.2c-.7-3-2.6-4.8-5.2-4.8-3 0-5.2 3.5-5.2 8.3 0 5.9 2.4 8.3 5.7 8.3s4.6-3 5-5.4h.2v2.4c-.7 1.1-2.2 3.3-5.9 3.3-4.6 0-8.1-3.7-8.1-8.7 0-4.6 3.9-8.7 8.1-8.7 2.4 0 3 1.1 3.9 1.1.7 0 1.1-.4 1.1-1.3h.4v.1zM27.6 603.7c.7 0 1.3.7 1.3 1.3 0 .7-.7 1.1-1.3 1.1s-1.3-.4-1.3-1.1c.2-.6.6-1.3 1.3-1.3zM15.4 599.4c0 4.1 1.5 6.8 4.1 6.8s4.1-2.4 4.1-6.8c0-3.9-1.5-6.3-4.1-6.3-2.8-.1-4.1 2.5-4.1 6.3zm4.1-6.8c3.9 0 7.2 2.8 7.2 7 0 3.7-3 6.8-7 6.8s-7.2-3-7.2-6.8c.1-3.7 3.1-7 7-7zM-61.5 595.6l2.4 5.7h-4.6l2.2-5.7zm7.4 10.3c-.4 0-.9-.4-1.1-.7-.2-.2-5.4-13.1-5.4-13.1l-4.8 11.8c-.7 1.5-1.3 2.2-2.4 2.2v.2h3.9v-.2c-.9 0-1.3-.4-1.3-1.1 0-.4 1.3-3.5 1.3-3.5h4.8s1.3 2.8 1.3 3.5c0 .4-.7 1.1-1.5 1.1v.2h5.2v-.4zM-51.9 603.9c0 1.3-.9 1.7-1.7 2v.2h3.9v-.2c-1.1-.2-1.7-1.1-1.7-2v-8.7l9.1 11.3v-10.9c0-1.5.9-2.4 2-2.4v-.2h-4.4v.2c1.3.4 2.2 1.1 2.2 2.6v6.8l-7.6-9.6h-3.7v.2c1.5 0 2 1.3 2 1.7l-.1 9zM-39.9 593c.7 0 .7 0 1.1.9l4.1 6.8v3.9c0 .9-.7 1.3-2 1.5v.2h5.9v-.2c-1.1 0-1.7-.7-1.7-1.5v-4.6s2.6-4.8 2.8-5.2c.7-1.1 1.5-1.5 2.6-1.7v-.2h-4.8v.2c1.5 0 2 1.5 1.3 2.4l-2.4 4.6-3-5.2c-.4-.9.2-1.5 1.3-1.5v-.4h-5.4.2z"/></g></svg>