<?xml version="1.0" encoding="utf-8"?>
<!-- Generator: Adobe Illustrator 19.1.0, SVG Export Plug-In . SVG Version: 6.00 Build 0)  -->
<svg version="1.1" id="Layer_1" xmlns="http://www.w3.org/2000/svg" xmlns:xlink="http://www.w3.org/1999/xlink" x="0px" y="0px"
	 viewBox="-431 1 792 612" style="enable-background:new -431 1 792 612;" xml:space="preserve">
<style type="text/css">
	.st0{fill:#A2DBDF;}
	.st1{fill:none;stroke:#464C5E;stroke-miterlimit:10;}
	.st2{fill:#464C5E;}
	.st3{fill:none;stroke:#464C5E;stroke-width:2;stroke-miterlimit:10;}
	.st4{fill:#27292C;}
	.st5{fill:#AA7C51;}
	.st6{fill:#AA7C51;stroke:#27292C;stroke-width:0.75;stroke-miterlimit:10;}
	.st7{fill:none;stroke:#27292C;stroke-width:0.75;stroke-miterlimit:10;}
	.st8{fill:none;stroke:#27292C;stroke-miterlimit:10;}
	.st9{fill:#FFFFFF;}
	.st10{fill:#482811;}
	.st11{fill:#7D9139;}
	.st12{fill:#ACD13C;}
	.st13{fill:#166131;}
	.st14{fill:#EE234D;}
	.st15{fill:#2B2A2B;}
	.st16{font-family:'Baskerville';}
	.st17{font-size:41.2131px;}
	.st18{font-family:'Baskerville-Italic';}
	.st19{fill:#010101;}
	.st20{fill:#FAB498;}
	.st21{fill:#CCC19C;}
	.st22{fill:#482A15;}
	.st23{fill:#3F4655;}
	.st24{fill:#A97D51;}
	.st25{fill:#E3C821;}
	.st26{fill:#4BC2C1;}
</style>
<g id="sky">
	<rect x="-430.3" y="1" class="st0" width="791.3" height="612"/>
</g>
<g id="london_eye">
	<g>
		<ellipse class="st1" cx="-492.3" cy="374.3" rx="155.3" ry="153.5"/>
		<circle class="st2" cx="-490.8" cy="378.7" r="23.1"/>
		<line class="st1" x1="-490.8" y1="355.6" x2="-490.8" y2="221.2"/>
		<line class="st1" x1="-484.4" y1="356.7" x2="-451.2" y2="225.7"/>
		<line class="st1" x1="-484.4" y1="361.9" x2="-409.4" y2="244.7"/>
		<line class="st1" x1="-482.6" y1="374.3" x2="-381.4" y2="267.1"/>
		<line class="st1" x1="-472.1" y1="371.3" x2="-355.2" y2="302.2"/>
		<line class="st1" x1="-472.1" y1="378.7" x2="-341.8" y2="336.6"/>
		<line class="st1" x1="-475.8" y1="378.7" x2="-336.9" y2="378.7"/>
		<line class="st1" x1="-475.1" y1="382.9" x2="-344.8" y2="421.7"/>
		<line class="st1" x1="-534.1" y1="226.4" x2="-490.8" y2="355.6"/>
		<line class="st1" x1="-574" y1="244" x2="-501.2" y2="361.9"/>
		<line class="st1" x1="-605.4" y1="269" x2="-501.2" y2="361.9"/>
		<line class="st1" x1="-627.4" y1="298.5" x2="-504.2" y2="371.3"/>
		<line class="st1" x1="-642.4" y1="334.7" x2="-504.2" y2="371.3"/>
		<line class="st1" x1="-647.6" y1="378.7" x2="-504.2" y2="378.7"/>
		<line class="st1" x1="-640.1" y1="421.7" x2="-507.2" y2="378.7"/>
		<line class="st1" x1="-624.1" y1="455.3" x2="-497.1" y2="378.7"/>
		<line class="st1" x1="-597.9" y1="486.3" x2="-497.1" y2="382.9"/>
		<line class="st1" x1="-565.8" y1="509.4" x2="-497.1" y2="389.9"/>
		<line class="st1" x1="-528.1" y1="524" x2="-494.5" y2="395.2"/>
		<line class="st1" x1="-490.8" y1="526.6" x2="-490.8" y2="385.5"/>
		<line class="st1" x1="-458.7" y1="522.1" x2="-485.5" y2="388.5"/>
		<line class="st1" x1="-417.6" y1="506.4" x2="-483.3" y2="392.2"/>
		<line class="st1" x1="-384.4" y1="484.4" x2="-482.6" y2="389.2"/>
		<line class="st1" x1="-360.5" y1="455.3" x2="-475.8" y2="387"/>
		<path class="st2" d="M-419.5,590.1h-147.5c-3.7,0-6.7-3-6.7-6.7v-11.6c0-3.7,3-6.7,6.7-6.7h147.1c3.7,0,6.7,3,6.7,6.7v11.6
			C-412.7,587.1-415.7,590.1-419.5,590.1z"/>
		<line class="st3" x1="-528.1" y1="524" x2="-528.1" y2="568.8"/>
		<line class="st3" x1="-458.7" y1="524" x2="-458.7" y2="568.8"/>
		<path class="st2" d="M-528.9,226.4h-18.7c-3,0-5.6-2.6-5.6-5.6v-11.2c0-3,2.6-5.6,5.6-5.6h18.7c3,0,5.6,2.6,5.6,5.6v11.2
			C-523.3,224.2-525.9,226.4-528.9,226.4z"/>
		<path class="st2" d="M-481.4,221.2h-18.7c-3,0-5.6-2.6-5.6-5.6v-11.2c0-3,2.6-5.6,5.6-5.6h18.7c3,0,5.6,2.6,5.6,5.6v11.2
			C-475.8,218.6-478.4,221.2-481.4,221.2z"/>
		<path class="st2" d="M-436.6,226.4h-18.7c-3,0-5.6-2.6-5.6-5.6v-11.2c0-3,2.6-5.6,5.6-5.6h18.7c3,0,5.6,2.6,5.6,5.6v11.2
			C-431,224.2-433.6,226.4-436.6,226.4z"/>
		<path class="st2" d="M-391.1,246.6h-18.7c-3,0-5.6-2.6-5.6-5.6v-11.2c0-3,2.6-5.6,5.6-5.6h18.7c3,0,5.6,2.6,5.6,5.6V241
			C-385.5,244-388.1,246.6-391.1,246.6z"/>
		<path class="st2" d="M-361.2,270.5h-18.7c-3,0-5.6-2.6-5.6-5.6v-11.2c0-3,2.6-5.6,5.6-5.6h18.7c3,0,5.6,2.6,5.6,5.6v11.2
			C-355.6,268.2-358.2,270.5-361.2,270.5z"/>
		<path class="st2" d="M-332.5,307.4h-18.7c-3,0-5.6-2.6-5.6-5.6v-11.2c0-3,2.6-5.6,5.6-5.6h18.7c3,0,5.6,2.6,5.6,5.6v11.2
			C-326.9,304.8-329.5,307.4-332.5,307.4z"/>
		<path class="st2" d="M-318.6,342.9h-18.7c-3,0-5.6-2.6-5.6-5.6v-11.2c0-3,2.6-5.6,5.6-5.6h18.7c3,0,5.6,2.6,5.6,5.6v11.2
			C-313,340.3-315.7,342.9-318.6,342.9z"/>
		<path class="st2" d="M-314.9,389.6h-18.7c-3,0-5.6-2.6-5.6-5.6v-11.2c0-3,2.6-5.6,5.6-5.6h18.7c3,0,5.6,2.6,5.6,5.6V384
			C-309.7,387.3-311.9,389.6-314.9,389.6z"/>
		<path class="st2" d="M-322.8,436.6h-18.7c-3,0-5.6-2.6-5.6-5.6v-11.2c0-3,2.6-5.6,5.6-5.6h18.7c3,0,5.6,2.6,5.6,5.6V431
			C-317.2,434.4-319.8,436.6-322.8,436.6z"/>
		<path class="st2" d="M-481.4,549.7h-18.7c-3,0-5.6-2.6-5.6-5.6v-11.2c0-3,2.6-5.6,5.6-5.6h18.7c3,0,5.6,2.6,5.6,5.6v11.2
			C-475.8,547.1-478.4,549.7-481.4,549.7z"/>
		<path class="st2" d="M-437.4,542.7H-456c-3,0-5.6-2.6-5.6-5.6v-11.2c0-3,2.6-5.6,5.6-5.6h18.7c3,0,5.6,2.6,5.6,5.6v11.2
			C-432.1,540-434.4,542.7-437.4,542.7z"/>
		<path class="st2" d="M-397.1,526.2h-18.7c-3,0-5.6-2.6-5.6-5.6v-11.2c0-3,2.6-5.6,5.6-5.6h18.7c3,0,5.6,2.6,5.6,5.6v11.2
			C-391.5,523.6-394.1,526.2-397.1,526.2z"/>
		<path class="st2" d="M-366.1,501.2h-18.7c-3,0-5.6-2.6-5.6-5.6v-11.2c0-3,2.6-5.6,5.6-5.6h18.7c3,0,5.6,2.6,5.6,5.6v11.2
			C-360.5,499-363.1,501.2-366.1,501.2z"/>
		<path class="st2" d="M-337.7,474.3h-18.7c-3,0-5.6-2.6-5.6-5.6v-11.2c0-3,2.6-5.6,5.6-5.6h18.7c3,0,5.6,2.6,5.6,5.6v11.2
			C-332.1,472.1-334.7,474.3-337.7,474.3z"/>
		<path class="st2" d="M-564.3,529.6H-583c-3,0-5.6-2.6-5.6-5.6v-11.2c0-3,2.6-5.6,5.6-5.6h18.7c3,0,5.6,2.6,5.6,5.6V524
			C-558.7,527-561.3,529.6-564.3,529.6z"/>
		<path class="st2" d="M-527.4,542.7H-546c-3,0-5.6-2.6-5.6-5.6v-11.2c0-3,2.6-5.6,5.6-5.6h18.7c3,0,5.6,2.6,5.6,5.6v11.2
			C-521.8,540-524,542.7-527.4,542.7z"/>
		<path class="st2" d="M-599.8,504.2h-18.7c-3,0-5.6-2.6-5.6-5.6v-11.2c0-3,2.6-5.6,5.6-5.6h18.7c3,0,5.6,2.6,5.6,5.6v11.2
			C-594.2,501.6-596.8,504.2-599.8,504.2z"/>
		<path class="st2" d="M-626.7,471.7h-18.7c-3,0-5.6-2.6-5.6-5.6v-11.2c0-3,2.6-5.6,5.6-5.6h18.7c3,0,5.6,2.6,5.6,5.6v11.2
			C-621.4,469.5-623.7,471.7-626.7,471.7z"/>
		<path class="st2" d="M-643.5,436.6h-18.7c-3,0-5.6-2.6-5.6-5.6v-11.2c0-3,2.6-5.6,5.6-5.6h18.7c3,0,5.6,2.6,5.6,5.6V431
			C-637.9,434.4-640.5,436.6-643.5,436.6z"/>
		<path class="st2" d="M-653.2,389.9h-18.7c-3,0-5.6-2.6-5.6-5.6v-11.2c0-3,2.6-5.6,5.6-5.6h18.7c3,0,5.6,2.6,5.6,5.6v11.2
			C-647.6,387.7-650.2,389.9-653.2,389.9z"/>
		<path class="st2" d="M-645.3,341H-664c-3,0-5.6-2.6-5.6-5.6v-11.2c0-3,2.6-5.6,5.6-5.6h18.7c3,0,5.6,2.6,5.6,5.6v11.2
			C-640.1,338.8-642.4,341-645.3,341z"/>
		<path class="st2" d="M-630.4,302.2h-18.7c-3,0-5.6-2.6-5.6-5.6v-11.2c0-3,2.6-5.6,5.6-5.6h18.7c3,0,5.6,2.6,5.6,5.6v11.2
			C-625.2,300-627.4,302.2-630.4,302.2z"/>
		<path class="st2" d="M-606.5,273.1h-18.7c-3,0-5.6-2.6-5.6-5.6v-11.2c0-3,2.6-5.6,5.6-5.6h18.7c3,0,5.6,2.6,5.6,5.6v11.2
			C-600.9,270.8-603.5,273.1-606.5,273.1z"/>
		<path class="st2" d="M-573.7,246.6h-18.7c-3,0-5.6-2.6-5.6-5.6v-11.2c0-3,2.6-5.6,5.6-5.6h18.7c3,0,5.6,2.6,5.6,5.6V241
			C-568.1,244-570.7,246.6-573.7,246.6z"/>
	</g>
</g>
<g id="big_ben">
	<g>
		<path class="st2" d="M-233.3,52.8c0,0-3.6,43.1-26.9,73.5h54.9C-205.2,126.3-228.1,96.3-233.3,52.8z"/>
		<rect x="-265.7" y="126.3" class="st4" width="65.6" height="2.8"/>
		<rect x="-261.7" y="129.1" class="st5" width="56.9" height="36.8"/>
		<rect x="-285.1" y="238.2" class="st5" width="105.9" height="107.1"/>
		<rect x="-278.3" y="344.9" class="st5" width="92.9" height="252.5"/>
		<rect x="-271.2" y="252.4" class="st6" width="78.6" height="79.4"/>
		<line class="st7" x1="-261.7" y1="135.8" x2="-204.4" y2="135.8"/>
		<line class="st7" x1="-253.4" y1="165.8" x2="-253.4" y2="135.8"/>
		<line class="st7" x1="-242.4" y1="165.8" x2="-242.4" y2="135.8"/>
		<line class="st7" x1="-231.3" y1="166.6" x2="-231.3" y2="135.4"/>
		<line class="st7" x1="-221" y1="166.6" x2="-221" y2="135.4"/>
		<line class="st7" x1="-211.2" y1="166.6" x2="-211.2" y2="135.4"/>
		<rect x="-278.7" y="210.9" class="st5" width="93.3" height="28.1"/>
		<line class="st8" x1="-278.7" y1="219.2" x2="-185.5" y2="219.2"/>
		<line class="st8" x1="-278.7" y1="346.1" x2="-185.5" y2="346.1"/>
		<line class="st7" x1="-265.7" y1="598.2" x2="-265.7" y2="346.1"/>
		<line class="st7" x1="-252.3" y1="598.2" x2="-252.3" y2="346.1"/>
		<line class="st7" x1="-238.8" y1="598.2" x2="-238.8" y2="346.1"/>
		<line class="st7" x1="-225.4" y1="598.2" x2="-225.4" y2="346.1"/>
		<line class="st7" x1="-211.5" y1="598.2" x2="-211.5" y2="346.1"/>
		<line class="st7" x1="-198.5" y1="598.2" x2="-198.5" y2="346.1"/>
		<line class="st7" x1="-266.1" y1="238.6" x2="-266.1" y2="219.2"/>
		<line class="st7" x1="-252.6" y1="238.6" x2="-252.6" y2="219.2"/>
		<line class="st7" x1="-239.6" y1="238.6" x2="-239.6" y2="219.2"/>
		<line class="st7" x1="-225.8" y1="238.6" x2="-225.8" y2="219.2"/>
		<line class="st7" x1="-212.3" y1="238.6" x2="-212.3" y2="219.2"/>
		<line class="st7" x1="-198.9" y1="238.6" x2="-198.9" y2="219.2"/>
		<polyline class="st2" points="-204.4,165.8 -185.1,210.9 -185.1,210.9 -278.7,210.9 -278.7,210.9 -261.7,165.8 -204.4,165.8 		"/>
		<circle class="st9" cx="-232.1" cy="291.9" r="37.1"/>
		<g>
			<path class="st4" d="M-234.1,292.3c0,0-0.8-0.8-1.2-2.4c-0.4-1.2-0.8-3.2-0.8-5.1c0-2,0.4-3.6,0.8-5.1c0.4-1.2,1.2-2.4,1.2-2.4
				s0.8,0.8,1.2,2.4c0.4,1.2,0.8,3.2,0.8,5.1c0,2-0.4,3.6-0.8,5.1C-233.7,291.5-234.1,292.3-234.1,292.3z"/>
		</g>
		<g>
			<path class="st4" d="M-234.1,292.3c0,0,1.6,0,3.6,0.8c2,0.4,4.7,1.6,7.1,3.2c2.4,1.2,4.7,3.2,5.9,4.3c1.6,1.6,2.4,2.8,2.4,2.8
				s-1.6,0-3.6-0.8c-2-0.4-4.7-1.6-7.1-3.2c-2.4-1.2-4.7-3.2-5.9-4.3C-233.3,293.9-234.1,292.3-234.1,292.3z"/>
		</g>
		<ellipse class="st4" cx="-233.7" cy="292.3" rx="3.2" ry="2.8"/>
	</g>
</g>
<g id="tree">
	<rect x="241.6" y="482.9" class="st10" width="35.5" height="110.1"/>
	<path class="st11" d="M263.8,489.9c29.2,9.2,123,31,103.4-77.2c-0.4-3-1.5-5.5-3-8.1c-3.7-6.3-10-21.1,3-34c3-3,5.2-7,6.3-11.1
		c4.8-15.5,8.9-48.8-36.2-66.5c-5.9-2.2-10.7-6.3-13.7-11.5c-15.1-26.2-66.9-99.4-123.4-8.5c-3,4.8-7.4,8.5-12.9,10.7
		c-19.2,7.8-63.5,31.8-35.1,83.1c3.7,6.3,4.8,14,3,21.1c-10,35.8-31,143.3,92.7,102.3C252.7,488.1,258.6,488.1,263.8,489.9z"/>
</g>
<path class="st12" d="M-429.9,581c27.6-8.3,56.4-2.4,84.5,2c68.1,10.5,136.8,11.8,204.9,3.9c36.2-4.1,72.6-11.1,109-10.9
	c38.8,0.2,77.3,8.5,115.9,13.3c92,11.1,184.6,2,276.9-9.4V613H-431L-429.9,581z"/>
<path class="st13" d="M183.9,594.9c7.4,2,31.8,6.5,26.8-16.1c-0.2-0.7-0.4-1.1-0.9-1.7c-0.9-1.3-2.6-4.4,0.7-7.2
	c0.9-0.7,1.3-1.5,1.5-2.4c1.3-3.3,2.4-10.2-9.4-13.9c-1.5-0.4-2.8-1.3-3.5-2.4c-3.9-5.4-17.2-20.7-32-1.7c-0.9,1.1-2,1.7-3.3,2.2
	c-5,1.5-16.5,6.5-9.1,17.4c0.9,1.3,1.3,2.8,0.7,4.4c-2.6,7.4-8.1,30.1,24,21.3C181.1,594.5,182.6,594.7,183.9,594.9z"/>
<circle class="st14" cx="194.4" cy="550.3" r="2.2"/>
<circle class="st14" cx="201.8" cy="570.3" r="1.7"/>
<circle class="st14" cx="181.1" cy="559.6" r="1.7"/>
<circle class="st14" cx="165" cy="562.7" r="1.7"/>
<circle class="st14" cx="172.2" cy="578.8" r="1.7"/>
<circle class="st14" cx="189.6" cy="582.3" r="1.7"/>
<g>
	<rect x="276" y="526.3" class="st2" width="85" height="11.1"/>
	<rect x="276.3" y="538.8" class="st2" width="85" height="11.1"/>
	<polyline class="st2" points="271.9,563.6 361,563.6 361,571.3 361,573.3 361,573.3 264.5,573.3 264.5,570.7 271.9,563.6 	"/>
	<rect x="294.3" y="526.3" class="st2" width="5" height="37.3"/>
	<path class="st2" d="M284.3,572.7c0,0,3.2,0.6,1.8,9.4c0,0,0.6,12.8,0.9,16.2l0.6,4.3h3.2l1.2-0.9l-0.3-3.7c0,0-1.5-14.5,3.2-19.6
		c0,0,3.2,1.4,5,9.4h2.9c0,0,1.5,0.3-2.4-14.8h-16.2V572.7z"/>
</g>
<text transform="matrix(1 0 0 1 -137.1358 170.3577)" class="st15 st16 st17">The </text>
<text transform="matrix(1 0 0 1 -58.0883 170.3577)" class="st15 st18 st17">adventure </text>
<text transform="matrix(1 0 0 1 83.0175 170.3577)" class="st15 st16 st17">continues...</text>
<g>
	<g>
		<path class="st19" d="M204.9,565.5l4.4,38.8c0,0,2.3,3.1,3.6-1.3l6.5-35.7L204.9,565.5z"/>
		<path class="st19" d="M221.1,567.8l4.4,38.8c0,0,2.3,3.1,3.6-1.3l5-40.9L221.1,567.8z"/>
		
			<ellipse transform="matrix(8.272747e-02 -0.9966 0.9966 8.272747e-02 -358.5589 529.223)" class="st20" cx="108.2" cy="459.4" rx="26.3" ry="29.5"/>
		
			<ellipse transform="matrix(0.1293 -0.9916 0.9916 0.1293 -267.5122 627.6938)" class="st20" cx="223.7" cy="466.2" rx="26.9" ry="30.2"/>
		<path class="st21" d="M88.6,483.4c-4.2,3.1-9.9,9.6,2.9,14.9c0.5,0.3,1.3,0.5,1.8,0.5c3.6,0.8,16.7,3.1,28.2,0.3
			c1.8-0.5,3.4-1.6,4.4-3.1c1.8-2.9,3.6-8.1-3.4-11.5c-0.3-0.3-0.5-0.3-1-0.5c-2.6-1-15.6-5.2-27.1-3.1
			C92,481.3,90.2,482.3,88.6,483.4z"/>
		<path class="st2" d="M91.5,498.2c0,0-25.8,54-7,56.1c0,0,51.4,11.7,44.8-11.5l-7.8-44.3C121.2,498.5,110.3,504.2,91.5,498.2z"/>
		<path class="st22" d="M94.4,469c1,1.8,2.3,3.4,3.1,5.5s0.5,4.4-1,5.7c-1.6,1.3-3.9,1.3-6,1c-4.7-0.5-9.4-2.1-12.5-5.2
			c-3.9-3.9-4.7-9.6-5.2-15.1c-0.8-10.9,0-22.7,6.5-31.5c-1,3.4-1.8,7-1.8,10.7c3.1-0.3,5.7-2.1,8.1-3.6c9.4-5.7,20.1-9.1,31-8.9
			c10.9,0.3,22.2,1.3,30,9.1c-5.5-1.3-11.2,1-16.7,1.3c5.5,0.5,11.7-0.3,16.4,2.6c-9.1,1-12.3,7.3-18,9.6c-3.1,1.3-6.5,2.9-9.9,3.1
			c-3.4,0.5-6.5,0.3-9.9,0c-4.4-0.3-9.1,0-13.6,0.8c-1,0.3-2.1,0.3-2.9,1s-1,2.3-1,3.4C91,462,92.3,465.9,94.4,469z"/>
		<path class="st19" d="M84.2,554.3c0,0,13.3,24.8-10.7,33.9c0,0-11.5,1.8-20.3,0.5c0,0-2.1,3.6,5.2,5.7c0,0,28.2,10.9,43.5-8.1
			c0,0,7.6-5.2,7.6-17.2c0,0,18.5-4.4,35.2,24.5l5.2-1.8c0,0,4.4-15.4-25.3-37.5C124.6,554.5,117.8,561,84.2,554.3z"/>
		<path class="st19" d="M48,607.5c2.6,0.3,5.2-1.6,6.8-3.9c1.3-2.3,1.8-5.2,2.3-7.8c0-0.8,0.3-1.6,0-2.3c-0.3-0.8-1-1.3-1.6-1.8
			c-0.8-0.8-1.3-1.8-1.8-2.9c-1.6,3.6-3.6,6.8-6,9.9c-1,1.3-2.1,2.3-2.6,3.9c-0.5,1.6-0.3,3.4,1,4.2C46.4,607.2,47.2,607.2,48,607.5
			z"/>
		<path class="st19" d="M144.2,597.8c0.8,0.8,1.8,1,3.1,1c1.8,0.3,3.6,0.5,5.5,0.8c1.8,0.3,3.9,0.5,5.7,0c1-0.3,2.1-1,2.3-1.8
			c0.3-1,0-2.1-0.5-2.9s-1.6-1.3-2.3-1.8c-2.3-1-5-1.8-7.6-1.8c-0.8,0-1.6,0-2.1,0.3C145.5,592.3,143.6,595.2,144.2,597.8z"/>
		<path class="st23" d="M94.9,512.8c27.4,22.2,52.9,4.4,52.9,4.4c-30,42-62,8.3-62,8.3l-3.6-3.6l5-13.8L94.9,512.8z"/>
		<path class="st2" d="M121.2,498.5c0,0,33.1,7.8,41.7-5.5c0,0-4.4,22.4-38.1,25.8L121.2,498.5z"/>
		<path class="st21" d="M115.8,501.6c9.4,2.9,13.3,14.9,22.4,18c2.3-3.9,4.4-7.8,6-11.7c-2.9,0.8-6-0.3-8.6-1.8
			c-2.6-1.6-4.4-3.9-6.8-5.7c-5.2-4.2-11.5-7-18.2-7.8c-2.9-0.3-7.3-0.8-9.9,0.3c-3.6,1.6-1,3.1,0.5,6c5.2,9.4,6,21.9,14.6,29.2
			c0.5,0.3,0.8,0.8,1.3,0.8s0.8,0,1.3-0.3c2.3-0.5,4.4-1,6.8-1.6c-4.7-5.2-7.6-12-8.6-18.8c-0.3-1.3-0.3-2.9-0.8-4.2
			c-1-3.6-3.9-6.3-7.3-7.8c-3.1-1.6-6.8-2.1-10.4-2.3L115.8,501.6z"/>
		<path class="st24" d="M210.9,497.2c0,0-29.5,59.4-8.9,67.8c0,0,14.3,4.7,26.9,2.9c10.2-1.6,17.2-10.7,16.9-20.9
			c-0.5-12.3-2.3-36-9.6-46.1L210.9,497.2z"/>
		<path class="st24" d="M199.4,530.5c0,0-27.1-26.3-3.1-63.1c0,0-9.4,18.2,6.3,49L199.4,530.5z"/>
		<g>
			<path class="st2" d="M240.1,494c3.4,3.9,7.8,11.7-6.3,14.3c-0.5,0-1.3,0.3-1.8,0.3c-3.9,0-17.5-0.3-28.2-6
				c-1.8-1-3.1-2.3-3.6-4.2c-1.3-3.4-1.8-8.9,6-10.9c0.3,0,0.8-0.3,1-0.3c2.9-0.3,16.7-1.8,27.9,2.9
				C237,491.2,238.8,492.5,240.1,494z"/>
			<path class="st2" d="M208.8,506.3c-9.9,0.8-16.4,12.3-26.3,13.3c-1.6-4.4-2.6-8.9-3.6-13.3c2.6,1.3,6,1,8.9,0
				c2.9-1,5.5-2.9,8.1-4.4c6-3.1,13-4.4,20.1-3.9c2.9,0.3,7.6,0.8,9.9,2.3c3.4,2.3,0.5,3.4-1.8,6c-7.3,8.3-10.7,20.6-20.9,26.3
				c-0.5,0.3-1,0.5-1.6,0.5c-0.5,0-0.8-0.3-1.3-0.5c-2.1-1-4.4-2.1-6.5-3.1c5.7-4.4,10.2-10.4,12.8-16.9c0.5-1.3,1-2.9,1.6-3.9
				c1.8-3.4,5.5-5.5,9.1-6.3s7.3-0.5,10.9,0L208.8,506.3z"/>
		</g>
		<path class="st22" d="M254.7,474c0.3-3.9,0.3-7.6-0.3-11.5c-0.3-2.6-0.8-5-1.8-7.3c-3.4-7.3-12-10.2-19.6-12.5
			c-6.8-1.8-13.8-3.9-21.1-3.6c-7.3,0.3-14.6,2.3-19.3,7.8c-1,1.3-2.1,2.6-2.3,4.4c-0.5,3.6,2.9,6.5,6.3,7.8
			c6,2.1,12.8,0.8,19.3-0.3c6.3-0.8,13-0.8,18.8,1.8c5.7,2.9,10.2,9.1,8.9,15.4c-0.3,1.6-0.8,3.1,0.3,4.2c0.5,0.5,1,0.5,1.8,0.5
			c2.9,0.3,6.5,0,8.1-2.6C254.4,477.1,254.7,475.5,254.7,474z"/>
		
			<ellipse transform="matrix(0.1293 -0.9916 0.9916 0.1293 -228.9633 611.6643)" class="st22" cx="233.8" cy="436.2" rx="12.8" ry="19.8"/>
		<path class="st24" d="M243.5,532.9c0,0,26.3-24.2,5-62.6c0,0,8.1,18.8-9.6,48.5L243.5,532.9z"/>
		<path class="st21" d="M215.1,439.3c0.3-0.5,0.8-0.8,1.6-0.8c3.4-0.3,7,1,10.2,2.1c2.6,1,5.5,1.8,8.3,2.6c2.9,0.5,5.7,0.8,8.3,2.1
			c1.3,0.5,2.6,2.1,1.6,2.9c-0.8,0.5-2.1,0.3-3.1,0c-6.8-1.8-13.8-3.4-20.6-5.2c-2.1-0.5-4.7-1.3-5.7-2.6
			C215.1,439.8,214.8,439.6,215.1,439.3z"/>
	</g>
	<path class="st25" d="M167.3,484.4c-3.1-0.3-5.9,1.6-6.1,4.2c-0.2,2.6,2.2,4.9,5.3,5.1c3.1,0.3,5.9-1.6,6.1-4.2
		C172.8,487,170.4,484.7,167.3,484.4z M166.6,493c-2.2-0.2-3.8-1.8-3.6-3.7c0.2-1.9,2-3.2,4.2-3.1c2.1,0.2,3.8,1.8,3.6,3.7
		C170.6,491.8,168.7,493.2,166.6,493z"/>
	<path class="st9" d="M162.9,481.5l7.3-4.7l5.7,6.3l-4.7,3.4c0,0-1.8-2.6-6.5-1.8L162.9,481.5z"/>
	<path class="st26" d="M152.3,473.2l5.7,15.6l17.2,4.7c0,0-0.3,16.2-18,3.1l-5-2.9l0.5-3.6c0,0-8.1-0.8-10.2-5c0,0-4.4-10.4,1-12.5
		L152.3,473.2z"/>
</g>
<g id="logo">
	<g>
		<path d="M-78,592.8l0.7,3.3h-0.2c-0.4-2-2.4-2.8-4.4-2.8c-0.2,0-0.7,0-1.1,0.2v5.7h0.7c1.5,0,2.6-0.7,2.6-2h0.2v4.6h-0.2
			c-0.2-1.1-0.4-2.2-2.6-2.2h-0.9v5.2c0,0.9,0.4,1.3,1.7,1.3v0.2h-5.7v-0.2c1.3,0,1.7-0.4,1.7-1.3v-10.2c0-0.9-0.4-1.3-1.7-1.3V593
			h9.1V592.8z"/>
		<path d="M-66.9,592.8l0.7,3.3h-0.2c-0.4-2-2.4-2.8-4.4-2.8c-0.2,0-0.7,0-1.1,0.2v5.7h0.7c1.5,0,2.6-0.7,2.6-2h0.2v4.6h-0.2
			c-0.2-1.1-0.4-2.2-2.6-2.2h-0.7v5.2c0,0.9,0.4,1.3,1.7,1.3v0.2h-5.7v-0.2c1.3,0,1.7-0.4,1.7-1.3v-10.2c0-0.9-0.4-1.3-1.7-1.3V593
			h8.9V592.8z"/>
		<path d="M-89.8,592.8v0.2c-0.9,0-1.5,0.4-1.5,1.3v10.2c0,0.9,0.7,1.3,1.5,1.3v0.2H-95v-0.2c0.9,0,1.5-0.4,1.5-1.3v-10.2
			c0-0.9-0.7-1.3-1.5-1.3v-0.2H-89.8L-89.8,592.8z"/>
		<path d="M-96.5,589.1l0.7,4.1h-0.2c-0.9-2.2-2.2-3.5-5-3.5v14.4c0,1.5,0.9,2,1.7,2v0.2h-6.3v-0.2c0.9,0,2-0.4,2-2v-14.4
			c-2.8,0-4.1,1.3-5.2,3.5h-0.2l0.4-4.1H-96.5L-96.5,589.1z"/>
		<path d="M-19.9,602c0,2.2,1.5,3.7,3.7,3.7c0.9,0,2-0.4,2.8-1.3l-4.4-5.7C-18.8,598.9-19.9,600-19.9,602L-19.9,602z M-13.8,593.5
			c0-1.7-0.7-2.6-2.2-2.6s-2.4,0.9-2.4,2.4c0,1.5,2.2,3.9,2.2,3.9C-14.4,596.1-13.8,595-13.8,593.5L-13.8,593.5z M-16,597.4l3.7,4.6
			c0,0,0.4-0.7,0.4-1.5c0-0.9-0.4-1.1-1.1-1.3l0,0h4.1v0.2c-0.7,0.2-1.3,0.4-2,0.9c-0.4,0.7-0.7,1.1-1.1,2.4l1.7,2.2
			c0.7,0.9,1.7,1.3,2.8,1.5v0.2h-4.4v-0.2l-1.3-1.5c-1.1,1.1-2.8,2-4.4,2c-2.6,0-4.4-1.5-4.4-3.5c0-2.2,2.2-3.7,3.7-4.8
			c0,0-1.7-2-1.7-3.9c0-2.2,1.5-3.7,3.9-3.7c2,0,3.5,1.5,3.5,3.3C-12.5,595.6-14.9,596.5-16,597.4L-16,597.4z"/>
		<path d="M11.3,588.7l0.2,5.4h-0.2c-0.7-3-2.6-4.8-5.2-4.8c-3,0-5.2,3.5-5.2,8.3c0,5.9,2.4,8.3,5.7,8.3s4.6-3,5-5.4h0.2v2.4
			c-0.7,1.1-2.2,3.3-5.9,3.3c-4.6,0-8.1-3.7-8.1-8.7c0-4.6,3.9-8.7,8.1-8.7c2.4,0,3,1.1,3.9,1.1c0.7,0,1.1-0.4,1.1-1.3h0.4V588.7z"
			/>
		<path d="M27.6,603.7c0.7,0,1.3,0.7,1.3,1.3c0,0.7-0.7,1.1-1.3,1.1s-1.3-0.4-1.3-1.1C26.5,604.4,26.9,603.7,27.6,603.7L27.6,603.7z
			"/>
		<path d="M15.4,599.4c0,4.1,1.5,6.8,4.1,6.8s4.1-2.4,4.1-6.8c0-3.9-1.5-6.3-4.1-6.3C16.7,593,15.4,595.6,15.4,599.4L15.4,599.4z
			 M19.5,592.6c3.9,0,7.2,2.8,7.2,7c0,3.7-3,6.8-7,6.8s-7.2-3-7.2-6.8C12.6,595.9,15.6,592.6,19.5,592.6L19.5,592.6z"/>
		<path d="M-61.5,595.6l2.4,5.7h-4.6L-61.5,595.6L-61.5,595.6z M-54.1,605.9c-0.4,0-0.9-0.4-1.1-0.7c-0.2-0.2-5.4-13.1-5.4-13.1
			l-4.8,11.8c-0.7,1.5-1.3,2.2-2.4,2.2v0.2h3.9v-0.2c-0.9,0-1.3-0.4-1.3-1.1c0-0.4,1.3-3.5,1.3-3.5h4.8c0,0,1.3,2.8,1.3,3.5
			c0,0.4-0.7,1.1-1.5,1.1v0.2h5.2V605.9L-54.1,605.9z"/>
		<path d="M-51.9,603.9c0,1.3-0.9,1.7-1.7,2v0.2h3.9v-0.2c-1.1-0.2-1.7-1.1-1.7-2v-8.7l9.1,11.3v-10.9c0-1.5,0.9-2.4,2-2.4V593h-4.4
			v0.2c1.3,0.4,2.2,1.1,2.2,2.6v6.8l-7.6-9.6h-3.7v0.2c1.5,0,2,1.3,2,1.7L-51.9,603.9L-51.9,603.9z"/>
		<path d="M-39.9,593c0.7,0,0.7,0,1.1,0.9l4.1,6.8v3.9c0,0.9-0.7,1.3-2,1.5v0.2h5.9v-0.2c-1.1,0-1.7-0.7-1.7-1.5V600
			c0,0,2.6-4.8,2.8-5.2c0.7-1.1,1.5-1.5,2.6-1.7v-0.2h-4.8v0.2c1.5,0,2,1.5,1.3,2.4l-2.4,4.6l-3-5.2c-0.4-0.9,0.2-1.5,1.3-1.5V593
			h-5.4v0H-39.9z"/>
	</g>
</g>
</svg>
