<?xml version="1.0" encoding="utf-8"?>
<!-- Generator: Adobe Illustrator 19.1.0, SVG Export Plug-In . SVG Version: 6.00 Build 0)  -->
<svg version="1.1" xmlns="http://www.w3.org/2000/svg" xmlns:xlink="http://www.w3.org/1999/xlink" x="0px" y="0px"
	 viewBox="0 0 360 144" style="enable-background:new 0 0 360 144;" xml:space="preserve">
<style type="text/css">
	.st0{fill:#A2DBDF;}
	.st1{fill:none;stroke:#464C5E;stroke-miterlimit:10;}
	.st2{fill:#464C5E;}
	.st3{fill:#464C5E;stroke:#464C5E;stroke-miterlimit:10;}
	.st4{fill:#464C5E;stroke:#464C5E;stroke-width:2;stroke-miterlimit:10;}
	.st5{fill:#27292C;}
	.st6{fill:#AA7C51;}
	.st7{fill:#AA7C51;stroke:#27292C;stroke-width:0.75;stroke-miterlimit:10;}
	.st8{fill:none;stroke:#27292C;stroke-width:0.75;stroke-miterlimit:10;}
	.st9{fill:none;stroke:#27292C;stroke-miterlimit:10;}
	.st10{fill:#FFFFFF;}
	.st11{fill:#482811;}
	.st12{fill:#7D9139;}
	.st13{fill:#ACD13C;}
	.st14{fill:#166131;}
	.st15{fill:#EE234D;}
	.st16{fill:#2B2A2B;}
	.st17{font-family:'Baskerville';}
	.st18{font-size:18.9261px;}
	.st19{font-family:'Baskerville-Italic';}
	.st20{fill:#010101;}
	.st21{fill:#FAB498;}
	.st22{fill:#CCC19C;}
	.st23{fill:#482A15;}
	.st24{fill:#3F4655;}
	.st25{fill:#A97D51;}
	.st26{fill:#E3C821;}
	.st27{fill:#4BC2C1;}
	.st28{fill-rule:evenodd;clip-rule:evenodd;}
</style>
<g id="sky">
	<rect x="-3.9" y="-5.4" class="st0" width="367.3" height="149.7"/>
</g>
<g id="london_eye">
	<g>
		<ellipse class="st1" cx="53.8" cy="79.2" rx="41.6" ry="41.1"/>
		<circle class="st2" cx="54.2" cy="80.4" r="6.2"/>
		<line class="st3" x1="54.2" y1="74.2" x2="54.2" y2="38.2"/>
		<line class="st3" x1="55.9" y1="74.5" x2="64.8" y2="39.4"/>
		<line class="st3" x1="55.9" y1="75.9" x2="76" y2="44.5"/>
		<line class="st3" x1="56.4" y1="79.2" x2="83.5" y2="50.5"/>
		<line class="st3" x1="59.2" y1="78.4" x2="90.5" y2="59.9"/>
		<line class="st3" x1="59.2" y1="80.4" x2="94.1" y2="69.1"/>
		<line class="st3" x1="58.2" y1="80.4" x2="95.4" y2="80.4"/>
		<line class="st3" x1="58.4" y1="81.5" x2="93.3" y2="91.9"/>
		<line class="st3" x1="42.6" y1="39.6" x2="54.2" y2="74.2"/>
		<line class="st3" x1="31.9" y1="44.3" x2="51.4" y2="75.9"/>
		<line class="st3" x1="23.5" y1="51" x2="51.4" y2="75.9"/>
		<line class="st3" x1="17.6" y1="58.9" x2="50.6" y2="78.4"/>
		<line class="st3" x1="13.6" y1="68.6" x2="50.6" y2="78.4"/>
		<line class="st3" x1="12.2" y1="80.4" x2="50.6" y2="80.4"/>
		<line class="st3" x1="14.2" y1="91.9" x2="49.8" y2="80.4"/>
		<line class="st3" x1="18.5" y1="100.9" x2="52.5" y2="80.4"/>
		<line class="st3" x1="25.5" y1="109.2" x2="52.5" y2="81.5"/>
		<line class="st3" x1="34.1" y1="115.4" x2="52.5" y2="83.4"/>
		<line class="st3" x1="44.2" y1="119.3" x2="53.2" y2="84.8"/>
		<line class="st3" x1="54.2" y1="120" x2="54.2" y2="82.2"/>
		<line class="st3" x1="62.8" y1="118.8" x2="55.6" y2="83"/>
		<line class="st3" x1="73.8" y1="114.6" x2="56.2" y2="84"/>
		<line class="st3" x1="82.7" y1="108.7" x2="56.4" y2="83.2"/>
		<line class="st3" x1="89.1" y1="100.9" x2="58.2" y2="82.6"/>
		<path class="st2" d="M73.3,137H33.8c-1,0-1.8-0.8-1.8-1.8v-3.1c0-1,0.8-1.8,1.8-1.8h39.4c1,0,1.8,0.8,1.8,1.8v3.1
			C75.1,136.2,74.3,137,73.3,137z"/>
		<line class="st4" x1="44.2" y1="119.3" x2="44.2" y2="131.3"/>
		<line class="st4" x1="62.8" y1="119.3" x2="62.8" y2="131.3"/>
		<path class="st2" d="M44,39.6h-5c-0.8,0-1.5-0.7-1.5-1.5v-3c0-0.8,0.7-1.5,1.5-1.5h5c0.8,0,1.5,0.7,1.5,1.5v3
			C45.5,39,44.8,39.6,44,39.6z"/>
		<path class="st2" d="M56.7,38.2h-5c-0.8,0-1.5-0.7-1.5-1.5v-3c0-0.8,0.7-1.5,1.5-1.5h5c0.8,0,1.5,0.7,1.5,1.5v3
			C58.2,37.5,57.5,38.2,56.7,38.2z"/>
		<path class="st2" d="M68.7,39.6h-5c-0.8,0-1.5-0.7-1.5-1.5v-3c0-0.8,0.7-1.5,1.5-1.5h5c0.8,0,1.5,0.7,1.5,1.5v3
			C70.2,39,69.5,39.6,68.7,39.6z"/>
		<path class="st2" d="M80.9,45h-5c-0.8,0-1.5-0.7-1.5-1.5v-3c0-0.8,0.7-1.5,1.5-1.5h5c0.8,0,1.5,0.7,1.5,1.5v3
			C82.4,44.3,81.7,45,80.9,45z"/>
		<path class="st2" d="M88.9,51.4h-5c-0.8,0-1.5-0.7-1.5-1.5v-3c0-0.8,0.7-1.5,1.5-1.5h5c0.8,0,1.5,0.7,1.5,1.5v3
			C90.4,50.8,89.7,51.4,88.9,51.4z"/>
		<path class="st2" d="M96.6,61.3h-5c-0.8,0-1.5-0.7-1.5-1.5v-3c0-0.8,0.7-1.5,1.5-1.5h5c0.8,0,1.5,0.7,1.5,1.5v3
			C98.1,60.6,97.4,61.3,96.6,61.3z"/>
		<path class="st2" d="M100.3,70.8h-5c-0.8,0-1.5-0.7-1.5-1.5v-3c0-0.8,0.7-1.5,1.5-1.5h5c0.8,0,1.5,0.7,1.5,1.5v3
			C101.8,70.1,101.1,70.8,100.3,70.8z"/>
		<path class="st2" d="M101.3,83.3h-5c-0.8,0-1.5-0.7-1.5-1.5v-3c0-0.8,0.7-1.5,1.5-1.5h5c0.8,0,1.5,0.7,1.5,1.5v3
			C102.7,82.7,102.1,83.3,101.3,83.3z"/>
		<path class="st2" d="M99.2,95.9h-5c-0.8,0-1.5-0.7-1.5-1.5v-3c0-0.8,0.7-1.5,1.5-1.5h5c0.8,0,1.5,0.7,1.5,1.5v3
			C100.7,95.3,100,95.9,99.2,95.9z"/>
		<path class="st2" d="M56.7,126.2h-5c-0.8,0-1.5-0.7-1.5-1.5v-3c0-0.8,0.7-1.5,1.5-1.5h5c0.8,0,1.5,0.7,1.5,1.5v3
			C58.2,125.5,57.5,126.2,56.7,126.2z"/>
		<path class="st2" d="M68.5,124.3h-5c-0.8,0-1.5-0.7-1.5-1.5v-3c0-0.8,0.7-1.5,1.5-1.5h5c0.8,0,1.5,0.7,1.5,1.5v3
			C69.9,123.6,69.3,124.3,68.5,124.3z"/>
		<path class="st2" d="M79.3,119.9h-5c-0.8,0-1.5-0.7-1.5-1.5v-3c0-0.8,0.7-1.5,1.5-1.5h5c0.8,0,1.5,0.7,1.5,1.5v3
			C80.8,119.2,80.1,119.9,79.3,119.9z"/>
		<path class="st2" d="M87.6,113.2h-5c-0.8,0-1.5-0.7-1.5-1.5v-3c0-0.8,0.7-1.5,1.5-1.5h5c0.8,0,1.5,0.7,1.5,1.5v3
			C89.1,112.6,88.4,113.2,87.6,113.2z"/>
		<path class="st2" d="M95.2,106h-5c-0.8,0-1.5-0.7-1.5-1.5v-3c0-0.8,0.7-1.5,1.5-1.5h5c0.8,0,1.5,0.7,1.5,1.5v3
			C96.7,105.4,96,106,95.2,106z"/>
		<path class="st2" d="M34.5,120.8h-5c-0.8,0-1.5-0.7-1.5-1.5v-3c0-0.8,0.7-1.5,1.5-1.5h5c0.8,0,1.5,0.7,1.5,1.5v3
			C36,120.1,35.3,120.8,34.5,120.8z"/>
		<path class="st2" d="M44.4,124.3h-5c-0.8,0-1.5-0.7-1.5-1.5v-3c0-0.8,0.7-1.5,1.5-1.5h5c0.8,0,1.5,0.7,1.5,1.5v3
			C45.9,123.6,45.3,124.3,44.4,124.3z"/>
		<path class="st2" d="M25,114h-5c-0.8,0-1.5-0.7-1.5-1.5v-3c0-0.8,0.7-1.5,1.5-1.5h5c0.8,0,1.5,0.7,1.5,1.5v3
			C26.5,113.3,25.8,114,25,114z"/>
		<path class="st2" d="M17.8,105.3h-5c-0.8,0-1.5-0.7-1.5-1.5v-3c0-0.8,0.7-1.5,1.5-1.5h5c0.8,0,1.5,0.7,1.5,1.5v3
			C19.2,104.7,18.6,105.3,17.8,105.3z"/>
		<path class="st2" d="M13.3,95.9h-5c-0.8,0-1.5-0.7-1.5-1.5v-3c0-0.8,0.7-1.5,1.5-1.5h5c0.8,0,1.5,0.7,1.5,1.5v3
			C14.8,95.3,14.1,95.9,13.3,95.9z"/>
		<path class="st2" d="M10.7,83.4h-5c-0.8,0-1.5-0.7-1.5-1.5v-3c0-0.8,0.7-1.5,1.5-1.5h5c0.8,0,1.5,0.7,1.5,1.5v3
			C12.2,82.8,11.5,83.4,10.7,83.4z"/>
		<path class="st2" d="M12.8,70.3h-5c-0.8,0-1.5-0.7-1.5-1.5v-3c0-0.8,0.7-1.5,1.5-1.5h5c0.8,0,1.5,0.7,1.5,1.5v3
			C14.2,69.7,13.6,70.3,12.8,70.3z"/>
		<path class="st2" d="M16.8,59.9h-5c-0.8,0-1.5-0.7-1.5-1.5v-3c0-0.8,0.7-1.5,1.5-1.5h5c0.8,0,1.5,0.7,1.5,1.5v3
			C18.2,59.3,17.6,59.9,16.8,59.9z"/>
		<path class="st2" d="M23.2,52.1h-5c-0.8,0-1.5-0.7-1.5-1.5v-3c0-0.8,0.7-1.5,1.5-1.5h5c0.8,0,1.5,0.7,1.5,1.5v3
			C24.7,51.5,24,52.1,23.2,52.1z"/>
		<path class="st2" d="M32,45h-5c-0.8,0-1.5-0.7-1.5-1.5v-3c0-0.8,0.7-1.5,1.5-1.5h5c0.8,0,1.5,0.7,1.5,1.5v3
			C33.5,44.3,32.8,45,32,45z"/>
	</g>
</g>
<g id="big_ben">
	<g>
		<path class="st2" d="M136.1-2.8c0,0-0.9,10.9-6.8,18.6h13.9C143.2,15.8,137.4,8.2,136.1-2.8z"/>
		<rect x="127.9" y="15.8" class="st5" width="16.6" height="0.7"/>
		<rect x="128.9" y="16.5" class="st6" width="14.4" height="9.3"/>
		<rect x="123" y="44.1" class="st6" width="26.8" height="27.1"/>
		<rect x="124.7" y="71.1" class="st6" width="23.5" height="63.9"/>
		<rect x="126.5" y="47.7" class="st7" width="19.9" height="20.1"/>
		<line class="st8" x1="128.9" y1="18.2" x2="143.4" y2="18.2"/>
		<line class="st8" x1="131" y1="25.8" x2="131" y2="18.2"/>
		<line class="st8" x1="133.8" y1="25.8" x2="133.8" y2="18.2"/>
		<line class="st8" x1="136.6" y1="26" x2="136.6" y2="18.1"/>
		<line class="st8" x1="139.2" y1="26" x2="139.2" y2="18.1"/>
		<line class="st8" x1="141.7" y1="26" x2="141.7" y2="18.1"/>
		<rect x="124.6" y="37.2" class="st6" width="23.6" height="7.1"/>
		<line class="st9" x1="124.6" y1="39.3" x2="148.2" y2="39.3"/>
		<line class="st9" x1="124.6" y1="71.4" x2="148.2" y2="71.4"/>
		<line class="st8" x1="127.9" y1="135.2" x2="127.9" y2="71.4"/>
		<line class="st8" x1="131.3" y1="135.2" x2="131.3" y2="71.4"/>
		<line class="st8" x1="134.7" y1="135.2" x2="134.7" y2="71.4"/>
		<line class="st8" x1="138.1" y1="135.2" x2="138.1" y2="71.4"/>
		<line class="st8" x1="141.6" y1="135.2" x2="141.6" y2="71.4"/>
		<line class="st8" x1="144.9" y1="135.2" x2="144.9" y2="71.4"/>
		<line class="st8" x1="127.8" y1="44.2" x2="127.8" y2="39.3"/>
		<line class="st8" x1="131.2" y1="44.2" x2="131.2" y2="39.3"/>
		<line class="st8" x1="134.5" y1="44.2" x2="134.5" y2="39.3"/>
		<line class="st8" x1="138" y1="44.2" x2="138" y2="39.3"/>
		<line class="st8" x1="141.4" y1="44.2" x2="141.4" y2="39.3"/>
		<line class="st8" x1="144.8" y1="44.2" x2="144.8" y2="39.3"/>
		<polyline class="st2" points="143.4,25.8 148.3,37.2 148.3,37.2 124.6,37.2 124.6,37.2 128.9,25.8 143.4,25.8 		"/>
		<circle class="st10" cx="136.4" cy="57.7" r="9.4"/>
		<g>
			<path class="st5" d="M135.9,57.8c0,0-0.2-0.2-0.3-0.6c-0.1-0.3-0.2-0.8-0.2-1.3c0-0.5,0.1-0.9,0.2-1.3c0.1-0.3,0.3-0.6,0.3-0.6
				s0.2,0.2,0.3,0.6c0.1,0.3,0.2,0.8,0.2,1.3c0,0.5-0.1,0.9-0.2,1.3C136,57.6,135.9,57.8,135.9,57.8z"/>
		</g>
		<g>
			<path class="st5" d="M135.9,57.8c0,0,0.4,0,0.9,0.2c0.5,0.1,1.2,0.4,1.8,0.8c0.6,0.3,1.2,0.8,1.5,1.1c0.4,0.4,0.6,0.7,0.6,0.7
				s-0.4,0-0.9-0.2c-0.5-0.1-1.2-0.4-1.8-0.8c-0.6-0.3-1.2-0.8-1.5-1.1C136.1,58.2,135.9,57.8,135.9,57.8z"/>
		</g>
		<ellipse class="st5" cx="136" cy="57.8" rx="0.8" ry="0.7"/>
	</g>
</g>
<g id="tree">
	<rect x="312" y="108.3" class="st11" width="9.6" height="29.8"/>
	<path class="st12" d="M318,110.2c7.9,2.5,33.3,8.4,28-20.9c-0.1-0.8-0.4-1.5-0.8-2.2c-1-1.7-2.7-5.7,0.8-9.2c0.8-0.8,1.4-1.9,1.7-3
		c1.3-4.2,2.4-13.2-9.8-18c-1.6-0.6-2.9-1.7-3.7-3.1c-4.1-7.1-18.1-26.9-33.4-2.3c-0.8,1.3-2,2.3-3.5,2.9
		c-5.2,2.1-17.2,8.6-9.5,22.5c1,1.7,1.3,3.8,0.8,5.7c-2.7,9.7-8.4,38.8,25.1,27.7C315,109.7,316.6,109.7,318,110.2z"/>
</g>
<g id="grass">
	<path class="st13" d="M-3.7,132.6c12.8-3.8,26.2-1.1,39.2,0.9c31.6,4.8,63.5,5.4,95.1,1.8c16.8-1.9,33.7-5.1,50.6-5
		c18,0.1,35.9,3.9,53.8,6.1c42.7,5.1,85.7,0.9,128.5-4.3l0,15.2H-4.2L-3.7,132.6z"/>
	<path class="st14" d="M278.2,139c3.4,0.9,14.6,3,12.3-7.4c-0.1-0.3-0.2-0.5-0.4-0.8c-0.4-0.6-1.2-2,0.3-3.3
		c0.4-0.3,0.6-0.7,0.7-1.1c0.6-1.5,1.1-4.7-4.3-6.4c-0.7-0.2-1.3-0.6-1.6-1.1c-1.8-2.5-7.9-9.5-14.7-0.8c-0.4,0.5-0.9,0.8-1.5,1
		c-2.3,0.7-7.6,3-4.2,8c0.4,0.6,0.6,1.3,0.3,2c-1.2,3.4-3.7,13.8,11,9.8C276.9,138.8,277.6,138.9,278.2,139z"/>
	<circle class="st15" cx="283" cy="118.5" r="1"/>
	<circle class="st15" cx="286.4" cy="127.7" r="0.8"/>
	<circle class="st15" cx="276.9" cy="122.8" r="0.8"/>
	<circle class="st15" cx="269.5" cy="124.2" r="0.8"/>
	<circle class="st15" cx="272.8" cy="131.6" r="0.8"/>
	<circle class="st15" cx="280.8" cy="133.2" r="0.8"/>
	<g>
		<rect x="330.7" y="114.3" class="st2" width="28.8" height="3.9"/>
		<rect x="330.8" y="118.7" class="st2" width="28.8" height="3.9"/>
		<polyline class="st2" points="329.3,127.4 359.5,127.4 359.5,130.1 359.5,130.8 359.5,130.8 326.8,130.8 326.8,129.9 329.3,127.4 
					"/>
		<rect x="336.9" y="114.3" class="st2" width="1.7" height="13.1"/>
		<path class="st2" d="M333.5,130.6c0,0,1.1,0.2,0.6,3.3c0,0,0.2,4.5,0.3,5.7l0.2,1.5h1.1l0.4-0.3l-0.1-1.3c0,0-0.5-5.1,1.1-6.9
			c0,0,1.1,0.5,1.7,3.3h1c0,0,0.5,0.1-0.8-5.2H333.5z"/>
	</g>
</g>
<g id="couple">
	<text transform="matrix(1 0 0 1 160.4488 25.828)"><tspan x="0" y="0" class="st16 st17 st18">The </tspan><tspan x="36.3" y="0" class="st16 st19 st18">adventure </tspan><tspan x="101.1" y="0" class="st16 st17 st18">continues...</tspan></text>
	<g>
		<path class="st20" d="M286.4,126.6l1.7,14.9c0,0,0.9,1.2,1.4-0.5l2.5-13.7L286.4,126.6z"/>
		<path class="st20" d="M292.6,127.5l1.7,14.9c0,0,0.9,1.2,1.4-0.5l1.9-15.7L292.6,127.5z"/>
		
			<ellipse transform="matrix(0.9966 8.272977e-02 -8.272977e-02 0.9966 7.9603 -20.326)" class="st21" cx="249.3" cy="85.9" rx="11.3" ry="10.1"/>
		
			<ellipse transform="matrix(0.9916 0.1293 -0.1293 0.9916 13.9051 -37.2094)" class="st21" cx="293.6" cy="88.5" rx="11.6" ry="10.3"/>
		<path class="st22" d="M241.8,95.1c-1.6,1.2-3.8,3.7,1.1,5.7c0.2,0.1,0.5,0.2,0.7,0.2c1.4,0.3,6.4,1.2,10.8,0.1
			c0.7-0.2,1.3-0.6,1.7-1.2c0.7-1.1,1.4-3.1-1.3-4.4c-0.1-0.1-0.2-0.1-0.4-0.2c-1-0.4-6-2-10.4-1.2
			C243.1,94.3,242.4,94.7,241.8,95.1z"/>
		<path class="st2" d="M242.9,100.8c0,0-9.9,20.7-2.7,21.5c0,0,19.7,4.5,17.2-4.4l-3-17C254.3,100.9,250.1,103.1,242.9,100.8z"/>
		<path class="st23" d="M244,89.6c0.4,0.7,0.9,1.3,1.2,2.1s0.2,1.7-0.4,2.2c-0.6,0.5-1.5,0.5-2.3,0.4c-1.8-0.2-3.6-0.8-4.8-2
			c-1.5-1.5-1.8-3.7-2-5.8c-0.3-4.2,0-8.7,2.5-12.1c-0.4,1.3-0.7,2.7-0.7,4.1c1.2-0.1,2.2-0.8,3.1-1.4c3.6-2.2,7.7-3.5,11.9-3.4
			c4.2,0.1,8.5,0.5,11.5,3.5c-2.1-0.5-4.3,0.4-6.4,0.5c2.1,0.2,4.5-0.1,6.3,1c-3.5,0.4-4.7,2.8-6.9,3.7c-1.2,0.5-2.5,1.1-3.8,1.2
			c-1.3,0.2-2.5,0.1-3.8,0c-1.7-0.1-3.5,0-5.2,0.3c-0.4,0.1-0.8,0.1-1.1,0.4c-0.3,0.3-0.4,0.9-0.4,1.3
			C242.7,86.9,243.2,88.4,244,89.6z"/>
		<path class="st20" d="M240.1,122.3c0,0,5.1,9.5-4.1,13c0,0-4.4,0.7-7.8,0.2c0,0-0.8,1.4,2,2.2c0,0,10.8,4.2,16.7-3.1
			c0,0,2.9-2,2.9-6.6c0,0,7.1-1.7,13.5,9.4l2-0.7c0,0,1.7-5.9-9.7-14.4C255.6,122.4,253,124.9,240.1,122.3z"/>
		<path class="st20" d="M226.2,142.7c1,0.1,2-0.6,2.6-1.5c0.5-0.9,0.7-2,0.9-3c0-0.3,0.1-0.6,0-0.9c-0.1-0.3-0.4-0.5-0.6-0.7
			c-0.3-0.3-0.5-0.7-0.7-1.1c-0.6,1.4-1.4,2.6-2.3,3.8c-0.4,0.5-0.8,0.9-1,1.5c-0.2,0.6-0.1,1.3,0.4,1.6
			C225.6,142.6,225.9,142.6,226.2,142.7z"/>
		<path class="st20" d="M263.1,139c0.3,0.3,0.7,0.4,1.2,0.4c0.7,0.1,1.4,0.2,2.1,0.3c0.7,0.1,1.5,0.2,2.2,0c0.4-0.1,0.8-0.4,0.9-0.7
			c0.1-0.4,0-0.8-0.2-1.1c-0.2-0.3-0.6-0.5-0.9-0.7c-0.9-0.4-1.9-0.7-2.9-0.7c-0.3,0-0.6,0-0.8,0.1C263.6,136.9,262.9,138,263.1,139
			z"/>
		<path class="st24" d="M244.2,106.4c10.5,8.5,20.3,1.7,20.3,1.7c-11.5,16.1-23.8,3.2-23.8,3.2l-1.4-1.4l1.9-5.3L244.2,106.4z"/>
		<path class="st2" d="M254.3,100.9c0,0,12.7,3,16-2.1c0,0-1.7,8.6-14.6,9.9L254.3,100.9z"/>
		<path class="st22" d="M252.2,102.1c3.6,1.1,5.1,5.7,8.6,6.9c0.9-1.5,1.7-3,2.3-4.5c-1.1,0.3-2.3-0.1-3.3-0.7
			c-1-0.6-1.7-1.5-2.6-2.2c-2-1.6-4.4-2.7-7-3c-1.1-0.1-2.8-0.3-3.8,0.1c-1.4,0.6-0.4,1.2,0.2,2.3c2,3.6,2.3,8.4,5.6,11.2
			c0.2,0.1,0.3,0.3,0.5,0.3c0.2,0,0.3,0,0.5-0.1c0.9-0.2,1.7-0.4,2.6-0.6c-1.8-2-2.9-4.6-3.3-7.2c-0.1-0.5-0.1-1.1-0.3-1.6
			c-0.4-1.4-1.5-2.4-2.8-3c-1.2-0.6-2.6-0.8-4-0.9L252.2,102.1z"/>
		<path class="st25" d="M288.7,100.4c0,0-11.3,22.8-3.4,26c0,0,5.5,1.8,10.3,1.1c3.9-0.6,6.6-4.1,6.5-8c-0.2-4.7-0.9-13.8-3.7-17.7
			L288.7,100.4z"/>
		<path class="st25" d="M284.3,113.2c0,0-10.4-10.1-1.2-24.2c0,0-3.6,7,2.4,18.8L284.3,113.2z"/>
		<g>
			<path class="st2" d="M299.9,99.2c1.3,1.5,3,4.5-2.4,5.5c-0.2,0-0.5,0.1-0.7,0.1c-1.5,0-6.7-0.1-10.8-2.3
				c-0.7-0.4-1.2-0.9-1.4-1.6c-0.5-1.3-0.7-3.4,2.3-4.2c0.1,0,0.3-0.1,0.4-0.1c1.1-0.1,6.4-0.7,10.7,1.1
				C298.7,98.1,299.4,98.6,299.9,99.2z"/>
			<path class="st2" d="M287.9,103.9c-3.8,0.3-6.3,4.7-10.1,5.1c-0.6-1.7-1-3.4-1.4-5.1c1,0.5,2.3,0.4,3.4,0
				c1.1-0.4,2.1-1.1,3.1-1.7c2.3-1.2,5-1.7,7.7-1.5c1.1,0.1,2.9,0.3,3.8,0.9c1.3,0.9,0.2,1.3-0.7,2.3c-2.8,3.2-4.1,7.9-8,10.1
				c-0.2,0.1-0.4,0.2-0.6,0.2c-0.2,0-0.3-0.1-0.5-0.2c-0.8-0.4-1.7-0.8-2.5-1.2c2.2-1.7,3.9-4,4.9-6.5c0.2-0.5,0.4-1.1,0.6-1.5
				c0.7-1.3,2.1-2.1,3.5-2.4c1.4-0.3,2.8-0.2,4.2,0L287.9,103.9z"/>
		</g>
		<path class="st23" d="M305.5,91.5c0.1-1.5,0.1-2.9-0.1-4.4c-0.1-1-0.3-1.9-0.7-2.8c-1.3-2.8-4.6-3.9-7.5-4.8
			c-2.6-0.7-5.3-1.5-8.1-1.4s-5.6,0.9-7.4,3c-0.4,0.5-0.8,1-0.9,1.7c-0.2,1.4,1.1,2.5,2.4,3c2.3,0.8,4.9,0.3,7.4-0.1
			c2.4-0.3,5-0.3,7.2,0.7c2.2,1.1,3.9,3.5,3.4,5.9c-0.1,0.6-0.3,1.2,0.1,1.6c0.2,0.2,0.4,0.2,0.7,0.2c1.1,0.1,2.5,0,3.1-1
			C305.4,92.7,305.5,92.1,305.5,91.5z"/>
		<ellipse transform="matrix(0.9916 0.1293 -0.1293 0.9916 12.443 -37.8045)" class="st23" cx="297.5" cy="77" rx="7.6" ry="4.9"/>
		<path class="st25" d="M301.2,114.1c0,0,10.1-9.3,1.9-24c0,0,3.1,7.2-3.7,18.6L301.2,114.1z"/>
		<path class="st22" d="M290.3,78.2c0.1-0.2,0.3-0.3,0.6-0.3c1.3-0.1,2.7,0.4,3.9,0.8c1,0.4,2.1,0.7,3.2,1c1.1,0.2,2.2,0.3,3.2,0.8
			c0.5,0.2,1,0.8,0.6,1.1c-0.3,0.2-0.8,0.1-1.2,0c-2.6-0.7-5.3-1.3-7.9-2c-0.8-0.2-1.8-0.5-2.2-1C290.3,78.4,290.2,78.3,290.3,78.2z
			"/>
	</g>
	
		<ellipse transform="matrix(0.9966 8.272977e-02 -8.272977e-02 0.9966 8.9821 -22.1509)" class="st26" cx="271.8" cy="97.3" rx="2.2" ry="1.8"/>
	
		<ellipse transform="matrix(0.9966 8.272977e-02 -8.272977e-02 0.9966 8.9955 -22.1492)" class="st0" cx="271.8" cy="97.5" rx="1.5" ry="1.3"/>
	<path class="st10" d="M270.3,94.4l2.8-1.8l2.2,2.4l-1.8,1.3c0,0-0.7-1-2.5-0.7L270.3,94.4z"/>
	<path class="st27" d="M266.2,91.2l2.2,6L275,99c0,0-0.1,6.2-6.9,1.2l-1.9-1.1l0.2-1.4c0,0-3.1-0.3-3.9-1.9c0,0-1.7-4,0.4-4.8
		L266.2,91.2z"/>
</g>
<g id="logo">
	<g>
		<path class="st28" d="M164.2,135.1l0.3,1.5h-0.1c-0.2-0.9-1.1-1.3-2-1.3c-0.1,0-0.3,0-0.5,0.1v2.6h0.3c0.7,0,1.2-0.3,1.2-0.9h0.1
			v2.1h-0.1c-0.1-0.5-0.2-1-1.2-1h-0.4v2.4c0,0.4,0.2,0.6,0.8,0.6v0.1H160v-0.1c0.6,0,0.8-0.2,0.8-0.6v-4.7c0-0.4-0.2-0.6-0.8-0.6
			v-0.1H164.2L164.2,135.1z"/>
		<path class="st28" d="M169.3,135.1l0.3,1.5h-0.1c-0.2-0.9-1.1-1.3-2-1.3c-0.1,0-0.3,0-0.5,0.1v2.6h0.3c0.7,0,1.2-0.3,1.2-0.9h0.1
			v2.1h-0.1c-0.1-0.5-0.2-1-1.2-1H167v2.4c0,0.4,0.2,0.6,0.8,0.6v0.1h-2.6v-0.1c0.6,0,0.8-0.2,0.8-0.6v-4.7c0-0.4-0.2-0.6-0.8-0.6
			v-0.1H169.3L169.3,135.1z"/>
		<path class="st28" d="M158.8,135.1v0.1c-0.4,0-0.7,0.2-0.7,0.6v4.7c0,0.4,0.3,0.6,0.7,0.6v0.1h-2.4v-0.1c0.4,0,0.7-0.2,0.7-0.6
			v-4.7c0-0.4-0.3-0.6-0.7-0.6v-0.1H158.8L158.8,135.1z"/>
		<path class="st28" d="M155.7,133.4l0.3,1.9h-0.1c-0.4-1-1-1.6-2.3-1.6v6.6c0,0.7,0.4,0.9,0.8,0.9v0.1h-2.9v-0.1
			c0.4,0,0.9-0.2,0.9-0.9v-6.6c-1.3,0-1.9,0.6-2.4,1.6h-0.1l0.2-1.9H155.7L155.7,133.4z"/>
		<path class="st28" d="M190.9,139.3c0,1,0.7,1.7,1.7,1.7c0.4,0,0.9-0.2,1.3-0.6l-2-2.6C191.4,137.9,190.9,138.4,190.9,139.3
			L190.9,139.3z M193.7,135.4c0-0.8-0.3-1.2-1-1.2c-0.7,0-1.1,0.4-1.1,1.1c0,0.7,1,1.8,1,1.8C193.4,136.6,193.7,136.1,193.7,135.4
			L193.7,135.4z M192.7,137.2l1.7,2.1c0,0,0.2-0.3,0.2-0.7c0-0.4-0.2-0.5-0.5-0.6V138h1.9c0,0,0,0.1,0,0.1c-0.3,0.1-0.6,0.2-0.9,0.4
			c-0.2,0.3-0.3,0.5-0.5,1.1l0.8,1c0.3,0.4,0.8,0.6,1.3,0.7v0.1h-2v-0.1l-0.6-0.7c-0.5,0.5-1.3,0.9-2,0.9c-1.2,0-2-0.7-2-1.6
			c0-1,1-1.7,1.7-2.2c0,0-0.8-0.9-0.8-1.8c0-1,0.7-1.7,1.8-1.7c0.9,0,1.6,0.7,1.6,1.5C194.3,136.4,193.2,136.8,192.7,137.2
			L192.7,137.2z"/>
		<path class="st28" d="M205.2,133.2l0.1,2.5h-0.1c-0.3-1.4-1.2-2.2-2.4-2.2c-1.4,0-2.4,1.6-2.4,3.8c0,2.7,1.1,3.8,2.6,3.8
			c1.5,0,2.1-1.4,2.3-2.5h0.1v1.1c-0.3,0.5-1,1.5-2.7,1.5c-2.1,0-3.7-1.7-3.7-4c0-2.1,1.8-4,3.7-4c1.1,0,1.4,0.5,1.8,0.5
			c0.3,0,0.5-0.2,0.5-0.6H205.2L205.2,133.2z"/>
		<path class="st28" d="M212.7,140.1c0.3,0,0.6,0.3,0.6,0.6c0,0.3-0.3,0.5-0.6,0.5c-0.3,0-0.6-0.2-0.6-0.5
			C212.2,140.4,212.4,140.1,212.7,140.1L212.7,140.1z"/>
		<path class="st28" d="M207.1,138.1c0,1.9,0.7,3.1,1.9,3.1c1.2,0,1.9-1.1,1.9-3.1c0-1.8-0.7-2.9-1.9-2.9
			C207.7,135.2,207.1,136.4,207.1,138.1L207.1,138.1z M209,135c1.8,0,3.3,1.3,3.3,3.2c0,1.7-1.4,3.1-3.2,3.1c-1.8,0-3.3-1.4-3.3-3.1
			C205.8,136.5,207.2,135,209,135L209,135z"/>
		<path class="st28" d="M171.8,136.4l1.1,2.6h-2.1L171.8,136.4L171.8,136.4z M175.2,141.1c-0.2,0-0.4-0.2-0.5-0.3
			c-0.1-0.1-2.5-6-2.5-6l-2.2,5.4c-0.3,0.7-0.6,1-1.1,1v0.1h1.8v-0.1c-0.4,0-0.6-0.2-0.6-0.5c0-0.2,0.6-1.6,0.6-1.6h2.2
			c0,0,0.6,1.3,0.6,1.6c0,0.2-0.3,0.5-0.7,0.5v0.1h2.4V141.1L175.2,141.1z"/>
		<path class="st28" d="M176.2,140.2c0,0.6-0.4,0.8-0.8,0.9v0.1h1.8v-0.1c-0.5-0.1-0.8-0.5-0.8-0.9v-4l4.2,5.2v-5
			c0-0.7,0.4-1.1,0.9-1.1v-0.1h-2v0.1c0.6,0.2,1,0.5,1,1.2v3.1l-3.5-4.4h-1.7v0.1c0.7,0,0.9,0.6,0.9,0.8V140.2L176.2,140.2z"/>
		<path class="st28" d="M181.7,135.2c0.3,0,0.3,0,0.5,0.4c0,0,1.9,3.1,1.9,3.1v1.8c0,0.4-0.3,0.6-0.9,0.7v0.1h2.7v-0.1
			c-0.5,0-0.8-0.3-0.8-0.7v-2.1c0,0,1.2-2.2,1.3-2.4c0.3-0.5,0.7-0.7,1.2-0.8v-0.1h-2.2l0,0.1c0.7,0,0.9,0.7,0.6,1.1l-1.1,2.1
			l-1.4-2.4c-0.2-0.4,0.1-0.7,0.6-0.7v-0.1h-2.5V135.2L181.7,135.2z"/>
	</g>
</g>
</svg>
