<svg xmlns="http://www.w3.org/2000/svg" viewBox="0 0 160 600" enable-background="new 0 0 160 600"><style type="text/css">.st0{fill:#A2DBDF;} .st1{fill:#464C5E;} .st2{fill:#27292C;} .st3{fill:#AA7C51;} .st4{fill:#AA7C51;stroke:#27292C;stroke-width:2;stroke-miterlimit:10;} .st5{fill:none;stroke:#27292C;stroke-width:2;stroke-miterlimit:10;} .st6{fill:none;stroke:#27292C;stroke-miterlimit:10;} .st7{fill:#FFFFFF;} .st8{fill:#849E3C;} .st9{fill:#010101;} .st10{fill:#FAB498;} .st11{fill:#CCC19C;} .st12{fill:#482A15;} .st13{fill:#3F4655;} .st14{fill:#A97D51;} .st15{fill:#E3C821;} .st16{fill:#4BC2C1;} .st17{fill-rule:evenodd;clip-rule:evenodd;} .st18{fill:#2B2A2B;} .st19{font-family:&apos;Baskerville&apos;;} .st20{font-size:29.4273px;} .st21{font-family:&apos;Baskerville-Italic&apos;;}</style><path class="st0" d="M-1.8-1.7h163.8v440.2h-163.8z" id="sky"/><g id="big_ben"><path class="st1" d="M78.3 84.4s-2.1 26.5-16.4 45h33.6s-14.2-18.4-17.2-45z"/><path class="st2" d="M58.3 129.4h40.3v1.7h-40.3z"/><path class="st3" d="M60.9 131.1h35v22.7h-35zM46.4 198.2h65.1v65.8h-65.1zM50.4 263.8h57.1v155.2h-57.1z"/><path class="st4" d="M54.8 206.9h48.4v48.7h-48.4z"/><path class="st5" d="M60.9 135.3h35"/><path class="st6" d="M65.9 153.8v-18.6M72.7 153.8v-18.6M79.4 154.2v-19.1M85.8 154.2v-19.1M91.8 154.2v-19.1"/><path class="st3" d="M50.4 181.5h57.2v17.1h-57.2z"/><path class="st5" d="M50.4 186.5h57.2M50.4 264.3h57.2M58.3 419.4v-154.9M66.6 419.4v-154.9M74.8 419.4v-154.9M83.1 419.4v-154.9M91.5 419.4v-154.9M99.7 419.4v-154.9M58 198.5v-12M66.2 198.5v-12M74.4 198.5v-12M82.7 198.5v-12M91.1 198.5v-12M99.3 198.5v-12"/><path class="st1" d="M95.9 153.8l11.9 27.7h-57.4l10.5-27.7h35"/><circle class="st7" cx="79" cy="231.3" r="22.8"/><path class="st2" d="M77.6 231.5s-.1-.1-.3-.4c-.2-.2-.4-.6-.6-1-.4-.8-.6-1.9-.6-3.1 0-1.1.2-2.2.6-3.1.2-.4.4-.8.6-1 .2-.2.3-.4.3-.4s.1.1.3.4c.2.2.4.6.6 1 .4.8.6 1.9.6 3.1 0 1.1-.3 2.2-.6 3.1-.2.4-.4.8-.6 1-.1.3-.3.4-.3.4zM77.6 231.5h.6c.4 0 1 .1 1.6.3 1.3.3 2.9.9 4.3 1.7 1.5.8 2.8 1.9 3.7 2.8.5.5.8.9 1 1.2.2.3.4.5.4.5h-.6c-.4 0-1-.1-1.6-.3-1.3-.3-2.9-.9-4.3-1.7-1.5-.8-2.8-1.9-3.7-2.8-.5-.5-.8-.9-1-1.2-.3-.3-.4-.5-.4-.5z"/><ellipse class="st2" cx="78" cy="231.5" rx="1.9" ry="1.7"/></g><path class="st8" d="M-1.8 424.2s76.8-60.5 163.8 0v177.5h-163.8v-177.5z" id="grass"/><g id="couple"><path class="st9" d="M115.7 504l4.3 27.4s1.7 2.2 2.6-1.1l3.5-25.4-10.4-.9zM127.2 505l4.3 27.4s1.7 2.2 2.6-1.1l2.3-29-9.2 2.7z"/><ellipse class="st10" cx="43.6" cy="431.2" rx="21.4" ry="19"/><ellipse transform="matrix(.996 .086 -.086 .996 37.671 -9.211)" class="st10" cx="125.9" cy="433.2" rx="21.4" ry="19"/><path class="st11" d="M30.9 449.8c-2.7 2.5-6.5 7.5 3 10.6l1.3.3c2.7.4 12.4 1.3 20.3-1.6 1.4-.5 2.4-1.4 3-2.5 1.1-2.3 2.1-6.1-3.2-8.2-.2-.1-.5-.2-.7-.2-2-.5-11.6-2.8-19.8-.6-1.5.5-2.8 1.3-3.9 2.2z"/><path class="st1" d="M33.9 460.2s-15.4 40.6-1.8 41.1c0 0 38 5.4 31.8-11l-8.4-31.6c.1 0-7.5 4.8-21.6 1.5z"/><path class="st12" d="M34.2 439.1c.9 1.2 1.9 2.3 2.5 3.7.6 1.4.6 3.1-.4 4.2s-2.8 1.2-4.3 1.1c-3.3-.2-6.9-.9-9.4-3.1-3-2.6-4.1-6.8-4.7-10.7-1.3-7.9-1.4-16.4 2.7-23.2-.6 2.5-.8 5.2-.6 7.8 2.2-.4 4-1.8 5.7-3.1 6.4-4.7 14-7.8 22-8.3 7.9-.5 16.1-.3 22.3 4.7-4-.7-8 1.3-12 1.9 3.9 0 8.5-.9 12 .9-6.6 1.3-8.5 6-12.4 8.1-2.3 1.2-4.5 2.4-7 2.9-2.3.5-4.8.5-7.1.6-3.3.2-6.5.6-9.7 1.3-.7.2-1.5.4-2 .9-.6.7-.6 1.7-.5 2.6.2 2.8 1.3 5.4 2.9 7.7z"/><path class="st9" d="M32.1 501.4s11.1 17.2-5.6 25.1c0 0-8.2 2.1-14.7 1.5 0 0-1.3 2.8 4.1 3.8 0 0 21 6.2 31-8.5 0 0 5.1-4.2 4.4-12.8 0 0 13.1-4.4 26.9 15.6l3.6-1.5s2.3-11.4-20.5-25.6c.1.1-4.5 5.2-29.2 2.4zM8.5 542.5c2 0 3.7-1.5 4.6-3.3.9-1.8 1.1-3.8 1.2-5.8 0-.6.1-1.2-.2-1.8-.3-.5-.8-.8-1.2-1.2-.6-.5-1.1-1.2-1.4-1.9-1 2.7-2.3 5.2-3.8 7.5-.7 1-1.4 2-1.7 3.1-.3 1.1 0 2.4 1 3 .4.3 1 .4 1.5.4zM78.2 529.3c.6.5 1.5.6 2.3.6l4.1.3c1.4.1 2.8.2 4.1-.3.7-.3 1.4-.8 1.6-1.6.2-.7-.1-1.5-.6-2s-1.2-.9-1.8-1.1c-1.8-.7-3.7-1-5.6-.9-.5 0-1.1.1-1.6.3-1.9.6-3.1 2.8-2.5 4.7z"/><path class="st13" d="M37.3 470.7c21.2 14.4 38.7 0 38.7 0-19.2 32.2-44.5 9.7-44.5 9.7l-2.9-2.4 2.8-10.2 5.9 2.9z"/><path class="st1" d="M55.6 458.7s24.4 3.8 29.9-6.5c0 0-1.8 16.4-26 21.1l-3.9-14.6z"/><path class="st11" d="M51.7 461.3c6.9 1.5 10.4 10 17.3 11.7 1.4-2.9 2.7-5.9 3.7-8.9-2 .7-4.4.2-6.3-.9-1.9-1.1-3.5-2.5-5.3-3.8-4-2.8-8.8-4.3-13.7-4.5-2.1-.1-5.3-.2-7.2.8-2.6 1.4-.6 2.3.7 4.3 4.4 6.5 5.6 15.5 12.3 20.3.3.2.7.4 1 .5.3 0 .6-.1.9-.2l4.8-1.6c-3.6-3.6-6.2-8.2-7.4-13.1-.2-1-.4-2-.8-3-1-2.5-3.3-4.3-5.8-5.3-2.4-.9-5-1.1-7.6-1l13.4 4.7z"/><path class="st14" d="M117.8 455.5s-18.9 42.9-4.1 48.1c0 0 10.2 2.9 19 1.1 7.1-1.4 11.9-8.1 11.3-15.3-.7-8.7-2.7-25.4-8.3-32.4l-17.9-1.5zM110.7 479.4s-20-17.7-4.1-44.4c0 0-6.1 13.2 5.9 34.4l-1.8 10z"/><path class="st1" d="M138.3 452.5c2.5 2.7 5.9 8.1-3.9 10.3-.4.1-.9.2-1.4.2-2.7.1-12.4.3-20.1-3.3-1.3-.6-2.3-1.6-2.7-2.8-.9-2.3-1.6-6.3 3.9-7.9l.7-.2c2.1-.4 11.8-1.8 19.8 1.1 1.5.6 2.8 1.5 3.7 2.6zM116.7 462.1c-7 .9-11.3 9.1-18.2 10.2-1.2-3-2.2-6.1-2.9-9.2 2 .9 4.3.5 6.3-.4s3.7-2.2 5.6-3.3c4.2-2.5 9.1-3.6 14-3.3 2.1.1 5.3.3 7.1 1.4 2.5 1.6.4 2.3-1.1 4.2-4.9 6.1-6.9 15-14 19.2-.3.2-.7.4-1.1.4-.3 0-.6-.1-.9-.3l-4.7-2c3.9-3.2 6.9-7.6 8.5-12.4.3-1 .6-2 1-2.9 1.2-2.4 3.6-4 6.2-4.8 2.5-.7 5.1-.6 7.7-.3l-13.5 3.5z"/><path class="st12" d="M148 437.8c.1-2.7-.1-5.4-.5-8-.3-1.8-.7-3.5-1.5-5.1-2.6-5-8.7-6.9-14.2-8.2-4.9-1.2-9.9-2.3-14.9-2-5 .3-10.2 2.2-13.4 6.1-.8.9-1.4 2-1.5 3.1-.2 2.5 2.2 4.6 4.6 5.3 4.4 1.4 9 .1 13.5-.7 4.4-.8 9.2-1 13.3.8s7.4 6.2 6.7 10.6c-.2 1-.4 2.3.4 3 .4.3.8.3 1.3.4 2.1.2 4.6-.2 5.7-2.1.4-.9.5-2.1.5-3.2z"/><ellipse transform="matrix(.996 .086 -.086 .996 35.84 -9.82)" class="st12" cx="132.1" cy="411.6" rx="14.1" ry="9.1"/><path class="st14" d="M141.8 479.7s17.9-17.9 1.5-44.3c0 0 6.3 13.1-5.3 34.5l3.8 9.8z"/><path class="st11" d="M118.9 414.4c.1-.3.6-.5 1.1-.6 2.4-.4 4.9.4 7.3 1.2 1.9.6 3.9 1.2 6 1.5 2 .3 4.1.5 5.9 1.2 1 .4 2 1.3 1.2 2-.5.4-1.5.3-2.3.2l-14.7-3c-1.6-.3-3.3-.7-4.2-1.8-.2-.2-.4-.4-.3-.7z"/></g><g id="ring"><ellipse class="st15" cx="85.4" cy="451" rx="4.1" ry="3.4"/><ellipse class="st8" cx="85.4" cy="451.3" rx="2.8" ry="2.3"/><path class="st7" d="M82.3 445.8l4.8-3.8 4.5 4.1-3.1 2.6s-1.5-1.7-4.7-.9l-1.5-2z"/><path class="st16" d="M74.3 440.7l4.9 10.6 12.4 2.3s.7 11.4-12.4 3.2l-3.7-1.7.2-2.6s-5.7-.1-7.4-2.9c0 0-3.7-7.2 0-8.9h6z"/></g><g id="ring_1_"><path class="st17" d="M56.9 581.2l.3 2h-.2c-.3-1.2-1.4-1.7-2.6-1.7-.2 0-.4 0-.6.1v3.4h.4c1 0 1.6-.4 1.6-1.2h.2v2.7h-.1c-.1-.6-.3-1.3-1.6-1.3h-.5v3.1c0 .5.2.8 1 .8v.2h-3.3v-.2c.7 0 1-.3 1-.8v-6.1c0-.5-.3-.8-1-.8v-.2h5.4zM63.6 581.2l.3 2h-.2c-.3-1.2-1.4-1.7-2.6-1.7-.2 0-.4 0-.6.1v3.4h.5c1 0 1.6-.4 1.6-1.2h.2v2.7h-.1c-.1-.6-.3-1.3-1.6-1.3h-.5v3.1c0 .5.2.8 1 .8v.2h-3.3v-.2c.7 0 1-.3 1-.8v-6.1c0-.5-.3-.8-1-.8v-.2h5.3zM49.9 581.2v.2c-.6 0-.9.3-.9.8v6.1c0 .6.4.8.9.8v.2h-3.1v-.2c.6 0 .9-.3.9-.8v-6.1c0-.5-.3-.8-.9-.8v-.2h3.1zM45.9 579l.3 2.4h-.1c-.5-1.3-1.3-2.1-3-2.1v8.5c0 .9.5 1.2 1.1 1.2v.2h-3.7v-.2c.5 0 1.2-.3 1.2-1.2v-8.5c-1.7 0-2.5.8-3.1 2.1h-.1l.3-2.4h7.1zM91.6 586.7c0 1.3.9 2.2 2.2 2.2.6 0 1.2-.3 1.7-.8l-2.6-3.3c-.7.1-1.3.8-1.3 1.9zm3.6-5c0-1-.4-1.6-1.3-1.6s-1.4.5-1.4 1.4c0 1 1.3 2.3 1.3 2.3 1-.6 1.4-1.2 1.4-2.1zm-1.3 2.3l2.2 2.8s.2-.4.3-.9c0-.5-.3-.7-.7-.8v-.1h2.4v.1c-.4.1-.8.2-1.1.5-.3.3-.4.6-.7 1.4l1 1.3c.4.5 1 .8 1.7.9v.2h-2.6v-.2l-.7-.9c-.6.6-1.6 1.2-2.6 1.2-1.6 0-2.6-.9-2.6-2.1 0-1.3 1.3-2.2 2.3-2.9 0 0-1.1-1.2-1.1-2.3 0-1.3 1-2.2 2.3-2.2 1.2 0 2.1.9 2.1 1.9-.1 1-1.5 1.6-2.2 2.1zM110.1 578.8l.1 3.2h-.2c-.3-1.8-1.5-2.9-3-2.9-1.8 0-3.1 2.1-3.1 4.9 0 3.5 1.4 5 3.3 5 2 0 2.8-1.9 3-3.2h.2v1.4c-.3.6-1.3 2-3.5 2-2.7 0-4.8-2.2-4.8-5.1 0-2.7 2.3-5.1 4.8-5.1 1.4 0 1.8.6 2.3.6.4 0 .6-.3.6-.8h.3zM119.9 587.8c.4 0 .7.3.7.7 0 .4-.3.7-.7.7-.4 0-.7-.3-.7-.7-.1-.4.3-.7.7-.7zM112.6 585.1c0 2.5 1 4 2.5 4 1.6 0 2.5-1.4 2.5-4 0-2.4-.9-3.7-2.5-3.8-1.7 0-2.5 1.6-2.5 3.8zm2.4-3.9c2.3 0 4.2 1.7 4.2 4.1 0 2.3-1.8 4-4.2 4-2.3 0-4.2-1.8-4.2-4 .1-2.2 1.9-4.1 4.2-4.1zM66.8 582.9l1.4 3.3h-2.7l1.3-3.3zm4.4 6.2c-.3 0-.5-.3-.7-.4-.1-.2-3.2-7.8-3.2-7.8l-2.9 7c-.3.9-.8 1.3-1.4 1.3v.2h2.3v-.2c-.5 0-.8-.3-.8-.6s.7-2 .7-2h2.8s.8 1.7.8 2c0 .3-.4.6-.9.6v.2h3.1v-.3h.2zM72.5 587.9c0 .7-.5 1.1-1 1.2v.2h2.3v-.2c-.7-.1-1-.6-1-1.2v-5.2l5.5 6.8v-6.5c0-.9.5-1.5 1.1-1.5v-.2h-2.6v.1c.7.2 1.3.7 1.3 1.5v4l-4.5-5.7h-2.2v.1c.9 0 1.2.8 1.2 1v5.6h-.1zM79.7 581.4c.3 0 .4 0 .7.5l2.5 4v2.4c0 .5-.4.8-1.1.9v.1h3.5v-.1c-.6 0-1-.3-1-.9v-2.8s1.6-2.9 1.7-3.1c.4-.6.9-1 1.5-1v-.1h-2.8v.1c.9 0 1.1.9.8 1.4l-1.4 2.7-1.8-3.1c-.3-.5.1-.9.7-.9v-.1h-3.3000000000000003z"/></g><text transform="translate(4.463 40.821)" id="Layer_7"><tspan x="0" y="0" class="st18 st19 st20">The</tspan><tspan x="56.4" y="0" class="st18 st21 st20">adventure</tspan><tspan x="7.7" y="35.3" class="st18 st19 st20">continues...</tspan></text></svg>