<?xml version="1.0" encoding="utf-8"?>
<!-- Generator: Adobe Illustrator 19.1.0, SVG Export Plug-In . SVG Version: 6.00 Build 0)  -->
<svg version="1.1" xmlns="http://www.w3.org/2000/svg" xmlns:xlink="http://www.w3.org/1999/xlink" x="0px" y="0px"
	 viewBox="0 0 160 600" style="enable-background:new 0 0 160 600;" xml:space="preserve">
<style type="text/css">
	.st0{fill:#A2DBDF;}
	.st1{fill:#464C5E;}
	.st2{fill:#27292C;}
	.st3{fill:#AA7C51;}
	.st4{fill:#AA7C51;stroke:#27292C;stroke-width:2;stroke-miterlimit:10;}
	.st5{fill:none;stroke:#27292C;stroke-width:2;stroke-miterlimit:10;}
	.st6{fill:none;stroke:#27292C;stroke-miterlimit:10;}
	.st7{fill:#FFFFFF;}
	.st8{fill:#849E3C;}
	.st9{fill:#010101;}
	.st10{fill:#FAB498;}
	.st11{fill:#CCC19C;}
	.st12{fill:#482A15;}
	.st13{fill:#3F4655;}
	.st14{fill:#A97D51;}
	.st15{fill:#E3C821;}
	.st16{fill:#4BC2C1;}
	.st17{fill-rule:evenodd;clip-rule:evenodd;}
	.st18{fill:#2B2A2B;}
	.st19{font-family:'Baskerville';}
	.st20{font-size:29.4273px;}
	.st21{font-family:'Baskerville-Italic';}
</style>
<g id="sky">
	<rect x="-1.8" y="-1.7" class="st0" width="163.8" height="440.2"/>
</g>
<g id="big_ben">
	<g>
		<path class="st1" d="M78.3,84.4c0,0-2.1,26.5-16.4,45h33.6C95.5,129.4,81.3,111,78.3,84.4z"/>
		<rect x="58.3" y="129.4" class="st2" width="40.3" height="1.7"/>
		<rect x="60.9" y="131.1" class="st3" width="35" height="22.7"/>
		<rect x="46.4" y="198.2" class="st3" width="65.1" height="65.8"/>
		<rect x="50.4" y="263.8" class="st3" width="57.1" height="155.2"/>
		<rect x="54.8" y="206.9" class="st4" width="48.4" height="48.7"/>
		<line class="st5" x1="60.9" y1="135.3" x2="95.9" y2="135.3"/>
		<line class="st6" x1="65.9" y1="153.8" x2="65.9" y2="135.2"/>
		<line class="st6" x1="72.7" y1="153.8" x2="72.7" y2="135.2"/>
		<line class="st6" x1="79.4" y1="154.2" x2="79.4" y2="135.1"/>
		<line class="st6" x1="85.8" y1="154.2" x2="85.8" y2="135.1"/>
		<line class="st6" x1="91.8" y1="154.2" x2="91.8" y2="135.1"/>
		<rect x="50.4" y="181.5" class="st3" width="57.2" height="17.1"/>
		<line class="st5" x1="50.4" y1="186.5" x2="107.6" y2="186.5"/>
		<line class="st5" x1="50.4" y1="264.3" x2="107.6" y2="264.3"/>
		<line class="st5" x1="58.3" y1="419.4" x2="58.3" y2="264.5"/>
		<line class="st5" x1="66.6" y1="419.4" x2="66.6" y2="264.5"/>
		<line class="st5" x1="74.8" y1="419.4" x2="74.8" y2="264.5"/>
		<line class="st5" x1="83.1" y1="419.4" x2="83.1" y2="264.5"/>
		<line class="st5" x1="91.5" y1="419.4" x2="91.5" y2="264.5"/>
		<line class="st5" x1="99.7" y1="419.4" x2="99.7" y2="264.5"/>
		<line class="st5" x1="58" y1="198.5" x2="58" y2="186.5"/>
		<line class="st5" x1="66.2" y1="198.5" x2="66.2" y2="186.5"/>
		<line class="st5" x1="74.4" y1="198.5" x2="74.4" y2="186.5"/>
		<line class="st5" x1="82.7" y1="198.5" x2="82.7" y2="186.5"/>
		<line class="st5" x1="91.1" y1="198.5" x2="91.1" y2="186.5"/>
		<line class="st5" x1="99.3" y1="198.5" x2="99.3" y2="186.5"/>
		<polyline class="st1" points="95.9,153.8 107.8,181.5 107.8,181.5 50.4,181.5 50.4,181.5 60.9,153.8 95.9,153.8 		"/>
		<circle class="st7" cx="79" cy="231.3" r="22.8"/>
		<g>
			<path class="st2" d="M77.6,231.5c0,0-0.1-0.1-0.3-0.4c-0.2-0.2-0.4-0.6-0.6-1c-0.4-0.8-0.6-1.9-0.6-3.1c0-1.1,0.2-2.2,0.6-3.1
				c0.2-0.4,0.4-0.8,0.6-1c0.2-0.2,0.3-0.4,0.3-0.4s0.1,0.1,0.3,0.4c0.2,0.2,0.4,0.6,0.6,1c0.4,0.8,0.6,1.9,0.6,3.1
				c0,1.1-0.3,2.2-0.6,3.1c-0.2,0.4-0.4,0.8-0.6,1C77.8,231.4,77.6,231.5,77.6,231.5z"/>
		</g>
		<g>
			<path class="st2" d="M77.6,231.5c0,0,0.2,0,0.6,0c0.4,0,1,0.1,1.6,0.3c1.3,0.3,2.9,0.9,4.3,1.7c1.5,0.8,2.8,1.9,3.7,2.8
				c0.5,0.5,0.8,0.9,1,1.2c0.2,0.3,0.4,0.5,0.4,0.5s-0.2,0-0.6,0c-0.4,0-1-0.1-1.6-0.3c-1.3-0.3-2.9-0.9-4.3-1.7
				c-1.5-0.8-2.8-1.9-3.7-2.8c-0.5-0.5-0.8-0.9-1-1.2C77.7,231.7,77.6,231.5,77.6,231.5z"/>
		</g>
		<ellipse class="st2" cx="78" cy="231.5" rx="1.9" ry="1.7"/>
	</g>
</g>
<g id="grass">
	<path class="st8" d="M-1.8,424.2c0,0,76.8-60.5,163.8,0v177.5H-1.8V424.2z"/>
</g>
<g id="couple">
	<g>
		<path class="st9" d="M115.7,504l4.3,27.4c0,0,1.7,2.2,2.6-1.1l3.5-25.4L115.7,504z"/>
		<path class="st9" d="M127.2,505l4.3,27.4c0,0,1.7,2.2,2.6-1.1l2.3-29L127.2,505z"/>
		<ellipse class="st10" cx="43.6" cy="431.2" rx="21.4" ry="19"/>
		
			<ellipse transform="matrix(0.9963 8.587866e-02 -8.587866e-02 0.9963 37.671 -9.2109)" class="st10" cx="125.9" cy="433.2" rx="21.4" ry="19"/>
		<path class="st11" d="M30.9,449.8c-2.7,2.5-6.5,7.5,3,10.6c0.4,0.1,0.9,0.2,1.3,0.3c2.7,0.4,12.4,1.3,20.3-1.6
			c1.4-0.5,2.4-1.4,3-2.5c1.1-2.3,2.1-6.1-3.2-8.2c-0.2-0.1-0.5-0.2-0.7-0.2c-2-0.5-11.6-2.8-19.8-0.6
			C33.3,448.1,32,448.9,30.9,449.8z"/>
		<path class="st1" d="M33.9,460.2c0,0-15.4,40.6-1.8,41.1c0,0,38,5.4,31.8-11l-8.4-31.6C55.6,458.7,48,463.5,33.9,460.2z"/>
		<path class="st12" d="M34.2,439.1c0.9,1.2,1.9,2.3,2.5,3.7c0.6,1.4,0.6,3.1-0.4,4.2c-1,1.1-2.8,1.2-4.3,1.1
			c-3.3-0.2-6.9-0.9-9.4-3.1c-3-2.6-4.1-6.8-4.7-10.7c-1.3-7.9-1.4-16.4,2.7-23.2c-0.6,2.5-0.8,5.2-0.6,7.8c2.2-0.4,4-1.8,5.7-3.1
			c6.4-4.7,14-7.8,22-8.3c7.9-0.5,16.1-0.3,22.3,4.7c-4-0.7-8,1.3-12,1.9c3.9,0,8.5-0.9,12,0.9c-6.6,1.3-8.5,6-12.4,8.1
			c-2.3,1.2-4.5,2.4-7,2.9c-2.3,0.5-4.8,0.5-7.1,0.6c-3.3,0.2-6.5,0.6-9.7,1.3c-0.7,0.2-1.5,0.4-2,0.9c-0.6,0.7-0.6,1.7-0.5,2.6
			C31.5,434.2,32.6,436.8,34.2,439.1z"/>
		<path class="st9" d="M32.1,501.4c0,0,11.1,17.2-5.6,25.1c0,0-8.2,2.1-14.7,1.5c0,0-1.3,2.8,4.1,3.8c0,0,21,6.2,31-8.5
			c0,0,5.1-4.2,4.4-12.8c0,0,13.1-4.4,26.9,15.6l3.6-1.5c0,0,2.3-11.4-20.5-25.6C61.4,499.1,56.8,504.2,32.1,501.4z"/>
		<path class="st9" d="M8.5,542.5c2,0,3.7-1.5,4.6-3.3c0.9-1.8,1.1-3.8,1.2-5.8c0-0.6,0.1-1.2-0.2-1.8c-0.3-0.5-0.8-0.8-1.2-1.2
			c-0.6-0.5-1.1-1.2-1.4-1.9c-1,2.7-2.3,5.2-3.8,7.5C7,537,6.3,538,6,539.1c-0.3,1.1,0,2.4,1,3C7.4,542.4,8,542.5,8.5,542.5z"/>
		<path class="st9" d="M78.2,529.3c0.6,0.5,1.5,0.6,2.3,0.6c1.4,0.1,2.7,0.2,4.1,0.3c1.4,0.1,2.8,0.2,4.1-0.3
			c0.7-0.3,1.4-0.8,1.6-1.6c0.2-0.7-0.1-1.5-0.6-2c-0.5-0.5-1.2-0.9-1.8-1.1c-1.8-0.7-3.7-1-5.6-0.9c-0.5,0-1.1,0.1-1.6,0.3
			C78.8,525.2,77.6,527.4,78.2,529.3z"/>
		<path class="st13" d="M37.3,470.7c21.2,14.4,38.7,0,38.7,0c-19.2,32.2-44.5,9.7-44.5,9.7l-2.9-2.4l2.8-10.2L37.3,470.7z"/>
		<path class="st1" d="M55.6,458.7c0,0,24.4,3.8,29.9-6.5c0,0-1.8,16.4-26,21.1L55.6,458.7z"/>
		<path class="st11" d="M51.7,461.3c6.9,1.5,10.4,10,17.3,11.7c1.4-2.9,2.7-5.9,3.7-8.9c-2,0.7-4.4,0.2-6.3-0.9
			c-1.9-1.1-3.5-2.5-5.3-3.8c-4-2.8-8.8-4.3-13.7-4.5c-2.1-0.1-5.3-0.2-7.2,0.8c-2.6,1.4-0.6,2.3,0.7,4.3
			c4.4,6.5,5.6,15.5,12.3,20.3c0.3,0.2,0.7,0.4,1,0.5c0.3,0,0.6-0.1,0.9-0.2c1.6-0.5,3.2-1.1,4.8-1.6c-3.6-3.6-6.2-8.2-7.4-13.1
			c-0.2-1-0.4-2-0.8-3c-1-2.5-3.3-4.3-5.8-5.3c-2.4-0.9-5-1.1-7.6-1L51.7,461.3z"/>
		<path class="st14" d="M117.8,455.5c0,0-18.9,42.9-4.1,48.1c0,0,10.2,2.9,19,1.1c7.1-1.4,11.9-8.1,11.3-15.3
			c-0.7-8.7-2.7-25.4-8.3-32.4L117.8,455.5z"/>
		<path class="st14" d="M110.7,479.4c0,0-20-17.7-4.1-44.4c0,0-6.1,13.2,5.9,34.4L110.7,479.4z"/>
		<g>
			<path class="st1" d="M138.3,452.5c2.5,2.7,5.9,8.1-3.9,10.3c-0.4,0.1-0.9,0.2-1.4,0.2c-2.7,0.1-12.4,0.3-20.1-3.3
				c-1.3-0.6-2.3-1.6-2.7-2.8c-0.9-2.3-1.6-6.3,3.9-7.9c0.2-0.1,0.5-0.1,0.7-0.2c2.1-0.4,11.8-1.8,19.8,1.1
				C136.1,450.5,137.4,451.4,138.3,452.5z"/>
			<path class="st1" d="M116.7,462.1c-7,0.9-11.3,9.1-18.2,10.2c-1.2-3-2.2-6.1-2.9-9.2c2,0.9,4.3,0.5,6.3-0.4s3.7-2.2,5.6-3.3
				c4.2-2.5,9.1-3.6,14-3.3c2.1,0.1,5.3,0.3,7.1,1.4c2.5,1.6,0.4,2.3-1.1,4.2c-4.9,6.1-6.9,15-14,19.2c-0.3,0.2-0.7,0.4-1.1,0.4
				c-0.3,0-0.6-0.1-0.9-0.3c-1.6-0.7-3.1-1.3-4.7-2c3.9-3.2,6.9-7.6,8.5-12.4c0.3-1,0.6-2,1-2.9c1.2-2.4,3.6-4,6.2-4.8
				c2.5-0.7,5.1-0.6,7.7-0.3L116.7,462.1z"/>
		</g>
		<path class="st12" d="M148,437.8c0.1-2.7-0.1-5.4-0.5-8c-0.3-1.8-0.7-3.5-1.5-5.1c-2.6-5-8.7-6.9-14.2-8.2
			c-4.9-1.2-9.9-2.3-14.9-2c-5,0.3-10.2,2.2-13.4,6.1c-0.8,0.9-1.4,2-1.5,3.1c-0.2,2.5,2.2,4.6,4.6,5.3c4.4,1.4,9,0.1,13.5-0.7
			c4.4-0.8,9.2-1,13.3,0.8s7.4,6.2,6.7,10.6c-0.2,1-0.4,2.3,0.4,3c0.4,0.3,0.8,0.3,1.3,0.4c2.1,0.2,4.6-0.2,5.7-2.1
			C147.9,440.1,148,438.9,148,437.8z"/>
		
			<ellipse transform="matrix(0.9963 8.587866e-02 -8.587866e-02 0.9963 35.8395 -9.82)" class="st12" cx="132.1" cy="411.6" rx="14.1" ry="9.1"/>
		<path class="st14" d="M141.8,479.7c0,0,17.9-17.9,1.5-44.3c0,0,6.3,13.1-5.3,34.5L141.8,479.7z"/>
		<path class="st11" d="M118.9,414.4c0.1-0.3,0.6-0.5,1.1-0.6c2.4-0.4,4.9,0.4,7.3,1.2c1.9,0.6,3.9,1.2,6,1.5c2,0.3,4.1,0.5,5.9,1.2
			c1,0.4,2,1.3,1.2,2c-0.5,0.4-1.5,0.3-2.3,0.2c-4.9-1-9.8-2-14.7-3c-1.6-0.3-3.3-0.7-4.2-1.8C119,414.9,118.8,414.7,118.9,414.4z"
			/>
	</g>
</g>
<g id="ring">
	<ellipse class="st15" cx="85.4" cy="451" rx="4.1" ry="3.4"/>
	<ellipse class="st8" cx="85.4" cy="451.3" rx="2.8" ry="2.3"/>
	<path class="st7" d="M82.3,445.8l4.8-3.8l4.5,4.1l-3.1,2.6c0,0-1.5-1.7-4.7-0.9L82.3,445.8z"/>
	<path class="st16" d="M74.3,440.7l4.9,10.6l12.4,2.3c0,0,0.7,11.4-12.4,3.2l-3.7-1.7l0.2-2.6c0,0-5.7-0.1-7.4-2.9
		c0,0-3.7-7.2,0-8.9H74.3z"/>
</g>
<g id="ring_1_">
	<g>
		<path class="st17" d="M56.9,581.2l0.3,2h-0.2c-0.3-1.2-1.4-1.7-2.6-1.7c-0.2,0-0.4,0-0.6,0.1v3.4h0.4c1,0,1.6-0.4,1.6-1.2h0.2v2.7
			h-0.1c-0.1-0.6-0.3-1.3-1.6-1.3h-0.5v3.1c0,0.5,0.2,0.8,1,0.8v0.2h-3.3v-0.2c0.7,0,1-0.3,1-0.8v-6.1c0-0.5-0.3-0.8-1-0.8v-0.2
			H56.9L56.9,581.2z"/>
		<path class="st17" d="M63.6,581.2l0.3,2h-0.2c-0.3-1.2-1.4-1.7-2.6-1.7c-0.2,0-0.4,0-0.6,0.1v3.4H61c1,0,1.6-0.4,1.6-1.2h0.2v2.7
			h-0.1c-0.1-0.6-0.3-1.3-1.6-1.3h-0.5v3.1c0,0.5,0.2,0.8,1,0.8v0.2h-3.3v-0.2c0.7,0,1-0.3,1-0.8v-6.1c0-0.5-0.3-0.8-1-0.8v-0.2
			H63.6L63.6,581.2z"/>
		<path class="st17" d="M49.9,581.2v0.2c-0.6,0-0.9,0.3-0.9,0.8v6.1c0,0.6,0.4,0.8,0.9,0.8v0.2h-3.1v-0.2c0.6,0,0.9-0.3,0.9-0.8
			v-6.1c0-0.5-0.3-0.8-0.9-0.8v-0.2H49.9L49.9,581.2z"/>
		<path class="st17" d="M45.9,579l0.3,2.4h-0.1c-0.5-1.3-1.3-2.1-3-2.1v8.5c0,0.9,0.5,1.2,1.1,1.2v0.2h-3.7v-0.2
			c0.5,0,1.2-0.3,1.2-1.2v-8.5c-1.7,0-2.5,0.8-3.1,2.1h-0.1l0.3-2.4H45.9L45.9,579z"/>
		<path class="st17" d="M91.6,586.7c0,1.3,0.9,2.2,2.2,2.2c0.6,0,1.2-0.3,1.7-0.8l-2.6-3.3C92.2,584.9,91.6,585.6,91.6,586.7
			L91.6,586.7z M95.2,581.7c0-1-0.4-1.6-1.3-1.6c-0.9,0-1.4,0.5-1.4,1.4c0,1,1.3,2.3,1.3,2.3C94.8,583.2,95.2,582.6,95.2,581.7
			L95.2,581.7z M93.9,584l2.2,2.8c0,0,0.2-0.4,0.3-0.9c0-0.5-0.3-0.7-0.7-0.8V585h2.4c0,0,0,0.1,0,0.1c-0.4,0.1-0.8,0.2-1.1,0.5
			c-0.3,0.3-0.4,0.6-0.7,1.4l1,1.3c0.4,0.5,1,0.8,1.7,0.9v0.2h-2.6v-0.2l-0.7-0.9c-0.6,0.6-1.6,1.2-2.6,1.2c-1.6,0-2.6-0.9-2.6-2.1
			c0-1.3,1.3-2.2,2.3-2.9c0,0-1.1-1.2-1.1-2.3c0-1.3,1-2.2,2.3-2.2c1.2,0,2.1,0.9,2.1,1.9C96,582.9,94.6,583.5,93.9,584L93.9,584z"
			/>
		<path class="st17" d="M110.1,578.8l0.1,3.2H110c-0.3-1.8-1.5-2.9-3-2.9c-1.8,0-3.1,2.1-3.1,4.9c0,3.5,1.4,5,3.3,5
			c2,0,2.8-1.9,3-3.2h0.2v1.4c-0.3,0.6-1.3,2-3.5,2c-2.7,0-4.8-2.2-4.8-5.1c0-2.7,2.3-5.1,4.8-5.1c1.4,0,1.8,0.6,2.3,0.6
			c0.4,0,0.6-0.3,0.6-0.8H110.1L110.1,578.8z"/>
		<path class="st17" d="M119.9,587.8c0.4,0,0.7,0.3,0.7,0.7c0,0.4-0.3,0.7-0.7,0.7c-0.4,0-0.7-0.3-0.7-0.7
			C119.1,588.1,119.5,587.8,119.9,587.8L119.9,587.8z"/>
		<path class="st17" d="M112.6,585.1c0,2.5,1,4,2.5,4c1.6,0,2.5-1.4,2.5-4c0-2.4-0.9-3.7-2.5-3.8
			C113.4,581.3,112.6,582.9,112.6,585.1L112.6,585.1z M115,581.2c2.3,0,4.2,1.7,4.2,4.1c0,2.3-1.8,4-4.2,4c-2.3,0-4.2-1.8-4.2-4
			C110.9,583.1,112.7,581.2,115,581.2L115,581.2z"/>
		<path class="st17" d="M66.8,582.9l1.4,3.3h-2.7L66.8,582.9L66.8,582.9z M71.2,589.1c-0.3,0-0.5-0.3-0.7-0.4
			c-0.1-0.2-3.2-7.8-3.2-7.8l-2.9,7c-0.3,0.9-0.8,1.3-1.4,1.3v0.2h2.3v-0.2c-0.5,0-0.8-0.3-0.8-0.6c0-0.3,0.7-2,0.7-2h2.8
			c0,0,0.8,1.7,0.8,2c0,0.3-0.4,0.6-0.9,0.6v0.2h3.1V589.1L71.2,589.1z"/>
		<path class="st17" d="M72.5,587.9c0,0.7-0.5,1.1-1,1.2v0.2h2.3v-0.2c-0.7-0.1-1-0.6-1-1.2v-5.2l5.5,6.8v-6.5
			c0-0.9,0.5-1.5,1.1-1.5v-0.2h-2.6v0.1c0.7,0.2,1.3,0.7,1.3,1.5v4l-4.5-5.7h-2.2v0.1c0.9,0,1.2,0.8,1.2,1V587.9L72.5,587.9z"/>
		<path class="st17" d="M79.7,581.4c0.3,0,0.4,0,0.7,0.5c0,0,2.5,4,2.5,4v2.4c0,0.5-0.4,0.8-1.1,0.9v0.1h3.5v-0.1
			c-0.6,0-1-0.3-1-0.9v-2.8c0,0,1.6-2.9,1.7-3.1c0.4-0.6,0.9-1,1.5-1v-0.1h-2.8l0,0.1c0.9,0,1.1,0.9,0.8,1.4l-1.4,2.7l-1.8-3.1
			c-0.3-0.5,0.1-0.9,0.7-0.9v-0.1h-3.2V581.4L79.7,581.4z"/>
	</g>
</g>
<g id="Layer_7">
	<text transform="matrix(1 0 0 1 4.4635 40.8208)"><tspan x="0" y="0" class="st18 st19 st20">The </tspan><tspan x="56.4" y="0" class="st18 st21 st20">adventure</tspan><tspan x="7.7" y="35.3" class="st18 st19 st20">continues...</tspan></text>
</g>
</svg>
