<?xml version="1.0" encoding="utf-8"?>
<!-- Generator: Adobe Illustrator 19.1.0, SVG Export Plug-In . SVG Version: 6.00 Build 0)  -->
<svg version="1.1" xmlns="http://www.w3.org/2000/svg" xmlns:xlink="http://www.w3.org/1999/xlink" x="0px" y="0px"
	 viewBox="0 0 108 108" style="enable-background:new 0 0 108 108;" xml:space="preserve">
<style type="text/css">
	.st0{fill:none;stroke:#000000;stroke-width:2;stroke-miterlimit:10;}
	.st1{fill:none;stroke:#000000;stroke-miterlimit:10;}
	.st2{fill:none;stroke:#000000;stroke-width:0.5;stroke-miterlimit:10;}
	.st3{fill:none;stroke:#000000;stroke-width:0.35;stroke-miterlimit:10;}
	.st4{fill:none;stroke:#000000;stroke-width:0.45;stroke-miterlimit:10;}
</style>
<g id="NORTH">
</g>
<g id="BOUND">
</g>
<g id="notebooks">
</g>
<g id="_x31_.5_x22_">
	<path d="M37.4,29.4c0,0-1.6-3-4.9-4.8c-0.8-0.4-1.7-0.6-2.6-0.5l-1.6,0.2c-1.3,0.2-2.4,0.9-3.1,2c-0.8,1.3-1.5,3.3-1.2,6.3
		c0,0,0.3,3.5,1.9,6.3c1.4,2.4,4,3.6,6.7,3.2c1.9-0.3,4.1-1.2,5.3-3.8c0.1-0.1,0.2-0.3,0.2-0.5C38.5,36.9,39.5,33.1,37.4,29.4z
		 M35.6,37.7C35.6,37.7,35.6,37.7,35.6,37.7c-0.1,0.6-0.2,1.1-0.5,1.5c-1.6,3.1-3.6,2.5-4.9,1.5c-0.9-0.7-1.6-1.6-2.1-2.7
		c-2.5-5.5-1.8-9.3-1-11.2c0.5-1.3,1.8-2.1,3.1-1.9c0,0,0.1,0,0.1,0c0.2,0,0.9,0.5,1.1,0.7c0.5,0.6,0.8,0.9,1.4,1.8
		C34.9,30.1,36.1,34.3,35.6,37.7z"/>
	<path d="M96.1,32.7l1.1,0.7c0.2,0.1,0.3,0.4,0.1,0.6l-6.1,9.2l6,4l6.1-9.2c0.1-0.2,0.4-0.3,0.6-0.1l1.1,0.7
		c0.2,0.1,0.3,0.4,0.1,0.6l-9.6,14.5c-0.1,0.2-0.4,0.3-0.6,0.1l-1.2-0.8c-0.2-0.1-0.2-0.4-0.1-0.6l2.8-4.1l-5.9-4l-2.7,4.1
		c-0.1,0.2-0.5,0.3-0.7,0.1l-1-0.7c-0.2-0.1-0.3-0.4-0.1-0.6l9.6-14.5C95.6,32.6,95.9,32.5,96.1,32.7z"/>
	<path d="M70.5,22.7l16.4,6c0.3,0.1,0.4,0.4,0.3,0.6L87,30c-0.1,0.3-0.4,0.4-0.7,0.3l-6.9-2.5c-0.1,0-0.1,0-0.2,0.1L74,42.4
		c0,0.1-0.2,0.2-0.3,0.1l-2.2-0.8c-0.1,0-0.2-0.2-0.2-0.3l5.3-14.6c0-0.1,0-0.1-0.1-0.1l-6.8-2.5c-0.3-0.1-0.4-0.4-0.3-0.6l0.3-0.6
		C69.9,22.7,70.2,22.6,70.5,22.7z"/>
	<path d="M12.6,52.4L12,52.8c-0.2,0.1-0.5,0.1-0.7-0.2l-9-14.7c-0.1-0.2-0.1-0.5,0.2-0.7l1-0.6c0.3-0.2,0.6-0.2,0.9,0l12.5,6.8
		L10.5,33c-0.2-0.3-0.1-0.6,0.2-0.8l0.6-0.3c0.3-0.2,0.6-0.1,0.7,0.2l8.9,14.6c0.2,0.3,0.1,0.7-0.2,0.9L19.8,48
		c-0.3,0.2-0.6,0.2-0.9,0l-12.6-7l6.4,10.6C12.9,51.9,12.8,52.3,12.6,52.4z"/>
	<path d="M61.2,38.8c-0.7-0.5-0.9-4-0.8-4.8c0-0.1,0-0.1,0-0.2c-0.2-1.9-1.9-2.7-2.5-3c-0.1,0-0.1-0.2,0-0.2c1.6-0.7,2.4-2,2.8-3.2
		c0.4-1.4,0.3-3-0.6-4.2c-1.6-2.3-4.4-2.2-4.4-2.2l-8.3,0c-0.4,0-0.7,0.3-0.7,0.7l0.1,17.4c0,0.2,0.1,0.3,0.3,0.3l1.9,0
		c0.2,0,0.3-0.1,0.3-0.3l0-6.7c0-0.1,0.1-0.1,0.1-0.1l4.8,0c1.9,0,2.8,1.3,3.1,2.4c0.2,0.5,0.3,1,0.2,1.5c-0.1,1.2,0.3,2.5,0.4,3
		c0,0.1,0.2,0.2,0.3,0.2l2.7,0c0.2,0,0.3-0.1,0.3-0.3l0,0C61.4,38.9,61.3,38.9,61.2,38.8z M57.8,26.8c0.1,4-3.2,3.7-3.2,3.7l-4.5,0
		c-0.5,0-1-0.4-1-1l0-5.8c0-0.5,0.4-1,1-1l4.2,0c3.4-0.2,3.5,3.1,3.4,3.7C57.8,26.6,57.8,26.7,57.8,26.8z"/>
	<path d="M45.7,60.8c0,0-0.7-3.5-3.6-6.2c-0.7-0.7-1.6-1.1-2.6-1.2l-1.7-0.2c-1.4-0.2-2.7,0.3-3.8,1.2c-1.1,1.1-2.4,2.9-3,6
		c0,0-0.7,3.7,0.2,7c0.7,2.8,3.1,4.8,5.9,5.1c2,0.2,4.5,0,6.5-2.3c0.1-0.1,0.2-0.3,0.3-0.4C44.7,68.7,46.8,65.2,45.7,60.8z
		 M41.6,68.7C41.5,68.8,41.5,68.8,41.6,68.7c-0.2,0.6-0.5,1-0.9,1.4c-2.5,2.7-4.3,1.5-5.4,0.1c-0.7-0.9-1.2-2.1-1.4-3.3
		c-1-6.3,0.8-9.9,2.2-11.7c0.9-1.2,2.4-1.6,3.7-1.1c0,0,0.1,0,0.1,0c0.2,0.1,0.8,0.8,0.9,1c0.4,0.7,0.6,1.1,1,2.2
		C43,60.8,43,65.4,41.6,68.7z"/>
	<path d="M64.4,72.4l-0.7,0c-0.3,0-0.5-0.2-0.5-0.5V53.9c0-0.3,0.2-0.5,0.5-0.5l1.2,0c0.3,0,0.6,0.2,0.8,0.5l7.4,12.8V54
		c0-0.3,0.3-0.6,0.6-0.6l0.7,0c0.3,0,0.6,0.2,0.6,0.5v17.8c0,0.4-0.3,0.7-0.7,0.7l-1,0c-0.3,0-0.6-0.2-0.8-0.5l-7.4-13l0,12.8
		C65,72.1,64.7,72.4,64.4,72.4z"/>
	<path d="M26.8,62.3c2.4-1.1,2.4-3.5,2.3-4.3c0-0.2,0-0.3,0-0.5c-0.1-3.1-3.3-3.8-4.5-4c-0.2,0-0.5-0.1-0.7-0.1h-8.1
		c-0.5,0-0.9,0.4-0.9,0.9v17.2c0,0.5,0.4,0.9,0.9,0.9h8.5c0.7,0,1.5-0.1,2.2-0.4c2.8-1.2,3.4-4.3,3.4-4.3
		C30.4,63.4,26.8,62.3,26.8,62.3z M17.1,55.5c0-0.4,0.2-0.8,0.5-0.8h4.4c2.8,0.1,2.8,2.9,2.8,2.9c0.2,2.3-0.6,3.4-1.4,3.9
		c-0.4,0.3-0.9,0.4-1.4,0.4h-4.4c-0.3,0-0.5-0.3-0.5-0.8V55.5z M23.8,70.6c-0.5,0.3-1,0.5-1.5,0.5h-4.7c-0.3,0-0.5-0.3-0.5-0.7V64
		c0-0.4,0.2-0.7,0.5-0.7h4.7c2.7,0.1,2.9,2.4,2.9,3c0,0.1,0,0.2,0,0.3C25.4,68.9,24.5,70,23.8,70.6z"/>
	<path d="M48,53.2l1.4,0c0.4,0,0.7,0.3,0.7,0.6V66c0,0.8,0.2,1.5,0.6,2.2c0.6,0.9,1.7,1.9,3.6,1.8c0,0,3.7,0,4.1-2.7
		c0-0.2,0-0.3,0-0.5v-13c0-0.3,0.3-0.6,0.7-0.6h1.4c0.4,0,0.7,0.3,0.7,0.6v12.3c0,0,0.5,4.9-3.9,6.1c-0.1,0-0.7,0.2-0.8,0.2
		c-0.7,0-4.2,0.6-6.9-0.8c-1.8-0.9-2.5-1.9-2.5-6.4l0-11.4C47.3,53.5,47.6,53.2,48,53.2z"/>
	<path d="M90.6,58.8c-1.1-3.1-4-5.4-7.3-5.4c-0.1,0-0.1,0-0.2,0h-5.2c-0.7,0-1.2,0.6-1.2,1.2v16.4c0,0.7,0.5,1.2,1.2,1.2h4.5
		c0.2,0,0.3,0,0.5,0c1,0,5.6,0,7.2-4.8c0.1-0.2,0.2-0.5,0.3-0.7C90.8,65.8,91.9,62.5,90.6,58.8z M86.8,66.3c0,0.1-0.1,0.2-0.1,0.3
		c-0.8,4.3-3.2,4.3-3.7,4.3c-0.1,0-0.2,0-0.2,0h-3.1c-0.3,0-0.6-0.3-0.6-0.6V55.4c0-0.3,0.3-0.6,0.6-0.6h3.5c0.6,0,1.2,0.2,1.6,0.5
		c0.7,0.4,1.2,1,1.5,1.8C88,61.1,87,65.5,86.8,66.3z"/>
	<path class="st2" d="M37.8,88c0,0,1.2-5.5-3.6-3.4v-0.8V88"/>
	<ellipse class="st2" cx="53.8" cy="86.1" rx="1.8" ry="1.8"/>
	<ellipse class="st2" cx="58.3" cy="86.1" rx="1.8" ry="1.7"/>
	<ellipse class="st2" cx="40.8" cy="86.1" rx="1.8" ry="1.7"/>
	<ellipse class="st2" cx="63.1" cy="86.1" rx="1.8" ry="1.7"/>
	<path class="st2" d="M43.8,81.4V86c0,0.8,0.5,1.5,1.3,1.8c0.6,0.2,1.4,0,2.2-1.1"/>
	<path class="st2" d="M43.8,84.6c0,0,1.5,0.8,2.3-0.3"/>
	<path class="st2" d="M47.9,85.9c0,0,1.5,0.1,2.2-0.1c0.3-0.1,0-0.8-0.1-1c-0.3-0.5-1.1-0.7-1.7,0c-0.3,0.4-0.5,0.9-0.4,1.4
		c0.1,1,0.6,2.7,3.1,1.1"/>
	<path class="st2" d="M51.9,81.3V88V81.3z"/>
	<line class="st2" x1="66.2" y1="81.3" x2="66.2" y2="88.1"/>
	<path class="st2" d="M68.7,81.4l-1.8,2.5c-0.1,0.2-0.3,0.4-0.4,0.5c-0.2,0.2-0.1,0.3,0.3,0.1c1-0.3,3.3-1.6,3.2,3.4"/>
	<path class="st2" d="M73.6,84.6c0,0-1.7-1.4-2.2,0.3c0,0-0.3,1.2,1.4,1c0.2,0,0.5,0,0.6,0.2c0.3,0.3,0.5,1.1-0.1,1.5
		c-0.2,0.2-0.5,0.2-0.8,0.2c-0.4-0.1-1.1-0.3-1.2-1"/>
	<line class="st3" x1="76" y1="85.9" x2="80.7" y2="85.9"/>
	<line class="st3" x1="27" y1="85.9" x2="31.6" y2="85.9"/>
</g>
<g id="_x32__x22_">
</g>
</svg>
