<svg xmlns="http://www.w3.org/2000/svg" viewBox="-359 1 792 612" enable-background="new -359 1 792 612"><style type="text/css">.st0{fill:#A2DBDF;} .st1{fill:#482811;} .st2{fill:#7D9139;} .st3{fill:#166131;} .st4{fill:#EE234D;} .st5{fill:#ACD13C;} .st6{fill:#464C5E;} .st7{fill:#404655;} .st8{fill:none;stroke:#464C5E;stroke-miterlimit:10;} .st9{fill:#010101;} .st10{fill:#FAB498;} .st11{fill:#CCC19C;} .st12{fill:#482A15;} .st13{fill:#3F4655;} .st14{fill:#A97D51;} .st15{fill:#E3C821;} .st16{fill:#FFFFFF;} .st17{fill:#4BC2C1;} .st18{fill:#2B2A2B;} .st19{font-family:&apos;Baskerville&apos;;} .st20{font-size:48.2731px;} .st21{font-family:&apos;Baskerville-Italic&apos;;} .st22{font-size:22.334px;}</style><path class="st0" d="M-359 1h792v612.7h-792z" id="sky"/><g id="tree_x26_bush"><path class="st1" d="M304.7 519h23.7v73.5h-23.7z"/><path class="st2" d="M322.2 522.4c22.9 7.1 97.6 24.4 81.8-61.1-.5-2.2-1.2-4.4-2.5-6.4-3-4.9-7.9-16.5 2.2-27.1 2.5-2.5 3.9-5.4 4.9-8.9 3.9-12.3 7.1-38.5-28.8-52.8-4.4-1.7-8.4-4.9-10.8-9.1-12.1-20.7-53-78.6-97.9-6.7-2.5 3.9-5.9 6.9-10.1 8.6-15.3 5.9-50.5 25.1-27.9 65.8 3 5.2 3.7 11.1 2.2 16.8-7.9 28.3-24.7 113.4 73.2 81.1 4.8-1.7 9.5-1.4 13.7-.2z"/><path class="st3" d="M221.3 596.6c8.4 2.2 36 7.4 30.3-18.2-.2-.7-.5-1.2-1-2-1-1.5-3-4.9.7-8.1 1-.7 1.5-1.7 1.7-2.7 1.5-3.7 2.7-11.6-10.6-15.8-1.7-.5-3.2-1.5-3.9-2.7-4.4-6.2-19.5-23.7-36.2-2-1 1.2-2.2 2-3.7 2.5-5.7 1.7-18.7 7.4-10.4 19.7 1 1.5 1.5 3.2.7 4.9-3 8.4-9.1 34 27.1 24.2 1.9-.3 3.6-.3 5.3.2z"/><circle class="st4" cx="204.8" cy="554.2" r="2.5"/><circle class="st4" cx="216.4" cy="581.3" r="2.5"/><circle class="st4" cx="233.2" cy="554.2" r="2.5"/><circle class="st4" cx="241.6" cy="576.7" r="2"/><circle class="st4" cx="217.9" cy="564.6" r="2"/><circle class="st4" cx="196.2" cy="580.8" r="2"/></g><path class="st5" d="M-358.6 582.7c27.7-8 56.4-2.3 84.6 1.8 68.1 10.1 136.8 11.4 205.1 3.7 36.3-4.1 72.6-10.7 109-10.5 38.8.2 77.2 8.2 116 12.8 92.1 10.7 184.8 1.8 276.9-9.1v32h-792.5l.9-30.7z" id="grass"/><g id="bench"><path class="st6" d="M360.6 537.7h71.7v9.6h-71.7zM360.6 548.5h71.7v9.6h-71.7zM357.1 569.7l74.9.3v8.1h-81.1v-2.2l6.2-6.2"/><path class="st6" d="M376 537.7h4.2v32.3h-4.2zM367.6 577.6s2.7.5 1.5 8.1c0 0 .5 11.1.7 14.1l.5 3.7h2.7l1-.7-.2-3.2s-1.2-12.6 2.7-17c0 0 2.7 1.2 4.2 8.1h2.5s1.2.2-2-12.8h-13.7v-.3z"/></g><g id="Eiffel_Tower"><path class="st7" d="M-285.8 593.3l33-79 91.4-.2 34 79h-18.3s-24.2-46.9-39.6-56.2c0 0-26.6-21.8-46.7 4.2-.5.7-1.2 1.5-2 2.2-3.7 4.2-18.6 21.3-32.3 49.9h-19.6v.1z"/><path class="st8" d="M-206.6 85.6v22"/><path class="st6" d="M-211.2 107.1h9.5v13.7h-9.5zM-213.9 119.8h14.9v32.3h-14.9z"/><path class="st8" d="M-213.9 152.1s-8.1 178-24.4 212.2M-199 152.1s11.2 177.2 25.4 212.2"/><path class="st6" d="M-243.5 364.3h73.3v24.7h-73.3zM-223.4 245.7h35.4v9.8h-35.4z"/><path class="st8" d="M-213.9 364.3c.7-1.7 7.6-108.5 7.6-108.5s6.6 108.5 7.6 108.5M-243.5 388.9s-21.5 92.4-28.8 94.6M-170.4 388.9s21 91.9 28.6 94.1"/><path class="st6" d="M-276.2 483.1l-18.1 33.2 172.3-.2-12.7-33.3-141.8.5"/><path class="st8" d="M-218.5 388.9s-15.6 87-22.7 94.1M-196.8 389.2s15.6 87 22.7 94.1M-285.8 516.1s-36.9 75.8-46.4 77M-125.1 515.8s36.9 76 46.4 77.5M-317.1 574.7l31.3 18.6M-332 593.3h46.2M-127.3 593.3h48.6M-328.1 593.3l47.2-12.2M-280.6 581.6l-24-28.9M-317.1 574.5l46-15.4M-271.1 559.1l-22.2-27.6M-304.6 552.7l42.3-14.4M-262.3 538.3l-23.5-22M-293.3 531.5l40.1-14.9M-94.6 573l-32.7 20.3M-81.1 593.3l-51.9-12.7M-133 580.6l25.9-29.3M-94.6 573l-47.7-13.9M-142.3 559.1l24.5-28.4M-107.1 551.3l-44.7-13.5M-151.8 537.8l26.4-21.5M-117.8 530.7l-43-14.4M-271.8 482.8l37.9-20.8M-241.3 482.8l-20-25.9M-261.3 456.9l31-9.8M-233.9 462l-22.5-22.5M-256.4 439.5l29.8-10M-230.3 447.1l-21.5-24.7M-251.8 422.4l29.4-12.7M-226.8 429.3l-20.8-23M-247.6 406.3l28.6-17.1M-222.4 409.7l-20.8-20.5M-142.7 482.1l-38.7-19.6M-174 482.6l21.2-25.2M-152.8 457.4l-32.2-10.3M-181.4 462.5l23.7-22.5M-157.7 440l-30.8-8.8M-185 447.1l22.7-24.2M-162.3 422.9l-30.6-12.7M-188.5 431.2l22.3-24.4M-166.2 406.8l-30.1-17.4M-192.9 410.2l22-21M-213.9 364.3l-18.1-22.1M-238.3 364.3l26.1-24M-212.9 340.3l-15.9-15.9M-232 342.2l21-17.8M-211 324.4l-15.1-15.4M-228.8 324.4l18.8-16.6M-210 307.8l-14.9-12.7M-226.1 309l17.1-13.9M-209 295.1l-14.4-11.8M-224.9 295.1l16.6-11M-208.3 284.1l-13.9-15.7M-223.4 283.3l16.1-14.9M-207.3 268.4l-13.7-12.9M-222.2 268.4l15.6-12.9M-198.2 364.3l18.5-22.1M-174 364.3l-27.2-24M-201.2 340.3l18.4-15.9M-179.7 342.2l-22.5-17.8M-202.2 324.4l17.6-15.4M-182.8 324.4l-20.3-15.4M-203.1 308.5l16.8-13.4M-184.8 308.5l-19.3-12.7M-204.1 295.8l16.4-12.5M-186.3 295.1l-18.5-11.3M-204.1 283.8l14.7-15.4M-187.7 283.3l-18.1-14.9M-205.3 268.4l14.6-12.9M-189.4 268.4l-17.2-12.9M-220 245l26.6-18.6M-191.6 245l-26.9-20.1M-218.5 224.9l23.7-13.7M-193.4 226.4l-23.9-17.9M-217.3 208.5l21.3-13.2M-194.8 211.2l-21.5-15.9M-216.3 195.3l19.3-12.9M-196 195.3l-19.6-14.6M-215.6 180.7l17.8-10.1M-197 182.4l-17.9-11.8M-214.9 170.6l15.9-18.5M-197.8 170.6l-16.1-18.5"/></g><g id="couple"><path class="st9" d="M250.5 567.2l3.7 32.5s2 2.7 3.2-1.1l5.5-29.9-12.4-1.5zM264 569l3.7 32.5s2 2.7 3.2-1.1l4.3-34.1-11.2 2.7z"/><ellipse transform="matrix(.083 -.997 .997 .083 -321.292 607.929)" class="st10" cx="169.6" cy="478.5" rx="21.9" ry="24.5"/><ellipse transform="matrix(.129 -.992 .992 .129 -248.274 685.683)" class="st10" cx="266.3" cy="484.2" rx="22.6" ry="25.3"/><path class="st11" d="M153.2 498.6c-3.4 2.7-8.2 8 2.5 12.4.5.2 1.1.4 1.4.5 3 .7 14 2.7 23.5.2 1.6-.4 2.8-1.4 3.6-2.7 1.6-2.5 3-6.8-2.8-9.8l-.7-.4c-2.3-.9-13-4.3-22.6-2.5-2 .5-3.6 1.2-4.9 2.3z"/><path class="st6" d="M155.7 510.9s-21.5 45-6 47c0 0 43 9.8 37.5-9.6l-6.6-37c0-.3-9.1 4.5-24.9-.4z"/><path class="st12" d="M158 486.5c.9 1.4 2 2.8 2.5 4.4.5 1.6.4 3.7-.9 4.8-1.2 1.2-3.2 1.1-5 .9-3.7-.5-7.8-1.6-10.5-4.4-3.2-3.2-4.1-8.2-4.4-12.8-.7-9.1 0-19 5.3-26.3-.9 2.8-1.4 5.9-1.4 8.9 2.5-.2 4.6-1.8 6.9-3 7.8-4.8 16.9-7.6 26-7.5 9.1.2 18.5 1.2 25.1 7.5-4.4-1.2-9.4.7-14 1.1 4.4.4 9.8-.2 13.7 2.1-7.6.9-10.3 6-15.1 8-2.7 1.1-5.5 2.3-8.4 2.7-2.7.4-5.5.2-8.2 0-3.7-.2-7.5 0-11.2.5-.9.2-1.8.4-2.3.9-.7.7-.9 2-.9 2.8.2 3.5 1.2 6.7 2.8 9.4z"/><path class="st9" d="M149.7 557.8s11 20.8-8.9 28.3c0 0-9.6 1.6-16.9.4 0 0-1.8 3.2 4.3 4.8 0 0 23.5 9.1 36.5-6.8 0 0 6.2-4.3 6.2-14.2 0 0 15.5-3.7 29.3 20.5l4.3-1.4s3.7-12.8-21.2-31.3c.2-.1-5.7 5.2-33.6-.3zM119.3 602.1c2.3.2 4.4-1.4 5.5-3.4 1.2-2 1.6-4.3 2-6.6.2-.7.2-1.4 0-2-.2-.5-.9-1.1-1.2-1.4-.7-.7-1.2-1.4-1.4-2.3-1.4 3-3 5.7-5.2 8.4-.9 1.1-1.6 2.1-2.1 3.4-.4 1.2-.2 2.8.9 3.6.2.1.9.3 1.5.3zM199.8 594.3c.7.7 1.6.7 2.5.9l4.6.7c1.6.2 3.2.5 4.6 0 .9-.2 1.8-.7 2-1.6.4-.7 0-1.8-.5-2.3-.5-.7-1.2-1.1-2-1.4-2-.9-4.1-1.4-6.4-1.6-.5 0-1.2 0-1.8.2-1.9.3-3.3 2.8-3 5.1z"/><path class="st13" d="M158.6 523.1c22.9 18.5 44.3 3.7 44.3 3.7-25.1 35-51.9 6.9-51.9 6.9l-3.2-3 4.3-11.6 6.5 4z"/><path class="st6" d="M180.6 511s27.6 6.6 34.9-4.6c0 0-3.7 18.7-31.8 21.7l-3.1-17.1z"/><path class="st11" d="M176 513.7c7.8 2.5 11 12.4 18.7 15.1 2-3.2 3.6-6.4 5.2-10-2.5.7-5-.2-7.1-1.6-2.1-1.4-3.7-3.2-5.7-4.8-4.3-3.6-9.6-5.9-15.3-6.4-2.3-.4-6-.7-8.4.2-3.2 1.4-.9 2.5.4 5 4.4 7.8 5 18.3 12.1 24.4.4.4.7.5 1.1.7.4 0 .7 0 1.1-.2l5.7-1.4c-3.9-4.4-6.4-10-7.3-15.7-.2-1.2-.4-2.3-.5-3.4-.9-3-3.4-5.3-6-6.6s-5.7-1.8-8.5-1.8l14.5 6.5z"/><path class="st14" d="M255.5 510s-24.5 49.8-7.3 56.6c0 0 11.9 3.9 22.4 2.3 8.4-1.2 14.4-8.9 14-17.4-.4-10.3-2-30.1-8-38.6l-21.1-2.9zM245.9 537.9s-22.6-21.9-2.5-52.6c0 0-7.8 15.3 5.2 40.9l-2.7 11.7z"/><path class="st6" d="M280 507.5c2.8 3.4 6.6 9.8-5.2 11.9-.5.2-1.1.2-1.6.2-3.2 0-14.8-.4-23.7-5-1.4-.7-2.7-2-3-3.4-1.1-2.8-1.6-7.5 5-9.1l.9-.2c2.5-.4 14-1.6 23.3 2.3 1.7 1 3.1 2 4.3 3.3zM253.9 517.8c-8.4.7-13.7 10.1-22.1 11-1.2-3.6-2.3-7.3-3-11 2.3 1.2 5.2.9 7.5-.2s4.4-2.5 6.8-3.6c5.2-2.7 11-3.7 16.7-3.2 2.5.2 6.2.5 8.4 2 2.8 2 .4 2.8-1.6 5-6.2 6.9-8.9 17.3-17.4 21.9-.4.2-.9.4-1.2.4s-.7-.2-1.1-.4c-1.8-.9-3.6-1.8-5.5-2.7 4.8-3.6 8.5-8.5 10.7-14.2.4-1.1.7-2.3 1.4-3.4 1.6-2.8 4.4-4.6 7.6-5.3 3-.7 6-.5 9.1 0l-16.3 3.7z"/><path class="st12" d="M292.1 490.6c.2-3.2.2-6.4-.2-9.4-.2-2.1-.5-4.3-1.4-6-2.8-6-10-8.5-16.4-10.5-5.7-1.6-11.6-3.2-17.6-3s-12.1 2.1-16.2 6.6c-.9 1.1-1.8 2.3-2 3.6-.4 3 2.3 5.5 5.2 6.6 5.2 1.8 10.7.5 16-.2 5.3-.7 10.8-.7 15.7 1.6 4.8 2.3 8.4 7.6 7.3 12.8-.2 1.2-.7 2.7.4 3.6.4.4.9.4 1.4.5 2.5.4 5.3 0 6.8-2.1.8-1.4 1-2.7 1-4.1z"/><ellipse transform="matrix(.129 -.992 .992 .129 -215.942 671.989)" class="st12" cx="274.7" cy="459" rx="10.8" ry="16.7"/><path class="st14" d="M282.7 539.8s22.1-20.1 4.1-52.3c0 0 6.8 15.8-8 40.4l3.9 11.9z"/><path class="st11" d="M259 461.6c.2-.4.7-.5 1.2-.5 2.8-.4 5.9.7 8.5 1.8 2.3.9 4.6 1.6 6.9 2.1 2.3.5 4.8.7 6.9 1.6 1.2.5 2.3 1.8 1.4 2.3-.7.5-1.8.4-2.7 0-5.7-1.4-11.6-2.8-17.3-4.3-1.8-.5-3.9-1.1-4.8-2.3-.1-.2-.2-.5-.1-.7z"/><ellipse transform="matrix(.083 -.997 .997 .083 -300.89 679.536)" class="st15" cx="218.7" cy="503.2" rx="4.1" ry="5"/><ellipse transform="matrix(.083 -.997 .997 .083 -301.247 679.865)" class="st0" cx="218.7" cy="503.6" rx="2.7" ry="3.4"/><path class="st16" d="M215.5 497l6-3.9 4.8 5.3-3.9 2.7s-1.6-2.1-5.5-1.4l-1.4-2.7z"/><path class="st17" d="M206.6 490.1l4.8 13 14.4 3.9s-.2 13.5-14.9 2.5l-4.3-2.3.5-3s-6.8-.7-8.5-4.1c0 0-3.6-8.7.9-10.5l7.1.5z"/></g><path d="M1.7 596.8l.5 2.7h-.2c-.4-1.6-2-2.3-3.6-2.3-.2 0-.5 0-.9.2v4.6h.5c1.2 0 2.1-.5 2.1-1.6h.2v3.7c-.2-.9-.4-1.8-2.1-1.8h-.7v4.3c0 .7.4 1.1 1.4 1.1v.2h-4.4v-.2c1.1 0 1.4-.4 1.4-1.1v-8.4c0-.7-.4-1.1-1.4-1.1v-.1h7.3v-.2zM10.9 596.8l.5 2.7h-.2c-.4-1.6-2-2.3-3.6-2.3-.2 0-.5 0-.9.2v4.6h.5c1.2 0 2.1-.5 2.1-1.6h.2v3.7c-.2-.9-.4-1.8-2.1-1.8h-.7v4.3c0 .7.4 1.1 1.4 1.1v.2h-4.6v-.2c1.1 0 1.4-.4 1.4-1.1v-8.4c0-.7-.4-1.1-1.4-1.1v-.1h7.5v-.2zM-7.9 596.8v.2c-.7 0-1.2.4-1.2 1.1v8.4c0 .7.5 1.1 1.2 1.1v.2h-4.3v-.2c.7 0 1.2-.4 1.2-1.1v-8.5c0-.7-.5-1.1-1.2-1.1v-.2h4.3v.1zM-13.4 593.8l.5 3.4h-.2c-.7-1.8-1.8-2.8-4.1-2.8v11.6c0 1.2.7 1.6 1.4 1.6v.2h-5.2v-.2c.7 0 1.6-.4 1.6-1.6v-11.7c-2.3 0-3.4 1.1-4.3 2.8h-.2l.4-3.4h10.1v.1zM49.3 604.3c0 1.8 1.2 3 3 3 .7 0 1.6-.4 2.3-1.1l-3.6-4.6c-.8.3-1.7 1.2-1.7 2.7zm4.8-6.8c0-1.4-.5-2.1-1.8-2.1s-2 .7-2 2c0 1.2 1.8 3.2 1.8 3.2 1.5-1.1 2-1.9 2-3.1zm-1.6 3.2l3 3.7s.4-.5.4-1.2-.4-.9-.9-1.1v-.2h3.4v.2c-.5.2-1.1.4-1.6.7-.4.5-.5.9-.9 2l1.4 1.8c.5.7 1.4 1.1 2.3 1.2v.2h-3.6v-.2l-1.1-1.2c-.9.9-2.3 1.6-3.6 1.6-2.1 0-3.6-1.2-3.6-2.8 0-1.8 1.8-3 3-3.9 0 0-1.4-1.6-1.4-3.2 0-1.8 1.2-3 3.2-3 1.6 0 2.8 1.2 2.8 2.7.1 1.1-1.9 1.8-2.8 2.7zM74.8 593.6l.2 4.4h-.2c-.5-2.5-2.1-3.9-4.3-3.9-2.5 0-4.3 2.8-4.3 6.8 0 4.8 2 6.8 4.6 6.8s3.7-2.5 4.1-4.4h.2v2c-.5.9-1.8 2.7-4.8 2.7-3.7 0-6.6-3-6.6-7.1 0-3.7 3.2-7.1 6.6-7.1 2 0 2.5.9 3.2.9.5 0 .9-.4.9-1.1h.4zM88.1 605.9c.5 0 1.1.5 1.1 1.1 0 .5-.5.9-1.1.9-.5 0-1.1-.4-1.1-.9 0-.8.6-1.1 1.1-1.1zM78 602.1c0 3.4 1.2 5.5 3.4 5.5 2.1 0 3.4-2 3.4-5.5 0-3.2-1.2-5.2-3.4-5.2-2.2.1-3.4 2.2-3.4 5.2zm3.3-5.3c3.2 0 5.9 2.3 5.9 5.7 0 3-2.5 5.5-5.7 5.5s-5.9-2.5-5.9-5.5c.1-3.2 2.7-5.7 5.7-5.7zM15.2 599.1l2 4.6h-3.7l1.7-4.6zm6.2 8.5c-.4 0-.7-.4-.9-.5-.2-.2-4.4-10.7-4.4-10.7l-3.9 9.6c-.5 1.2-1.1 1.8-2 1.8v.2h3.2v-.2c-.7 0-1.1-.4-1.1-.9 0-.4 1.1-2.8 1.1-2.8h3.9s1.1 2.3 1.1 2.8c0 .4-.5.9-1.2.9v.2h4.3v-.4h-.1zM23.2 605.9c0 1.1-.7 1.4-1.4 1.6v.2h3.2v-.2c-.9-.2-1.4-.9-1.4-1.6v-7.1l7.4 9.2v-8.9c0-1.2.7-2 1.6-2v-.1h-3.6v.2c1.1.4 1.8.9 1.8 2.1v5.5l-6.2-7.8h-3v.2c1.2 0 1.6 1.1 1.6 1.4v7.3zM33 597.1c.5 0 .5 0 .9.7l3.4 5.5v3.2c0 .7-.5 1.1-1.6 1.2v.2h4.8v-.2c-.9 0-1.4-.5-1.4-1.2v-3.9s2.1-3.9 2.3-4.3c.5-.9 1.2-1.2 2.1-1.4v-.2h-3.9v.2c1.2 0 1.6 1.2 1.1 2l-2 3.7-2.5-4.3c-.4-.7.2-1.2 1.1-1.2v-.1h-4.4v.2h.1z"/><text transform="translate(-117.667 144.263)" class="st18 st19 st20">The</text><text transform="translate(-25.187 144.263)" class="st18 st21 st20">adventure</text><text transform="translate(140.209 144.263)" class="st18 st19 st20">continues...</text><text transform="translate(60.511 185.684)" class="st18 st19 st22">after the</text><text transform="translate(140.72 185.684)" class="st18 st21 st22">dance</text><text transform="translate(78.295 212.538)" class="st18 st19 st22">after</text><text transform="translate(124.892 212.538)" class="st18 st21 st22">today</text><text transform="translate(63.001 239.215)" class="st18 st19 st22">after</text><text transform="translate(109.419 239.215)" class="st18 st21 st22">tomorrow</text></svg>