<?xml version="1.0" encoding="utf-8"?>
<!-- Generator: Adobe Illustrator 19.1.0, SVG Export Plug-In . SVG Version: 6.00 Build 0)  -->
<svg version="1.1" xmlns="http://www.w3.org/2000/svg" xmlns:xlink="http://www.w3.org/1999/xlink" x="0px" y="0px"
	 viewBox="0 0 432 216" style="enable-background:new 0 0 432 216;" xml:space="preserve">
<style type="text/css">
	.st0{fill:#A2DBDF;}
	.st1{fill:#482811;}
	.st2{fill:#7D9139;}
	.st3{fill:#166131;}
	.st4{fill:#EE234D;}
	.st5{fill:#ACD13C;}
	.st6{fill:#464C5E;}
	.st7{fill:#404655;}
	.st8{fill:none;stroke:#464C5E;stroke-miterlimit:10;}
	.st9{fill:#010101;}
	.st10{fill:#FAB498;}
	.st11{fill:#CCC19C;}
	.st12{fill:#482A15;}
	.st13{fill:#3F4655;}
	.st14{fill:#A97D51;}
	.st15{fill:#E3C821;}
	.st16{fill:#FFFFFF;}
	.st17{fill:#4BC2C1;}
	.st18{fill-rule:evenodd;clip-rule:evenodd;}
	.st19{fill:#2B2A2B;}
	.st20{font-family:'Baskerville';}
	.st21{font-size:27.1433px;}
	.st22{font-family:'Baskerville-Italic';}
	.st23{font-size:12.5581px;}
</style>
<g id="sky">
	<rect x="-4.8" y="-4.4" class="st0" width="444.3" height="218.6"/>
</g>
<g id="tree_x26_bush">
	<rect x="384.5" y="179.1" class="st1" width="9.6" height="29.8"/>
	<path class="st2" d="M391.6,180.5c9.3,2.9,39.6,9.9,33.2-24.8c-0.2-0.9-0.5-1.8-1-2.6c-1.2-2-3.2-6.7,0.9-11c1-1,1.6-2.2,2-3.6
		c1.6-5,2.9-15.6-11.7-21.4c-1.8-0.7-3.4-2-4.4-3.7c-4.9-8.4-21.5-31.9-39.7-2.7c-1,1.6-2.4,2.8-4.1,3.5
		c-6.2,2.4-20.5,10.2-11.3,26.7c1.2,2.1,1.5,4.5,0.9,6.8c-3.2,11.5-10,46,29.7,32.9C388,179.9,389.9,180,391.6,180.5z"/>
	<path class="st3" d="M350.7,210.6c3.4,0.9,14.6,3,12.3-7.4c-0.1-0.3-0.2-0.5-0.4-0.8c-0.4-0.6-1.2-2,0.3-3.3
		c0.4-0.3,0.6-0.7,0.7-1.1c0.6-1.5,1.1-4.7-4.3-6.4c-0.7-0.2-1.3-0.6-1.6-1.1c-1.8-2.5-7.9-9.6-14.7-0.8c-0.4,0.5-0.9,0.8-1.5,1
		c-2.3,0.7-7.6,3-4.2,8c0.4,0.6,0.6,1.3,0.3,2c-1.2,3.4-3.7,13.8,11,9.8C349.3,210.4,350,210.4,350.7,210.6z"/>
	<circle class="st4" cx="344" cy="193.4" r="1"/>
	<circle class="st4" cx="348.7" cy="204.4" r="1"/>
	<circle class="st4" cx="355.5" cy="193.4" r="1"/>
	<circle class="st4" cx="358.9" cy="202.5" r="0.8"/>
	<circle class="st4" cx="349.3" cy="197.6" r="0.8"/>
	<circle class="st4" cx="340.5" cy="204.2" r="0.8"/>
</g>
<g id="grass">
	<path class="st5" d="M-4.6,203.7c15.4-4.5,31.4-1.3,47.1,1c37.9,5.7,76.2,6.4,114.2,2.1c20.2-2.3,40.4-6,60.7-5.9
		c21.6,0.1,43,4.6,64.6,7.2c51.3,6,102.9,1,154.2-5.1l0,18H-5.1L-4.6,203.7z"/>
</g>
<g id="bench">
	<g>
		<rect x="403.2" y="186.7" class="st6" width="28.8" height="3.9"/>
		<rect x="403.2" y="191.1" class="st6" width="28.8" height="3.9"/>
		<polyline class="st6" points="401.8,199.7 431.9,199.8 431.9,202.4 431.9,203.1 431.9,203.1 399.3,203.1 399.3,202.2 401.8,199.7 
					"/>
		<rect x="409.4" y="186.7" class="st6" width="1.7" height="13.1"/>
		<path class="st6" d="M406,202.9c0,0,1.1,0.2,0.6,3.3c0,0,0.2,4.5,0.3,5.7l0.2,1.5h1.1l0.4-0.3l-0.1-1.3c0,0-0.5-5.1,1.1-6.9
			c0,0,1.1,0.5,1.7,3.3h1c0,0,0.5,0.1-0.8-5.2H406z"/>
	</g>
</g>
<g id="Eiffel_Tower">
	<g>
		<path class="st7" d="M38.8,209.6l13.5-32.3l37.4-0.1l13.9,32.3h-7.5c0,0-9.9-19.2-16.2-23c0,0-10.9-8.9-19.1,1.7
			c-0.2,0.3-0.5,0.6-0.8,0.9c-1.5,1.7-7.6,8.7-13.2,20.4H38.8z"/>
		<line class="st8" x1="71.2" y1="1.9" x2="71.2" y2="10.9"/>
		<rect x="69.3" y="10.7" class="st6" width="3.9" height="5.6"/>
		<rect x="68.2" y="15.9" class="st6" width="6.1" height="13.2"/>
		<path class="st8" d="M68.2,29.1c0,0-3.3,72.8-10,86.8"/>
		<path class="st8" d="M74.3,29.1c0,0,4.6,72.5,10.4,86.8"/>
		<rect x="56.1" y="115.9" class="st6" width="30" height="10.1"/>
		<rect x="64.3" y="67.4" class="st6" width="14.5" height="4"/>
		<path class="st8" d="M68.2,115.9c0.3-0.7,3.1-44.4,3.1-44.4s2.7,44.4,3.1,44.4"/>
		<path class="st8" d="M56.1,126c0,0-8.8,37.8-11.8,38.7"/>
		<path class="st8" d="M86,126c0,0,8.6,37.6,11.7,38.5"/>
		<polyline class="st6" points="42.7,164.5 35.3,178.1 105.8,178 100.6,164.4 42.6,164.6 		"/>
		<path class="st8" d="M66.3,126c0,0-6.4,35.6-9.3,38.5"/>
		<path class="st8" d="M75.2,126.1c0,0,6.4,35.6,9.3,38.5"/>
		<path class="st8" d="M38.8,178c0,0-15.1,31-19,31.5"/>
		<path class="st8" d="M104.5,177.9c0,0,15.1,31.1,19,31.7"/>
		<line class="st8" x1="26" y1="202" x2="38.8" y2="209.6"/>
		<line class="st8" x1="19.9" y1="209.6" x2="38.8" y2="209.6"/>
		<line class="st8" x1="103.6" y1="209.6" x2="123.5" y2="209.6"/>
		<line class="st8" x1="21.5" y1="209.6" x2="40.8" y2="204.6"/>
		<line class="st8" x1="40.9" y1="204.8" x2="31.1" y2="193"/>
		<line class="st8" x1="26" y1="201.9" x2="44.8" y2="195.6"/>
		<line class="st8" x1="44.8" y1="195.6" x2="35.7" y2="184.3"/>
		<line class="st8" x1="31.1" y1="193" x2="48.4" y2="187.1"/>
		<line class="st8" x1="48.4" y1="187.1" x2="38.8" y2="178.1"/>
		<line class="st8" x1="35.7" y1="184.3" x2="52.1" y2="178.2"/>
		<line class="st8" x1="117" y1="201.3" x2="103.6" y2="209.6"/>
		<line class="st8" x1="122.5" y1="209.6" x2="101.3" y2="204.4"/>
		<line class="st8" x1="101.3" y1="204.4" x2="111.9" y2="192.4"/>
		<line class="st8" x1="117" y1="201.3" x2="97.5" y2="195.6"/>
		<line class="st8" x1="97.5" y1="195.6" x2="107.5" y2="184"/>
		<line class="st8" x1="111.9" y1="192.4" x2="93.6" y2="186.9"/>
		<line class="st8" x1="93.6" y1="186.9" x2="104.4" y2="178.1"/>
		<line class="st8" x1="107.5" y1="184" x2="89.9" y2="178.1"/>
		<line class="st8" x1="44.5" y1="164.4" x2="60" y2="155.9"/>
		<line class="st8" x1="57" y1="164.4" x2="48.8" y2="153.8"/>
		<line class="st8" x1="48.8" y1="153.8" x2="61.5" y2="149.8"/>
		<line class="st8" x1="60" y1="155.9" x2="50.8" y2="146.7"/>
		<line class="st8" x1="50.8" y1="146.7" x2="63" y2="142.6"/>
		<line class="st8" x1="61.5" y1="149.8" x2="52.7" y2="139.7"/>
		<line class="st8" x1="52.7" y1="139.7" x2="64.7" y2="134.5"/>
		<line class="st8" x1="62.9" y1="142.5" x2="54.4" y2="133.1"/>
		<line class="st8" x1="54.4" y1="133.1" x2="66.1" y2="126.1"/>
		<line class="st8" x1="64.7" y1="134.5" x2="56.2" y2="126.1"/>
		<line class="st8" x1="97.3" y1="164.1" x2="81.5" y2="156.1"/>
		<line class="st8" x1="84.5" y1="164.3" x2="93.2" y2="154"/>
		<line class="st8" x1="93.2" y1="154" x2="80" y2="149.8"/>
		<line class="st8" x1="81.5" y1="156.1" x2="91.2" y2="146.9"/>
		<line class="st8" x1="91.2" y1="146.9" x2="78.6" y2="143.3"/>
		<line class="st8" x1="80" y1="149.8" x2="89.3" y2="139.9"/>
		<line class="st8" x1="89.3" y1="139.9" x2="76.8" y2="134.7"/>
		<line class="st8" x1="78.6" y1="143.3" x2="87.7" y2="133.3"/>
		<line class="st8" x1="87.7" y1="133.3" x2="75.4" y2="126.2"/>
		<line class="st8" x1="76.8" y1="134.7" x2="85.8" y2="126.1"/>
		<line class="st8" x1="68.2" y1="115.9" x2="60.8" y2="106.9"/>
		<line class="st8" x1="58.2" y1="115.9" x2="68.9" y2="106.1"/>
		<line class="st8" x1="68.6" y1="106.1" x2="62.1" y2="99.6"/>
		<line class="st8" x1="60.8" y1="106.9" x2="69.4" y2="99.6"/>
		<line class="st8" x1="69.4" y1="99.6" x2="63.2" y2="93.3"/>
		<line class="st8" x1="62.1" y1="99.6" x2="69.8" y2="92.8"/>
		<line class="st8" x1="69.8" y1="92.8" x2="63.7" y2="87.6"/>
		<line class="st8" x1="63.2" y1="93.3" x2="70.2" y2="87.6"/>
		<line class="st8" x1="70.2" y1="87.6" x2="64.3" y2="82.8"/>
		<line class="st8" x1="63.7" y1="87.6" x2="70.5" y2="83.1"/>
		<line class="st8" x1="70.5" y1="83.1" x2="64.8" y2="76.7"/>
		<line class="st8" x1="64.3" y1="82.8" x2="70.9" y2="76.7"/>
		<line class="st8" x1="70.9" y1="76.7" x2="65.3" y2="71.4"/>
		<line class="st8" x1="64.8" y1="76.7" x2="71.2" y2="71.4"/>
		<line class="st8" x1="74.6" y1="115.9" x2="82.2" y2="106.9"/>
		<line class="st8" x1="84.5" y1="115.9" x2="73.4" y2="106.1"/>
		<line class="st8" x1="73.4" y1="106.1" x2="80.9" y2="99.6"/>
		<line class="st8" x1="82.2" y1="106.9" x2="73" y2="99.6"/>
		<line class="st8" x1="73" y1="99.6" x2="80.2" y2="93.3"/>
		<line class="st8" x1="80.9" y1="99.6" x2="72.6" y2="93.3"/>
		<line class="st8" x1="72.6" y1="93.1" x2="79.5" y2="87.6"/>
		<line class="st8" x1="80.1" y1="93.1" x2="72.2" y2="87.9"/>
		<line class="st8" x1="72.2" y1="87.9" x2="78.9" y2="82.8"/>
		<line class="st8" x1="79.5" y1="87.6" x2="71.9" y2="83"/>
		<line class="st8" x1="72.2" y1="83" x2="78.2" y2="76.7"/>
		<line class="st8" x1="78.9" y1="82.8" x2="71.5" y2="76.7"/>
		<line class="st8" x1="71.7" y1="76.7" x2="77.7" y2="71.4"/>
		<line class="st8" x1="78.2" y1="76.7" x2="71.2" y2="71.4"/>
		<line class="st8" x1="65.7" y1="67.1" x2="76.6" y2="59.5"/>
		<line class="st8" x1="77.3" y1="67.1" x2="66.3" y2="58.9"/>
		<line class="st8" x1="66.3" y1="58.9" x2="76" y2="53.3"/>
		<line class="st8" x1="76.6" y1="59.5" x2="66.8" y2="52.2"/>
		<line class="st8" x1="66.8" y1="52.2" x2="75.5" y2="46.8"/>
		<line class="st8" x1="76" y1="53.3" x2="67.2" y2="46.8"/>
		<line class="st8" x1="67.2" y1="46.8" x2="75.1" y2="41.5"/>
		<line class="st8" x1="75.5" y1="46.8" x2="67.5" y2="40.8"/>
		<line class="st8" x1="67.5" y1="40.8" x2="74.8" y2="36.7"/>
		<line class="st8" x1="75.1" y1="41.5" x2="67.8" y2="36.7"/>
		<line class="st8" x1="67.8" y1="36.7" x2="74.3" y2="29.1"/>
		<line class="st8" x1="74.8" y1="36.7" x2="68.2" y2="29.1"/>
	</g>
</g>
<g id="couple">
	<g>
		<g>
			<path class="st9" d="M337.9,195l2.1,18.3c0,0,1.1,1.5,1.8-0.6l3.1-16.8L337.9,195z"/>
			<path class="st9" d="M345.5,196l2.1,18.3c0,0,1.1,1.5,1.8-0.6l2.4-19.2L345.5,196z"/>
			
				<ellipse transform="matrix(0.9966 8.272977e-02 -8.272977e-02 0.9966 13.0024 -23.6922)" class="st10" cx="292.4" cy="145.1" rx="13.8" ry="12.3"/>
			
				<ellipse transform="matrix(0.9916 0.1293 -0.1293 0.9916 22.074 -43.576)" class="st10" cx="346.8" cy="148.3" rx="14.2" ry="12.7"/>
			<path class="st11" d="M283.2,156.4c-1.9,1.5-4.6,4.5,1.4,7c0.3,0.1,0.6,0.2,0.8,0.3c1.7,0.4,7.9,1.5,13.2,0.1
				c0.9-0.2,1.6-0.8,2-1.5c0.9-1.4,1.7-3.8-1.6-5.5c-0.1-0.1-0.3-0.1-0.4-0.2c-1.3-0.5-7.3-2.4-12.7-1.4
				C284.8,155.4,283.9,155.8,283.2,156.4z"/>
			<path class="st6" d="M284.6,163.3c0,0-12.1,25.3-3.4,26.4c0,0,24.2,5.5,21.1-5.4l-3.7-20.8C298.6,163.4,293.5,166.1,284.6,163.3z
				"/>
			<path class="st12" d="M285.9,149.6c0.5,0.8,1.1,1.6,1.4,2.5c0.3,0.9,0.2,2.1-0.5,2.7c-0.7,0.7-1.8,0.6-2.8,0.5
				c-2.1-0.3-4.4-0.9-5.9-2.5c-1.8-1.8-2.3-4.6-2.5-7.2c-0.4-5.1,0-10.7,3-14.8c-0.5,1.6-0.8,3.3-0.8,5c1.4-0.1,2.6-1,3.9-1.7
				c4.4-2.7,9.5-4.3,14.6-4.2c5.1,0.1,10.4,0.7,14.1,4.2c-2.5-0.7-5.3,0.4-7.9,0.6c2.5,0.2,5.5-0.1,7.7,1.2
				c-4.3,0.5-5.8,3.4-8.5,4.5c-1.5,0.6-3.1,1.3-4.7,1.5c-1.5,0.2-3.1,0.1-4.6,0c-2.1-0.1-4.2,0-6.3,0.3c-0.5,0.1-1,0.2-1.3,0.5
				c-0.4,0.4-0.5,1.1-0.5,1.6C284.4,146.3,285,148.1,285.9,149.6z"/>
			<path class="st9" d="M281.2,189.7c0,0,6.2,11.7-5,15.9c0,0-5.4,0.9-9.5,0.2c0,0-1,1.8,2.4,2.7c0,0,13.2,5.1,20.5-3.8
				c0,0,3.5-2.4,3.5-8c0,0,8.7-2.1,16.5,11.5l2.4-0.8c0,0,2.1-7.2-11.9-17.6C300.2,189.8,296.9,192.8,281.2,189.7z"/>
			<path class="st9" d="M264.1,214.6c1.3,0.1,2.5-0.8,3.1-1.9c0.7-1.1,0.9-2.4,1.1-3.7c0.1-0.4,0.1-0.8,0-1.1
				c-0.1-0.3-0.5-0.6-0.7-0.8c-0.4-0.4-0.7-0.8-0.8-1.3c-0.8,1.7-1.7,3.2-2.9,4.7c-0.5,0.6-0.9,1.2-1.2,1.9c-0.2,0.7-0.1,1.6,0.5,2
				C263.4,214.5,263.8,214.6,264.1,214.6z"/>
			<path class="st9" d="M309.4,210.2c0.4,0.4,0.9,0.4,1.4,0.5c0.9,0.1,1.7,0.3,2.6,0.4c0.9,0.1,1.8,0.3,2.6,0c0.5-0.1,1-0.4,1.1-0.9
				c0.2-0.4,0-1-0.3-1.3c-0.3-0.4-0.7-0.6-1.1-0.8c-1.1-0.5-2.3-0.8-3.6-0.9c-0.3,0-0.7,0-1,0.1C310,207.5,309.2,208.9,309.4,210.2z
				"/>
			<path class="st13" d="M286.2,170.2c12.9,10.4,24.9,2.1,24.9,2.1c-14.1,19.7-29.2,3.9-29.2,3.9l-1.8-1.7l2.4-6.5L286.2,170.2z"/>
			<path class="st6" d="M298.6,163.4c0,0,15.5,3.7,19.6-2.6c0,0-2.1,10.5-17.9,12.2L298.6,163.4z"/>
			<path class="st11" d="M296,164.9c4.4,1.4,6.2,7,10.5,8.5c1.1-1.8,2-3.6,2.9-5.6c-1.4,0.4-2.8-0.1-4-0.9c-1.2-0.8-2.1-1.8-3.2-2.7
				c-2.4-2-5.4-3.3-8.6-3.6c-1.3-0.2-3.4-0.4-4.7,0.1c-1.8,0.8-0.5,1.4,0.2,2.8c2.5,4.4,2.8,10.3,6.8,13.7c0.2,0.2,0.4,0.3,0.6,0.4
				c0.2,0,0.4,0,0.6-0.1c1.1-0.3,2.1-0.5,3.2-0.8c-2.2-2.5-3.6-5.6-4.1-8.8c-0.1-0.7-0.2-1.3-0.3-1.9c-0.5-1.7-1.9-3-3.4-3.7
				c-1.5-0.7-3.2-1-4.8-1L296,164.9z"/>
			<path class="st14" d="M340.7,162.8c0,0-13.8,28-4.1,31.8c0,0,6.7,2.2,12.6,1.3c4.7-0.7,8.1-5,7.9-9.8c-0.2-5.8-1.1-16.9-4.5-21.7
				L340.7,162.8z"/>
			<path class="st14" d="M335.3,178.5c0,0-12.7-12.3-1.4-29.6c0,0-4.4,8.6,2.9,23L335.3,178.5z"/>
			<g>
				<path class="st6" d="M354.5,161.4c1.6,1.9,3.7,5.5-2.9,6.7c-0.3,0.1-0.6,0.1-0.9,0.1c-1.8,0-8.3-0.2-13.3-2.8
					c-0.8-0.4-1.5-1.1-1.7-1.9c-0.6-1.6-0.9-4.2,2.8-5.1c0.2,0,0.3-0.1,0.5-0.1c1.4-0.2,7.9-0.9,13.1,1.3
					C353,160.1,353.8,160.7,354.5,161.4z"/>
				<path class="st6" d="M339.8,167.2c-4.7,0.4-7.7,5.7-12.4,6.2c-0.7-2-1.3-4.1-1.7-6.2c1.3,0.7,2.9,0.5,4.2-0.1s2.5-1.4,3.8-2
					c2.9-1.5,6.2-2.1,9.4-1.8c1.4,0.1,3.5,0.3,4.7,1.1c1.6,1.1,0.2,1.6-0.9,2.8c-3.5,3.9-5,9.7-9.8,12.3c-0.2,0.1-0.5,0.2-0.7,0.2
					c-0.2,0-0.4-0.1-0.6-0.2c-1-0.5-2-1-3.1-1.5c2.7-2,4.8-4.8,6-8c0.2-0.6,0.4-1.3,0.8-1.9c0.9-1.6,2.5-2.6,4.3-3
					c1.7-0.4,3.4-0.3,5.1,0L339.8,167.2z"/>
			</g>
			<path class="st12" d="M361.3,151.9c0.1-1.8,0.1-3.6-0.1-5.3c-0.1-1.2-0.3-2.4-0.8-3.4c-1.6-3.4-5.6-4.8-9.2-5.9
				c-3.2-0.9-6.5-1.8-9.9-1.7s-6.8,1.2-9.1,3.7c-0.5,0.6-1,1.3-1.1,2c-0.2,1.7,1.3,3.1,2.9,3.7c2.9,1,6,0.3,9-0.1
				c3-0.4,6.1-0.4,8.8,0.9c2.7,1.3,4.7,4.3,4.1,7.2c-0.1,0.7-0.4,1.5,0.2,2c0.2,0.2,0.5,0.2,0.8,0.3c1.4,0.2,3,0,3.8-1.2
				C361.2,153.4,361.3,152.7,361.3,151.9z"/>
			
				<ellipse transform="matrix(0.9916 0.1293 -0.1293 0.9916 20.2826 -44.3052)" class="st12" cx="351.5" cy="134.1" rx="9.4" ry="6.1"/>
			<path class="st14" d="M356,179.6c0,0,12.4-11.3,2.3-29.4c0,0,3.8,8.9-4.5,22.7L356,179.6z"/>
			<path class="st11" d="M342.7,135.6c0.1-0.2,0.4-0.3,0.7-0.3c1.6-0.2,3.3,0.4,4.8,1c1.3,0.5,2.6,0.9,3.9,1.2
				c1.3,0.3,2.7,0.4,3.9,0.9c0.7,0.3,1.3,1,0.8,1.3c-0.4,0.3-1,0.2-1.5,0c-3.2-0.8-6.5-1.6-9.7-2.4c-1-0.3-2.2-0.6-2.7-1.3
				C342.7,135.9,342.6,135.7,342.7,135.6z"/>
		</g>
		
			<ellipse transform="matrix(0.9966 8.272977e-02 -8.272977e-02 0.9966 14.2543 -25.9281)" class="st15" cx="320" cy="159" rx="2.8" ry="2.3"/>
		
			<ellipse transform="matrix(0.9966 8.272977e-02 -8.272977e-02 0.9966 14.2708 -25.9261)" class="st0" cx="320" cy="159.2" rx="1.9" ry="1.5"/>
		<path class="st16" d="M318.2,155.5l3.4-2.2l2.7,3l-2.2,1.5c0,0-0.9-1.2-3.1-0.8L318.2,155.5z"/>
		<path class="st17" d="M313.2,151.6l2.7,7.3l8.1,2.2c0,0-0.1,7.6-8.4,1.4l-2.4-1.3l0.3-1.7c0,0-3.8-0.4-4.8-2.3c0,0-2-4.9,0.5-5.9
			L313.2,151.6z"/>
	</g>
</g>
<g id="logo">
	<g>
		<path class="st18" d="M193.1,205.7l0.3,1.5h-0.1c-0.2-0.9-1.1-1.3-2-1.3c-0.1,0-0.3,0-0.5,0.1v2.6h0.3c0.7,0,1.2-0.3,1.2-0.9h0.1
			v2.1h-0.1c-0.1-0.5-0.2-1-1.2-1h-0.4v2.4c0,0.4,0.2,0.6,0.8,0.6v0.1H189v-0.1c0.6,0,0.8-0.2,0.8-0.6v-4.7c0-0.4-0.2-0.6-0.8-0.6
			v-0.1H193.1L193.1,205.7z"/>
		<path class="st18" d="M198.3,205.7l0.3,1.5h-0.1c-0.2-0.9-1.1-1.3-2-1.3c-0.1,0-0.3,0-0.5,0.1v2.6h0.3c0.7,0,1.2-0.3,1.2-0.9h0.1
			v2.1h-0.1c-0.1-0.5-0.2-1-1.2-1h-0.4v2.4c0,0.4,0.2,0.6,0.8,0.6v0.1h-2.6v-0.1c0.6,0,0.8-0.2,0.8-0.6v-4.7c0-0.4-0.2-0.6-0.8-0.6
			v-0.1H198.3L198.3,205.7z"/>
		<path class="st18" d="M187.7,205.7v0.1c-0.4,0-0.7,0.2-0.7,0.6v4.7c0,0.4,0.3,0.6,0.7,0.6v0.1h-2.4v-0.1c0.4,0,0.7-0.2,0.7-0.6
			v-4.7c0-0.4-0.3-0.6-0.7-0.6v-0.1H187.7L187.7,205.7z"/>
		<path class="st18" d="M184.6,204l0.3,1.9h-0.1c-0.4-1-1-1.6-2.3-1.6v6.6c0,0.7,0.4,0.9,0.8,0.9v0.1h-2.9v-0.1
			c0.4,0,0.9-0.2,0.9-0.9v-6.6c-1.3,0-1.9,0.6-2.4,1.6h-0.1l0.2-1.9H184.6L184.6,204z"/>
		<path class="st18" d="M219.9,209.9c0,1,0.7,1.7,1.7,1.7c0.4,0,0.9-0.2,1.3-0.6l-2-2.6C220.4,208.6,219.9,209.1,219.9,209.9
			L219.9,209.9z M222.6,206.1c0-0.8-0.3-1.2-1-1.2c-0.7,0-1.1,0.4-1.1,1.1c0,0.7,1,1.8,1,1.8C222.3,207.2,222.6,206.8,222.6,206.1
			L222.6,206.1z M221.7,207.9l1.7,2.1c0,0,0.2-0.3,0.2-0.7c0-0.4-0.2-0.5-0.5-0.6v-0.1h1.9c0,0,0,0.1,0,0.1
			c-0.3,0.1-0.6,0.2-0.9,0.4c-0.2,0.3-0.3,0.5-0.5,1.1l0.8,1c0.3,0.4,0.8,0.6,1.3,0.7v0.1h-2v-0.1l-0.6-0.7c-0.5,0.5-1.3,0.9-2,0.9
			c-1.2,0-2-0.7-2-1.6c0-1,1-1.7,1.7-2.2c0,0-0.8-0.9-0.8-1.8c0-1,0.7-1.7,1.8-1.7c0.9,0,1.6,0.7,1.6,1.5
			C223.3,207,222.2,207.4,221.7,207.9L221.7,207.9z"/>
		<path class="st18" d="M234.2,203.9l0.1,2.5h-0.1c-0.3-1.4-1.2-2.2-2.4-2.2c-1.4,0-2.4,1.6-2.4,3.8c0,2.7,1.1,3.8,2.6,3.8
			c1.5,0,2.1-1.4,2.3-2.5h0.1v1.1c-0.3,0.5-1,1.5-2.7,1.5c-2.1,0-3.7-1.7-3.7-4c0-2.1,1.8-4,3.7-4c1.1,0,1.4,0.5,1.8,0.5
			c0.3,0,0.5-0.2,0.5-0.6H234.2L234.2,203.9z"/>
		<path class="st18" d="M241.7,210.8c0.3,0,0.6,0.3,0.6,0.6c0,0.3-0.3,0.5-0.6,0.5c-0.3,0-0.6-0.2-0.6-0.5
			C241.1,211,241.4,210.8,241.7,210.8L241.7,210.8z"/>
		<path class="st18" d="M236,208.7c0,1.9,0.7,3.1,1.9,3.1c1.2,0,1.9-1.1,1.9-3.1c0-1.8-0.7-2.9-1.9-2.9
			C236.7,205.8,236,207,236,208.7L236,208.7z M237.9,205.7c1.8,0,3.3,1.3,3.3,3.2c0,1.7-1.4,3.1-3.2,3.1c-1.8,0-3.3-1.4-3.3-3.1
			C234.7,207.1,236.2,205.7,237.9,205.7L237.9,205.7z"/>
		<path class="st18" d="M200.7,207l1.1,2.6h-2.1L200.7,207L200.7,207z M204.2,211.8c-0.2,0-0.4-0.2-0.5-0.3c-0.1-0.1-2.5-6-2.5-6
			l-2.2,5.4c-0.3,0.7-0.6,1-1.1,1v0.1h1.8v-0.1c-0.4,0-0.6-0.2-0.6-0.5c0-0.2,0.6-1.6,0.6-1.6h2.2c0,0,0.6,1.3,0.6,1.6
			c0,0.2-0.3,0.5-0.7,0.5v0.1h2.4V211.8L204.2,211.8z"/>
		<path class="st18" d="M205.2,210.8c0,0.6-0.4,0.8-0.8,0.9v0.1h1.8v-0.1c-0.5-0.1-0.8-0.5-0.8-0.9v-4l4.2,5.2v-5
			c0-0.7,0.4-1.1,0.9-1.1v-0.1h-2v0.1c0.6,0.2,1,0.5,1,1.2v3.1l-3.5-4.4h-1.7v0.1c0.7,0,0.9,0.6,0.9,0.8V210.8L205.2,210.8z"/>
		<path class="st18" d="M210.7,205.9c0.3,0,0.3,0,0.5,0.4c0,0,1.9,3.1,1.9,3.1v1.8c0,0.4-0.3,0.6-0.9,0.7v0.1h2.7v-0.1
			c-0.5,0-0.8-0.3-0.8-0.7V209c0,0,1.2-2.2,1.3-2.4c0.3-0.5,0.7-0.7,1.2-0.8v-0.1h-2.2l0,0.1c0.7,0,0.9,0.7,0.6,1.1l-1.1,2.1
			l-1.4-2.4c-0.2-0.4,0.1-0.7,0.6-0.7v-0.1h-2.5V205.9L210.7,205.9z"/>
	</g>
	<text transform="matrix(1 0 0 1 130.8799 43.814)"><tspan x="0" y="0" class="st19 st20 st21">The </tspan><tspan x="52" y="0" class="st19 st22 st21">adventure </tspan><tspan x="145" y="0" class="st19 st20 st21">continues...</tspan></text>
	<text transform="matrix(1 0 0 1 231.0668 67.104)"><tspan x="0" y="0" class="st19 st20 st23">after the </tspan><tspan x="45.1" y="0" class="st19 st22 st23">dance</tspan><tspan x="10" y="15.1" class="st19 st20 st23">after </tspan><tspan x="36.2" y="15.1" class="st19 st22 st23">today</tspan><tspan x="1.4" y="30.1" class="st19 st20 st23">after </tspan><tspan x="27.5" y="30.1" class="st19 st22 st23">tomorrow</tspan></text>
</g>
</svg>
