<?xml version="1.0" encoding="utf-8"?>
<!-- Generator: Adobe Illustrator 19.1.0, SVG Export Plug-In . SVG Version: 6.00 Build 0)  -->
<svg version="1.1" id="Layer_1" xmlns="http://www.w3.org/2000/svg" xmlns:xlink="http://www.w3.org/1999/xlink" x="0px" y="0px"
	 viewBox="-359 1 792 612" style="enable-background:new -359 1 792 612;" xml:space="preserve">
<style type="text/css">
	.st0{fill:#A2DBDF;}
	.st1{fill:#482811;}
	.st2{fill:#7D9139;}
	.st3{fill:#166131;}
	.st4{fill:#EE234D;}
	.st5{fill:#ACD13C;}
	.st6{fill:#464C5E;}
	.st7{fill:#404655;}
	.st8{fill:none;stroke:#464C5E;stroke-miterlimit:10;}
	.st9{fill:#010101;}
	.st10{fill:#FAB498;}
	.st11{fill:#CCC19C;}
	.st12{fill:#482A15;}
	.st13{fill:#3F4655;}
	.st14{fill:#A97D51;}
	.st15{fill:#E3C821;}
	.st16{fill:#FFFFFF;}
	.st17{fill:#4BC2C1;}
	.st18{fill:#2B2A2B;}
	.st19{font-family:'Baskerville';}
	.st20{font-size:48.2731px;}
	.st21{font-family:'Baskerville-Italic';}
	.st22{font-size:22.334px;}
</style>
<g id="sky">
	<rect x="-359" y="1" class="st0" width="792" height="612.7"/>
</g>
<g id="tree_x26_bush">
	<rect x="304.7" y="519" class="st1" width="23.7" height="73.5"/>
	<path class="st2" d="M322.2,522.4c22.9,7.1,97.6,24.4,81.8-61.1c-0.5-2.2-1.2-4.4-2.5-6.4c-3-4.9-7.9-16.5,2.2-27.1
		c2.5-2.5,3.9-5.4,4.9-8.9c3.9-12.3,7.1-38.5-28.8-52.8c-4.4-1.7-8.4-4.9-10.8-9.1c-12.1-20.7-53-78.6-97.9-6.7
		c-2.5,3.9-5.9,6.9-10.1,8.6c-15.3,5.9-50.5,25.1-27.9,65.8c3,5.2,3.7,11.1,2.2,16.8c-7.9,28.3-24.7,113.4,73.2,81.1
		C313.3,520.9,318,521.2,322.2,522.4z"/>
	<path class="st3" d="M221.3,596.6c8.4,2.2,36,7.4,30.3-18.2c-0.2-0.7-0.5-1.2-1-2c-1-1.5-3-4.9,0.7-8.1c1-0.7,1.5-1.7,1.7-2.7
		c1.5-3.7,2.7-11.6-10.6-15.8c-1.7-0.5-3.2-1.5-3.9-2.7c-4.4-6.2-19.5-23.7-36.2-2c-1,1.2-2.2,2-3.7,2.5
		c-5.7,1.7-18.7,7.4-10.4,19.7c1,1.5,1.5,3.2,0.7,4.9c-3,8.4-9.1,34,27.1,24.2C217.9,596.1,219.6,596.1,221.3,596.6z"/>
	<circle class="st4" cx="204.8" cy="554.2" r="2.5"/>
	<circle class="st4" cx="216.4" cy="581.3" r="2.5"/>
	<circle class="st4" cx="233.2" cy="554.2" r="2.5"/>
	<circle class="st4" cx="241.6" cy="576.7" r="2"/>
	<circle class="st4" cx="217.9" cy="564.6" r="2"/>
	<circle class="st4" cx="196.2" cy="580.8" r="2"/>
</g>
<g id="grass">
	<path class="st5" d="M-358.6,582.7c27.7-8,56.4-2.3,84.6,1.8c68.1,10.1,136.8,11.4,205.1,3.7c36.3-4.1,72.6-10.7,109-10.5
		c38.8,0.2,77.2,8.2,116,12.8c92.1,10.7,184.8,1.8,276.9-9.1v32h-792.5L-358.6,582.7z"/>
</g>
<g id="bench">
	<g>
		<rect x="360.6" y="537.7" class="st6" width="71.7" height="9.6"/>
		<rect x="360.6" y="548.5" class="st6" width="71.7" height="9.6"/>
		<polyline class="st6" points="357.1,569.7 432,570 432,576.4 432,578.1 432,578.1 350.9,578.1 350.9,575.9 357.1,569.7 		"/>
		<rect x="376" y="537.7" class="st6" width="4.2" height="32.3"/>
		<path class="st6" d="M367.6,577.6c0,0,2.7,0.5,1.5,8.1c0,0,0.5,11.1,0.7,14.1l0.5,3.7h2.7l1-0.7l-0.2-3.2c0,0-1.2-12.6,2.7-17
			c0,0,2.7,1.2,4.2,8.1h2.5c0,0,1.2,0.2-2-12.8h-13.7V577.6z"/>
	</g>
</g>
<g id="Eiffel_Tower">
	<g>
		<path class="st7" d="M-285.8,593.3l33-79l91.4-0.2l34,79h-18.3c0,0-24.2-46.9-39.6-56.2c0,0-26.6-21.8-46.7,4.2
			c-0.5,0.7-1.2,1.5-2,2.2c-3.7,4.2-18.6,21.3-32.3,49.9h-19.6V593.3z"/>
		<line class="st8" x1="-206.6" y1="85.6" x2="-206.6" y2="107.6"/>
		<rect x="-211.2" y="107.1" class="st6" width="9.5" height="13.7"/>
		<rect x="-213.9" y="119.8" class="st6" width="14.9" height="32.3"/>
		<path class="st8" d="M-213.9,152.1c0,0-8.1,178-24.4,212.2"/>
		<path class="st8" d="M-199,152.1c0,0,11.2,177.2,25.4,212.2"/>
		<rect x="-243.5" y="364.3" class="st6" width="73.3" height="24.7"/>
		<rect x="-223.4" y="245.7" class="st6" width="35.4" height="9.8"/>
		<path class="st8" d="M-213.9,364.3c0.7-1.7,7.6-108.5,7.6-108.5s6.6,108.5,7.6,108.5"/>
		<path class="st8" d="M-243.5,388.9c0,0-21.5,92.4-28.8,94.6"/>
		<path class="st8" d="M-170.4,388.9c0,0,21,91.9,28.6,94.1"/>
		<polyline class="st6" points="-276.2,483.1 -294.3,516.3 -122,516.1 -134.7,482.8 -276.5,483.3 		"/>
		<path class="st8" d="M-218.5,388.9c0,0-15.6,87-22.7,94.1"/>
		<path class="st8" d="M-196.8,389.2c0,0,15.6,87,22.7,94.1"/>
		<path class="st8" d="M-285.8,516.1c0,0-36.9,75.8-46.4,77"/>
		<path class="st8" d="M-125.1,515.8c0,0,36.9,76,46.4,77.5"/>
		<line class="st8" x1="-317.1" y1="574.7" x2="-285.8" y2="593.3"/>
		<line class="st8" x1="-332" y1="593.3" x2="-285.8" y2="593.3"/>
		<line class="st8" x1="-127.3" y1="593.3" x2="-78.7" y2="593.3"/>
		<line class="st8" x1="-328.1" y1="593.3" x2="-280.9" y2="581.1"/>
		<line class="st8" x1="-280.6" y1="581.6" x2="-304.6" y2="552.7"/>
		<line class="st8" x1="-317.1" y1="574.5" x2="-271.1" y2="559.1"/>
		<line class="st8" x1="-271.1" y1="559.1" x2="-293.3" y2="531.5"/>
		<line class="st8" x1="-304.6" y1="552.7" x2="-262.3" y2="538.3"/>
		<line class="st8" x1="-262.3" y1="538.3" x2="-285.8" y2="516.3"/>
		<line class="st8" x1="-293.3" y1="531.5" x2="-253.2" y2="516.6"/>
		<line class="st8" x1="-94.6" y1="573" x2="-127.3" y2="593.3"/>
		<line class="st8" x1="-81.1" y1="593.3" x2="-133" y2="580.6"/>
		<line class="st8" x1="-133" y1="580.6" x2="-107.1" y2="551.3"/>
		<line class="st8" x1="-94.6" y1="573" x2="-142.3" y2="559.1"/>
		<line class="st8" x1="-142.3" y1="559.1" x2="-117.8" y2="530.7"/>
		<line class="st8" x1="-107.1" y1="551.3" x2="-151.8" y2="537.8"/>
		<line class="st8" x1="-151.8" y1="537.8" x2="-125.4" y2="516.3"/>
		<line class="st8" x1="-117.8" y1="530.7" x2="-160.8" y2="516.3"/>
		<line class="st8" x1="-271.8" y1="482.8" x2="-233.9" y2="462"/>
		<line class="st8" x1="-241.3" y1="482.8" x2="-261.3" y2="456.9"/>
		<line class="st8" x1="-261.3" y1="456.9" x2="-230.3" y2="447.1"/>
		<line class="st8" x1="-233.9" y1="462" x2="-256.4" y2="439.5"/>
		<line class="st8" x1="-256.4" y1="439.5" x2="-226.6" y2="429.5"/>
		<line class="st8" x1="-230.3" y1="447.1" x2="-251.8" y2="422.4"/>
		<line class="st8" x1="-251.8" y1="422.4" x2="-222.4" y2="409.7"/>
		<line class="st8" x1="-226.8" y1="429.3" x2="-247.6" y2="406.3"/>
		<line class="st8" x1="-247.6" y1="406.3" x2="-219" y2="389.2"/>
		<line class="st8" x1="-222.4" y1="409.7" x2="-243.2" y2="389.2"/>
		<line class="st8" x1="-142.7" y1="482.1" x2="-181.4" y2="462.5"/>
		<line class="st8" x1="-174" y1="482.6" x2="-152.8" y2="457.4"/>
		<line class="st8" x1="-152.8" y1="457.4" x2="-185" y2="447.1"/>
		<line class="st8" x1="-181.4" y1="462.5" x2="-157.7" y2="440"/>
		<line class="st8" x1="-157.7" y1="440" x2="-188.5" y2="431.2"/>
		<line class="st8" x1="-185" y1="447.1" x2="-162.3" y2="422.9"/>
		<line class="st8" x1="-162.3" y1="422.9" x2="-192.9" y2="410.2"/>
		<line class="st8" x1="-188.5" y1="431.2" x2="-166.2" y2="406.8"/>
		<line class="st8" x1="-166.2" y1="406.8" x2="-196.3" y2="389.4"/>
		<line class="st8" x1="-192.9" y1="410.2" x2="-170.9" y2="389.2"/>
		<line class="st8" x1="-213.9" y1="364.3" x2="-232" y2="342.2"/>
		<line class="st8" x1="-238.3" y1="364.3" x2="-212.2" y2="340.3"/>
		<line class="st8" x1="-212.9" y1="340.3" x2="-228.8" y2="324.4"/>
		<line class="st8" x1="-232" y1="342.2" x2="-211" y2="324.4"/>
		<line class="st8" x1="-211" y1="324.4" x2="-226.1" y2="309"/>
		<line class="st8" x1="-228.8" y1="324.4" x2="-210" y2="307.8"/>
		<line class="st8" x1="-210" y1="307.8" x2="-224.9" y2="295.1"/>
		<line class="st8" x1="-226.1" y1="309" x2="-209" y2="295.1"/>
		<line class="st8" x1="-209" y1="295.1" x2="-223.4" y2="283.3"/>
		<line class="st8" x1="-224.9" y1="295.1" x2="-208.3" y2="284.1"/>
		<line class="st8" x1="-208.3" y1="284.1" x2="-222.2" y2="268.4"/>
		<line class="st8" x1="-223.4" y1="283.3" x2="-207.3" y2="268.4"/>
		<line class="st8" x1="-207.3" y1="268.4" x2="-221" y2="255.5"/>
		<line class="st8" x1="-222.2" y1="268.4" x2="-206.6" y2="255.5"/>
		<line class="st8" x1="-198.2" y1="364.3" x2="-179.7" y2="342.2"/>
		<line class="st8" x1="-174" y1="364.3" x2="-201.2" y2="340.3"/>
		<line class="st8" x1="-201.2" y1="340.3" x2="-182.8" y2="324.4"/>
		<line class="st8" x1="-179.7" y1="342.2" x2="-202.2" y2="324.4"/>
		<line class="st8" x1="-202.2" y1="324.4" x2="-184.6" y2="309"/>
		<line class="st8" x1="-182.8" y1="324.4" x2="-203.1" y2="309"/>
		<line class="st8" x1="-203.1" y1="308.5" x2="-186.3" y2="295.1"/>
		<line class="st8" x1="-184.8" y1="308.5" x2="-204.1" y2="295.8"/>
		<line class="st8" x1="-204.1" y1="295.8" x2="-187.7" y2="283.3"/>
		<line class="st8" x1="-186.3" y1="295.1" x2="-204.8" y2="283.8"/>
		<line class="st8" x1="-204.1" y1="283.8" x2="-189.4" y2="268.4"/>
		<line class="st8" x1="-187.7" y1="283.3" x2="-205.8" y2="268.4"/>
		<line class="st8" x1="-205.3" y1="268.4" x2="-190.7" y2="255.5"/>
		<line class="st8" x1="-189.4" y1="268.4" x2="-206.6" y2="255.5"/>
		<line class="st8" x1="-220" y1="245" x2="-193.4" y2="226.4"/>
		<line class="st8" x1="-191.6" y1="245" x2="-218.5" y2="224.9"/>
		<line class="st8" x1="-218.5" y1="224.9" x2="-194.8" y2="211.2"/>
		<line class="st8" x1="-193.4" y1="226.4" x2="-217.3" y2="208.5"/>
		<line class="st8" x1="-217.3" y1="208.5" x2="-196" y2="195.3"/>
		<line class="st8" x1="-194.8" y1="211.2" x2="-216.3" y2="195.3"/>
		<line class="st8" x1="-216.3" y1="195.3" x2="-197" y2="182.4"/>
		<line class="st8" x1="-196" y1="195.3" x2="-215.6" y2="180.7"/>
		<line class="st8" x1="-215.6" y1="180.7" x2="-197.8" y2="170.6"/>
		<line class="st8" x1="-197" y1="182.4" x2="-214.9" y2="170.6"/>
		<line class="st8" x1="-214.9" y1="170.6" x2="-199" y2="152.1"/>
		<line class="st8" x1="-197.8" y1="170.6" x2="-213.9" y2="152.1"/>
	</g>
</g>
<g id="couple">
	<g>
		<g>
			<path class="st9" d="M250.5,567.2l3.7,32.5c0,0,2,2.7,3.2-1.1l5.5-29.9L250.5,567.2z"/>
			<path class="st9" d="M264,569l3.7,32.5c0,0,2,2.7,3.2-1.1l4.3-34.1L264,569z"/>
			
				<ellipse transform="matrix(8.272747e-02 -0.9966 0.9966 8.272747e-02 -321.2917 607.9292)" class="st10" cx="169.6" cy="478.5" rx="21.9" ry="24.5"/>
			
				<ellipse transform="matrix(0.1293 -0.9916 0.9916 0.1293 -248.2736 685.683)" class="st10" cx="266.3" cy="484.2" rx="22.6" ry="25.3"/>
			<path class="st11" d="M153.2,498.6c-3.4,2.7-8.2,8,2.5,12.4c0.5,0.2,1.1,0.4,1.4,0.5c3,0.7,14,2.7,23.5,0.2
				c1.6-0.4,2.8-1.4,3.6-2.7c1.6-2.5,3-6.8-2.8-9.8c-0.2-0.2-0.5-0.2-0.7-0.4c-2.3-0.9-13-4.3-22.6-2.5
				C156.1,496.8,154.5,497.5,153.2,498.6z"/>
			<path class="st6" d="M155.7,510.9c0,0-21.5,45-6,47c0,0,43,9.8,37.5-9.6l-6.6-37C180.6,511,171.5,515.8,155.7,510.9z"/>
			<path class="st12" d="M158,486.5c0.9,1.4,2,2.8,2.5,4.4c0.5,1.6,0.4,3.7-0.9,4.8c-1.2,1.2-3.2,1.1-5,0.9
				c-3.7-0.5-7.8-1.6-10.5-4.4c-3.2-3.2-4.1-8.2-4.4-12.8c-0.7-9.1,0-19,5.3-26.3c-0.9,2.8-1.4,5.9-1.4,8.9c2.5-0.2,4.6-1.8,6.9-3
				c7.8-4.8,16.9-7.6,26-7.5c9.1,0.2,18.5,1.2,25.1,7.5c-4.4-1.2-9.4,0.7-14,1.1c4.4,0.4,9.8-0.2,13.7,2.1c-7.6,0.9-10.3,6-15.1,8
				c-2.7,1.1-5.5,2.3-8.4,2.7c-2.7,0.4-5.5,0.2-8.2,0c-3.7-0.2-7.5,0-11.2,0.5c-0.9,0.2-1.8,0.4-2.3,0.9c-0.7,0.7-0.9,2-0.9,2.8
				C155.4,480.6,156.4,483.8,158,486.5z"/>
			<path class="st9" d="M149.7,557.8c0,0,11,20.8-8.9,28.3c0,0-9.6,1.6-16.9,0.4c0,0-1.8,3.2,4.3,4.8c0,0,23.5,9.1,36.5-6.8
				c0,0,6.2-4.3,6.2-14.2c0,0,15.5-3.7,29.3,20.5l4.3-1.4c0,0,3.7-12.8-21.2-31.3C183.5,558,177.6,563.3,149.7,557.8z"/>
			<path class="st9" d="M119.3,602.1c2.3,0.2,4.4-1.4,5.5-3.4c1.2-2,1.6-4.3,2-6.6c0.2-0.7,0.2-1.4,0-2c-0.2-0.5-0.9-1.1-1.2-1.4
				c-0.7-0.7-1.2-1.4-1.4-2.3c-1.4,3-3,5.7-5.2,8.4c-0.9,1.1-1.6,2.1-2.1,3.4c-0.4,1.2-0.2,2.8,0.9,3.6
				C118,601.9,118.7,602.1,119.3,602.1z"/>
			<path class="st9" d="M199.8,594.3c0.7,0.7,1.6,0.7,2.5,0.9c1.6,0.2,3,0.5,4.6,0.7c1.6,0.2,3.2,0.5,4.6,0c0.9-0.2,1.8-0.7,2-1.6
				c0.4-0.7,0-1.8-0.5-2.3c-0.5-0.7-1.2-1.1-2-1.4c-2-0.9-4.1-1.4-6.4-1.6c-0.5,0-1.2,0-1.8,0.2C200.9,589.5,199.5,592,199.8,594.3z
				"/>
			<path class="st13" d="M158.6,523.1c22.9,18.5,44.3,3.7,44.3,3.7c-25.1,35-51.9,6.9-51.9,6.9l-3.2-3l4.3-11.6L158.6,523.1z"/>
			<path class="st6" d="M180.6,511c0,0,27.6,6.6,34.9-4.6c0,0-3.7,18.7-31.8,21.7L180.6,511z"/>
			<path class="st11" d="M176,513.7c7.8,2.5,11,12.4,18.7,15.1c2-3.2,3.6-6.4,5.2-10c-2.5,0.7-5-0.2-7.1-1.6
				c-2.1-1.4-3.7-3.2-5.7-4.8c-4.3-3.6-9.6-5.9-15.3-6.4c-2.3-0.4-6-0.7-8.4,0.2c-3.2,1.4-0.9,2.5,0.4,5c4.4,7.8,5,18.3,12.1,24.4
				c0.4,0.4,0.7,0.5,1.1,0.7c0.4,0,0.7,0,1.1-0.2c2-0.5,3.7-0.9,5.7-1.4c-3.9-4.4-6.4-10-7.3-15.7c-0.2-1.2-0.4-2.3-0.5-3.4
				c-0.9-3-3.4-5.3-6-6.6s-5.7-1.8-8.5-1.8L176,513.7z"/>
			<path class="st14" d="M255.5,510c0,0-24.5,49.8-7.3,56.6c0,0,11.9,3.9,22.4,2.3c8.4-1.2,14.4-8.9,14-17.4
				c-0.4-10.3-2-30.1-8-38.6L255.5,510z"/>
			<path class="st14" d="M245.9,537.9c0,0-22.6-21.9-2.5-52.6c0,0-7.8,15.3,5.2,40.9L245.9,537.9z"/>
			<g>
				<path class="st6" d="M280,507.5c2.8,3.4,6.6,9.8-5.2,11.9c-0.5,0.2-1.1,0.2-1.6,0.2c-3.2,0-14.8-0.4-23.7-5
					c-1.4-0.7-2.7-2-3-3.4c-1.1-2.8-1.6-7.5,5-9.1c0.4,0,0.5-0.2,0.9-0.2c2.5-0.4,14-1.6,23.3,2.3
					C277.4,505.2,278.8,506.2,280,507.5z"/>
				<path class="st6" d="M253.9,517.8c-8.4,0.7-13.7,10.1-22.1,11c-1.2-3.6-2.3-7.3-3-11c2.3,1.2,5.2,0.9,7.5-0.2
					c2.3-1.1,4.4-2.5,6.8-3.6c5.2-2.7,11-3.7,16.7-3.2c2.5,0.2,6.2,0.5,8.4,2c2.8,2,0.4,2.8-1.6,5c-6.2,6.9-8.9,17.3-17.4,21.9
					c-0.4,0.2-0.9,0.4-1.2,0.4s-0.7-0.2-1.1-0.4c-1.8-0.9-3.6-1.8-5.5-2.7c4.8-3.6,8.5-8.5,10.7-14.2c0.4-1.1,0.7-2.3,1.4-3.4
					c1.6-2.8,4.4-4.6,7.6-5.3c3-0.7,6-0.5,9.1,0L253.9,517.8z"/>
			</g>
			<path class="st12" d="M292.1,490.6c0.2-3.2,0.2-6.4-0.2-9.4c-0.2-2.1-0.5-4.3-1.4-6c-2.8-6-10-8.5-16.4-10.5
				c-5.7-1.6-11.6-3.2-17.6-3s-12.1,2.1-16.2,6.6c-0.9,1.1-1.8,2.3-2,3.6c-0.4,3,2.3,5.5,5.2,6.6c5.2,1.8,10.7,0.5,16-0.2
				c5.3-0.7,10.8-0.7,15.7,1.6c4.8,2.3,8.4,7.6,7.3,12.8c-0.2,1.2-0.7,2.7,0.4,3.6c0.4,0.4,0.9,0.4,1.4,0.5c2.5,0.4,5.3,0,6.8-2.1
				C291.9,493.3,292.1,492,292.1,490.6z"/>
			
				<ellipse transform="matrix(0.1293 -0.9916 0.9916 0.1293 -215.9417 671.9886)" class="st12" cx="274.7" cy="459" rx="10.8" ry="16.7"/>
			<path class="st14" d="M282.7,539.8c0,0,22.1-20.1,4.1-52.3c0,0,6.8,15.8-8,40.4L282.7,539.8z"/>
			<path class="st11" d="M259,461.6c0.2-0.4,0.7-0.5,1.2-0.5c2.8-0.4,5.9,0.7,8.5,1.8c2.3,0.9,4.6,1.6,6.9,2.1
				c2.3,0.5,4.8,0.7,6.9,1.6c1.2,0.5,2.3,1.8,1.4,2.3c-0.7,0.5-1.8,0.4-2.7,0c-5.7-1.4-11.6-2.8-17.3-4.3c-1.8-0.5-3.9-1.1-4.8-2.3
				C259,462.1,258.9,461.8,259,461.6z"/>
		</g>
		
			<ellipse transform="matrix(8.272747e-02 -0.9966 0.9966 8.272747e-02 -300.8899 679.5364)" class="st15" cx="218.7" cy="503.2" rx="4.1" ry="5"/>
		
			<ellipse transform="matrix(8.272747e-02 -0.9966 0.9966 8.272747e-02 -301.2468 679.8647)" class="st0" cx="218.7" cy="503.6" rx="2.7" ry="3.4"/>
		<path class="st16" d="M215.5,497l6-3.9l4.8,5.3l-3.9,2.7c0,0-1.6-2.1-5.5-1.4L215.5,497z"/>
		<path class="st17" d="M206.6,490.1l4.8,13l14.4,3.9c0,0-0.2,13.5-14.9,2.5l-4.3-2.3l0.5-3c0,0-6.8-0.7-8.5-4.1
			c0,0-3.6-8.7,0.9-10.5L206.6,490.1z"/>
	</g>
</g>
<g>
	<path d="M1.7,596.8l0.5,2.7H2c-0.4-1.6-2-2.3-3.6-2.3c-0.2,0-0.5,0-0.9,0.2v4.6h0.5c1.2,0,2.1-0.5,2.1-1.6h0.2v3.7H0.3
		c-0.2-0.9-0.4-1.8-2.1-1.8h-0.7v4.3c0,0.7,0.4,1.1,1.4,1.1v0.2h-4.4v-0.2c1.1,0,1.4-0.4,1.4-1.1v-8.4c0-0.7-0.4-1.1-1.4-1.1V597
		h7.3V596.8z"/>
	<path d="M10.9,596.8l0.5,2.7h-0.2c-0.4-1.6-2-2.3-3.6-2.3c-0.2,0-0.5,0-0.9,0.2v4.6h0.5c1.2,0,2.1-0.5,2.1-1.6h0.2v3.7H9.5
		c-0.2-0.9-0.4-1.8-2.1-1.8H6.7v4.3c0,0.7,0.4,1.1,1.4,1.1v0.2H3.5v-0.2c1.1,0,1.4-0.4,1.4-1.1v-8.4c0-0.7-0.4-1.1-1.4-1.1V597h7.5
		V596.8z"/>
	<path d="M-7.9,596.8v0.2c-0.7,0-1.2,0.4-1.2,1.1v8.4c0,0.7,0.5,1.1,1.2,1.1v0.2h-4.3v-0.2c0.7,0,1.2-0.4,1.2-1.1V598
		c0-0.7-0.5-1.1-1.2-1.1v-0.2H-7.9L-7.9,596.8z"/>
	<path d="M-13.4,593.8l0.5,3.4h-0.2c-0.7-1.8-1.8-2.8-4.1-2.8V606c0,1.2,0.7,1.6,1.4,1.6v0.2h-5.2v-0.2c0.7,0,1.6-0.4,1.6-1.6v-11.7
		c-2.3,0-3.4,1.1-4.3,2.8h-0.2l0.4-3.4H-13.4L-13.4,593.8z"/>
	<path d="M49.3,604.3c0,1.8,1.2,3,3,3c0.7,0,1.6-0.4,2.3-1.1l-3.6-4.6C50.2,601.9,49.3,602.8,49.3,604.3L49.3,604.3z M54.1,597.5
		c0-1.4-0.5-2.1-1.8-2.1s-2,0.7-2,2c0,1.2,1.8,3.2,1.8,3.2C53.6,599.5,54.1,598.7,54.1,597.5L54.1,597.5z M52.5,600.7l3,3.7
		c0,0,0.4-0.5,0.4-1.2c0-0.7-0.4-0.9-0.9-1.1v-0.2h3.4v0.2c-0.5,0.2-1.1,0.4-1.6,0.7c-0.4,0.5-0.5,0.9-0.9,2l1.4,1.8
		c0.5,0.7,1.4,1.1,2.3,1.2v0.2h-3.6v-0.2l-1.1-1.2c-0.9,0.9-2.3,1.6-3.6,1.6c-2.1,0-3.6-1.2-3.6-2.8c0-1.8,1.8-3,3-3.9
		c0,0-1.4-1.6-1.4-3.2c0-1.8,1.2-3,3.2-3c1.6,0,2.8,1.2,2.8,2.7C55.4,599.1,53.4,599.8,52.5,600.7L52.5,600.7z"/>
	<path d="M74.8,593.6l0.2,4.4h-0.2c-0.5-2.5-2.1-3.9-4.3-3.9c-2.5,0-4.3,2.8-4.3,6.8c0,4.8,2,6.8,4.6,6.8s3.7-2.5,4.1-4.4h0.2v2
		c-0.5,0.9-1.8,2.7-4.8,2.7c-3.7,0-6.6-3-6.6-7.1c0-3.7,3.2-7.1,6.6-7.1c2,0,2.5,0.9,3.2,0.9c0.5,0,0.9-0.4,0.9-1.1h0.4V593.6z"/>
	<path d="M88.1,605.9c0.5,0,1.1,0.5,1.1,1.1c0,0.5-0.5,0.9-1.1,0.9c-0.5,0-1.1-0.4-1.1-0.9C87,606.2,87.6,605.9,88.1,605.9
		L88.1,605.9z"/>
	<path d="M78,602.1c0,3.4,1.2,5.5,3.4,5.5c2.1,0,3.4-2,3.4-5.5c0-3.2-1.2-5.2-3.4-5.2C79.2,597,78,599.1,78,602.1L78,602.1z
		 M81.3,596.8c3.2,0,5.9,2.3,5.9,5.7c0,3-2.5,5.5-5.7,5.5c-3.2,0-5.9-2.5-5.9-5.5C75.7,599.3,78.3,596.8,81.3,596.8L81.3,596.8z"/>
	<path d="M15.2,599.1l2,4.6h-3.7L15.2,599.1L15.2,599.1z M21.4,607.6c-0.4,0-0.7-0.4-0.9-0.5c-0.2-0.2-4.4-10.7-4.4-10.7l-3.9,9.6
		c-0.5,1.2-1.1,1.8-2,1.8v0.2h3.2v-0.2c-0.7,0-1.1-0.4-1.1-0.9c0-0.4,1.1-2.8,1.1-2.8h3.9c0,0,1.1,2.3,1.1,2.8
		c0,0.4-0.5,0.9-1.2,0.9v0.2h4.3V607.6L21.4,607.6z"/>
	<path d="M23.2,605.9c0,1.1-0.7,1.4-1.4,1.6v0.2H25v-0.2c-0.9-0.2-1.4-0.9-1.4-1.6v-7.1L31,608v-8.9c0-1.2,0.7-2,1.6-2V597h-3.6v0.2
		c1.1,0.4,1.8,0.9,1.8,2.1v5.5l-6.2-7.8h-3v0.2c1.2,0,1.6,1.1,1.6,1.4L23.2,605.9L23.2,605.9z"/>
	<path d="M33,597.1c0.5,0,0.5,0,0.9,0.7l3.4,5.5v3.2c0,0.7-0.5,1.1-1.6,1.2v0.2h4.8v-0.2c-0.9,0-1.4-0.5-1.4-1.2v-3.9
		c0,0,2.1-3.9,2.3-4.3c0.5-0.9,1.2-1.2,2.1-1.4v-0.2h-3.9v0.2c1.2,0,1.6,1.2,1.1,2l-2,3.7l-2.5-4.3c-0.4-0.7,0.2-1.2,1.1-1.2V597
		h-4.4v0.2H33z"/>
</g>
<g>
	<text transform="matrix(1 0 0 1 -117.6669 144.2634)" class="st18 st19 st20">The </text>
	<text transform="matrix(1 0 0 1 -25.187 144.2634)" class="st18 st21 st20">adventure </text>
	<text transform="matrix(1 0 0 1 140.209 144.2634)" class="st18 st19 st20">continues...</text>
	<text transform="matrix(1 0 0 1 60.5107 185.6836)" class="st18 st19 st22">after the </text>
	<text transform="matrix(1 0 0 1 140.7198 185.6836)" class="st18 st21 st22">dance</text>
	<text transform="matrix(1 0 0 1 78.295 212.5382)" class="st18 st19 st22">after </text>
	<text transform="matrix(1 0 0 1 124.8916 212.5382)" class="st18 st21 st22">today</text>
	<text transform="matrix(1 0 0 1 63.001 239.2149)" class="st18 st19 st22">after </text>
	<text transform="matrix(1 0 0 1 109.4187 239.2149)" class="st18 st21 st22">tomorrow</text>
</g>
</svg>
