<svg xmlns="http://www.w3.org/2000/svg" viewBox="-485 1 792 612" enable-background="new -485 1 792 612"><style type="text/css">.st0{fill:#E1E1E1;} .st1{fill:#DEDEDE;} .st2{fill:#B8B8B8;} .st3{fill:#A7A7A7;} .st4{fill:#C7C7C7;} .st5{fill:#7C7C7C;} .st6{fill:#C0C0C0;} .st7{fill:#C6C6C6;} .st8{fill:#0E0E0E;} .st9{fill:#717171;} .st10{font-family:&apos;Baskerville&apos;;} .st11{font-size:47.0865px;} .st12{font-family:&apos;Baskerville-Italic&apos;;} .st13{font-size:30.3198px;}</style><path class="st0" d="M-485 .8h789.4v610.5h-789.4z" id="sky"/><g id="pisa"><path class="st1" d="M-447 531.2l23.3-112.7s90.2-21.9 160.9 30.1l-9 82.6h-175.2z"/><path class="st2" d="M-260.1 447.6c2.1-1.1 3.9-3.7-.6-10-.5-.6-1.1-1.3-1.9-1.8-9.8-5.6-79.2-44.5-159.6-27-.6.2-1.1.3-1.6.8-1.6 1.1-4.5 4-1.6 7.2 1 1 2.2 1.4 3.7 1.1 12.9-2.6 92.6-16.4 157.5 29.4 1 1 2.6 1.1 4.1.3z"/><path class="st1" d="M-262.9 435.9l6.1-45s-72.2-72.5-154-29.4l-7.6 46.6c.1 0 75-18.2 155.5 27.8z"/><path class="st2" d="M-254.7 389.8c2.6-1.8 6.3-6.1.8-14.5-.2-.3-.3-.5-.6-.8-5.6-4.7-73.8-59-159.9-26.8 0 0-7.6 10.9 3.9 13.7 0 0 71.7-43.7 152.5 28.1.8.9 2.2 1.1 3.3.3z"/><path class="st1" d="M-254.2 374.8l3.2-41s-8-37.4-66.4-46c0 0-61.4-11.4-82.3 21.1l-5.9 35.7s67.4-25.5 151.4 30.2z"/><path class="st2" d="M-249.7 333.8c2.6-.6 7.7-3.2 2.4-14.8 0 0-67.7-74.1-153-24.4-.5.3-1 .6-1.3 1.1-1.4 1.8-4.5 6.4.8 12.2.6.6 1.6.8 2.2.2 5.5-4.7 31.7-24.9 70.4-21.5 0 0 60.4 5 76.8 46.3.1.6.9 1.1 1.7.9z"/><path class="st1" d="M-247.4 319.1l2.4-39.5s-10.9-31.5-69.1-40.5c0 0-55.6-11.2-71.5 21.5l-6.9 29.7c.1 0 69.4-41.5 145.1 28.8z"/><path class="st2" d="M-245.2 279.2c0 .2.2.2.3.2.6-.2 2.1-1 3.4-5.3 1-3.1-1.1-5.1-2.7-7.9-8.8-14.9-41.8-56.7-131.6-30.4-3.4 1-6.4 3.2-8 6.4-2.6 4.8-5.6 12.4-2.7 17 .5.6 1.4.6 1.8 0 2.9-5.3 16.4-23.8 60.4-21.4-.3-.1 60.5 3.8 79.1 41.4zM-241.2 237.3s4.3.2 5.1-10.1c.3-3.2-1.8-5.6-3.4-8.4-8.8-14.9-48.4-54.6-123.9-29.7-3.4 1.1-5.8 3.7-8.2 6.9-3.4 4.5-6.3 11.2-3.4 15.9.5.6 1.4.6 1.8 0 2.9-5.3 16.4-23.8 60.4-21.4.3-.2 53.6 4.8 71.6 46.8z"/><path class="st1" d="M-243.7 267.1l2.6-29.9s-7.6-38.1-64.8-47.4c0 0-50-9.3-67.3 23.1l-2.6 22.7c-.1 0 86.6-27.6 132.1 31.5zM-239.4 218.9l4.3-29.4s-18-41.8-67-41.3c0 0-45.6-4.2-59 24.4l-4.5 17.7s72.4-27.8 126.2 28.6zM-233.8 179.4l4.8-27.3s-10.8-39.4-62-42.4c0 0-49.8-8.5-61.6 28.8l-3.4 16.7c.1.1 70.3-37.5 122.2 24.2zM-243.3 123.3l2.2-24.1s-15.7-27.2-49.5-26.4c0 0-29.1-1.8-37.3 21.1l-4.7 17.5c.1-.1 48.5-21.2 89.3 11.9z"/><path class="st2" d="M-241 99.2s7.1-25.7-44.5-34.2c0 0-40.2-1.8-41.3 26.5 0 0 7.1-20.6 41.3-17.4 0 0 24.7-1.4 44.5 25.1zM-234.9 189.4s1.9-.2 1.9-5.8c0-2.9-.3-4-1.9-6.4-8.8-13.7-44.4-52.1-116.7-25.4-2.9 1.1-5.1 4.5-7.2 7.2-3.2 4.2-7.2 9.3-4.2 13.5.5.6 1.8.5 2.1 0 2.9-5 14.5-24.7 58.5-22.7 0 0 38.1-2.7 67.5 39.6zM-229 152.1s2.2-.6 2.2-6.3c0-2.9-.6-5.1-2.2-7.6-8.8-13.7-47.9-50.5-108.5-25.1-2.9 1.3-6.3 4.5-8.4 7.2-3.2 4.2-9.2 9.6-6.1 13.8.5.6 1 .3 1.4-.3 2.9-5 12.4-25.6 56.4-23.3 0 .3 44.3-1.2 65.2 41.6zM-285.7 531l9-74.1c.2-1.4.2-3.1-.3-4.5-3.4-13.3-9.8-5.6-12.5-1.8-.8 1.1-1.3 2.4-1.4 3.7l-11.7 76.7h16.9zM-312.1 531l11.9-78.7c.8-5.3-.8-10.8-4.7-14.3-2.1-1.9-5-3.4-8.5-3.2-5.6.3-10.3 4.8-11.2 10.4l-15.6 85.8h28.1zM-383.4 531l17.7-89.5c1.1-5.8 5.3-10.8 10.9-12.5l.5-.2c10.4-3.2 20.7 6.1 19 17l-13.7 85.2h-34.4zM-355 408.3l8.4-45.8c.5-3.1 2.6-5.5 5.1-6.4h.2c5-1.6 9.8 3.1 9 8.7l-7.6 45.6-15.1-2.1zM-336 409.1l8.5-43.6c.5-2.9 2.6-5.3 5.1-6.1h.2c5-1.6 9.8 3.1 9 8.4l-8.2 45-14.6-3.7zM-317 414.4l8.4-42.6c.5-2.9 2.6-5.1 5.1-6.1h.2c5-1.6 9.8 2.9 9 8.2l-8 44.8-14.7-4.3zM-299 420.3l8-39.4c.5-2.7 2.6-5 5.1-5.8h.2c5-1.4 9.8 2.9 9 7.9l-7.9 42.4-14.4-5.1zM-375.1 405.8l7.7-44.8c.5-2.7 2.6-5.1 5.1-6.1h.2c5-1.6 9.8 2.9 9 8.2l-7.6 42.7h-14.4zM-394.5 405.8l5.1-42.6c.3-2.7 2.1-5 4.7-6.1h.2c4.8-1.8 9.8 2.1 9.5 7.1l-4.5 41-15 .6zM-412.7 407.1l4.3-37.8c.3-2.4 1.9-4.5 4.2-5.5h.2c4.3-1.8 9 1.6 8.7 6.1l-3.4 35.7-14 1.5zM-267.2 433.8l6.1-38.6c.3-2.4-.6-5-2.6-6.4 0 0-.2 0-.2-.2-3.9-2.7-9.3-.6-10.1 3.9l-6.4 36.6 13.2 4.7zM-419.7 531l17-91.6c.6-3.5 2.6-6.7 5.3-9.2 4.7-4 12.1-8 18.6-1.3 3.7 3.7 5.1 9.3 4.2 14.5l-16.1 87.6h-29zM-428.1 531l16.1-92.2c.5-2.9 0-5.9-1.4-8.5-2.6-4.5-7.2-8.8-13 3.1l-20.6 97.6h18.9zM-344 340.8l7.4-40.3c.5-2.6 2.2-4.8 4.5-5.6h.2c4.3-1.4 8.7 2.7 7.9 7.7l-6.6 40-13.4-1.8zM-324.6 344.8l7.4-38.6c.5-2.6 2.2-4.7 4.5-5.5h.2c4.3-1.4 8.7 2.6 7.9 7.2l-7.2 39.7-12.8-2.8zM-307.4 350.2l7.4-37.6c.5-2.6 2.2-4.7 4.5-5.3h.2c4.3-1.4 8.7 2.6 7.9 7.2l-7.1 39.5-12.9-3.8zM-290.2 356.8l7.1-34.7c.5-2.4 2.2-4.3 4.5-5.1h.2c4.3-1.3 8.7 2.4 7.9 6.9l-6.9 37.4-12.8-4.5zM-362.7 340.9l6.9-39.5c.5-2.4 2.2-4.5 4.5-5.3h.2c4.3-1.4 8.7 2.6 7.9 7.2l-6.6 37.8h-12.9v-.2zM-381.2 340.8l4.5-37.6c.3-2.4 1.9-4.5 4.2-5.3h.2c4.2-1.6 8.7 1.8 8.4 6.3l-4 36.2-13.3.4zM-398.8 343.5l3.9-33.3c.3-2.1 1.6-4 3.7-4.8h.2c3.9-1.4 8 1.4 7.7 5.3l-3.2 31.7-12.3 1.1zM-262.2 370.2l5.5-34.1c.3-2.1-.5-4.3-2.2-5.8 0 0-.2 0-.2-.2-3.4-2.4-8.2-.5-8.8 3.4l-5.6 32.3 11.3 4.4zM-330.2 279.2l6.1-33.3c.3-2.2 1.8-4 3.7-4.7h.2c3.7-1.3 7.1 2.2 6.6 6.3l-5.5 33.3-11.1-1.6zM-312.7 284.2l6.1-32.5c.3-2.1 1.8-3.9 3.7-4.5h.2c3.7-1.1 7.1 2.2 6.6 6.1l-5.9 33.4-10.7-2.5zM-295.7 290.1l6.1-31c.3-2.1 1.8-3.9 3.7-4.5h.2c3.7-1.1 7.1 2.1 6.6 5.9l-5.8 32.6-10.8-3zM-279.6 299.3l5.8-28.8c.3-1.9 1.8-3.5 3.7-4.2h.2c3.7-1.1 7.1 2.1 6.6 5.6l-5.8 31-10.5-3.6zM-348.7 279.5l5.6-32.6c.3-2.1 1.8-3.7 3.7-4.3h.2c3.7-1.1 7.1 2.1 6.6 5.9l-5.5 31.2h-10.6v-.2zM-367 282.3l3.7-31c.3-1.9 1.6-3.7 3.4-4.5h.2c3.5-1.3 7.2 1.4 6.9 5.1l-3.2 29.9-11 .5zM-383.4 286.6l3.2-27.5c.2-1.8 1.3-3.2 3.1-4h.2c3.2-1.3 6.6 1.3 6.3 4.5l-2.6 26.2-10.2.8zM-254.4 312.8l4.5-28.1c.3-1.8-.5-3.5-1.9-4.7l-.2-.2c-2.7-2.1-6.7-.5-7.4 2.7l-4.7 26.7 9.7 3.6zM-328.3 229.7l5.5-29.7c.3-1.9 1.6-3.5 3.4-4.2h.2c3.2-1.1 6.4 2.1 5.8 5.6l-5 29.7-9.9-1.4zM-312.7 231.8l5.5-28.9c.3-1.9 1.6-3.5 3.4-4h.2c3.2-1.1 6.4 1.9 5.8 5.5l-5.5 29.7-9.4-2.3zM-297.9 234.4l5.5-27.6c.3-1.8 1.6-3.4 3.4-4h.2c3.2-1 6.4 1.9 5.8 5.3l-5.1 29.1-9.8-2.8zM-283.1 239.7l5.1-25.6c.3-1.8 1.6-3.2 3.4-3.9h.2c3.2-1 6.4 1.8 5.8 5.1l-5.1 27.6-9.4-3.2zM-342.7 230.7l5-29.1c.3-1.8 1.6-3.4 3.4-3.9h.2c3.2-1 6.4 1.9 5.8 5.3l-5 27.8h-9.3v-.1zM-356.9 232.3l3.4-27.6c.2-1.8 1.4-3.2 3.1-4h.2c3.1-1.1 6.4 1.3 6.1 4.5l-2.9 26.7-9.9.4zM-371.2 234.8l2.9-24.6c.2-1.6 1.3-2.9 2.7-3.5h.2c2.9-1.1 5.9 1.1 5.6 4l-2.2 23.3-9.2.8zM-260.9 250l4-25.1c.3-1.6-.3-3.2-1.6-4.2h-.2c-2.4-1.8-5.9-.5-6.6 2.6l-4.2 23.8 8.6 2.9z"/><path class="st3" d="M-249.2 260.9l4-25.1c.3-1.6-.3-3.2-1.6-4.2h-.2c-2.4-1.8-5.9-.5-6.6 2.6l-4.2 23.8 8.6 2.9z"/><path class="st2" d="M-315.1 184.1l4.8-26.5c.3-1.8 1.4-3.2 3.1-3.7h.2c2.9-1 5.6 1.8 5.1 5l-4.3 26.5-8.9-1.3zM-300.2 186.6l4.8-25.9c.3-1.8 1.4-3.1 3.1-3.7h.2c2.9-1 5.6 1.8 5.1 5l-4.8 26.7-8.4-2.1zM-286.7 191l4.8-24.7c.3-1.6 1.4-3.1 3.1-3.5h.2c2.9-1 5.6 1.8 5.1 4.8l-4.7 26-8.5-2.6zM-273.8 196l4.7-22.8c.3-1.6 1.4-2.9 3.1-3.4h.2c2.9-.8 5.6 1.6 5.1 4.5l-4.7 24.7-8.4-3zM-330.4 184.2l4.5-26c.3-1.6 1.4-3.1 3.1-3.5h.2c2.9-1 5.6 1.8 5.1 4.7l-4.3 24.9c-.1-.1-8.6-.1-8.6-.1zM-344.4 186.3l3.1-24.7c.2-1.6 1.3-2.9 2.7-3.5h.2c2.7-1.1 5.8 1.1 5.5 4l-2.6 23.8-8.9.4zM-357.9 190.7l2.6-22c.2-1.4 1.1-2.6 2.4-3.2h.2c2.6-1 5.3 1 5.1 3.5l-2.1 20.9-8.2.8zM-254.4 206.4l3.5-22.5c.2-1.4-.3-2.9-1.4-3.7h-.2c-2.2-1.6-5.3-.3-5.9 2.2l-3.7 21.2 7.7 2.8zM-243.1 214.9l3.5-22.5c.2-1.4-.3-2.9-1.4-3.7h-.2c-2.2-1.6-5.3-.3-5.9 2.2l-3.7 21.2 7.7 2.8zM-314 145.2l4-22c.3-1.4 1.3-2.6 2.6-3.1h.2c2.4-.8 4.7 1.4 4.3 4.2l-3.7 22-7.4-1.1zM-301.9 144.5l4-21.5c.3-1.4 1.3-2.6 2.6-3.1h.2c2.4-.8 4.7 1.4 4.3 4l-4 22.2-7.1-1.6zM-290.8 145.8l4-20.6c.3-1.3 1.3-2.6 2.6-2.9h.2c2.4-.8 4.7 1.4 4.3 4l-3.9 21.7-7.2-2.2zM-279.1 148.9l3.9-19c.3-1.3 1.3-2.4 2.6-2.7h.2c2.4-.6 4.7 1.3 4.3 3.9l-3.9 20.6-7.1-2.8zM-325.9 146.1l3.7-21.7c.3-1.3 1.3-2.4 2.6-2.9h.2c2.4-.8 4.7 1.4 4.3 3.9l-3.7 20.7h-7.1zM-337.1 148.7l2.4-20.6c.2-1.3 1-2.4 2.2-2.9h.2c2.2-.8 4.8 1 4.5 3.4l-2.2 19.8-7.1.3zM-348.5 152.2l2.1-18.2c.2-1.1 1-2.2 2.1-2.6h.2c2.1-.8 4.3.8 4.2 2.9l-1.8 17.4-6.8.5zM-262.1 156.3l3.1-18.6c.2-1.1-.3-2.4-1.3-3.1-1.8-1.3-4.5-.3-4.8 1.9l-3.1 17.7 6.1 2.1zM-252.6 161.6l3.1-18.6c.2-1.1-.3-2.4-1.3-3.1-1.8-1.3-4.5-.3-4.8 1.9l-3.1 17.7 6.1 2.1zM-244.4 169l3.1-18.6c.2-1.1-.3-2.4-1.3-3.1-1.8-1.3-4.5-.3-4.8 1.9l-3.1 17.7 6.1 2.1zM-236.7 176.5l3.1-18.6c.2-1.1-.3-2.4-1.3-3.1-1.8-1.3-4.5-.3-4.8 1.9l-3.1 17.7 6.1 2.1zM-262.2 111.9l1.6-15.9c.2-2.4-.8-4.8-2.7-6.1-1.3-.8-2.9-1.3-4.8-.3s-3.2 2.9-3.5 5l-2.1 13.2 11.5 4.1zM-319.1 107.6l1.4-15.9c.2-2.4 1.6-4.5 3.9-5.5 1.4-.6 3.1-.6 4.8.6 1.8 1.3 2.6 3.4 2.6 5.5l-.5 13.3-12.2 2z"/></g><g id="grass"><path class="st4" d="M-482.8 523.3c24.6-5.3 50.1-1.6 75.2 1.1 60.4 6.6 121.7 7.4 182.2 2.4 32.3-2.6 64.4-6.9 96.9-6.7 34.6.2 368.6 5.5 402.8 8.2l41.6 3.5v81.2h-799.6l.9-89.7z"/><path d="M283.6 453.8h25.1v77.9h-25.1z"/><path class="st5" d="M307.4 239.5c-11.2-6.8-19.9-17.5-59.1 35.5-2.9 3.9-6.3 7.3-10.7 9.1-16.2 6.3-53.6 26.7-29.5 69.8 3.1 5.5 3.9 11.8 2.4 17.8-8.4 30.1-26.1 120.2 77.6 86 4.4-1.6 15.9-5 20.4-3.7"/></g><g id="couple"><path d="M78.8 530l7.1 44.6s2.9 3.7 4.2-1.8l5.8-41.5-17.1-1.3zM97.6 531.7l7.1 44.6s2.9 3.7 4.2-1.8l3.7-47.3-15 4.5zM-12.5 528.5l7.1 44.6s2.9 3.7 4.2-1.8l5.8-41.5-17.1-1.3zM6.2 530l7.1 44.6s2.9 3.7 4.2-1.8l3.7-47.3-15 4.5z"/><ellipse class="st6" cx="11.3" cy="436.5" rx="29.5" ry="26.2"/><ellipse transform="matrix(.086 -.996 .996 .086 -349.2 495.714)" class="st6" cx="95.5" cy="438.2" rx="26.2" ry="29.5"/><path class="st7" d="M24.6 459.8c3.8 3.4 9 10.3-4.1 14.5-.5.1-1.2.3-1.9.4-3.7.5-17 1.9-28-2.2-1.9-.7-3.3-1.9-4.1-3.4-1.6-3.1-2.9-8.4 4.3-11.3.3-.1.7-.3 1-.3 2.9-.7 16-3.8 27.3-.8 2.2.6 4 1.7 5.5 3.1z"/><path class="st8" d="M20.5 474s21.2 56 2.4 56.7c0 0-52.3 7.5-43.9-15.2l11.6-43.6c0 .1 10.5 6.8 29.9 2.1z"/><path d="M24.2 447.4c-1.2 1.6-2.7 3.3-3.5 5.2s-.8 4.3.5 5.8c1.5 1.5 3.8 1.6 5.8 1.5 4.6-.3 9.5-1.2 12.9-4.2 4.2-3.5 5.6-9.4 6.5-14.8 1.8-10.9 1.9-22.7-3.8-32.1.8 3.5 1.1 7.1.8 10.7-3-.5-5.4-2.6-7.9-4.3-8.8-6.5-19.3-10.9-30.3-11.4-10.9-.7-22.2-.4-30.7 6.5 5.4-1 11.1 1.9 16.6 2.6-5.4 0-11.7-1.2-16.6 1.2 9.1 1.8 11.7 8.3 17.1 11.1 3.1 1.6 6.3 3.3 9.7 4.1 3.3.7 6.5.7 9.9.8 4.5.3 9 .8 13.5 1.8 1 .3 2 .5 2.7 1.2.8 1 .8 2.3.7 3.5-.3 4-1.7 7.7-3.9 10.8zM23.6 480.3c9.1 25.1 32.6 23.7 32.6 23.7-35.9 15.5-43.5-19-43.5-19l-1-3.8 8.7-6.9 3.2 6z"/><path class="st9" d="M76.5 481.5c-9.1 25.1-32.6 23.7-32.6 23.7 35.9 15.5 43.5-19 43.5-19l1-3.8-8.7-6.9-3.2 6z"/><path class="st7" d="M-4.1 475.5c-9.5 2-14.4 13.9-23.8 16.2-1.9-3.9-3.7-8.2-5.2-12.4 2.9 1 6 .3 8.6-1.2 2.6-1.5 4.9-3.5 7.3-5.2 5.4-3.8 12.1-6 18.8-6.3 2.9-.1 7.3-.3 9.9 1.1 3.7 1.9.8 3.1-1.1 6-6.1 9-7.7 21.3-17 28-.4.3-1 .5-1.4.7-.4 0-.8-.1-1.4-.3l-6.7-2.2c5-4.9 8.6-11.3 10.2-18.1.3-1.4.5-2.7 1.1-4.1 1.4-3.4 4.5-6 8-7.3 3.3-1.2 6.9-1.5 10.5-1.4l-17.8 6.5z"/><path class="st9" d="M84.4 468.9s-26.1 59.1-5.7 66.2c0 0 14.1 3.9 26.2 1.5 9.8-2 16.3-11.1 15.5-21.1-1-12-3.7-34.9-11.4-44.6l-24.6-2z"/><path class="st8" d="M112.7 464.7c3.5 3.8 8.2 11.1-5.3 14.1-.5.1-1.2.3-1.9.3-3.8.1-17.1.4-27.7-4.5-1.8-.8-3.1-2.2-3.8-3.8-1.4-3.3-2.2-8.7 5.3-10.9.3-.1.7-.1 1-.3 2.9-.5 16.3-2.4 27.3 1.6 2.1.9 3.7 2.1 5.1 3.5zM82.9 478c-9.7 1.2-15.5 12.5-25.1 14-1.6-4.1-3-8.4-4.1-12.6 2.7 1.2 6 .7 8.7-.5 2.7-1.2 5.2-3.1 7.7-4.6 5.8-3.4 12.6-4.9 19.3-4.6 2.9.1 7.3.4 9.8 1.9 3.4 2.2.5 3.3-1.5 5.8-6.8 8.4-9.5 20.7-19.3 26.4-.4.3-1 .5-1.5.5-.4 0-.8-.1-1.2-.4-2.2-1-4.3-1.9-6.5-2.7 5.4-4.5 9.5-10.5 11.7-17.1.4-1.4.8-2.7 1.4-3.9 1.6-3.3 5-5.6 8.6-6.5 3.4-1 7.1-.8 10.6-.4l-18.6 4.7z"/><path d="M126.1 444.4c.1-3.7-.1-7.3-.7-11-.4-2.4-1-4.9-2-7.1-3.5-6.9-12.1-9.5-19.6-11.3-6.8-1.6-13.6-3.1-20.7-2.7-6.9.4-14 3-18.5 8.4-1.1 1.2-1.9 2.7-2 4.3-.3 3.5 3 6.3 6.4 7.3 6 1.9 12.5.1 18.6-1 6.1-1.1 12.6-1.4 18.3 1.1 5.7 2.4 10.2 8.6 9.2 14.7-.3 1.5-.7 3.3.5 4.1.5.4 1.1.4 1.8.5 2.9.3 6.3-.3 7.7-2.9.9-1.1.9-2.8 1-4.4z"/><ellipse transform="matrix(.086 -.996 .996 .086 -311.721 477.04)" cx="104.1" cy="408.4" rx="12.5" ry="19.4"/><path class="st7" d="M86 412.3c.1-.4.8-.7 1.5-.8 3.4-.5 6.8.7 10.1 1.6 2.7.8 5.4 1.6 8.3 2 2.7.4 5.6.7 8.2 1.6 1.4.5 2.7 1.9 1.8 2.7-.7.7-2 .4-3.1.3l-20.4-4.1c-2.2-.4-4.6-1-5.7-2.4-.7-.2-.8-.6-.7-.9z"/><path d="M-14 495.2s-28.7-6.5-32.6-26.4c0 0 31.4 21.1 35.6 10.3l-3 16.1z"/><path class="st9" d="M112.7 477.2s27 31.4 24.6 39c0 0-21.7-25.7-20.9-16.7l-3.7-22.3z"/></g><g id="logo"><path d="M-105.7 590.5l.5 3.1h-.3c-.5-1.9-2.2-2.7-4-2.7-.3 0-.6 0-1 .2v5.3h.6c1.6 0 2.4-.6 2.4-1.8h.3v4.3h-.2c-.2-1-.5-2.1-2.4-2.1h-.8v5c0 .8.3 1.3 1.6 1.3v.3h-5.3v-.4c1.1 0 1.6-.5 1.6-1.3v-9.6c0-.8-.5-1.3-1.6-1.3v-.3h8.6zM-95.1 590.5l.5 3.1h-.3c-.5-1.9-2.2-2.7-4-2.7-.3 0-.6 0-1 .2v5.3h.6c1.6 0 2.4-.6 2.4-1.8h.3v4.3h-.2c-.2-1-.5-2.1-2.4-2.1h-.8v5c0 .8.3 1.3 1.6 1.3v.3h-5.3v-.4c1.1 0 1.6-.5 1.6-1.3v-9.6c0-.8-.5-1.3-1.6-1.3v-.3h8.6zM-116.8 590.5v.3c-1 0-1.4.5-1.4 1.3v9.6c0 1 .6 1.3 1.4 1.3v.3h-5v-.3c1 0 1.4-.5 1.4-1.3v-9.6c0-.8-.5-1.3-1.4-1.3v-.3h5zM-123.2 587l.5 3.9h-.2c-.8-1.9-2.1-3.4-4.8-3.4v13.5c0 1.4.8 1.9 1.8 1.9v.3h-5.9v-.3c.8 0 1.8-.5 1.8-1.9v-13.5c-2.7 0-4 1.3-4.8 3.4h-.2l.5-3.9h11.3zM-50.6 599c0 1.9 1.4 3.5 3.5 3.5 1 0 1.9-.5 2.7-1.3l-4.2-5.3c-1 .4-2 1.5-2 3.1zm5.7-7.9c0-1.6-.6-2.4-2.1-2.4-1.4 0-2.2.8-2.2 2.2 0 1.6 2.1 3.7 2.1 3.7 1.5-1 2.2-2 2.2-3.5zm-2 3.7l3.5 4.5s.3-.6.5-1.4c0-.8-.5-1.1-1.1-1.3v-.2h3.9v.2c-.6.2-1.3.3-1.8.8s-.6 1-1.1 2.2l1.6 1.9c.6.8 1.6 1.3 2.7 1.3v.3h-4.3v-.3l-1.1-1.4c-1 1-2.6 1.9-4.2 1.9-2.6 0-4.2-1.4-4.2-3.4 0-2.1 1.9-3.5 3.5-4.5 0 0-1.8-1.9-1.8-3.7 0-1.9 1.6-3.5 3.7-3.5 1.9 0 3.4 1.3 3.4 3.1.1 1.9-2 2.7-3.2 3.5zM-21.1 586.6l.2 5.1h-.3c-.5-2.9-2.4-4.5-4.8-4.5-2.9 0-4.8 3.4-4.8 7.9 0 5.6 2.2 7.9 5.3 7.9 3.2 0 4.5-2.9 4.7-5.1h.3v2.2c-.5 1-2.1 3.1-5.5 3.1-4.2 0-7.6-3.5-7.6-8.2 0-4.2 3.7-8.2 7.6-8.2 2.2 0 2.9 1 3.7 1 .6 0 1-.5 1-1.3h.3v.1zM-5.6 600.9c.6 0 1.1.5 1.1 1.1 0 .6-.5 1.1-1.1 1.1s-1.1-.5-1.1-1.1c-.1-.6.5-1.1 1.1-1.1zM-17.3 596.6c0 4 1.6 6.4 4 6.4s4-2.2 4-6.4c0-3.9-1.3-5.9-4-5.9-2.5 0-4 2.5-4 5.9zm4-6.3c3.7 0 6.7 2.7 6.7 6.4 0 3.5-2.9 6.4-6.6 6.4s-6.7-2.9-6.7-6.4c-.1-3.3 2.9-6.4 6.6-6.4zM-89.9 593.2l2.2 5.3h-4.3l2.1-5.3zm7 9.8c-.5 0-.8-.5-1.1-.6-.2-.3-5.1-12.5-5.1-12.5l-4.5 11.1c-.5 1.4-1.3 2.1-2.2 2.1v.3h3.7v-.4c-.8 0-1.3-.5-1.3-1s1.1-3.2 1.1-3.2h4.5s1.3 2.7 1.3 3.2-.6 1-1.3 1v.3h4.8v-.3h.1zM-80.8 600.9c0 1.1-.8 1.8-1.6 1.9v.3h3.7v-.3c-1.1-.2-1.6-1-1.6-1.9v-8.4l8.7 10.8v-10.4c0-1.4.8-2.4 1.8-2.4h-4.2v.2c1.1.3 1.9 1.1 1.9 2.4v6.4l-7.2-9h-3.4v.2c1.4 0 1.9 1.3 1.9 1.6v8.6zM-69.4 590.8c.5 0 .6 0 1.1.8 0 0 4 6.3 4 6.4v3.9c0 .8-.6 1.3-1.8 1.3v.2h5.5v-.2c-1 0-1.6-.5-1.6-1.3v-4.5s2.6-4.5 2.7-5c.6-1 1.4-1.6 2.4-1.6v-.3h-4.5v.2c1.4 0 1.8 1.3 1.3 2.2l-2.2 4.2-3.1-5c-.5-.8.2-1.4 1.1-1.4v-.2h-5.1v.3h.2z"/><text transform="translate(-237.957 57.811)" class="st10 st11">The</text><text transform="translate(-147.637 57.811)" class="st12 st11">adventure</text><text transform="translate(13.717 57.811)" class="st10 st11">continues...</text><text transform="translate(10.326 107.532)" class="st10 st13">after the</text><text transform="translate(119.288 107.532)" class="st12 st13">dance</text><text transform="translate(34.433 143.853)" class="st10 st13">after</text><text transform="translate(97.593 143.853)" class="st12 st13">today</text><text transform="translate(13.701 180.334)" class="st10 st13">after</text><text transform="translate(76.861 180.334)" class="st12 st13">tomorrow</text></g></svg>