<?xml version="1.0" encoding="utf-8"?>
<!-- Generator: Adobe Illustrator 19.1.0, SVG Export Plug-In . SVG Version: 6.00 Build 0)  -->
<svg version="1.1" xmlns="http://www.w3.org/2000/svg" xmlns:xlink="http://www.w3.org/1999/xlink" x="0px" y="0px"
	 viewBox="0 0 306 378" style="enable-background:new 0 0 306 378;" xml:space="preserve">
<style type="text/css">
	.st0{fill:#E1E1E1;}
	.st1{fill:#DEDEDE;}
	.st2{fill:#B8B8B8;}
	.st3{fill:#A7A7A7;}
	.st4{fill:#C7C7C7;}
	.st5{fill:#7C7C7C;}
	.st6{fill:#C0C0C0;}
	.st7{fill:#C6C6C6;}
	.st8{fill:#0E0E0E;}
	.st9{fill:#717171;}
	.st10{fill-rule:evenodd;clip-rule:evenodd;}
	.st11{font-family:'Baskerville';}
	.st12{font-size:29.2988px;}
	.st13{font-family:'Baskerville-Italic';}
	.st14{font-size:18.866px;}
</style>
<g id="sky">
	<rect x="-0.8" y="-2.9" class="st0" width="307.6" height="379.9"/>
</g>
<g id="pisa">
	<g>
		<path class="st1" d="M2.6,327.1l14.5-70.1c0,0,56.1-13.6,100.1,18.7l-5.6,51.4H2.6z"/>
		<path class="st2" d="M118.9,275.1c1.3-0.7,2.4-2.3-0.4-6.2c-0.3-0.4-0.7-0.8-1.2-1.1C111.2,264.3,68,240.1,18,251
			c-0.4,0.1-0.7,0.2-1,0.5c-1,0.7-2.8,2.5-1,4.5c0.6,0.6,1.4,0.9,2.3,0.7c8-1.6,57.6-10.2,98,18.3C117,275.5,118,275.6,118.9,275.1z
			"/>
		<path class="st1" d="M117.2,267.8l3.8-28c0,0-44.9-45.1-95.8-18.3l-4.7,29C20.5,250.5,67.1,239.2,117.2,267.8z"/>
		<path class="st2" d="M122.3,239.1c1.6-1.1,3.9-3.8,0.5-9c-0.1-0.2-0.2-0.3-0.4-0.5c-3.5-2.9-45.9-36.7-99.5-16.7
			c0,0-4.7,6.8,2.4,8.5c0,0,44.6-27.2,94.9,17.5C120.7,239.5,121.6,239.6,122.3,239.1z"/>
		<path class="st1" d="M122.6,229.8l2-25.5c0,0-5-23.3-41.3-28.6c0,0-38.2-7.1-51.2,13.1L28.4,211C28.4,211,70.3,195.1,122.6,229.8z
			"/>
		<path class="st2" d="M125.4,204.3c1.6-0.4,4.8-2,1.5-9.2c0,0-42.1-46.1-95.2-15.2c-0.3,0.2-0.6,0.4-0.8,0.7
			c-0.9,1.1-2.8,4,0.5,7.6c0.4,0.4,1,0.5,1.4,0.1c3.4-2.9,19.7-15.5,43.8-13.4c0,0,37.6,3.1,47.8,28.8
			C124.4,204.1,124.9,204.4,125.4,204.3z"/>
		<path class="st1" d="M126.8,195.1l1.5-24.6c0,0-6.8-19.6-43-25.2c0,0-34.6-7-44.5,13.4l-4.3,18.5
			C36.6,177.2,79.7,151.4,126.8,195.1z"/>
		<path class="st2" d="M128.2,170.3c0,0.1,0.1,0.1,0.2,0.1c0.4-0.1,1.3-0.6,2.1-3.3c0.6-1.9-0.7-3.2-1.7-4.9
			c-5.5-9.3-26-35.3-81.9-18.9c-2.1,0.6-4,2-5,4c-1.6,3-3.5,7.7-1.7,10.6c0.3,0.4,0.9,0.4,1.1,0c1.8-3.3,10.2-14.8,37.6-13.3
			C78.8,144.5,116.6,146.9,128.2,170.3z"/>
		<path class="st2" d="M130.7,144.2c0,0,2.7,0.1,3.2-6.3c0.2-2-1.1-3.5-2.1-5.2c-5.5-9.3-30.1-34-77.1-18.5
			c-2.1,0.7-3.6,2.3-5.1,4.3c-2.1,2.8-3.9,7-2.1,9.9c0.3,0.4,0.9,0.4,1.1,0c1.8-3.3,10.2-14.8,37.6-13.3
			C86.3,115,119.5,118.1,130.7,144.2z"/>
		<path class="st1" d="M129.1,162.8l1.6-18.6c0,0-4.7-23.7-40.3-29.5c0,0-31.1-5.8-41.9,14.4l-1.6,14.1
			C46.9,143.2,100.8,126,129.1,162.8z"/>
		<path class="st1" d="M131.8,132.8l2.7-18.3c0,0-11.2-26-41.7-25.7c0,0-28.4-2.6-36.7,15.2L53.3,115
			C53.3,115,98.3,97.7,131.8,132.8z"/>
		<path class="st1" d="M135.3,108.2l3-17c0,0-6.7-24.5-38.6-26.4c0,0-31-5.3-38.3,17.9l-2.1,10.4C59.3,93.2,103,69.8,135.3,108.2z"
			/>
		<path class="st1" d="M129.4,73.3l1.4-15c0,0-9.8-16.9-30.8-16.4c0,0-18.1-1.1-23.2,13.1l-2.9,10.9C73.9,65.8,104,52.7,129.4,73.3z
			"/>
		<path class="st2" d="M130.8,58.3c0,0,4.4-16-27.7-21.3c0,0-25-1.1-25.7,16.5c0,0,4.4-12.8,25.7-10.8
			C103.1,42.7,118.5,41.8,130.8,58.3z"/>
		<path class="st2" d="M134.6,114.4c0,0,1.2-0.1,1.2-3.6c0-1.8-0.2-2.5-1.2-4C129.1,98.3,107,74.4,62,91c-1.8,0.7-3.2,2.8-4.5,4.5
			c-2,2.6-4.5,5.8-2.6,8.4c0.3,0.4,1.1,0.3,1.3,0c1.8-3.1,9-15.4,36.4-14.1C92.6,89.8,116.3,88.1,134.6,114.4z"/>
		<path class="st2" d="M138.3,91.2c0,0,1.4-0.4,1.4-3.9c0-1.8-0.4-3.2-1.4-4.7c-5.5-8.5-29.8-31.4-67.5-15.6
			c-1.8,0.8-3.9,2.8-5.2,4.5c-2,2.6-5.7,6-3.8,8.6c0.3,0.4,0.6,0.2,0.9-0.2c1.8-3.1,7.7-15.9,35.1-14.5
			C97.7,65.5,125.3,64.6,138.3,91.2z"/>
		<path class="st2" d="M103,327l5.6-46.1c0.1-0.9,0.1-1.9-0.2-2.8c-2.1-8.3-6.1-3.5-7.8-1.1c-0.5,0.7-0.8,1.5-0.9,2.3L92.4,327H103z
			"/>
		<path class="st2" d="M86.6,327l7.4-49c0.5-3.3-0.5-6.7-2.9-8.9c-1.3-1.2-3.1-2.1-5.3-2c-3.5,0.2-6.4,3-7,6.5L69.1,327H86.6z"/>
		<path class="st2" d="M42.2,327l11-55.7c0.7-3.6,3.3-6.7,6.8-7.8c0.1,0,0.2-0.1,0.3-0.1c6.5-2,12.9,3.8,11.8,10.6L63.6,327H42.2z"
			/>
		<path class="st2" d="M59.9,250.6l5.2-28.5c0.3-1.9,1.6-3.4,3.2-4c0,0,0.1,0,0.1,0c3.1-1,6.1,1.9,5.6,5.4l-4.7,28.4L59.9,250.6z"/>
		<path class="st2" d="M71.7,251.1L77,224c0.3-1.8,1.6-3.3,3.2-3.8c0,0,0.1,0,0.1,0c3.1-1,6.1,1.9,5.6,5.2l-5.1,28L71.7,251.1z"/>
		<path class="st2" d="M83.5,254.4l5.2-26.5c0.3-1.8,1.6-3.2,3.2-3.8c0,0,0.1,0,0.1,0c3.1-1,6.1,1.8,5.6,5.1l-5,27.9L83.5,254.4z"/>
		<path class="st2" d="M94.7,258.1l5-24.5c0.3-1.7,1.6-3.1,3.2-3.6c0,0,0.1,0,0.1,0c3.1-0.9,6.1,1.8,5.6,4.9l-4.9,26.4L94.7,258.1z"
			/>
		<path class="st2" d="M47.4,249.1l4.8-27.9c0.3-1.7,1.6-3.2,3.2-3.8c0,0,0.1,0,0.1,0c3.1-1,6.1,1.8,5.6,5.1l-4.7,26.6H47.4z"/>
		<path class="st2" d="M35.3,249.1l3.2-26.5c0.2-1.7,1.3-3.1,2.9-3.8c0,0,0.1,0,0.1,0c3-1.1,6.1,1.3,5.9,4.4l-2.8,25.5L35.3,249.1z"
			/>
		<path class="st2" d="M24,249.9l2.7-23.5c0.2-1.5,1.2-2.8,2.6-3.4c0,0,0.1,0,0.1,0c2.7-1.1,5.6,1,5.4,3.8L32.7,249L24,249.9z"/>
		<path class="st2" d="M114.5,266.5l3.8-24c0.2-1.5-0.4-3.1-1.6-4c0,0-0.1,0-0.1-0.1c-2.4-1.7-5.8-0.4-6.3,2.4l-4,22.8L114.5,266.5z
			"/>
		<path class="st2" d="M19.6,327l10.6-57c0.4-2.2,1.6-4.2,3.3-5.7c2.9-2.5,7.5-5,11.6-0.8c2.3,2.3,3.2,5.8,2.6,9l-10,54.5H19.6z"/>
		<path class="st2" d="M14.4,327l10-57.4c0.3-1.8,0-3.7-0.9-5.3c-1.6-2.8-4.5-5.5-8.1,1.9L2.6,327H14.4z"/>
		<path class="st2" d="M66.7,208.6l4.6-25.1c0.3-1.6,1.4-3,2.8-3.5c0,0,0.1,0,0.1,0c2.7-0.9,5.4,1.7,4.9,4.8L75,209.7L66.7,208.6z"
			/>
		<path class="st2" d="M78.8,211.1l4.6-24c0.3-1.6,1.4-2.9,2.8-3.4c0,0,0.1,0,0.1,0c2.7-0.9,5.4,1.6,4.9,4.5l-4.5,24.7L78.8,211.1z"
			/>
		<path class="st2" d="M89.5,214.5l4.6-23.4c0.3-1.6,1.4-2.9,2.8-3.3c0,0,0.1,0,0.1,0c2.7-0.9,5.4,1.6,4.9,4.5l-4.4,24.6L89.5,214.5
			z"/>
		<path class="st2" d="M100.2,218.6l4.4-21.6c0.3-1.5,1.4-2.7,2.8-3.2c0,0,0.1,0,0.1,0c2.7-0.8,5.4,1.5,4.9,4.3l-4.3,23.3
			L100.2,218.6z"/>
		<path class="st2" d="M55.1,208.7l4.3-24.6c0.3-1.5,1.4-2.8,2.8-3.3c0,0,0.1,0,0.1,0c2.7-0.9,5.4,1.6,4.9,4.5l-4.1,23.5H55.1z"/>
		<path class="st2" d="M43.6,208.6l2.8-23.4c0.2-1.5,1.2-2.8,2.6-3.3c0,0,0.1,0,0.1,0c2.6-1,5.4,1.1,5.2,3.9l-2.5,22.5L43.6,208.6z"
			/>
		<path class="st2" d="M32.6,210.3l2.4-20.7c0.2-1.3,1-2.5,2.3-3c0,0,0.1,0,0.1,0c2.4-0.9,5,0.9,4.8,3.3l-2,19.7L32.6,210.3z"/>
		<path class="st2" d="M117.6,226.9l3.4-21.2c0.2-1.3-0.3-2.7-1.4-3.6c0,0-0.1,0-0.1-0.1c-2.1-1.5-5.1-0.3-5.5,2.1l-3.5,20.1
			L117.6,226.9z"/>
		<path class="st2" d="M75.3,170.3l3.8-20.7c0.2-1.4,1.1-2.5,2.3-2.9c0,0,0.1,0,0.1,0c2.3-0.8,4.4,1.4,4.1,3.9l-3.4,20.7L75.3,170.3
			z"/>
		<path class="st2" d="M86.2,173.4l3.8-20.2c0.2-1.3,1.1-2.4,2.3-2.8c0,0,0.1,0,0.1,0c2.3-0.7,4.4,1.4,4.1,3.8l-3.7,20.8L86.2,173.4
			z"/>
		<path class="st2" d="M96.8,177.1l3.8-19.3c0.2-1.3,1.1-2.4,2.3-2.8c0,0,0.1,0,0.1,0c2.3-0.7,4.4,1.3,4.1,3.7l-3.6,20.3L96.8,177.1
			z"/>
		<path class="st2" d="M106.8,182.8l3.6-17.9c0.2-1.2,1.1-2.2,2.3-2.6c0,0,0.1,0,0.1,0c2.3-0.7,4.4,1.3,4.1,3.5l-3.6,19.3
			L106.8,182.8z"/>
		<path class="st2" d="M63.8,170.5l3.5-20.3c0.2-1.3,1.1-2.3,2.3-2.7c0,0,0.1,0,0.1,0c2.3-0.7,4.4,1.3,4.1,3.7l-3.4,19.4H63.8z"/>
		<path class="st2" d="M52.4,172.2l2.3-19.3c0.2-1.2,1-2.3,2.1-2.8c0,0,0.1,0,0.1,0c2.2-0.8,4.5,0.9,4.3,3.2l-2,18.6L52.4,172.2z"/>
		<path class="st2" d="M42.2,174.9l2-17.1c0.1-1.1,0.8-2,1.9-2.5c0,0,0.1,0,0.1,0c2-0.8,4.1,0.8,3.9,2.8l-1.6,16.3L42.2,174.9z"/>
		<path class="st2" d="M122.5,191.2l2.8-17.5c0.2-1.1-0.3-2.2-1.2-2.9c0,0,0,0-0.1-0.1c-1.7-1.3-4.2-0.3-4.6,1.7l-2.9,16.6
			L122.5,191.2z"/>
		<path class="st2" d="M76.5,139.5l3.4-18.5c0.2-1.2,1-2.2,2.1-2.6c0,0,0.1,0,0.1,0c2-0.7,4,1.3,3.6,3.5l-3.1,18.5L76.5,139.5z"/>
		<path class="st2" d="M86.2,140.8l3.4-18c0.2-1.2,1-2.2,2.1-2.5c0,0,0.1,0,0.1,0c2-0.7,4,1.2,3.6,3.4L92,142.2L86.2,140.8z"/>
		<path class="st2" d="M95.4,142.4l3.4-17.2c0.2-1.1,1-2.1,2.1-2.5c0,0,0.1,0,0.1,0c2-0.6,4,1.2,3.6,3.3l-3.2,18.1L95.4,142.4z"/>
		<path class="st2" d="M104.6,145.7l3.2-15.9c0.2-1.1,1-2,2.1-2.4c0,0,0.1,0,0.1,0c2-0.6,4,1.1,3.6,3.2l-3.2,17.2L104.6,145.7z"/>
		<path class="st2" d="M67.5,140.1l3.1-18.1c0.2-1.1,1-2.1,2.1-2.4c0,0,0.1,0,0.1,0c2-0.6,4,1.2,3.6,3.3l-3.1,17.3H67.5z"/>
		<path class="st2" d="M58.7,141.1l2.1-17.2c0.1-1.1,0.9-2,1.9-2.5c0,0,0.1,0,0.1,0c1.9-0.7,4,0.8,3.8,2.8l-1.8,16.6L58.7,141.1z"/>
		<path class="st2" d="M49.8,142.7l1.8-15.3c0.1-1,0.8-1.8,1.7-2.2c0,0,0,0,0.1,0c1.8-0.7,3.7,0.7,3.5,2.5l-1.4,14.5L49.8,142.7z"/>
		<path class="st2" d="M118.4,152.1l2.5-15.6c0.2-1-0.2-2-1-2.6c0,0,0,0-0.1,0c-1.5-1.1-3.7-0.3-4.1,1.6l-2.6,14.8L118.4,152.1z"/>
		<path class="st3" d="M125.7,158.9l2.5-15.6c0.2-1-0.2-2-1-2.6c0,0,0,0-0.1,0c-1.5-1.1-3.7-0.3-4.1,1.6l-2.6,14.8L125.7,158.9z"/>
		<path class="st2" d="M84.7,111.1l3-16.5c0.2-1.1,0.9-2,1.9-2.3c0,0,0,0,0.1,0c1.8-0.6,3.5,1.1,3.2,3.1l-2.7,16.5L84.7,111.1z"/>
		<path class="st2" d="M94,112.7l3-16.1c0.2-1.1,0.9-1.9,1.9-2.3c0,0,0,0,0.1,0c1.8-0.6,3.5,1.1,3.2,3.1l-3,16.6L94,112.7z"/>
		<path class="st2" d="M102.4,115.4l3-15.4c0.2-1,0.9-1.9,1.9-2.2c0,0,0,0,0.1,0c1.8-0.6,3.5,1.1,3.2,3l-2.9,16.2L102.4,115.4z"/>
		<path class="st2" d="M110.4,118.5l2.9-14.2c0.2-1,0.9-1.8,1.9-2.1c0,0,0,0,0.1,0c1.8-0.5,3.5,1,3.2,2.8l-2.9,15.4L110.4,118.5z"/>
		<path class="st2" d="M75.2,111.2L78,95c0.2-1,0.9-1.9,1.9-2.2c0,0,0,0,0.1,0c1.8-0.6,3.5,1.1,3.2,2.9l-2.7,15.5H75.2z"/>
		<path class="st2" d="M66.5,112.5l1.9-15.4c0.1-1,0.8-1.8,1.7-2.2c0,0,0,0,0.1,0c1.7-0.7,3.6,0.7,3.4,2.5l-1.6,14.8L66.5,112.5z"/>
		<path class="st2" d="M58.1,115.2l1.6-13.7c0.1-0.9,0.7-1.6,1.5-2c0,0,0,0,0.1,0c1.6-0.6,3.3,0.6,3.2,2.2l-1.3,13L58.1,115.2z"/>
		<path class="st2" d="M122.5,125l2.2-14c0.1-0.9-0.2-1.8-0.9-2.3c0,0,0,0-0.1,0c-1.4-1-3.3-0.2-3.7,1.4l-2.3,13.2L122.5,125z"/>
		<path class="st2" d="M129.5,130.3l2.2-14c0.1-0.9-0.2-1.8-0.9-2.3c0,0,0,0-0.1,0c-1.4-1-3.3-0.2-3.7,1.4l-2.3,13.2L129.5,130.3z"
			/>
		<path class="st2" d="M85.4,86.9l2.5-13.7c0.2-0.9,0.8-1.6,1.6-1.9c0,0,0,0,0.1,0c1.5-0.5,2.9,0.9,2.7,2.6l-2.3,13.7L85.4,86.9z"/>
		<path class="st2" d="M92.9,86.5l2.5-13.4c0.2-0.9,0.8-1.6,1.6-1.9c0,0,0,0,0.1,0c1.5-0.5,2.9,0.9,2.7,2.5l-2.5,13.8L92.9,86.5z"/>
		<path class="st2" d="M99.8,87.3l2.5-12.8c0.2-0.8,0.8-1.6,1.6-1.8c0,0,0,0,0.1,0c1.5-0.5,2.9,0.9,2.7,2.5l-2.4,13.5L99.8,87.3z"/>
		<path class="st2" d="M107.1,89.2l2.4-11.8c0.2-0.8,0.8-1.5,1.6-1.7c0,0,0,0,0.1,0c1.5-0.4,2.9,0.8,2.7,2.4l-2.4,12.8L107.1,89.2z"
			/>
		<path class="st2" d="M78,87.5l2.3-13.5c0.2-0.8,0.8-1.5,1.6-1.8c0,0,0,0,0.1,0c1.5-0.5,2.9,0.9,2.7,2.4l-2.3,12.9H78z"/>
		<path class="st2" d="M71,89.1l1.5-12.8c0.1-0.8,0.6-1.5,1.4-1.8c0,0,0,0,0.1,0c1.4-0.5,3,0.6,2.8,2.1l-1.4,12.3L71,89.1z"/>
		<path class="st2" d="M63.9,91.3L65.2,80c0.1-0.7,0.6-1.4,1.3-1.6c0,0,0,0,0.1,0c1.3-0.5,2.7,0.5,2.6,1.8l-1.1,10.8L63.9,91.3z"/>
		<path class="st2" d="M117.7,93.8l1.9-11.6c0.1-0.7-0.2-1.5-0.8-1.9c0,0,0,0,0,0c-1.1-0.8-2.8-0.2-3,1.2l-1.9,11L117.7,93.8z"/>
		<path class="st2" d="M123.6,97.1l1.9-11.6c0.1-0.7-0.2-1.5-0.8-1.9c0,0,0,0,0,0c-1.1-0.8-2.8-0.2-3,1.2l-1.9,11L123.6,97.1z"/>
		<path class="st2" d="M128.7,101.7l1.9-11.6c0.1-0.7-0.2-1.5-0.8-1.9c0,0,0,0,0,0c-1.1-0.8-2.8-0.2-3,1.2l-1.9,11L128.7,101.7z"/>
		<path class="st2" d="M133.5,106.4l1.9-11.6c0.1-0.7-0.2-1.5-0.8-1.9c0,0,0,0,0,0c-1.1-0.8-2.8-0.2-3,1.2l-1.9,11L133.5,106.4z"/>
		<path class="st2" d="M117.6,66.2l1-9.9c0.1-1.5-0.5-3-1.7-3.8c-0.8-0.5-1.8-0.8-3-0.2c-1.2,0.6-2,1.8-2.2,3.1l-1.3,8.2L117.6,66.2
			z"/>
		<path class="st2" d="M82.2,63.5l0.9-9.9c0.1-1.5,1-2.8,2.4-3.4c0.9-0.4,1.9-0.4,3,0.4c1.1,0.8,1.6,2.1,1.6,3.4l-0.3,8.3L82.2,63.5
			z"/>
	</g>
</g>
<g id="grass">
	<path class="st4" d="M0.6,322.2c15.3-3.3,31.2-1,46.8,0.7c37.6,4.1,75.7,4.6,113.4,1.5c20.1-1.6,40.1-4.3,60.3-4.2
		c21.5,0.1,42.8,3.4,64.1,5.1c25.9,2.2,25.9,2.2,25.9,2.2V378H0.1L0.6,322.2z"/>
	<g>
		<rect x="296.9" y="297.6" width="9.6" height="29.8"/>
		<path class="st5" d="M306,215.6c-4.3-2.6-7.6-6.7-22.6,13.6c-1.1,1.5-2.4,2.8-4.1,3.5c-6.2,2.4-20.5,10.2-11.3,26.7
			c1.2,2.1,1.5,4.5,0.9,6.8c-3.2,11.5-10,46,29.7,32.9c1.7-0.6,6.1-1.9,7.8-1.4"/>
	</g>
</g>
<g id="couple">
	<g>
		<g>
			<path d="M251.4,321l5.2,32.8c0,0,2.1,2.7,3.1-1.3l4.3-30.5L251.4,321z"/>
			<path d="M265.2,322.2l5.2,32.8c0,0,2.1,2.7,3.1-1.3l2.7-34.8L265.2,322.2z"/>
		</g>
		<g>
			<path d="M184.2,319.9l5.2,32.8c0,0,2.1,2.7,3.1-1.3l4.3-30.5L184.2,319.9z"/>
			<path d="M198,321l5.2,32.8c0,0,2.1,2.7,3.1-1.3l2.7-34.8L198,321z"/>
		</g>
		<g>
			<ellipse class="st6" cx="201.7" cy="252.2" rx="21.7" ry="19.3"/>
			
				<ellipse transform="matrix(0.9963 8.587866e-02 -8.587866e-02 0.9963 22.7394 -21.7118)" class="st6" cx="263.7" cy="253.4" rx="21.7" ry="19.3"/>
			<path class="st7" d="M211.5,269.3c2.8,2.5,6.6,7.6-3,10.7c-0.4,0.1-0.9,0.2-1.4,0.3c-2.7,0.4-12.5,1.4-20.6-1.6
				c-1.4-0.5-2.4-1.4-3-2.5c-1.2-2.3-2.1-6.2,3.2-8.3c0.2-0.1,0.5-0.2,0.7-0.2c2.1-0.5,11.8-2.8,20.1-0.6
				C209.1,267.5,210.4,268.3,211.5,269.3z"/>
			<path class="st8" d="M208.5,279.8c0,0,15.6,41.2,1.8,41.7c0,0-38.5,5.5-32.3-11.2l8.5-32.1C186.5,278.3,194.2,283.2,208.5,279.8z
				"/>
			<path d="M211.2,260.2c-0.9,1.2-2,2.4-2.6,3.8c-0.6,1.4-0.6,3.2,0.4,4.3c1.1,1.1,2.8,1.2,4.3,1.1c3.4-0.2,7-0.9,9.5-3.1
				c3.1-2.6,4.1-6.9,4.8-10.9c1.3-8,1.4-16.7-2.8-23.6c0.6,2.6,0.8,5.2,0.6,7.9c-2.2-0.4-4-1.9-5.8-3.2c-6.5-4.8-14.2-8-22.3-8.4
				c-8-0.5-16.3-0.3-22.6,4.8c4-0.7,8.2,1.4,12.2,1.9c-4,0-8.6-0.9-12.2,0.9c6.7,1.3,8.6,6.1,12.6,8.2c2.3,1.2,4.6,2.4,7.1,3
				c2.4,0.5,4.8,0.5,7.3,0.6c3.3,0.2,6.6,0.6,9.9,1.3c0.7,0.2,1.5,0.4,2,0.9c0.6,0.7,0.6,1.7,0.5,2.6
				C213.9,255.2,212.8,257.9,211.2,260.2z"/>
			<path d="M210.8,284.4c6.7,18.5,24,17.4,24,17.4c-26.4,11.4-32-14-32-14l-0.7-2.8l6.4-5.1L210.8,284.4z"/>
			<path class="st9" d="M249.7,285.3c-6.7,18.5-24,17.4-24,17.4c26.4,11.4,32-14,32-14l0.7-2.8l-6.4-5.1L249.7,285.3z"/>
			<path class="st7" d="M190.4,280.9c-7,1.5-10.6,10.2-17.5,11.9c-1.4-2.9-2.7-6-3.8-9.1c2.1,0.7,4.4,0.2,6.3-0.9
				c1.9-1.1,3.6-2.6,5.4-3.8c4-2.8,8.9-4.4,13.8-4.6c2.1-0.1,5.4-0.2,7.3,0.8c2.7,1.4,0.6,2.3-0.8,4.4c-4.5,6.6-5.7,15.7-12.5,20.6
				c-0.3,0.2-0.7,0.4-1,0.5c-0.3,0-0.6-0.1-1-0.2c-1.6-0.5-3.3-1.1-4.9-1.6c3.7-3.6,6.3-8.3,7.5-13.3c0.2-1,0.4-2,0.8-3
				c1-2.5,3.3-4.4,5.9-5.4c2.4-0.9,5.1-1.1,7.7-1L190.4,280.9z"/>
			<path class="st9" d="M255.5,276c0,0-19.2,43.5-4.2,48.7c0,0,10.4,2.9,19.3,1.1c7.2-1.5,12-8.2,11.4-15.5
				c-0.7-8.8-2.7-25.7-8.4-32.8L255.5,276z"/>
			<g>
				<path class="st8" d="M276.3,272.9c2.6,2.8,6,8.2-3.9,10.4c-0.4,0.1-0.9,0.2-1.4,0.2c-2.8,0.1-12.6,0.3-20.4-3.3
					c-1.3-0.6-2.3-1.6-2.8-2.8c-1-2.4-1.6-6.4,3.9-8c0.2-0.1,0.5-0.1,0.7-0.2c2.1-0.4,12-1.8,20.1,1.2
					C274.1,271,275.3,271.9,276.3,272.9z"/>
				<path class="st8" d="M254.4,282.7c-7.1,0.9-11.4,9.2-18.5,10.3c-1.2-3-2.2-6.2-3-9.3c2,0.9,4.4,0.5,6.4-0.4s3.8-2.3,5.7-3.4
					c4.3-2.5,9.3-3.6,14.2-3.4c2.1,0.1,5.4,0.3,7.2,1.4c2.5,1.6,0.4,2.4-1.1,4.3c-5,6.2-7,15.2-14.2,19.4c-0.3,0.2-0.7,0.4-1.1,0.4
					c-0.3,0-0.6-0.1-0.9-0.3c-1.6-0.7-3.2-1.4-4.8-2c4-3.3,7-7.7,8.6-12.6c0.3-1,0.6-2,1-2.9c1.2-2.4,3.7-4.1,6.3-4.8
					c2.5-0.7,5.2-0.6,7.8-0.3L254.4,282.7z"/>
			</g>
			<path d="M286.2,258c0.1-2.7-0.1-5.4-0.5-8.1c-0.3-1.8-0.7-3.6-1.5-5.2c-2.6-5.1-8.9-7-14.4-8.3c-5-1.2-10-2.3-15.2-2
				c-5.1,0.3-10.3,2.2-13.6,6.2c-0.8,0.9-1.4,2-1.5,3.2c-0.2,2.6,2.2,4.6,4.7,5.4c4.4,1.4,9.2,0.1,13.7-0.7c4.5-0.8,9.3-1,13.5,0.8
				c4.2,1.8,7.5,6.3,6.8,10.8c-0.2,1.1-0.5,2.4,0.4,3c0.4,0.3,0.8,0.3,1.3,0.4c2.1,0.2,4.6-0.2,5.7-2.1
				C286.1,260.4,286.1,259.2,286.2,258z"/>
			
				<ellipse transform="matrix(0.9963 8.587866e-02 -8.587866e-02 0.9963 20.8818 -22.3297)" cx="270" cy="231.5" rx="14.3" ry="9.2"/>
			<path class="st7" d="M256.7,234.4c0.1-0.3,0.6-0.5,1.1-0.6c2.5-0.4,5,0.5,7.4,1.2c2,0.6,4,1.2,6.1,1.5c2,0.3,4.1,0.5,6,1.2
				c1,0.4,2,1.4,1.3,2c-0.5,0.5-1.5,0.3-2.3,0.2c-5-1-10-2-15-3c-1.6-0.3-3.4-0.7-4.2-1.8C256.7,234.9,256.6,234.6,256.7,234.4z"/>
		</g>
		<path d="M183.1,295.4c0,0-21.1-4.8-24-19.4c0,0,23.1,15.5,26.2,7.6L183.1,295.4z"/>
		<path class="st9" d="M276.3,282.1c0,0,19.9,23.1,18.1,28.7c0,0-16-18.9-15.4-12.3L276.3,282.1z"/>
	</g>
</g>
<g id="logo">
	<g>
		<path class="st10" d="M133,364l0.3,1.9h-0.2c-0.3-1.2-1.4-1.7-2.5-1.7c-0.2,0-0.4,0-0.6,0.1v3.3h0.4c1,0,1.5-0.4,1.5-1.1h0.2v2.7
			H132c-0.1-0.6-0.3-1.3-1.5-1.3H130v3.1c0,0.5,0.2,0.8,1,0.8v0.2h-3.3v-0.2c0.7,0,1-0.3,1-0.8v-6c0-0.5-0.3-0.8-1-0.8V364H133
			L133,364z"/>
		<path class="st10" d="M139.6,364l0.3,1.9h-0.2c-0.3-1.2-1.4-1.7-2.5-1.7c-0.2,0-0.4,0-0.6,0.1v3.3h0.4c1,0,1.5-0.4,1.5-1.1h0.2
			v2.7h-0.1c-0.1-0.6-0.3-1.3-1.5-1.3h-0.5v3.1c0,0.5,0.2,0.8,1,0.8v0.2h-3.3v-0.2c0.7,0,1-0.3,1-0.8v-6c0-0.5-0.3-0.8-1-0.8V364
			H139.6L139.6,364z"/>
		<path class="st10" d="M126.1,364v0.2c-0.6,0-0.9,0.3-0.9,0.8v6c0,0.6,0.4,0.8,0.9,0.8v0.2H123v-0.2c0.6,0,0.9-0.3,0.9-0.8v-6
			c0-0.5-0.3-0.8-0.9-0.8V364H126.1L126.1,364z"/>
		<path class="st10" d="M122.1,361.8l0.3,2.4h-0.1c-0.5-1.2-1.3-2.1-3-2.1v8.4c0,0.9,0.5,1.2,1.1,1.2v0.2h-3.7v-0.2
			c0.5,0,1.1-0.3,1.1-1.2v-8.4c-1.7,0-2.5,0.8-3,2.1h-0.1l0.3-2.4H122.1L122.1,361.8z"/>
		<path class="st10" d="M167.3,369.3c0,1.2,0.9,2.2,2.2,2.2c0.6,0,1.2-0.3,1.7-0.8l-2.6-3.3C167.9,367.6,167.3,368.3,167.3,369.3
			L167.3,369.3z M170.8,364.4c0-1-0.4-1.5-1.3-1.5c-0.9,0-1.4,0.5-1.4,1.4c0,1,1.3,2.3,1.3,2.3C170.4,365.9,170.8,365.3,170.8,364.4
			L170.8,364.4z M169.6,366.7l2.2,2.8c0,0,0.2-0.4,0.3-0.9c0-0.5-0.3-0.7-0.7-0.8v-0.1h2.4c0,0,0,0.1,0,0.1
			c-0.4,0.1-0.8,0.2-1.1,0.5c-0.3,0.3-0.4,0.6-0.7,1.4l1,1.2c0.4,0.5,1,0.8,1.7,0.8v0.2H172v-0.2l-0.7-0.9c-0.6,0.6-1.6,1.2-2.6,1.2
			c-1.6,0-2.6-0.9-2.6-2.1c0-1.3,1.2-2.2,2.2-2.8c0,0-1.1-1.2-1.1-2.3c0-1.2,1-2.2,2.3-2.2c1.2,0,2.1,0.8,2.1,1.9
			C171.6,365.7,170.3,366.2,169.6,366.7L169.6,366.7z"/>
		<path class="st10" d="M185.6,361.6l0.1,3.2h-0.2c-0.3-1.8-1.5-2.8-3-2.8c-1.8,0-3,2.1-3,4.9c0,3.5,1.4,4.9,3.3,4.9
			c2,0,2.8-1.8,2.9-3.2h0.2v1.4c-0.3,0.6-1.3,1.9-3.4,1.9c-2.6,0-4.7-2.2-4.7-5.1c0-2.6,2.3-5.1,4.7-5.1c1.4,0,1.8,0.6,2.3,0.6
			c0.4,0,0.6-0.3,0.6-0.8H185.6L185.6,361.6z"/>
		<path class="st10" d="M195.3,370.5c0.4,0,0.7,0.3,0.7,0.7c0,0.4-0.3,0.7-0.7,0.7c-0.4,0-0.7-0.3-0.7-0.7
			C194.5,370.8,194.9,370.5,195.3,370.5L195.3,370.5z"/>
		<path class="st10" d="M188,367.8c0,2.5,1,4,2.5,4c1.5,0,2.5-1.4,2.5-4c0-2.4-0.8-3.7-2.5-3.7C188.9,364.1,188,365.7,188,367.8
			L188,367.8z M190.5,363.9c2.3,0,4.2,1.7,4.2,4c0,2.2-1.8,4-4.1,4c-2.3,0-4.2-1.8-4.2-4C186.3,365.8,188.2,363.9,190.5,363.9
			L190.5,363.9z"/>
		<path class="st10" d="M142.8,365.7l1.4,3.3h-2.7L142.8,365.7L142.8,365.7z M147.2,371.8c-0.3,0-0.5-0.3-0.7-0.4
			c-0.1-0.2-3.2-7.8-3.2-7.8l-2.8,6.9c-0.3,0.9-0.8,1.3-1.4,1.3v0.2h2.3v-0.2c-0.5,0-0.8-0.3-0.8-0.6c0-0.3,0.7-2,0.7-2h2.8
			c0,0,0.8,1.7,0.8,2c0,0.3-0.4,0.6-0.8,0.6v0.2h3V371.8L147.2,371.8z"/>
		<path class="st10" d="M148.5,370.5c0,0.7-0.5,1.1-1,1.2v0.2h2.3v-0.2c-0.7-0.1-1-0.6-1-1.2v-5.2l5.4,6.7v-6.5
			c0-0.9,0.5-1.5,1.1-1.5V364h-2.6v0.1c0.7,0.2,1.2,0.7,1.2,1.5v4l-4.5-5.6h-2.1v0.1c0.9,0,1.2,0.8,1.2,1V370.5L148.5,370.5z"/>
		<path class="st10" d="M155.6,364.2c0.3,0,0.4,0,0.7,0.5c0,0,2.5,3.9,2.5,4v2.4c0,0.5-0.4,0.8-1.1,0.8v0.1h3.4v-0.1
			c-0.6,0-1-0.3-1-0.8v-2.8c0,0,1.6-2.8,1.7-3.1c0.4-0.6,0.9-1,1.5-1V364h-2.8l0,0.1c0.9,0,1.1,0.8,0.8,1.4l-1.4,2.6L158,365
			c-0.3-0.5,0.1-0.9,0.7-0.9V364h-3.2V364.2L155.6,364.2z"/>
	</g>
	<text transform="matrix(1 0 0 1 9.7915 32.5435)"><tspan x="0" y="0" class="st11 st12">The </tspan><tspan x="56.2" y="0" class="st13 st12">adventure </tspan><tspan x="156.6" y="0" class="st11 st12">continues...</tspan></text>
	<text transform="matrix(1 0 0 1 164.2815 63.4812)"><tspan x="0" y="0" class="st11 st14">after the </tspan><tspan x="67.8" y="0" class="st13 st14">dance</tspan><tspan x="15" y="22.6" class="st11 st14">after </tspan><tspan x="54.3" y="22.6" class="st13 st14">today</tspan><tspan x="2.1" y="45.3" class="st11 st14">after </tspan><tspan x="41.4" y="45.3" class="st13 st14">tomorrow</tspan></text>
</g>
</svg>
