<?xml version="1.0" encoding="utf-8"?>
<!-- Generator: Adobe Illustrator 19.1.0, SVG Export Plug-In . SVG Version: 6.00 Build 0)  -->
<svg version="1.1" id="Layer_1" xmlns="http://www.w3.org/2000/svg" xmlns:xlink="http://www.w3.org/1999/xlink" x="0px" y="0px"
	 viewBox="-485 1 792 612" style="enable-background:new -485 1 792 612;" xml:space="preserve">
<style type="text/css">
	.st0{fill:#E1E1E1;}
	.st1{fill:#DEDEDE;}
	.st2{fill:#B8B8B8;}
	.st3{fill:#A7A7A7;}
	.st4{fill:#C7C7C7;}
	.st5{fill:#7C7C7C;}
	.st6{fill:#C0C0C0;}
	.st7{fill:#C6C6C6;}
	.st8{fill:#0E0E0E;}
	.st9{fill:#717171;}
	.st10{font-family:'Baskerville';}
	.st11{font-size:47.0865px;}
	.st12{font-family:'Baskerville-Italic';}
	.st13{font-size:30.3198px;}
</style>
<g id="sky">
	<rect x="-485" y="0.8" class="st0" width="789.4" height="610.5"/>
</g>
<g id="pisa">
	<g>
		<path class="st1" d="M-447,531.2l23.3-112.7c0,0,90.2-21.9,160.9,30.1l-9,82.6H-447z"/>
		<path class="st2" d="M-260.1,447.6c2.1-1.1,3.9-3.7-0.6-10c-0.5-0.6-1.1-1.3-1.9-1.8c-9.8-5.6-79.2-44.5-159.6-27
			c-0.6,0.2-1.1,0.3-1.6,0.8c-1.6,1.1-4.5,4-1.6,7.2c1,1,2.2,1.4,3.7,1.1c12.9-2.6,92.6-16.4,157.5,29.4
			C-263.2,448.3-261.6,448.4-260.1,447.6z"/>
		<path class="st1" d="M-262.9,435.9l6.1-45c0,0-72.2-72.5-154-29.4l-7.6,46.6C-418.3,408.1-343.4,389.9-262.9,435.9z"/>
		<path class="st2" d="M-254.7,389.8c2.6-1.8,6.3-6.1,0.8-14.5c-0.2-0.3-0.3-0.5-0.6-0.8c-5.6-4.7-73.8-59-159.9-26.8
			c0,0-7.6,10.9,3.9,13.7c0,0,71.7-43.7,152.5,28.1C-257.2,390.4-255.8,390.6-254.7,389.8z"/>
		<path class="st1" d="M-254.2,374.8l3.2-41c0,0-8-37.4-66.4-46c0,0-61.4-11.4-82.3,21.1l-5.9,35.7
			C-405.6,344.6-338.2,319.1-254.2,374.8z"/>
		<path class="st2" d="M-249.7,333.8c2.6-0.6,7.7-3.2,2.4-14.8c0,0-67.7-74.1-153-24.4c-0.5,0.3-1,0.6-1.3,1.1
			c-1.4,1.8-4.5,6.4,0.8,12.2c0.6,0.6,1.6,0.8,2.2,0.2c5.5-4.7,31.7-24.9,70.4-21.5c0,0,60.4,5,76.8,46.3
			C-251.3,333.5-250.5,334-249.7,333.8z"/>
		<path class="st1" d="M-247.4,319.1l2.4-39.5c0,0-10.9-31.5-69.1-40.5c0,0-55.6-11.2-71.5,21.5l-6.9,29.7
			C-392.4,290.3-323.1,248.8-247.4,319.1z"/>
		<path class="st2" d="M-245.2,279.2c0,0.2,0.2,0.2,0.3,0.2c0.6-0.2,2.1-1,3.4-5.3c1-3.1-1.1-5.1-2.7-7.9
			c-8.8-14.9-41.8-56.7-131.6-30.4c-3.4,1-6.4,3.2-8,6.4c-2.6,4.8-5.6,12.4-2.7,17c0.5,0.6,1.4,0.6,1.8,0
			c2.9-5.3,16.4-23.8,60.4-21.4C-324.6,237.7-263.8,241.6-245.2,279.2z"/>
		<path class="st2" d="M-241.2,237.3c0,0,4.3,0.2,5.1-10.1c0.3-3.2-1.8-5.6-3.4-8.4c-8.8-14.9-48.4-54.6-123.9-29.7
			c-3.4,1.1-5.8,3.7-8.2,6.9c-3.4,4.5-6.3,11.2-3.4,15.9c0.5,0.6,1.4,0.6,1.8,0c2.9-5.3,16.4-23.8,60.4-21.4
			C-312.5,190.3-259.2,195.3-241.2,237.3z"/>
		<path class="st1" d="M-243.7,267.1l2.6-29.9c0,0-7.6-38.1-64.8-47.4c0,0-50-9.3-67.3,23.1l-2.6,22.7
			C-375.9,235.6-289.2,208-243.7,267.1z"/>
		<path class="st1" d="M-239.4,218.9l4.3-29.4c0,0-18-41.8-67-41.3c0,0-45.6-4.2-59,24.4l-4.5,17.7
			C-365.6,190.3-293.2,162.5-239.4,218.9z"/>
		<path class="st1" d="M-233.8,179.4l4.8-27.3c0,0-10.8-39.4-62-42.4c0,0-49.8-8.5-61.6,28.8l-3.4,16.7
			C-355.9,155.3-285.7,117.7-233.8,179.4z"/>
		<path class="st1" d="M-243.3,123.3l2.2-24.1c0,0-15.7-27.2-49.5-26.4c0,0-29.1-1.8-37.3,21.1l-4.7,17.5
			C-332.5,111.3-284.1,90.2-243.3,123.3z"/>
		<path class="st2" d="M-241,99.2c0,0,7.1-25.7-44.5-34.2c0,0-40.2-1.8-41.3,26.5c0,0,7.1-20.6,41.3-17.4
			C-285.5,74.1-260.8,72.7-241,99.2z"/>
		<path class="st2" d="M-234.9,189.4c0,0,1.9-0.2,1.9-5.8c0-2.9-0.3-4-1.9-6.4c-8.8-13.7-44.4-52.1-116.7-25.4
			c-2.9,1.1-5.1,4.5-7.2,7.2c-3.2,4.2-7.2,9.3-4.2,13.5c0.5,0.6,1.8,0.5,2.1,0c2.9-5,14.5-24.7,58.5-22.7
			C-302.4,149.8-264.3,147.1-234.9,189.4z"/>
		<path class="st2" d="M-229,152.1c0,0,2.2-0.6,2.2-6.3c0-2.9-0.6-5.1-2.2-7.6c-8.8-13.7-47.9-50.5-108.5-25.1
			c-2.9,1.3-6.3,4.5-8.4,7.2c-3.2,4.2-9.2,9.6-6.1,13.8c0.5,0.6,1,0.3,1.4-0.3c2.9-5,12.4-25.6,56.4-23.3
			C-294.2,110.8-249.9,109.3-229,152.1z"/>
		<path class="st2" d="M-285.7,531l9-74.1c0.2-1.4,0.2-3.1-0.3-4.5c-3.4-13.3-9.8-5.6-12.5-1.8c-0.8,1.1-1.3,2.4-1.4,3.7l-11.7,76.7
			H-285.7z"/>
		<path class="st2" d="M-312.1,531l11.9-78.7c0.8-5.3-0.8-10.8-4.7-14.3c-2.1-1.9-5-3.4-8.5-3.2c-5.6,0.3-10.3,4.8-11.2,10.4
			l-15.6,85.8H-312.1z"/>
		<path class="st2" d="M-383.4,531l17.7-89.5c1.1-5.8,5.3-10.8,10.9-12.5c0.2,0,0.3-0.2,0.5-0.2c10.4-3.2,20.7,6.1,19,17L-349,531
			H-383.4z"/>
		<path class="st2" d="M-355,408.3l8.4-45.8c0.5-3.1,2.6-5.5,5.1-6.4h0.2c5-1.6,9.8,3.1,9,8.7l-7.6,45.6L-355,408.3z"/>
		<path class="st2" d="M-336,409.1l8.5-43.6c0.5-2.9,2.6-5.3,5.1-6.1h0.2c5-1.6,9.8,3.1,9,8.4l-8.2,45L-336,409.1z"/>
		<path class="st2" d="M-317,414.4l8.4-42.6c0.5-2.9,2.6-5.1,5.1-6.1h0.2c5-1.6,9.8,2.9,9,8.2l-8,44.8L-317,414.4z"/>
		<path class="st2" d="M-299,420.3l8-39.4c0.5-2.7,2.6-5,5.1-5.8h0.2c5-1.4,9.8,2.9,9,7.9l-7.9,42.4L-299,420.3z"/>
		<path class="st2" d="M-375.1,405.8l7.7-44.8c0.5-2.7,2.6-5.1,5.1-6.1h0.2c5-1.6,9.8,2.9,9,8.2l-7.6,42.7L-375.1,405.8
			L-375.1,405.8z"/>
		<path class="st2" d="M-394.5,405.8l5.1-42.6c0.3-2.7,2.1-5,4.7-6.1h0.2c4.8-1.8,9.8,2.1,9.5,7.1l-4.5,41L-394.5,405.8z"/>
		<path class="st2" d="M-412.7,407.1l4.3-37.8c0.3-2.4,1.9-4.5,4.2-5.5h0.2c4.3-1.8,9,1.6,8.7,6.1l-3.4,35.7L-412.7,407.1z"/>
		<path class="st2" d="M-267.2,433.8l6.1-38.6c0.3-2.4-0.6-5-2.6-6.4c0,0-0.2,0-0.2-0.2c-3.9-2.7-9.3-0.6-10.1,3.9l-6.4,36.6
			L-267.2,433.8z"/>
		<path class="st2" d="M-419.7,531l17-91.6c0.6-3.5,2.6-6.7,5.3-9.2c4.7-4,12.1-8,18.6-1.3c3.7,3.7,5.1,9.3,4.2,14.5l-16.1,87.6
			H-419.7z"/>
		<path class="st2" d="M-428.1,531l16.1-92.2c0.5-2.9,0-5.9-1.4-8.5c-2.6-4.5-7.2-8.8-13,3.1L-447,531H-428.1z"/>
		<path class="st2" d="M-344,340.8l7.4-40.3c0.5-2.6,2.2-4.8,4.5-5.6h0.2c4.3-1.4,8.7,2.7,7.9,7.7l-6.6,40L-344,340.8z"/>
		<path class="st2" d="M-324.6,344.8l7.4-38.6c0.5-2.6,2.2-4.7,4.5-5.5h0.2c4.3-1.4,8.7,2.6,7.9,7.2l-7.2,39.7L-324.6,344.8z"/>
		<path class="st2" d="M-307.4,350.2l7.4-37.6c0.5-2.6,2.2-4.7,4.5-5.3h0.2c4.3-1.4,8.7,2.6,7.9,7.2l-7.1,39.5L-307.4,350.2z"/>
		<path class="st2" d="M-290.2,356.8l7.1-34.7c0.5-2.4,2.2-4.3,4.5-5.1h0.2c4.3-1.3,8.7,2.4,7.9,6.9l-6.9,37.4L-290.2,356.8z"/>
		<path class="st2" d="M-362.7,340.9l6.9-39.5c0.5-2.4,2.2-4.5,4.5-5.3h0.2c4.3-1.4,8.7,2.6,7.9,7.2l-6.6,37.8h-12.9V340.9z"/>
		<path class="st2" d="M-381.2,340.8l4.5-37.6c0.3-2.4,1.9-4.5,4.2-5.3h0.2c4.2-1.6,8.7,1.8,8.4,6.3l-4,36.2L-381.2,340.8z"/>
		<path class="st2" d="M-398.8,343.5l3.9-33.3c0.3-2.1,1.6-4,3.7-4.8h0.2c3.9-1.4,8,1.4,7.7,5.3l-3.2,31.7L-398.8,343.5z"/>
		<path class="st2" d="M-262.2,370.2l5.5-34.1c0.3-2.1-0.5-4.3-2.2-5.8c0,0-0.2,0-0.2-0.2c-3.4-2.4-8.2-0.5-8.8,3.4l-5.6,32.3
			L-262.2,370.2z"/>
		<path class="st2" d="M-330.2,279.2l6.1-33.3c0.3-2.2,1.8-4,3.7-4.7h0.2c3.7-1.3,7.1,2.2,6.6,6.3l-5.5,33.3L-330.2,279.2z"/>
		<path class="st2" d="M-312.7,284.2l6.1-32.5c0.3-2.1,1.8-3.9,3.7-4.5h0.2c3.7-1.1,7.1,2.2,6.6,6.1l-5.9,33.4L-312.7,284.2z"/>
		<path class="st2" d="M-295.7,290.1l6.1-31c0.3-2.1,1.8-3.9,3.7-4.5h0.2c3.7-1.1,7.1,2.1,6.6,5.9l-5.8,32.6L-295.7,290.1z"/>
		<path class="st2" d="M-279.6,299.3l5.8-28.8c0.3-1.9,1.8-3.5,3.7-4.2h0.2c3.7-1.1,7.1,2.1,6.6,5.6l-5.8,31L-279.6,299.3z"/>
		<path class="st2" d="M-348.7,279.5l5.6-32.6c0.3-2.1,1.8-3.7,3.7-4.3h0.2c3.7-1.1,7.1,2.1,6.6,5.9l-5.5,31.2h-10.6V279.5z"/>
		<path class="st2" d="M-367,282.3l3.7-31c0.3-1.9,1.6-3.7,3.4-4.5h0.2c3.5-1.3,7.2,1.4,6.9,5.1l-3.2,29.9L-367,282.3z"/>
		<path class="st2" d="M-383.4,286.6l3.2-27.5c0.2-1.8,1.3-3.2,3.1-4h0.2c3.2-1.3,6.6,1.3,6.3,4.5l-2.6,26.2L-383.4,286.6z"/>
		<path class="st2" d="M-254.4,312.8l4.5-28.1c0.3-1.8-0.5-3.5-1.9-4.7c0,0,0,0-0.2-0.2c-2.7-2.1-6.7-0.5-7.4,2.7l-4.7,26.7
			L-254.4,312.8z"/>
		<path class="st2" d="M-328.3,229.7l5.5-29.7c0.3-1.9,1.6-3.5,3.4-4.2h0.2c3.2-1.1,6.4,2.1,5.8,5.6l-5,29.7L-328.3,229.7z"/>
		<path class="st2" d="M-312.7,231.8l5.5-28.9c0.3-1.9,1.6-3.5,3.4-4h0.2c3.2-1.1,6.4,1.9,5.8,5.5l-5.5,29.7L-312.7,231.8z"/>
		<path class="st2" d="M-297.9,234.4l5.5-27.6c0.3-1.8,1.6-3.4,3.4-4h0.2c3.2-1,6.4,1.9,5.8,5.3l-5.1,29.1L-297.9,234.4z"/>
		<path class="st2" d="M-283.1,239.7l5.1-25.6c0.3-1.8,1.6-3.2,3.4-3.9h0.2c3.2-1,6.4,1.8,5.8,5.1l-5.1,27.6L-283.1,239.7z"/>
		<path class="st2" d="M-342.7,230.7l5-29.1c0.3-1.8,1.6-3.4,3.4-3.9h0.2c3.2-1,6.4,1.9,5.8,5.3l-5,27.8h-9.3V230.7z"/>
		<path class="st2" d="M-356.9,232.3l3.4-27.6c0.2-1.8,1.4-3.2,3.1-4h0.2c3.1-1.1,6.4,1.3,6.1,4.5l-2.9,26.7L-356.9,232.3z"/>
		<path class="st2" d="M-371.2,234.8l2.9-24.6c0.2-1.6,1.3-2.9,2.7-3.5c0,0,0,0,0.2,0c2.9-1.1,5.9,1.1,5.6,4L-362,234L-371.2,234.8z
			"/>
		<path class="st2" d="M-260.9,250l4-25.1c0.3-1.6-0.3-3.2-1.6-4.2c0,0,0,0-0.2,0c-2.4-1.8-5.9-0.5-6.6,2.6l-4.2,23.8L-260.9,250z"
			/>
		<path class="st3" d="M-249.2,260.9l4-25.1c0.3-1.6-0.3-3.2-1.6-4.2c0,0,0,0-0.2,0c-2.4-1.8-5.9-0.5-6.6,2.6l-4.2,23.8
			L-249.2,260.9z"/>
		<path class="st2" d="M-315.1,184.1l4.8-26.5c0.3-1.8,1.4-3.2,3.1-3.7c0,0,0,0,0.2,0c2.9-1,5.6,1.8,5.1,5l-4.3,26.5L-315.1,184.1z"
			/>
		<path class="st2" d="M-300.2,186.6l4.8-25.9c0.3-1.8,1.4-3.1,3.1-3.7c0,0,0,0,0.2,0c2.9-1,5.6,1.8,5.1,5l-4.8,26.7L-300.2,186.6z"
			/>
		<path class="st2" d="M-286.7,191l4.8-24.7c0.3-1.6,1.4-3.1,3.1-3.5c0,0,0,0,0.2,0c2.9-1,5.6,1.8,5.1,4.8l-4.7,26L-286.7,191z"/>
		<path class="st2" d="M-273.8,196l4.7-22.8c0.3-1.6,1.4-2.9,3.1-3.4c0,0,0,0,0.2,0c2.9-0.8,5.6,1.6,5.1,4.5l-4.7,24.7L-273.8,196z"
			/>
		<path class="st2" d="M-330.4,184.2l4.5-26c0.3-1.6,1.4-3.1,3.1-3.5c0,0,0,0,0.2,0c2.9-1,5.6,1.8,5.1,4.7l-4.3,24.9
			C-321.9,184.2-330.4,184.2-330.4,184.2z"/>
		<path class="st2" d="M-344.4,186.3l3.1-24.7c0.2-1.6,1.3-2.9,2.7-3.5c0,0,0,0,0.2,0c2.7-1.1,5.8,1.1,5.5,4l-2.6,23.8L-344.4,186.3
			z"/>
		<path class="st2" d="M-357.9,190.7l2.6-22c0.2-1.4,1.1-2.6,2.4-3.2c0,0,0,0,0.2,0c2.6-1,5.3,1,5.1,3.5l-2.1,20.9L-357.9,190.7z"/>
		<path class="st2" d="M-254.4,206.4l3.5-22.5c0.2-1.4-0.3-2.9-1.4-3.7c0,0,0,0-0.2,0c-2.2-1.6-5.3-0.3-5.9,2.2l-3.7,21.2
			L-254.4,206.4z"/>
		<path class="st2" d="M-243.1,214.9l3.5-22.5c0.2-1.4-0.3-2.9-1.4-3.7c0,0,0,0-0.2,0c-2.2-1.6-5.3-0.3-5.9,2.2l-3.7,21.2
			L-243.1,214.9z"/>
		<path class="st2" d="M-314,145.2l4-22c0.3-1.4,1.3-2.6,2.6-3.1c0,0,0,0,0.2,0c2.4-0.8,4.7,1.4,4.3,4.2l-3.7,22L-314,145.2z"/>
		<path class="st2" d="M-301.9,144.5l4-21.5c0.3-1.4,1.3-2.6,2.6-3.1c0,0,0,0,0.2,0c2.4-0.8,4.7,1.4,4.3,4l-4,22.2L-301.9,144.5z"/>
		<path class="st2" d="M-290.8,145.8l4-20.6c0.3-1.3,1.3-2.6,2.6-2.9c0,0,0,0,0.2,0c2.4-0.8,4.7,1.4,4.3,4l-3.9,21.7L-290.8,145.8z"
			/>
		<path class="st2" d="M-279.1,148.9l3.9-19c0.3-1.3,1.3-2.4,2.6-2.7c0,0,0,0,0.2,0c2.4-0.6,4.7,1.3,4.3,3.9l-3.9,20.6L-279.1,148.9
			z"/>
		<path class="st2" d="M-325.9,146.1l3.7-21.7c0.3-1.3,1.3-2.4,2.6-2.9c0,0,0,0,0.2,0c2.4-0.8,4.7,1.4,4.3,3.9l-3.7,20.7H-325.9z"/>
		<path class="st2" d="M-337.1,148.7l2.4-20.6c0.2-1.3,1-2.4,2.2-2.9c0,0,0,0,0.2,0c2.2-0.8,4.8,1,4.5,3.4l-2.2,19.8L-337.1,148.7z"
			/>
		<path class="st2" d="M-348.5,152.2l2.1-18.2c0.2-1.1,1-2.2,2.1-2.6c0,0,0,0,0.2,0c2.1-0.8,4.3,0.8,4.2,2.9l-1.8,17.4L-348.5,152.2
			z"/>
		<path class="st2" d="M-262.1,156.3l3.1-18.6c0.2-1.1-0.3-2.4-1.3-3.1l0,0c-1.8-1.3-4.5-0.3-4.8,1.9l-3.1,17.7L-262.1,156.3z"/>
		<path class="st2" d="M-252.6,161.6l3.1-18.6c0.2-1.1-0.3-2.4-1.3-3.1l0,0c-1.8-1.3-4.5-0.3-4.8,1.9l-3.1,17.7L-252.6,161.6z"/>
		<path class="st2" d="M-244.4,169l3.1-18.6c0.2-1.1-0.3-2.4-1.3-3.1l0,0c-1.8-1.3-4.5-0.3-4.8,1.9l-3.1,17.7L-244.4,169z"/>
		<path class="st2" d="M-236.7,176.5l3.1-18.6c0.2-1.1-0.3-2.4-1.3-3.1l0,0c-1.8-1.3-4.5-0.3-4.8,1.9l-3.1,17.7L-236.7,176.5z"/>
		<path class="st2" d="M-262.2,111.9l1.6-15.9c0.2-2.4-0.8-4.8-2.7-6.1c-1.3-0.8-2.9-1.3-4.8-0.3c-1.9,1-3.2,2.9-3.5,5l-2.1,13.2
			L-262.2,111.9z"/>
		<path class="st2" d="M-319.1,107.6l1.4-15.9c0.2-2.4,1.6-4.5,3.9-5.5c1.4-0.6,3.1-0.6,4.8,0.6c1.8,1.3,2.6,3.4,2.6,5.5l-0.5,13.3
			L-319.1,107.6z"/>
	</g>
</g>
<g id="grass">
	<path class="st4" d="M-482.8,523.3c24.6-5.3,50.1-1.6,75.2,1.1c60.4,6.6,121.7,7.4,182.2,2.4c32.3-2.6,64.4-6.9,96.9-6.7
		c34.6,0.2,368.6,5.5,402.8,8.2c41.6,3.5,41.6,3.5,41.6,3.5V613h-799.6L-482.8,523.3z"/>
	<g>
		<rect x="283.6" y="453.8" width="25.1" height="77.9"/>
		<path class="st5" d="M307.4,239.5c-11.2-6.8-19.9-17.5-59.1,35.5c-2.9,3.9-6.3,7.3-10.7,9.1c-16.2,6.3-53.6,26.7-29.5,69.8
			c3.1,5.5,3.9,11.8,2.4,17.8c-8.4,30.1-26.1,120.2,77.6,86c4.4-1.6,15.9-5,20.4-3.7"/>
	</g>
</g>
<g id="couple">
	<g>
		<g>
			<path d="M78.8,530l7.1,44.6c0,0,2.9,3.7,4.2-1.8l5.8-41.5L78.8,530z"/>
			<path d="M97.6,531.7l7.1,44.6c0,0,2.9,3.7,4.2-1.8l3.7-47.3L97.6,531.7z"/>
		</g>
		<g>
			<path d="M-12.5,528.5l7.1,44.6c0,0,2.9,3.7,4.2-1.8l5.8-41.5L-12.5,528.5z"/>
			<path d="M6.2,530l7.1,44.6c0,0,2.9,3.7,4.2-1.8l3.7-47.3L6.2,530z"/>
		</g>
		<g>
			<ellipse class="st6" cx="11.3" cy="436.5" rx="29.5" ry="26.2"/>
			
				<ellipse transform="matrix(8.587915e-02 -0.9963 0.9963 8.587915e-02 -349.2004 495.7143)" class="st6" cx="95.5" cy="438.2" rx="26.2" ry="29.5"/>
			<path class="st7" d="M24.6,459.8c3.8,3.4,9,10.3-4.1,14.5c-0.5,0.1-1.2,0.3-1.9,0.4c-3.7,0.5-17,1.9-28-2.2
				c-1.9-0.7-3.3-1.9-4.1-3.4c-1.6-3.1-2.9-8.4,4.3-11.3c0.3-0.1,0.7-0.3,1-0.3c2.9-0.7,16-3.8,27.3-0.8
				C21.3,457.3,23.1,458.4,24.6,459.8z"/>
			<path class="st8" d="M20.5,474c0,0,21.2,56,2.4,56.7c0,0-52.3,7.5-43.9-15.2l11.6-43.6C-9.4,472,1.1,478.7,20.5,474z"/>
			<path d="M24.2,447.4c-1.2,1.6-2.7,3.3-3.5,5.2s-0.8,4.3,0.5,5.8c1.5,1.5,3.8,1.6,5.8,1.5c4.6-0.3,9.5-1.2,12.9-4.2
				c4.2-3.5,5.6-9.4,6.5-14.8c1.8-10.9,1.9-22.7-3.8-32.1c0.8,3.5,1.1,7.1,0.8,10.7c-3-0.5-5.4-2.6-7.9-4.3
				c-8.8-6.5-19.3-10.9-30.3-11.4c-10.9-0.7-22.2-0.4-30.7,6.5c5.4-1,11.1,1.9,16.6,2.6c-5.4,0-11.7-1.2-16.6,1.2
				c9.1,1.8,11.7,8.3,17.1,11.1c3.1,1.6,6.3,3.3,9.7,4.1c3.3,0.7,6.5,0.7,9.9,0.8c4.5,0.3,9,0.8,13.5,1.8c1,0.3,2,0.5,2.7,1.2
				c0.8,1,0.8,2.3,0.7,3.5C27.8,440.6,26.4,444.3,24.2,447.4z"/>
			<path d="M23.6,480.3c9.1,25.1,32.6,23.7,32.6,23.7c-35.9,15.5-43.5-19-43.5-19l-1-3.8l8.7-6.9L23.6,480.3z"/>
			<path class="st9" d="M76.5,481.5c-9.1,25.1-32.6,23.7-32.6,23.7c35.9,15.5,43.5-19,43.5-19l1-3.8l-8.7-6.9L76.5,481.5z"/>
			<path class="st7" d="M-4.1,475.5c-9.5,2-14.4,13.9-23.8,16.2c-1.9-3.9-3.7-8.2-5.2-12.4c2.9,1,6,0.3,8.6-1.2
				c2.6-1.5,4.9-3.5,7.3-5.2c5.4-3.8,12.1-6,18.8-6.3c2.9-0.1,7.3-0.3,9.9,1.1c3.7,1.9,0.8,3.1-1.1,6c-6.1,9-7.7,21.3-17,28
				c-0.4,0.3-1,0.5-1.4,0.7c-0.4,0-0.8-0.1-1.4-0.3c-2.2-0.7-4.5-1.5-6.7-2.2c5-4.9,8.6-11.3,10.2-18.1c0.3-1.4,0.5-2.7,1.1-4.1
				c1.4-3.4,4.5-6,8-7.3c3.3-1.2,6.9-1.5,10.5-1.4L-4.1,475.5z"/>
			<path class="st9" d="M84.4,468.9c0,0-26.1,59.1-5.7,66.2c0,0,14.1,3.9,26.2,1.5c9.8-2,16.3-11.1,15.5-21.1
				c-1-12-3.7-34.9-11.4-44.6L84.4,468.9z"/>
			<g>
				<path class="st8" d="M112.7,464.7c3.5,3.8,8.2,11.1-5.3,14.1c-0.5,0.1-1.2,0.3-1.9,0.3c-3.8,0.1-17.1,0.4-27.7-4.5
					c-1.8-0.8-3.1-2.2-3.8-3.8c-1.4-3.3-2.2-8.7,5.3-10.9c0.3-0.1,0.7-0.1,1-0.3c2.9-0.5,16.3-2.4,27.3,1.6
					C109.7,462.1,111.3,463.3,112.7,464.7z"/>
				<path class="st8" d="M82.9,478c-9.7,1.2-15.5,12.5-25.1,14c-1.6-4.1-3-8.4-4.1-12.6c2.7,1.2,6,0.7,8.7-0.5
					c2.7-1.2,5.2-3.1,7.7-4.6c5.8-3.4,12.6-4.9,19.3-4.6c2.9,0.1,7.3,0.4,9.8,1.9c3.4,2.2,0.5,3.3-1.5,5.8
					c-6.8,8.4-9.5,20.7-19.3,26.4c-0.4,0.3-1,0.5-1.5,0.5c-0.4,0-0.8-0.1-1.2-0.4c-2.2-1-4.3-1.9-6.5-2.7
					c5.4-4.5,9.5-10.5,11.7-17.1c0.4-1.4,0.8-2.7,1.4-3.9c1.6-3.3,5-5.6,8.6-6.5c3.4-1,7.1-0.8,10.6-0.4L82.9,478z"/>
			</g>
			<path d="M126.1,444.4c0.1-3.7-0.1-7.3-0.7-11c-0.4-2.4-1-4.9-2-7.1c-3.5-6.9-12.1-9.5-19.6-11.3c-6.8-1.6-13.6-3.1-20.7-2.7
				c-6.9,0.4-14,3-18.5,8.4c-1.1,1.2-1.9,2.7-2,4.3c-0.3,3.5,3,6.3,6.4,7.3c6,1.9,12.5,0.1,18.6-1c6.1-1.1,12.6-1.4,18.3,1.1
				c5.7,2.4,10.2,8.6,9.2,14.7c-0.3,1.5-0.7,3.3,0.5,4.1c0.5,0.4,1.1,0.4,1.8,0.5c2.9,0.3,6.3-0.3,7.7-2.9
				C126,447.7,126,446,126.1,444.4z"/>
			
				<ellipse transform="matrix(8.587915e-02 -0.9963 0.9963 8.587915e-02 -311.7213 477.04)" cx="104.1" cy="408.4" rx="12.5" ry="19.4"/>
			<path class="st7" d="M86,412.3c0.1-0.4,0.8-0.7,1.5-0.8c3.4-0.5,6.8,0.7,10.1,1.6c2.7,0.8,5.4,1.6,8.3,2c2.7,0.4,5.6,0.7,8.2,1.6
				c1.4,0.5,2.7,1.9,1.8,2.7c-0.7,0.7-2,0.4-3.1,0.3c-6.8-1.4-13.6-2.7-20.4-4.1c-2.2-0.4-4.6-1-5.7-2.4C86,413,85.9,412.6,86,412.3
				z"/>
		</g>
		<path d="M-14,495.2c0,0-28.7-6.5-32.6-26.4c0,0,31.4,21.1,35.6,10.3L-14,495.2z"/>
		<path class="st9" d="M112.7,477.2c0,0,27,31.4,24.6,39c0,0-21.7-25.7-20.9-16.7L112.7,477.2z"/>
	</g>
</g>
<g id="logo">
	<g>
		<path d="M-105.7,590.5l0.5,3.1h-0.3c-0.5-1.9-2.2-2.7-4-2.7c-0.3,0-0.6,0-1,0.2v5.3h0.6c1.6,0,2.4-0.6,2.4-1.8h0.3v4.3h-0.2
			c-0.2-1-0.5-2.1-2.4-2.1h-0.8v5c0,0.8,0.3,1.3,1.6,1.3v0.3h-5.3V603c1.1,0,1.6-0.5,1.6-1.3v-9.6c0-0.8-0.5-1.3-1.6-1.3v-0.3
			H-105.7L-105.7,590.5z"/>
		<path d="M-95.1,590.5l0.5,3.1h-0.3c-0.5-1.9-2.2-2.7-4-2.7c-0.3,0-0.6,0-1,0.2v5.3h0.6c1.6,0,2.4-0.6,2.4-1.8h0.3v4.3h-0.2
			c-0.2-1-0.5-2.1-2.4-2.1h-0.8v5c0,0.8,0.3,1.3,1.6,1.3v0.3h-5.3V603c1.1,0,1.6-0.5,1.6-1.3v-9.6c0-0.8-0.5-1.3-1.6-1.3v-0.3H-95.1
			L-95.1,590.5z"/>
		<path d="M-116.8,590.5v0.3c-1,0-1.4,0.5-1.4,1.3v9.6c0,1,0.6,1.3,1.4,1.3v0.3h-5V603c1,0,1.4-0.5,1.4-1.3v-9.6
			c0-0.8-0.5-1.3-1.4-1.3v-0.3H-116.8L-116.8,590.5z"/>
		<path d="M-123.2,587l0.5,3.9h-0.2c-0.8-1.9-2.1-3.4-4.8-3.4v13.5c0,1.4,0.8,1.9,1.8,1.9v0.3h-5.9v-0.3c0.8,0,1.8-0.5,1.8-1.9
			v-13.5c-2.7,0-4,1.3-4.8,3.4h-0.2l0.5-3.9H-123.2L-123.2,587z"/>
		<path d="M-50.6,599c0,1.9,1.4,3.5,3.5,3.5c1,0,1.9-0.5,2.7-1.3l-4.2-5.3C-49.6,596.3-50.6,597.4-50.6,599L-50.6,599z M-44.9,591.1
			c0-1.6-0.6-2.4-2.1-2.4c-1.4,0-2.2,0.8-2.2,2.2c0,1.6,2.1,3.7,2.1,3.7C-45.6,593.6-44.9,592.6-44.9,591.1L-44.9,591.1z
			 M-46.9,594.8l3.5,4.5c0,0,0.3-0.6,0.5-1.4c0-0.8-0.5-1.1-1.1-1.3v-0.2h3.9v0.2c-0.6,0.2-1.3,0.3-1.8,0.8s-0.6,1-1.1,2.2l1.6,1.9
			c0.6,0.8,1.6,1.3,2.7,1.3v0.3H-43v-0.3l-1.1-1.4c-1,1-2.6,1.9-4.2,1.9c-2.6,0-4.2-1.4-4.2-3.4c0-2.1,1.9-3.5,3.5-4.5
			c0,0-1.8-1.9-1.8-3.7c0-1.9,1.6-3.5,3.7-3.5c1.9,0,3.4,1.3,3.4,3.1C-43.6,593.2-45.7,594-46.9,594.8L-46.9,594.8z"/>
		<path d="M-21.1,586.6l0.2,5.1h-0.3c-0.5-2.9-2.4-4.5-4.8-4.5c-2.9,0-4.8,3.4-4.8,7.9c0,5.6,2.2,7.9,5.3,7.9c3.2,0,4.5-2.9,4.7-5.1
			h0.3v2.2c-0.5,1-2.1,3.1-5.5,3.1c-4.2,0-7.6-3.5-7.6-8.2c0-4.2,3.7-8.2,7.6-8.2c2.2,0,2.9,1,3.7,1c0.6,0,1-0.5,1-1.3h0.3V586.6z"
			/>
		<path d="M-5.6,600.9c0.6,0,1.1,0.5,1.1,1.1c0,0.6-0.5,1.1-1.1,1.1s-1.1-0.5-1.1-1.1C-6.8,601.4-6.2,600.9-5.6,600.9L-5.6,600.9z"
			/>
		<path d="M-17.3,596.6c0,4,1.6,6.4,4,6.4s4-2.2,4-6.4c0-3.9-1.3-5.9-4-5.9C-15.8,590.7-17.3,593.2-17.3,596.6L-17.3,596.6z
			 M-13.3,590.3c3.7,0,6.7,2.7,6.7,6.4c0,3.5-2.9,6.4-6.6,6.4s-6.7-2.9-6.7-6.4C-20,593.4-17,590.3-13.3,590.3L-13.3,590.3z"/>
		<path d="M-89.9,593.2l2.2,5.3H-92L-89.9,593.2L-89.9,593.2z M-82.9,603c-0.5,0-0.8-0.5-1.1-0.6c-0.2-0.3-5.1-12.5-5.1-12.5
			l-4.5,11.1c-0.5,1.4-1.3,2.1-2.2,2.1v0.3h3.7V603c-0.8,0-1.3-0.5-1.3-1c0-0.5,1.1-3.2,1.1-3.2h4.5c0,0,1.3,2.7,1.3,3.2
			s-0.6,1-1.3,1v0.3h4.8V603H-82.9z"/>
		<path d="M-80.8,600.9c0,1.1-0.8,1.8-1.6,1.9v0.3h3.7v-0.3c-1.1-0.2-1.6-1-1.6-1.9v-8.4l8.7,10.8v-10.4c0-1.4,0.8-2.4,1.8-2.4l0,0
			H-74v0.2c1.1,0.3,1.9,1.1,1.9,2.4v6.4l-7.2-9h-3.4v0.2c1.4,0,1.9,1.3,1.9,1.6L-80.8,600.9L-80.8,600.9z"/>
		<path d="M-69.4,590.8c0.5,0,0.6,0,1.1,0.8c0,0,4,6.3,4,6.4v3.9c0,0.8-0.6,1.3-1.8,1.3v0.2h5.5v-0.2c-1,0-1.6-0.5-1.6-1.3v-4.5
			c0,0,2.6-4.5,2.7-5c0.6-1,1.4-1.6,2.4-1.6v-0.3h-4.5v0.2c1.4,0,1.8,1.3,1.3,2.2l-2.2,4.2l-3.1-5c-0.5-0.8,0.2-1.4,1.1-1.4v-0.2
			h-5.1v0.3H-69.4z"/>
	</g>
	<text transform="matrix(1 0 0 1 -237.9566 57.8114)" class="st10 st11">The </text>
	<text transform="matrix(1 0 0 1 -147.6367 57.8114)" class="st12 st11">adventure </text>
	<text transform="matrix(1 0 0 1 13.7171 57.8114)" class="st10 st11">continues...</text>
	<text transform="matrix(1 0 0 1 10.3261 107.5323)" class="st10 st13">after the </text>
	<text transform="matrix(1 0 0 1 119.2884 107.5323)" class="st12 st13">dance</text>
	<text transform="matrix(1 0 0 1 34.4332 143.8528)" class="st10 st13">after </text>
	<text transform="matrix(1 0 0 1 97.5929 143.8528)" class="st12 st13">today</text>
	<text transform="matrix(1 0 0 1 13.701 180.3344)" class="st10 st13">after </text>
	<text transform="matrix(1 0 0 1 76.861 180.3344)" class="st12 st13">tomorrow</text>
</g>
</svg>
