<svg xmlns="http://www.w3.org/2000/svg" viewBox="-179 1 792 612" enable-background="new -179 1 792 612"><style type="text/css">.st0{fill:#EFD30A;} .st1{fill:none;stroke:#EFD30A;stroke-width:2;stroke-miterlimit:10;} .st2{fill:#5B5B5A;} .st3{font-family:&apos;Helvetica-Light&apos;;} .st4{font-size:177.9441px;} .st5{font-size:266.082px;} .st6{fill:#D4D82A;} .st7{fill:#00803D;} .st8{fill:#39933B;} .st9{fill:#78A02E;} .st10{fill:#BDC927;} .st11{fill:#8CD8F6;} .st12{opacity:0.75;fill:#FFFFFF;enable-background:new ;} .st13{font-size:48.3786px;} .st14{fill:#025B2A;}</style><g id="Layer_2"><path class="st0" d="M-119.1 261.9s-34.9-6.1-42.5-71.6c-.1.2 53 30.6 42.5 71.6zM-120.5 319.9s-34.9-6.1-42.5-71.6c-.1.1 53 30.4 42.5 71.6zM-114.8 374.5s-35.3-3.5-47.8-68.1c0 0 55.1 26.3 47.8 68.1zM-112 263.6s35.3-2.8 49.1-67.3c-.1 0-55.8 25.3-49.1 67.3zM-111.8 319.9s34.9-6.1 42.5-71.6c.1.1-53 30.4-42.5 71.6zM-108 372.7s34.8-7.2 40.2-72.8c0-.2-52.2 31.9-40.2 72.8z"/><path class="st1" d="M-111.8 204.9s-26.4 222.4 43.9 237.7"/><path class="st0" d="M-113.6 200.5s6.5-48.7 96.8-62.6c0-.1-39.2 74.9-96.8 62.6z"/><text transform="translate(-63.007 374.51)" class="st2 st3 st4">he</text><text transform="translate(535.298 369.139)" class="st2 st3 st4">r</text><text transform="matrix(.862 0 0 1 177.495 374.51)" class="st2 st3 st5">D</text><path class="st6" d="M391.1 395.9c.6 1.1 2.2 1.1 2.9 0 5.4-9.3 22.1-41.4-3.5-40.6-19.6.9-4.4 31.4.6 40.6z"/><path class="st7" d="M347.8 315.3c-.7.4-1.4 0-1.5-.8-.3-11.1-.1-74.2 34.6-52.7 26.6 16.5-23.9 48.1-33.1 53.5z"/><path class="st8" d="M390.4 341.4c.4.7 1.4.7 1.8 0 5.1-8.5 28.6-50.9-3.3-49.8-24.4 1-3.1 41.5 1.5 49.8z"/><path class="st9" d="M361.6 344.1c-.4.6-1.3.4-1.5-.3-2.6-7.4-13.2-41.1 9.7-35.6 17.7 4-3.3 30-8.2 35.9z"/><path class="st10" d="M372 370.9c-.4.6-1.3.3-1.5-.3-2.5-7.5-12.8-41.3 10.1-35.6 17.6 4.5-3.6 30.2-8.6 35.9z"/><path class="st7" d="M434.4 311.7c.7.3 1.4-.1 1.4-.8-.4-11.1-4.3-74.1-37.5-50.6-25.6 18 26.5 46.5 36.1 51.4z"/><path class="st9" d="M422.6 342.7c.4.6 1.3.4 1.5-.3 2.6-7.4 13.2-41.1-9.7-35.6-17.6 4.2 3.4 30 8.2 35.9z"/><path class="st10" d="M412.2 369.5c.4.6 1.3.3 1.5-.3 2.5-7.5 12.8-41.3-10.1-35.6-17.5 4.5 3.6 30.2 8.6 35.9z"/><path class="st6" d="M490.9 392.3c.6 1.1 2.2 1.1 2.9 0 5.4-9.3 22.1-41.4-3.5-40.6-19.4.9-4.3 31.6.6 40.6z"/><path class="st7" d="M447.6 311.8c-.7.4-1.4 0-1.5-.8-.3-11.1-.1-74.2 34.6-52.7 26.6 16.4-23.7 48-33.1 53.5z"/><path class="st8" d="M490.3 338c.4.7 1.4.7 1.8 0 5.1-8.5 28.6-50.9-3.3-49.8-24.5.8-3.2 41.3 1.5 49.8z"/><path class="st9" d="M461.4 340.5c-.4.6-1.3.4-1.5-.3-2.6-7.4-13.2-41.1 9.7-35.6 17.7 4.2-3.2 30.2-8.2 35.9z"/><path class="st10" d="M471.8 367.4c-.4.6-1.3.3-1.5-.3-2.5-7.5-12.8-41.3 10.1-35.6 17.7 4.4-3.6 30.1-8.6 35.9z"/><path class="st7" d="M534.4 308.2c.7.3 1.4-.1 1.4-.8-.4-11.1-4.3-74.1-37.5-50.6-25.6 17.9 26.5 46.4 36.1 51.4z"/><path class="st9" d="M522.6 339.1c.4.6 1.3.4 1.5-.3 2.6-7.4 13.2-41.1-9.7-35.6-17.7 4.2 3.2 30.2 8.2 35.9z"/><path class="st10" d="M512.2 366c.4.6 1.3.3 1.5-.3 2.5-7.5 12.8-41.3-10.1-35.6-17.7 4.5 3.5 30.2 8.6 35.9z"/><path class="st11" d="M161.3 332.4c-2.8 0-6-1.3-8.5-2.4-4.7-2.2-7.8-6.8-8.9-12-.6-2.8-1.1-5.6.3-8.1.6-1 1-1.9 1.5-2.6 2.9-3.9 6.8-6.7 10-10.4s5.7-8.5 6-13.3c.6.3 1.3.7 1.7 1.3 5.4 5 10 10.8 13.3 17.5 1.4 2.8 2.6 5.7 3.1 8.8.6 3.1.7 6.4-.6 9.2-.6 1.3-1.3 3.1-2.1 4.2-1.5 2.1-3.6 4.3-5.8 5.6-2.9 1.2-6.8 2.2-10 2.2z"/><path class="st12" d="M148.9 311.8c.4-.7.7-1.3 1.1-1.9l2.4-3.3c.8-1.3 1.8-2.5 2.8-3.6-5 1.4-5.7 2.6-7.5 5-1.1 1.5-1.8 3.1-2.5 4.7-.7 1.7-.6 3.8.3 5.4 1.2-2.3 2.3-4.2 3.4-6.3z"/><text transform="matrix(.862 0 0 1 -54.857 459.394)" class="st3 st13">brewing company</text><path class="st14" d="M387.5 247.6h3.9v16.4h-3.9zM488 244.1h3.9v16.4h-3.9z"/></g></svg>