<svg xmlns="http://www.w3.org/2000/svg" viewBox="-487.2 0.8 792 612" enable-background="new -487.2 0.8 792 612"><style type="text/css">.st0{fill:#75201C;} .st1{font-family:&apos;Helvetica&apos;;} .st2{font-size:411.2208px;} .st3{fill:#FDB745;} .st4{fill:none;stroke:#75201C;stroke-width:15.1131;stroke-miterlimit:10;} .st5{fill:#575757;} .st6{font-family:&apos;Helvetica-Light&apos;;} .st7{font-size:98.3707px;} .st8{font-family:&apos;HelveticaNeue-Thin&apos;;} .st9{font-size:55.6008px;} .st10{fill:#C6872C;} .st11{fill:#F8F6D2;} .st12{opacity:0.71;fill:#FFFFFF;enable-background:new ;} .st13{fill:#FFFFFF;}</style><text transform="matrix(.664 0 0 1 -72.389 438.272)" class="st0 st1 st2">D</text><path class="st3" d="M-184.3 143.6h138v295.2h-138z"/><path class="st4" d="M-187.1 157.3v281M-273.7 151.9h230.9"/><text transform="translate(-260.288 519.292)" class="st5 st6 st7">TheDoor</text><text transform="translate(-272.246 566.357)" class="st0 st8 st9">brewing company</text><ellipse transform="matrix(-.658 -.753 .753 -.658 -346.829 147.404)" class="st10" cx="-139.9" cy="152.5" rx="4.5" ry="5"/><ellipse transform="matrix(-.658 -.753 .753 -.658 -322.722 172.935)" class="st10" cx="-122.1" cy="159.8" rx="4.5" ry="5"/><ellipse transform="matrix(-.658 -.753 .753 -.658 -282.301 195.154)" class="st11" cx="-96.8" cy="161.7" rx="4.5" ry="5"/><ellipse transform="matrix(-.658 -.753 .753 -.658 -350.01 99.624)" class="st11" cx="-152.4" cy="129.3" rx="4.5" ry="5"/><ellipse transform="matrix(-.658 -.753 .753 -.658 -468.035 19.928)" class="st10" cx="-229.5" cy="116.3" rx="22.1" ry="20.8"/><ellipse transform="matrix(-.658 -.753 .753 -.658 -383.059 -63.605)" class="st11" cx="-206" cy="55.2" rx="39.9" ry="30.1"/><ellipse transform="matrix(-.658 -.753 .753 -.658 -349.133 1.781)" class="st10" cx="-174.2" cy="80.2" rx="45.4" ry="44.6"/><ellipse transform="matrix(-.658 -.753 .753 -.658 -407.716 122.588)" class="st11" cx="-176" cy="153.9" rx="33.7" ry="28.6"/><ellipse transform="matrix(-.658 -.753 .753 -.658 -197.569 233.204)" class="st10" cx="-45.8" cy="161.5" rx="30.1" ry="27.2"/><ellipse transform="matrix(-.658 -.753 .753 -.658 -172.429 104.599)" class="st10" cx="-62.5" cy="91.5" rx="42.2" ry="36.5"/><ellipse transform="matrix(-.658 -.753 .753 -.658 -68.454 166.012)" class="st11" cx="3.5" cy="98.6" rx="17" ry="29.9"/><ellipse transform="matrix(-.658 -.753 .753 -.658 -109.513 218.455)" class="st10" cx="-5.1" cy="134.1" rx="15.3" ry="15.1"/><ellipse transform="matrix(-.658 -.753 .753 -.658 -26.846 189.584)" class="st10" cx="29.6" cy="100.9" rx="15.3" ry="15.1"/><ellipse transform="matrix(-.658 -.753 .753 -.658 -60.305 104.133)" class="st10" cx="-6.5" cy="65.8" rx="31.3" ry="27"/><ellipse transform="matrix(-.658 -.753 .753 -.658 -213.484 8.615)" class="st11" cx="-104.8" cy="52.8" rx="25" ry="32.8"/><ellipse transform="matrix(-.658 -.753 .753 -.658 -342.327 169.01)" class="st10" cx="-132.8" cy="162.3" rx="7.1" ry="7.2"/><ellipse transform="matrix(-.658 -.753 .753 -.658 -445.34 64.263)" class="st10" cx="-208.1" cy="133.3" rx="7.4" ry="8.2"/><ellipse transform="matrix(-.658 -.753 .753 -.658 -123.779 9.601)" class="st11" cx="-59.7" cy="32.9" rx="6.4" ry="7.5"/><ellipse transform="matrix(-.658 -.753 .753 -.658 -460.66 -51.122)" class="st11" cx="-241.9" cy="79.1" rx="6.4" ry="7.5"/><ellipse transform="matrix(-.658 -.753 .753 -.658 -252.825 -65.62)" class="st10" cx="-141.3" cy="24.6" rx="6.4" ry="7.5"/><ellipse transform="matrix(-.658 -.753 .753 -.658 -207.284 -54.946)" class="st10" cx="-116.1" cy="19.6" rx="1.7" ry="2"/><ellipse transform="matrix(-.658 -.753 .753 -.658 -289.652 -82.061)" class="st11" cx="-163.5" cy="24.8" rx="1.7" ry="2"/><ellipse transform="matrix(-.658 -.753 .753 -.658 -88.726 19.15)" class="st10" cx="-40" cy="29.7" rx="1.1" ry="1.4"/><ellipse transform="matrix(-.658 -.753 .753 -.658 -50.745 29.714)" class="st10" cx="-18.6" cy="26.4" rx="4" ry="4.7"/><ellipse transform="matrix(-.658 -.753 .753 -.658 -261.387 68.522)" class="st11" cx="-115.1" cy="93.6" rx="12.7" ry="8.8"/><ellipse transform="matrix(-.658 -.753 .753 -.658 -269.128 215.544)" class="st11" cx="-85.6" cy="168.9" rx="6.9" ry="7.9"/><ellipse transform="matrix(-.658 -.753 .753 -.658 -261.449 191.572)" class="st10" cx="-87.2" cy="155.2" rx="6.9" ry="7.9"/><ellipse transform="matrix(-.658 -.753 .753 -.658 -289.535 77.006)" class="st10" cx="-127.3" cy="104.3" rx="6.9" ry="7.9"/><ellipse transform="matrix(-.658 -.753 .753 -.658 -416.531 46.504)" class="st11" cx="-197.7" cy="117.9" rx="6.9" ry="7.9"/><ellipse transform="matrix(-.658 -.753 .753 -.658 -369.481 90.768)" class="st10" cx="-164.1" cy="129.3" rx="6.9" ry="7.9"/><ellipse transform="matrix(-.658 -.753 .753 -.658 -314.436 152.85)" class="st10" cx="-122.5" cy="147.8" rx="6.9" ry="7.9"/><ellipse transform="matrix(-.658 -.753 .753 -.658 -122.459 175.206)" class="st10" cx="-21.4" cy="115.4" rx="6.9" ry="7.9"/><ellipse transform="matrix(-.658 -.753 .753 -.658 -70.475 202.577)" class="st10" cx="10.8" cy="117.3" rx="6.9" ry="7.9"/><ellipse transform="matrix(-.658 -.753 .753 -.658 -326.667 90.105)" class="st11" cx="-142.9" cy="119.2" rx="6.9" ry="7.9"/><ellipse transform="matrix(-.658 -.753 .753 -.658 -117.705 273.673)" class="st10" cx="3.3" cy="163.6" rx="6.9" ry="7.9"/><ellipse transform="matrix(-.658 -.753 .753 -.658 -135.634 250.864)" class="st11" cx="-10.8" cy="156.2" rx="6.9" ry="7.9"/><ellipse transform="matrix(-.658 -.753 .753 -.658 -99.4 252.225)" class="st11" cx="7.6" cy="148.7" rx="6.9" ry="7.9"/><ellipse transform="matrix(-.658 -.753 .753 -.658 -58.76 227.99)" class="st11" cx="22.4" cy="127.3" rx="6.9" ry="7.9"/><ellipse transform="matrix(-.658 -.753 .753 -.658 -299.201 181.545)" class="st11" cx="-108.4" cy="158.7" rx="6.9" ry="7.9"/><ellipse transform="matrix(-.658 -.753 .753 -.658 -157.97 192.72)" class="st11" cx="-35.2" cy="132.2" rx="6.9" ry="7.9"/><ellipse transform="matrix(-.658 -.753 .753 -.658 -230 160.915)" class="st11" cx="-78.5" cy="132.7" rx="6.9" ry="7.9"/><ellipse transform="matrix(-.658 -.753 .753 -.658 -227.102 182.935)" class="st10" cx="-72" cy="143" rx="9.5" ry="8.8"/><ellipse transform="matrix(-.658 -.753 .753 -.658 -321.675 120.788)" class="st10" cx="-133.4" cy="133.5" rx="12.6" ry="17.1"/><path class="st12" d="M-120.9 96.2c1.1 2.1 2.7 4.2 5 5.1 1.8.7 4 .4 5.9.3 1.4-.1 1.4-2.3 0-2.4-1-.1-2.1-.3-3.4-1-1.3-.7-2.7-1.8-2.8-3.4-.1-2.5-.3-4.1-1-5.5-.7-1.7-3.3-1.8-4.7-.1-.8 1-1 2.4-.7 3.7.4 1 1 2.2 1.7 3.3zM-246 105.1c-1.8 2.8-3.7 5.9-3.4 9.2.1 2.8 1.8 5.2 3.4 7.6 1.1 1.7 3.7.4 3.1-1.4-.4-1.4-1-2.8-.8-5s.7-4.5 2.5-5.5c3.1-1.8 5-3 6.2-4.5 1.7-1.8.3-5.2-2.5-5.9-1.7-.4-3.7.3-5.1 1.4-1.4 1.1-2.4 2.7-3.4 4.1zM-23 168.5c.4-3.4.4-6.9-1.3-9.8-1.4-2.4-4.1-3.8-6.5-5.1-1.7-1-3.4 1.3-2.1 2.7 1 1 2.3 2.1 3 4 .8 2 1.4 4.4.3 6.2-1.8 3.1-3 5-3.4 6.9-.6 2.4 2.3 4.8 5.1 4 1.7-.4 3.1-2 3.8-3.5.7-1.9.9-3.7 1.1-5.4z"/><path class="st13" d="M-162.5 44.7c-7.2-2-15.1-3.4-22.1-.4-5.8 2.5-9.8 7.6-13.6 12.6 0 0 0 .1-.1.1-2.7 3.5 1.7 8.1 5.4 5.5 2.7-1.8 5.4-4.1 9.8-5.4 4.7-1.3 10.2-1.8 13.7 1.4 6.2 5.2 9.9 8.3 14.1 10 5.2 2.1 11.3-3.3 10.6-9.8-.4-4-3.3-7.5-6.7-9.8-3.3-2.1-7.2-3.2-11.1-4.2zM-58.2 62.1c-5.9-1.6-12.3-2.8-18-.4-4.7 2-8.1 6.2-11.2 10.3l-.1.1c-2.1 2.8 1.4 6.7 4.4 4.5 2.1-1.6 4.4-3.4 8.1-4.4 3.8-1 8.3-1.4 11.2 1.1 5.1 4.2 8.1 6.8 11.5 8.2 4.2 1.7 9.2-2.7 8.6-7.9-.4-3.3-2.7-6.1-5.4-7.9-2.8-1.8-6-2.8-9.1-3.6zM-116.7 37.3c-3.4 2.7-6.8 5.8-7.8 10-.8 3.5.1 7.2 1.1 10.6v.1c.7 2.4 4.4 2 4.4-.6 0-1.8 0-4 1-6.4 1-2.5 2.7-5.4 5.4-5.8 4.5-1 7.2-1.7 9.5-3.1 2.7-1.7 2.4-6.4-.8-8.2-2-1.1-4.5-1.1-6.8-.3s-4.1 2.3-6 3.7zM-228.3 28.1c-3.4 2.7-6.8 5.8-7.8 10-.8 3.5.1 7.2 1.1 10.6v.1c.7 2.4 4.4 2 4.4-.6 0-1.8 0-4 1-6.4 1-2.5 2.7-5.4 5.4-5.8 4.5-1 7.2-1.7 9.5-3.1 2.7-1.7 2.4-6.4-.8-8.2-2-1.1-4.5-1.1-6.8-.3-2.3 1-4.2 2.3-6 3.7zM-176.3 176.4c3.8 1.8 8.2 3.7 12.5 2.7 3.5-.7 6.4-3.3 9.2-5.7 1.8-1.7-.1-4.8-2.4-3.7-1.7.7-3.5 1.7-6.2 2-2.8.1-5.9-.1-7.6-2.4-3-3.7-4.7-5.8-6.8-7.2-2.7-1.7-6.8.6-7.1 4.4-.1 2.3 1 4.5 2.7 6.2 1.6 1.6 3.8 2.7 5.7 3.7zM15.6 70.1c-.6-4.2-1.4-8.9-4.5-11.9-2.5-2.5-6.2-3.5-9.8-4.5h-.1c-2.4-.7-4 2.7-1.8 4.1 1.6 1 3.4 2 5 4.1 1.6 2.3 3 5.1 2.2 7.7-1.4 4.4-2.3 7.1-2.3 9.8 0 3.3 4.2 5.4 7.5 3.5 2-1.1 3.3-3.4 3.8-5.7.4-2.4.3-4.8 0-7.1z"/><ellipse transform="matrix(-.658 -.753 .753 -.658 -273.405 130.416)" class="st11" cx="-107.1" cy="127.3" rx="25.3" ry="25"/><path class="st13" d="M-119.2 113.3c-3.4 2.7-6.8 5.8-7.8 10-.8 3.5.1 7.2 1.1 10.6v.1c.7 2.4 4.4 2 4.4-.6 0-1.8 0-4 1-6.4 1-2.5 2.7-5.4 5.4-5.8 4.5-1 7.2-1.7 9.5-3.1 2.7-1.7 2.4-6.4-.8-8.2-2-1.1-4.5-1.1-6.8-.3-2.3 1-4.2 2.1-6 3.7z"/><path class="st10" d="M-95.7 336.6h27.7v83.1h-27.7zM-153.5 336.6h27.2v83.1h-27.2zM-95.7 179.4h27.7v83.1h-27.7zM-153.5 179.4h27.2v83.1h-27.2z"/><ellipse class="st10" cx="-72.4" cy="297" rx="15.4" ry="16.6"/></svg>