<?xml version="1.0" encoding="utf-8"?>
<!-- Generator: Adobe Illustrator 19.1.0, SVG Export Plug-In . SVG Version: 6.00 Build 0)  -->
<svg version="1.1" id="Layer_1" xmlns="http://www.w3.org/2000/svg" xmlns:xlink="http://www.w3.org/1999/xlink" x="0px" y="0px"
	 viewBox="-487.2 0.8 792 612" style="enable-background:new -487.2 0.8 792 612;" xml:space="preserve">
<style type="text/css">
	.st0{fill:#75201C;}
	.st1{font-family:'Helvetica';}
	.st2{font-size:411.2208px;}
	.st3{fill:#FDB745;}
	.st4{fill:none;stroke:#75201C;stroke-width:15.1131;stroke-miterlimit:10;}
	.st5{fill:#575757;}
	.st6{font-family:'Helvetica-Light';}
	.st7{font-size:98.3707px;}
	.st8{font-family:'HelveticaNeue-Thin';}
	.st9{font-size:55.6008px;}
	.st10{fill:#C6872C;}
	.st11{fill:#F8F6D2;}
	.st12{opacity:0.71;fill:#FFFFFF;enable-background:new    ;}
	.st13{fill:#FFFFFF;}
</style>
<text transform="matrix(0.6639 0 0 1 -72.3889 438.272)" class="st0 st1 st2">D</text>
<rect x="-184.3" y="143.6" class="st3" width="138" height="295.2"/>
<line class="st4" x1="-187.1" y1="157.3" x2="-187.1" y2="438.3"/>
<line class="st4" x1="-273.7" y1="151.9" x2="-42.8" y2="151.9"/>
<text transform="matrix(1 0 0 1 -260.2878 519.2924)" class="st5 st6 st7">TheDoor</text>
<text transform="matrix(1 0 0 1 -272.2458 566.3568)" class="st0 st8 st9">brewing company</text>
<ellipse transform="matrix(-0.6579 -0.7531 0.7531 -0.6579 -346.8288 147.4041)" class="st10" cx="-139.9" cy="152.5" rx="4.5" ry="5"/>
<ellipse transform="matrix(-0.6579 -0.7531 0.7531 -0.6579 -322.7219 172.9353)" class="st10" cx="-122.1" cy="159.8" rx="4.5" ry="5"/>
<ellipse transform="matrix(-0.6579 -0.7531 0.7531 -0.6579 -282.3011 195.1538)" class="st11" cx="-96.8" cy="161.7" rx="4.5" ry="5"/>
<ellipse transform="matrix(-0.6579 -0.7531 0.7531 -0.6579 -350.0101 99.6237)" class="st11" cx="-152.4" cy="129.3" rx="4.5" ry="5"/>
<ellipse transform="matrix(-0.6579 -0.7531 0.7531 -0.6579 -468.0352 19.9283)" class="st10" cx="-229.5" cy="116.3" rx="22.1" ry="20.8"/>
<ellipse transform="matrix(-0.6579 -0.7531 0.7531 -0.6579 -383.0591 -63.6055)" class="st11" cx="-206" cy="55.2" rx="39.9" ry="30.1"/>
<ellipse transform="matrix(-0.6579 -0.7531 0.7531 -0.6579 -349.1326 1.7811)" class="st10" cx="-174.2" cy="80.2" rx="45.4" ry="44.6"/>
<ellipse transform="matrix(-0.6579 -0.7531 0.7531 -0.6579 -407.7161 122.5877)" class="st11" cx="-176" cy="153.9" rx="33.7" ry="28.6"/>
<ellipse transform="matrix(-0.6579 -0.7531 0.7531 -0.6579 -197.5685 233.2038)" class="st10" cx="-45.8" cy="161.5" rx="30.1" ry="27.2"/>
<ellipse transform="matrix(-0.6579 -0.7531 0.7531 -0.6579 -172.4285 104.5989)" class="st10" cx="-62.5" cy="91.5" rx="42.2" ry="36.5"/>
<ellipse transform="matrix(-0.6579 -0.7531 0.7531 -0.6579 -68.454 166.0115)" class="st11" cx="3.5" cy="98.6" rx="17" ry="29.9"/>
<ellipse transform="matrix(-0.6579 -0.7531 0.7531 -0.6579 -109.5134 218.4554)" class="st10" cx="-5.1" cy="134.1" rx="15.3" ry="15.1"/>
<ellipse transform="matrix(-0.6579 -0.7531 0.7531 -0.6579 -26.8456 189.5836)" class="st10" cx="29.6" cy="100.9" rx="15.3" ry="15.1"/>
<ellipse transform="matrix(-0.6579 -0.7531 0.7531 -0.6579 -60.3049 104.1329)" class="st10" cx="-6.5" cy="65.8" rx="31.3" ry="27"/>
<ellipse transform="matrix(-0.6579 -0.7531 0.7531 -0.6579 -213.4845 8.6146)" class="st11" cx="-104.8" cy="52.8" rx="25" ry="32.8"/>
<ellipse transform="matrix(-0.6579 -0.7531 0.7531 -0.6579 -342.3266 169.0101)" class="st10" cx="-132.8" cy="162.3" rx="7.1" ry="7.2"/>
<ellipse transform="matrix(-0.6579 -0.7531 0.7531 -0.6579 -445.3399 64.263)" class="st10" cx="-208.1" cy="133.3" rx="7.4" ry="8.2"/>
<ellipse transform="matrix(-0.6579 -0.7531 0.7531 -0.6579 -123.7786 9.6013)" class="st11" cx="-59.7" cy="32.9" rx="6.4" ry="7.5"/>
<ellipse transform="matrix(-0.6579 -0.7531 0.7531 -0.6579 -460.6602 -51.1218)" class="st11" cx="-241.9" cy="79.1" rx="6.4" ry="7.5"/>
<ellipse transform="matrix(-0.6579 -0.7531 0.7531 -0.6579 -252.8246 -65.6197)" class="st10" cx="-141.3" cy="24.6" rx="6.4" ry="7.5"/>
<ellipse transform="matrix(-0.6579 -0.7531 0.7531 -0.6579 -207.2843 -54.9461)" class="st10" cx="-116.1" cy="19.6" rx="1.7" ry="2"/>
<ellipse transform="matrix(-0.6579 -0.7531 0.7531 -0.6579 -289.6516 -82.0607)" class="st11" cx="-163.5" cy="24.8" rx="1.7" ry="2"/>
<ellipse transform="matrix(-0.6579 -0.7531 0.7531 -0.6579 -88.7257 19.1501)" class="st10" cx="-40" cy="29.7" rx="1.1" ry="1.4"/>
<ellipse transform="matrix(-0.6579 -0.7531 0.7531 -0.6579 -50.7446 29.7141)" class="st10" cx="-18.6" cy="26.4" rx="4" ry="4.7"/>
<ellipse transform="matrix(-0.6579 -0.7531 0.7531 -0.6579 -261.387 68.5219)" class="st11" cx="-115.1" cy="93.6" rx="12.7" ry="8.8"/>
<ellipse transform="matrix(-0.6579 -0.7531 0.7531 -0.6579 -269.1285 215.5442)" class="st11" cx="-85.6" cy="168.9" rx="6.9" ry="7.9"/>
<ellipse transform="matrix(-0.6579 -0.7531 0.7531 -0.6579 -261.4492 191.5724)" class="st10" cx="-87.2" cy="155.2" rx="6.9" ry="7.9"/>
<ellipse transform="matrix(-0.6579 -0.7531 0.7531 -0.6579 -289.5352 77.0063)" class="st10" cx="-127.3" cy="104.3" rx="6.9" ry="7.9"/>
<ellipse transform="matrix(-0.6579 -0.7531 0.7531 -0.6579 -416.5315 46.5037)" class="st11" cx="-197.7" cy="117.9" rx="6.9" ry="7.9"/>
<ellipse transform="matrix(-0.6579 -0.7531 0.7531 -0.6579 -369.4805 90.7678)" class="st10" cx="-164.1" cy="129.3" rx="6.9" ry="7.9"/>
<ellipse transform="matrix(-0.6579 -0.7531 0.7531 -0.6579 -314.4356 152.8503)" class="st10" cx="-122.5" cy="147.8" rx="6.9" ry="7.9"/>
<ellipse transform="matrix(-0.6579 -0.7531 0.7531 -0.6579 -122.459 175.2057)" class="st10" cx="-21.4" cy="115.4" rx="6.9" ry="7.9"/>
<ellipse transform="matrix(-0.6579 -0.7531 0.7531 -0.6579 -70.4755 202.5775)" class="st10" cx="10.8" cy="117.3" rx="6.9" ry="7.9"/>
<ellipse transform="matrix(-0.6579 -0.7531 0.7531 -0.6579 -326.6672 90.1047)" class="st11" cx="-142.9" cy="119.2" rx="6.9" ry="7.9"/>
<ellipse transform="matrix(-0.6579 -0.7531 0.7531 -0.6579 -117.7048 273.6734)" class="st10" cx="3.3" cy="163.6" rx="6.9" ry="7.9"/>
<ellipse transform="matrix(-0.6579 -0.7531 0.7531 -0.6579 -135.634 250.8636)" class="st11" cx="-10.8" cy="156.2" rx="6.9" ry="7.9"/>
<ellipse transform="matrix(-0.6579 -0.7531 0.7531 -0.6579 -99.4 252.2245)" class="st11" cx="7.6" cy="148.7" rx="6.9" ry="7.9"/>
<ellipse transform="matrix(-0.6579 -0.7531 0.7531 -0.6579 -58.7596 227.9896)" class="st11" cx="22.4" cy="127.3" rx="6.9" ry="7.9"/>
<ellipse transform="matrix(-0.6579 -0.7531 0.7531 -0.6579 -299.2008 181.5454)" class="st11" cx="-108.4" cy="158.7" rx="6.9" ry="7.9"/>
<ellipse transform="matrix(-0.6579 -0.7531 0.7531 -0.6579 -157.9695 192.7204)" class="st11" cx="-35.2" cy="132.2" rx="6.9" ry="7.9"/>
<ellipse transform="matrix(-0.6579 -0.7531 0.7531 -0.6579 -230 160.9145)" class="st11" cx="-78.5" cy="132.7" rx="6.9" ry="7.9"/>
<ellipse transform="matrix(-0.6579 -0.7531 0.7531 -0.6579 -227.1018 182.9348)" class="st10" cx="-72" cy="143" rx="9.5" ry="8.8"/>
<ellipse transform="matrix(-0.6579 -0.7531 0.7531 -0.6579 -321.6745 120.788)" class="st10" cx="-133.4" cy="133.5" rx="12.6" ry="17.1"/>
<path class="st12" d="M-120.9,96.2c1.1,2.1,2.7,4.2,5,5.1c1.8,0.7,4,0.4,5.9,0.3l0,0c1.4-0.1,1.4-2.3,0-2.4c-1-0.1-2.1-0.3-3.4-1
	c-1.3-0.7-2.7-1.8-2.8-3.4c-0.1-2.5-0.3-4.1-1-5.5c-0.7-1.7-3.3-1.8-4.7-0.1c-0.8,1-1,2.4-0.7,3.7
	C-122.2,93.9-121.6,95.1-120.9,96.2z"/>
<path class="st12" d="M-246,105.1c-1.8,2.8-3.7,5.9-3.4,9.2c0.1,2.8,1.8,5.2,3.4,7.6l0,0c1.1,1.7,3.7,0.4,3.1-1.4
	c-0.4-1.4-1-2.8-0.8-5s0.7-4.5,2.5-5.5c3.1-1.8,5-3,6.2-4.5c1.7-1.8,0.3-5.2-2.5-5.9c-1.7-0.4-3.7,0.3-5.1,1.4
	C-244,102.1-245,103.7-246,105.1z"/>
<path class="st12" d="M-23,168.5c0.4-3.4,0.4-6.9-1.3-9.8c-1.4-2.4-4.1-3.8-6.5-5.1l0,0c-1.7-1-3.4,1.3-2.1,2.7c1,1,2.3,2.1,3,4
	c0.8,2,1.4,4.4,0.3,6.2c-1.8,3.1-3,5-3.4,6.9c-0.6,2.4,2.3,4.8,5.1,4c1.7-0.4,3.1-2,3.8-3.5C-23.4,172-23.2,170.2-23,168.5z"/>
<path class="st13" d="M-162.5,44.7c-7.2-2-15.1-3.4-22.1-0.4c-5.8,2.5-9.8,7.6-13.6,12.6c0,0,0,0.1-0.1,0.1
	c-2.7,3.5,1.7,8.1,5.4,5.5c2.7-1.8,5.4-4.1,9.8-5.4c4.7-1.3,10.2-1.8,13.7,1.4c6.2,5.2,9.9,8.3,14.1,10c5.2,2.1,11.3-3.3,10.6-9.8
	c-0.4-4-3.3-7.5-6.7-9.8C-154.7,46.8-158.6,45.7-162.5,44.7z"/>
<path class="st13" d="M-58.2,62.1c-5.9-1.6-12.3-2.8-18-0.4c-4.7,2-8.1,6.2-11.2,10.3c0,0,0,0-0.1,0.1c-2.1,2.8,1.4,6.7,4.4,4.5
	c2.1-1.6,4.4-3.4,8.1-4.4c3.8-1,8.3-1.4,11.2,1.1c5.1,4.2,8.1,6.8,11.5,8.2c4.2,1.7,9.2-2.7,8.6-7.9c-0.4-3.3-2.7-6.1-5.4-7.9
	C-51.9,63.9-55.1,62.9-58.2,62.1z"/>
<path class="st13" d="M-116.7,37.3c-3.4,2.7-6.8,5.8-7.8,10c-0.8,3.5,0.1,7.2,1.1,10.6c0,0,0,0,0,0.1c0.7,2.4,4.4,2,4.4-0.6
	c0-1.8,0-4,1-6.4c1-2.5,2.7-5.4,5.4-5.8c4.5-1,7.2-1.7,9.5-3.1c2.7-1.7,2.4-6.4-0.8-8.2c-2-1.1-4.5-1.1-6.8-0.3
	S-114.8,35.9-116.7,37.3z"/>
<path class="st13" d="M-228.3,28.1c-3.4,2.7-6.8,5.8-7.8,10c-0.8,3.5,0.1,7.2,1.1,10.6c0,0,0,0,0,0.1c0.7,2.4,4.4,2,4.4-0.6
	c0-1.8,0-4,1-6.4c1-2.5,2.7-5.4,5.4-5.8c4.5-1,7.2-1.7,9.5-3.1c2.7-1.7,2.4-6.4-0.8-8.2c-2-1.1-4.5-1.1-6.8-0.3
	C-224.6,25.4-226.5,26.7-228.3,28.1z"/>
<path class="st13" d="M-176.3,176.4c3.8,1.8,8.2,3.7,12.5,2.7c3.5-0.7,6.4-3.3,9.2-5.7l0,0c1.8-1.7-0.1-4.8-2.4-3.7
	c-1.7,0.7-3.5,1.7-6.2,2c-2.8,0.1-5.9-0.1-7.6-2.4c-3-3.7-4.7-5.8-6.8-7.2c-2.7-1.7-6.8,0.6-7.1,4.4c-0.1,2.3,1,4.5,2.7,6.2
	C-180.4,174.3-178.2,175.4-176.3,176.4z"/>
<path class="st13" d="M15.6,70.1c-0.6-4.2-1.4-8.9-4.5-11.9c-2.5-2.5-6.2-3.5-9.8-4.5c0,0,0,0-0.1,0c-2.4-0.7-4,2.7-1.8,4.1
	c1.6,1,3.4,2,5,4.1C6,64.2,7.4,67,6.6,69.6c-1.4,4.4-2.3,7.1-2.3,9.8c0,3.3,4.2,5.4,7.5,3.5c2-1.1,3.3-3.4,3.8-5.7
	C16,74.8,15.9,72.4,15.6,70.1z"/>
<ellipse transform="matrix(-0.6579 -0.7531 0.7531 -0.6579 -273.4051 130.4159)" class="st11" cx="-107.1" cy="127.3" rx="25.3" ry="25"/>
<path class="st13" d="M-119.2,113.3c-3.4,2.7-6.8,5.8-7.8,10c-0.8,3.5,0.1,7.2,1.1,10.6c0,0,0,0,0,0.1c0.7,2.4,4.4,2,4.4-0.6
	c0-1.8,0-4,1-6.4c1-2.5,2.7-5.4,5.4-5.8c4.5-1,7.2-1.7,9.5-3.1c2.7-1.7,2.4-6.4-0.8-8.2c-2-1.1-4.5-1.1-6.8-0.3
	C-115.5,110.6-117.4,111.7-119.2,113.3z"/>
<rect x="-95.7" y="336.6" class="st10" width="27.7" height="83.1"/>
<rect x="-153.5" y="336.6" class="st10" width="27.2" height="83.1"/>
<rect x="-95.7" y="179.4" class="st10" width="27.7" height="83.1"/>
<rect x="-153.5" y="179.4" class="st10" width="27.2" height="83.1"/>
<ellipse class="st10" cx="-72.4" cy="297" rx="15.4" ry="16.6"/>
</svg>
