<?xml version="1.0" encoding="utf-8"?>
<!-- Generator: Adobe Illustrator 19.1.0, SVG Export Plug-In . SVG Version: 6.00 Build 0)  -->
<svg version="1.1" xmlns="http://www.w3.org/2000/svg" xmlns:xlink="http://www.w3.org/1999/xlink" x="0px" y="0px"
	 viewBox="0 0 728 90" style="enable-background:new 0 0 728 90;" xml:space="preserve">
<style type="text/css">
	.st0{fill:#CFECF2;}
	.st1{fill:#AD4F3A;}
	.st2{fill-rule:evenodd;clip-rule:evenodd;fill:#EF989E;}
	.st3{fill-rule:evenodd;clip-rule:evenodd;fill:#EB7E48;}
	.st4{fill-rule:evenodd;clip-rule:evenodd;fill:#AA7284;}
	.st5{fill:#464C5E;}
	.st6{fill-rule:evenodd;clip-rule:evenodd;fill:#A7BA98;}
	.st7{fill:#FAB498;}
	.st8{fill:#CCC19C;}
	.st9{fill:#482A15;}
	.st10{fill:#3F4655;}
	.st11{fill:#A97D51;}
	.st12{fill:none;stroke:#553E2E;stroke-miterlimit:10;}
	.st13{fill:#6A4C37;}
	.st14{fill:#4DC2C2;}
	.st15{fill:#78CDCF;}
	.st16{fill:#1FBAB5;}
	.st17{fill-rule:evenodd;clip-rule:evenodd;}
	.st18{fill:#2B2A2B;}
	.st19{font-family:'Baskerville';}
	.st20{font-size:28.8759px;}
	.st21{font-family:'Baskerville-Italic';}
</style>
<g id="sky">
	<rect x="1" y="0.4" class="st0" width="726.5" height="89.3"/>
</g>
<g id="Houses">
	<polygon class="st1" points="53.2,25.5 70.6,15.8 89.1,25.5 	"/>
	<rect x="88.6" y="12.2" class="st2" width="26.3" height="70.8"/>
	<rect x="166.9" y="25.5" class="st3" width="35.1" height="59.6"/>
	<rect x="0.4" y="14.5" class="st4" width="53.9" height="66.6"/>
	<polygon class="st1" points="-0.2,14.8 19.5,6.2 35.6,6.2 54.9,14.8 	"/>
	<polygon class="st1" points="168.4,25.5 180.6,20.2 190.5,20.2 202.4,25.5 	"/>
	<path class="st0" d="M6.4,42.6l0.3-19c0-1.2,0.7-2.4,1.8-3c0,0,0.1,0,0.1,0c2-1.1,4.5,0.5,4.5,2.8l0.1,19.2H6.4z"/>
	<path class="st0" d="M8.3,55.2L8.4,47c0-0.5,0.3-1,0.8-1.3c0,0,0,0,0,0c0.9-0.5,1.9,0.2,2,1.2l0,8.4H8.3z"/>
	<path class="st0" d="M16,55.2l0.1-8.3c0-0.5,0.3-1,0.8-1.3c0,0,0,0,0,0c0.9-0.5,1.9,0.2,2,1.2l0,8.4H16z"/>
	<path class="st0" d="M24.6,55.2l0.1-8.3c0-0.5,0.3-1,0.8-1.3c0,0,0,0,0,0c0.9-0.5,1.9,0.2,2,1.2l0,8.4H24.6z"/>
	<path class="st0" d="M33.2,55.2l0.1-8.3c0-0.5,0.3-1,0.8-1.3c0,0,0,0,0,0c0.9-0.5,1.9,0.2,2,1.2l0,8.4H33.2z"/>
	<path class="st0" d="M171.6,41.1l0.1-8.3c0-0.5,0.3-1,0.8-1.3c0,0,0,0,0,0c0.9-0.5,1.9,0.2,2,1.2l0,8.4H171.6z"/>
	<path class="st0" d="M179.2,41.1l0.1-8.3c0-0.5,0.3-1,0.8-1.3c0,0,0,0,0,0c0.9-0.5,1.9,0.2,2,1.2l0,8.4H179.2z"/>
	<path class="st0" d="M187.9,41.1l0.1-8.3c0-0.5,0.3-1,0.8-1.3c0,0,0,0,0,0c0.9-0.5,1.9,0.2,2,1.2l0,8.4H187.9z"/>
	<path class="st0" d="M196.5,41.1l0.1-8.3c0-0.5,0.3-1,0.8-1.3c0,0,0,0,0,0c0.9-0.5,1.9,0.2,2,1.2l0,8.4H196.5z"/>
	<path class="st0" d="M171.6,54.3l0.1-8.3c0-0.5,0.3-1,0.8-1.3c0,0,0,0,0,0c0.9-0.5,1.9,0.2,2,1.2l0,8.4H171.6z"/>
	<path class="st0" d="M179.2,54.3l0.1-8.3c0-0.5,0.3-1,0.8-1.3c0,0,0,0,0,0c0.9-0.5,1.9,0.2,2,1.2l0,8.4H179.2z"/>
	<path class="st0" d="M187.9,54.3L188,46c0-0.5,0.3-1,0.8-1.3c0,0,0,0,0,0c0.9-0.5,1.9,0.2,2,1.2l0,8.4H187.9z"/>
	<path class="st0" d="M196.5,54.3l0.1-8.3c0-0.5,0.3-1,0.8-1.3c0,0,0,0,0,0c0.9-0.5,1.9,0.2,2,1.2l0,8.4H196.5z"/>
	<path class="st0" d="M41.4,55.2l0.1-8.3c0-0.5,0.3-1,0.8-1.3c0,0,0,0,0,0c0.9-0.5,1.9,0.2,2,1.2l0,8.4H41.4z"/>
	<path class="st0" d="M91.9,38.2l0.3-19c0-1.2,0.7-2.4,1.8-3c0,0,0.1,0,0.1,0c2-1.1,4.5,0.5,4.5,2.8l0.1,19.2H91.9z"/>
	<path class="st0" d="M104.9,38.2l0.3-19c0-1.2,0.7-2.4,1.8-3c0,0,0.1,0,0.1,0c2-1.1,4.5,0.5,4.5,2.8l0.1,19.2H104.9z"/>
	<path class="st0" d="M91.9,62.5l0.3-19c0-1.2,0.7-2.4,1.8-3c0,0,0.1,0,0.1,0c2-1.1,4.5,0.5,4.5,2.8l0.1,19.2H91.9z"/>
	<path class="st0" d="M104.7,62.5l0.3-19c0-1.2,0.7-2.4,1.8-3c0,0,0.1,0,0.1,0c2-1.1,4.5,0.5,4.5,2.8l0.1,19.2H104.7z"/>
	<path class="st5" d="M25.2,81.7l0.2-12.2c0-0.8,0.4-1.5,1.1-1.9c0,0,0,0,0.1,0c1.3-0.7,2.9,0.3,2.9,1.8l0.1,12.4H25.2z"/>
	<path class="st5" d="M69.4,81.7l0.2-12.2c0-0.8,0.4-1.5,1.1-1.9c0,0,0,0,0.1,0c1.3-0.7,2.9,0.3,2.9,1.8l0.1,12.4H69.4z"/>
	<path class="st5" d="M99.6,81.7l0.2-12.2c0-0.8,0.4-1.5,1.1-1.9c0,0,0,0,0.1,0c1.3-0.7,2.9,0.3,2.9,1.8l0.1,12.4H99.6z"/>
	<path class="st5" d="M183.3,83.9l0.2-12.2c0-0.8,0.4-1.5,1.1-1.9c0,0,0,0,0.1,0c1.3-0.7,2.9,0.3,2.9,1.8l0.1,12.4H183.3z"/>
	<path class="st0" d="M23.6,42.6l0.3-19c0-1.2,0.7-2.4,1.8-3c0,0,0.1,0,0.1,0c2-1.1,4.5,0.5,4.5,2.8l0.1,19.2H23.6z"/>
	<path class="st0" d="M40.6,42.6l0.3-19c0-1.2,0.7-2.4,1.8-3c0,0,0.1,0,0.1,0c2-1.1,4.5,0.5,4.5,2.8l0.1,19.2H40.6z"/>
	<polygon class="st1" points="613.9,10.8 627,3.5 640.9,10.8 	"/>
	<polygon class="st1" points="578.8,24.1 596.2,14.4 614.7,24.1 	"/>
	<rect x="614.2" y="10.8" class="st2" width="26.3" height="70.8"/>
	<rect x="580" y="24.2" class="st6" width="34.4" height="57.5"/>
	<rect x="692.5" y="24.1" class="st3" width="35.1" height="59.6"/>
	<rect x="526" y="13.2" class="st4" width="53.9" height="66.6"/>
	<rect x="640.4" y="13.2" class="st4" width="53.9" height="69.7"/>
	<polygon class="st1" points="525.5,13.5 545.1,4.9 561.2,4.9 580.5,13.5 	"/>
	<polygon class="st1" points="639.8,13.5 659.5,4.9 675.6,4.9 694.9,13.5 	"/>
	<polygon class="st1" points="694,24.1 706.2,18.8 716.1,18.8 728.1,24.1 	"/>
	<path class="st0" d="M532,41.3l0.3-19c0-1.2,0.7-2.4,1.8-3c0,0,0.1,0,0.1,0c2-1.1,4.5,0.5,4.5,2.8l0.1,19.2H532z"/>
	<path class="st0" d="M533.9,53.9l0.1-8.3c0-0.5,0.3-1,0.8-1.3c0,0,0,0,0,0c0.9-0.5,1.9,0.2,2,1.2l0,8.4H533.9z"/>
	<path class="st0" d="M541.6,53.9l0.1-8.3c0-0.5,0.3-1,0.8-1.3c0,0,0,0,0,0c0.9-0.5,1.9,0.2,2,1.2l0,8.4H541.6z"/>
	<path class="st0" d="M550.2,53.9l0.1-8.3c0-0.5,0.3-1,0.8-1.3c0,0,0,0,0,0c0.9-0.5,1.9,0.2,2,1.2l0,8.4H550.2z"/>
	<path class="st0" d="M558.9,53.9l0.1-8.3c0-0.5,0.3-1,0.8-1.3c0,0,0,0,0,0c0.9-0.5,1.9,0.2,2,1.2l0,8.4H558.9z"/>
	<path class="st0" d="M583.3,65.1l0.1-8.3c0-0.5,0.3-1,0.8-1.3c0,0,0,0,0,0c0.9-0.5,1.9,0.2,2,1.2l0,8.4H583.3z"/>
	<path class="st0" d="M591,65l0.1-8.3c0-0.5,0.3-1,0.8-1.3c0,0,0,0,0,0c0.9-0.5,1.9,0.2,2,1.2l0,8.4H591z"/>
	<path class="st0" d="M599.6,65l0.1-8.3c0-0.5,0.3-1,0.8-1.3c0,0,0,0,0,0c0.9-0.5,1.9,0.2,2,1.2l0,8.4H599.6z"/>
	<path class="st0" d="M608.3,65l0.1-8.3c0-0.5,0.3-1,0.8-1.3c0,0,0,0,0,0c0.9-0.5,1.9,0.2,2,1.2l0,8.4H608.3z"/>
	<path class="st0" d="M697.2,39.7l0.1-8.3c0-0.5,0.3-1,0.8-1.3c0,0,0,0,0,0c0.9-0.5,1.9,0.2,2,1.2l0,8.4H697.2z"/>
	<path class="st0" d="M704.9,39.7l0.1-8.3c0-0.5,0.3-1,0.8-1.3c0,0,0,0,0,0c0.9-0.5,1.9,0.2,2,1.2l0,8.4H704.9z"/>
	<path class="st0" d="M713.5,39.7l0.1-8.3c0-0.5,0.3-1,0.8-1.3c0,0,0,0,0,0c0.9-0.5,1.9,0.2,2,1.2l0,8.4H713.5z"/>
	<path class="st0" d="M722.1,39.7l0.1-8.3c0-0.5,0.3-1,0.8-1.3c0,0,0,0,0,0c0.9-0.5,1.9,0.2,2,1.2l0,8.4H722.1z"/>
	<path class="st0" d="M697.2,52.9l0.1-8.3c0-0.5,0.3-1,0.8-1.3c0,0,0,0,0,0c0.9-0.5,1.9,0.2,2,1.2l0,8.4H697.2z"/>
	<path class="st0" d="M704.9,52.9l0.1-8.3c0-0.5,0.3-1,0.8-1.3c0,0,0,0,0,0c0.9-0.5,1.9,0.2,2,1.2l0,8.4H704.9z"/>
	<path class="st0" d="M713.5,52.9l0.1-8.3c0-0.5,0.3-1,0.8-1.3c0,0,0,0,0,0c0.9-0.5,1.9,0.2,2,1.2l0,8.4H713.5z"/>
	<path class="st0" d="M722.1,52.9l0.1-8.3c0-0.5,0.3-1,0.8-1.3c0,0,0,0,0,0c0.9-0.5,1.9,0.2,2,1.2l0,8.4H722.1z"/>
	<path class="st0" d="M567.1,53.9l0.1-8.3c0-0.5,0.3-1,0.8-1.3c0,0,0,0,0,0c0.9-0.5,1.9,0.2,2,1.2l0,8.4H567.1z"/>
	<path class="st0" d="M584.2,36.8l0.1-8.3c0-0.5,0.3-1,0.8-1.3c0,0,0,0,0,0c0.9-0.5,1.9,0.2,2,1.2l0,8.4H584.2z"/>
	<path class="st0" d="M584.2,52.7l0.1-8.3c0-0.5,0.3-1,0.8-1.3c0,0,0,0,0,0c0.9-0.5,1.9,0.2,2,1.2l0,8.4H584.2z"/>
	<path class="st0" d="M606.5,53l0.1-8.3c0-0.5,0.3-1,0.8-1.3c0,0,0,0,0,0c0.9-0.5,1.9,0.2,2,1.2l0,8.4H606.5z"/>
	<path class="st0" d="M606.5,36.8l0.1-8.3c0-0.5,0.3-1,0.8-1.3c0,0,0,0,0,0c0.9-0.5,1.9,0.2,2,1.2l0,8.4H606.5z"/>
	<path class="st0" d="M649.3,53.9l0.1-8.3c0-0.5,0.3-1,0.8-1.3c0,0,0,0,0,0c0.9-0.5,1.9,0.2,2,1.2l0,8.4H649.3z"/>
	<path class="st0" d="M657,53.9l0.1-8.3c0-0.5,0.3-1,0.8-1.3c0,0,0,0,0,0c0.9-0.5,1.9,0.2,2,1.2l0,8.4H657z"/>
	<path class="st0" d="M665.6,53.9l0.1-8.3c0-0.5,0.3-1,0.8-1.3c0,0,0,0,0,0c0.9-0.5,1.9,0.2,2,1.2l0,8.4H665.6z"/>
	<path class="st0" d="M674.2,53.9l0.1-8.3c0-0.5,0.3-1,0.8-1.3c0,0,0,0,0,0c0.9-0.5,1.9,0.2,2,1.2l0,8.4H674.2z"/>
	<path class="st0" d="M682.4,53.9l0.1-8.3c0-0.5,0.3-1,0.8-1.3c0,0,0,0,0,0c0.9-0.5,1.9,0.2,2,1.2l0,8.4H682.4z"/>
	<path class="st0" d="M617.5,36.8l0.3-19c0-1.2,0.7-2.4,1.8-3c0,0,0.1,0,0.1,0c2-1.1,4.5,0.5,4.5,2.8l0.1,19.2H617.5z"/>
	<path class="st0" d="M630.5,36.8l0.3-19c0-1.2,0.7-2.4,1.8-3c0,0,0.1,0,0.1,0c2-1.1,4.5,0.5,4.5,2.8l0.1,19.2H630.5z"/>
	<path class="st0" d="M617.5,61.2l0.3-19c0-1.2,0.7-2.4,1.8-3c0,0,0.1,0,0.1,0c2-1.1,4.5,0.5,4.5,2.8l0.1,19.2H617.5z"/>
	<path class="st0" d="M630.3,61.2l0.3-19c0-1.2,0.7-2.4,1.8-3c0,0,0.1,0,0.1,0c2-1.1,4.5,0.5,4.5,2.8l0.1,19.2H630.3z"/>
	<path class="st5" d="M550.8,80.3l0.2-12.2c0-0.8,0.4-1.5,1.1-1.9c0,0,0,0,0.1,0c1.3-0.7,2.9,0.3,2.9,1.8l0,12.4H550.8z"/>
	<path class="st5" d="M595,80.3l0.2-12.2c0-0.8,0.4-1.5,1.1-1.9c0,0,0,0,0.1,0c1.3-0.7,2.9,0.3,2.9,1.8l0,12.4H595z"/>
	<path class="st5" d="M625.2,80.3l0.2-12.2c0-0.8,0.4-1.5,1.1-1.9c0,0,0,0,0.1,0c1.3-0.7,2.9,0.3,2.9,1.8l0,12.4H625.2z"/>
	<path class="st5" d="M709,82.6l0.2-12.2c0-0.8,0.4-1.5,1.1-1.9c0,0,0,0,0.1,0c1.3-0.7,2.9,0.3,2.9,1.8l0,12.4H709z"/>
	<path class="st0" d="M549.2,41.3l0.3-19c0-1.2,0.7-2.4,1.8-3c0,0,0.1,0,0.1,0c2-1.1,4.5,0.5,4.5,2.8l0.1,19.2H549.2z"/>
	<path class="st0" d="M566.2,41.3l0.3-19c0-1.2,0.7-2.4,1.8-3c0,0,0.1,0,0.1,0c2-1.1,4.5,0.5,4.5,2.8l0.1,19.2H566.2z"/>
	<path class="st0" d="M593.4,51.9l0.3-19c0-1.2,0.7-2.4,1.8-3c0,0,0.1,0,0.1,0c2-1.1,4.5,0.5,4.5,2.8l0.1,19.2H593.4z"/>
	<path class="st0" d="M646.9,39.7l0.3-19c0-1.2,0.7-2.4,1.8-3c0,0,0.1,0,0.1,0c2-1.1,4.5,0.5,4.5,2.8l0.1,19.2H646.9z"/>
	<path class="st0" d="M664.1,39.7l0.3-19c0-1.2,0.7-2.4,1.8-3c0,0,0.1,0,0.1,0c2-1.1,4.5,0.5,4.5,2.8l0.1,19.2H664.1z"/>
	<path class="st0" d="M681,39.7l0.3-19c0-1.2,0.7-2.4,1.8-3c0,0,0.1,0,0.1,0c2-1.1,4.5,0.5,4.5,2.8l0.1,19.2H681z"/>
	<rect x="54.3" y="25.5" class="st6" width="34.4" height="57.5"/>
	<rect x="114.7" y="14.5" class="st4" width="53.9" height="69.7"/>
	<polygon class="st1" points="114.2,14.8 133.8,6.2 149.9,6.2 169.2,14.8 	"/>
	<path class="st0" d="M57.7,66.4l0.1-8.3c0-0.5,0.3-1,0.8-1.3c0,0,0,0,0,0c0.9-0.5,1.9,0.2,2,1.2l0,8.4H57.7z"/>
	<path class="st0" d="M65.4,66.4l0.1-8.3c0-0.5,0.3-1,0.8-1.3c0,0,0,0,0,0c0.9-0.5,1.9,0.2,2,1.2l0,8.4H65.4z"/>
	<path class="st0" d="M74,66.4l0.1-8.3c0-0.5,0.3-1,0.8-1.3c0,0,0,0,0,0c0.9-0.5,1.9,0.2,2,1.2l0,8.4H74z"/>
	<path class="st0" d="M82.6,66.4l0.1-8.3c0-0.5,0.3-1,0.8-1.3c0,0,0,0,0,0c0.9-0.5,1.9,0.2,2,1.2l0,8.4H82.6z"/>
	<path class="st0" d="M58.6,38.2l0.1-8.3c0-0.5,0.3-1,0.8-1.3c0,0,0,0,0,0c0.9-0.5,1.9,0.2,2,1.2l0,8.4H58.6z"/>
	<path class="st0" d="M58.6,54.1l0.1-8.3c0-0.5,0.3-1,0.8-1.3c0,0,0,0,0,0c0.9-0.5,1.9,0.2,2,1.2l0,8.4H58.6z"/>
	<path class="st0" d="M80.9,54.4l0.1-8.3c0-0.5,0.3-1,0.8-1.3c0,0,0,0,0,0c0.9-0.5,1.9,0.2,2,1.2l0,8.4H80.9z"/>
	<path class="st0" d="M80.9,38.2l0.1-8.3c0-0.5,0.3-1,0.8-1.3c0,0,0,0,0,0c0.9-0.5,1.9,0.2,2,1.2l0,8.4H80.9z"/>
	<path class="st0" d="M123.7,55.2l0.1-8.3c0-0.5,0.3-1,0.8-1.3c0,0,0,0,0,0c0.9-0.5,1.9,0.2,2,1.2l0,8.4H123.7z"/>
	<path class="st0" d="M131.3,55.2l0.1-8.3c0-0.5,0.3-1,0.8-1.3c0,0,0,0,0,0c0.9-0.5,1.9,0.2,2,1.2l0,8.4H131.3z"/>
	<path class="st0" d="M140,55.2l0.1-8.3c0-0.5,0.3-1,0.8-1.3c0,0,0,0,0,0c0.9-0.5,1.9,0.2,2,1.2l0,8.4H140z"/>
	<path class="st0" d="M148.6,55.2l0.1-8.3c0-0.5,0.3-1,0.8-1.3c0,0,0,0,0,0c0.9-0.5,1.9,0.2,2,1.2l0,8.4H148.6z"/>
	<path class="st0" d="M156.8,55.2l0.1-8.3c0-0.5,0.3-1,0.8-1.3c0,0,0,0,0,0c0.9-0.5,1.9,0.2,2,1.2l0,8.4H156.8z"/>
	<path class="st0" d="M67.8,53.2l0.3-19c0-1.2,0.7-2.4,1.8-3c0,0,0.1,0,0.1,0c2-1.1,4.5,0.5,4.5,2.8l0.1,19.2H67.8z"/>
	<path class="st0" d="M121.3,41.1l0.3-19c0-1.2,0.7-2.4,1.8-3c0,0,0.1,0,0.1,0c2-1.1,4.5,0.5,4.5,2.8l0.1,19.2H121.3z"/>
	<path class="st0" d="M138.4,41.1l0.3-19c0-1.2,0.7-2.4,1.8-3c0,0,0.1,0,0.1,0c2-1.1,4.5,0.5,4.5,2.8l0.1,19.2H138.4z"/>
	<path class="st0" d="M155.4,41.1l0.3-19c0-1.2,0.7-2.4,1.8-3c0,0,0.1,0,0.1,0c2-1.1,4.5,0.5,4.5,2.8l0.1,19.2H155.4z"/>
	<polygon class="st1" points="88.2,12.2 101.4,4.9 115.3,12.2 	"/>
</g>
<g id="couple">
	<g>
		<ellipse class="st7" cx="553.7" cy="25.2" rx="14.4" ry="12.8"/>
		
			<ellipse transform="matrix(0.9963 8.587866e-02 -8.587866e-02 0.9963 4.4293 -50.9912)" class="st7" cx="594.9" cy="26" rx="14.4" ry="12.8"/>
		<path class="st8" d="M560.2,36.5c1.8,1.7,4.4,5.1-2,7.1c-0.3,0.1-0.6,0.2-0.9,0.2c-1.8,0.2-8.3,0.9-13.7-1c-0.9-0.3-1.6-0.9-2-1.7
			c-0.8-1.5-1.4-4.1,2.1-5.5c0.2-0.1,0.3-0.1,0.5-0.2c1.4-0.4,7.8-1.9,13.3-0.4C558.6,35.3,559.5,35.8,560.2,36.5z"/>
		<path class="st5" d="M558.2,43.5c0,0,10.3,27.3,1.2,27.6c0,0-25.5,3.6-21.4-7.4l5.6-21.3C543.7,42.4,548.8,45.7,558.2,43.5z"/>
		<path class="st9" d="M560,30.5c-0.6,0.8-1.3,1.6-1.7,2.5s-0.4,2.1,0.3,2.9c0.7,0.7,1.9,0.8,2.9,0.7c2.3-0.1,4.6-0.6,6.3-2.1
			c2-1.7,2.7-4.6,3.2-7.2c0.9-5.3,0.9-11-1.8-15.6c0.4,1.7,0.6,3.5,0.4,5.2c-1.5-0.2-2.7-1.2-3.8-2.1c-4.3-3.2-9.4-5.3-14.8-5.6
			c-5.3-0.3-10.8-0.2-15,3.2c2.7-0.5,5.4,0.9,8.1,1.3c-2.6,0-5.7-0.6-8.1,0.6c4.4,0.9,5.7,4,8.4,5.4c1.5,0.8,3.1,1.6,4.7,2
			c1.6,0.4,3.2,0.3,4.8,0.4c2.2,0.1,4.4,0.4,6.5,0.9c0.5,0.1,1,0.2,1.3,0.6c0.4,0.5,0.4,1.1,0.3,1.7C561.9,27.2,561.1,28.9,560,30.5
			z"/>
		<path class="st10" d="M559.8,46.5c4.5,12.2,15.9,11.5,15.9,11.5c-17.5,7.5-21.2-9.3-21.2-9.3l-0.5-1.9l4.2-3.4L559.8,46.5z"/>
		<path class="st11" d="M585.6,47.1c-4.5,12.2-15.9,11.5-15.9,11.5c17.5,7.5,21.2-9.3,21.2-9.3l0.5-1.9l-4.2-3.4L585.6,47.1z"/>
		<path class="st8" d="M546.3,44.2c-4.6,1-7,6.7-11.6,7.9c-1-1.9-1.8-4-2.5-6c1.4,0.5,2.9,0.1,4.2-0.6c1.3-0.7,2.4-1.7,3.6-2.5
			c2.7-1.9,5.9-2.9,9.2-3c1.4,0,3.6-0.1,4.9,0.5c1.8,0.9,0.4,1.5-0.5,2.9c-3,4.4-3.7,10.4-8.3,13.6c-0.2,0.1-0.4,0.3-0.7,0.3
			c-0.2,0-0.4,0-0.6-0.1c-1.1-0.4-2.2-0.7-3.3-1.1c2.4-2.4,4.2-5.5,5-8.8c0.2-0.7,0.3-1.3,0.5-2c0.7-1.7,2.2-2.9,3.9-3.5
			c1.6-0.6,3.4-0.7,5.1-0.7L546.3,44.2z"/>
		<path class="st11" d="M589.4,40.9c0,0-12.7,28.9-2.8,32.3c0,0,6.9,2,12.8,0.8c4.7-1,8-5.4,7.6-10.3c-0.5-5.8-1.8-17.1-5.5-21.8
			L589.4,40.9z"/>
		<g>
			<path class="st5" d="M603.2,38.9c1.7,1.8,3.9,5.4-2.6,6.9c-0.3,0.1-0.6,0.1-0.9,0.1c-1.8,0.1-8.4,0.2-13.5-2.2
				c-0.9-0.4-1.5-1.1-1.8-1.9c-0.6-1.6-1.1-4.2,2.6-5.3c0.2,0,0.3-0.1,0.5-0.1c1.4-0.2,7.9-1.2,13.3,0.8
				C601.7,37.6,602.6,38.2,603.2,38.9z"/>
			<path class="st5" d="M588.7,45.4c-4.7,0.6-7.6,6.1-12.3,6.9c-0.8-2-1.4-4.1-2-6.2c1.3,0.6,2.9,0.4,4.2-0.2
				c1.3-0.6,2.5-1.5,3.8-2.2c2.8-1.6,6.1-2.4,9.4-2.2c1.4,0.1,3.6,0.2,4.8,1c1.7,1.1,0.3,1.6-0.7,2.8c-3.3,4.1-4.6,10.1-9.4,12.9
				c-0.2,0.1-0.5,0.3-0.7,0.3c-0.2,0-0.4-0.1-0.6-0.2c-1.1-0.5-2.1-0.9-3.2-1.4c2.6-2.2,4.6-5.1,5.7-8.4c0.2-0.7,0.4-1.3,0.7-1.9
				c0.8-1.6,2.4-2.7,4.2-3.2c1.7-0.5,3.4-0.4,5.1-0.2L588.7,45.4z"/>
		</g>
		<path class="st9" d="M609.8,29c0-1.8-0.1-3.6-0.4-5.4c-0.2-1.2-0.4-2.4-1-3.4c-1.8-3.4-5.9-4.6-9.6-5.5c-3.3-0.8-6.7-1.5-10-1.3
			c-3.4,0.2-6.8,1.5-9,4.1c-0.5,0.6-0.9,1.3-1,2.1c-0.1,1.7,1.5,3.1,3.1,3.6c2.9,0.9,6.1,0.1,9.1-0.5c3-0.5,6.2-0.7,8.9,0.5
			c2.8,1.2,5,4.1,4.5,7.1c-0.1,0.7-0.3,1.6,0.3,2c0.2,0.2,0.6,0.2,0.9,0.2c1.4,0.1,3.1-0.2,3.8-1.4C609.7,30.6,609.7,29.8,609.8,29z
			"/>
		
			<ellipse transform="matrix(0.9963 8.587866e-02 -8.587866e-02 0.9963 3.1976 -51.4008)" class="st9" cx="599" cy="11.5" rx="9.5" ry="6.1"/>
		<path class="st8" d="M590.2,13.3c0.1-0.2,0.4-0.3,0.7-0.4c1.6-0.3,3.3,0.3,4.9,0.8c1.3,0.4,2.6,0.8,4,1c1.3,0.2,2.7,0.3,4,0.8
			c0.7,0.3,1.3,0.9,0.8,1.3c-0.3,0.3-1,0.2-1.5,0.1c-3.3-0.7-6.6-1.3-9.9-2c-1.1-0.2-2.2-0.5-2.8-1.2
			C590.2,13.7,590.1,13.5,590.2,13.3z"/>
	</g>
</g>
<g id="boat">
	<g>
		<line class="st12" x1="674.5" y1="27.8" x2="687.6" y2="27.8"/>
		<line class="st12" x1="675.2" y1="24.3" x2="687.6" y2="24.3"/>
		<line class="st12" x1="677.9" y1="20.6" x2="687.6" y2="20.6"/>
		<line class="st12" x1="679.3" y1="17.2" x2="687.6" y2="17.2"/>
		<path class="st13" d="M522.7,62.1l12.8,17.8H645c0,0,23.7-17.3,29.9-44.7c0,0,4.3-18,14.2-16.6V7.9c0,0-8.5,1.2-10.9,7.6
			c0,0-4.2,21.1-30.5,33.4c0,0-41.9,20.8-63.9,20.8C583.8,69.7,544.4,73.7,522.7,62.1z"/>
	</g>
</g>
<g id="water">
	<g>
		<path class="st14" d="M0.1,73.1C4.4,63.5,10.6,57.4,21.8,58c8.9,0.4,19.2,4.7,26.4,9.9c7.6,5.5,14.8,12,23.6,15.4
			c5.9,2.3,12.6,1.1,18,3c-6,7.1-19.3,6.4-27.6,5.9c-8.8-0.6-15.7-5.8-22.8-10.8c-6.2-4.3-11.1-9.5-18.8-8.3
			C14.5,74-1.2,83.6,0.1,73.1"/>
	</g>
	<g>
		<path class="st14" d="M148.2,72.8c5-2,12.7-1.6,18.1-2.4c5.2-0.8,10.3-2.4,15.2-4.6c13.5-6.1,11.2,1.7,24.8-0.4
			c-1.1,6.7-0.1,17.4-5.7,21.5c-3.8,2.8-8.4,4.6-12.1,7.3c-5,3.7-8.8,7.7-14.4,10.4c-7.4,3.6-28.3,8.1-21.3-7.4
			c2-4.4,7.6-6.2,5.8-11.2c-0.9-2.5-4-3.7-5.4-5.8c-1.6-2.4-1.4-5-3.9-6.9"/>
	</g>
	<g>
		<path class="st15" d="M49.1,68.9c9.7,0,18.3,0.6,27.9-1.5c13.9-3,29.3-8,43.6-5.3c10.6,2,20.4,8.3,30.6,11.6
			c4.7,1.5,9.5,3.6,14.4,4.3c4.2,0.6,10.5-0.9,14.3,0.7c-1.4,10.3-32.3,13.7-39.9,12.6c-8.5-1.3-14.1-7.1-21.1-11.2
			c-4.9-2.9-11-2.9-16.6-2.4c-9.5,0.8-16.7,7.9-25.9,8.8c-11.9,1.2-19.7-10.4-27.4-17.1"/>
	</g>
	<g>
		<path class="st15" d="M0.1,96.6c6.5-0.8,14,6.2,20.2,9.9c7.9,4.7,12.8,12.6,22.2,14.8c17,4,31.5-3.6,47.4-7.5
			c21.3-5.2,42.1,10.8,64,7.4c11.8-1.8,28.5-7.7,35.5-18.3c2.4-3.6,8.9-16.6,0.2-18.7c-8.1,30.8-51,13.7-69.1,6.9
			c-17.5-6.5-31.3,0.2-47.7,6c-18.6,6.6-28.1-9.2-43.3-15.1c-4.5-1.7-8.9-2.4-13.7-2.6C11.1,79.5,0.1,75,0.1,79.6
			c-0.1,4.8,0,9.5,0,16.5"/>
	</g>
	<g>
		<path class="st16" d="M0,75.6c8.8-5.3,5.3-4.2,14.2-5.9c10.9-2.1,18.2,2.7,25.7,10.1c7,6.9,16.8,11.2,26.9,10.2
			c11.3-1.1,20.9-8.9,31.4-12.5c5.8-2,13.7-3.9,19.9-2.5c5,1.1,9,5.3,13.4,7.9c6.4,3.7,13,6.1,20.3,7c6.4,0.8,22.7-8.5,28.3-11.2
			c-2.4,8.3-9,24.1-31.8,25.9c-11.1,0.9-19-5-28.1-9.4c-9.4-4.5-19.4-3.4-28.1,1.7c-9.5,5.6-20.2,13.1-31.9,12.2
			c-8.5-0.6-15.3-8.5-21.4-13.6c-7-5.8-13.3-10.2-22.4-12.1C8.5,81.9,7.4,81.8,0,82.6"/>
	</g>
	<path class="st15" d="M203.8,75.1c-7.4,2-5.8,0.5-13.6,1.8c-2.6,0.4-5.1,0.9-7.7,1.3c-0.6,0.1-2.2,0.2-2.5,0.7
		c-0.3,0.6-0.4,0.9-0.7,1.6c-3.7,9.5-10.3,18.1-19.8,21.7c5.7,1.1,11.8,2.1,17.3,0c5.9-2.3,12.9-4.6,14.6-10.7
		c5.3,0.3,12.5,0.8,12.7-4.5C204.2,83.5,203.4,80.3,203.8,75.1z"/>
	<g>
		<path class="st14" d="M193.9,81.6c4.3-9.6,11.9-20.1,23.1-19.6c8.9,0.4,19.2,4.7,26.4,9.9c7.6,5.5,14.8,12,23.6,15.4
			c5.9,2.3,12.6,1.1,18,3c-6,7.1-19.3,6.4-27.6,5.9c-8.8-0.6-15.7-5.8-22.8-10.8c-6.2-4.3-11.1-8-18.8-8.3
			C210.4,77,198.9,78.5,193.9,81.6"/>
	</g>
	<g>
		<path class="st14" d="M339.9,75c5.8-2.1,14.8-1.7,21.2-2.6c6.1-0.8,12.1-2.5,17.7-4.8c15.8-6.5,10.7,0.8,26.6-1.5
			c-1.2,7.1,2.3,19.6-4.3,23.9c-4.4,2.9-9.8,4.8-14.2,7.8c-5.9,3.9-10.3,8.2-16.9,11.1c-8.7,3.8-33.1,8.7-24.9-7.8
			c2.3-4.6,8.9-6.7,6.7-12c-1.1-2.6-4.7-3.9-6.4-6.2c-1.8-2.6-1.6-5.3-4.5-7.3"/>
	</g>
	<g>
		<path class="st15" d="M244.9,73c9.7,0,18.9,0.6,28.6-1.5c13.9-3,29.3-8,43.6-5.3c10.6,2,20.4,8.3,30.6,11.6
			c4.7,1.5,9.5,3.6,14.4,4.3c4.2,0.6,9.3-0.9,13.1,0.7c-1.4,10.3-31.1,13.7-38.7,12.6c-8.5-1.3-14.1-7.1-21.1-11.2
			c-4.9-2.9-11-2.9-16.6-2.4c-9.5,0.8-16.7,7.9-25.9,8.8c-11.9,1.2-19.7-10.4-27.4-17.1"/>
	</g>
	<g>
		<path class="st15" d="M188.3,113.6c2.4-10.6,21.1-6.7,27.3-2.9c7.9,4.7,12.8,12.6,22.2,14.8c17,4,31.5-3.6,47.4-7.5
			c21.3-5.2,42.1,10.8,64,7.4c11.8-1.8,28.5-7.7,35.5-18.3c2.4-3.6,8.9-16.6,0.2-18.7c-8.1,30.8-51,13.7-69.1,6.9
			c-17.5-6.5-31.3,0.2-47.7,6c-18.6,6.6-28.1-9.2-43.3-15.1c-4.5-1.7-8.9-2.4-13.7-2.6c-4.5-0.1-13.3-1.6-17.3,0.6
			c-7.4,4-4.4,18.8-4.4,25.8"/>
	</g>
	<g>
		<path class="st16" d="M187.7,88.8c4.9-7.7,12.9-13.3,21.8-15c10.9-2.1,18.2,2.7,25.7,10.1c7,6.9,16.8,11.2,26.9,10.2
			c11.3-1.1,20.9-8.9,31.4-12.5c5.8-2,13.7-3.9,19.9-2.5c5,1.1,9,5.3,13.4,7.9c6.4,3.7,13,6.1,20.3,7c6.4,0.8,22.7-8.5,28.3-11.2
			c-2.4,8.3-9,24.1-31.8,25.9c-11.1,0.9-19-5-28.1-9.4c-9.4-4.5-19.4-3.4-28.1,1.7c-9.5,5.6-20.2,13.1-31.9,12.2
			c-8.5-0.6-15.3-8.5-21.4-13.6c-7-5.8-13.3-10.2-22.4-12.1C203.8,86,194.9,85.4,187.7,88.8"/>
	</g>
	<path class="st15" d="M399.1,79.2c-7.4,2-5.8,0.5-13.6,1.8c-2.6,0.4-5.1,0.9-7.7,1.3c-0.6,0.1-2.2,0.2-2.5,0.7
		c-0.3,0.6-0.4,0.9-0.7,1.6c-3.7,9.5-10.3,18.1-19.8,21.7c5.7,1.1,11.8,2.1,17.3,0c5.9-2.3,12.9-4.6,14.6-10.7
		c5.3,0.3,12.5,0.8,12.7-4.5C399.5,87.6,398.7,84.4,399.1,79.2z"/>
	<g>
		<path class="st14" d="M388.6,83.1c4.3-9.6,11.7-19,22.9-18.5c8.9,0.4,19.2,4.7,26.4,9.9c7.6,5.5,14.8,12,23.6,15.4
			c5.9,2.3,12.6,1.1,18,3c-6,7.1-19.3,6.4-27.6,5.9c-8.8-0.6-15.7-5.8-22.8-10.8c-6.2-4.3-11.1-8-18.8-8.3
			C404.8,79.6,393.6,80.1,388.6,83.1"/>
	</g>
	<g>
		<path class="st14" d="M537.9,79.5c5-2,12.7-1.6,18.1-2.4c5.2-0.8,8.4-1.8,13.7-1.2c14,1.5,10.7,4.5,24.2,2.4
			c-1.1,6.7,1.9,11.3-3.6,15.3c-3.8,2.8-8.4,4.6-12.1,7.3c-5,3.7-8.8,7.7-14.4,10.4c-7.4,3.6-28.3,8.1-21.3-7.4
			c2-4.4,7.6-6.2,5.8-11.2c-0.9-2.5-4-3.7-5.4-5.8c-1.6-2.4-1.4-5-3.9-6.9"/>
	</g>
	<g>
		<path class="st15" d="M438.6,75.6c9.7,0,19.7,0.6,29.3-1.5c13.9-3,29.3-8,43.6-5.3c10.6,2,20.4,8.3,30.6,11.6
			c4.7,1.5,9.5,3.6,14.4,4.3c4.2,0.6,9.3-0.9,13.1,0.7C568.3,95.7,538.6,99.2,531,98c-8.5-1.3-14.1-7.1-21.1-11.2
			c-4.9-2.9-11-2.9-16.6-2.4c-9.5,0.8-16.7,7.9-25.9,8.8c-11.9,1.2-19.7-10.4-27.4-17.1"/>
	</g>
	<g>
		<path class="st16" d="M381.8,90.5c4.9-7.7,13.3-12.3,22.1-14c10.9-2.1,18.2,2.7,25.7,10.1c7,6.9,16.8,11.2,26.9,10.2
			c11.3-1.1,20.9-8.9,31.4-12.5c5.8-2,13.7-3.9,19.9-2.5c5,1.1,9,5.3,13.4,7.9c6.4,3.7,13,6.1,20.3,7c6.4,0.8,22.7-8.5,28.3-11.2
			c-2.4,8.3-9,24.1-31.8,25.9c-11.1,0.9-19-5-28.1-9.4c-9.4-4.5-19.4-3.4-28.1,1.7c-9.5,5.6-20.2,13.1-31.9,12.2
			c-8.5-0.6-15.3-8.5-21.4-13.6c-7-5.8-13.3-10.2-22.4-12.1C398.2,88.6,389,87.1,381.8,90.5"/>
	</g>
	<path class="st15" d="M593.5,81.8c-7.4,2-5.8,0.5-13.6,1.8c-2.6,0.4-5.1,0.9-7.7,1.3c-0.6,0.1-2.2,0.2-2.5,0.7
		c-0.3,0.6-0.4,0.9-0.7,1.6c-3.7,9.5-10.3,18.1-19.8,21.7c5.7,1.1,11.8,2.1,17.3,0c5.9-2.3,12.9-4.6,14.6-10.7
		c5.3,0.3,12.5,0.8,12.7-4.5C593.9,90.2,593.1,87,593.5,81.8z"/>
	<g>
		<path class="st14" d="M581.3,87.2c4.3-9.6,11.2-10.8,22.4-10.2c8.9,0.4,19.6-3.5,26.8,1.7c7.6,5.5,14.8,12,23.6,15.4
			c5.9,2.3,12.6,1.1,18,3c-6,7.1-19.3,6.4-27.6,5.9c-8.8-0.6-15.7-5.8-22.8-10.8c-6.2-4.3-11.1-8-18.8-8.3
			C597.4,83.7,586.3,84.1,581.3,87.2"/>
	</g>
	<g>
		<path class="st15" d="M632.7,79.7c9.7,0,18.3,0.6,27.9-1.5c13.9-3,29.3-8,43.6-5.3c10.6,2,13.7,5.7,23.9,9.1
			c4.7,1.5-0.1-2.7,0,2.2c0,1.8,0.2,1.6,0,3c-0.2,10,3.2,16-4.4,14.9c-8.5-1.3-14.1-7.1-21.1-11.2c-4.9-2.9-11-2.9-16.6-2.4
			c-9.5,0.8-16.7,7.9-25.9,8.8c-11.9,1.2-19.7-10.4-27.4-17.1"/>
	</g>
	<g>
		<path class="st16" d="M574.4,94.6c4.9-7.7,13.3-12.3,22.1-14c10.9-2.1,18.2,2.7,25.7,10.1c7,6.9,16.8,11.2,26.9,10.2
			c11.3-1.1,20.9-8.9,31.4-12.5c5.8-2,13.7-3.9,19.9-2.5c5,1.1,9,5.3,13.4,7.9c6.4,3.7,13,6.1,20.3,7c6.4,0.8,22.7-8.5,28.3-11.2
			c-2.4,8.3-9,24.1-31.8,25.9c-11.1,0.9-19-5-28.1-9.4c-9.4-4.5-19.4-3.4-28.1,1.7c-9.5,5.6-20.2,13.1-31.9,12.2
			c-8.5-0.6-15.3-8.5-21.4-13.6c-7-5.8-13.3-10.2-22.4-12.1C590.9,92.7,581.6,91.1,574.4,94.6"/>
	</g>
</g>
<g id="logo">
	<g>
		<path class="st17" d="M324.2,76.6l0.3,1.7h-0.2c-0.2-1-1.2-1.5-2.2-1.5c-0.2,0-0.3,0-0.5,0.1v2.9h0.4c0.8,0,1.3-0.3,1.3-1h0.2v2.4
			h-0.1c-0.1-0.5-0.3-1.1-1.3-1.1h-0.4v2.7c0,0.4,0.2,0.7,0.9,0.7v0.2h-2.8v-0.2c0.6,0,0.9-0.3,0.9-0.7v-5.2c0-0.4-0.3-0.7-0.9-0.7
			v-0.2H324.2L324.2,76.6z"/>
		<path class="st17" d="M329.9,76.6l0.3,1.7H330c-0.2-1-1.2-1.5-2.2-1.5c-0.2,0-0.3,0-0.5,0.1v2.9h0.4c0.8,0,1.3-0.3,1.3-1h0.2v2.4
			H329c-0.1-0.5-0.3-1.1-1.3-1.1h-0.4v2.7c0,0.4,0.2,0.7,0.9,0.7v0.2h-2.8v-0.2c0.6,0,0.9-0.3,0.9-0.7v-5.2c0-0.4-0.3-0.7-0.9-0.7
			v-0.2H329.9L329.9,76.6z"/>
		<path class="st17" d="M318.2,76.6v0.2c-0.5,0-0.8,0.3-0.8,0.7v5.2c0,0.5,0.3,0.7,0.8,0.7v0.2h-2.7v-0.2c0.5,0,0.8-0.2,0.8-0.7
			v-5.2c0-0.4-0.3-0.7-0.8-0.7v-0.2H318.2L318.2,76.6z"/>
		<path class="st17" d="M314.7,74.7l0.3,2.1h-0.1c-0.4-1.1-1.1-1.8-2.6-1.8v7.3c0,0.8,0.4,1,0.9,1v0.2h-3.2v-0.2c0.4,0,1-0.3,1-1V75
			c-1.5,0-2.1,0.7-2.6,1.8h-0.1l0.2-2.1H314.7L314.7,74.7z"/>
		<path class="st17" d="M353.8,81.3c0,1.1,0.8,1.9,1.9,1.9c0.5,0,1-0.2,1.4-0.7l-2.2-2.9C354.4,79.8,353.8,80.3,353.8,81.3
			L353.8,81.3z M356.9,77c0-0.9-0.4-1.3-1.1-1.3c-0.8,0-1.2,0.4-1.2,1.2c0,0.8,1.1,2,1.1,2C356.5,78.3,356.9,77.8,356.9,77L356.9,77
			z M355.8,79l1.9,2.4c0,0,0.2-0.4,0.2-0.8c0-0.4-0.2-0.6-0.6-0.7v-0.1h2.1c0,0,0,0.1,0,0.1c-0.4,0.1-0.7,0.2-1,0.4
			c-0.2,0.3-0.3,0.5-0.6,1.2l0.9,1.1c0.4,0.4,0.9,0.7,1.4,0.7v0.2h-2.2v-0.2l-0.6-0.8c-0.5,0.5-1.4,1-2.3,1c-1.4,0-2.3-0.8-2.3-1.8
			c0-1.1,1.1-1.9,1.9-2.4c0,0-0.9-1-0.9-2c0-1.1,0.8-1.9,2-1.9c1,0,1.8,0.7,1.8,1.6C357.6,78.1,356.4,78.5,355.8,79L355.8,79z"/>
		<path class="st17" d="M369.7,74.6l0.1,2.8h-0.2c-0.3-1.6-1.3-2.4-2.6-2.4c-1.6,0-2.6,1.8-2.6,4.2c0,3,1.2,4.3,2.9,4.3
			c1.7,0,2.4-1.6,2.5-2.7h0.2v1.2c-0.3,0.5-1.1,1.7-3,1.7c-2.3,0-4.1-1.9-4.1-4.4c0-2.3,2-4.4,4.1-4.4c1.2,0,1.5,0.5,2,0.5
			c0.3,0,0.5-0.2,0.5-0.7H369.7L369.7,74.6z"/>
		<path class="st17" d="M378,82.2c0.3,0,0.6,0.3,0.6,0.6c0,0.3-0.3,0.6-0.6,0.6c-0.3,0-0.6-0.3-0.6-0.6
			C377.4,82.5,377.7,82.2,378,82.2L378,82.2z"/>
		<path class="st17" d="M371.8,80c0,2.1,0.8,3.4,2.1,3.4c1.3,0,2.2-1.2,2.2-3.4c0-2-0.7-3.2-2.1-3.2C372.5,76.7,371.8,78.1,371.8,80
			L371.8,80z M373.9,76.6c2,0,3.6,1.5,3.6,3.5c0,1.9-1.6,3.4-3.6,3.4c-2,0-3.6-1.6-3.6-3.4S371.9,76.6,373.9,76.6L373.9,76.6z"/>
		<path class="st17" d="M332.6,78.1l1.2,2.8h-2.3L332.6,78.1L332.6,78.1z M336.4,83.4c-0.3,0-0.4-0.2-0.6-0.4
			c-0.1-0.2-2.8-6.7-2.8-6.7l-2.4,6c-0.3,0.8-0.7,1.1-1.2,1.1v0.2h2v-0.2c-0.4,0-0.7-0.2-0.7-0.5c0-0.2,0.6-1.7,0.6-1.7h2.4
			c0,0,0.7,1.4,0.7,1.7c0,0.3-0.3,0.5-0.7,0.5v0.2h2.6V83.4L336.4,83.4z"/>
		<path class="st17" d="M337.5,82.3c0,0.6-0.4,0.9-0.9,1v0.2h2v-0.2c-0.6-0.1-0.9-0.5-0.9-1v-4.5l4.7,5.8V78c0-0.8,0.4-1.3,1-1.3
			v-0.2h-2.3v0.1c0.6,0.2,1.1,0.6,1.1,1.3v3.4l-3.9-4.9h-1.8v0.1c0.8,0,1,0.7,1,0.9V82.3L337.5,82.3z"/>
		<path class="st17" d="M343.7,76.8c0.3,0,0.4,0,0.6,0.4c0,0,2.1,3.4,2.1,3.4v2c0,0.4-0.4,0.7-1,0.7v0.1h3v-0.1
			c-0.5,0-0.9-0.3-0.9-0.7v-2.4c0,0,1.4-2.4,1.5-2.7c0.3-0.5,0.8-0.8,1.3-0.9v-0.1h-2.4l0,0.1c0.8,0,1,0.7,0.7,1.2l-1.2,2.3
			l-1.5-2.7c-0.3-0.4,0.1-0.8,0.6-0.8v-0.1h-2.8V76.8L343.7,76.8z"/>
	</g>
	<text transform="matrix(1 0 0 1 219.7221 49.792)"><tspan x="0" y="0" class="st18 st19 st20">The </tspan><tspan x="55.3" y="0" class="st18 st21 st20">adventure </tspan><tspan x="154.3" y="0" class="st18 st19 st20">continues...</tspan></text>
</g>
</svg>
